<?xml version="1.0" encoding="UTF-8" standalone="no"?>
<!-- Created with Inkscape (http://www.inkscape.org/) -->

<svg
   width="7.8320622in"
   height="1.3913461in"
   viewBox="0 0 198.93465 35.340238"
   version="1.1"
   id="svg5"
   xml:space="preserve"
   inkscape:version="1.2.1 (9c6d41e410, 2022-07-14)"
   sodipodi:docname="dima_logo.svg"
   xmlns:inkscape="http://www.inkscape.org/namespaces/inkscape"
   xmlns:sodipodi="http://sodipodi.sourceforge.net/DTD/sodipodi-0.dtd"
   xmlns="http://www.w3.org/2000/svg"
   xmlns:svg="http://www.w3.org/2000/svg"><sodipodi:namedview
     id="namedview7"
     pagecolor="#ffffff"
     bordercolor="#000000"
     borderopacity="0.25"
     inkscape:showpageshadow="2"
     inkscape:pageopacity="0.0"
     inkscape:pagecheckerboard="0"
     inkscape:deskcolor="#d1d1d1"
     inkscape:document-units="mm"
     showgrid="false"
     showguides="true"
     inkscape:zoom="1.2336892"
     inkscape:cx="408.93607"
     inkscape:cy="57.550964"
     inkscape:window-width="1920"
     inkscape:window-height="991"
     inkscape:window-x="0"
     inkscape:window-y="0"
     inkscape:window-maximized="1"
     inkscape:current-layer="layer1" /><defs
     id="defs2" /><g
     inkscape:label="Layer 1"
     inkscape:groupmode="layer"
     id="layer1"
     transform="translate(-72.252635,-124.44486)"><g
       id="g3101"
       transform="matrix(0.80334898,0,0,0.80334898,49.430549,89.562858)"><g
         id="g3037"><g
           id="g2974"><g
             aria-label="Dima"
             transform="scale(0.97028624,1.0306237)"
             id="text1949"
             style="font-size:56.5351px;font-family:monospace;-inkscape-font-specification:monospace;letter-spacing:-2.64583px;fill:#ff0000;fill-opacity:0.5;stroke-width:44.5156"><g
               id="g2451"
               style="fill:#2e5a78;fill-opacity:1"
               transform="translate(-11.944215,-81.648678)"><path
                 d="m 57.957266,165.61519 c 15.547153,0 23.462067,-7.46263 23.462067,-20.91799 0,-13.45535 -7.914914,-20.91798 -23.462067,-20.91798 H 41.222877 v 41.83597 z m -4.862018,-31.65966 h 5.257764 c 6.897282,0 11.19395,3.33557 11.19395,10.74167 0,7.4061 -4.296668,10.74167 -11.19395,10.74167 h -5.257764 z"
                 style="font-weight:bold;font-family:'FONTSPRING DEMO - TG Haido Grotesk Black';-inkscape-font-specification:'FONTSPRING DEMO - TG Haido Grotesk Black,  Bold';fill:#2e5a78;fill-opacity:1"
                 id="path2438" /><path
                 d="m 84.749701,131.63759 h 8.197589 v -7.29302 h -8.197589 z m 0,33.9776 h 8.197589 v -29.11558 h -8.197589 z"
                 style="font-weight:bold;font-family:'FONTSPRING DEMO - TG Haido Grotesk';-inkscape-font-specification:'FONTSPRING DEMO - TG Haido Grotesk Bold';fill:#2e5a78;fill-opacity:1"
                 id="path2440" /><path
                 d="m 137.50825,135.65159 c -4.69241,0 -8.08452,2.48754 -10.28939,8.08452 h -0.39574 c -0.67842,-5.25777 -3.50518,-8.08452 -8.5368,-8.08452 -4.74895,0 -8.25413,2.60061 -10.11978,8.08452 h -0.39575 v -7.2365 H 96.46377 v 29.11558 h 11.30702 v -17.0736 c 1.1307,-2.77022 2.60061,-4.40974 4.69241,-4.40974 2.0918,0 3.2225,1.58298 3.2225,4.69241 v 16.79093 h 11.30702 v -17.0736 c 1.13071,-2.77022 2.60062,-4.40974 4.69242,-4.40974 2.0918,0 3.2225,1.58298 3.2225,4.69241 v 16.79093 h 11.30702 v -19.1654 c 0,-6.95382 -2.88329,-10.7982 -8.70641,-10.7982 z"
                 style="font-weight:bold;font-family:'FONTSPRING DEMO - TG Haido Grotesk Black';-inkscape-font-specification:'FONTSPRING DEMO - TG Haido Grotesk Black,  Bold';fill:#2e5a78;fill-opacity:1"
                 id="path2442" /><path
                 d="m 171.49714,143.11422 h -0.39575 c -1.86566,-4.74895 -5.87965,-7.46263 -10.40246,-7.46263 -7.17996,0 -12.60732,5.20123 -12.60732,15.37754 0,10.17632 5.31429,15.43409 11.98544,15.43409 5.25776,0 9.21522,-2.88329 11.02434,-8.08452 h 0.39575 v 7.23649 h 11.30702 v -29.11558 h -11.30702 z m -0.56535,8.08452 c 0,4.40974 -2.37448,7.23649 -5.65351,7.23649 -3.22251,0 -5.76658,-2.71368 -5.87965,-7.12342 v -0.62189 c 0.11307,-4.46627 2.60061,-7.06688 5.87965,-7.06688 3.33557,0 5.65351,2.71368 5.65351,7.12342 z"
                 style="font-weight:bold;font-family:'FONTSPRING DEMO - TG Haido Grotesk Black';-inkscape-font-specification:'FONTSPRING DEMO - TG Haido Grotesk Black,  Bold';fill:#2e5a78;fill-opacity:1"
                 id="path2444" /></g></g><g
             id="g2890"
             transform="matrix(0.99567234,0,0,0.99567234,0.42711848,0.12924175)"><path
               d="m 225.81578,48.014037 c -0.0771,0.0771 -0.17905,0.17079 -0.30576,0.28097 -0.12671,0.11019 -0.26444,0.22588 -0.41319,0.34708 -0.14324,0.1212 -0.28648,0.23689 -0.42972,0.34708 -0.13773,0.10467 -0.25893,0.19282 -0.3636,0.26444 h -0.81812 v -0.10743 c 0.0882,-0.10467 0.19007,-0.22587 0.30576,-0.3636 0.1212,-0.14324 0.23965,-0.28924 0.35534,-0.43799 0.11569,-0.15425 0.21211,-0.29198 0.28924,-0.41319 h 1.38006 z"
               id="path1931"
               sodipodi:nodetypes="cscccccccccc"
               style="font-weight:bold;font-size:8.26379px;font-family:'FONTSPRING DEMO - TG Haido Grotesk Black';-inkscape-font-specification:'FONTSPRING DEMO - TG Haido Grotesk Black,  Bold';letter-spacing:0.926042px;fill:#2e5a78;fill-opacity:1;stroke-width:6.50692" /><g
               aria-label="DIRECCION
DE INVESTIGACION 
Y EXTENSION
SEDE MANIZALES"
               id="text970"
               style="font-weight:bold;font-size:8.26379px;font-family:'FONTSPRING DEMO - TG Haido Grotesk Black';-inkscape-font-specification:'FONTSPRING DEMO - TG Haido Grotesk Black,  Bold';letter-spacing:0.926042px;fill:#2e5a78;fill-opacity:1;stroke-width:6.50692"
               transform="translate(-11.589307,-84.149063)"><path
                 d="m 190.90509,139.91785 c 2.27254,0 3.42947,-1.09082 3.42947,-3.05761 0,-1.96678 -1.15693,-3.0576 -3.42947,-3.0576 h -2.44608 v 6.11521 z m -0.71069,-4.62773 h 0.76853 c 1.00819,0 1.63623,0.48757 1.63623,1.57012 0,1.08256 -0.62804,1.57012 -1.63623,1.57012 h -0.76853 z"
                 id="path1970"
                 style="fill:#2e5a78;fill-opacity:1" /><path
                 d="m 196.21094,139.91785 h 1.7354 v -6.11521 h -1.7354 z"
                 id="path1972"
                 style="fill:#2e5a78;fill-opacity:1" /><path
                 d="m 201.68207,139.91785 v -2.18164 h 0.8429 c 0.49583,0 0.79333,0.22312 0.93381,0.68589 l 0.45451,1.49575 h 1.81804 l -0.51236,-1.6445 c -0.19007,-0.61978 -0.44624,-0.8677 -0.99165,-0.95033 v -0.0413 c 0.76853,-0.21486 1.20651,-0.80159 1.20651,-1.61971 0,-1.11561 -0.76027,-1.85935 -1.92546,-1.85935 h -3.5617 v 6.11521 z m 0,-4.62773 h 1.33873 c 0.46277,0 0.67763,0.14049 0.67763,0.49583 0,0.34708 -0.19833,0.46277 -0.67763,0.46277 h -1.33873 z"
                 id="path1974"
                 style="fill:#2e5a78;fill-opacity:1" /><path
                 d="m 212.1941,133.80264 h -4.83431 v 6.11521 h 4.83431 v -1.48749 h -3.09892 v -0.9586 h 2.76837 v -1.40484 h -2.76837 v -0.7768 h 3.09892 z"
                 id="path1976"
                 style="fill:#2e5a78;fill-opacity:1" /><path
                 d="m 213.86389,136.86024 c 0,2.02463 1.10735,3.18156 3.04934,3.18156 1.61144,0 2.6031,-0.80985 2.81796,-2.30559 h -1.7354 c -0.10743,0.55367 -0.47104,0.90075 -1.08256,0.90075 -0.8429,0 -1.27262,-0.6611 -1.31394,-1.63623 v -0.27271 c 0.0413,-0.98339 0.47104,-1.64449 1.31394,-1.64449 0.61152,0 0.97513,0.34708 1.08256,0.90075 h 1.7354 c -0.21486,-1.49574 -1.19825,-2.30559 -2.81796,-2.30559 -1.94199,0 -3.04934,1.15693 -3.04934,3.18155 z"
                 id="path1978"
                 style="fill:#2e5a78;fill-opacity:1" /><path
                 d="m 221.44229,136.86024 c 0,2.02463 1.10735,3.18156 3.04934,3.18156 1.61144,0 2.60309,-0.80985 2.81795,-2.30559 h -1.7354 c -0.10743,0.55367 -0.47103,0.90075 -1.08255,0.90075 -0.84291,0 -1.27263,-0.6611 -1.31395,-1.63623 v -0.27271 c 0.0413,-0.98339 0.47104,-1.64449 1.31395,-1.64449 0.61152,0 0.97512,0.34708 1.08255,0.90075 h 1.7354 c -0.21486,-1.49574 -1.19825,-2.30559 -2.81795,-2.30559 -1.94199,0 -3.04934,1.15693 -3.04934,3.18155 z"
                 id="path1980"
                 style="fill:#2e5a78;fill-opacity:1" /><path
                 d="m 229.02069,139.91785 h 1.7354 v -6.11521 h -1.7354 z"
                 id="path1982"
                 style="fill:#2e5a78;fill-opacity:1" /><path
                 d="m 235.71486,140.0418 c 1.87588,0 3.07413,-1.14866 3.07413,-3.18156 0,-2.03289 -1.19825,-3.18155 -3.07413,-3.18155 -1.87588,0 -3.08239,1.15693 -3.08239,3.18155 0,2.02463 1.20651,3.18156 3.08239,3.18156 z m 0,-1.40484 c -0.84291,0 -1.30568,-0.58673 -1.347,-1.65276 v -0.26444 c 0.0413,-1.07429 0.50409,-1.63623 1.347,-1.63623 0.84291,0 1.29741,0.56194 1.33873,1.63623 v 0.2727 c -0.0413,1.06603 -0.49582,1.6445 -1.33873,1.6445 z"
                 id="path1984"
                 style="fill:#2e5a78;fill-opacity:1" /><path
                 d="m 244.66504,137.39739 -2.01637,-3.59475 h -2.02463 v 6.11521 h 1.7354 v -3.59475 l 2.01636,3.59475 h 2.02463 v -6.11521 h -1.73539 z"
                 id="path1986"
                 style="fill:#2e5a78;fill-opacity:1" /><path
                 d="m 190.90509,150.24758 c 2.27254,0 3.42947,-1.09082 3.42947,-3.0576 0,-1.96678 -1.15693,-3.0576 -3.42947,-3.0576 h -2.44608 v 6.1152 z m -0.71069,-4.62772 h 0.76853 c 1.00819,0 1.63623,0.48757 1.63623,1.57012 0,1.08256 -0.62804,1.57012 -1.63623,1.57012 h -0.76853 z"
                 id="path1988"
                 style="fill:#2e5a78;fill-opacity:1" /><path
                 d="m 201.04526,144.13238 h -4.83432 v 6.1152 h 4.83432 v -1.48748 h -3.09892 v -0.9586 h 2.76837 v -1.40484 h -2.76837 v -0.7768 h 3.09892 z"
                 id="path1990"
                 style="fill:#2e5a78;fill-opacity:1" /><path
                 d="m 205.8723,150.24758 h 1.7354 v -6.1152 h -1.7354 z"
                 id="path1992"
                 style="fill:#2e5a78;fill-opacity:1" /><path
                 d="m 213.60771,147.72713 -2.01636,-3.59475 h -2.02463 v 6.1152 h 1.73539 v -3.59474 l 2.01637,3.59474 h 2.02463 v -6.1152 h -1.7354 z"
                 id="path1994"
                 style="fill:#2e5a78;fill-opacity:1" /><path
                 d="m 219.97133,148.92538 h -0.0331 l -1.20651,-4.793 h -1.80151 l 1.70234,6.1152 h 2.63615 l 1.78498,-6.1152 h -1.80977 z"
                 id="path1996"
                 style="fill:#2e5a78;fill-opacity:1" /><path
                 d="m 229.35123,144.13238 h -4.83432 v 6.1152 h 4.83432 v -1.48748 h -3.09892 v -0.9586 h 2.76837 v -1.40484 h -2.76837 v -0.7768 h 3.09892 z"
                 id="path1998"
                 style="fill:#2e5a78;fill-opacity:1" /><path
                 d="m 233.54973,145.33063 c 0.52062,0 0.83464,0.21486 0.83464,0.51235 h 1.7354 c 0,-1.27262 -1.06603,-1.83456 -2.61136,-1.83456 -1.5288,0 -2.46261,0.62805 -2.46261,1.71887 0,0.90075 0.64458,1.47922 1.7354,1.85109 l 1.12387,0.38013 c 0.37188,0.12396 0.56194,0.33056 0.56194,0.57847 0,0.34708 -0.37187,0.51235 -0.80159,0.51235 -0.55367,0 -0.95033,-0.2727 -0.95033,-0.752 h -1.7354 c 0,1.28089 1.11561,2.07421 2.66921,2.07421 1.6197,0 2.54524,-0.76853 2.54524,-1.9172 0,-0.95033 -0.64457,-1.41311 -1.52053,-1.7106 l -1.26436,-0.42972 c -0.43798,-0.14875 -0.62805,-0.28923 -0.62805,-0.52062 0,-0.28923 0.2975,-0.46277 0.76853,-0.46277 z"
                 id="path2000"
                 style="fill:#2e5a78;fill-opacity:1" /><path
                 d="m 243.02879,144.13238 h -5.37147 v 1.48748 h 1.81804 v 4.62772 h 1.73539 v -4.62772 h 1.81804 z"
                 id="path2002"
                 style="fill:#2e5a78;fill-opacity:1" /><path
                 d="m 244.65726,150.24758 h 1.73539 v -6.1152 h -1.73539 z"
                 id="path2004"
                 style="fill:#2e5a78;fill-opacity:1" /><path
                 d="m 248.26903,147.18998 c 0,1.90067 1.06603,3.18156 2.64441,3.18156 0.75201,0 1.27263,-0.33881 1.45443,-0.95033 h 0.0331 v 0.82637 h 1.73539 v -3.24767 h -2.80969 v 1.11562 h 1.03298 v 0.0165 c 0,0.4793 -0.46277,0.83465 -1.04124,0.83465 -0.76853,0 -1.27262,-0.61979 -1.31394,-1.63623 v -0.27271 c 0.0413,-1.02471 0.53714,-1.64449 1.31394,-1.64449 0.58673,0 0.97513,0.34708 1.08256,0.90075 h 1.73539 c -0.21486,-1.49575 -1.19825,-2.3056 -2.81795,-2.3056 -1.94199,0 -3.04934,1.15693 -3.04934,3.18156 z"
                 id="path2006"
                 style="fill:#2e5a78;fill-opacity:1" /><path
                 d="m 262.18575,150.24758 -1.95026,-6.1152 h -2.64441 l -1.86761,6.1152 h 1.81803 l 0.33881,-1.22304 h 2.13206 l 0.35535,1.22304 z m -3.28073,-4.95827 h 0.0331 l 0.66937,2.33039 h -1.33874 z"
                 id="path2008"
                 style="fill:#2e5a78;fill-opacity:1" /><path
                 d="m 263.44234,147.18998 c 0,2.02463 1.10735,3.18156 3.04934,3.18156 1.61144,0 2.60309,-0.80985 2.81795,-2.3056 h -1.73539 c -0.10743,0.55368 -0.47104,0.90076 -1.08256,0.90076 -0.84291,0 -1.27262,-0.66111 -1.31394,-1.63623 v -0.27271 c 0.0413,-0.98339 0.47103,-1.64449 1.31394,-1.64449 0.61152,0 0.97513,0.34708 1.08256,0.90075 h 1.73539 c -0.21486,-1.49575 -1.19825,-2.3056 -2.81795,-2.3056 -1.94199,0 -3.04934,1.15693 -3.04934,3.18156 z"
                 id="path2010"
                 style="fill:#2e5a78;fill-opacity:1" /><path
                 d="m 271.02074,150.24758 h 1.7354 v -6.1152 h -1.7354 z"
                 id="path2012"
                 style="fill:#2e5a78;fill-opacity:1" /><path
                 d="m 277.71491,150.37154 c 1.87588,0 3.07413,-1.14867 3.07413,-3.18156 0,-2.03289 -1.19825,-3.18156 -3.07413,-3.18156 -1.87588,0 -3.08239,1.15693 -3.08239,3.18156 0,2.02463 1.20651,3.18156 3.08239,3.18156 z m 0,-1.40484 c -0.8429,0 -1.30568,-0.58673 -1.34699,-1.65276 v -0.26444 c 0.0413,-1.0743 0.50409,-1.63623 1.34699,-1.63623 0.84291,0 1.29742,0.56193 1.33874,1.63623 v 0.2727 c -0.0413,1.06603 -0.49583,1.6445 -1.33874,1.6445 z"
                 id="path2014"
                 style="fill:#2e5a78;fill-opacity:1" /><path
                 d="m 286.66509,147.72713 -2.01637,-3.59475 h -2.02463 v 6.1152 h 1.7354 v -3.59474 l 2.01636,3.59474 h 2.02463 v -6.1152 h -1.73539 z"
                 id="path2016"
                 style="fill:#2e5a78;fill-opacity:1" /><path
                 d="m 191.27696,156.36279 -1.2561,-1.90067 h -1.93372 l 2.32212,3.37162 v 2.74358 h 1.7354 v -2.74358 l 2.32212,-3.37162 h -1.93373 z"
                 id="path2018"
                 style="fill:#2e5a78;fill-opacity:1" /><path
                 d="m 204.04551,154.46212 h -4.83432 v 6.1152 h 4.83432 v -1.48748 h -3.09893 v -0.9586 h 2.76837 v -1.40484 h -2.76837 v -0.7768 h 3.09893 z"
                 id="path2020"
                 style="fill:#2e5a78;fill-opacity:1" /><path
                 d="m 209.73976,157.41229 2.04942,-2.95017 h -2.11553 l -0.99166,1.4379 -1.00818,-1.4379 h -2.12379 l 2.04942,2.92538 -2.2147,3.18982 h 2.11553 l 1.1652,-1.67755 1.17345,1.67755 h 2.11553 z"
                 id="path2022"
                 style="fill:#2e5a78;fill-opacity:1" /><path
                 d="m 218.58252,154.46212 h -5.37146 v 1.48748 h 1.81803 v 4.62772 h 1.7354 v -4.62772 h 1.81803 z"
                 id="path2024"
                 style="fill:#2e5a78;fill-opacity:1" /><path
                 d="m 224.83871,154.46212 h -4.83431 v 6.1152 h 4.83431 v -1.48748 h -3.09892 v -0.9586 h 2.76837 v -1.40484 h -2.76837 v -0.7768 h 3.09892 z"
                 id="path2026"
                 style="fill:#2e5a78;fill-opacity:1" /><path
                 d="m 230.54949,158.05687 -2.01636,-3.59475 h -2.02463 v 6.1152 h 1.7354 v -3.59475 l 2.01636,3.59475 h 2.02463 v -6.1152 h -1.7354 z"
                 id="path2028"
                 style="fill:#2e5a78;fill-opacity:1" /><path
                 d="m 236.73131,155.66037 c 0.52062,0 0.83464,0.21486 0.83464,0.51235 h 1.7354 c 0,-1.27262 -1.06603,-1.83456 -2.61136,-1.83456 -1.5288,0 -2.46261,0.62805 -2.46261,1.71887 0,0.90075 0.64457,1.47922 1.7354,1.85109 l 1.12387,0.38013 c 0.37187,0.12396 0.56194,0.33055 0.56194,0.57847 0,0.34708 -0.37187,0.51235 -0.80159,0.51235 -0.55367,0 -0.95034,-0.2727 -0.95034,-0.752 h -1.73539 c 0,1.28089 1.11561,2.07421 2.6692,2.07421 1.61971,0 2.54525,-0.76853 2.54525,-1.9172 0,-0.95034 -0.64458,-1.41311 -1.52054,-1.71061 l -1.26436,-0.42971 c -0.43798,-0.14875 -0.62804,-0.28923 -0.62804,-0.52062 0,-0.28923 0.29749,-0.46277 0.76853,-0.46277 z"
                 id="path2030"
                 style="fill:#2e5a78;fill-opacity:1" /><path
                 d="m 241.29341,160.57732 h 1.7354 v -6.1152 h -1.7354 z"
                 id="path2032"
                 style="fill:#2e5a78;fill-opacity:1" /><path
                 d="m 247.98758,160.70128 c 1.87588,0 3.07413,-1.14867 3.07413,-3.18156 0,-2.03289 -1.19825,-3.18156 -3.07413,-3.18156 -1.87588,0 -3.08239,1.15693 -3.08239,3.18156 0,2.02463 1.20651,3.18156 3.08239,3.18156 z m 0,-1.40485 c -0.84291,0 -1.30568,-0.58672 -1.347,-1.65275 v -0.26444 c 0.0413,-1.0743 0.50409,-1.63624 1.347,-1.63624 0.84291,0 1.29742,0.56194 1.33873,1.63624 v 0.2727 c -0.0413,1.06603 -0.49582,1.64449 -1.33873,1.64449 z"
                 id="path2034"
                 style="fill:#2e5a78;fill-opacity:1" /><path
                 d="m 256.93775,158.05687 -2.01636,-3.59475 h -2.02463 v 6.1152 h 1.7354 v -3.59475 l 2.01636,3.59475 h 2.02463 v -6.1152 h -1.7354 z"
                 id="path2036"
                 style="fill:#2e5a78;fill-opacity:1" /><path
                 d="m 190.94641,165.9901 c 0.52062,0 0.83464,0.21486 0.83464,0.51236 h 1.7354 c 0,-1.27262 -1.06603,-1.83456 -2.61136,-1.83456 -1.5288,0 -2.46261,0.62805 -2.46261,1.71887 0,0.90075 0.64457,1.47921 1.73539,1.85109 l 1.12388,0.38013 c 0.37187,0.12396 0.56194,0.33055 0.56194,0.57847 0,0.34707 -0.37187,0.51235 -0.80159,0.51235 -0.55367,0 -0.95034,-0.2727 -0.95034,-0.752 h -1.73539 c 0,1.28088 1.11561,2.07421 2.6692,2.07421 1.61971,0 2.54525,-0.76854 2.54525,-1.9172 0,-0.95034 -0.64458,-1.41311 -1.52054,-1.71061 l -1.26436,-0.42971 c -0.43798,-0.14875 -0.62805,-0.28924 -0.62805,-0.52062 0,-0.28924 0.2975,-0.46278 0.76854,-0.46278 z"
                 id="path2038"
                 style="fill:#2e5a78;fill-opacity:1" /><path
                 d="m 200.17755,164.79185 h -4.83432 v 6.11521 h 4.83432 v -1.48748 h -3.09892 v -0.9586 h 2.76837 v -1.40485 h -2.76837 v -0.77679 h 3.09892 z"
                 id="path2040"
                 style="fill:#2e5a78;fill-opacity:1" /><path
                 d="m 204.33473,170.90706 c 2.27255,0 3.42948,-1.09082 3.42948,-3.0576 0,-1.96678 -1.15693,-3.05761 -3.42948,-3.05761 h -2.44608 v 6.11521 z m -0.71068,-4.62772 h 0.76853 c 1.00818,0 1.63623,0.48756 1.63623,1.57012 0,1.08255 -0.62805,1.57012 -1.63623,1.57012 h -0.76853 z"
                 id="path2042"
                 style="fill:#2e5a78;fill-opacity:1" /><path
                 d="m 214.4749,164.79185 h -4.83431 v 6.11521 h 4.83431 v -1.48748 h -3.09892 v -0.9586 h 2.76837 v -1.40485 h -2.76837 v -0.77679 h 3.09892 z"
                 id="path2044"
                 style="fill:#2e5a78;fill-opacity:1" /><path
                 d="m 225.61549,164.79185 h -2.02463 l -1.14867,2.18165 -1.15693,-2.18165 h -2.02463 v 6.11521 h 1.7354 v -3.73523 l 0.99165,1.76845 h 0.90902 l 0.98339,-1.76019 v 3.72697 h 1.7354 z"
                 id="path2046"
                 style="fill:#2e5a78;fill-opacity:1" /><path
                 d="m 233.66491,170.90706 -1.95025,-6.11521 h -2.64441 l -1.86762,6.11521 h 1.81803 l 0.33882,-1.22304 h 2.13206 l 0.35534,1.22304 z m -3.28072,-4.95827 h 0.0331 l 0.66937,2.33038 h -1.33873 z"
                 id="path2048"
                 style="fill:#2e5a78;fill-opacity:1" /><path
                 d="m 239.29306,168.3866 -2.01637,-3.59475 h -2.02463 v 6.11521 h 1.7354 v -3.59475 l 2.01637,3.59475 h 2.02462 v -6.11521 h -1.73539 z"
                 id="path2050"
                 style="fill:#2e5a78;fill-opacity:1" /><path
                 d="m 242.98747,170.90706 h 1.7354 v -6.11521 h -1.7354 z"
                 id="path2052"
                 style="fill:#2e5a78;fill-opacity:1" /><path
                 d="m 246.43397,170.90706 h 5.49542 v -1.48748 h -3.04107 l 2.95843,-3.21462 v -1.41311 h -5.33014 v 1.48749 h 2.90885 l -2.99149,3.21461 z"
                 id="path2054"
                 style="fill:#2e5a78;fill-opacity:1" /><path
                 d="m 259.73091,170.90706 -1.95026,-6.11521 h -2.64441 l -1.86762,6.11521 h 1.81804 l 0.33881,-1.22304 h 2.13206 l 0.35534,1.22304 z m -3.28073,-4.95827 h 0.0331 l 0.66936,2.33038 h -1.33873 z"
                 id="path2056"
                 style="fill:#2e5a78;fill-opacity:1" /><path
                 d="m 263.09477,164.79185 h -1.7354 v 6.11521 h 4.54509 v -1.48748 h -2.80969 z"
                 id="path2058"
                 style="fill:#2e5a78;fill-opacity:1" /><path
                 d="m 272.36724,164.79185 h -4.83431 v 6.11521 h 4.83431 v -1.48748 h -3.09892 v -0.9586 h 2.76837 v -1.40485 h -2.76837 v -0.77679 h 3.09892 z"
                 id="path2060"
                 style="fill:#2e5a78;fill-opacity:1" /><path
                 d="m 276.56575,165.9901 c 0.52062,0 0.83465,0.21486 0.83465,0.51236 h 1.73539 c 0,-1.27262 -1.06603,-1.83456 -2.61136,-1.83456 -1.5288,0 -2.4626,0.62805 -2.4626,1.71887 0,0.90075 0.64457,1.47921 1.73539,1.85109 l 1.12388,0.38013 c 0.37187,0.12396 0.56193,0.33055 0.56193,0.57847 0,0.34707 -0.37187,0.51235 -0.80158,0.51235 -0.55368,0 -0.95034,-0.2727 -0.95034,-0.752 h -1.7354 c 0,1.28088 1.11562,2.07421 2.66921,2.07421 1.6197,0 2.54525,-0.76854 2.54525,-1.9172 0,-0.95034 -0.64458,-1.41311 -1.52054,-1.71061 l -1.26436,-0.42971 c -0.43798,-0.14875 -0.62805,-0.28924 -0.62805,-0.52062 0,-0.28924 0.2975,-0.46278 0.76853,-0.46278 z"
                 id="path2062"
                 style="fill:#2e5a78;fill-opacity:1" /></g><g
               id="g2072"
               transform="translate(0.68341264,-63.489583)"
               style="fill:#2e5a78;fill-opacity:1"><path
                 d="m 237.40509,132.1631 c -0.0771,0.0771 -0.17905,0.17079 -0.30576,0.28097 -0.12671,0.11019 -0.26444,0.22588 -0.41319,0.34708 -0.14324,0.1212 -0.28648,0.23689 -0.42972,0.34708 -0.13773,0.10467 -0.25893,0.19282 -0.3636,0.26444 h -0.81812 v -0.10743 c 0.0882,-0.10467 0.19007,-0.22587 0.30576,-0.3636 0.1212,-0.14324 0.23965,-0.28924 0.35534,-0.43799 0.11569,-0.15425 0.21211,-0.29198 0.28924,-0.41319 h 1.38006 z"
                 id="path2065"
                 sodipodi:nodetypes="cscccccccccc"
                 style="font-weight:bold;font-size:8.26379px;font-family:'FONTSPRING DEMO - TG Haido Grotesk Black';-inkscape-font-specification:'FONTSPRING DEMO - TG Haido Grotesk Black,  Bold';letter-spacing:0.926042px;fill:#2e5a78;fill-opacity:1;stroke-width:6.50692" /></g><g
               id="g2078"
               transform="translate(30.410743,-73.819323)"><path
                 d="m 237.40509,132.1631 c -0.0771,0.0771 -0.17905,0.17079 -0.30576,0.28097 -0.12671,0.11019 -0.26444,0.22588 -0.41319,0.34708 -0.14324,0.1212 -0.28648,0.23689 -0.42972,0.34708 -0.13773,0.10467 -0.25893,0.19282 -0.3636,0.26444 h -0.81812 v -0.10743 c 0.0882,-0.10467 0.19007,-0.22587 0.30576,-0.3636 0.1212,-0.14324 0.23965,-0.28924 0.35534,-0.43799 0.11569,-0.15425 0.21211,-0.29198 0.28924,-0.41319 h 1.38006 z"
                 id="path2076"
                 sodipodi:nodetypes="cscccccccccc"
                 style="font-weight:bold;font-size:8.26379px;font-family:'FONTSPRING DEMO - TG Haido Grotesk Black';-inkscape-font-specification:'FONTSPRING DEMO - TG Haido Grotesk Black,  Bold';letter-spacing:0.926042px;fill:#2e5a78;fill-opacity:1;stroke-width:6.50692" /></g></g></g></g></g></g></svg>
