<?xml version="1.0" encoding="UTF-8" standalone="no"?>
<!-- Created with Inkscape (http://www.inkscape.org/) -->

<svg
   width="257.66031mm"
   height="43.673565mm"
   viewBox="0 0 257.66031 43.673565"
   version="1.1"
   id="svg5"
   xml:space="preserve"
   inkscape:version="1.2.1 (9c6d41e410, 2022-07-14, custom)"
   sodipodi:docname="logo_vector.svg"
   xmlns:inkscape="http://www.inkscape.org/namespaces/inkscape"
   xmlns:sodipodi="http://sodipodi.sourceforge.net/DTD/sodipodi-0.dtd"
   xmlns="http://www.w3.org/2000/svg"
   xmlns:svg="http://www.w3.org/2000/svg"><sodipodi:namedview
     id="namedview7"
     pagecolor="#ffffff"
     bordercolor="#000000"
     borderopacity="0.25"
     inkscape:showpageshadow="2"
     inkscape:pageopacity="0.0"
     inkscape:pagecheckerboard="0"
     inkscape:deskcolor="#d1d1d1"
     inkscape:document-units="mm"
     showgrid="false"
     showguides="false"
     inkscape:zoom="0.73322022"
     inkscape:cx="719.42915"
     inkscape:cy="79.10311"
     inkscape:window-width="1920"
     inkscape:window-height="991"
     inkscape:window-x="0"
     inkscape:window-y="0"
     inkscape:window-maximized="1"
     inkscape:current-layer="g2251"><inkscape:grid
       type="xygrid"
       id="grid1217"
       originx="-18.773027"
       originy="-73.71047" /><sodipodi:guide
       position="2.6760967,71.011385"
       orientation="1,0"
       id="guide1219"
       inkscape:locked="false" /><sodipodi:guide
       position="149.82126,49.308816"
       orientation="1,0"
       id="guide1221"
       inkscape:locked="false" /><sodipodi:guide
       position="24.543997,42.641056"
       orientation="0,-1"
       id="guide1585"
       inkscape:locked="false" /></sodipodi:namedview><defs
     id="defs2" /><g
     inkscape:label="Layer 1"
     inkscape:groupmode="layer"
     id="layer1"
     transform="translate(-18.773027,-73.710471)"><g
       id="g421"><g
         id="g2251"
         transform="translate(-2.6760958,49.286704)"><g
           id="g1756"><path
             d="m 37.347673,67.229646 c 15.328709,0 23.249492,-7.693489 23.249492,-21.402939 0,-13.709451 -7.920783,-21.40294 -23.249492,-21.40294 H 21.449123 V 67.229646 Z M 31.877204,33.505555 h 5.812374 c 7.692846,0 12.479506,3.991359 12.479506,12.321152 0,8.329792 -4.78666,12.321151 -12.479506,12.321151 h -5.812374 z"
             style="font-weight:bold;font-size:57.4133px;font-family:'FONTSPRING DEMO - TG Haido Grotesk Extrabold';-inkscape-font-specification:'FONTSPRING DEMO - TG Haido Grotesk Extrabold,  Bold';letter-spacing:-4.02477px;fill:#2e5a78;stroke-width:45.2072"
             id="path1503" /><path
             d="m 62.357911,32.637868 h 9.972208 v -7.982717 h -9.972208 z m 0,34.591778 h 9.972208 V 37.439068 h -9.972208 z"
             style="font-weight:bold;font-size:57.4133px;font-family:'FONTSPRING DEMO - TG Haido Grotesk Extrabold';-inkscape-font-specification:'FONTSPRING DEMO - TG Haido Grotesk Extrabold,  Bold';letter-spacing:-4.02477px;fill:#2e5a78;stroke-width:45.2072"
             id="path1505" /><path
             d="m 114.37856,36.571381 c -4.67269,0 -8.14872,2.603061 -10.3711,8.214102 h -0.3419 c -0.68381,-5.321813 -3.59,-8.214102 -8.547608,-8.214102 -4.78666,0 -8.376656,2.718752 -10.257129,8.214102 H 84.518918 V 37.439068 H 74.54671 v 29.790578 h 9.972208 V 49.413145 c 1.310633,-3.297209 3.134123,-5.20612 5.584437,-5.20612 2.39333,0 3.760947,1.793219 3.760947,5.263966 v 17.758655 h 9.972208 V 49.413145 c 1.31064,-3.297209 3.07714,-5.20612 5.52745,-5.20612 2.45031,0 3.76095,1.793219 3.76095,5.263966 v 17.758655 h 9.97221 V 47.446389 c 0,-6.99934 -2.96317,-10.875008 -8.71856,-10.875008 z"
             style="font-weight:bold;font-size:57.4133px;font-family:'FONTSPRING DEMO - TG Haido Grotesk Extrabold';-inkscape-font-specification:'FONTSPRING DEMO - TG Haido Grotesk Extrabold,  Bold';letter-spacing:-4.02477px;fill:#2e5a78;stroke-width:45.2072"
             id="path1507" /><path
             d="m 147.87941,44.380562 h -0.3419 c -1.76651,-4.859045 -5.86936,-7.809181 -10.59903,-7.809181 -7.35095,0 -12.76443,5.49535 -12.76443,15.734054 0,10.238703 5.3565,15.791897 12.25157,15.791897 5.3565,0 9.40237,-3.123672 11.11189,-8.387638 h 0.3419 v 7.519952 h 9.97221 V 37.439068 h -9.97221 z m -0.51285,8.214101 c 0,4.974738 -2.73524,8.271947 -6.49619,8.271947 -3.70396,0 -6.55317,-3.181517 -6.72412,-8.156255 v -0.867687 c 0.17095,-5.032583 2.96318,-8.09841 6.72412,-8.09841 3.81793,0 6.49619,3.181519 6.49619,8.156256 z"
             style="font-weight:bold;font-size:57.4133px;font-family:'FONTSPRING DEMO - TG Haido Grotesk Extrabold';-inkscape-font-specification:'FONTSPRING DEMO - TG Haido Grotesk Extrabold,  Bold';letter-spacing:-4.02477px;fill:#2e5a78;stroke-width:45.2072"
             id="path1509" /><path
             d="m 169.3753,29.698117 h 3.15732 q 1.59527,0 2.40953,0.681315 0.81425,0.673007 0.81425,2.176885 0,1.503878 -0.81425,2.185193 -0.81426,0.673006 -2.40953,0.673006 h -3.15732 z m 2.82497,4.553179 q 0.68131,0 1.07182,-0.149557 0.39882,-0.157866 0.58161,-0.52345 0.1911,-0.365583 0.1911,-1.021972 0,-0.656389 -0.1911,-1.021973 -0.18279,-0.365583 -0.58161,-0.51514 -0.39051,-0.157866 -1.07182,-0.157866 h -1.16322 v 3.389958 z"
             style="font-weight:bold;font-size:8.30872px;font-family:'Classic Grotesque W04';-inkscape-font-specification:'Classic Grotesque W04 Bold';letter-spacing:1.02923px;fill:#2e5a78;stroke-width:6.5423"
             id="path1512" /><path
             d="m 177.96548,29.698117 h 1.66174 v 5.716399 h -1.66174 z"
             style="font-weight:bold;font-size:8.30872px;font-family:'Classic Grotesque W04';-inkscape-font-specification:'Classic Grotesque W04 Bold';letter-spacing:1.02923px;fill:#2e5a78;stroke-width:6.5423"
             id="path1514" /><path
             d="m 184.72773,33.038223 h -0.86411 v 2.376293 h -1.66174 v -5.716399 h 3.43981 q 2.30982,0 2.30982,1.670053 0,1.329395 -1.45403,1.595274 l 1.9027,2.451072 h -1.9027 z m -0.87242,-1.096751 h 1.42079 q 0.34066,0 0.54007,-0.04985 0.20772,-0.04985 0.30742,-0.174483 0.0997,-0.124631 0.0997,-0.348966 0,-0.224335 -0.0997,-0.348966 -0.0997,-0.124631 -0.30742,-0.174483 -0.19941,-0.04985 -0.54007,-0.04985 h -1.42079 z"
             style="font-weight:bold;font-size:8.30872px;font-family:'Classic Grotesque W04';-inkscape-font-specification:'Classic Grotesque W04 Bold';letter-spacing:1.02923px;fill:#2e5a78;stroke-width:6.5423"
             id="path1516" /><path
             d="m 190.26029,29.698117 h 5.06832 l -0.27419,1.146604 h -3.13239 v 0.922268 h 2.92467 v 1.154912 h -2.92467 v 1.329395 h 3.2404 l 0.2825,1.16322 h -5.18464 z"
             style="font-weight:bold;font-size:8.30872px;font-family:'Classic Grotesque W04';-inkscape-font-specification:'Classic Grotesque W04 Bold';letter-spacing:1.02923px;fill:#2e5a78;stroke-width:6.5423"
             id="path1518" /><path
             d="m 203.68612,33.736155 q -0.12463,0.398819 -0.49021,0.814255 -0.35728,0.407127 -1.02198,0.697932 -0.65638,0.290805 -1.59527,0.290805 -1.03028,0 -1.80299,-0.332349 -0.77271,-0.340657 -1.20477,-1.005355 -0.43205,-0.673006 -0.43205,-1.645126 0,-0.97212 0.43205,-1.636818 0.44037,-0.673006 1.21308,-1.005355 0.78102,-0.332349 1.8113,-0.332349 0.93888,0 1.57865,0.282497 0.63978,0.274187 0.97213,0.673006 0.33234,0.39051 0.44036,0.797637 l -1.48726,0.398819 q -0.0499,-0.216027 -0.20772,-0.432054 -0.15787,-0.216026 -0.48191,-0.373892 -0.32404,-0.166175 -0.83087,-0.166175 -0.54837,0 -0.93888,0.216027 -0.38221,0.207718 -0.58992,0.614845 -0.19941,0.398819 -0.19941,0.963812 0,0.564993 0.19941,0.97212 0.20771,0.398819 0.59822,0.614845 0.39051,0.207718 0.9472,0.207718 0.73117,0 1.07182,-0.307422 0.34897,-0.307423 0.48191,-0.71455 z"
             style="font-weight:bold;font-size:8.30872px;font-family:'Classic Grotesque W04';-inkscape-font-specification:'Classic Grotesque W04 Bold';letter-spacing:1.02923px;fill:#2e5a78;stroke-width:6.5423"
             id="path1520" /><path
             d="m 211.92732,33.736155 q -0.12463,0.398819 -0.49021,0.814255 -0.35728,0.407127 -1.02198,0.697932 -0.65638,0.290805 -1.59527,0.290805 -1.03028,0 -1.80299,-0.332349 -0.77271,-0.340657 -1.20477,-1.005355 -0.43205,-0.673006 -0.43205,-1.645126 0,-0.97212 0.43205,-1.636818 0.44037,-0.673006 1.21308,-1.005355 0.78102,-0.332349 1.8113,-0.332349 0.93888,0 1.57865,0.282497 0.63978,0.274187 0.97212,0.673006 0.33235,0.39051 0.44037,0.797637 l -1.48726,0.398819 q -0.0499,-0.216027 -0.20772,-0.432054 -0.15787,-0.216026 -0.48191,-0.373892 -0.32404,-0.166175 -0.83087,-0.166175 -0.54838,0 -0.93889,0.216027 -0.3822,0.207718 -0.58991,0.614845 -0.19941,0.398819 -0.19941,0.963812 0,0.564993 0.19941,0.97212 0.20771,0.398819 0.59822,0.614845 0.39051,0.207718 0.9472,0.207718 0.73116,0 1.07182,-0.307422 0.34897,-0.307423 0.48191,-0.71455 z"
             style="font-weight:bold;font-size:8.30872px;font-family:'Classic Grotesque W04';-inkscape-font-specification:'Classic Grotesque W04 Bold';letter-spacing:1.02923px;fill:#2e5a78;stroke-width:6.5423"
             id="path1522" /><path
             d="m 214.00345,29.698117 h 1.66174 v 5.716399 h -1.66174 z"
             style="font-weight:bold;font-size:8.30872px;font-family:'Classic Grotesque W04';-inkscape-font-specification:'Classic Grotesque W04 Bold';letter-spacing:1.02923px;fill:#2e5a78;stroke-width:6.5423"
             id="path1524" /><path
             d="m 224.85359,32.556317 q 0,0.913959 -0.41543,1.586965 -0.41544,0.673007 -1.20477,1.03859 -0.78102,0.357275 -1.86946,0.357275 -1.08844,0 -1.87777,-0.357275 -0.78102,-0.365583 -1.19646,-1.03859 -0.41543,-0.673006 -0.41543,-1.586965 0,-0.913959 0.41543,-1.578657 0.41544,-0.673006 1.19646,-1.030281 0.78933,-0.365584 1.87777,-0.365584 1.08844,0 1.86946,0.365584 0.78933,0.357275 1.20477,1.030281 0.41543,0.664698 0.41543,1.578657 z m -3.48966,1.802992 q 0.58992,0 0.98874,-0.224335 0.39882,-0.232645 0.58992,-0.639772 0.19941,-0.407127 0.19941,-0.938885 0,-0.531758 -0.19941,-0.938885 -0.1911,-0.407128 -0.58992,-0.631463 -0.39882,-0.224336 -0.98874,-0.224336 -0.58992,0 -0.98874,0.224336 -0.39882,0.224335 -0.59823,0.631463 -0.1911,0.407127 -0.1911,0.938885 0,0.531758 0.1911,0.938885 0.19941,0.407127 0.59823,0.639772 0.39882,0.224335 0.98874,0.224335 z m 0.0498,-6.314627 h 1.58697 l -1.01367,1.154912 h -1.22969 z"
             style="font-weight:bold;font-size:8.30872px;font-family:'Classic Grotesque W04';-inkscape-font-specification:'Classic Grotesque W04 Bold';letter-spacing:1.02923px;fill:#2e5a78;stroke-width:6.5423"
             id="path1526" /><path
             d="m 228.57485,31.526036 h -0.0166 v 3.88848 h -1.51219 v -5.716399 h 1.96086 l 2.65879,3.689072 h 0.0166 v -3.689072 h 1.51219 v 5.716399 h -1.79468 z"
             style="font-weight:bold;font-size:8.30872px;font-family:'Classic Grotesque W04';-inkscape-font-specification:'Classic Grotesque W04 Bold';letter-spacing:1.02923px;fill:#2e5a78;stroke-width:6.5423"
             id="path1528" /><path
             d="m 169.3753,40.543472 h 3.15732 q 1.59527,0 2.40953,0.681315 0.81425,0.673007 0.81425,2.176885 0,1.503878 -0.81425,2.185193 -0.81426,0.673006 -2.40953,0.673006 h -3.15732 z m 2.82497,4.553179 q 0.68131,0 1.07182,-0.149557 0.39882,-0.157866 0.58161,-0.52345 0.1911,-0.365583 0.1911,-1.021972 0,-0.656389 -0.1911,-1.021973 -0.18279,-0.365583 -0.58161,-0.51514 -0.39051,-0.157866 -1.07182,-0.157866 h -1.16322 v 3.389958 z"
             style="font-weight:bold;font-size:8.30872px;font-family:'Classic Grotesque W04';-inkscape-font-specification:'Classic Grotesque W04 Bold';letter-spacing:1.02923px;fill:#2e5a78;stroke-width:6.5423"
             id="path1530" /><path
             d="m 177.94886,40.543472 h 5.06832 l -0.27419,1.146604 h -3.13239 v 0.922267 h 2.92467 v 1.154913 h -2.92467 v 1.329395 h 3.2404 l 0.2825,1.16322 h -5.18464 z"
             style="font-weight:bold;font-size:8.30872px;font-family:'Classic Grotesque W04';-inkscape-font-specification:'Classic Grotesque W04 Bold';letter-spacing:1.02923px;fill:#2e5a78;stroke-width:6.5423"
             id="path1532" /><path
             d="m 188.69823,40.543472 h 1.66174 v 5.716399 h -1.66174 z"
             style="font-weight:bold;font-size:8.30872px;font-family:'Classic Grotesque W04';-inkscape-font-specification:'Classic Grotesque W04 Bold';letter-spacing:1.02923px;fill:#2e5a78;stroke-width:6.5423"
             id="path1534" /><path
             d="m 194.46343,42.371391 h -0.0166 v 3.88848 h -1.51219 v -5.716399 h 1.96086 l 2.65879,3.689072 h 0.0166 v -3.689072 h 1.51219 v 5.716399 h -1.79468 z"
             style="font-weight:bold;font-size:8.30872px;font-family:'Classic Grotesque W04';-inkscape-font-specification:'Classic Grotesque W04 Bold';letter-spacing:1.02923px;fill:#2e5a78;stroke-width:6.5423"
             id="path1536" /><path
             d="m 200.89333,40.543472 h 1.74483 l 1.67005,4.619648 h 0.0166 l 1.67005,-4.619648 h 1.67837 l -2.29321,5.716399 h -2.1935 z"
             style="font-weight:bold;font-size:8.30872px;font-family:'Classic Grotesque W04';-inkscape-font-specification:'Classic Grotesque W04 Bold';letter-spacing:1.02923px;fill:#2e5a78;stroke-width:6.5423"
             id="path1538" /><path
             d="m 209.48349,40.543472 h 5.06832 l -0.27419,1.146604 h -3.13238 v 0.922267 h 2.92466 v 1.154913 h -2.92466 v 1.329395 h 3.2404 l 0.28249,1.16322 h -5.18464 z"
             style="font-weight:bold;font-size:8.30872px;font-family:'Classic Grotesque W04';-inkscape-font-specification:'Classic Grotesque W04 Bold';letter-spacing:1.02923px;fill:#2e5a78;stroke-width:6.5423"
             id="path1540" /><path
             d="m 220.74906,42.304921 q -0.29912,-0.357275 -0.74779,-0.556684 -0.44867,-0.207718 -0.94719,-0.207718 -0.91396,0 -0.91396,0.465288 0,0.141248 0.0914,0.240953 0.0914,0.0997 0.29081,0.182792 0.19941,0.07478 0.54838,0.141248 l 0.94719,0.182792 q 0.63146,0.124631 1.08013,0.32404 0.45698,0.1911 0.73117,0.548375 0.2825,0.357275 0.2825,0.905651 0,0.573301 -0.34066,0.997046 -0.34066,0.415436 -0.96381,0.639772 -0.61485,0.216026 -1.43741,0.216026 -2.23505,0 -3.15731,-1.570348 l 1.37924,-0.564993 q 0.30743,0.52345 0.77271,0.764402 0.4736,0.240953 1.02198,0.240953 0.50683,0 0.77271,-0.149557 0.27419,-0.149557 0.27419,-0.423744 0,-0.174483 -0.11633,-0.282497 -0.10801,-0.116322 -0.32404,-0.1911 -0.21602,-0.07478 -0.5733,-0.141249 l -0.94719,-0.182791 q -0.98043,-0.191101 -1.49557,-0.589919 -0.51514,-0.407128 -0.51514,-1.17153 0,-0.531758 0.31573,-0.913959 0.32404,-0.382201 0.91396,-0.58161 0.58992,-0.19941 1.37925,-0.19941 1.08013,0 1.76975,0.348966 0.68963,0.348967 1.08844,0.880725 z"
             style="font-weight:bold;font-size:8.30872px;font-family:'Classic Grotesque W04';-inkscape-font-specification:'Classic Grotesque W04 Bold';letter-spacing:1.02923px;fill:#2e5a78;stroke-width:6.5423"
             id="path1542" /><path
             d="m 225.44244,41.690076 h -2.06056 v -1.146604 h 5.91581 l -0.26588,1.146604 h -1.92762 v 4.569795 h -1.66175 z"
             style="font-weight:bold;font-size:8.30872px;font-family:'Classic Grotesque W04';-inkscape-font-specification:'Classic Grotesque W04 Bold';letter-spacing:1.02923px;fill:#2e5a78;stroke-width:6.5423"
             id="path1544" /><path
             d="m 230.975,40.543472 h 1.66175 v 5.716399 H 230.975 Z"
             style="font-weight:bold;font-size:8.30872px;font-family:'Classic Grotesque W04';-inkscape-font-specification:'Classic Grotesque W04 Bold';letter-spacing:1.02923px;fill:#2e5a78;stroke-width:6.5423"
             id="path1546" /><path
             d="m 238.1527,43.974974 v -1.163221 h 3.20716 v 2.567394 q 0,0.04154 -0.36558,0.299114 -0.36559,0.25757 -1.03859,0.481906 -0.67301,0.224335 -1.63682,0.224335 -1.08013,0 -1.86115,-0.348966 -0.78102,-0.357275 -1.19646,-1.021973 -0.41544,-0.673006 -0.41544,-1.611891 0,-0.938885 0.42375,-1.603583 0.43205,-0.673006 1.22138,-1.021973 0.78933,-0.348966 1.86115,-0.348966 0.97212,0 1.59528,0.232644 0.62315,0.232645 0.91396,0.515141 0.2908,0.274188 0.39882,0.506832 l -1.4291,0.589919 q -0.13294,-0.265879 -0.49022,-0.473597 -0.34896,-0.207718 -0.98874,-0.207718 -0.50683,0 -0.91395,0.191101 -0.39882,0.1911 -0.63978,0.598227 -0.24095,0.398819 -0.24095,1.021973 0,0.930576 0.49022,1.370939 0.49021,0.432053 1.32108,0.432053 0.45698,0 0.7561,-0.06647 0.30742,-0.07478 0.45697,-0.157865 0.14956,-0.08309 0.14956,-0.09971 v -0.90565 z"
             style="font-weight:bold;font-size:8.30872px;font-family:'Classic Grotesque W04';-inkscape-font-specification:'Classic Grotesque W04 Bold';letter-spacing:1.02923px;fill:#2e5a78;stroke-width:6.5423"
             id="path1548" /><path
             d="m 247.72329,45.03849 h -2.59232 l -0.46529,1.221381 h -1.67836 l 2.37629,-5.716399 h 2.1935 l 2.3763,5.716399 h -1.74483 z m -1.30447,-3.398267 -0.84749,2.218428 h 1.7116 l -0.84749,-2.218428 z"
             style="font-weight:bold;font-size:8.30872px;font-family:'Classic Grotesque W04';-inkscape-font-specification:'Classic Grotesque W04 Bold';letter-spacing:1.02923px;fill:#2e5a78;stroke-width:6.5423"
             id="path1550" /><path
             d="m 257.84226,44.58151 q -0.12463,0.398819 -0.49021,0.814255 -0.35728,0.407127 -1.02198,0.697932 -0.65638,0.290805 -1.59527,0.290805 -1.03028,0 -1.80299,-0.332349 -0.77271,-0.340657 -1.20477,-1.005355 -0.43205,-0.673006 -0.43205,-1.645126 0,-0.97212 0.43205,-1.636818 0.44037,-0.673006 1.21308,-1.005355 0.78102,-0.332349 1.8113,-0.332349 0.93888,0 1.57865,0.282497 0.63978,0.274187 0.97212,0.673006 0.33235,0.39051 0.44037,0.797637 l -1.48726,0.398819 q -0.0499,-0.216027 -0.20772,-0.432054 -0.15787,-0.216027 -0.48191,-0.373892 -0.32404,-0.166175 -0.83087,-0.166175 -0.54838,0 -0.93889,0.216027 -0.3822,0.207718 -0.58991,0.614845 -0.19941,0.398819 -0.19941,0.963812 0,0.564993 0.19941,0.97212 0.20771,0.398819 0.59822,0.614845 0.39051,0.207718 0.9472,0.207718 0.73116,0 1.07182,-0.307422 0.34897,-0.307423 0.48191,-0.71455 z"
             style="font-weight:bold;font-size:8.30872px;font-family:'Classic Grotesque W04';-inkscape-font-specification:'Classic Grotesque W04 Bold';letter-spacing:1.02923px;fill:#2e5a78;stroke-width:6.5423"
             id="path1552" /><path
             d="m 259.91839,40.543472 h 1.66174 v 5.716399 h -1.66174 z"
             style="font-weight:bold;font-size:8.30872px;font-family:'Classic Grotesque W04';-inkscape-font-specification:'Classic Grotesque W04 Bold';letter-spacing:1.02923px;fill:#2e5a78;stroke-width:6.5423"
             id="path1554" /><path
             d="m 270.76852,43.401672 q 0,0.913959 -0.41543,1.586965 -0.41544,0.673007 -1.20477,1.03859 -0.78102,0.357275 -1.86946,0.357275 -1.08844,0 -1.87777,-0.357275 -0.78102,-0.365583 -1.19645,-1.03859 -0.41544,-0.673006 -0.41544,-1.586965 0,-0.913959 0.41544,-1.578657 0.41543,-0.673006 1.19645,-1.030281 0.78933,-0.365584 1.87777,-0.365584 1.08844,0 1.86946,0.365584 0.78933,0.357275 1.20477,1.030281 0.41543,0.664698 0.41543,1.578657 z m -3.48966,1.802992 q 0.58992,0 0.98874,-0.224335 0.39882,-0.232645 0.58992,-0.639772 0.19941,-0.407127 0.19941,-0.938885 0,-0.531758 -0.19941,-0.938885 -0.1911,-0.407128 -0.58992,-0.631463 -0.39882,-0.224336 -0.98874,-0.224336 -0.58992,0 -0.98874,0.224336 -0.39881,0.224335 -0.59822,0.631463 -0.1911,0.407127 -0.1911,0.938885 0,0.531758 0.1911,0.938885 0.19941,0.407127 0.59822,0.639772 0.39882,0.224335 0.98874,0.224335 z m 0.0498,-6.314627 h 1.58697 l -1.01366,1.154912 h -1.22969 z"
             style="font-weight:bold;font-size:8.30872px;font-family:'Classic Grotesque W04';-inkscape-font-specification:'Classic Grotesque W04 Bold';letter-spacing:1.02923px;fill:#2e5a78;stroke-width:6.5423"
             id="path1556" /><path
             d="m 274.48979,42.371391 h -0.0166 v 3.88848 H 272.961 v -5.716399 h 1.96086 l 2.65879,3.689072 h 0.0166 v -3.689072 h 1.51219 v 5.716399 h -1.79468 z"
             style="font-weight:bold;font-size:8.30872px;font-family:'Classic Grotesque W04';-inkscape-font-specification:'Classic Grotesque W04 Bold';letter-spacing:1.02923px;fill:#2e5a78;stroke-width:6.5423"
             id="path1558" /><path
             d="m 171.02043,54.74555 -2.42615,-3.356723 h 1.77807 l 1.54542,2.168576 h 0.0166 l 1.54542,-2.168576 h 1.62851 l -2.42615,3.356723 v 2.359676 h -1.66174 z"
             style="font-weight:bold;font-size:8.30872px;font-family:'Classic Grotesque W04';-inkscape-font-specification:'Classic Grotesque W04 Bold';letter-spacing:1.02923px;fill:#2e5a78;stroke-width:6.5423"
             id="path1560" /><path
             d="m 180.37395,51.388827 h 5.06832 l -0.27419,1.146604 h -3.13239 v 0.922267 h 2.92467 v 1.154912 h -2.92467 v 1.329396 h 3.2404 l 0.2825,1.16322 h -5.18464 z"
             style="font-weight:bold;font-size:8.30872px;font-family:'Classic Grotesque W04';-inkscape-font-specification:'Classic Grotesque W04 Bold';letter-spacing:1.02923px;fill:#2e5a78;stroke-width:6.5423"
             id="path1562" /><path
             d="m 190.22703,55.036355 h -0.0166 l -1.49557,2.068871 h -1.82791 l 2.25166,-2.98283 -2.13534,-2.733569 h 1.92762 l 1.41248,1.960858 h 0.0166 l 1.41248,-1.960858 h 1.79469 l -2.13534,2.733569 2.25166,2.98283 h -1.96086 z"
             style="font-weight:bold;font-size:8.30872px;font-family:'Classic Grotesque W04';-inkscape-font-specification:'Classic Grotesque W04 Bold';letter-spacing:1.02923px;fill:#2e5a78;stroke-width:6.5423"
             id="path1564" /><path
             d="m 196.83972,52.535431 h -2.06056 v -1.146604 h 5.91581 l -0.26588,1.146604 h -1.92762 v 4.569795 h -1.66175 z"
             style="font-weight:bold;font-size:8.30872px;font-family:'Classic Grotesque W04';-inkscape-font-specification:'Classic Grotesque W04 Bold';letter-spacing:1.02923px;fill:#2e5a78;stroke-width:6.5423"
             id="path1566" /><path
             d="m 202.35567,51.388827 h 5.06832 l -0.27419,1.146604 h -3.13239 v 0.922267 h 2.92467 v 1.154912 h -2.92467 v 1.329396 h 3.2404 l 0.2825,1.16322 h -5.18464 z"
             style="font-weight:bold;font-size:8.30872px;font-family:'Classic Grotesque W04';-inkscape-font-specification:'Classic Grotesque W04 Bold';letter-spacing:1.02923px;fill:#2e5a78;stroke-width:6.5423"
             id="path1568" /><path
             d="m 211.12862,53.216746 h -0.0166 v 3.88848 h -1.51219 v -5.716399 h 1.96086 l 2.65879,3.689072 h 0.0166 v -3.689072 h 1.51219 v 5.716399 h -1.79469 z"
             style="font-weight:bold;font-size:8.30872px;font-family:'Classic Grotesque W04';-inkscape-font-specification:'Classic Grotesque W04 Bold';letter-spacing:1.02923px;fill:#2e5a78;stroke-width:6.5423"
             id="path1570" /><path
             d="m 222.32772,53.150276 q -0.29911,-0.357275 -0.74779,-0.556684 -0.44867,-0.207718 -0.94719,-0.207718 -0.91396,0 -0.91396,0.465288 0,0.141248 0.0914,0.240953 0.0914,0.0997 0.2908,0.182792 0.19941,0.07478 0.54838,0.141248 l 0.94719,0.182792 q 0.63146,0.12463 1.08014,0.32404 0.45698,0.1911 0.73116,0.548375 0.2825,0.357275 0.2825,0.905651 0,0.573301 -0.34066,0.997046 -0.34066,0.415436 -0.96381,0.639771 -0.61484,0.216027 -1.43741,0.216027 -2.23504,0 -3.15731,-1.570348 l 1.37925,-0.564993 q 0.30742,0.52345 0.77271,0.764402 0.47359,0.240953 1.02197,0.240953 0.50683,0 0.77271,-0.149557 0.27419,-0.149557 0.27419,-0.423744 0,-0.174483 -0.11632,-0.282497 -0.10802,-0.116322 -0.32404,-0.1911 -0.21603,-0.07478 -0.57331,-0.141249 l -0.94719,-0.182791 q -0.98043,-0.191101 -1.49557,-0.58992 -0.51514,-0.407127 -0.51514,-1.171529 0,-0.531758 0.31573,-0.913959 0.32404,-0.382201 0.91396,-0.581611 0.58992,-0.199409 1.37925,-0.199409 1.08013,0 1.76976,0.348966 0.68962,0.348967 1.08844,0.880725 z"
             style="font-weight:bold;font-size:8.30872px;font-family:'Classic Grotesque W04';-inkscape-font-specification:'Classic Grotesque W04 Bold';letter-spacing:1.02923px;fill:#2e5a78;stroke-width:6.5423"
             id="path1572" /><path
             d="m 225.83295,51.388827 h 1.66175 v 5.716399 h -1.66175 z"
             style="font-weight:bold;font-size:8.30872px;font-family:'Classic Grotesque W04';-inkscape-font-specification:'Classic Grotesque W04 Bold';letter-spacing:1.02923px;fill:#2e5a78;stroke-width:6.5423"
             id="path1574" /><path
             d="m 236.68309,54.247027 q 0,0.913959 -0.41543,1.586965 -0.41544,0.673007 -1.20477,1.03859 -0.78102,0.357275 -1.86946,0.357275 -1.08844,0 -1.87777,-0.357275 -0.78102,-0.365583 -1.19645,-1.03859 -0.41544,-0.673006 -0.41544,-1.586965 0,-0.913959 0.41544,-1.578657 0.41543,-0.673006 1.19645,-1.030281 0.78933,-0.365584 1.87777,-0.365584 1.08844,0 1.86946,0.365584 0.78933,0.357275 1.20477,1.030281 0.41543,0.664698 0.41543,1.578657 z m -3.48966,1.802992 q 0.58992,0 0.98874,-0.224335 0.39882,-0.232645 0.58992,-0.639772 0.19941,-0.407127 0.19941,-0.938885 0,-0.531758 -0.19941,-0.938885 -0.1911,-0.407128 -0.58992,-0.631463 -0.39882,-0.224336 -0.98874,-0.224336 -0.58992,0 -0.98874,0.224336 -0.39881,0.224335 -0.59822,0.631463 -0.1911,0.407127 -0.1911,0.938885 0,0.531758 0.1911,0.938885 0.19941,0.407127 0.59822,0.639772 0.39882,0.224335 0.98874,0.224335 z m 0.0498,-6.314627 h 1.58697 l -1.01366,1.154912 h -1.2297 z"
             style="font-weight:bold;font-size:8.30872px;font-family:'Classic Grotesque W04';-inkscape-font-specification:'Classic Grotesque W04 Bold';letter-spacing:1.02923px;fill:#2e5a78;stroke-width:6.5423"
             id="path1576" /><path
             d="m 240.40435,53.216746 h -0.0166 v 3.88848 h -1.51218 v -5.716399 h 1.96086 l 2.65879,3.689072 h 0.0166 v -3.689072 h 1.51219 v 5.716399 h -1.79468 z"
             style="font-weight:bold;font-size:8.30872px;font-family:'Classic Grotesque W04';-inkscape-font-specification:'Classic Grotesque W04 Bold';letter-spacing:1.02923px;fill:#2e5a78;stroke-width:6.5423"
             id="path1578" /><path
             d="m 173.39672,63.995631 q -0.29911,-0.357275 -0.74778,-0.556684 -0.44867,-0.207718 -0.9472,-0.207718 -0.91395,0 -0.91395,0.465288 0,0.141248 0.0914,0.240953 0.0914,0.0997 0.29081,0.182792 0.19941,0.07478 0.54837,0.141248 l 0.9472,0.182792 q 0.63146,0.12463 1.08013,0.32404 0.45698,0.1911 0.73117,0.548375 0.28249,0.357275 0.28249,0.905651 0,0.573301 -0.34065,0.997046 -0.34066,0.415436 -0.96382,0.639771 -0.61484,0.216027 -1.4374,0.216027 -2.23505,0 -3.15732,-1.570348 l 1.37925,-0.564993 q 0.30742,0.52345 0.77271,0.764402 0.4736,0.240953 1.02197,0.240953 0.50684,0 0.77271,-0.149557 0.27419,-0.149557 0.27419,-0.423744 0,-0.174483 -0.11632,-0.282497 -0.10801,-0.116322 -0.32404,-0.1911 -0.21603,-0.07478 -0.5733,-0.141249 l -0.9472,-0.182791 q -0.98042,-0.191101 -1.49557,-0.58992 -0.51514,-0.407127 -0.51514,-1.171529 0,-0.531758 0.31574,-0.913959 0.32404,-0.382201 0.91395,-0.581611 0.58992,-0.199409 1.37925,-0.199409 1.08014,0 1.76976,0.348966 0.68962,0.348967 1.08844,0.880725 z"
             style="font-weight:bold;font-size:8.30872px;font-family:'Classic Grotesque W04';-inkscape-font-specification:'Classic Grotesque W04 Bold';letter-spacing:1.02923px;fill:#2e5a78;stroke-width:6.5423"
             id="path1580" /><path
             d="m 176.88534,62.234182 h 5.06832 l -0.27419,1.146604 h -3.13239 v 0.922267 h 2.92467 v 1.154912 h -2.92467 v 1.329396 h 3.2404 l 0.2825,1.16322 h -5.18464 z"
             style="font-weight:bold;font-size:8.30872px;font-family:'Classic Grotesque W04';-inkscape-font-specification:'Classic Grotesque W04 Bold';letter-spacing:1.02923px;fill:#2e5a78;stroke-width:6.5423"
             id="path1582" /><path
             d="m 184.12949,62.234182 h 3.15731 q 1.59527,0 2.40953,0.681315 0.81425,0.673007 0.81425,2.176885 0,1.503878 -0.81425,2.185193 -0.81426,0.673006 -2.40953,0.673006 h -3.15731 z m 2.82496,4.553179 q 0.68132,0 1.07183,-0.149557 0.39881,-0.157866 0.58161,-0.52345 0.1911,-0.365583 0.1911,-1.021972 0,-0.656389 -0.1911,-1.021973 -0.1828,-0.365583 -0.58161,-0.51514 -0.39051,-0.157866 -1.07183,-0.157866 h -1.16322 v 3.389958 z"
             style="font-weight:bold;font-size:8.30872px;font-family:'Classic Grotesque W04';-inkscape-font-specification:'Classic Grotesque W04 Bold';letter-spacing:1.02923px;fill:#2e5a78;stroke-width:6.5423"
             id="path1584" /><path
             d="m 192.70304,62.234182 h 5.06832 l -0.27419,1.146604 h -3.13239 v 0.922267 h 2.92467 v 1.154912 h -2.92467 v 1.329396 h 3.24041 l 0.28249,1.16322 h -5.18464 z"
             style="font-weight:bold;font-size:8.30872px;font-family:'Classic Grotesque W04';-inkscape-font-specification:'Classic Grotesque W04 Bold';letter-spacing:1.02923px;fill:#2e5a78;stroke-width:6.5423"
             id="path1586" /><path
             d="m 209.80027,63.347551 h -0.0166 l -1.47895,4.60303 h -1.8113 l -1.47895,-4.60303 h -0.0166 v 4.60303 h -1.54542 v -5.716399 h 2.67541 l 1.32108,4.170978 h 0.0166 l 1.32109,-4.170978 h 2.67541 v 5.716399 h -1.66175 z"
             style="font-weight:bold;font-size:8.30872px;font-family:'Classic Grotesque W04';-inkscape-font-specification:'Classic Grotesque W04 Bold';letter-spacing:1.02923px;fill:#2e5a78;stroke-width:6.5423"
             id="path1588" /><path
             d="m 218.04147,66.7292 h -2.59232 l -0.46529,1.221381 h -1.67836 l 2.37629,-5.716399 h 2.1935 l 2.3763,5.716399 h -1.74483 z m -1.30447,-3.398267 -0.84749,2.218428 h 1.7116 l -0.84749,-2.218428 z"
             style="font-weight:bold;font-size:8.30872px;font-family:'Classic Grotesque W04';-inkscape-font-specification:'Classic Grotesque W04 Bold';letter-spacing:1.02923px;fill:#2e5a78;stroke-width:6.5423"
             id="path1590" /><path
             d="m 223.50755,64.062101 h -0.0166 v 3.88848 h -1.51218 v -5.716399 h 1.96085 l 2.65879,3.689072 h 0.0166 v -3.689072 h 1.51219 v 5.716399 h -1.79468 z"
             style="font-weight:bold;font-size:8.30872px;font-family:'Classic Grotesque W04';-inkscape-font-specification:'Classic Grotesque W04 Bold';letter-spacing:1.02923px;fill:#2e5a78;stroke-width:6.5423"
             id="path1592" /><path
             d="m 230.70185,62.234182 h 1.66174 v 5.716399 h -1.66174 z"
             style="font-weight:bold;font-size:8.30872px;font-family:'Classic Grotesque W04';-inkscape-font-specification:'Classic Grotesque W04 Bold';letter-spacing:1.02923px;fill:#2e5a78;stroke-width:6.5423"
             id="path1594" /><path
             d="m 234.47296,66.837213 3.35673,-3.414884 v -0.01662 h -3.2404 v -1.17153 h 5.38405 v 1.113369 l -3.35673,3.414883 v 0.01662 h 3.47305 v 1.171529 h -5.6167 z"
             style="font-weight:bold;font-size:8.30872px;font-family:'Classic Grotesque W04';-inkscape-font-specification:'Classic Grotesque W04 Bold';letter-spacing:1.02923px;fill:#2e5a78;stroke-width:6.5423"
             id="path1596" /><path
             d="m 246.08749,66.7292 h -2.59232 l -0.46529,1.221381 h -1.67836 l 2.3763,-5.716399 h 2.1935 l 2.37629,5.716399 h -1.74483 z m -1.30447,-3.398267 -0.84749,2.218428 h 1.7116 l -0.84749,-2.218428 z"
             style="font-weight:bold;font-size:8.30872px;font-family:'Classic Grotesque W04';-inkscape-font-specification:'Classic Grotesque W04 Bold';letter-spacing:1.02923px;fill:#2e5a78;stroke-width:6.5423"
             id="path1598" /><path
             d="m 250.02477,62.234182 h 1.66174 v 4.553179 h 2.80835 l 0.2825,1.16322 h -4.75259 z"
             style="font-weight:bold;font-size:8.30872px;font-family:'Classic Grotesque W04';-inkscape-font-specification:'Classic Grotesque W04 Bold';letter-spacing:1.02923px;fill:#2e5a78;stroke-width:6.5423"
             id="path1600" /><path
             d="m 256.63747,62.234182 h 5.06832 l -0.27419,1.146604 h -3.13238 v 0.922267 h 2.92467 v 1.154912 h -2.92467 v 1.329396 h 3.2404 l 0.28249,1.16322 h -5.18464 z"
             style="font-weight:bold;font-size:8.30872px;font-family:'Classic Grotesque W04';-inkscape-font-specification:'Classic Grotesque W04 Bold';letter-spacing:1.02923px;fill:#2e5a78;stroke-width:6.5423"
             id="path1602" /><path
             d="m 267.90303,63.995631 q -0.29911,-0.357275 -0.74778,-0.556684 -0.44867,-0.207718 -0.9472,-0.207718 -0.91396,0 -0.91396,0.465288 0,0.141248 0.0914,0.240953 0.0914,0.0997 0.29081,0.182792 0.19941,0.07478 0.54837,0.141248 l 0.9472,0.182792 q 0.63146,0.12463 1.08013,0.32404 0.45698,0.1911 0.73117,0.548375 0.28249,0.357275 0.28249,0.905651 0,0.573301 -0.34065,0.997046 -0.34066,0.415436 -0.96382,0.639771 -0.61484,0.216027 -1.4374,0.216027 -2.23505,0 -3.15732,-1.570348 l 1.37925,-0.564993 q 0.30742,0.52345 0.77271,0.764402 0.4736,0.240953 1.02197,0.240953 0.50683,0 0.77271,-0.149557 0.27419,-0.149557 0.27419,-0.423744 0,-0.174483 -0.11632,-0.282497 -0.10801,-0.116322 -0.32404,-0.1911 -0.21603,-0.07478 -0.5733,-0.141249 l -0.9472,-0.182791 q -0.98043,-0.191101 -1.49557,-0.58992 -0.51514,-0.407127 -0.51514,-1.171529 0,-0.531758 0.31573,-0.913959 0.32404,-0.382201 0.91396,-0.581611 0.58992,-0.199409 1.37925,-0.199409 1.08014,0 1.76976,0.348966 0.68962,0.348967 1.08844,0.880725 z"
             style="font-weight:bold;font-size:8.30872px;font-family:'Classic Grotesque W04';-inkscape-font-specification:'Classic Grotesque W04 Bold';letter-spacing:1.02923px;fill:#2e5a78;stroke-width:6.5423"
             id="path1604" /></g><g
           id="g1642"
           transform="translate(0,3.9473599)" /></g></g></g></svg>
