<?xml version="1.0" standalone="no"?>
<!DOCTYPE svg PUBLIC "-//W3C//DTD SVG 1.1//EN" "http://www.w3.org/Graphics/SVG/1.1/DTD/svg11.dtd" >
<svg xmlns="http://www.w3.org/2000/svg">
<metadata></metadata>
<defs>
<font id="ancizar_sansthin" horiz-adv-x="1048" >
<font-face units-per-em="2048" ascent="1536" descent="-512" />
<missing-glyph horiz-adv-x="436" />
<glyph unicode="&#xfb01;" horiz-adv-x="1060" d="M92 846v55l125 21v69q0 208 106 323t300 116q133 -3 256 -48l-35 -100q-167 74 -305 74q-94 0 -159 -72t-65 -207v-155h473v4l99 12v-938h-99v846h-473v-846h-98v846h-125z" />
<glyph unicode="&#xfb02;" horiz-adv-x="1146" d="M92 846v55l125 21v69q0 208 106 323t300 116q110 -3 202 -29l62 14v-1292q0 -26 18 -44t49 -18q51 0 90 17l17 -66q-15 -10 -58 -20t-79 -10q-57 0 -94 35t-37 94v1192q-137 53 -254 53q-94 0 -159 -72t-65 -207v-155h283l-10 -76h-273v-846h-98v846h-125z" />
<glyph unicode="&#xfb03;" horiz-adv-x="1650" d="M92 846v55l144 21h2v18q0 73 11.5 134.5t41 119t75.5 98t120 64.5t169 24q54 0 107 -9t83.5 -18.5t80.5 -27.5q108 105 288 105q131 -3 254 -48l-32 -100q-167 74 -306 74q-94 0 -158.5 -72t-64.5 -207v-155h473v4l99 12v-938h-99v846h-473v-846h-98v846h-473v-846h-98 v846h-146zM336 922h473v69q0 151 55 252q-133 68 -297 68q-98 0 -164.5 -70.5t-66.5 -220.5v-98z" />
<glyph unicode="&#xfb04;" horiz-adv-x="1734" d="M92 846v55l144 21h2v18q0 73 11.5 134.5t41 119t75.5 98t120 64.5t169 24q54 0 107 -9t83.5 -18.5t80.5 -27.5q108 105 288 105q111 -3 203 -29l62 14v-1292q0 -26 18 -44t49 -18q51 0 90 17l17 -66q-15 -10 -58 -20t-79 -10q-57 0 -94.5 35t-37.5 94v1192 q-141 53 -254 53q-94 0 -158.5 -72t-64.5 -207v-155h283l-10 -76h-273v-846h-98v846h-473v-846h-98v846h-146zM336 922h473v69q0 151 55 252q-133 68 -297 68q-98 0 -164.5 -70.5t-66.5 -220.5v-98z" />
<glyph horiz-adv-x="2048" />
<glyph horiz-adv-x="2048" />
<glyph unicode="&#xd;" horiz-adv-x="2048" />
<glyph unicode=" "  horiz-adv-x="436" />
<glyph unicode="&#x09;" horiz-adv-x="436" />
<glyph unicode="&#xa0;" horiz-adv-x="436" />
<glyph unicode="!" horiz-adv-x="610" d="M203 86q0 30 36.5 69.5t63.5 39.5q25 0 64 -35.5t39 -63.5q0 -36 -37 -75t-62 -39q-28 0 -66 36t-38 68zM211 1243l151 64q-28 -493 -28 -963l-80 -39q2 234 -9.5 505t-33.5 433z" />
<glyph unicode="&#x22;" horiz-adv-x="616" d="M137 1419h96l-30 -403h-41zM381 1419h96l-24 -403h-41z" />
<glyph unicode="#" horiz-adv-x="985" d="M39 393v31l14 49h207l66 268h-226v31l15 47h229l107 434h94l-107 -434h236l106 434h94l-106 -434h184v-31l-14 -47h-188l-66 -268h207v-31l-14 -49h-211l-97 -393h-94l96 393h-235l-96 -393h-95l97 393h-203zM354 473h236l65 268h-235z" />
<glyph unicode="$" d="M154 29l32 102q166 -65 303 -65q126 0 206.5 57.5t80.5 165.5q0 72 -21 120t-86 97.5t-188 101.5q-156 68 -226.5 150.5t-70.5 197.5q0 117 82.5 203t222.5 107l-22 250h123l-23 -244h6q163 0 289 -41l-33 -101q-90 32 -153.5 45t-145.5 13q-117 0 -178 -53t-61 -154 q0 -52 15 -91t53 -73t85 -61t127 -64q97 -46 160 -89.5t94.5 -88t42.5 -84t11 -90.5q0 -135 -83 -226t-239 -120l25 -270h-123l24 260q-23 -2 -71 -2q-50 0 -133 14.5t-125 32.5z" />
<glyph unicode="%" horiz-adv-x="1165" d="M61 971q0 124 79 213.5t198 89.5q105 0 172.5 -81t67.5 -194q0 -126 -79 -213.5t-196 -87.5q-110 0 -176 78.5t-66 194.5zM121 0l835 1253h93l-830 -1253h-98zM147 987q0 -107 48 -162t139 -55q155 0 155 213q0 106 -47.5 160.5t-136.5 54.5q-86 0 -122 -53t-36 -158z M586 254q0 124 79 213.5t197 89.5q105 0 173.5 -79.5t68.5 -194.5q0 -125 -79.5 -213t-197.5 -88q-107 0 -174 79t-67 193zM674 270q0 -215 184 -215q83 0 119.5 54t36.5 157q0 107 -47.5 162t-137.5 55q-85 0 -120 -53.5t-35 -159.5z" />
<glyph unicode="&#x26;" horiz-adv-x="1290" d="M113 266q0 28 2.5 51t12.5 46.5t16.5 39.5t27 39t30 34.5t41 38t44.5 37t55 43.5t59 46q-176 168 -176 324q0 129 98 218t236 91q94 0 167 -22t105 -46l-45 -92q-157 74 -284 74q-81 2 -134 -51t-53 -142q0 -45 17 -87.5t53 -87t71 -80.5t92.5 -93t96.5 -100 q147 -147 264 -252q97 126 97 258q0 70 -20 127.5t-73 132.5l105 41q80 -106 80 -248q0 -193 -140 -356q39 -34 131.5 -115.5t147.5 -130.5v-14l-139 2q-77 62 -213 184q-101 -91 -223.5 -144t-225.5 -55q-82 1 -146.5 27.5t-101.5 69t-56 91.5t-19 101zM219 295 q0 -51 19 -92.5t47.5 -66.5t64.5 -42t69 -24t62 -7q85 0 182 42t175 114q-74 70 -148.5 142.5t-117.5 116t-46 48.5q-10 14 -65 62q-54 -34 -91 -62t-75 -65t-57 -78.5t-19 -87.5z" />
<glyph unicode="'" horiz-adv-x="372" d="M137 1419h96l-26 -403h-43z" />
<glyph unicode="(" horiz-adv-x="636" d="M147 567q0 261 82 452.5t285 350.5l74 -63q-179 -143 -254.5 -323.5t-75.5 -416.5q0 -471 330 -741l-74 -64q-198 158 -282.5 352.5t-84.5 452.5z" />
<glyph unicode=")" horiz-adv-x="636" d="M49 -178q179 143 254.5 323t75.5 416q0 472 -330 742l74 63q198 -158 282 -352t84 -453q0 -262 -81.5 -453t-284.5 -350z" />
<glyph unicode="*" horiz-adv-x="894" d="M86 1126l14 107q45 3 136.5 -44.5t150.5 -109.5l-14 -26q-53 22 -137.5 44t-149.5 29zM92 852q13 41 106.5 103t176.5 75l14 -24q-43 -34 -107.5 -99.5t-103.5 -115.5zM334 1370l94 45q33 -83 33 -172q0 -83 -25 -151l-26 -9q-16 114 -76 287zM383 831q0 101 25 166l32 2 q6 -47 28.5 -133.5t43.5 -148.5l-94 -51q-35 60 -35 165zM451 1081q150 121 211 199l90 -57q-16 -43 -103.5 -102t-175.5 -77zM457 1004l16 26q41 -18 129 -41.5t152 -34.5l-6 -104q-35 -8 -132 40.5t-159 113.5z" />
<glyph unicode="+" d="M111 498v90h364v354h96v-354h363v-90h-363v-369h-96v369h-364z" />
<glyph unicode="," horiz-adv-x="471" d="M139 -264q84 240 84 260q0 7 -15 21.5t-30.5 34.5t-15.5 40q0 22 27 46t47 24q21 0 58.5 -36.5t37.5 -72.5q0 -12 -2.5 -26t-8.5 -36t-11.5 -39t-18 -50.5t-20 -54t-25 -66.5t-27.5 -72z" />
<glyph unicode="-" horiz-adv-x="622" d="M102 455v20l25 70h393v-21l-31 -69h-387z" />
<glyph unicode="." horiz-adv-x="471" d="M147 66q0 27 30.5 62.5t51.5 35.5q22 0 58.5 -29.5t36.5 -54.5q0 -29 -30.5 -63.5t-55.5 -34.5q-22 0 -56.5 28.5t-34.5 55.5z" />
<glyph unicode="/" horiz-adv-x="624" d="M61 -225l398 1644h104l-397 -1644h-105z" />
<glyph unicode="0" d="M98 602q0 313 125 491.5t328 178.5q178 0 288.5 -166t110.5 -455q0 -313 -124 -491t-328 -178q-177 0 -288.5 165.5t-111.5 454.5zM197 627q0 -139 28.5 -246.5t77.5 -171t110.5 -95.5t131.5 -32q69 0 122 28.5t93.5 91t62 169.5t21.5 256q0 139 -27.5 245.5t-76 169.5 t-108.5 94t-130 31t-124 -28t-95.5 -89t-63.5 -167.5t-22 -255.5z" />
<glyph unicode="1" d="M260 1137q77 21 328 116h94v-1253h-111v1149l-278 -123z" />
<glyph unicode="2" d="M170 0v127q232 214 359 359t176 247t49 205q0 102 -70.5 173t-183.5 71q-107 0 -281 -72l-39 84q194 78 346 78q158 0 252 -91t94 -243q0 -68 -31 -145.5t-81 -152.5t-133 -169t-166 -176t-201 -193l645 9l-24 -111h-711z" />
<glyph unicode="3" d="M135 2l33 104q117 -32 285 -32q118 0 189 65t71 180q0 93 -47 157.5t-119 92t-162 27.5q-43 0 -63 -2l-29 100q191 0 289 65.5t98 188.5q0 62 -23 109.5t-60.5 73.5t-79 38.5t-85.5 12.5q-62 0 -114 -15.5t-138 -54.5l-37 86q168 74 316 74q149 0 235 -75.5t86 -201.5 q0 -127 -76.5 -220t-193.5 -122q144 -22 227.5 -99.5t83.5 -188.5q0 -89 -38.5 -163t-102 -121t-142 -73t-161.5 -26q-162 0 -242 20z" />
<glyph unicode="4" d="M-10 309v58l688 911h55v-877h248l-43 -92h-205v-309h-108v309h-635zM117 401h508v662z" />
<glyph unicode="5" d="M156 10l37 107q138 -41 282 -41q139 0 219 74.5t80 199.5q0 66 -25.5 118.5t-63 83t-85.5 50t-87.5 26.5t-74.5 7q-106 0 -211 -25l31 643h623l-31 -98h-506l-27 -436q82 14 152 14q193 0 302.5 -92.5t109.5 -228.5q0 -197 -136.5 -313.5t-390.5 -116.5q-60 0 -198 28z " />
<glyph unicode="6" d="M141 541q0 365 140.5 548t384.5 183q119 0 208 -29l-30 -115q-14 2 -55.5 14.5t-91 22t-103.5 9.5q-82 0 -142 -27t-106 -90t-71.5 -171t-32.5 -265l6 20q4 0 32 17.5t66 39.5t102.5 40t131.5 18q87 0 152.5 -30.5t103 -82t55.5 -113.5t18 -133q0 -169 -112 -292 t-273 -123q-171 0 -277 143.5t-106 415.5zM240 504q0 -64 10.5 -123.5t35 -115t60 -96.5t90 -66t121.5 -25q115 0 183.5 75.5t68.5 211.5q0 121 -71.5 202.5t-221.5 81.5q-128 0 -276 -84v-61z" />
<glyph unicode="7" d="M139 1143l17 106h735v-92q0 -1 -1 -3t-1 -3l22 -2h-24q-90 -171 -267.5 -580t-244.5 -596l-101 45q80 191 268.5 593t266.5 538z" />
<glyph unicode="8" d="M135 281q0 48 17 93.5t41 80.5t64 73.5t73 63.5t82 59q-121 67 -173.5 137t-52.5 177q0 121 102.5 212t262.5 91q127 0 218 -69t91 -191q0 -174 -254 -340q162 -80 232.5 -152.5t70.5 -179.5q0 -147 -117.5 -250.5t-306.5 -103.5q-158 0 -254 82t-96 217zM246 311 q0 -115 87 -174t226 -59q104 0 175 62t71 155q0 39 -9.5 69.5t-39.5 69t-94 81.5t-164 93q-131 -89 -172 -129q-80 -77 -80 -168zM295 975q0 -67 51 -130t174 -132q114 62 173 125t59 137q0 81 -65 140t-193 59q-92 0 -145.5 -57t-53.5 -142z" />
<glyph unicode="9" d="M143 846q0 186 113 305t268 119q168 0 274.5 -142.5t106.5 -412.5q0 -171 -44.5 -311t-122 -231.5t-179 -141t-217.5 -49.5q-30 0 -85 6.5t-89 15.5l22 109q40 -17 108 -26t118 -9q164 0 264.5 135t120.5 403l-8 -26q-41 -29 -129.5 -59.5t-196.5 -30.5q-132 0 -228 102 t-96 244zM244 891q0 -57 16 -106t49.5 -90.5t91.5 -65t136 -23.5q124 0 266 58q2 25 2 79q0 70 -11.5 131.5t-37.5 116t-64.5 94t-95 62t-125.5 22.5q-115 0 -171 -75t-56 -203z" />
<glyph unicode=":" horiz-adv-x="471" d="M147 66q0 27 30.5 62.5t51.5 35.5q22 0 58.5 -29.5t36.5 -54.5q0 -29 -30.5 -63.5t-55.5 -34.5q-22 0 -56.5 28.5t-34.5 55.5zM147 639q0 27 30.5 62.5t51.5 35.5q22 0 58.5 -29.5t36.5 -54.5q0 -29 -30.5 -63.5t-55.5 -34.5q-22 0 -56.5 28.5t-34.5 55.5z" />
<glyph unicode=";" horiz-adv-x="471" d="M139 -264q84 240 84 260q0 7 -15 21.5t-30.5 34.5t-15.5 40q0 22 27 46t47 24q21 0 58.5 -36.5t37.5 -72.5q0 -12 -2.5 -26t-8.5 -36t-11.5 -39t-18 -50.5t-20 -54t-25 -66.5t-27.5 -72zM147 639q0 27 30.5 62.5t51.5 35.5q22 0 58.5 -29.5t36.5 -54.5q0 -29 -30.5 -63.5 t-55.5 -34.5q-22 0 -56.5 28.5t-34.5 55.5z" />
<glyph unicode="=" d="M174 397v31l27 51h673v-30l-28 -52h-672zM174 610v31l27 51h673v-30l-28 -52h-672z" />
<glyph unicode="?" horiz-adv-x="768" d="M76 1174q75 40 147 63t166 23q129 0 217 -80.5t88 -206.5q0 -47 -13.5 -87t-44 -78.5t-61 -68t-83.5 -73.5q-72 -58 -98.5 -86t-26.5 -58q0 -26 27 -82.5t59 -97.5l-74 -39q-27 29 -36.5 40.5t-27.5 37.5t-25 51t-7 55q0 58 30 97t117 112q87 72 118.5 124t31.5 128 q0 106 -71.5 171t-180.5 65q-36 0 -85 -22t-130 -72zM276 88q0 25 36 59.5t61 34.5q20 0 55 -32.5t35 -57.5t-36 -58.5t-56 -33.5q-25 0 -60 31t-35 57z" />
<glyph unicode="@" horiz-adv-x="1611" d="M84 459q0 191 62 358t167.5 283t249 183t303.5 67q301 0 481.5 -153t180.5 -427q0 -121 -44 -232t-118 -195t-169 -144t-200 -88l-34 262v18q-66 -130 -143.5 -206t-125.5 -76q-49 0 -82.5 26t-51.5 76.5t-25 112t-7 145.5q0 88 21 170.5t63 153.5t114 114t165 43 q94 0 156 -47v-713q75 34 141 85.5t121.5 121t88 163t32.5 196.5q0 231 -159 372.5t-433 141.5q-135 0 -252 -56t-203.5 -157.5t-136 -254t-49.5 -335.5q0 -328 160 -507t429 -179q45 0 90 5t76 11t70 18.5t55 18.5t51 20.5t39 16.5l31 -70q-140 -60 -214 -80 q-112 -30 -226 -30q-96 0 -186 22t-180.5 78t-157.5 140.5t-108.5 220.5t-41.5 307zM623 492q0 -113 13 -177.5t36 -88t61 -23.5q19 0 45.5 16.5t59 59t60 103t46 160.5t17.5 220l2 -33v113q-66 24 -134 24q-50 0 -87.5 -20t-59.5 -52.5t-35.5 -82t-18.5 -101.5t-5 -118z " />
<glyph unicode="A" horiz-adv-x="1118" d="M37 0l473 1253h90l481 -1253h-120l-166 449h-482l-157 -449h-119zM348 543h412l-211 567z" />
<glyph unicode="B" horiz-adv-x="1099" d="M219 0v1253h332q153 0 249.5 -86t96.5 -211q0 -199 -182 -299q49 -10 93.5 -30.5t86.5 -54.5t67 -88t25 -122q0 -165 -126 -263.5t-347 -98.5h-295zM330 92q152 -4 239 -4q149 0 228.5 60t79.5 180q0 127 -88 196.5t-244 69.5q-67 0 -215 -4v-498zM330 686q111 -6 227 -6 q109 0 170 62.5t61 166.5q0 117 -67 187.5t-191 70.5q-56 0 -200 4v-485z" />
<glyph unicode="C" horiz-adv-x="1105" d="M109 604q0 195 70 346t203.5 236.5t311.5 85.5q81 0 186 -19t148 -43l-47 -96q-54 29 -157 48.5t-191 19.5q-56 0 -110 -15.5t-109.5 -54.5t-97 -98t-67.5 -153.5t-26 -213.5q0 -121 24.5 -217.5t68 -162t105 -109t132.5 -63t154 -19.5q160 0 319 78l23 -88 q-59 -33 -157 -58.5t-194 -25.5q-269 0 -429 162.5t-160 459.5z" />
<glyph unicode="D" horiz-adv-x="1306" d="M219 27v1226h383q273 0 434.5 -156.5t161.5 -414.5q0 -206 -86.5 -362.5t-238.5 -239t-347 -82.5q-71 0 -167 10t-140 19zM330 104q135 -18 280 -18q69 0 134 18t126.5 61t107 107t73.5 162.5t28 220.5q0 240 -141 376t-381 136h-227v-1063z" />
<glyph unicode="E" horiz-adv-x="1030" d="M219 0v1253h680l-16 -98l-553 10v-467h508l-21 -94l-487 8v-518l602 10l-17 -104h-696z" />
<glyph unicode="F" horiz-adv-x="991" d="M219 0v1253h680l-16 -98l-553 6v-477h501l-18 -98l-483 6v-592h-111z" />
<glyph unicode="G" horiz-adv-x="1202" d="M109 610q0 133 40.5 252t114.5 210.5t189.5 145.5t255.5 54q93 0 196.5 -19t165.5 -53l-49 -98q-176 76 -379 76q-38 0 -80 -10t-90.5 -32.5t-92 -64t-79.5 -97t-57 -140.5t-21 -187q0 -120 26.5 -217t72.5 -163t111.5 -110.5t141.5 -64.5t164 -20q45 0 113 10.5 t115 30.5l-2 510h106v-547q-39 -33 -149 -63.5t-195 -30.5q-134 0 -244 36t-195 110t-132 196.5t-47 285.5z" />
<glyph unicode="H" horiz-adv-x="1318" d="M219 0v1253h111v-553h659v553h111v-1253h-111v608h-659v-608h-111z" />
<glyph unicode="I" horiz-adv-x="548" d="M219 0v1253h111v-1253h-111z" />
<glyph unicode="J" horiz-adv-x="681" d="M29 2l22 94q109 -28 170 -28q78 0 124 58.5t46 156.5v970h113v-903q0 -181 -94 -274.5t-248 -93.5q-41 0 -133 20z" />
<glyph unicode="K" horiz-adv-x="1126" d="M219 0v1253h111v-1253h-111zM330 641l585 612h140l-592 -602l645 -651h-164z" />
<glyph unicode="L" horiz-adv-x="880" d="M219 0v1253h111v-1159l530 10l-14 -104h-627z" />
<glyph unicode="M" horiz-adv-x="1572" d="M117 0l137 1253h127l414 -1093l383 1093h143l137 -1253h-112l-111 1110h-10l-394 -1110h-83l-414 1108h-4l-109 -1108h-104z" />
<glyph unicode="N" horiz-adv-x="1351" d="M219 0v1253h109l712 -1089v1089h93v-1253h-103l-719 1098v-1098h-92z" />
<glyph unicode="O" horiz-adv-x="1339" d="M109 602q0 156 45.5 283.5t125.5 211.5t189.5 129.5t237.5 45.5q110 0 204.5 -42t165.5 -119t111.5 -196t40.5 -264q0 -156 -45.5 -283.5t-126.5 -211.5t-191 -129t-239 -45q-109 0 -203 41.5t-164.5 118.5t-110.5 195.5t-40 264.5zM219 659q0 -158 36 -274t102 -183 t149 -98.5t186 -31.5q84 0 159.5 32.5t136 95t96.5 164.5t36 230q0 126 -24.5 226.5t-67.5 167.5t-104.5 111t-131 63.5t-151.5 19.5q-83 0 -158 -33t-134.5 -96.5t-94.5 -165t-35 -228.5z" />
<glyph unicode="P" horiz-adv-x="1007" d="M219 0v1253h320q199 0 308 -88t109 -245q0 -100 -40.5 -179.5t-109.5 -129t-157.5 -75.5t-189.5 -26q-47 0 -129 4v-514h-111zM330 608q105 -10 200 -10q144 0 227 68.5t83 212.5q0 138 -88.5 212t-251.5 74h-170v-557z" />
<glyph unicode="Q" horiz-adv-x="1339" d="M109 602q0 156 45.5 283.5t125.5 211.5t189.5 129.5t237.5 45.5q110 0 204.5 -42t165.5 -119t111.5 -196t40.5 -264q0 -156 -45.5 -283.5t-126.5 -211.5t-191 -129t-239 -45q-109 0 -203 41.5t-164.5 118.5t-110.5 195.5t-40 264.5zM219 659q0 -158 36 -274t102 -183 t149 -98.5t186 -31.5q84 0 159.5 32.5t136 95t96.5 164.5t36 230q0 126 -24.5 226.5t-67.5 167.5t-104.5 111t-131 63.5t-151.5 19.5q-83 0 -158 -33t-134.5 -96.5t-94.5 -165t-35 -228.5zM303 -176q34 28 94.5 49t106.5 21q77 0 187.5 -26.5t208 -53.5t142.5 -27 q107 0 164 39v-111q-58 -41 -172 -41q-46 0 -253.5 62.5t-278.5 62.5q-43 0 -73 -9t-45 -20t-44 -38z" />
<glyph unicode="R" horiz-adv-x="1067" d="M219 0v1253h297q189 0 291 -86t102 -233q0 -126 -63 -216.5t-166 -135.5l334 -582h-140l-299 549l3 2q-55 -10 -97 -10q-15 0 -68 1t-83 1v-543h-111zM330 641q68 -6 194 -6q117 0 195 62t78 188q0 135 -76.5 207.5t-196.5 72.5q-58 0 -194 -4v-520z" />
<glyph unicode="S" horiz-adv-x="964" d="M109 29l32 102q166 -65 303 -65q126 0 206.5 57.5t80.5 165.5q0 72 -21 120t-86 97.5t-188 101.5q-156 68 -226.5 150.5t-70.5 197.5q0 134 106.5 225t282.5 91q163 0 289 -41l-33 -101q-90 32 -153.5 45t-145.5 13q-117 0 -178 -53t-61 -154q0 -52 15 -91t53 -73t85 -61 t127 -64q97 -46 160 -89.5t94.5 -88t42.5 -84t11 -90.5q0 -165 -120.5 -261.5t-346.5 -96.5q-50 0 -133 14.5t-125 32.5z" />
<glyph unicode="T" horiz-adv-x="1005" d="M33 1155l10 98h930l-12 -98l-402 8v-1163h-113v1161z" />
<glyph unicode="U" horiz-adv-x="1310" d="M207 395v858h110v-788q0 -209 96 -299t267 -90q154 0 239 84t85 254v839h100v-790q0 -235 -119 -357.5t-350 -123.5h-7q-86 0 -159 23q-76 24 -135.5 73t-93 130t-33.5 187z" />
<glyph unicode="V" horiz-adv-x="1103" d="M29 1253h118l398 -1103l6 8l416 1095h104l-483 -1253h-92z" />
<glyph unicode="W" horiz-adv-x="1740" d="M74 1253h108l281 -1120l354 1120h111l370 -1120l261 1120h104l-307 -1253h-119l-367 1120l-354 -1120h-123z" />
<glyph unicode="X" horiz-adv-x="1083" d="M35 0l446 653l-405 600h129l346 -512l342 512h119l-410 -587l449 -666h-129l-390 578l-382 -578h-115z" />
<glyph unicode="Y" horiz-adv-x="1050" d="M23 1253h133l391 -630l356 630h115l-424 -729v-524h-113v524z" />
<glyph unicode="Z" horiz-adv-x="1069" d="M82 0v76l774 1093l-737 -14l20 98h828v-110l-762 -1063l762 14l-19 -94h-866z" />
<glyph unicode="[" horiz-adv-x="636" d="M197 -227v1579h329v-84h-227v-1411h227v-84h-329z" />
<glyph unicode="\" horiz-adv-x="624" d="M61 1419h105l397 -1644h-104z" />
<glyph unicode="]" horiz-adv-x="636" d="M111 -143h227v1411h-227v84h329v-1579h-329v84z" />
<glyph unicode="_" horiz-adv-x="901" d="M0 -207h901v-74h-901v74z" />
<glyph unicode="`" horiz-adv-x="688" d="M158 1307l108 22l264 -272h-79z" />
<glyph unicode="a" horiz-adv-x="874" d="M96 209q0 133 134 213q127 77 370 76h25v127q0 107 -53.5 169t-147.5 62q-97 0 -274 -61l-29 67q106 42 176 60t162 18q118 0 189 -72.5t71 -210.5v-655l-70 -20l-24 106v10q-191 -116 -275 -116q-109 0 -181.5 63t-72.5 164zM190 240q0 -58 30 -98.5t68 -56t77 -15.5 q53 0 112 22t148 66v248l-57 3q-58 3 -117 3q-111 0 -186 -45.5t-75 -126.5z" />
<glyph unicode="b" horiz-adv-x="1009" d="M178 -25v1420l98 20v-579q86 48 165.5 75t119.5 29h5q62 0 121 -25q61 -26 114 -78t85 -144t32 -210q0 -102 -24.5 -187t-66 -142t-96.5 -96.5t-114.5 -57.5t-122.5 -18q-100 0 -218 59v-2l-38 -88zM276 117q131 -54 271 -54q116 0 194 103.5t78 298.5q0 104 -26.5 183 t-70 121.5t-90.5 62.5t-97 20q-118 0 -259 -84v-651z" />
<glyph unicode="c" horiz-adv-x="827" d="M104 446q0 217 115 355.5t297 138.5q81 0 146.5 -10t89.5 -25l-19 -82q-7 2 -45.5 12.5t-57.5 15t-55.5 10.5t-70.5 7q-132 -3 -213.5 -104.5t-81.5 -296.5q0 -199 82.5 -301.5t226.5 -102.5q117 0 242 46l22 -62q-43 -24 -129 -44.5t-159 -20.5q-191 0 -290.5 125.5 t-99.5 338.5z" />
<glyph unicode="d" horiz-adv-x="1007" d="M90 438q0 127 37 226t99 157.5t135.5 88.5t152.5 30q101 0 217 -55v510l98 20v-1413l-65 -20l-25 108q-87 -49 -170 -77.5t-123 -30.5h-6q-49 0 -95 14q-49 16 -96 51t-82 87t-56 130t-21 174zM188 457q0 -84 18 -152.5t47 -112t67 -73t76 -41.5t77 -12q117 0 258 88v651 q-128 53 -268 53q-118 0 -196.5 -103t-78.5 -298z" />
<glyph unicode="e" horiz-adv-x="903" d="M104 440q0 237 112 368.5t284 131.5q137 0 227 -84.5t90 -232.5v-107h-614q-2 -18 -2 -59q0 -104 28.5 -182t78 -122.5t108.5 -65.5t127 -21q138 0 256 51l20 -70q-163 -65 -297 -65q-189 0 -303.5 117t-114.5 341zM209 592h504q0 272 -238 272q-119 0 -183.5 -61.5 t-82.5 -210.5z" />
<glyph unicode="f" horiz-adv-x="618" d="M92 846v55l125 21v84q0 218 94 321t267 103q19 0 71 -9l-8 -86q-79 15 -154 15q-72 0 -122 -57.5t-50 -170.5v-200h260l-10 -76h-250v-846h-98v846h-125z" />
<glyph unicode="g" horiz-adv-x="931" d="M76 -199q0 48 36 102.5t115 106.5q71 48 133 76l-18 4q-46 13 -78.5 44.5t-32.5 70.5q0 71 109 151q-101 18 -165 90t-64 179q0 147 99 231t251 84q92 0 160 -47q20 3 89.5 15t127.5 22.5t57 9.5v-102h-39l-186 16q75 -78 75 -192q0 -148 -94.5 -230t-240.5 -82 q-26 -23 -39.5 -36t-28 -35t-14.5 -39q0 -36 36 -55.5t130 -37.5l168 -43q41 -12 67 -23.5t53.5 -31.5t40.5 -52t13 -75q0 -87 -65.5 -163t-169 -119t-216.5 -43q-86 0 -154 20.5t-111.5 67.5t-43.5 116zM174 -186q0 -63 69 -98t197 -35q129 0 214 61.5t85 148.5 q0 62 -45.5 98t-154.5 58l-95 21q-69 -31 -149 -82q-62 -39 -91.5 -79t-29.5 -93zM205 653q0 -107 69.5 -165t171.5 -58q96 0 150.5 47t54.5 158q0 60 -20.5 104.5t-55.5 69.5t-77.5 37t-91.5 12q-102 0 -151.5 -45t-49.5 -160z" />
<glyph unicode="h" horiz-adv-x="999" d="M178 0v1395l98 20v-581q69 43 155 74.5t144 31.5q45 0 91.5 -15.5t88 -45t67.5 -81t26 -116.5v-682h-98v625q0 94 -53 157.5t-152 63.5q-37 0 -89 -13.5t-81.5 -24.5t-98.5 -38v-770h-98z" />
<glyph unicode="i" horiz-adv-x="454" d="M150 1227q0 24 30.5 55t48.5 31q22 0 55 -24t33 -48t-29.5 -54t-49.5 -30q-21 0 -54.5 23.5t-33.5 46.5zM178 0v918l98 20v-938h-98z" />
<glyph unicode="j" horiz-adv-x="454" d="M-82 -383q58 13 93.5 26t71 38t54 61t30 94t11.5 139v943l98 22v-950q0 -185 -96.5 -314t-238.5 -129zM137 1227q0 24 31 55t49 31q22 0 56 -24t34 -48t-31 -54t-51 -30q-21 0 -54.5 23.5t-33.5 46.5z" />
<glyph unicode="k" horiz-adv-x="847" d="M178 0v1389l98 26v-1415h-98zM276 506l410 416h127l-430 -410l461 -512h-135l-430 504z" />
<glyph unicode="l" horiz-adv-x="540" d="M190 111v1282l95 22v-1292q0 -26 18 -44t49 -18q51 0 90 17l17 -66q-15 -10 -58 -20t-79 -10q-57 0 -94.5 35t-37.5 94z" />
<glyph unicode="m" horiz-adv-x="1521" d="M178 0v920l74 20l22 -109q184 109 285 109q165 0 229 -127q81 46 173.5 86.5t148.5 40.5q126 0 193 -73.5t67 -192.5v-674h-100v625q0 103 -45.5 164t-137.5 61q-43 0 -98 -16.5t-82 -28.5t-98 -45q10 -45 10 -86v-674h-100v625q0 103 -45 164t-137 61q-40 0 -89 -13.5 t-83 -28t-89 -40.5v-768h-98z" />
<glyph unicode="n" horiz-adv-x="1005" d="M178 0v920l74 20l22 -109q70 41 157.5 75t143.5 34q127 0 200 -74.5t73 -191.5v-674h-98v625q0 100 -53.5 160.5t-147.5 60.5q-97 0 -273 -78v-768h-98z" />
<glyph unicode="o" horiz-adv-x="995" d="M90 442q0 235 121.5 366.5t329.5 131.5q168 0 266 -125.5t98 -335.5q0 -234 -119.5 -366.5t-320.5 -135.5q-168 3 -271.5 130t-103.5 335zM188 485q0 -210 87 -313.5t243 -103.5q141 0 215 99.5t74 268.5q0 210 -88 314t-244 104q-140 0 -213.5 -99t-73.5 -270z" />
<glyph unicode="p" horiz-adv-x="1007" d="M178 -434v1354l76 20l22 -104q84 48 164.5 75t120.5 29h5q62 0 121 -25q61 -26 114 -78t85 -144t32 -210q0 -102 -24.5 -187t-66 -142t-96.5 -96.5t-114.5 -57.5t-122.5 -18q-102 0 -218 55v-449zM276 117q131 -54 269 -54q118 0 196 103t78 299q0 104 -26.5 182.5 t-70 120t-90.5 61t-97 19.5q-125 0 -259 -80v-651z" />
<glyph unicode="q" horiz-adv-x="1009" d="M90 436q0 127 37 226t99 157.5t135.5 88.5t152.5 30q110 0 219 -61v6l39 88l59 -25v-1366l-98 -20v524q-85 -48 -166 -75t-121 -29h-6q-49 0 -95 14q-49 16 -96 51t-82 87t-56 130t-21 174zM188 455q0 -84 18 -152t46.5 -111t67 -72t76.5 -40.5t77 -11.5q127 0 260 86 v649q-128 53 -272 53q-117 0 -195 -103t-78 -298z" />
<glyph unicode="r" horiz-adv-x="655" d="M178 0v920l74 20l24 -125v-10q180 135 326 135l-3 2q0 1 1 1t2 -1v-2h8h-8l-10 -115q-10 2 -64 2q-122 -3 -252 -90v-737h-98z" />
<glyph unicode="s" horiz-adv-x="786" d="M92 27l17 88q87 -30 155.5 -43t151.5 -13q71 0 126.5 42.5t55.5 127.5q0 33 -14 60t-42 48.5t-51 34t-59 29.5l-127 58q-33 15 -51 25t-48.5 31.5t-47 43.5t-30 57t-13.5 76q0 57 31 106.5t77 79t95 46t90 16.5q83 0 162.5 -13.5t109.5 -29.5l-27 -84q-184 47 -262 47 q-82 0 -133 -36t-51 -103q0 -66 38 -104t128 -74l96 -45q96 -44 126 -64q97 -66 97 -178q0 -118 -100 -196t-242 -78q-129 0 -258 45z" />
<glyph unicode="t" horiz-adv-x="675" d="M41 846v55l166 21l2 147l100 21l-2 -168h318l-21 -76h-297l-8 -631q-1 -72 39 -106.5t104 -34.5q96 0 193 26l14 -69q-45 -23 -113.5 -36t-113.5 -13q-95 0 -159.5 57.5t-63.5 155.5l8 651h-166z" />
<glyph unicode="u" horiz-adv-x="1005" d="M156 248v672l100 20v-643q0 -100 55.5 -162.5t149.5 -62.5q90 0 266 80v768l100 20v-938l-69 -20l-27 108q-70 -40 -157.5 -74t-143.5 -34q-127 0 -200.5 74.5t-73.5 191.5z" />
<glyph unicode="v" horiz-adv-x="866" d="M27 913l100 21l311 -825l295 813h109l-359 -922h-110z" />
<glyph unicode="w" horiz-adv-x="1390" d="M72 913l102 21l211 -819l262 798l86 21l281 -819l211 807h94l-254 -922h-113l-266 770l-252 -770h-121z" />
<glyph unicode="x" horiz-adv-x="890" d="M47 0l352 463l-317 450l104 21l277 -393v2l248 379h116l-319 -445l336 -477h-119l-283 401l-278 -401h-117z" />
<glyph unicode="y" horiz-adv-x="866" d="M-23 -365q14 -1 27 -1q28 0 56 4q41 6 91.5 29.5t96 63t92 108.5t82.5 161h-29l-340 909l99 25l305 -834q40 122 161.5 446.5t137.5 375.5h100q-5 -14 -346 -926q-92 -228 -222.5 -342.5t-287.5 -114.5h-6v-4q0 1 -2 2l2 2z" />
<glyph unicode="z" horiz-adv-x="831" d="M88 0v74l510 766l-498 -9l11 91h614v-66l-522 -774l551 8l-11 -90h-655z" />
<glyph unicode="{" horiz-adv-x="636" d="M106 532v56q79 30 116.5 63t37.5 84q0 47 -11 156t-11 209q0 132 65.5 199t222.5 67v-88q-78 0 -135 -36t-57 -103q0 -75 15.5 -206t15.5 -188q0 -69 -40.5 -119.5t-99.5 -66.5q59 -16 99.5 -66.5t40.5 -119.5q0 -57 -15.5 -188t-15.5 -205q0 -67 57 -103.5t135 -36.5 v-88q-157 0 -222.5 67t-65.5 199q0 100 11 210t11 157q0 51 -37.5 84t-116.5 63z" />
<glyph unicode="|" horiz-adv-x="483" d="M197 -451v1870h92v-1870h-92z" />
<glyph unicode="}" horiz-adv-x="636" d="M111 -158q78 0 135 36.5t57 103.5q0 75 -15.5 205.5t-15.5 187.5q0 69 40.5 119.5t99.5 66.5q-58 16 -99 67t-41 120q0 56 15.5 187t15.5 206q0 67 -57 103t-135 36v88q157 0 222.5 -67t65.5 -199q0 -100 -11 -210t-11 -157q0 -51 37 -84t116 -63v-56q-79 -30 -116 -63 t-37 -84q0 -47 11 -156t11 -209q0 -132 -65.5 -199t-222.5 -67v88z" />
<glyph unicode="&#xa1;" horiz-adv-x="610" d="M205 809q0 36 36.5 75.5t61.5 39.5q28 0 66.5 -36.5t38.5 -68.5q0 -30 -37 -69t-64 -39q-25 0 -63.5 35t-38.5 63zM248 -401q28 493 28 962l80 39q-2 -234 9.5 -505t33.5 -433z" />
<glyph unicode="&#xa2;" d="M184 610q0 196 94.5 329.5t249.5 158.5l-18 254h108l-20 -248q81 0 145 -10t88 -25l-18 -82q-7 2 -45.5 12.5t-57.5 15t-55.5 10.5t-70.5 7q-132 -3 -213.5 -104.5t-81.5 -296.5q0 -199 82.5 -301.5t226.5 -102.5q120 0 242 45l22 -61q-40 -22 -118 -42.5t-148 -23.5 l27 -258h-109l12 260q-169 17 -255.5 140.5t-86.5 322.5z" />
<glyph unicode="&#xa3;" d="M82 96q82 25 130.5 49.5t78 58.5t39.5 74.5t10 104.5q0 47 -27 186h-188v27l47 61l100 -2h25q-23 138 -23 228q0 173 106.5 281t283.5 108q159 0 239 -47l-35 -111q-63 28 -131.5 47t-111.5 19q-128 0 -185 -61.5t-57 -211.5q0 -90 27 -252h397l-21 -86h-362 q16 -122 16 -161q0 -203 -147 -322l674 10l-25 -96h-805h-2z" />
<glyph unicode="&#xa7;" horiz-adv-x="1001" d="M111 637q0 101 89 173t232 108l-31 12q-98 40 -153 95t-55 142q0 108 96 181t274 73q136 0 230 -32l-31 -86q-172 59 -260 59q-105 0 -157 -43t-50 -117q0 -69 47 -117.5t147 -89.5l72 -32q192 -85 261 -149.5t69 -168.5q0 -99 -89.5 -170.5t-232.5 -107.5l31 -13 q98 -40 153.5 -96t55.5 -141q0 -108 -96 -181t-275 -73q-122 0 -258 39l31 88q198 -68 289 -68q105 0 156 43t51 117q0 68 -47 116t-148 91l-72 33q-192 85 -260.5 149t-68.5 166zM217 659q0 -82 61 -141t222 -123q130 38 207 96t77 134q0 82 -61 141t-221 123 q-129 -37 -207 -96.5t-78 -133.5z" />
<glyph unicode="&#xa8;" horiz-adv-x="747" d="M125 1235q0 24 27 51t45 27q17 0 48 -20t31 -40q0 -22 -27.5 -49.5t-43.5 -27.5q-19 0 -49.5 20.5t-30.5 38.5zM471 1235q0 23 27.5 50.5t44.5 27.5t48.5 -20t31.5 -40q0 -22 -27 -49.5t-45 -27.5q-17 0 -48.5 21t-31.5 38z" />
<glyph unicode="&#xa9;" horiz-adv-x="1126" d="M61 483q0 114 41 209.5t110.5 158.5t160 97.5t190.5 34.5q229 0 365.5 -142t136.5 -358q0 -151 -70.5 -267t-183.5 -175t-248 -59q-228 0 -365 142t-137 359zM143 481q0 -192 118 -309t298 -117q194 0 308 119.5t114 306.5q0 195 -119 310.5t-303 115.5 q-189 0 -302.5 -122.5t-113.5 -303.5zM279 485q0 143 81.5 230.5t223.5 87.5q20 0 38.5 -1.5t36 -5t28 -6t26.5 -7t20 -5.5l-14 -63q-123 30 -191 30q-33 0 -60.5 -10t-56 -35t-44.5 -77.5t-15 -128.5q0 -67 18 -116.5t49 -76t65 -39t73 -12.5q66 0 180 35l15 -62 q-109 -37 -215 -37q-122 0 -190 79.5t-68 219.5z" />
<glyph unicode="&#xaa;" horiz-adv-x="475" d="M45 827q0 66 75.5 107t205.5 41v57q0 94 -107 94q-41 0 -149 -30l-21 53q112 41 201 41q147 0 147 -143v-324l-61 -18l-6 47q-26 -15 -72.5 -31t-83.5 -16q-55 0 -92 30.5t-37 91.5zM119 852q0 -40 24.5 -62t59.5 -22q41 0 121 33l2 -10v157l-2 -26q-4 -1 -15 0t-31 2.5 t-40 1.5q-47 0 -83 -16.5t-36 -57.5z" />
<glyph unicode="&#xab;" horiz-adv-x="1069" d="M141 475l375 383l41 -61l-281 -322l281 -321l-41 -62zM510 475l375 383l43 -61l-281 -322l281 -321l-43 -62z" />
<glyph unicode="&#xad;" horiz-adv-x="622" d="M102 455v20l25 70h393v-21l-31 -69h-387z" />
<glyph unicode="&#xae;" horiz-adv-x="1126" d="M61 1051q0 152 70.5 268t183.5 174.5t248 58.5q153 0 268 -66.5t174.5 -179.5t59.5 -255q0 -150 -70.5 -266.5t-184 -176t-247.5 -59.5q-228 0 -365 143t-137 359zM143 1049q0 -190 118 -307t298 -117q194 0 308 119t114 305q0 196 -119 312t-303 116q-126 0 -222 -58 t-145 -154.5t-49 -215.5zM399 766v598h168q85 0 136 -38t51 -118q0 -106 -119 -153l172 -289h-80l-147 272q-32 -4 -48 -4q-40 0 -67 2v-270h-66zM465 1087q29 -2 84 -2q71 0 105 25t34 86q0 62 -30.5 88.5t-100.5 26.5h-92v-224z" />
<glyph unicode="&#xaf;" horiz-adv-x="833" d="M164 1165v31l26 47h480v-31l-27 -47h-479z" />
<glyph unicode="&#xb2;" horiz-adv-x="542" d="M63 799v59q25 26 79.5 78t87.5 86t71.5 78t57 81t18.5 68q0 56 -38.5 87.5t-96.5 31.5q-65 0 -150 -37l-24 60q82 47 208 47q79 0 136 -49.5t57 -122.5q0 -74 -75 -167.5t-238 -234.5l323 6l-14 -71h-402z" />
<glyph unicode="&#xb3;" horiz-adv-x="542" d="M61 811l19 61q78 -22 170 -22q139 0 139 117q0 66 -47 99.5t-123 33.5q-21 0 -45 -4l-18 55q111 0 164 30.5t51 84.5q1 47 -37 76.5t-88 29.5q-57 0 -148 -37l-22 64q115 39 186 39q73 0 131 -37.5t58 -110.5q0 -53 -36.5 -93t-95.5 -60q71 -12 109.5 -50.5t38.5 -99.5 q0 -50 -23.5 -90t-61 -63t-80 -35.5t-85.5 -12.5q-59 0 -156 25z" />
<glyph unicode="&#xb4;" horiz-adv-x="688" d="M158 1057l264 272l108 -22l-292 -250h-80z" />
<glyph unicode="&#xb6;" horiz-adv-x="1099" d="M51 862q0 170 109.5 280.5t312.5 110.5h408v-1208q0 -153 -98.5 -238.5t-266.5 -85.5q-62 0 -117 19l19 92q184 -54 273 -15.5t89 152.5v1225h-174v-717h-139q-101 0 -181 30.5t-131 83t-77.5 122t-26.5 149.5z" />
<glyph unicode="&#xb8;" horiz-adv-x="585" d="M143 -393q108 14 158.5 35t50.5 67q0 32 -36.5 55t-122.5 48l-7 10l82 178h80l-55 -115q10 -5 36 -18.5t34 -18t26.5 -15.5t24.5 -18.5t15 -20t12 -26t3 -30.5q0 -69 -71.5 -125t-212.5 -74z" />
<glyph unicode="&#xb9;" horiz-adv-x="405" d="M35 1362q53 12 194 63h56v-626h-74v561l-156 -64z" />
<glyph unicode="&#xba;" horiz-adv-x="548" d="M49 938q0 117 71 184.5t183 67.5q100 0 156.5 -63t56.5 -171q0 -115 -73.5 -183t-182.5 -68q-98 0 -154.5 62.5t-56.5 170.5zM125 961q0 -107 43.5 -150t124.5 -43q76 0 108.5 37t32.5 131q0 107 -42 150.5t-122 43.5q-75 0 -110 -38.5t-35 -130.5z" />
<glyph unicode="&#xbb;" horiz-adv-x="1069" d="M141 156l283 319l-283 322l43 61l375 -383l-375 -383zM512 156l281 319l-281 322l43 61l373 -383l-373 -383z" />
<glyph unicode="&#xbf;" horiz-adv-x="724" d="M39 -55q0 47 13.5 87t44.5 79t61.5 67.5t83.5 73.5q51 41 71.5 59t37 40.5t16.5 43.5q0 26 -27 82.5t-59 97.5l73 39q57 -62 74 -92q23 -44 23 -92q0 -58 -30 -96.5t-118 -112.5q-86 -72 -117.5 -123.5t-31.5 -128.5q0 -106 71.5 -170.5t180.5 -64.5q36 0 85 22t130 72 l36 -84q-75 -40 -147 -63t-166 -23q-129 0 -217 80.5t-88 206.5zM270 825q0 25 36 59t56 34q25 0 60 -31.5t35 -57.5q0 -25 -36 -59.5t-61 -34.5q-20 0 -55 32.5t-35 57.5z" />
<glyph unicode="&#xc0;" horiz-adv-x="1118" d="M37 0l473 1253h90l481 -1253h-120l-166 449h-482l-157 -449h-119zM315 1614l109 22l264 -272h-80zM348 543h412l-211 567z" />
<glyph unicode="&#xc1;" horiz-adv-x="1118" d="M37 0l473 1253h90l481 -1253h-120l-166 449h-482l-157 -449h-119zM348 543h412l-211 567zM473 1364l264 272l109 -22l-293 -250h-80z" />
<glyph unicode="&#xc2;" horiz-adv-x="1118" d="M37 0l473 1253h90l481 -1253h-120l-166 449h-482l-157 -449h-119zM270 1364l262 272h35l262 -272h-88l-190 168l-193 -168h-88zM348 543h412l-211 567z" />
<glyph unicode="&#xc3;" horiz-adv-x="1118" d="M37 0l473 1253h90l481 -1253h-120l-166 449h-482l-157 -449h-119zM238 1458q35 36 57.5 55.5t60.5 37.5t78 18q46 0 124 -29t104 -29q64 0 124 56l48 -51q-9 -8 -29 -27.5t-32 -29t-31.5 -22.5t-40.5 -18.5t-46 -5.5q-40 0 -128.5 34t-112.5 34q-53 0 -133 -64zM348 543 h412l-211 567z" />
<glyph unicode="&#xc4;" horiz-adv-x="1118" d="M37 0l473 1253h90l481 -1253h-120l-166 449h-482l-157 -449h-119zM315 1542q0 24 27 51t45 27q17 0 48.5 -19.5t31.5 -39.5q0 -22 -28 -50t-44 -28q-19 0 -49.5 20.5t-30.5 38.5zM348 543h412l-211 567zM662 1542q0 23 27 50.5t44 27.5t48.5 -19.5t31.5 -39.5 q0 -22 -27 -50t-45 -28q-17 0 -48 21t-31 38z" />
<glyph unicode="&#xc5;" horiz-adv-x="1118" d="M37 0l473 1253h90l481 -1253h-120l-166 449h-482l-157 -449h-119zM348 543h412l-211 567zM373 1511q0 71 54 120.5t124 49.5q71 0 122.5 -45t51.5 -125q0 -68 -53.5 -116.5t-122.5 -48.5q-72 0 -124 43.5t-52 121.5zM453 1511q0 -43 28.5 -69.5t67.5 -26.5t68.5 27 t29.5 69q0 45 -29.5 73t-68.5 28t-67.5 -28t-28.5 -73z" />
<glyph unicode="&#xc6;" horiz-adv-x="1626" d="M49 0l711 1253h739l-16 -98l-553 10v-467h508l-21 -94l-487 8v-518l602 10l-16 -104h-697v449h-401l-256 -449h-113zM471 543h348v587h-14z" />
<glyph unicode="&#xc7;" horiz-adv-x="1105" d="M109 604q0 195 70 346t203.5 236.5t311.5 85.5q81 0 186 -19t148 -43l-47 -96q-54 29 -157 48.5t-191 19.5q-56 0 -110 -15.5t-109.5 -54.5t-97 -98t-67.5 -153.5t-26 -213.5q0 -121 24.5 -217.5t68 -162t105 -109t132.5 -63t154 -19.5q160 0 319 78l23 -88 q-59 -33 -156.5 -58.5t-190.5 -25.5l-47 -97l36 -18t34.5 -18t26.5 -16t24.5 -18.5t15.5 -20t12 -26t3 -30.5q0 -69 -71.5 -125t-213.5 -74l-16 68q108 14 158.5 35t50.5 67q0 32 -36.5 55t-123.5 48l-6 10l76 164q-239 22 -377.5 182t-138.5 436z" />
<glyph unicode="&#xc8;" horiz-adv-x="1030" d="M219 0v1253h680l-16 -98l-553 10v-467h508l-21 -94l-487 8v-518l602 10l-17 -104h-696zM371 1614l108 22l264 -272h-79z" />
<glyph unicode="&#xc9;" horiz-adv-x="1030" d="M219 0v1253h680l-16 -98l-553 10v-467h508l-21 -94l-487 8v-518l602 10l-17 -104h-696zM422 1364l264 272l109 -22l-293 -250h-80z" />
<glyph unicode="&#xca;" horiz-adv-x="1030" d="M219 0v1253h680l-16 -98l-553 10v-467h508l-21 -94l-487 8v-518l602 10l-17 -104h-696zM295 1364l262 272h35l262 -272h-88l-191 168l-192 -168h-88z" />
<glyph unicode="&#xcb;" horiz-adv-x="1030" d="M219 0v1253h680l-16 -98l-553 10v-467h508l-21 -94l-487 8v-518l602 10l-17 -104h-696zM328 1542q0 24 26.5 51t44.5 27q17 0 48.5 -19.5t31.5 -39.5q0 -22 -27.5 -50t-43.5 -28q-19 0 -49.5 20.5t-30.5 38.5zM674 1542q0 23 27 50.5t44 27.5t48.5 -19.5t31.5 -39.5 q0 -22 -26.5 -50t-44.5 -28q-17 0 -48.5 21t-31.5 38z" />
<glyph unicode="&#xcc;" horiz-adv-x="548" d="M18 1614l109 22l264 -272h-80zM219 0v1253h111v-1253h-111z" />
<glyph unicode="&#xcd;" horiz-adv-x="548" d="M207 1364l264 272l109 -22l-293 -250h-80zM219 0v1253h111v-1253h-111z" />
<glyph unicode="&#xce;" horiz-adv-x="548" d="M-4 1364l262 272h35l262 -272h-88l-191 168l-192 -168h-88zM219 0v1253h111v-1253h-111z" />
<glyph unicode="&#xcf;" horiz-adv-x="548" d="M63 1534q0 22 28 50t44 28q18 0 49 -20.5t31 -39.5q0 -24 -27 -51.5t-45 -27.5q-17 0 -48.5 21t-31.5 40zM219 0v1253h111v-1253h-111zM338 1534q0 22 27 50t45 28q16 0 47.5 -21t31.5 -39q0 -23 -27 -51t-44 -28q-19 0 -49.5 21t-30.5 40z" />
<glyph unicode="&#xd0;" horiz-adv-x="1316" d="M88 608v90h141v555h383q273 0 434.5 -156.5t161.5 -414.5q0 -206 -86 -362.5t-238 -239t-347 -82.5q-71 0 -167.5 10t-140.5 19v581h-141zM340 104q135 -18 281 -18q69 0 134 18t126.5 61t107 107t73.5 162.5t28 220.5q0 239 -141.5 375.5t-381.5 136.5h-227v-469h389 l-20 -90h-369v-504z" />
<glyph unicode="&#xd1;" horiz-adv-x="1351" d="M219 0v1253h109l712 -1089v1089h93v-1253h-103l-719 1098v-1098h-92zM389 1458q35 36 58 56t61 37.5t78 17.5q46 0 123.5 -29t103.5 -29q65 0 125 56l47 -51q-9 -8 -29 -27.5t-32 -29t-31 -22.5t-40 -18.5t-46 -5.5q-40 0 -129 34t-113 34q-53 0 -133 -64z" />
<glyph unicode="&#xd2;" horiz-adv-x="1339" d="M109 602q0 156 45.5 283.5t125.5 211.5t189.5 129.5t237.5 45.5q110 0 204.5 -42t165.5 -119t111.5 -196t40.5 -264q0 -156 -45.5 -283.5t-126.5 -211.5t-191 -129t-239 -45q-109 0 -203 41.5t-164.5 118.5t-110.5 195.5t-40 264.5zM219 659q0 -158 36 -274t102 -183 t149 -98.5t186 -31.5q84 0 159.5 32.5t136 95t96.5 164.5t36 230q0 126 -24.5 226.5t-67.5 167.5t-104.5 111t-131 63.5t-151.5 19.5q-83 0 -158 -33t-134.5 -96.5t-94.5 -165t-35 -228.5zM477 1614l109 22l264 -272h-80z" />
<glyph unicode="&#xd3;" horiz-adv-x="1339" d="M109 602q0 156 45.5 283.5t125.5 211.5t189.5 129.5t237.5 45.5q110 0 204.5 -42t165.5 -119t111.5 -196t40.5 -264q0 -156 -45.5 -283.5t-126.5 -211.5t-191 -129t-239 -45q-109 0 -203 41.5t-164.5 118.5t-110.5 195.5t-40 264.5zM219 659q0 -158 36 -274t102 -183 t149 -98.5t186 -31.5q84 0 159.5 32.5t136 95t96.5 164.5t36 230q0 126 -24.5 226.5t-67.5 167.5t-104.5 111t-131 63.5t-151.5 19.5q-83 0 -158 -33t-134.5 -96.5t-94.5 -165t-35 -228.5zM481 1364l264 272l109 -22l-293 -250h-80z" />
<glyph unicode="&#xd4;" horiz-adv-x="1339" d="M109 602q0 156 45.5 283.5t125.5 211.5t189.5 129.5t237.5 45.5q110 0 204.5 -42t165.5 -119t111.5 -196t40.5 -264q0 -156 -45.5 -283.5t-126.5 -211.5t-191 -129t-239 -45q-109 0 -203 41.5t-164.5 118.5t-110.5 195.5t-40 264.5zM219 659q0 -158 36 -274t102 -183 t149 -98.5t186 -31.5q84 0 159.5 32.5t136 95t96.5 164.5t36 230q0 126 -24.5 226.5t-67.5 167.5t-104.5 111t-131 63.5t-151.5 19.5q-83 0 -158 -33t-134.5 -96.5t-94.5 -165t-35 -228.5zM371 1364l262 272h35l262 -272h-88l-191 168l-192 -168h-88z" />
<glyph unicode="&#xd5;" horiz-adv-x="1339" d="M109 602q0 156 45.5 283.5t125.5 211.5t189.5 129.5t237.5 45.5q110 0 204.5 -42t165.5 -119t111.5 -196t40.5 -264q0 -156 -45.5 -283.5t-126.5 -211.5t-191 -129t-239 -45q-109 0 -203 41.5t-164.5 118.5t-110.5 195.5t-40 264.5zM219 659q0 -158 36 -274t102 -183 t149 -98.5t186 -31.5q84 0 159.5 32.5t136 95t96.5 164.5t36 230q0 126 -24.5 226.5t-67.5 167.5t-104.5 111t-131 63.5t-151.5 19.5q-83 0 -158 -33t-134.5 -96.5t-94.5 -165t-35 -228.5zM371 1458q35 36 57.5 55.5t60.5 37.5t78 18q46 0 124 -29t104 -29q65 0 125 56 l47 -51q-9 -8 -29 -27.5t-32 -29t-31.5 -22.5t-40.5 -18.5t-46 -5.5q-40 0 -128.5 34t-112.5 34q-53 0 -133 -64z" />
<glyph unicode="&#xd6;" horiz-adv-x="1339" d="M109 602q0 156 45.5 283.5t125.5 211.5t189.5 129.5t237.5 45.5q110 0 204.5 -42t165.5 -119t111.5 -196t40.5 -264q0 -156 -45.5 -283.5t-126.5 -211.5t-191 -129t-239 -45q-109 0 -203 41.5t-164.5 118.5t-110.5 195.5t-40 264.5zM219 659q0 -158 36 -274t102 -183 t149 -98.5t186 -31.5q84 0 159.5 32.5t136 95t96.5 164.5t36 230q0 126 -24.5 226.5t-67.5 167.5t-104.5 111t-131 63.5t-151.5 19.5q-83 0 -158 -33t-134.5 -96.5t-94.5 -165t-35 -228.5zM408 1542q0 24 26.5 51t44.5 27q17 0 48.5 -19.5t31.5 -39.5q0 -22 -28 -50t-44 -28 q-19 0 -49 20.5t-30 38.5zM754 1542q0 23 27 50.5t44 27.5t48.5 -19.5t31.5 -39.5q0 -22 -26.5 -50t-44.5 -28q-17 0 -48.5 21t-31.5 38z" />
<glyph unicode="&#xd7;" d="M197 276l268 269l-268 268l61 57l266 -266l267 266l61 -57l-268 -268l268 -269l-59 -59l-269 268l-268 -268z" />
<glyph unicode="&#xd8;" horiz-adv-x="1339" d="M109 602q0 156 45.5 283.5t125.5 211.5t189.5 129.5t237.5 45.5q93 0 178 -31l80 178h84l-95 -211q127 -71 201 -214.5t74 -342.5q0 -156 -45.5 -283.5t-126.5 -211.5t-191 -129t-239 -45q-115 0 -205 43l-88 -195h-84l104 231q-114 75 -179.5 213.5t-65.5 327.5z M219 659q0 -354 180 -497l443 983q-90 37 -201 37q-83 0 -158 -33t-134.5 -96.5t-94.5 -165t-35 -228.5zM465 121q95 -49 227 -49q84 0 159.5 32.5t136 95t96.5 164.5t36 230q0 376 -211 516z" />
<glyph unicode="&#xd9;" horiz-adv-x="1310" d="M207 395v858h110v-788q0 -209 96 -299t267 -90q154 0 239 84t85 254v839h100v-790q0 -235 -119 -357.5t-350 -123.5q-90 -1 -166 23t-135.5 73t-93 130t-33.5 187zM459 1614l108 22l264 -272h-79z" />
<glyph unicode="&#xda;" horiz-adv-x="1310" d="M207 395v858h110v-788q0 -209 96 -299t267 -90q154 0 239 84t85 254v839h100v-790q0 -235 -119 -357.5t-350 -123.5q-90 -1 -166 23t-135.5 73t-93 130t-33.5 187zM500 1364l264 272l108 -22l-292 -250h-80z" />
<glyph unicode="&#xdb;" horiz-adv-x="1310" d="M207 395v858h110v-788q0 -209 96 -299t267 -90q154 0 239 84t85 254v839h100v-790q0 -235 -119 -357.5t-350 -123.5q-90 -1 -166 23t-135.5 73t-93 130t-33.5 187zM369 1364l262 272h35l262 -272h-88l-191 168l-192 -168h-88z" />
<glyph unicode="&#xdc;" horiz-adv-x="1310" d="M207 395v858h110v-788q0 -209 96 -299t267 -90q154 0 239 84t85 254v839h100v-790q0 -235 -119 -357.5t-350 -123.5q-90 -1 -166 23t-135.5 73t-93 130t-33.5 187zM403 1542q0 24 27 51t45 27q17 0 48.5 -19.5t31.5 -39.5q0 -22 -28 -50t-44 -28q-19 0 -49.5 20.5 t-30.5 38.5zM750 1542q0 23 27 50.5t44 27.5t48.5 -19.5t31.5 -39.5q0 -22 -27 -50t-45 -28q-17 0 -48 21t-31 38z" />
<glyph unicode="&#xdd;" horiz-adv-x="1050" d="M23 1253h133l391 -630l356 630h115l-424 -729v-524h-113v524zM397 1364l265 272l108 -22l-293 -250h-80z" />
<glyph unicode="&#xde;" horiz-adv-x="1007" d="M219 0v1253h111v-237h209q199 0 308 -88.5t109 -245.5q0 -99 -40.5 -178t-109.5 -128.5t-157.5 -75.5t-189.5 -26q-27 0 -129 5v-279h-111zM330 371q173 -11 200 -11q144 0 227 69t83 212q0 138 -88.5 212.5t-251.5 74.5h-170v-557z" />
<glyph unicode="&#xdf;" horiz-adv-x="1069" d="M178 0v961q0 112 32 202.5t86.5 148t124 88t146.5 30.5q126 0 203.5 -70.5t77.5 -179.5q0 -56 -27.5 -109t-67 -94t-79 -80t-67 -80.5t-27.5 -79.5q0 -18 2.5 -32t11 -27t14.5 -20.5t24.5 -20.5t28 -19t38.5 -23t44 -26l76 -49q72 -44 116 -114t44 -140 q0 -130 -90.5 -208t-259.5 -78q-42 0 -77 4t-78.5 13t-53.5 11l26 101q21 -6 60.5 -19t62 -19t61.5 -12t81 -6q71 0 127.5 37t56.5 109q0 81 -37.5 137.5t-136.5 120.5l-78 47q-81 53 -116 101.5t-35 117.5q0 47 19.5 89t49 71.5t63.5 61.5t63.5 59t49 64t19.5 77 q0 100 -66.5 158.5t-173.5 58.5q-104 0 -172 -84t-68 -240v-1038h-98z" />
<glyph unicode="&#xe0;" horiz-adv-x="874" d="M96 209q0 132 133.5 212.5t395.5 76.5v127q0 107 -53.5 169t-147.5 62q-97 0 -274 -61l-29 67q106 42 176 60t162 18q118 0 189 -72.5t71 -210.5v-655l-70 -20l-24 106v10q-191 -116 -275 -116q-109 0 -181.5 63t-72.5 164zM190 240q0 -58 30 -98.5t68 -56t77 -15.5 q53 0 112 22t148 66v248l-57 3q-58 3 -117 3q-111 0 -186 -45.5t-75 -126.5zM289 1307l108 22l265 -272h-80z" />
<glyph unicode="&#xe1;" horiz-adv-x="874" d="M96 209q0 132 133.5 212.5t395.5 76.5v127q0 107 -53.5 169t-147.5 62q-97 0 -274 -61l-29 67q106 42 176 60t162 18q118 0 189 -72.5t71 -210.5v-655l-70 -20l-24 106v10q-191 -116 -275 -116q-109 0 -181.5 63t-72.5 164zM190 240q0 -58 30 -98.5t68 -56t77 -15.5 q53 0 112 22t148 66v248l-57 3q-58 3 -117 3q-111 0 -186 -45.5t-75 -126.5zM338 1057l264 272l109 -22l-293 -250h-80z" />
<glyph unicode="&#xe2;" horiz-adv-x="874" d="M96 209q0 132 133.5 212.5t395.5 76.5v127q0 107 -53.5 169t-147.5 62q-97 0 -274 -61l-29 67q106 42 176 60t162 18q118 0 189 -72.5t71 -210.5v-655l-70 -20l-24 106v10q-191 -116 -275 -116q-109 0 -181.5 63t-72.5 164zM162 1057l262 272h35l262 -272h-88l-191 168 l-192 -168h-88zM190 240q0 -58 30 -98.5t68 -56t77 -15.5q53 0 112 22t148 66v248l-57 3q-58 3 -117 3q-111 0 -186 -45.5t-75 -126.5z" />
<glyph unicode="&#xe3;" horiz-adv-x="874" d="M96 209q0 132 133.5 212.5t395.5 76.5v127q0 107 -53.5 169t-147.5 62q-97 0 -274 -61l-29 67q106 42 176 60t162 18q118 0 189 -72.5t71 -210.5v-655l-70 -20l-24 106v10q-191 -116 -275 -116q-109 0 -181.5 63t-72.5 164zM115 1151q35 36 57.5 55.5t60.5 37.5t78 18 q46 0 124 -29t104 -29q65 0 125 56l47 -52q-8 -7 -29 -27t-32.5 -29t-31 -22t-40.5 -18.5t-46 -5.5q-40 0 -128.5 34t-112.5 34q-53 0 -133 -64zM190 240q0 -58 30 -98.5t68 -56t77 -15.5q53 0 112 22t148 66v248l-57 3q-58 3 -117 3q-111 0 -186 -45.5t-75 -126.5z" />
<glyph unicode="&#xe4;" horiz-adv-x="874" d="M96 209q0 132 133.5 212.5t395.5 76.5v127q0 107 -53.5 169t-147.5 62q-97 0 -274 -61l-29 67q106 42 176 60t162 18q118 0 189 -72.5t71 -210.5v-655l-70 -20l-24 106v10q-191 -116 -275 -116q-109 0 -181.5 63t-72.5 164zM156 1235q0 24 26.5 51t44.5 27q17 0 48.5 -20 t31.5 -40q0 -22 -27.5 -49.5t-43.5 -27.5q-19 0 -49.5 20.5t-30.5 38.5zM190 240q0 -58 30 -98.5t68 -56t77 -15.5q53 0 112 22t148 66v248l-57 3q-58 3 -117 3q-111 0 -186 -45.5t-75 -126.5zM502 1235q0 23 27 50.5t44 27.5t48.5 -20t31.5 -40q0 -22 -26.5 -49.5 t-44.5 -27.5q-17 0 -48.5 21t-31.5 38z" />
<glyph unicode="&#xe5;" horiz-adv-x="874" d="M96 209q0 132 133.5 212.5t395.5 76.5v127q0 107 -53.5 169t-147.5 62q-97 0 -274 -61l-29 67q106 42 176 60t162 18q118 0 189 -72.5t71 -210.5v-655l-70 -20l-24 106v10q-191 -116 -275 -116q-109 0 -181.5 63t-72.5 164zM190 240q0 -58 30 -98.5t68 -56t77 -15.5 q53 0 112 22t148 66v248l-57 3q-58 3 -117 3q-111 0 -186 -45.5t-75 -126.5zM227 1204q0 71 54 120.5t125 49.5t122.5 -45t51.5 -125q0 -68 -54 -117t-123 -49q-72 0 -124 44t-52 122zM307 1204q0 -43 28.5 -69.5t67.5 -26.5t69 27t30 69q0 45 -30 73t-69 28t-67.5 -28 t-28.5 -73z" />
<glyph unicode="&#xe6;" horiz-adv-x="1404" d="M96 209q0 129 129 209t387 80q3 35 9 65l-3 2v84q0 60 -20 104t-52.5 66t-65.5 31.5t-68 9.5q-22 0 -47 -3.5t-59.5 -12t-52 -13t-60.5 -18t-48 -14.5l-24 63q106 42 176 60t162 18q98 0 156.5 -41.5t74.5 -138.5q54 90 135.5 135t178.5 45q141 0 227 -86.5t86 -251.5 q0 -15 1 -35.5t1 -32t-2 -18.5h-610q-2 -25 -2 -82q0 -86 17.5 -151.5t47 -106t72.5 -66t90 -35t104 -9.5q118 0 262 51l21 -70q-185 -65 -336 -65q-204 0 -303 145q-84 -58 -186.5 -101.5t-149.5 -43.5q-105 0 -176.5 63t-71.5 164zM190 240q0 -58 30 -98.5t68 -56 t77 -15.5q103 0 286 110q-43 90 -43 226q-87 6 -157 6q-111 0 -186 -45.5t-75 -126.5zM715 592h502q0 138 -60 205t-190 67q-108 0 -170 -63.5t-82 -208.5z" />
<glyph unicode="&#xe7;" horiz-adv-x="827" d="M104 446q0 217 115 355.5t297 138.5q81 0 146.5 -10t89.5 -25l-19 -82q-7 2 -45.5 12.5t-57.5 15t-55.5 10.5t-70.5 7q-132 -3 -213.5 -104.5t-81.5 -296.5q0 -199 82.5 -301.5t226.5 -102.5q117 0 242 46l22 -62q-39 -21 -110.5 -40t-139.5 -23l-47 -99l36 -18t34.5 -18 t26.5 -16t24.5 -18.5t15.5 -20t12 -26t3 -30.5q0 -69 -71.5 -125t-213.5 -74l-16 68q108 14 158.5 35t50.5 67q0 32 -36.5 55t-123.5 48l-6 10l74 162q-170 13 -259.5 137t-89.5 325z" />
<glyph unicode="&#xe8;" horiz-adv-x="903" d="M104 440q0 237 112 368.5t284 131.5q137 0 227 -84.5t90 -232.5v-107h-614q-2 -18 -2 -59q0 -104 28.5 -182t78 -122.5t108.5 -65.5t127 -21q138 0 256 51l20 -70q-163 -65 -297 -65q-189 0 -303.5 117t-114.5 341zM209 592h504q0 272 -238 272q-119 0 -183.5 -61.5 t-82.5 -210.5zM373 1307l108 22l264 -272h-79z" />
<glyph unicode="&#xe9;" horiz-adv-x="903" d="M104 440q0 237 112 368.5t284 131.5q137 0 227 -84.5t90 -232.5v-107h-614q-2 -18 -2 -59q0 -104 28.5 -182t78 -122.5t108.5 -65.5t127 -21q138 0 256 51l20 -70q-163 -65 -297 -65q-189 0 -303.5 117t-114.5 341zM209 592h504q0 272 -238 272q-119 0 -183.5 -61.5 t-82.5 -210.5zM383 1057l264 272l109 -22l-293 -250h-80z" />
<glyph unicode="&#xea;" horiz-adv-x="903" d="M104 440q0 237 112 368.5t284 131.5q137 0 227 -84.5t90 -232.5v-107h-614q-2 -18 -2 -59q0 -104 28.5 -182t78 -122.5t108.5 -65.5t127 -21q138 0 256 51l20 -70q-163 -65 -297 -65q-189 0 -303.5 117t-114.5 341zM209 592h504q0 272 -238 272q-119 0 -183.5 -61.5 t-82.5 -210.5zM219 1057l262 272h35l262 -272h-88l-190 168l-193 -168h-88z" />
<glyph unicode="&#xeb;" horiz-adv-x="903" d="M104 440q0 237 112 368.5t284 131.5q137 0 227 -84.5t90 -232.5v-107h-614q-2 -18 -2 -59q0 -104 28.5 -182t78 -122.5t108.5 -65.5t127 -21q138 0 256 51l20 -70q-163 -65 -297 -65q-189 0 -303.5 117t-114.5 341zM209 592h504q0 272 -238 272q-119 0 -183.5 -61.5 t-82.5 -210.5zM266 1235q0 24 27 51t45 27q17 0 48.5 -20t31.5 -40q0 -22 -28 -49.5t-44 -27.5q-19 0 -49.5 20.5t-30.5 38.5zM612 1235q0 23 27.5 50.5t44.5 27.5t48.5 -20t31.5 -40q0 -22 -27 -49.5t-45 -27.5q-17 0 -48.5 21t-31.5 38z" />
<glyph unicode="&#xec;" horiz-adv-x="454" d="M37 1307l108 22l265 -272h-80zM176 0v918l98 20v-938h-98z" />
<glyph unicode="&#xed;" horiz-adv-x="454" d="M158 1057l264 272l108 -22l-292 -250h-80zM180 0v918l99 20v-938h-99z" />
<glyph unicode="&#xee;" horiz-adv-x="454" d="M-53 1057l262 272h35l262 -272h-88l-191 168l-192 -168h-88zM180 0v918l99 20v-938h-99z" />
<glyph unicode="&#xef;" horiz-adv-x="454" d="M25 1221q0 22 26.5 49.5t42.5 27.5q18 0 50 -20.5t32 -38.5q0 -22 -28 -51t-44 -29q-19 0 -49 22t-30 40zM182 0v918l99 20v-938h-99zM291 1221q0 22 26.5 49.5t44.5 27.5q17 0 48.5 -20.5t31.5 -38.5q0 -22 -27.5 -51t-43.5 -29q-19 0 -49.5 22t-30.5 40z" />
<glyph unicode="&#xf0;" horiz-adv-x="985" d="M104 422q0 126 38 227.5t100 163.5t136 94.5t152 32.5q106 0 191 -53q-77 167 -229 301l-254 -135l-41 59l235 125q-102 75 -242 145l56 50q153 -66 272 -150l273 143l40 -57l-251 -135q164 -137 240.5 -319t76.5 -420q0 -75 -15.5 -147t-50.5 -138.5t-84.5 -116.5 t-123.5 -80t-162 -30q-159 0 -258 116t-99 324zM199 471q0 -204 87.5 -303.5t227.5 -99.5q68 0 119 19.5t90.5 64.5t61 124.5t22.5 192.5q-3 184 -51 326v-9q-103 64 -279 64q-134 0 -206 -97t-72 -282z" />
<glyph unicode="&#xf1;" horiz-adv-x="1005" d="M178 0v920l74 20l22 -109q70 41 157.5 75t143.5 34q127 0 200 -74.5t73 -191.5v-674h-98v625q0 100 -53.5 160.5t-147.5 60.5q-97 0 -273 -78v-768h-98zM221 1151q35 36 58 56t61 37.5t78 17.5q46 0 123.5 -29t103.5 -29q65 0 125 56l47 -52q-9 -8 -29 -27.5t-32 -29 t-31 -22t-40 -18t-46 -5.5q-40 0 -129 34t-113 34q-53 0 -133 -64z" />
<glyph unicode="&#xf2;" horiz-adv-x="995" d="M90 442q0 235 121.5 366.5t329.5 131.5q168 0 266 -125.5t98 -335.5q0 -234 -119.5 -366.5t-320.5 -135.5q-168 3 -271.5 130t-103.5 335zM188 485q0 -210 87 -313.5t243 -103.5q141 0 215 99.5t74 268.5q0 210 -88 314t-244 104q-140 0 -213.5 -99t-73.5 -270zM385 1307 l109 22l264 -272h-80z" />
<glyph unicode="&#xf3;" horiz-adv-x="995" d="M90 442q0 235 121.5 366.5t329.5 131.5q168 0 266 -125.5t98 -335.5q0 -234 -119.5 -366.5t-320.5 -135.5q-168 3 -271.5 130t-103.5 335zM188 485q0 -210 87 -313.5t243 -103.5q141 0 215 99.5t74 268.5q0 210 -88 314t-244 104q-140 0 -213.5 -99t-73.5 -270zM395 1057 l264 272l109 -22l-293 -250h-80z" />
<glyph unicode="&#xf4;" horiz-adv-x="995" d="M90 442q0 235 121.5 366.5t329.5 131.5q168 0 266 -125.5t98 -335.5q0 -234 -119.5 -366.5t-320.5 -135.5q-168 3 -271.5 130t-103.5 335zM188 485q0 -210 87 -313.5t243 -103.5q141 0 215 99.5t74 268.5q0 210 -88 314t-244 104q-140 0 -213.5 -99t-73.5 -270zM223 1057 l262 272h35l262 -272h-88l-190 168l-193 -168h-88z" />
<glyph unicode="&#xf5;" horiz-adv-x="995" d="M90 442q0 235 121.5 366.5t329.5 131.5q168 0 266 -125.5t98 -335.5q0 -234 -119.5 -366.5t-320.5 -135.5q-168 3 -271.5 130t-103.5 335zM188 485q0 -210 87 -313.5t243 -103.5q141 0 215 99.5t74 268.5q0 210 -88 314t-244 104q-140 0 -213.5 -99t-73.5 -270zM199 1151 q35 36 57.5 55.5t60.5 37.5t78 18q46 0 124 -29t104 -29q65 0 125 56l47 -52q-8 -7 -29 -27t-32.5 -29t-31 -22t-40.5 -18.5t-46 -5.5q-40 0 -128.5 34t-112.5 34q-53 0 -133 -64z" />
<glyph unicode="&#xf6;" horiz-adv-x="995" d="M90 442q0 235 121.5 366.5t329.5 131.5q168 0 266 -125.5t98 -335.5q0 -234 -119.5 -366.5t-320.5 -135.5q-168 3 -271.5 130t-103.5 335zM188 485q0 -210 87 -313.5t243 -103.5q141 0 215 99.5t74 268.5q0 210 -88 314t-244 104q-140 0 -213.5 -99t-73.5 -270zM258 1235 q0 24 27 51t45 27q17 0 48.5 -20t31.5 -40q0 -22 -28 -49.5t-44 -27.5q-19 0 -49.5 20.5t-30.5 38.5zM604 1235q0 23 27.5 50.5t44.5 27.5t48.5 -20t31.5 -40q0 -22 -27 -49.5t-45 -27.5q-17 0 -48.5 21t-31.5 38z" />
<glyph unicode="&#xf7;" d="M84 496v88h872v-88h-872zM422 215q0 24 37 63t59 39q24 0 66.5 -31.5t42.5 -56.5q0 -26 -37.5 -64t-61.5 -38q-21 0 -63.5 32t-42.5 56zM422 846q0 26 37 65t59 39q31 0 70 -31.5t39 -58.5q0 -24 -37.5 -62t-61.5 -38t-65 31.5t-41 54.5z" />
<glyph unicode="&#xf8;" horiz-adv-x="995" d="M90 442q0 235 121.5 366.5t329.5 131.5q68 0 129 -22l69 153h86l-86 -190q80 -57 123 -161t43 -241q0 -234 -119.5 -366.5t-320.5 -135.5q-60 0 -121 23l-65 -145h-86l81 180q-87 58 -135.5 163t-48.5 244zM188 485q0 -255 129 -354l310 690q-62 33 -152 33 q-140 0 -213.5 -99t-73.5 -270zM385 90q61 -22 133 -22q141 0 215 99.5t74 268.5q0 235 -113 342z" />
<glyph unicode="&#xf9;" horiz-adv-x="1005" d="M156 248v672l100 20v-643q0 -100 55.5 -162.5t149.5 -62.5q90 0 266 80v768l100 20v-938l-69 -20l-27 108q-70 -40 -157.5 -74t-143.5 -34q-127 0 -200.5 74.5t-73.5 191.5zM328 1307l108 22l264 -272h-79z" />
<glyph unicode="&#xfa;" horiz-adv-x="1005" d="M156 248v672l100 20v-643q0 -100 55.5 -162.5t149.5 -62.5q90 0 266 80v768l100 20v-938l-69 -20l-27 108q-70 -40 -157.5 -74t-143.5 -34q-127 0 -200.5 74.5t-73.5 191.5zM397 1057l265 272l108 -22l-293 -250h-80z" />
<glyph unicode="&#xfb;" horiz-adv-x="1005" d="M156 248v672l100 20v-643q0 -100 55.5 -162.5t149.5 -62.5q90 0 266 80v768l100 20v-938l-69 -20l-27 108q-70 -40 -157.5 -74t-143.5 -34q-127 0 -200.5 74.5t-73.5 191.5zM215 1057l262 272h35l262 -272h-88l-190 168l-193 -168h-88z" />
<glyph unicode="&#xfc;" horiz-adv-x="1005" d="M156 248v672l100 20v-643q0 -100 55.5 -162.5t149.5 -62.5q90 0 266 80v768l100 20v-938l-69 -20l-27 108q-70 -40 -157.5 -74t-143.5 -34q-127 0 -200.5 74.5t-73.5 191.5zM248 1235q0 24 26.5 51t44.5 27q17 0 48.5 -20t31.5 -40q0 -22 -27.5 -49.5t-43.5 -27.5 q-19 0 -49.5 20.5t-30.5 38.5zM594 1235q0 23 27.5 50.5t44.5 27.5t48 -20t31 -40q0 -22 -26.5 -49.5t-44.5 -27.5q-17 0 -48.5 21t-31.5 38z" />
<glyph unicode="&#xfd;" horiz-adv-x="866" d="M-23 -365q41 -3 82.5 3t92 29.5t96 63t92 108.5t82.5 161h-29l-340 909l99 25l305 -834q40 122 161.5 446.5t137.5 375.5h100q-5 -14 -346 -926q-92 -228 -222.5 -342.5t-287.5 -114.5h-6v-4q0 1 -2 2l2 2zM383 1057l264 272l109 -22l-293 -250h-80z" />
<glyph unicode="&#xfe;" horiz-adv-x="1026" d="M178 -434v1827l98 20v-577q86 48 165.5 75t119.5 29q65 1 126 -25t114 -78t85 -144t32 -210q0 -102 -24.5 -187t-66 -142t-96.5 -96.5t-114.5 -57.5t-122.5 -18q-102 0 -218 55v-449zM276 117q131 -54 269 -54q118 0 196 103t78 299q0 104 -26.5 182.5t-70 120t-90.5 61 t-97 19.5q-125 0 -259 -80v-651z" />
<glyph unicode="&#xff;" horiz-adv-x="866" d="M-23 -365q41 -3 82.5 3t92 29.5t96 63t92 108.5t82.5 161h-29l-340 909l99 25l305 -834q40 122 161.5 446.5t137.5 375.5h100q-5 -14 -346 -926q-92 -228 -222.5 -342.5t-287.5 -114.5h-6v-4q0 1 -2 2l2 2zM227 1235q0 24 27 51t45 27q17 0 48.5 -20t31.5 -40 q0 -22 -28 -49.5t-44 -27.5q-19 0 -49.5 20.5t-30.5 38.5zM573 1235q0 23 27.5 50.5t44.5 27.5t48.5 -20t31.5 -40q0 -22 -27 -49.5t-45 -27.5q-17 0 -48.5 21t-31.5 38z" />
<glyph unicode="&#x152;" horiz-adv-x="1693" d="M109 602q0 156 46.5 284t126 211.5t184.5 129t224 45.5q102 0 189 -37v18h680l-17 -98l-553 10v-467h508l-20 -94l-488 8v-518l602 10l-16 -104h-696v47q-105 -65 -254 -65q-108 0 -201.5 41.5t-164 118.5t-110.5 195.5t-40 264.5zM219 659q0 -155 35.5 -270t100 -183 t148 -101t187.5 -33q105 0 189 43v1011q-95 56 -242 56q-84 0 -157.5 -31.5t-132.5 -93.5t-93.5 -164.5t-34.5 -233.5z" />
<glyph unicode="&#x153;" horiz-adv-x="1609" d="M90 442q0 235 121.5 366.5t329.5 131.5q114 0 197 -59t126 -166q50 109 140 167t202 58q137 0 227.5 -85t90.5 -232v-107h-615q-2 -18 -2 -59q0 -104 28.5 -182t78 -122.5t108.5 -65.5t127 -21q138 0 256 51l21 -70q-163 -65 -297 -65q-132 0 -230.5 58t-146.5 173 q-54 -113 -154 -174t-233 -62q-168 3 -271.5 130t-103.5 335zM188 485q0 -210 87 -313.5t243 -103.5q141 0 215 99.5t74 268.5q0 210 -88 314t-244 104q-140 0 -213.5 -99t-73.5 -270zM915 592h504q0 272 -237 272q-119 0 -184 -61.5t-83 -210.5z" />
<glyph unicode="&#x178;" horiz-adv-x="1050" d="M23 1253h133l391 -630l356 630h115l-424 -729v-524h-113v524zM270 1542q0 24 27 51t45 27q17 0 48.5 -19.5t31.5 -39.5q0 -22 -28 -50t-44 -28q-19 0 -49.5 20.5t-30.5 38.5zM616 1542q0 23 27.5 50.5t44.5 27.5t48.5 -19.5t31.5 -39.5q0 -22 -27 -50t-45 -28 q-17 0 -48.5 21t-31.5 38z" />
<glyph unicode="&#x2c6;" horiz-adv-x="862" d="M152 1057l262 272h35l262 -272h-88l-191 168l-192 -168h-88z" />
<glyph unicode="&#x2dc;" horiz-adv-x="864" d="M135 1151q35 36 58 56t61 37.5t78 17.5q46 0 123.5 -29t103.5 -29q65 0 125 56l47 -52q-9 -8 -29 -27.5t-32 -29t-31 -22t-40 -18t-46 -5.5q-40 0 -129 34t-113 34q-53 0 -133 -64z" />
<glyph unicode="&#x2000;" horiz-adv-x="840" />
<glyph unicode="&#x2001;" horiz-adv-x="1681" />
<glyph unicode="&#x2002;" horiz-adv-x="840" />
<glyph unicode="&#x2003;" horiz-adv-x="1681" />
<glyph unicode="&#x2004;" horiz-adv-x="560" />
<glyph unicode="&#x2005;" horiz-adv-x="420" />
<glyph unicode="&#x2006;" horiz-adv-x="280" />
<glyph unicode="&#x2007;" horiz-adv-x="280" />
<glyph unicode="&#x2008;" horiz-adv-x="210" />
<glyph unicode="&#x2009;" horiz-adv-x="336" />
<glyph unicode="&#x200a;" horiz-adv-x="93" />
<glyph unicode="&#x2010;" horiz-adv-x="622" d="M102 455v20l25 70h393v-21l-31 -69h-387z" />
<glyph unicode="&#x2011;" horiz-adv-x="622" d="M102 455v20l25 70h393v-21l-31 -69h-387z" />
<glyph unicode="&#x2012;" horiz-adv-x="622" d="M102 455v20l25 70h393v-21l-31 -69h-387z" />
<glyph unicode="&#x2013;" horiz-adv-x="927" d="M102 455v20l25 62h698v-21l-30 -61h-693z" />
<glyph unicode="&#x2014;" horiz-adv-x="1316" d="M102 455v20l25 62h1087v-21l-30 -61h-1082z" />
<glyph unicode="&#x2018;" horiz-adv-x="471" d="M139 1094q0 12 2.5 26t8.5 36t11.5 39t18 50.5t20 54t25 66.5t27.5 72l80 -27q-8 -23 -21 -62t-22.5 -67t-19 -57.5t-14.5 -48t-5 -25.5q0 -6 29.5 -38t29.5 -58q0 -23 -26 -47.5t-47 -24.5q-19 0 -58 37.5t-39 73.5z" />
<glyph unicode="&#x2019;" horiz-adv-x="471" d="M139 989q84 240 84 260q0 6 -30.5 37t-30.5 57q0 23 27 47.5t47 24.5q21 0 58.5 -36t37.5 -72q0 -12 -2.5 -26t-8.5 -35.5t-11.5 -39.5t-17.5 -50.5t-20.5 -55t-25.5 -67t-27 -72.5z" />
<glyph unicode="&#x201a;" horiz-adv-x="471" d="M139 -285q84 240 84 260q0 6 -30.5 37.5t-30.5 57.5q0 23 27 47t47 24q21 0 58.5 -36t37.5 -72q0 -12 -2.5 -26t-8.5 -35.5t-11.5 -39.5t-17.5 -50.5t-20.5 -55t-25.5 -67t-27 -72.5z" />
<glyph unicode="&#x201c;" horiz-adv-x="753" d="M139 1094q0 12 2.5 26t8.5 36t11.5 39t18 50.5t20 54t25 66.5t27.5 72l80 -27q-8 -23 -21 -62t-22.5 -67t-19 -57.5t-14.5 -48t-5 -25.5q0 -6 29.5 -38t29.5 -58q0 -23 -26 -47.5t-47 -24.5q-19 0 -58 37.5t-39 73.5zM422 1094q0 12 2.5 26t8.5 35.5t11.5 39.5t17 50.5 t19.5 54t24.5 66.5t26.5 72l80 -27q-8 -23 -21 -62t-22.5 -67t-19 -57.5t-14.5 -48t-5 -25.5q0 -6 30 -38t30 -58q0 -22 -26 -47t-46 -25q-21 0 -58.5 37.5t-37.5 73.5z" />
<glyph unicode="&#x201d;" horiz-adv-x="733" d="M139 989q84 240 84 260q0 6 -30.5 37t-30.5 57q0 23 27 47.5t47 24.5q21 0 58.5 -36t37.5 -72q0 -12 -2.5 -26t-8.5 -35.5t-11.5 -39.5t-17.5 -50.5t-20.5 -55t-25.5 -67t-27 -72.5zM401 989q84 240 84 260q0 6 -30.5 37t-30.5 57q0 23 27 47.5t47 24.5q21 0 58.5 -36 t37.5 -72q0 -12 -2.5 -26t-8.5 -35.5t-11.5 -39.5t-17.5 -50.5t-20.5 -55t-25.5 -67t-27 -72.5z" />
<glyph unicode="&#x201e;" horiz-adv-x="741" d="M139 -285q84 240 84 260q0 6 -30.5 37.5t-30.5 57.5q0 23 27 47t47 24q21 0 58.5 -36t37.5 -72q0 -12 -2.5 -26t-8.5 -35.5t-11.5 -39.5t-17.5 -50.5t-20.5 -55t-25.5 -67t-27 -72.5zM408 -285q84 240 84 260q0 6 -31 37.5t-31 57.5q0 23 27 47t47 24q21 0 58.5 -36 t37.5 -72q0 -12 -2.5 -26t-8.5 -35.5t-11.5 -39.5t-17.5 -50.5t-20.5 -55t-25.5 -67t-27 -72.5z" />
<glyph unicode="&#x2022;" horiz-adv-x="452" d="M76 549q0 43 52.5 99.5t92.5 56.5q37 0 96.5 -47.5t59.5 -88.5t-54 -98t-90 -57q-38 0 -97.5 47.5t-59.5 87.5z" />
<glyph unicode="&#x2026;" horiz-adv-x="1546" d="M147 84q0 27 30.5 61.5t51.5 34.5q22 0 58.5 -28.5t36.5 -53.5q0 -28 -30.5 -61t-55.5 -33q-22 0 -56.5 27t-34.5 53zM682 84q0 27 31 61.5t53 34.5t58 -28.5t36 -53.5q0 -27 -31 -60.5t-55 -33.5q-23 0 -57.5 27t-34.5 53zM1223 84q0 27 30.5 61.5t51.5 34.5 q22 0 58 -28.5t36 -53.5q0 -27 -31 -60.5t-55 -33.5q-21 0 -55.5 27t-34.5 53z" />
<glyph unicode="&#x202f;" horiz-adv-x="336" />
<glyph unicode="&#x2039;" horiz-adv-x="679" d="M121 475l375 383l43 -61l-283 -322l283 -321l-43 -62z" />
<glyph unicode="&#x203a;" horiz-adv-x="679" d="M141 156l283 319l-283 322l43 61l375 -383l-375 -383z" />
<glyph unicode="&#x205f;" horiz-adv-x="420" />
<glyph unicode="&#x20ac;" d="M25 690l24 72l115 12h35q16 101 52 185t84.5 141t108 96.5t122.5 57.5t128 18q81 0 186 -19t148 -43l-47 -96q-54 28 -154.5 48t-177.5 20q-303 0 -344 -408h559l-26 -84h-539v-43q0 -43 4 -117h504l-27 -84h-467q30 -194 127.5 -282t266.5 -88q160 0 319 78l23 -88 q-59 -33 -157 -58.5t-194 -25.5q-441 0 -501 464h-166l22 72l107 12h28q-2 25 -2 74q0 32 4 86h-165z" />
</font>
</defs>
</svg>
