<?xml version="1.0" standalone="no"?>
<!DOCTYPE svg PUBLIC "-//W3C//DTD SVG 1.1//EN" "http://www.w3.org/Graphics/SVG/1.1/DTD/svg11.dtd" >
<svg xmlns="http://www.w3.org/2000/svg">
<metadata></metadata>
<defs>
<font id="ancizar_sanslight" horiz-adv-x="1060" >
<font-face units-per-em="2048" ascent="1536" descent="-512" />
<missing-glyph horiz-adv-x="438" />
<glyph unicode="&#xfb01;" horiz-adv-x="1069" d="M78 823v78l125 21v63q0 218 116 333.5t310 115.5q139 0 274 -50l-41 -127q-172 72 -311 72q-90 0 -151.5 -65.5t-61.5 -192.5v-149h436v2l135 18v-942h-135v823h-436v-823h-135v823h-125z" />
<glyph unicode="&#xfb02;" horiz-adv-x="1150" d="M78 823v78l125 21v63q0 218 116 333.5t310 115.5q113 0 215 -31l63 12v-1263q0 -29 19 -46.5t51 -17.5q46 0 86 14l16 -92q-21 -10 -66.5 -20t-82.5 -10q-67 0 -110.5 39t-43.5 110v1159q-121 41 -225 41q-90 0 -151.5 -65.5t-61.5 -192.5v-149h264l-12 -99h-252v-823 h-135v823h-125z" />
<glyph unicode="&#xfb03;" horiz-adv-x="1656" d="M78 823v78l135 21h6v16q0 206 107 328.5t323 122.5q124 0 275 -54q111 99 290 99q143 0 275 -50l-41 -127q-65 28 -151 50t-158 22q-92 0 -153.5 -65.5t-61.5 -192.5v-149h438v2l133 18v-942h-133v823h-438v-823h-133v823h-439v-823h-133v823h-141zM352 922h439v63 q0 148 53 248q-124 57 -275 57q-93 0 -155 -64.5t-62 -203.5v-100z" />
<glyph unicode="&#xfb04;" horiz-adv-x="1734" d="M78 823v78l135 21h6v16q0 206 107 328.5t323 122.5q124 0 275 -54q111 99 290 99q118 0 216 -31l65 12v-1263q0 -29 19 -46.5t51 -17.5q46 0 86 14l16 -92q-21 -10 -66.5 -20t-82.5 -10q-67 0 -110.5 39t-43.5 110v1159q-121 41 -225 41q-92 0 -153.5 -65.5t-61.5 -192.5 v-149h266l-12 -99h-254v-823h-133v823h-439v-823h-133v823h-141zM352 922h439v63q0 148 53 248q-124 57 -275 57q-93 0 -155 -64.5t-62 -203.5v-100z" />
<glyph horiz-adv-x="0" />
<glyph horiz-adv-x="682" />
<glyph unicode=" "  horiz-adv-x="438" />
<glyph unicode="&#x09;" horiz-adv-x="438" />
<glyph unicode="&#xa0;" horiz-adv-x="438" />
<glyph unicode="!" horiz-adv-x="616" d="M195 86q0 33 41.5 76t70.5 43q28 0 71.5 -39t43.5 -70q0 -36 -41.5 -78.5t-69.5 -42.5q-29 0 -72.5 39.5t-43.5 71.5zM203 1245l178 64q-29 -575 -29 -961l-106 -39q3 225 -9 497.5t-34 438.5z" />
<glyph unicode="&#x22;" horiz-adv-x="638" d="M127 1419h127l-31 -422h-69zM385 1419h129l-29 -422h-69z" />
<glyph unicode="#" horiz-adv-x="1030" d="M39 387v31l20 61h209l64 258h-232v31l21 57h231l105 428h106l-104 -428h235l105 428h106l-104 -428h194v-30l-22 -58h-193l-63 -258h217v-30l-23 -62h-217l-94 -387h-106l94 387h-236l-94 -387h-106l94 387h-207zM375 479h235l64 258h-236z" />
<glyph unicode="$" d="M145 29l37 133q181 -72 316 -72q116 0 189 54t73 151q0 67 -20 112t-81 90.5t-176 92.5q-162 67 -234.5 151.5t-72.5 204.5q0 122 82.5 209.5t226.5 110.5l-22 254h141l-22 -246q177 0 299 -43l-39 -129q-166 61 -307 61q-107 0 -164.5 -48.5t-57.5 -139.5 q0 -48 14 -84.5t49 -68t81.5 -57.5t122.5 -60q98 -43 162 -85t97.5 -86.5t46.5 -87.5t13 -98q0 -139 -85 -232t-243 -124l25 -273h-141l24 263q-18 -2 -53 -2q-60 0 -146.5 14.5t-134.5 34.5z" />
<glyph unicode="%" horiz-adv-x="1204" d="M61 969q0 127 81.5 217t203.5 90q111 0 180.5 -80t69.5 -199q0 -129 -81.5 -218t-203.5 -89q-113 0 -181.5 79.5t-68.5 199.5zM113 0l870 1253h113l-867 -1253h-116zM166 985q0 -211 176 -211q147 0 147 207q0 104 -46 157.5t-130 53.5q-80 0 -113.5 -52t-33.5 -155z M608 256q0 128 81 218.5t204 90.5q111 0 180.5 -80t69.5 -200q0 -128 -81.5 -216.5t-203.5 -88.5q-113 0 -181.5 78t-68.5 198zM713 272q0 -103 45 -156t131 -53q147 0 147 205q0 105 -45 158t-131 53q-80 0 -113.5 -52t-33.5 -155z" />
<glyph unicode="&#x26;" horiz-adv-x="1294" d="M98 274q0 41 7 74.5t27 66t37.5 55t58 56.5t68.5 55t87 64q-174 162 -174 318q0 132 102 221.5t252 91.5q91 0 167 -20.5t116 -45.5l-51 -116q-151 71 -285 71q-80 2 -128 -45.5t-48 -130.5q0 -40 14.5 -78t49.5 -81t65.5 -74.5t90.5 -90t97 -96.5q125 -125 262 -252 q84 115 84 244q0 70 -19 126.5t-69 125.5l133 47q78 -101 78 -252q0 -190 -137 -354q147 -135 274 -242v-18l-165 -10q-71 55 -203 174q-100 -84 -220 -132.5t-227 -50.5q-166 3 -255 90.5t-89 208.5zM240 311q0 -58 25 -103.5t65 -71t82.5 -38t83.5 -12.5q76 0 163.5 35.5 t161.5 97.5q-167 158 -301 301q-31 31 -67 62q-47 -30 -80.5 -56t-66 -60t-49.5 -73t-17 -82z" />
<glyph unicode="'" horiz-adv-x="378" d="M127 1419h127l-29 -422h-69z" />
<glyph unicode="(" horiz-adv-x="645" d="M145 571q0 265 87 465t292 357l80 -72q-178 -142 -257 -328.5t-79 -421.5q0 -478 336 -749l-80 -72q-199 152 -289 355.5t-90 465.5z" />
<glyph unicode=")" horiz-adv-x="645" d="M41 -180q178 142 257 328t79 421q0 479 -336 750l80 72q199 -152 289 -356t90 -466q0 -265 -87 -464.5t-292 -356.5z" />
<glyph unicode="*" horiz-adv-x="880" d="M86 1120l16 113q52 2 138 -43t143 -107l-14 -32q-51 22 -133 41.5t-150 27.5zM92 858q23 47 108.5 103t166.5 69l20 -29q-44 -34 -104.5 -97t-98.5 -116zM326 1368l102 45q33 -79 33 -170q0 -81 -25 -149l-33 -9q-19 138 -77 283zM379 831q0 97 22 162l39 4 q6 -52 29 -134.5t47 -143.5l-104 -49q-33 59 -33 161zM451 1083q50 40 110 97.5t94 103.5l93 -65q-25 -47 -106.5 -102t-166.5 -73zM457 999l16 31q45 -18 131 -38.5t148 -28.5l-11 -115q-48 -3 -136.5 42.5t-147.5 108.5z" />
<glyph unicode="+" d="M117 492v104h356v346h113v-346h354v-104h-354v-363h-113v363h-356z" />
<glyph unicode="," horiz-adv-x="475" d="M129 -264q88 235 88 262q0 9 -16.5 25t-33.5 36.5t-17 40.5q0 28 30 56t56 28t68 -41t42 -84q0 -40 -29.5 -121t-95.5 -235z" />
<glyph unicode="-" horiz-adv-x="636" d="M98 446v25l31 82h412v-25l-35 -82h-408z" />
<glyph unicode="." horiz-adv-x="475" d="M133 72q0 31 36.5 71.5t61.5 40.5q27 0 70 -33.5t43 -62.5q0 -30 -37.5 -69t-64.5 -39q-26 0 -67.5 31.5t-41.5 60.5z" />
<glyph unicode="/" horiz-adv-x="647" d="M66 -225l397 1644h119l-398 -1644h-118z" />
<glyph unicode="0" d="M88 602q0 316 128 494t343 178q192 0 303 -164.5t111 -458.5q0 -315 -128 -493t-343 -178q-191 0 -302.5 164.5t-111.5 457.5zM225 627q0 -139 25.5 -243.5t71 -165.5t102.5 -90.5t125 -29.5q136 0 208 122.5t72 406.5q0 139 -25.5 243t-70.5 164.5t-102 89.5t-125 29 q-65 0 -115 -27t-88 -86.5t-58 -163.5t-20 -249z" />
<glyph unicode="1" d="M246 1130q96 28 348 123h108v-1253h-143v1122l-274 -118z" />
<glyph unicode="2" d="M158 0v137q322 295 448.5 469.5t126.5 319.5q0 100 -68.5 166.5t-175.5 66.5q-106 0 -280 -72l-43 107q202 80 360 80q166 0 265.5 -91.5t99.5 -244.5q0 -69 -30 -146t-79 -150.5t-129.5 -163.5t-163.5 -170.5t-198 -184.5l633 10l-27 -133h-739z" />
<glyph unicode="3" d="M131 4l35 127q135 -37 289 -37q117 0 185.5 60.5t68.5 171.5q0 126 -88 193t-222 67q-30 0 -80 -4l-28 116q189 0 287 63t98 179q0 110 -71 164.5t-165 54.5q-64 0 -120.5 -16t-135.5 -51l-43 106q177 76 336 76q150 0 242 -75.5t92 -203.5q0 -120 -74.5 -211.5 t-187.5 -126.5q142 -23 222.5 -100t80.5 -190q0 -88 -39.5 -162.5t-104.5 -123t-147.5 -75t-169.5 -26.5q-167 0 -260 24z" />
<glyph unicode="4" d="M-2 291v84l682 903h88v-872h238l-48 -115h-190v-291h-137v291h-633zM150 406h481v634z" />
<glyph unicode="5" d="M145 10l41 129q145 -45 289 -45q134 0 210.5 69t76.5 187q0 61 -23 110t-58 78.5t-81 49.5t-88 27.5t-82 7.5q-106 0 -211 -23l31 653h647l-31 -123h-504l-24 -401q86 12 141 12q194 0 309 -94t115 -235q0 -197 -141.5 -314.5t-399.5 -117.5q-86 0 -217 30z" />
<glyph unicode="6" d="M129 541q0 365 146 549t399 184q128 0 223 -31l-35 -137q-1 0 -55.5 15.5t-101.5 23.5t-99 8q-104 0 -172 -43t-111.5 -154.5t-54.5 -300.5q166 109 322 109q88 0 156.5 -29.5t108.5 -80.5t60.5 -114.5t20.5 -136.5q0 -114 -53 -210.5t-147 -154.5t-208 -58 q-181 0 -290 144.5t-109 416.5zM264 508q0 -83 17.5 -155.5t52 -131.5t94 -93t137.5 -34q108 0 171 70.5t63 200.5q0 55 -15 103t-46.5 87.5t-86 62.5t-127.5 23q-120 0 -260 -76v-57z" />
<glyph unicode="7" d="M131 1118l23 131h764v-110q-85 -160 -262.5 -567t-247.5 -599l-136 54q76 186 254 561t269 536z" />
<glyph unicode="8" d="M123 281q0 59 21.5 111.5t64 98t84.5 79.5t104 75q-117 65 -170 136.5t-53 176.5q0 128 108 221t277 93q134 0 230 -70.5t96 -193.5q0 -173 -250 -334q161 -79 230 -153.5t69 -180.5q0 -148 -123 -254t-319 -106q-167 0 -268 82.5t-101 218.5zM262 313q0 -105 84 -163 t215 -58q102 0 170 57.5t68 147.5q0 38 -10 67t-40.5 65t-92.5 76.5t-160 88.5q-46 -31 -66 -45t-54 -40t-49.5 -44t-33.5 -43.5t-24.5 -51.5t-6.5 -57zM311 975q0 -65 51.5 -125.5t174.5 -126.5q213 120 213 252q0 75 -64 130.5t-182 55.5q-93 0 -143 -52.5t-50 -133.5z " />
<glyph unicode="9" d="M131 846q0 187 116 307.5t283 120.5q184 0 293 -144t109 -415q0 -172 -46.5 -313t-126.5 -232t-185.5 -140.5t-225.5 -49.5q-90 0 -192 24l24 131q95 -39 238 -39q149 0 245.5 120.5t122.5 361.5q-48 -31 -131 -58.5t-182 -27.5q-148 0 -245 102.5t-97 251.5zM268 891 q0 -55 15 -103t46.5 -88t86 -63t127.5 -23q123 0 250 54q2 25 2 75q0 181 -79.5 296.5t-234.5 115.5q-108 0 -160.5 -70t-52.5 -194z" />
<glyph unicode=":" horiz-adv-x="475" d="M133 72q0 31 36.5 71.5t61.5 40.5q27 0 70 -33.5t43 -62.5q0 -30 -37.5 -69t-64.5 -39q-26 0 -67.5 31.5t-41.5 60.5zM133 645q0 32 36.5 72.5t61.5 40.5q27 0 70 -33.5t43 -62.5q0 -30 -37.5 -69.5t-64.5 -39.5q-26 0 -67.5 31.5t-41.5 60.5z" />
<glyph unicode=";" horiz-adv-x="475" d="M129 -264q88 235 88 262q0 9 -16.5 25t-33.5 36.5t-17 40.5q0 28 30 56t56 28t68 -41t42 -84q0 -40 -29.5 -121t-95.5 -235zM133 645q0 32 36.5 72.5t61.5 40.5q27 0 70 -33.5t43 -62.5q0 -30 -37.5 -69.5t-64.5 -39.5q-26 0 -67.5 31.5t-41.5 60.5z" />
<glyph unicode="=" d="M176 381v31l33 67h674v-30l-31 -68h-676zM176 608v31l33 70h674v-31l-31 -70h-676z" />
<glyph unicode="?" horiz-adv-x="790" d="M70 1178q165 90 327 90q139 0 231.5 -82.5t92.5 -212.5q0 -47 -14.5 -87.5t-46.5 -80t-62 -68t-82 -71.5q-70 -56 -96.5 -85t-26.5 -59q0 -25 24.5 -78t55.5 -94l-106 -43q-25 29 -35 40.5t-27 37.5t-24 50t-7 52q0 41 17.5 74.5t43 58.5t85.5 76q87 72 119 124t32 128 q0 96 -67 156.5t-168 60.5q-39 0 -86.5 -21.5t-132.5 -72.5zM272 88q0 28 40.5 67.5t68.5 39.5q24 0 64 -37t40 -66t-41 -66.5t-65 -37.5q-29 0 -68 35t-39 65z" />
<glyph unicode="@" horiz-adv-x="1650" d="M86 459q0 196 65.5 365.5t175.5 284.5t256 180t306 65q201 0 352.5 -67t237.5 -199.5t86 -315.5q0 -122 -45.5 -233.5t-122 -196t-176 -144.5t-209.5 -87l-37 262v2q-67 -123 -138.5 -192.5t-123.5 -69.5q-181 0 -181 360q0 88 22 170.5t66 153.5t119.5 114t173.5 43 q96 0 172 -47v-694q70 34 130 82.5t112 115t81.5 155.5t29.5 190q0 224 -155.5 358.5t-422.5 134.5q-137 0 -254 -54t-202 -152.5t-133 -245t-48 -324.5q0 -163 44.5 -292t123.5 -211t185 -124.5t233 -42.5q45 0 90 5t76 11.5t69.5 18.5t56 19t50.5 21t39 16l37 -93 q-59 -25 -88.5 -36.5t-94.5 -33t-132 -31t-140 -9.5q-67 0 -132.5 11t-134 37.5t-129 66.5t-114.5 101.5t-92.5 139t-61 183t-22.5 229.5zM653 496q0 -105 13.5 -167t36 -84t57.5 -22q18 0 43 15t55.5 54.5t56 96t43 151t17.5 208.5v90q-52 20 -123 20q-60 0 -100.5 -27.5 t-61.5 -80t-29 -112.5t-8 -142z" />
<glyph unicode="A" horiz-adv-x="1134" d="M31 0l463 1253h145l465 -1253h-154l-151 422h-475l-146 -422h-147zM365 537h391l-199 555z" />
<glyph unicode="B" horiz-adv-x="1105" d="M203 0v1253h350q165 0 266 -84.5t101 -212.5q0 -194 -185 -297q50 -10 95 -30.5t87 -54.5t66.5 -88t24.5 -121q0 -166 -131.5 -265.5t-360.5 -99.5h-313zM350 113q140 -4 221 -4q139 0 214 55.5t75 169.5q0 120 -84.5 187t-236.5 67q-63 0 -189 -4v-471zM350 694 q92 -6 191 -6q112 0 173.5 57.5t61.5 157.5q0 113 -67 178.5t-195 65.5q-14 0 -73 1t-91 1v-455z" />
<glyph unicode="C" horiz-adv-x="1112" d="M102 604q0 195 71.5 346.5t208 237.5t318.5 86q86 0 188 -18t148 -42l-47 -122q-57 28 -156 46.5t-188 18.5q-55 0 -107.5 -15t-105.5 -52t-92 -93t-63.5 -146.5t-24.5 -203.5q0 -144 36.5 -252t101.5 -171t146.5 -93.5t178.5 -30.5q160 0 315 76l25 -113 q-59 -33 -159.5 -58t-201.5 -25q-269 0 -430.5 162.5t-161.5 461.5z" />
<glyph unicode="D" horiz-adv-x="1308" d="M203 25v1228h405q275 0 437.5 -155.5t162.5 -419.5q0 -207 -88 -363t-242.5 -237.5t-351.5 -81.5q-78 0 -174.5 9.5t-148.5 19.5zM350 127q114 -18 254 -18q68 0 131 17.5t122 58t102.5 101.5t69.5 154t26 209q0 235 -136 365.5t-362 130.5h-207v-1018z" />
<glyph unicode="E" horiz-adv-x="1026" d="M203 0v1253h700l-18 -120l-535 8v-434h492l-21 -115l-471 6v-479l586 8l-18 -127h-715z" />
<glyph unicode="F" horiz-adv-x="991" d="M203 0v1253h700l-18 -120l-535 6v-447h488l-21 -121l-467 7v-578h-147z" />
<glyph unicode="G" horiz-adv-x="1206" d="M102 608q0 138 42.5 259.5t120 212t194.5 142.5t258 52q96 0 200 -19t164 -51l-53 -125q-168 76 -369 76q-51 0 -102.5 -14t-107.5 -50t-99 -91t-70.5 -146.5t-27.5 -206.5q0 -145 38.5 -254t107 -172.5t154 -94t187.5 -30.5q105 0 207 31l-2 496h135v-551 q-53 -36 -161 -64t-197 -28q-135 0 -245 36.5t-195 110.5t-132 196.5t-47 284.5z" />
<glyph unicode="H" horiz-adv-x="1323" d="M203 0v1253h147v-542h623v542h147v-1253h-147v592h-623v-592h-147z" />
<glyph unicode="I" horiz-adv-x="552" d="M203 0v1253h147v-1253h-147z" />
<glyph unicode="J" horiz-adv-x="700" d="M25 2l26 119q99 -29 168 -29q74 0 118 54.5t44 148.5v958h147v-899q0 -184 -97.5 -279t-258.5 -95q-57 0 -147 22z" />
<glyph unicode="K" horiz-adv-x="1148" d="M203 0v1253h147v-1253h-147zM350 643l559 610h174l-567 -598l617 -655h-201z" />
<glyph unicode="L" horiz-adv-x="894" d="M203 0v1253h147v-1134l524 8l-18 -127h-653z" />
<glyph unicode="M" horiz-adv-x="1607" d="M111 0l139 1253h170l391 -1050l369 1050h180l137 -1253h-147l-105 1077l-383 -1077h-117l-395 1071l-102 -1071h-137z" />
<glyph unicode="N" horiz-adv-x="1349" d="M203 0v1253h145l674 -1028v1028h125v-1253h-135l-684 1040v-1040h-125z" />
<glyph unicode="O" horiz-adv-x="1347" d="M102 602q0 157 46 284.5t127.5 212t194 130t245.5 45.5q113 0 210 -42t168.5 -120t112.5 -196.5t41 -264.5q0 -312 -172 -491.5t-444 -179.5q-233 0 -381 165.5t-148 456.5zM248 659q0 -152 34 -263.5t96.5 -176.5t142 -95t179.5 -30q80 0 150.5 30t127 89.5t89.5 157.5 t33 223q0 151 -35 263t-98 176.5t-143 95t-179 30.5q-79 0 -149.5 -30.5t-126.5 -90.5t-88.5 -157.5t-32.5 -221.5z" />
<glyph unicode="P" horiz-adv-x="1021" d="M203 0v1253h344q204 0 316 -90.5t112 -251.5q0 -80 -27 -148t-74.5 -116t-111.5 -82t-139.5 -50.5t-157.5 -16.5q-21 0 -59 1t-56 1v-500h-147zM350 614q114 -8 178 -8q138 0 216.5 65t78.5 201q0 131 -84 202t-243 71h-146v-531z" />
<glyph unicode="Q" horiz-adv-x="1347" d="M102 602q0 157 46 284.5t127.5 212t194 130t245.5 45.5q113 0 210 -42t168.5 -120t112.5 -196.5t41 -264.5q0 -312 -172 -491.5t-444 -179.5q-233 0 -381 165.5t-148 456.5zM248 659q0 -152 34 -263.5t96.5 -176.5t142 -95t179.5 -30q80 0 150.5 30t127 89.5t89.5 157.5 t33 223q0 151 -35 263t-98 176.5t-143 95t-179 30.5q-79 0 -149.5 -30.5t-126.5 -90.5t-88.5 -157.5t-32.5 -221.5zM293 -172q42 30 102.5 51t108.5 21q78 0 187.5 -26t209.5 -52.5t154 -26.5q111 0 172 45v-133q-67 -49 -185 -49q-58 0 -265 64.5t-275 64.5 q-58 0 -91 -15.5t-77 -54.5z" />
<glyph unicode="R" horiz-adv-x="1083" d="M203 0v1253h327q194 0 299 -87t105 -238q0 -121 -61.5 -210t-163.5 -138l327 -580h-172l-286 539q-46 -9 -93 -9q-13 0 -60 1t-75 1v-532h-147zM350 647q59 -6 180 -6q109 0 182.5 59t73.5 179q0 127 -73 196.5t-195 69.5q-54 0 -168 -4v-494z" />
<glyph unicode="S" horiz-adv-x="970" d="M100 29l37 133q181 -72 316 -72q116 0 189 54t73 151q0 67 -20 112t-81 90.5t-176 92.5q-162 67 -234.5 151.5t-72.5 204.5q0 142 110.5 235t295.5 93q177 0 299 -43l-39 -129q-166 61 -308 61q-107 0 -164 -48.5t-57 -139.5q0 -48 14 -84.5t49 -68t81.5 -57.5t122.5 -60 q98 -43 162 -85t97.5 -86.5t46.5 -87.5t13 -98q0 -170 -124 -269t-349 -99q-60 0 -146.5 14.5t-134.5 34.5z" />
<glyph unicode="T" horiz-adv-x="1013" d="M25 1130l16 123h948l-16 -123l-391 7v-1137h-148v1137z" />
<glyph unicode="U" horiz-adv-x="1308" d="M190 401v852h148v-784q0 -196 89.5 -281.5t252.5 -85.5q142 0 221.5 78.5t79.5 235.5v837h137v-790q0 -235 -124 -359t-359 -124h-6q-127 0 -223 42q-98 44 -157 141t-59 238z" />
<glyph unicode="V" horiz-adv-x="1122" d="M20 1253h156l383 -1083l397 1083h142l-473 -1253h-148z" />
<glyph unicode="W" horiz-adv-x="1757" d="M66 1253h145l262 -1077l340 1077h141l355 -1075l243 1075h136l-304 -1253h-159l-346 1059l-338 -1059h-164z" />
<glyph unicode="X" horiz-adv-x="1105" d="M29 0l440 655l-401 598h168l327 -489l322 489h157l-407 -594l442 -659h-168l-370 551l-355 -551h-155z" />
<glyph unicode="Y" horiz-adv-x="1064" d="M14 1253h170l369 -610l342 610h147l-426 -741v-512h-147v512z" />
<glyph unicode="Z" horiz-adv-x="1069" d="M78 0v98l737 1045l-706 -15l24 125h840v-127l-729 -1020l737 15l-25 -121h-878z" />
<glyph unicode="[" horiz-adv-x="645" d="M199 -236v1610h348v-96h-234v-1417h234v-97h-348z" />
<glyph unicode="\" horiz-adv-x="647" d="M66 1419h118l398 -1644h-119z" />
<glyph unicode="]" horiz-adv-x="645" d="M98 -139h234v1417h-234v96h348v-1610h-348v97z" />
<glyph unicode="_" horiz-adv-x="901" d="M0 -207h901v-92h-901v92z" />
<glyph unicode="`" horiz-adv-x="696" d="M145 1307l142 28l264 -282h-109z" />
<glyph unicode="a" horiz-adv-x="886" d="M88 215q0 133 130 213.5t396 81.5v108q0 101 -50.5 158.5t-139.5 57.5q-101 0 -277 -62l-34 90q110 42 185.5 61t168.5 19q128 0 201 -73t73 -216v-651l-92 -22l-33 110q-178 -110 -268 -110q-112 0 -186 65t-74 170zM213 248q0 -79 50.5 -119.5t113.5 -40.5q87 0 237 80 v231q-122 9 -161 9q-106 0 -173 -42t-67 -118z" />
<glyph unicode="b" horiz-adv-x="1024" d="M164 -25v1418l135 22v-573q77 43 156.5 71.5t124.5 28.5h5q63 0 123 -25q62 -26 115 -79t85 -144.5t32 -210.5q0 -102 -25.5 -187t-67.5 -142.5t-98.5 -97.5t-117 -58t-123.5 -18q-110 0 -221 49l-56 -78zM299 131q120 -45 248 -45q113 0 185.5 96t72.5 283 q0 80 -17 144.5t-44 105t-63.5 67.5t-72.5 38t-73 11q-114 0 -236 -71v-629z" />
<glyph unicode="c" horiz-adv-x="835" d="M94 442q0 223 120.5 361.5t307.5 138.5q82 0 148.5 -10.5t93.5 -26.5l-23 -106l-23 7q-22 7 -26 8t-25 6.5t-29.5 7t-28 5.5t-32.5 5.5t-30.5 3.5t-34.5 2q-126 -2 -202.5 -96.5t-76.5 -280.5q0 -188 80.5 -284.5t216.5 -96.5q108 0 236 45l22 -86q-48 -25 -132 -45 t-158 -20q-192 0 -298 124t-106 338z" />
<glyph unicode="d" horiz-adv-x="1021" d="M82 438q0 126 38.5 226t102 159t138 89t153.5 30q106 0 211 -43v494l133 22v-1413l-92 -22l-31 106q-81 -45 -163.5 -75.5t-127.5 -30.5h-5q-65 0 -125 25q-62 26 -115 78.5t-85 144t-32 210.5zM217 457q0 -100 25 -174.5t66.5 -115t87 -60t93.5 -19.5q102 0 236 74v626 q-119 48 -250 48q-112 0 -185 -96t-73 -283z" />
<glyph unicode="e" horiz-adv-x="911" d="M94 440q0 237 115 369.5t293 132.5q149 0 237 -90t88 -242q0 -92 -2 -112h-602v-39q0 -100 27 -174t74 -115.5t102.5 -61.5t120.5 -20q139 0 258 51l26 -92q-168 -67 -313 -67q-191 0 -307.5 116.5t-116.5 343.5zM231 592h463q0 256 -219 256q-108 0 -167.5 -57.5 t-76.5 -198.5z" />
<glyph unicode="f" horiz-adv-x="622" d="M78 823v78l125 21v84q0 219 101 323.5t278 104.5q40 0 86 -11l-17 -110q-64 14 -147 14q-72 0 -119 -54t-47 -163v-188h252l-12 -99h-240v-823h-135v823h-125z" />
<glyph unicode="g" horiz-adv-x="935" d="M61 -203q0 107 148 205q38 28 119 72q-55 15 -87 48t-32 75q0 69 106 155q-98 22 -158.5 93.5t-60.5 177.5q0 149 102 234t263 85q98 0 172 -47q23 3 92 15.5t124 22.5t54 9v-125h-39l-162 17q60 -73 60 -175q0 -149 -100.5 -233t-258.5 -84h-4q-65 -61 -65 -98 q0 -34 33.5 -52.5t119.5 -33.5l175 -37q44 -10 75 -23t59 -34t42 -55t14 -81q0 -92 -66 -171.5t-174 -125t-229 -45.5q-143 0 -232.5 55t-89.5 156zM190 -180q0 -61 64.5 -95t187.5 -34q122 0 202.5 59t80.5 139q0 58 -42 90.5t-144 51.5l-109 22q-72 -34 -129 -71 q-56 -37 -83.5 -75t-27.5 -87zM225 651q0 -103 64 -158t160 -55q88 0 136 45t48 150q0 58 -18.5 100.5t-51 66.5t-71.5 35t-86 11q-94 0 -137.5 -42.5t-43.5 -152.5z" />
<glyph unicode="h" horiz-adv-x="1011" d="M164 0v1393l135 22v-571q71 40 152.5 69t140.5 29q68 0 129 -26t105 -87.5t44 -148.5v-680h-135v618q0 92 -50.5 149.5t-141.5 57.5q-78 0 -244 -67v-758h-135z" />
<glyph unicode="i" horiz-adv-x="462" d="M135 1227q0 27 36 64.5t60 37.5q25 0 66 -30t41 -58q0 -27 -36.5 -63.5t-59.5 -36.5q-26 0 -66.5 29.5t-40.5 56.5zM164 0v918l135 24v-942h-135z" />
<glyph unicode="j" horiz-adv-x="462" d="M-82 -358q53 12 87.5 24t67.5 35.5t51 57t29 86.5t11 126v947l135 24v-952q0 -188 -100 -317.5t-254 -129.5zM127 1227q0 27 36 64.5t60 37.5q25 0 66 -30t41 -58q0 -27 -37 -63.5t-60 -36.5q-27 0 -66.5 29.5t-39.5 56.5z" />
<glyph unicode="k" horiz-adv-x="880" d="M164 0v1389l135 26v-1415h-135zM299 506l391 416h160l-406 -410l435 -512h-172l-406 504z" />
<glyph unicode="l" horiz-adv-x="540" d="M170 129v1262l131 24v-1263q0 -29 19 -46.5t51 -17.5q46 0 86 14l16 -92q-21 -10 -66.5 -20t-82.5 -10q-67 0 -110.5 39t-43.5 110z" />
<glyph unicode="m" horiz-adv-x="1538" d="M164 0v920l98 22l31 -102q177 102 287 102q165 0 231 -123q75 45 167.5 84t154.5 39q126 0 195 -73t69 -195v-674h-135v618q0 100 -44.5 155.5t-130.5 55.5q-89 0 -251 -79q8 -31 8 -76v-674h-133v618q0 100 -44 155.5t-130 55.5q-84 0 -238 -71v-758h-135z" />
<glyph unicode="n" horiz-adv-x="1015" d="M164 0v920l98 22l31 -102q70 40 155 71t144 31q129 0 203.5 -74t74.5 -194v-674h-135v618q0 98 -51 152.5t-139 54.5q-97 0 -246 -67v-758h-135z" />
<glyph unicode="o" horiz-adv-x="1007" d="M82 442q0 235 125 367.5t338 132.5q175 0 278 -124t103 -339q0 -234 -124 -367.5t-331 -136.5q-174 3 -281.5 129t-107.5 338zM217 485q0 -204 81 -301.5t226 -97.5q130 0 198.5 92t68.5 258q0 205 -82 302.5t-228 97.5q-129 0 -196.5 -91t-67.5 -260z" />
<glyph unicode="p" horiz-adv-x="1021" d="M164 -440v1360l98 22l33 -102q80 44 160 73t125 29h5q64 0 123 -25q62 -26 115 -79t85 -144.5t32 -210.5q0 -102 -25.5 -187t-67.5 -142.5t-98.5 -97.5t-117 -58t-123.5 -18q-104 0 -209 43v-439zM299 131q120 -45 248 -45q113 0 185.5 96t72.5 283q0 99 -25 173 t-66.5 113.5t-86 57.5t-92.5 18q-115 0 -236 -67v-629z" />
<glyph unicode="q" horiz-adv-x="1024" d="M82 436q0 126 38.5 226.5t102 159.5t138 89.5t153.5 30.5q112 0 223 -51l56 80l67 -25v-1366l-135 -24v524q-79 -43 -158 -72.5t-123 -30.5q-67 0 -129.5 26t-115.5 78.5t-85 144t-32 210.5zM217 455q0 -100 25 -174t67 -114t87 -58.5t93 -18.5q112 0 236 72v626 q-119 48 -250 48q-112 0 -185 -96.5t-73 -284.5z" />
<glyph unicode="r" horiz-adv-x="663" d="M164 0v920l98 22l37 -125q168 125 313 125h9l-17 -139q-9 2 -69 2q-113 -3 -236 -78v-727h-135z" />
<glyph unicode="s" horiz-adv-x="796" d="M84 27l22 112q163 -57 312 -57q67 0 116.5 37.5t49.5 111.5q0 56 -41.5 93t-112.5 69l-131 56q-41 18 -68.5 34.5t-59.5 44t-48.5 67t-16.5 89.5q0 78 53 139.5t122.5 90t134.5 28.5q88 0 167 -13t115 -30l-30 -108q-178 49 -269 49q-77 0 -123.5 -32.5t-46.5 -92.5 q0 -59 35.5 -94.5t120.5 -69.5l107 -45q41 -17 66 -29.5t58 -35t51.5 -46t32 -58.5t13.5 -77q0 -82 -51 -147t-131.5 -99t-172.5 -34q-139 0 -274 47z" />
<glyph unicode="t" horiz-adv-x="686" d="M35 823v78l160 21l2 151l135 25l-2 -176h311l-20 -99h-293l-6 -581q-1 -74 38 -110t103 -36q88 0 180 27l16 -92q-45 -22 -116 -36.5t-121 -14.5q-99 0 -168 59.5t-68 163.5l9 620h-160z" />
<glyph unicode="u" horiz-adv-x="1015" d="M145 248v672l136 22v-639q0 -98 52 -154.5t140 -56.5t244 72v756l135 22v-940l-94 -22l-35 104q-66 -40 -152.5 -72t-146.5 -32q-129 0 -204 74t-75 194z" />
<glyph unicode="v" horiz-adv-x="886" d="M23 911l137 25l289 -807l278 793h139l-348 -922h-160z" />
<glyph unicode="w" horiz-adv-x="1409" d="M61 911l138 25l196 -791l248 766l117 25l268 -791l193 777h127l-254 -922h-148l-250 727l-239 -727h-156z" />
<glyph unicode="x" horiz-adv-x="907" d="M37 0l348 461l-317 450l141 25l260 -369l236 355h149l-322 -445l338 -477h-159l-267 377l-256 -377h-151z" />
<glyph unicode="y" horiz-adv-x="886" d="M-16 -342q19 -2 37 -2q267 0 401 344h-47l-332 909l135 27l287 -811q33 96 98.5 280.5t115.5 326.5t64 190h136q-38 -109 -169.5 -473t-170.5 -467q-88 -222 -218.5 -334.5t-289.5 -112.5h-29z" />
<glyph unicode="z" horiz-adv-x="839" d="M82 0v96l493 719l-483 -6l12 113h635v-91l-503 -727l534 9l-12 -113h-676z" />
<glyph unicode="{" horiz-adv-x="645" d="M111 528v76q153 45 153 144q0 47 -13 161.5t-13 214.5q0 267 305 267v-99q-78 0 -135.5 -36t-57.5 -103q0 -75 15.5 -209t15.5 -190q0 -69 -40.5 -120t-98.5 -67q58 -16 98.5 -66.5t40.5 -119.5q0 -57 -15.5 -192t-15.5 -209q0 -67 57.5 -103.5t135.5 -36.5v-98 q-305 0 -305 266q0 100 13 215t13 162q0 52 -38.5 86t-114.5 57z" />
<glyph unicode="|" horiz-adv-x="518" d="M205 -451v1870h108v-1870h-108z" />
<glyph unicode="}" horiz-adv-x="645" d="M102 -158q78 0 135.5 36.5t57.5 103.5q0 74 -15.5 208t-15.5 191q0 69 40.5 119.5t98.5 66.5q-58 16 -98.5 67t-40.5 120q0 56 15.5 191t15.5 210q0 67 -57.5 103t-135.5 36v99q306 0 306 -267q0 -100 -13.5 -214.5t-13.5 -161.5q0 -52 39 -86.5t115 -57.5v-76 q-77 -23 -115.5 -57t-38.5 -86q0 -47 13.5 -162t13.5 -215q0 -266 -306 -266v98z" />
<glyph unicode="&#xa1;" horiz-adv-x="616" d="M195 813q0 36 41 78.5t69 42.5q29 0 73 -39.5t44 -71.5q0 -33 -42 -75.5t-71 -42.5q-28 0 -71 38.5t-43 69.5zM236 -399q28 555 28 960l107 39q-3 -225 9 -497.5t34 -438.5z" />
<glyph unicode="&#xa2;" d="M180 606q0 198 97.5 332t254.5 162l-20 256h129l-20 -250q173 -3 229 -37l-23 -106l-23 7q-22 7 -26 8t-25 6.5t-29.5 7t-28 5.5t-32.5 5.5t-30.5 3.5t-34.5 2q-126 -2 -202.5 -96.5t-76.5 -280.5q0 -188 80.5 -284.5t216.5 -96.5q109 0 236 45l22 -86 q-43 -22 -115.5 -41t-140.5 -23l27 -262h-129l16 262q-168 17 -260 139.5t-92 321.5z" />
<glyph unicode="&#xa3;" d="M82 115q151 43 201.5 97t50.5 171q0 45 -27 180h-190v27l47 69l96 5h29q-23 134 -23 215q0 176 110 285.5t292 109.5q163 0 250 -49l-44 -129q-151 63 -241 63q-117 0 -172 -57.5t-55 -194.5q0 -83 24 -243h389l-26 -101h-347q17 -100 17 -155q0 -180 -133 -299l649 14 l-29 -123h-813h-2z" />
<glyph unicode="&#xa7;" horiz-adv-x="999" d="M98 627q0 100 82 172.5t217 111.5q-105 44 -161 102t-56 146q0 116 101.5 193.5t281.5 77.5q133 0 242 -37l-37 -111q-172 61 -262 61q-98 0 -145.5 -39t-45.5 -106q0 -63 43 -108t136 -84l84 -35q184 -79 253.5 -145t69.5 -173q0 -99 -82 -172t-217 -112 q105 -44 161 -102t56 -146q0 -116 -101.5 -193.5t-281.5 -77.5q-144 0 -266 46l37 110q194 -69 285 -69q99 0 145.5 38.5t46.5 106.5q0 63 -43 108t-137 84l-82 35q-185 79 -254.5 144.5t-69.5 173.5zM236 655q0 -75 56 -129.5t200 -111.5q124 29 197 83.5t73 127.5 q0 75 -56 129.5t-200 111.5q-124 -31 -197 -85t-73 -126z" />
<glyph unicode="&#xa8;" horiz-adv-x="804" d="M133 1229q0 26 32 59t54 33t59 -25.5t37 -48.5q0 -27 -32.5 -60.5t-53.5 -33.5q-24 0 -60 26.5t-36 49.5zM489 1229q0 26 32 59t54 33t59.5 -25.5t37.5 -48.5q0 -27 -32.5 -60.5t-53.5 -33.5q-24 0 -60.5 26.5t-36.5 49.5z" />
<glyph unicode="&#xa9;" horiz-adv-x="1159" d="M68 489q0 117 41.5 215t112.5 162t163.5 99.5t194.5 35.5q234 0 373 -145t139 -367q0 -154 -72 -272t-187 -177.5t-253 -59.5q-156 0 -273.5 67.5t-178 182.5t-60.5 259zM154 489q0 -196 120 -314t304 -118q195 0 310.5 122t115.5 310q0 198 -120 315.5t-306 117.5 q-193 0 -308.5 -124t-115.5 -309zM287 492q0 145 84 234t231 89q74 0 158 -27l-19 -73l-26 6.5t-34.5 8.5t-35 7t-45 6t-45.5 2q-33 0 -61.5 -10.5t-55 -35t-42 -75t-15.5 -122.5q0 -121 59.5 -178.5t145.5 -57.5q76 0 174 35l16 -72q-107 -41 -219 -41q-126 0 -198 81 t-72 223z" />
<glyph unicode="&#xaa;" horiz-adv-x="485" d="M43 827q0 67 75.5 109t207.5 43v51q0 88 -99 88q-35 0 -151 -31l-25 62q115 41 207 41q78 0 119 -36.5t41 -109.5v-323l-74 -16l-12 47q-85 -47 -154 -47q-56 0 -95.5 31t-39.5 91zM133 852q0 -38 22.5 -57t55.5 -19q43 0 115 29v110q-35 5 -80 5q-113 0 -113 -68z" />
<glyph unicode="&#xab;" horiz-adv-x="1073" d="M123 475l375 395l63 -67l-270 -328l270 -328l-63 -67zM502 475l375 395l63 -67l-270 -328l270 -328l-63 -67z" />
<glyph unicode="&#xad;" horiz-adv-x="636" d="M98 446v25l31 82h412v-25l-35 -82h-408z" />
<glyph unicode="&#xae;" horiz-adv-x="1159" d="M68 1053q0 117 41.5 215t112.5 162t163.5 99.5t194.5 35.5q234 0 373 -145t139 -367q0 -116 -41.5 -213t-112.5 -161.5t-163.5 -100t-194.5 -35.5q-156 0 -273.5 68t-178 183t-60.5 259zM154 1053q0 -194 120 -312t304 -118q195 0 310.5 121.5t115.5 308.5 q0 198 -120 315t-306 117q-193 0 -308.5 -123.5t-115.5 -308.5zM399 766v606h185q93 0 146.5 -40.5t53.5 -123.5q0 -102 -112 -155l164 -287h-103l-137 264q-32 -4 -49 -4q-6 0 -26.5 1t-33.5 1v-262h-88zM487 1092q27 -2 80 -2q63 0 95 24t32 80q0 59 -31 86t-98 27h-78 v-215z" />
<glyph unicode="&#xaf;" horiz-adv-x="847" d="M164 1151v31l31 67h489v-30l-31 -68h-489z" />
<glyph unicode="&#xb2;" horiz-adv-x="550" d="M59 799v69q164 148 218 209q94 104 94 166q0 55 -36.5 85t-92.5 30q-64 0 -154 -39l-27 72q86 47 218 47q86 0 143 -49.5t57 -124.5q0 -76 -74 -166t-237 -224l324 9l-19 -84h-414z" />
<glyph unicode="&#xb3;" horiz-adv-x="548" d="M55 809l23 72q85 -23 168 -23q137 0 137 111q0 61 -44.5 92t-117.5 31q-14 0 -49 -5l-18 68q211 0 211 109q0 44 -35.5 72t-83.5 28q-68 0 -150 -37l-24 72q115 39 196 39q77 0 135 -37.5t58 -110.5q0 -53 -37.5 -93t-97.5 -60q75 -12 114 -50t39 -100q0 -50 -24.5 -90 t-63.5 -63t-83.5 -35.5t-88.5 -12.5q-74 0 -164 23z" />
<glyph unicode="&#xb4;" horiz-adv-x="696" d="M145 1053l265 282l141 -28l-297 -254h-109z" />
<glyph unicode="&#xb6;" horiz-adv-x="1110" d="M47 850q0 177 112.5 290t317.5 113h430v-1202q0 -155 -101.5 -242.5t-268.5 -87.5q-75 0 -136 21l21 117q122 -40 201 -31.5t116 51.5t37 117v1167h-166v-708h-139q-201 0 -312.5 109.5t-111.5 285.5z" />
<glyph unicode="&#xb8;" horiz-adv-x="593" d="M139 -389q70 9 110.5 18.5t68.5 29.5t28 50t-37 52t-121 46l-6 11l84 182h88l-53 -113q7 -4 25.5 -13t25 -12.5t22 -11.5t21 -12t17 -12t15.5 -14t11 -15t10 -17.5t5 -19t2 -22.5q0 -71 -74.5 -129t-222.5 -74z" />
<glyph unicode="&#xb9;" horiz-adv-x="417" d="M35 1362q79 17 201 63h67v-626h-94v542l-150 -59z" />
<glyph unicode="&#xba;" horiz-adv-x="559" d="M47 938q0 117 72.5 184.5t187.5 67.5q104 0 160.5 -61.5t56.5 -172.5q0 -115 -74 -183t-186 -68q-102 0 -159.5 61.5t-57.5 171.5zM143 961q0 -102 40 -144.5t114 -42.5q67 0 98 36.5t31 125.5q0 101 -39.5 143.5t-112.5 42.5q-67 0 -99 -36.5t-32 -124.5z" />
<glyph unicode="&#xbb;" horiz-adv-x="1073" d="M133 147l270 328l-270 330l66 65l372 -395l-372 -395zM512 147l270 328l-270 330l66 65l372 -395l-372 -395z" />
<glyph unicode="&#xbf;" horiz-adv-x="739" d="M31 -55q0 47 14.5 87.5t46.5 80t62 68t82 71.5q70 56 96 84.5t26 58.5q0 25 -24.5 78t-54.5 94l106 43q32 -36 46 -54t30 -54t16 -72q0 -59 -29.5 -98t-115.5 -111q-88 -73 -120 -124.5t-32 -127.5q0 -96 67.5 -156.5t168.5 -60.5q39 0 86.5 21.5t132.5 72.5l47 -106 q-165 -90 -328 -90q-138 0 -230.5 82.5t-92.5 212.5zM266 825q0 29 41.5 67t65.5 38q29 0 67.5 -35.5t38.5 -65.5q0 -28 -40 -67t-68 -39q-24 0 -64.5 36.5t-40.5 65.5z" />
<glyph unicode="&#xc0;" horiz-adv-x="1134" d="M31 0l463 1253h145l465 -1253h-154l-151 422h-475l-146 -422h-147zM307 1614l142 28l264 -282h-109zM365 537h391l-199 555z" />
<glyph unicode="&#xc1;" horiz-adv-x="1134" d="M31 0l463 1253h145l465 -1253h-154l-151 422h-475l-146 -422h-147zM365 537h391l-199 555zM463 1360l264 282l141 -28l-297 -254h-108z" />
<glyph unicode="&#xc2;" horiz-adv-x="1134" d="M31 0l463 1253h145l465 -1253h-154l-151 422h-475l-146 -422h-147zM262 1360l258 282h76l258 -282h-111l-184 164l-186 -164h-111zM365 537h391l-199 555z" />
<glyph unicode="&#xc3;" horiz-adv-x="1134" d="M31 0l463 1253h145l465 -1253h-154l-151 422h-475l-146 -422h-147zM240 1456q32 35 55.5 56.5t65 44t81.5 22.5q46 0 127 -29.5t107 -29.5q64 0 129 61l55 -59q-2 -2 -14 -15.5t-15.5 -17l-15.5 -15.5t-17.5 -16.5t-17.5 -14.5t-20 -14.5t-20 -11t-22 -9t-22.5 -5 t-25.5 -2.5q-40 0 -131 33.5t-115 33.5q-34 0 -75 -25t-58 -42zM365 537h391l-199 555z" />
<glyph unicode="&#xc4;" horiz-adv-x="1134" d="M31 0l463 1253h145l465 -1253h-154l-151 422h-475l-146 -422h-147zM301 1536q0 26 32 59t54 33t59 -25.5t37 -48.5q0 -27 -32.5 -60.5t-53.5 -33.5q-24 0 -60 26.5t-36 49.5zM365 537h391l-199 555zM657 1536q0 26 32 59t54 33t59.5 -25.5t37.5 -48.5q0 -27 -32.5 -60.5 t-53.5 -33.5q-24 0 -60.5 26.5t-36.5 49.5z" />
<glyph unicode="&#xc5;" horiz-adv-x="1134" d="M31 0l463 1253h145l465 -1253h-154l-151 422h-475l-146 -422h-147zM365 537h391l-199 555zM377 1516q0 72 55.5 124t128.5 52q76 0 129 -46.5t53 -129.5q0 -71 -56 -122t-128 -51q-75 0 -128.5 46t-53.5 127zM465 1516q0 -41 28 -68t66 -27t67 27t29 68q0 44 -28.5 71 t-67.5 27q-38 0 -66 -27t-28 -71z" />
<glyph unicode="&#xc6;" horiz-adv-x="1626" d="M31 0l700 1253h776l-18 -120l-535 8v-434h492l-21 -115l-471 6v-479l586 8l-18 -127h-715v422h-395l-234 -422h-147zM475 537h332v571h-14z" />
<glyph unicode="&#xc7;" horiz-adv-x="1112" d="M102 604q0 195 71.5 346.5t208 237.5t318.5 86q86 0 188 -18t148 -42l-47 -122q-57 28 -156 46.5t-188 18.5q-55 0 -107.5 -15t-105.5 -52t-92 -93t-63.5 -146.5t-24.5 -203.5q0 -144 36.5 -252t101.5 -171t146.5 -93.5t178.5 -30.5q160 0 315 76l25 -113 q-58 -32 -153 -57t-193 -26l-43 -93q6 -3 25.5 -12.5t25 -12.5t21.5 -11.5t21 -12.5t17 -12.5t15.5 -14t11 -14.5t9.5 -17.5t4.5 -19t2.5 -22.5q0 -71 -74.5 -129t-222.5 -74l-18 76q70 9 110.5 18.5t68.5 29.5t28 50t-37 52t-121 46l-6 11l76 166q-239 21 -380 181.5 t-141 438.5z" />
<glyph unicode="&#xc8;" horiz-adv-x="1026" d="M203 0v1253h700l-18 -120l-535 8v-434h492l-21 -115l-471 6v-479l586 8l-18 -127h-715zM352 1614l142 28l264 -282h-109z" />
<glyph unicode="&#xc9;" horiz-adv-x="1026" d="M203 0v1253h700l-18 -120l-535 8v-434h492l-21 -115l-471 6v-479l586 8l-18 -127h-715zM401 1360l265 282l141 -28l-297 -254h-109z" />
<glyph unicode="&#xca;" horiz-adv-x="1026" d="M203 0v1253h700l-18 -120l-535 8v-434h492l-21 -115l-471 6v-479l586 8l-18 -127h-715zM272 1360l258 282h76l258 -282h-110l-185 164l-186 -164h-111z" />
<glyph unicode="&#xcb;" horiz-adv-x="1026" d="M203 0v1253h700l-18 -120l-535 8v-434h492l-21 -115l-471 6v-479l586 8l-18 -127h-715zM301 1536q0 26 32 59t54 33t59 -25.5t37 -48.5q0 -27 -32.5 -60.5t-53.5 -33.5q-24 0 -60 26.5t-36 49.5zM657 1536q0 26 32 59t54 33t59.5 -25.5t37.5 -48.5q0 -27 -32.5 -60.5 t-53.5 -33.5q-24 0 -60.5 26.5t-36.5 49.5z" />
<glyph unicode="&#xcc;" horiz-adv-x="552" d="M2 1614l141 28l265 -282h-109zM203 0v1253h147v-1253h-147z" />
<glyph unicode="&#xcd;" horiz-adv-x="552" d="M186 1360l265 282l141 -28l-297 -254h-109zM203 0v1253h147v-1253h-147z" />
<glyph unicode="&#xce;" horiz-adv-x="552" d="M-18 1360l258 282h75l258 -282h-110l-184 164l-187 -164h-110zM203 0v1253h147v-1253h-147z" />
<glyph unicode="&#xcf;" horiz-adv-x="552" d="M41 1530q0 26 32 59t54 33q21 0 57.5 -25.5t36.5 -48.5q0 -26 -31.5 -60t-52.5 -34q-23 0 -59.5 27t-36.5 49zM203 0v1253h147v-1253h-147zM334 1530q0 26 32 59t54 33t59 -25.5t37 -48.5q0 -25 -32.5 -59.5t-53.5 -34.5q-23 0 -59.5 27t-36.5 49z" />
<glyph unicode="&#xd0;" horiz-adv-x="1318" d="M76 594v111h137v548h405q275 0 438 -155.5t163 -419.5q0 -207 -88 -363t-242.5 -237.5t-351.5 -81.5q-78 0 -175 9.5t-149 19.5v569h-137zM360 127q114 -18 254 -18q68 0 131 17.5t122 58t102.5 101.5t69.5 154t26 209q0 235 -136 365.5t-362 130.5h-207v-440h371 l-20 -111h-351v-467z" />
<glyph unicode="&#xd1;" horiz-adv-x="1349" d="M203 0v1253h145l674 -1028v1028h125v-1253h-135l-684 1040v-1040h-125zM377 1456q23 25 40.5 41.5t45 38t57.5 32.5t60 11q46 0 126.5 -29.5t106.5 -29.5q64 0 129 61l55 -59q-2 -2 -14 -15.5t-15.5 -17l-15.5 -15.5t-17.5 -16.5t-17.5 -14.5t-20 -14.5t-20 -11t-22 -9 t-22.5 -5t-25.5 -2.5q-40 0 -131 33.5t-115 33.5q-34 0 -75 -25t-58 -42z" />
<glyph unicode="&#xd2;" horiz-adv-x="1347" d="M102 602q0 157 46 284.5t127.5 212t194 130t245.5 45.5q113 0 210 -42t168.5 -120t112.5 -196.5t41 -264.5q0 -312 -172 -491.5t-444 -179.5q-233 0 -381 165.5t-148 456.5zM248 659q0 -152 34 -263.5t96.5 -176.5t142 -95t179.5 -30q80 0 150.5 30t127 89.5t89.5 157.5 t33 223q0 151 -35 263t-98 176.5t-143 95t-179 30.5q-79 0 -149.5 -30.5t-126.5 -90.5t-88.5 -157.5t-32.5 -221.5zM461 1614l141 28l264 -282h-108z" />
<glyph unicode="&#xd3;" horiz-adv-x="1347" d="M102 602q0 157 46 284.5t127.5 212t194 130t245.5 45.5q113 0 210 -42t168.5 -120t112.5 -196.5t41 -264.5q0 -312 -172 -491.5t-444 -179.5q-233 0 -381 165.5t-148 456.5zM248 659q0 -152 34 -263.5t96.5 -176.5t142 -95t179.5 -30q80 0 150.5 30t127 89.5t89.5 157.5 t33 223q0 151 -35 263t-98 176.5t-143 95t-179 30.5q-79 0 -149.5 -30.5t-126.5 -90.5t-88.5 -157.5t-32.5 -221.5zM477 1360l264 282l142 -28l-297 -254h-109z" />
<glyph unicode="&#xd4;" horiz-adv-x="1347" d="M102 602q0 157 46 284.5t127.5 212t194 130t245.5 45.5q113 0 210 -42t168.5 -120t112.5 -196.5t41 -264.5q0 -312 -172 -491.5t-444 -179.5q-233 0 -381 165.5t-148 456.5zM248 659q0 -152 34 -263.5t96.5 -176.5t142 -95t179.5 -30q80 0 150.5 30t127 89.5t89.5 157.5 t33 223q0 151 -35 263t-98 176.5t-143 95t-179 30.5q-79 0 -149.5 -30.5t-126.5 -90.5t-88.5 -157.5t-32.5 -221.5zM362 1360l259 282h75l258 -282h-110l-185 164l-186 -164h-111z" />
<glyph unicode="&#xd5;" horiz-adv-x="1347" d="M102 602q0 157 46 284.5t127.5 212t194 130t245.5 45.5q113 0 210 -42t168.5 -120t112.5 -196.5t41 -264.5q0 -312 -172 -491.5t-444 -179.5q-233 0 -381 165.5t-148 456.5zM248 659q0 -152 34 -263.5t96.5 -176.5t142 -95t179.5 -30q80 0 150.5 30t127 89.5t89.5 157.5 t33 223q0 151 -35 263t-98 176.5t-143 95t-179 30.5q-79 0 -149.5 -30.5t-126.5 -90.5t-88.5 -157.5t-32.5 -221.5zM360 1456q23 25 40.5 41.5t45 38t57.5 32.5t60 11q46 0 127 -29.5t107 -29.5q64 0 129 61l55 -59q-2 -2 -14 -15.5t-15.5 -17l-15.5 -15.5t-17.5 -16.5 t-17.5 -14.5t-20 -14.5t-20 -11t-22 -9t-22.5 -5t-25.5 -2.5q-40 0 -131 33.5t-115 33.5q-34 0 -75 -25t-58 -42z" />
<glyph unicode="&#xd6;" horiz-adv-x="1347" d="M102 602q0 157 46 284.5t127.5 212t194 130t245.5 45.5q113 0 210 -42t168.5 -120t112.5 -196.5t41 -264.5q0 -312 -172 -491.5t-444 -179.5q-233 0 -381 165.5t-148 456.5zM248 659q0 -152 34 -263.5t96.5 -176.5t142 -95t179.5 -30q80 0 150.5 30t127 89.5t89.5 157.5 t33 223q0 151 -35 263t-98 176.5t-143 95t-179 30.5q-79 0 -149.5 -30.5t-126.5 -90.5t-88.5 -157.5t-32.5 -221.5zM395 1536q0 26 32 59t54 33t59.5 -25.5t37.5 -48.5q0 -27 -32.5 -60.5t-53.5 -33.5q-24 0 -60.5 26.5t-36.5 49.5zM752 1536q0 26 32 59t54 33t59 -25.5 t37 -48.5q0 -27 -32.5 -60.5t-53.5 -33.5q-24 0 -60 26.5t-36 49.5z" />
<glyph unicode="&#xd7;" d="M197 283l262 262l-262 262l73 70l260 -261l261 261l73 -70l-262 -262l262 -262l-71 -72l-263 262l-262 -262z" />
<glyph unicode="&#xd8;" horiz-adv-x="1347" d="M102 602q0 157 46 284.5t127.5 212t194 130t245.5 45.5q93 0 172 -27l78 172h106l-96 -211q127 -73 199.5 -215.5t72.5 -341.5q0 -312 -172 -491.5t-444 -179.5q-111 0 -199 36l-84 -186h-106l104 231q-114 76 -179 214.5t-65 326.5zM248 659q0 -324 158 -466l425 933 q-82 33 -186 33q-79 0 -149.5 -30.5t-126.5 -90.5t-88.5 -157.5t-32.5 -221.5zM487 137q93 -43 213 -43q80 0 150.5 30t127 89.5t89.5 157.5t33 223q0 347 -185 485z" />
<glyph unicode="&#xd9;" horiz-adv-x="1308" d="M190 401v852h148v-784q0 -196 89.5 -281.5t252.5 -85.5q142 0 221.5 78.5t79.5 235.5v837h137v-790q0 -235 -124 -359t-359 -124q-130 -1 -228.5 42.5t-157.5 140.5t-59 238zM438 1614l142 28l264 -282h-109z" />
<glyph unicode="&#xda;" horiz-adv-x="1308" d="M190 401v852h148v-784q0 -196 89.5 -281.5t252.5 -85.5q142 0 221.5 78.5t79.5 235.5v837h137v-790q0 -235 -124 -359t-359 -124q-130 -1 -228.5 42.5t-157.5 140.5t-59 238zM483 1360l265 282l141 -28l-297 -254h-109z" />
<glyph unicode="&#xdb;" horiz-adv-x="1308" d="M190 401v852h148v-784q0 -196 89.5 -281.5t252.5 -85.5q142 0 221.5 78.5t79.5 235.5v837h137v-790q0 -235 -124 -359t-359 -124q-130 -1 -228.5 42.5t-157.5 140.5t-59 238zM356 1360l258 282h76l258 -282h-110l-185 164l-186 -164h-111z" />
<glyph unicode="&#xdc;" horiz-adv-x="1308" d="M190 401v852h148v-784q0 -196 89.5 -281.5t252.5 -85.5q142 0 221.5 78.5t79.5 235.5v837h137v-790q0 -235 -124 -359t-359 -124q-130 -1 -228.5 42.5t-157.5 140.5t-59 238zM385 1536q0 26 32 59t54 33t59 -25.5t37 -48.5q0 -27 -32.5 -60.5t-53.5 -33.5q-24 0 -60 26.5 t-36 49.5zM741 1536q0 26 32 59t54 33t59.5 -25.5t37.5 -48.5q0 -27 -32.5 -60.5t-53.5 -33.5q-24 0 -60.5 26.5t-36.5 49.5z" />
<glyph unicode="&#xdd;" horiz-adv-x="1064" d="M14 1253h170l369 -610l342 610h147l-426 -741v-512h-147v512zM393 1360l264 282l142 -28l-297 -254h-109z" />
<glyph unicode="&#xde;" horiz-adv-x="1021" d="M203 0v1253h147v-229h197q204 0 316 -90.5t112 -251.5q0 -80 -27 -148t-74.5 -116.5t-111.5 -82.5t-139.5 -50.5t-157.5 -16.5q-21 0 -59 1t-56 1v-270h-147zM350 385q114 -8 178 -8q138 0 216.5 65t78.5 199q0 132 -84 203t-243 71h-146v-530z" />
<glyph unicode="&#xdf;" horiz-adv-x="1073" d="M164 0v971q0 110 32.5 199t88 146t127.5 87.5t153 30.5q133 0 216 -74.5t83 -183.5q0 -56 -26.5 -109.5t-64 -95t-75 -79.5t-64 -78t-26.5 -77q0 -14 2.5 -26t5.5 -20.5t12.5 -19t15 -16.5t22 -17.5t24.5 -17t32 -20.5t36 -22l80 -52q75 -50 117 -117.5t42 -140.5 q0 -130 -95 -210.5t-263 -80.5q-32 0 -65.5 3.5t-51 7t-52.5 11.5t-42 9l27 121q10 -3 45 -14.5t49.5 -15.5t44 -11t56.5 -9.5t57 -2.5q70 0 122 33.5t52 97.5q0 70 -34.5 120.5t-125.5 108.5l-82 51q-78 51 -114 103.5t-36 122.5q0 41 14 78t36 65.5t48.5 55.5t53 52.5 t48.5 51t36 56.5t14 65q0 92 -63 147t-162 55q-95 0 -155 -76t-60 -221v-1042h-135z" />
<glyph unicode="&#xe0;" horiz-adv-x="886" d="M88 215q0 133 130 213.5t396 81.5v108q0 101 -50.5 158.5t-139.5 57.5q-101 0 -277 -62l-34 90q110 42 185.5 61t168.5 19q128 0 201 -73t73 -216v-651l-92 -22l-33 110q-178 -110 -268 -110q-112 0 -186 65t-74 170zM213 248q0 -79 50.5 -119.5t113.5 -40.5q87 0 237 80 v231q-122 9 -161 9q-106 0 -173 -42t-67 -118zM272 1307l142 28l264 -282h-109z" />
<glyph unicode="&#xe1;" horiz-adv-x="886" d="M88 215q0 133 130 213.5t396 81.5v108q0 101 -50.5 158.5t-139.5 57.5q-101 0 -277 -62l-34 90q110 42 185.5 61t168.5 19q128 0 201 -73t73 -216v-651l-92 -22l-33 110q-178 -110 -268 -110q-112 0 -186 65t-74 170zM213 248q0 -79 50.5 -119.5t113.5 -40.5q87 0 237 80 v231q-122 9 -161 9q-106 0 -173 -42t-67 -118zM328 1053l264 282l141 -28l-297 -254h-108z" />
<glyph unicode="&#xe2;" horiz-adv-x="886" d="M88 215q0 133 130 213.5t396 81.5v108q0 101 -50.5 158.5t-139.5 57.5q-101 0 -277 -62l-34 90q110 42 185.5 61t168.5 19q128 0 201 -73t73 -216v-651l-92 -22l-33 110q-178 -110 -268 -110q-112 0 -186 65t-74 170zM156 1053l258 282h75l259 -282h-111l-184 164 l-187 -164h-110zM213 248q0 -79 50.5 -119.5t113.5 -40.5q87 0 237 80v231q-122 9 -161 9q-106 0 -173 -42t-67 -118z" />
<glyph unicode="&#xe3;" horiz-adv-x="886" d="M88 215q0 133 130 213.5t396 81.5v108q0 101 -50.5 158.5t-139.5 57.5q-101 0 -277 -62l-34 90q110 42 185.5 61t168.5 19q128 0 201 -73t73 -216v-651l-92 -22l-33 110q-178 -110 -268 -110q-112 0 -186 65t-74 170zM113 1149q32 35 55.5 56.5t65 44t81.5 22.5 q46 0 127 -30t107 -30q63 0 129 62l55 -60q-58 -63 -86 -84q-51 -36 -104 -36q-40 0 -131 33.5t-115 33.5q-34 0 -75 -25t-58 -42zM213 248q0 -79 50.5 -119.5t113.5 -40.5q87 0 237 80v231q-122 9 -161 9q-106 0 -173 -42t-67 -118z" />
<glyph unicode="&#xe4;" horiz-adv-x="886" d="M88 215q0 133 130 213.5t396 81.5v108q0 101 -50.5 158.5t-139.5 57.5q-101 0 -277 -62l-34 90q110 42 185.5 61t168.5 19q128 0 201 -73t73 -216v-651l-92 -22l-33 110q-178 -110 -268 -110q-112 0 -186 65t-74 170zM150 1229q0 26 32 59t54 33t59 -25.5t37 -48.5 q0 -27 -32.5 -60.5t-53.5 -33.5q-24 0 -60 26.5t-36 49.5zM213 248q0 -79 50.5 -119.5t113.5 -40.5q87 0 237 80v231q-122 9 -161 9q-106 0 -173 -42t-67 -118zM506 1229q0 26 32 59t54 33t59 -25.5t37 -48.5q0 -27 -32.5 -60.5t-53.5 -33.5q-24 0 -60 26.5t-36 49.5z" />
<glyph unicode="&#xe5;" horiz-adv-x="886" d="M88 215q0 133 130 213.5t396 81.5v108q0 101 -50.5 158.5t-139.5 57.5q-101 0 -277 -62l-34 90q110 42 185.5 61t168.5 19q128 0 201 -73t73 -216v-651l-92 -22l-33 110q-178 -110 -268 -110q-112 0 -186 65t-74 170zM213 248q0 -79 50.5 -119.5t113.5 -40.5q87 0 237 80 v231q-122 9 -161 9q-106 0 -173 -42t-67 -118zM238 1208q0 72 55.5 124t128.5 52q76 0 129 -46.5t53 -129.5q0 -71 -56 -121.5t-128 -50.5q-75 0 -128.5 45.5t-53.5 126.5zM326 1208q0 -41 28 -67.5t66 -26.5t67 26.5t29 67.5q0 44 -28.5 71.5t-67.5 27.5q-38 0 -66 -27.5 t-28 -71.5z" />
<glyph unicode="&#xe6;" horiz-adv-x="1415" d="M88 215q0 132 128 212t390 83q1 5 2 14.5t2 14.5v98q0 56 -17.5 97t-48 62t-62.5 30.5t-68 9.5q-73 0 -271 -62l-30 88q110 42 185.5 61t168.5 19q194 0 240 -147q111 147 303 147q151 0 236 -90.5t85 -255.5q0 -88 -2 -98h-596q-2 -18 -2 -58q0 -102 24 -173t69.5 -109 t98.5 -54t121 -16q121 0 265 51l26 -92q-185 -67 -346 -67q-203 0 -307 141q-81 -57 -181 -99t-157 -42q-110 0 -183 65t-73 170zM213 248q0 -79 50.5 -119.5t113.5 -40.5q102 0 268 98q-43 90 -43 215q-101 7 -149 7q-106 0 -173 -42t-67 -118zM739 592h463 q0 130 -55.5 193t-175.5 63q-99 0 -156.5 -59.5t-75.5 -196.5z" />
<glyph unicode="&#xe7;" horiz-adv-x="835" d="M94 442q0 223 120.5 361.5t307.5 138.5q82 0 148.5 -10.5t93.5 -26.5l-23 -106l-23 7q-22 7 -26 8t-25 6.5t-29.5 7t-28 5.5t-32.5 5.5t-30.5 3.5t-34.5 2q-126 -2 -202.5 -96.5t-76.5 -280.5q0 -188 80.5 -284.5t216.5 -96.5q108 0 236 45l22 -86q-41 -22 -111.5 -40.5 t-137.5 -22.5l-45 -95q6 -3 25.5 -12.5t25 -12.5t21.5 -11.5t21 -12.5t17 -12.5t15.5 -14t11 -14.5t9.5 -17.5t4.5 -19t2.5 -22.5q0 -71 -74.5 -129t-222.5 -74l-18 76q70 9 110.5 18.5t68.5 29.5t28 50t-37 52t-121 46l-6 11l76 164q-170 15 -263.5 138t-93.5 322z" />
<glyph unicode="&#xe8;" horiz-adv-x="911" d="M94 440q0 237 115 369.5t293 132.5q149 0 237 -90t88 -242q0 -92 -2 -112h-602v-39q0 -100 27 -174t74 -115.5t102.5 -61.5t120.5 -20q139 0 258 51l26 -92q-168 -67 -313 -67q-191 0 -307.5 116.5t-116.5 343.5zM231 592h463q0 256 -219 256q-108 0 -167.5 -57.5 t-76.5 -198.5zM342 1307l141 28l265 -282h-109z" />
<glyph unicode="&#xe9;" horiz-adv-x="911" d="M94 440q0 237 115 369.5t293 132.5q149 0 237 -90t88 -242q0 -92 -2 -112h-602v-39q0 -100 27 -174t74 -115.5t102.5 -61.5t120.5 -20q139 0 258 51l26 -92q-168 -67 -313 -67q-191 0 -307.5 116.5t-116.5 343.5zM231 592h463q0 256 -219 256q-108 0 -167.5 -57.5 t-76.5 -198.5zM369 1053l264 282l141 -28l-297 -254h-108z" />
<glyph unicode="&#xea;" horiz-adv-x="911" d="M94 440q0 237 115 369.5t293 132.5q149 0 237 -90t88 -242q0 -92 -2 -112h-602v-39q0 -100 27 -174t74 -115.5t102.5 -61.5t120.5 -20q139 0 258 51l26 -92q-168 -67 -313 -67q-191 0 -307.5 116.5t-116.5 343.5zM207 1053l258 282h76l258 -282h-111l-184 164l-187 -164 h-110zM231 592h463q0 256 -219 256q-108 0 -167.5 -57.5t-76.5 -198.5z" />
<glyph unicode="&#xeb;" horiz-adv-x="911" d="M94 440q0 237 115 369.5t293 132.5q149 0 237 -90t88 -242q0 -92 -2 -112h-602v-39q0 -100 27 -174t74 -115.5t102.5 -61.5t120.5 -20q139 0 258 51l26 -92q-168 -67 -313 -67q-191 0 -307.5 116.5t-116.5 343.5zM231 592h463q0 256 -219 256q-108 0 -167.5 -57.5 t-76.5 -198.5zM242 1229q0 26 32 59t54 33t59 -25.5t37 -48.5q0 -27 -32.5 -60.5t-53.5 -33.5q-24 0 -60 26.5t-36 49.5zM598 1229q0 26 32 59t54 33t59 -25.5t37 -48.5q0 -27 -32.5 -60.5t-53.5 -33.5q-24 0 -60 26.5t-36 49.5z" />
<glyph unicode="&#xec;" horiz-adv-x="462" d="M18 1307l142 28l264 -282h-109zM162 0v918l135 24v-942h-135z" />
<glyph unicode="&#xed;" horiz-adv-x="462" d="M141 1053l265 282l141 -28l-297 -254h-109zM166 0v918l135 24v-942h-135z" />
<glyph unicode="&#xee;" horiz-adv-x="462" d="M-66 1053l259 282h75l258 -282h-110l-185 164l-186 -164h-111zM166 0v918l135 24v-942h-135z" />
<glyph unicode="&#xef;" horiz-adv-x="462" d="M2 1221q0 26 32 59t54 33q21 0 57.5 -25.5t36.5 -48.5q0 -27 -31.5 -60.5t-52.5 -33.5q-24 0 -60 26.5t-36 49.5zM166 0v918l135 24v-942h-135zM287 1221q0 25 31.5 58.5t52.5 33.5q23 0 59.5 -25.5t36.5 -48.5q0 -27 -32.5 -60.5t-53.5 -33.5q-22 0 -58 26.5t-36 49.5z " />
<glyph unicode="&#xf0;" horiz-adv-x="999" d="M94 422q0 128 39.5 230.5t104 164t140 93.5t154.5 32q100 0 170 -37q-75 155 -210 273l-246 -134l-53 68l227 123q-106 77 -234 139l66 62q153 -63 272 -144l258 142l56 -68l-238 -129q320 -265 320 -727q0 -105 -29 -199.5t-83.5 -169t-142.5 -118t-198 -43.5 q-165 0 -269 115.5t-104 326.5zM225 469q0 -193 82.5 -287t210.5 -94q65 0 112 18.5t84 61.5t56.5 120t20.5 189q0 158 -39 295q-95 57 -260 57q-130 0 -198.5 -90t-68.5 -270z" />
<glyph unicode="&#xf1;" horiz-adv-x="1015" d="M164 0v920l98 22l31 -102q70 40 155 71t144 31q129 0 203.5 -74t74.5 -194v-674h-135v618q0 98 -51 152.5t-139 54.5q-97 0 -246 -67v-758h-135zM213 1149q23 25 40.5 41.5t45 38t57.5 32.5t60 11q46 0 126.5 -30t106.5 -30q63 0 129 62l56 -60q-60 -65 -90 -86 q-49 -34 -101 -34q-40 0 -131 33.5t-115 33.5q-34 0 -75 -25t-58 -42z" />
<glyph unicode="&#xf2;" horiz-adv-x="1007" d="M82 442q0 235 125 367.5t338 132.5q175 0 278 -124t103 -339q0 -234 -124 -367.5t-331 -136.5q-174 3 -281.5 129t-107.5 338zM217 485q0 -204 81 -301.5t226 -97.5q130 0 198.5 92t68.5 258q0 205 -82 302.5t-228 97.5q-129 0 -196.5 -91t-67.5 -260zM365 1307l141 28 l264 -282h-108z" />
<glyph unicode="&#xf3;" horiz-adv-x="1007" d="M82 442q0 235 125 367.5t338 132.5q175 0 278 -124t103 -339q0 -234 -124 -367.5t-331 -136.5q-174 3 -281.5 129t-107.5 338zM217 485q0 -204 81 -301.5t226 -97.5q130 0 198.5 92t68.5 258q0 205 -82 302.5t-228 97.5q-129 0 -196.5 -91t-67.5 -260zM381 1053l264 282 l141 -28l-297 -254h-108z" />
<glyph unicode="&#xf4;" horiz-adv-x="1007" d="M82 442q0 235 125 367.5t338 132.5q175 0 278 -124t103 -339q0 -234 -124 -367.5t-331 -136.5q-174 3 -281.5 129t-107.5 338zM215 1053l258 282h76l258 -282h-111l-184 164l-186 -164h-111zM217 485q0 -204 81 -301.5t226 -97.5q130 0 198.5 92t68.5 258 q0 205 -82 302.5t-228 97.5q-129 0 -196.5 -91t-67.5 -260z" />
<glyph unicode="&#xf5;" horiz-adv-x="1007" d="M82 442q0 235 125 367.5t338 132.5q175 0 278 -124t103 -339q0 -234 -124 -367.5t-331 -136.5q-174 3 -281.5 129t-107.5 338zM197 1149q32 35 55.5 56.5t65 44t81.5 22.5q46 0 127 -30t107 -30q63 0 129 62l55 -60q-58 -63 -86 -84q-51 -36 -104 -36q-40 0 -131 33.5 t-115 33.5q-34 0 -75 -25t-58 -42zM217 485q0 -204 81 -301.5t226 -97.5q130 0 198.5 92t68.5 258q0 205 -82 302.5t-228 97.5q-129 0 -196.5 -91t-67.5 -260z" />
<glyph unicode="&#xf6;" horiz-adv-x="1007" d="M82 442q0 235 125 367.5t338 132.5q175 0 278 -124t103 -339q0 -234 -124 -367.5t-331 -136.5q-174 3 -281.5 129t-107.5 338zM217 485q0 -204 81 -301.5t226 -97.5q130 0 198.5 92t68.5 258q0 205 -82 302.5t-228 97.5q-129 0 -196.5 -91t-67.5 -260zM244 1229 q0 26 32 59t54 33t59 -25.5t37 -48.5q0 -27 -32.5 -60.5t-53.5 -33.5q-24 0 -60 26.5t-36 49.5zM600 1229q0 26 32 59t54 33t59 -25.5t37 -48.5q0 -27 -32.5 -60.5t-53.5 -33.5q-24 0 -60 26.5t-36 49.5z" />
<glyph unicode="&#xf7;" d="M92 487v105h873v-105h-873zM418 211q0 30 39.5 72.5t66.5 42.5q29 0 75 -34.5t46 -64.5t-40 -71t-68 -41t-73.5 33.5t-45.5 62.5zM418 852q0 30 39.5 72.5t66.5 42.5q35 0 78 -34t43 -65q0 -30 -40 -71t-68 -41q-30 0 -74.5 33.5t-44.5 62.5z" />
<glyph unicode="&#xf8;" horiz-adv-x="1007" d="M82 442q0 235 125 367.5t338 132.5q73 0 129 -20l69 149h101l-88 -190q82 -57 126 -160t44 -242q0 -234 -124 -367.5t-331 -136.5q-58 0 -123 21l-65 -141h-99l84 180q-89 58 -137.5 162t-48.5 245zM217 485q0 -231 107 -327l299 649q-59 29 -142 29q-129 0 -196.5 -91 t-67.5 -260zM399 109q53 -23 125 -23q130 0 198.5 92t68.5 258q0 215 -95 316z" />
<glyph unicode="&#xf9;" horiz-adv-x="1015" d="M145 248v672l136 22v-639q0 -98 52 -154.5t140 -56.5t244 72v756l135 22v-940l-94 -22l-35 104q-66 -40 -152.5 -72t-146.5 -32q-129 0 -204 74t-75 194zM317 1307l142 28l264 -282h-109z" />
<glyph unicode="&#xfa;" horiz-adv-x="1015" d="M145 248v672l136 22v-639q0 -98 52 -154.5t140 -56.5t244 72v756l135 22v-940l-94 -22l-35 104q-66 -40 -152.5 -72t-146.5 -32q-129 0 -204 74t-75 194zM385 1053l264 282l142 -28l-297 -254h-109z" />
<glyph unicode="&#xfb;" horiz-adv-x="1015" d="M145 248v672l136 22v-639q0 -98 52 -154.5t140 -56.5t244 72v756l135 22v-940l-94 -22l-35 104q-66 -40 -152.5 -72t-146.5 -32q-129 0 -204 74t-75 194zM213 1053l258 282h76l258 -282h-111l-184 164l-186 -164h-111z" />
<glyph unicode="&#xfc;" horiz-adv-x="1015" d="M145 248v672l136 22v-639q0 -98 52 -154.5t140 -56.5t244 72v756l135 22v-940l-94 -22l-35 104q-66 -40 -152.5 -72t-146.5 -32q-129 0 -204 74t-75 194zM238 1229q0 26 32 59t54 33t59 -25.5t37 -48.5q0 -27 -32.5 -60.5t-53.5 -33.5q-24 0 -60 26.5t-36 49.5zM594 1229 q0 26 32 59t54 33t59 -25.5t37 -48.5q0 -27 -32.5 -60.5t-53.5 -33.5q-24 0 -60 26.5t-36 49.5z" />
<glyph unicode="&#xfd;" horiz-adv-x="886" d="M-16 -342q295 -25 438 342h-47l-332 909l135 27l287 -811q33 96 98.5 280.5t115.5 326.5t64 190h136q-38 -109 -169.5 -473t-170.5 -467q-88 -222 -218.5 -334.5t-289.5 -112.5h-29zM365 1053l264 282l141 -28l-297 -254h-108z" />
<glyph unicode="&#xfe;" horiz-adv-x="1036" d="M164 -440v1831l135 24v-573q77 43 156.5 71.5t124.5 28.5q67 1 128.5 -25t114.5 -79t85 -144.5t32 -210.5q0 -102 -25.5 -187t-67.5 -142.5t-98.5 -97.5t-117 -58t-123.5 -18q-104 0 -209 43v-439zM299 131q120 -45 248 -45q113 0 185.5 96t72.5 283q0 99 -25 173 t-66.5 113.5t-86 57.5t-92.5 18q-115 0 -236 -67v-629z" />
<glyph unicode="&#xff;" horiz-adv-x="886" d="M-16 -342q295 -25 438 342h-47l-332 909l135 27l287 -811q33 96 98.5 280.5t115.5 326.5t64 190h136q-38 -109 -169.5 -473t-170.5 -467q-88 -222 -218.5 -334.5t-289.5 -112.5h-29zM213 1229q0 26 32 59t54 33t59 -25.5t37 -48.5q0 -27 -32.5 -60.5t-53.5 -33.5 q-24 0 -60 26.5t-36 49.5zM569 1229q0 26 32 59t54 33t59.5 -25.5t37.5 -48.5q0 -27 -32.5 -60.5t-53.5 -33.5q-24 0 -60.5 26.5t-36.5 49.5z" />
<glyph unicode="&#x152;" horiz-adv-x="1705" d="M102 602q0 156 46.5 284t127.5 212.5t189.5 130t232.5 45.5q95 0 183 -31v10h700l-18 -120l-535 8v-434h492l-21 -115l-471 6v-479l586 8l-19 -127h-714v37q-105 -57 -252 -57q-231 0 -379 165.5t-148 456.5zM248 659q0 -121 22.5 -216.5t62 -160.5t96.5 -107.5 t123 -61.5t144 -19q108 0 185 43v965q-97 57 -240 57q-80 0 -149 -29.5t-124.5 -88.5t-87.5 -157t-32 -225z" />
<glyph unicode="&#x153;" horiz-adv-x="1611" d="M82 442q0 235 125 367.5t338 132.5q110 0 193 -50t130 -144q55 94 142 144t194 50q149 0 237.5 -90t88.5 -242q0 -92 -2 -112h-602v-39q0 -100 27 -174t73.5 -115.5t102 -61.5t120.5 -20q139 0 258 51l27 -92q-168 -67 -313 -67q-124 0 -219 50.5t-148 149.5 q-58 -98 -156.5 -150.5t-226.5 -54.5q-174 3 -281.5 129t-107.5 338zM217 485q0 -204 81 -301.5t226 -97.5q130 0 198.5 92t68.5 258q0 205 -82 302.5t-228 97.5q-129 0 -196.5 -91t-67.5 -260zM934 592h463q0 256 -219 256q-108 0 -167.5 -57.5t-76.5 -198.5z" />
<glyph unicode="&#x178;" horiz-adv-x="1064" d="M14 1253h170l369 -610l342 610h147l-426 -741v-512h-147v512zM264 1536q0 26 32 59t54 33t59 -25.5t37 -48.5q0 -27 -32.5 -60.5t-53.5 -33.5q-24 0 -60 26.5t-36 49.5zM621 1536q0 26 32 59t54 33t59 -25.5t37 -48.5q0 -27 -32.5 -60.5t-53.5 -33.5q-24 0 -60 26.5 t-36 49.5z" />
<glyph unicode="&#x2c6;" horiz-adv-x="882" d="M145 1053l258 282h76l258 -282h-110l-185 164l-186 -164h-111z" />
<glyph unicode="&#x2dc;" horiz-adv-x="894" d="M137 1149q23 25 40.5 41.5t45 38t57.5 32.5t60 11q46 0 126.5 -30t106.5 -30q63 0 129 62l56 -60q-60 -65 -90 -86q-49 -34 -101 -34q-40 0 -130.5 33.5t-114.5 33.5q-34 0 -76 -25.5t-58 -41.5z" />
<glyph unicode="&#x2000;" horiz-adv-x="846" />
<glyph unicode="&#x2001;" horiz-adv-x="1692" />
<glyph unicode="&#x2002;" horiz-adv-x="846" />
<glyph unicode="&#x2003;" horiz-adv-x="1692" />
<glyph unicode="&#x2004;" horiz-adv-x="564" />
<glyph unicode="&#x2005;" horiz-adv-x="423" />
<glyph unicode="&#x2006;" horiz-adv-x="282" />
<glyph unicode="&#x2007;" horiz-adv-x="282" />
<glyph unicode="&#x2008;" horiz-adv-x="211" />
<glyph unicode="&#x2009;" horiz-adv-x="338" />
<glyph unicode="&#x200a;" horiz-adv-x="94" />
<glyph unicode="&#x2010;" horiz-adv-x="636" d="M98 446v25l31 82h412v-25l-35 -82h-408z" />
<glyph unicode="&#x2011;" horiz-adv-x="636" d="M98 446v25l31 82h412v-25l-35 -82h-408z" />
<glyph unicode="&#x2012;" horiz-adv-x="636" d="M98 446v25l31 82h412v-25l-35 -82h-408z" />
<glyph unicode="&#x2013;" horiz-adv-x="929" d="M98 446v25l31 76h702v-25l-34 -76h-699z" />
<glyph unicode="&#x2014;" horiz-adv-x="1327" d="M98 446v25l31 76h1102v-25l-35 -76h-1098z" />
<glyph unicode="&#x2018;" horiz-adv-x="475" d="M129 1085q0 39 29 119t96 238l92 -33q-86 -229 -86 -262q0 -9 34 -43t34 -60q0 -28 -31 -55.5t-57 -27.5t-68.5 40.5t-42.5 83.5z" />
<glyph unicode="&#x2019;" horiz-adv-x="475" d="M129 969q88 235 88 262q0 9 -33.5 42t-33.5 60q0 28 30 55t56 27t68 -40t42 -83q0 -68 -125 -356z" />
<glyph unicode="&#x201a;" horiz-adv-x="475" d="M129 -281q88 235 88 263q0 9 -16.5 25t-33.5 36.5t-17 40.5q0 28 30 55t56 27t68 -40t42 -83q0 -68 -125 -356z" />
<glyph unicode="&#x201c;" horiz-adv-x="776" d="M129 1085q0 39 29 119t96 238l92 -33q-86 -229 -86 -262q0 -9 34 -43t34 -60q0 -28 -31 -55.5t-57 -27.5t-68.5 40.5t-42.5 83.5zM430 1085q0 69 125 357l92 -33q-86 -229 -86 -262q0 -9 34 -43t34 -60q0 -28 -31 -55.5t-57 -27.5t-68.5 40.5t-42.5 83.5z" />
<glyph unicode="&#x201d;" horiz-adv-x="761" d="M129 969q88 235 88 262q0 9 -33.5 42t-33.5 60q0 28 30 55t56 27t68 -40t42 -83q0 -68 -125 -356zM414 969q88 235 88 262q0 9 -34 42t-34 60q0 28 30 55t56 27t68.5 -40t42.5 -83q0 -68 -125 -356z" />
<glyph unicode="&#x201e;" horiz-adv-x="768" d="M129 -281q88 235 88 263q0 9 -16.5 25t-33.5 36.5t-17 40.5q0 28 30 55t56 27t68 -40t42 -83q0 -68 -125 -356zM420 -281q88 235 88 263q0 9 -17 25t-34 36.5t-17 40.5q0 28 30 55t56 27t68.5 -40t42.5 -83q0 -68 -125 -356z" />
<glyph unicode="&#x2022;" horiz-adv-x="536" d="M92 545q0 49 61.5 114.5t106.5 65.5q44 0 113 -54t69 -102q0 -49 -62 -114.5t-104 -65.5q-45 0 -114.5 54t-69.5 102z" />
<glyph unicode="&#x2026;" horiz-adv-x="1533" d="M133 84q0 30 36.5 69.5t61.5 39.5q27 0 70 -33t43 -62q0 -30 -37.5 -68t-64.5 -38t-68 31t-41 61zM659 84q0 30 37 69.5t64 39.5t68.5 -33t41.5 -62q0 -30 -36.5 -68t-63.5 -38q-28 0 -69.5 31t-41.5 61zM1190 84q0 30 36.5 69.5t63.5 39.5t69 -33t42 -62q0 -30 -37 -68 t-64 -38q-28 0 -69 31t-41 61z" />
<glyph unicode="&#x202f;" horiz-adv-x="338" />
<glyph unicode="&#x2039;" horiz-adv-x="679" d="M109 475l372 395l66 -67l-271 -328l271 -328l-66 -67z" />
<glyph unicode="&#x203a;" horiz-adv-x="679" d="M133 147l270 328l-270 330l66 65l372 -395l-372 -395z" />
<glyph unicode="&#x205f;" horiz-adv-x="423" />
<glyph unicode="&#x20ac;" d="M25 686l26 84l111 16h33q41 238 179.5 363t325.5 125q86 0 188 -18t148 -42l-47 -122q-56 27 -153.5 46t-178.5 19q-132 0 -215.5 -85.5t-105.5 -285.5h536l-28 -100h-514v-39q0 -42 4 -108h479l-29 -103h-438q31 -176 123.5 -256t245.5 -80q160 0 315 76l25 -113 q-59 -33 -159.5 -58t-201.5 -25q-438 0 -504 456h-163l26 86l107 17h22q-2 20 -2 65q0 55 2 82h-157z" />
<glyph unicode="&#x25fc;" horiz-adv-x="931" d="M0 0v932h932v-932h-932z" />
</font>
</defs>
</svg>
