<?xml version="1.0" standalone="no"?>
<!DOCTYPE svg PUBLIC "-//W3C//DTD SVG 1.1//EN" "http://www.w3.org/Graphics/SVG/1.1/DTD/svg11.dtd" >
<svg xmlns="http://www.w3.org/2000/svg">
<metadata></metadata>
<defs>
<font id="ancizar_sansregular_italic" horiz-adv-x="1019" >
<font-face units-per-em="2048" ascent="1536" descent="-512" />
<missing-glyph horiz-adv-x="444" />
<glyph unicode="&#xfb01;" horiz-adv-x="956" d="M-199 -457l33 142q66 -19 129 -19q64 0 108 64t54 207l61 866h-125l13 98l121 21l6 94q7 107 44.5 191.5t96.5 136.5t131.5 79t153.5 27q152 0 258 -39l-54 -147q-52 22 -125.5 35.5t-136.5 13.5q-85 0 -136 -50.5t-58 -154.5l-13 -186h351l143 24l-68 -946h-165l57 803 h-326l-57 -803q-9 -124 -45 -217t-91 -147.5t-120.5 -80.5t-140.5 -26q-48 0 -99 14z" />
<glyph unicode="&#xfb02;" horiz-adv-x="1024" d="M-199 -457l33 142q66 -19 129 -19q64 0 108 64t54 207l61 866h-125l13 98l121 21l6 94q7 107 44.5 191.5t96.5 136.5t131.5 79t153.5 27q80 0 168 -16l94 16q-20 -288 -37.5 -526t-27 -358t-16.5 -206.5t-9 -118.5t-2 -46q0 -34 15 -52t38 -18q45 0 111 49l26 -106 q-139 -93 -217 -93q-61 0 -102 41t-41 117q0 15 2 40.5t8 100.5t14.5 183.5t25 334t36.5 506.5q-92 15 -144 15q-85 0 -136 -50.5t-58 -154.5l-13 -186h203l-26 -119h-185l-57 -803q-9 -124 -45 -217t-91 -147.5t-120.5 -80.5t-140.5 -26q-48 0 -99 14z" />
<glyph unicode="&#xfb03;" horiz-adv-x="1449" d="M-199 -457l33 142q66 -19 129 -19q64 0 108 64t54 207l61 866h-125l13 98l121 21l4 53q7 101 34.5 178.5t66 125t90 77.5t102.5 41.5t108 11.5q65 0 105 -12l-33 -140q-61 15 -146 15q-60 0 -102.5 -40.5t-48.5 -125.5l-13 -184h326l6 94q7 107 44.5 191.5t96.5 136.5 t131.5 79t153.5 27q152 0 258 -39l-53 -147q-52 22 -125.5 35.5t-136.5 13.5q-85 0 -136.5 -50.5t-58.5 -154.5l-12 -186h350l144 24l-68 -946h-166l58 803h-326l-57 -803q-9 -124 -45 -217t-91.5 -147.5t-121 -80.5t-140.5 -26q-47 0 -98 14l33 142q67 -19 129 -19 q63 0 107 64t54 207l62 866h-326l-57 -803q-9 -124 -45 -217t-91 -147.5t-120.5 -80.5t-140.5 -26q-48 0 -99 14z" />
<glyph unicode="&#xfb04;" horiz-adv-x="1517" d="M-199 -457l33 142q66 -19 129 -19q64 0 108 64t54 207l61 866h-125l13 98l121 21l4 53q7 101 34.5 178.5t66 125t90 77.5t102.5 41.5t108 11.5q65 0 105 -12l-33 -140q-61 15 -146 15q-60 0 -102.5 -40.5t-48.5 -125.5l-13 -184h326l6 94q7 107 44.5 191.5t96.5 136.5 t131.5 79t153.5 27q80 0 168 -16l94 16q-20 -288 -37.5 -526t-27 -358t-16.5 -206.5t-9 -118.5t-2 -46q0 -34 15 -52t38 -18q45 0 111 49l27 -106q-139 -93 -217 -93q-61 0 -102.5 41t-41.5 117q0 15 2 40.5t8 100.5t14.5 183.5t25 334t36.5 506.5q-92 15 -143 15 q-85 0 -136.5 -50.5t-58.5 -154.5l-12 -186h213l-27 -119h-194l-57 -803q-9 -124 -45 -217t-91.5 -147.5t-121 -80.5t-140.5 -26q-47 0 -98 14l33 142q67 -19 129 -19q63 0 107 64t54 207l62 866h-326l-57 -803q-9 -124 -45 -217t-91 -147.5t-120.5 -80.5t-140.5 -26 q-48 0 -99 14z" />
<glyph horiz-adv-x="0" />
<glyph horiz-adv-x="682" />
<glyph unicode=" "  horiz-adv-x="444" />
<glyph unicode="&#x09;" horiz-adv-x="444" />
<glyph unicode="&#xa0;" horiz-adv-x="444" />
<glyph unicode="!" horiz-adv-x="626" d="M145 88q3 36 55.5 83.5t84.5 47.5q30 0 76 -43.5t45 -77.5q-3 -36 -54.5 -82.5t-81.5 -46.5q-32 0 -79 43t-46 76zM215 315q18 227 25.5 487.5t-2.5 444.5l213 64q-70 -568 -97 -957z" />
<glyph unicode="&#x22;" horiz-adv-x="667" d="M162 977l2 442h164l-64 -442h-102zM440 977l2 442h164l-63 -442h-103z" />
<glyph unicode="#" horiz-adv-x="1081" d="M20 379l3 31l36 75h207l76 246h-236l3 31l36 74h230l131 417h123l-131 -417h233l131 417h123l-131 -417h207l-2 -31l-37 -74h-201l-76 -246h230l-2 -30l-37 -76h-223l-119 -379h-123l119 379h-234l-118 -379h-123l118 379h-213zM389 485h234l75 246h-233z" />
<glyph unicode="$" d="M80 25l45 151q178 -66 338 -63q97 -1 159 54.5t62 139.5q0 78 -33.5 130t-130.5 102l-112 57q-124 63 -183 134.5t-59 176.5q0 141 96.5 241t247.5 124l-4 254h162l-39 -248q168 -5 274 -47l-41 -154q-192 66 -334 66q-81 0 -134.5 -53t-53.5 -125q0 -69 36.5 -120.5 t133.5 -101.5l117 -59q123 -62 180 -135t57 -170q0 -144 -92.5 -246.5t-245.5 -138.5l6 -281h-161l41 264q-14 -2 -43 -2q-171 0 -289 50z" />
<glyph unicode="%" horiz-adv-x="1251" d="M59 0l998 1253h137l-995 -1253h-140zM86 967q8 131 98 222t217 91q116 0 183 -80t59 -205q-9 -133 -99.5 -223t-217.5 -90q-119 0 -184 79.5t-56 205.5zM211 983q-15 -203 151 -203q139 0 152 199q7 101 -32.5 152t-119.5 51q-74 0 -109.5 -50t-41.5 -149zM608 260 q9 131 100 222t218 91q116 0 182 -79.5t57 -204.5q-9 -133 -98.5 -223.5t-216.5 -90.5q-118 0 -184 79.5t-58 205.5zM735 276q-7 -101 32 -151.5t120 -50.5q139 0 151 198q7 101 -32.5 152t-118.5 51q-74 0 -110 -50t-42 -149z" />
<glyph unicode="&#x26;" horiz-adv-x="1236" d="M68 254q0 215 297 403q-69 80 -105.5 145t-36.5 134q0 144 110.5 243t266.5 99q175 0 283 -64l-52 -129q-144 68 -278 68q-68 0 -118 -46.5t-50 -117.5q0 -42 23.5 -87t52 -79t94.5 -107.5t111 -127.5q130 -155 208 -254q91 132 91 270q0 131 -68 238l150 63 q32 -44 49.5 -112t17.5 -136q0 -218 -168 -417q72 -100 102.5 -173.5t30.5 -148.5q0 -189 -182 -340l-96 88q71 64 102 108.5t31 100.5q0 42 -26 96t-95 148q-192 -142 -414 -142q-147 0 -239 78.5t-92 198.5zM227 303q0 -87 72 -143t170 -56q146 0 279 99q-25 32 -59 73.5 t-83 100.5t-84 102q-55 66 -94 107q-201 -132 -201 -283z" />
<glyph unicode="'" horiz-adv-x="389" d="M162 977l2 442h164l-64 -442h-102z" />
<glyph unicode="(" horiz-adv-x="655" d="M141 580q19 267 128 477t327 366l82 -82q-365 -278 -397 -761q-32 -485 290 -762l-94 -82q-376 289 -336 844z" />
<glyph unicode=")" horiz-adv-x="655" d="M-23 -184q366 279 398 762t-291 761l94 82q376 -289 336 -843q-19 -267 -128.5 -477.5t-326.5 -366.5z" />
<glyph unicode="*" horiz-adv-x="862" d="M121 866q36 52 116 100.5t162 65.5l21 -35q-48 -36 -107 -96t-100 -115zM129 1110l31 125q60 -3 136 -45t128 -103l-21 -38q-51 23 -128.5 39.5t-145.5 21.5zM377 1364l121 45q24 -70 18 -164q-7 -86 -33 -147l-41 -8q-5 60 -23 137.5t-42 136.5zM399 834q7 84 33 153 l43 6q5 -59 23.5 -137t42.5 -135l-123 -47q-25 62 -19 160zM492 995l20 37q50 -21 129.5 -38.5t144.5 -22.5l-28 -125q-61 3 -137 45t-129 104zM494 1085q49 36 109.5 95t98.5 110l95 -78q-36 -52 -116 -100t-163 -65z" />
<glyph unicode="+" d="M94 481l8 125h344l25 338h135l-24 -338h344l-8 -125h-345l-24 -350h-135l24 350h-344z" />
<glyph unicode="," horiz-adv-x="471" d="M55 -264q8 17 30 64.5t31 67.5t23 52.5t20 51t7 30.5q1 10 -35 46t-35 63q3 34 41 66t70 32q34 0 78 -45.5t41 -97.5q-6 -81 -166 -369z" />
<glyph unicode="-" horiz-adv-x="655" d="M92 436v31l41 96h430v-31l-39 -96h-432z" />
<glyph unicode="." horiz-adv-x="471" d="M70 82q1 35 48.5 81t78.5 46q32 0 80 -38t45 -71q-1 -34 -49 -79.5t-80 -45.5t-79 37t-44 70z" />
<glyph unicode="/" horiz-adv-x="673" d="M14 -225l512 1644h133l-512 -1644h-133z" />
<glyph unicode="0" d="M70 473q0 209 38.5 366.5t108 252t159 140.5t199.5 46q174 0 274.5 -134t100.5 -358q0 -213 -38.5 -372t-109 -253.5t-160.5 -140t-200 -45.5q-172 0 -272 133t-100 365zM248 543q0 -209 66 -324t194 -115q264 0 264 611q0 203 -66.5 317.5t-189.5 114.5 q-268 0 -268 -604z" />
<glyph unicode="1" d="M219 1110q141 42 420 143h115l-88 -1253h-172l75 1085l-317 -129z" />
<glyph unicode="2" d="M80 0l14 131q334 309 469.5 477.5t136.5 300.5q0 102 -63 163t-168 61q-102 0 -270 -84l-35 141q177 88 354 88q162 0 264.5 -88.5t102.5 -239.5q0 -156 -141.5 -345.5t-456.5 -465.5l585 8l-32 -147h-760z" />
<glyph unicode="3" d="M70 16l47 152q152 -49 303 -49q132 0 207 60.5t75 168.5t-75.5 173t-206.5 65q-36 0 -129 -6l-19 131q203 0 313.5 66t110.5 173q0 84 -56.5 134.5t-147.5 50.5q-62 0 -133.5 -20t-127.5 -50l-36 135q70 32 169 55t185 23q146 0 233.5 -76.5t87.5 -197.5 q0 -115 -76.5 -199.5t-191.5 -124.5q133 -26 204 -107t71 -198q0 -78 -35.5 -150t-99 -127.5t-161 -89t-212.5 -33.5q-164 0 -299 41z" />
<glyph unicode="4" d="M4 268l8 117l662 868h164l-60 -847h197l-47 -138h-160l-18 -268h-166l18 268h-598zM186 406h426l41 618z" />
<glyph unicode="5" d="M55 12l51 150q146 -51 308 -51q133 0 212 71t79 180q0 115 -88.5 181.5t-235.5 66.5q-109 0 -203 -22l88 665h654l-33 -141h-492l-49 -375q84 15 135 15q172 0 283 -90.5t110 -243.5q2 -200 -151.5 -321.5t-413.5 -121.5q-128 0 -254 37z" />
<glyph unicode="6" d="M92 479q0 397 158.5 598t443.5 201q127 0 236 -33l-41 -153q-139 47 -283 47q-277 0 -327 -459q164 94 305 94q153 0 240 -89t87 -239q0 -108 -38 -199t-100.5 -149.5t-140 -90.5t-159.5 -32q-175 0 -278 130t-103 374zM268 471q0 -175 69.5 -271t172.5 -96 q107 0 169 71.5t62 217.5q0 110 -62.5 179t-172.5 69q-94 0 -236 -70q-2 -31 -2 -100z" />
<glyph unicode="7" d="M98 1100l39 153h817l-8 -133q-573 -1147 -575 -1147l-176 50l565 1077h-662z" />
<glyph unicode="8" d="M68 276q0 62 22 115t67.5 98.5t90.5 78.5t114 75q-100 62 -147 130.5t-47 170.5q0 149 119 241.5t280 90.5q150 2 243 -65.5t93 -184.5q0 -71 -38.5 -137t-92 -113t-131.5 -96q145 -82 204.5 -151t59.5 -173q0 -108 -67 -196.5t-172 -136.5t-220 -48q-174 0 -276 79 t-102 222zM240 309q0 -93 74.5 -150t191.5 -57q90 0 163.5 52t73.5 143q0 82 -57 139.5t-219 145.5q-113 -70 -170 -133.5t-57 -139.5zM330 983q0 -71 43.5 -123t161.5 -121q109 71 158.5 125.5t49.5 120.5q0 73 -62.5 119.5t-162.5 46.5q-80 0 -134 -46t-54 -122z" />
<glyph unicode="9" d="M86 8l39 146q115 -39 207 -39q159 0 267.5 107.5t143.5 346.5q-165 -92 -301 -92q-153 0 -240 90t-87 240q0 108 38 199t100.5 149.5t140 90.5t159.5 32q175 0 278 -130t103 -374q0 -197 -49.5 -352t-136.5 -251.5t-200 -146t-245 -49.5q-50 0 -114.5 10t-102.5 23z M285 858q0 -110 62.5 -179t172.5 -69q96 0 234 70q4 62 4 100q0 175 -69.5 271t-172.5 96q-107 0 -169 -71.5t-62 -217.5z" />
<glyph unicode=":" horiz-adv-x="471" d="M63 82q1 35 48.5 81t78.5 46q32 0 80 -38t45 -71q-1 -34 -49 -79.5t-80 -45.5t-79 37t-44 70zM104 655q1 35 48.5 81t78.5 46q32 0 80 -37.5t45 -70.5q-1 -34 -49 -79.5t-80 -45.5t-79 36.5t-44 69.5z" />
<glyph unicode=";" horiz-adv-x="471" d="M39 -264q8 17 30 64.5t31 67.5t23 52.5t20 51t7 30.5q1 10 -35 46t-35 63q3 34 40.5 66t69.5 32q34 0 78 -45.5t41 -97.5q-6 -81 -166 -369zM109 655q1 35 48.5 81t78.5 46q32 0 79.5 -37.5t44.5 -70.5q-1 -34 -49 -79.5t-80 -45.5t-78.5 36.5t-43.5 69.5z" />
<glyph unicode="=" d="M139 360l2 31l43 90h678l-2 -30l-43 -91h-678zM156 606l2 31l43 90h678l-2 -31l-43 -90h-678z" />
<glyph unicode="?" horiz-adv-x="819" d="M102 1182q184 96 351 96q148 0 240 -85t83 -220q-7 -87 -64 -155.5t-165 -151.5q-72 -55 -100 -84.5t-29 -59.5q-3 -22 16 -71t45 -91l-149 -47q-25 31 -39 52.5t-26.5 55t-10.5 66.5q4 58 36 97t122 112q94 73 130 124.5t42 127.5q6 84 -52 140.5t-149 56.5 q-44 0 -92 -20.5t-137 -73.5zM229 86q1 33 51 78t82 45q27 0 70.5 -42t42.5 -75q-3 -33 -53.5 -77t-77.5 -44q-32 0 -75 41t-40 74z" />
<glyph unicode="@" horiz-adv-x="1595" d="M72 449q14 186 73 341t145 258.5t193.5 175.5t216 104t215.5 32q192 0 333 -67.5t215 -202t61 -320.5q-17 -244 -186 -433.5t-400 -240.5l-18 250q-56 -110 -126 -169.5t-130 -59.5q-88 0 -132 97t-32 263q5 70 22.5 137t51.5 130.5t79.5 111t111.5 76.5t144 29 q118 0 181 -50l-48 -678q303 166 330 525q19 216 -114 342.5t-377 126.5q-138 0 -257 -61t-202 -164t-134 -239.5t-61 -287.5q-8 -133 14 -242t67.5 -185t111.5 -128.5t144.5 -77t168.5 -24.5q43 0 86 5.5t73 11.5t67.5 18.5t54.5 19.5t49.5 21t38.5 16l28 -109 q-73 -32 -119.5 -50t-146.5 -39t-202 -21q-58 0 -117 12t-121 39t-116.5 67.5t-102 102.5t-79.5 137.5t-47 178.5t-7 221zM643 492q-6 -89 6 -147t34 -80.5t52 -22.5q19 0 45 19t57.5 60t59 123.5t39.5 190.5l14 196q-49 17 -106 17q-53 0 -91 -26.5t-60.5 -77t-33.5 -111 t-16 -141.5z" />
<glyph unicode="A" horiz-adv-x="1103" d="M-31 0l537 1253h209l315 -1253h-182l-96 391h-449l-160 -391h-174zM362 532h355l-133 541z" />
<glyph unicode="B" horiz-adv-x="1021" d="M117 0l88 1253h336q176 0 266 -71.5t90 -206.5q0 -99 -53 -179.5t-144 -131.5q47 -9 87.5 -28.5t76.5 -52t57 -83t21 -113.5q0 -123 -72.5 -212.5t-188.5 -132t-259 -42.5h-305zM299 123h176q139 0 213 58.5t74 162.5q0 108 -73 172t-208 64h-149zM340 700h135 q112 0 181 57.5t69 157.5q0 102 -64 161t-184 59h-106z" />
<glyph unicode="C" horiz-adv-x="1015" d="M70 518q0 118 22 227.5t70.5 207t117.5 169.5t170 114t222 42q78 0 165 -17.5t146 -41.5l-51 -150q-189 66 -318 66q-58 0 -109.5 -19t-98 -63t-80 -110.5t-53 -167.5t-19.5 -228q0 -107 29.5 -191t78.5 -134t107.5 -75.5t120.5 -25.5q59 0 120.5 11.5t94 22t84.5 29.5 l33 -123q-218 -86 -381 -86q-96 0 -180 33.5t-149.5 99t-103.5 171t-38 239.5z" />
<glyph unicode="D" horiz-adv-x="1161" d="M117 0l88 1253h370q245 0 390 -143t145 -377q0 -172 -53 -313t-144 -231.5t-210 -139.5t-254 -49h-332zM305 141h168q98 0 180.5 34.5t144 101t96 170.5t34.5 235q0 206 -107.5 318t-300.5 112h-147z" />
<glyph unicode="E" horiz-adv-x="944" d="M117 0l88 1253h674l-31 -141l-475 6l-27 -397h440l-28 -137l-422 6l-31 -453l529 6l-31 -143h-686z" />
<glyph unicode="F" horiz-adv-x="915" d="M117 0l88 1253h674l-31 -141l-475 6l-29 -420h438l-30 -137l-418 4l-39 -565h-178z" />
<glyph unicode="G" horiz-adv-x="1128" d="M70 520q0 157 40 293.5t116.5 240.5t197 164t272.5 60q99 0 199.5 -21.5t155.5 -46.5l-56 -159q-201 84 -366 84q-179 0 -277 -152t-98 -420q0 -95 20.5 -171.5t54.5 -126t80.5 -83t95 -47.5t101.5 -14q92 0 213 31l35 471h164l-41 -547q-204 -101 -424 -101 q-76 0 -145.5 20.5t-131.5 64t-107.5 106.5t-72 154t-26.5 200z" />
<glyph unicode="H" horiz-adv-x="1212" d="M117 0l88 1253h178l-37 -530h535l37 530h178l-88 -1253h-179l41 582h-534l-41 -582h-178z" />
<glyph unicode="I" horiz-adv-x="499" d="M117 0l88 1253h178l-88 -1253h-178z" />
<glyph unicode="J" horiz-adv-x="688" d="M-31 2l39 152q92 -37 168 -37q57 0 101.5 52.5t50.5 139.5l65 944h178l-61 -893q-12 -179 -118.5 -282t-266.5 -103q-85 0 -156 27z" />
<glyph unicode="K" horiz-adv-x="1095" d="M117 0l88 1253h176l-88 -1253h-176zM348 674l553 579h205l-565 -575l481 -678h-215z" />
<glyph unicode="L" horiz-adv-x="913" d="M117 0l88 1253h178l-78 -1112l529 6l-31 -147h-686z" />
<glyph unicode="M" horiz-adv-x="1585" d="M78 0l198 1253h216l278 -1009l414 1009h217l24 -1253h-176l-16 1004l-414 -1004h-157l-275 1010l-145 -1010h-164z" />
<glyph unicode="N" horiz-adv-x="1232" d="M117 0l86 1253h170l520 -954l65 954h158l-88 -1253h-151l-535 973l-68 -973h-157z" />
<glyph unicode="O" horiz-adv-x="1175" d="M70 524q0 156 35 284.5t92.5 214t135 144.5t159 85t167.5 26q199 0 323 -146.5t124 -402.5q0 -156 -35 -284.5t-93 -214t-135.5 -144.5t-159 -85t-167.5 -26q-199 0 -322.5 146.5t-123.5 402.5zM254 575q0 -102 18.5 -182.5t49 -131.5t74 -84t90.5 -46.5t102 -13.5 q68 0 126.5 32.5t106.5 97.5t75.5 176t27.5 255q0 127 -28.5 219.5t-78 143t-107 73.5t-126.5 23q-67 0 -125 -32.5t-105 -98t-73.5 -176t-26.5 -255.5z" />
<glyph unicode="P" horiz-adv-x="978" d="M117 0l88 1253h319q204 0 311 -86.5t107 -244.5q0 -195 -146 -318t-382 -123h-84l-35 -481h-178zM338 612h133q125 0 208 67t83 191q0 129 -73.5 192.5t-211.5 63.5h-102z" />
<glyph unicode="Q" horiz-adv-x="1175" d="M70 524q0 156 35 284.5t92.5 214t135 144.5t159 85t167.5 26q199 0 323 -146.5t124 -402.5q0 -234 -73 -396t-197 -253q-115 -87 -349 -205q44 -11 123 -36t139.5 -40.5t104.5 -15.5q93 0 164 53l-10 -145q-95 -60 -193 -60q-55 0 -145.5 36l-181 72t-146.5 36 q-72 0 -164 -60l-28 129q63 29 112 37q174 67 232 94q-190 9 -307 155t-117 394zM254 575q0 -102 18.5 -182.5t49 -131.5t74 -84t90.5 -46.5t102 -13.5q68 0 126.5 32.5t106.5 97.5t75.5 176t27.5 255q0 127 -28.5 219.5t-78 143t-107 73.5t-126.5 23q-67 0 -125 -32.5 t-105 -98t-73.5 -176t-26.5 -255.5z" />
<glyph unicode="R" horiz-adv-x="1038" d="M117 0l88 1253h330q190 0 293.5 -86t103.5 -235q0 -125 -69 -221.5t-187 -147.5l289 -563h-205l-244 522q-46 -4 -70 -4h-114l-37 -518h-178zM340 647h160q106 0 179 62t73 178q0 239 -260 239h-117z" />
<glyph unicode="S" horiz-adv-x="905" d="M37 25l45 151q170 -63 324 -63h14h3q95 1 156 55q62 56 62 139q0 78 -33.5 130t-130.5 102l-112 57q-124 63 -183 134.5t-59 176.5q0 161 122.5 266t305.5 105q197 0 309 -47l-41 -154q-192 66 -334 66q-81 0 -134.5 -53t-53.5 -125q0 -69 36.5 -120.5t133.5 -101.5 l117 -59q123 -62 180 -135t57 -170q0 -181 -140 -292.5t-355 -111.5q-171 0 -289 50z" />
<glyph unicode="T" horiz-adv-x="1028" d="M80 1106l35 147h913l-35 -147l-356 6l-78 -1112h-178l78 1112z" />
<glyph unicode="U" horiz-adv-x="1218" d="M141 344q0 20 0.5 37t2.5 51t4 67t7.5 107t11 148.5t16 215t20.5 283.5h178q-12 -176 -23.5 -343t-16.5 -235t-9 -132.5t-5 -90.5t-1 -53q0 -141 74 -209.5t204 -68.5q123 0 190.5 72.5t79.5 236.5l56 823h172l-55 -802q-15 -233 -145 -354.5t-357 -121.5 q-177 0 -290.5 96t-113.5 273z" />
<glyph unicode="V" horiz-adv-x="1114" d="M74 1253h184l272 -1067l424 1067h179l-523 -1253h-207z" />
<glyph unicode="W" horiz-adv-x="1708" d="M113 1253h180l143 -1001l391 1001h160l242 -1007l295 1007h166l-387 -1253h-189l-237 977l-392 -977h-186z" />
<glyph unicode="X" horiz-adv-x="1042" d="M-20 0l446 657l-326 596h195l256 -465l299 465h192l-413 -606l354 -647h-197l-282 518l-334 -518h-190z" />
<glyph unicode="Y" horiz-adv-x="1060" d="M74 1253h194l285 -585l346 585h180l-463 -749l-34 -504h-179l35 500z" />
<glyph unicode="Z" horiz-adv-x="1056" d="M74 0l8 121l688 983h-627l37 149h803l-10 -139l-684 -969h651l-35 -145h-831z" />
<glyph unicode="[" horiz-adv-x="655" d="M143 -244l115 1643h373l-8 -109h-238l-100 -1425h239l-8 -109h-373z" />
<glyph unicode="\" horiz-adv-x="673" d="M129 1419h133l283 -1644h-133z" />
<glyph unicode="]" horiz-adv-x="655" d="M25 -244l8 109h237l101 1425h-240l8 109h373l-115 -1643h-372z" />
<glyph unicode="_" horiz-adv-x="901" d="M-20 -207h901v-112h-901v112z" />
<glyph unicode="`" horiz-adv-x="673" d="M123 1309l184 34l244 -296h-143z" />
<glyph unicode="a" horiz-adv-x="897" d="M70 336q0 162 56 300.5t161.5 224t238.5 85.5q73 0 146.5 -17t122.5 -46l-62 -883l-139 -25l-8 242q-59 -112 -143 -177t-156 -65q-100 0 -158.5 87t-58.5 274zM244 354q0 -116 31 -178.5t87 -62.5q24 0 51 13.5t57.5 46.5t57 81.5t48.5 126.5t32 174l17 231 q-72 35 -148 35q-102 0 -167.5 -120.5t-65.5 -346.5z" />
<glyph unicode="b" horiz-adv-x="929" d="M111 -8l92 1399l168 28l-49 -737q65 119 144 191.5t163 72.5q227 0 227 -375q0 -125 -38 -238.5t-98 -190.5t-135 -122t-149 -45q-103 0 -196 39l-68 -63zM287 137q99 -35 182 -35q92 0 151.5 115.5t59.5 333.5q0 135 -33 196.5t-88 61.5q-29 0 -66 -28t-75 -80t-70 -140 t-47 -194z" />
<glyph unicode="c" horiz-adv-x="755" d="M72 354q0 138 34.5 252.5t92.5 187.5t130.5 112.5t151.5 39.5q145 0 246 -72l-61 -131q-44 27 -66.5 39t-65.5 26.5t-83 14.5q-49 0 -89 -42t-64 -107.5t-37 -137.5t-13 -139q0 -288 160 -288q42 0 88 20.5t74 41t73 58.5l49 -90q-182 -164 -344 -164q-126 0 -201 92.5 t-75 286.5z" />
<glyph unicode="d" horiz-adv-x="925" d="M72 350q0 125 38 238.5t98 190.5t135 122t149 45q86 0 163 -22l35 465l168 28l-96 -1417l-139 -25l-13 271q-65 -122 -145 -196.5t-166 -74.5q-227 0 -227 375zM248 371q0 -135 33 -196.5t88 -61.5q32 0 72.5 33t81 94t72 165.5t40.5 229.5l10 147q-99 35 -188 35 q-92 0 -150.5 -114t-58.5 -332z" />
<glyph unicode="e" horiz-adv-x="749" d="M74 342q0 140 34 256.5t91 191.5t130 115.5t152 40.5q104 0 165 -61.5t61 -147.5q0 -94 -68.5 -168t-171 -112t-219.5 -43v-39q0 -137 42.5 -201.5t108.5 -64.5q103 0 244 120l49 -90q-69 -68 -158 -116t-174 -48q-134 0 -210 94t-76 273zM254 510q133 9 212 66t79 141 q0 50 -28 81t-75 31q-71 0 -121 -82.5t-67 -236.5z" />
<glyph unicode="f" horiz-adv-x="514" d="M-199 -457l33 142q66 -19 129 -19q64 0 108 64t54 207l61 866h-125l13 98l121 21l6 94q7 101 34.5 178.5t66 125t90 77.5t102.5 41.5t108 11.5q65 0 105 -12l-33 -140q-61 15 -146 15q-60 0 -102.5 -40.5t-48.5 -125.5l-17 -225h215l-26 -119h-197l-55 -803 q-8 -124 -44 -217t-91.5 -147.5t-121 -80.5t-140.5 -26q-48 0 -99 14z" />
<glyph unicode="g" horiz-adv-x="778" d="M-31 -211q0 62 38 115.5t130 115.5l107 70q-61 34 -85 63.5t-26 65.5q1 44 32.5 82.5t96.5 81.5q-79 25 -124.5 87.5t-45.5 152.5q0 141 96 232t250 91q66 0 129 -26l138 198l98 -98l-19 -41l-149 -105q74 -74 74 -180q0 -137 -97 -231t-250 -94h-6q-77 -52 -77 -93 q0 -27 51.5 -56t177.5 -81q114 -46 162.5 -98.5t48.5 -134.5q0 -78 -64.5 -150t-166 -115.5t-205.5 -43.5q-147 0 -230.5 53.5t-83.5 138.5zM121 -156q0 -53 58 -90t165 -37q94 0 161.5 42.5t67.5 105.5q0 51 -49.5 90t-169.5 86q-25 10 -41 16l-69 -51q-67 -48 -95 -81.5 t-28 -80.5zM248 657q0 -81 44.5 -131.5t108.5 -50.5q69 0 110.5 44.5t41.5 139.5q0 84 -46.5 132.5t-113.5 48.5q-145 0 -145 -183z" />
<glyph unicode="h" horiz-adv-x="931" d="M106 0l97 1391l168 28l-52 -743q72 132 155.5 201t164.5 69q186 0 186 -241q0 -72 -14 -218t-32.5 -307t-20.5 -180h-168q2 30 18 171t28.5 274t12.5 186q0 94 -22 133t-74 39q-23 0 -51.5 -15.5t-61 -51.5t-61 -87t-50.5 -131.5t-30 -175.5v10l-25 -352h-168z" />
<glyph unicode="i" horiz-adv-x="446" d="M106 0l66 918l168 28l-68 -946h-166zM174 1225q0 33 40.5 79t68.5 46t65 -35t37 -68q0 -29 -40.5 -75t-68.5 -46q-29 0 -65.5 34t-36.5 65z" />
<glyph unicode="j" horiz-adv-x="446" d="M-160 -315q36 -4 62 -4q93 0 141.5 71.5t60.5 241.5l68 926l168 28l-70 -956q-7 -108 -43 -196.5t-91.5 -146t-125.5 -89t-147 -31.5zM178 1225q0 33 40.5 79t68.5 46t65 -35t37 -68q0 -29 -40 -75t-68 -46q-29 0 -66 34t-37 65z" />
<glyph unicode="k" horiz-adv-x="827" d="M106 0l101 1391l168 28l-64 -887q195 142 346 390h170q-141 -237 -346 -398q108 -170 179.5 -275t94 -134t58.5 -72l-156 -59q-25 28 -51.5 64.5t-101 156t-193.5 323.5l-39 -528h-166z" />
<glyph unicode="l" horiz-adv-x="499" d="M102 133q0 14 2 39t9 101.5t16.5 193.5t27.5 361.5t40 560.5l168 28q-20 -290 -37.5 -523t-27 -349.5t-16.5 -197t-9.5 -109.5t-2.5 -43q0 -34 15.5 -52t38.5 -18q44 0 110 49l27 -106q-139 -93 -217 -93q-61 0 -102.5 41t-41.5 117z" />
<glyph unicode="m" horiz-adv-x="1411" d="M106 0l64 918l141 28l15 -246l-2 -16q71 128 153 195t162 67q92 0 134 -58.5t42 -182.5v-15q71 125 152 190.5t159 65.5q92 0 134.5 -58.5t42.5 -182.5q0 -56 -8.5 -166.5t-18.5 -205.5t-21.5 -204t-13.5 -129h-168q2 24 16.5 169.5t25.5 276.5t11 185q0 97 -17.5 134.5 t-68.5 37.5q-26 0 -58.5 -21t-68 -62.5t-67 -116t-47.5 -167.5q-9 -102 -26 -259.5t-19 -176.5h-168q2 24 16.5 169.5t25.5 276.5t11 185q0 97 -17.5 134.5t-68.5 37.5q-23 0 -51.5 -15.5t-61 -51.5t-61 -87t-50.5 -131.5t-30 -175.5v4l-27 -346h-166z" />
<glyph unicode="n" horiz-adv-x="931" d="M106 0l64 918l141 28l11 -266q72 131 154.5 198.5t162.5 67.5q186 0 186 -241q0 -72 -14 -218t-32.5 -307t-20.5 -180h-168q2 30 18 171t28.5 274t12.5 186q0 94 -22 133t-74 39q-28 0 -63 -23.5t-72.5 -70t-69 -130t-45.5 -188.5l-29 -391h-168z" />
<glyph unicode="o" horiz-adv-x="897" d="M74 371q0 82 16.5 162t51.5 155t85.5 132t124.5 91.5t162 34.5q139 0 224 -102.5t85 -292.5q0 -82 -16.5 -162t-51.5 -155.5t-85.5 -132.5t-124.5 -91.5t-162 -34.5q-138 0 -223.5 102.5t-85.5 293.5zM248 377q0 -140 47.5 -213.5t140.5 -73.5q50 0 89.5 32t62 80t37 112 t19.5 119.5t5 111.5q0 134 -46.5 210t-141.5 76q-50 0 -89.5 -32.5t-62 -81t-37 -113t-19.5 -119.5t-5 -108z" />
<glyph unicode="p" horiz-adv-x="931" d="M74 -471l96 1389l141 28l13 -270q63 121 143 195.5t166 74.5q227 0 227 -375q0 -125 -38 -238.5t-98 -190.5t-135 -122t-149 -45q-78 0 -166 25l-32 -442zM285 139q105 -37 188 -37q92 0 151.5 115.5t59.5 333.5q0 135 -33 196.5t-88 61.5q-32 0 -72.5 -33t-81 -94 t-72 -165.5t-40.5 -229.5v6z" />
<glyph unicode="q" horiz-adv-x="925" d="M72 350q0 125 38 238.5t98 190.5t135 122t149 45q113 0 213 -39l53 64l63 -25l-92 -1388l-168 -29l49 717q-65 -122 -145 -196.5t-166 -74.5q-227 0 -227 375zM248 371q0 -135 33 -196.5t88 -61.5q32 0 72.5 33t81 94t72 165.5t40.5 229.5v-4l10 151q-99 35 -188 35 q-92 0 -150.5 -114t-58.5 -332z" />
<glyph unicode="r" horiz-adv-x="628" d="M106 0l64 918l141 28l11 -270q55 139 137.5 204.5t171.5 65.5q22 0 28 -2l-32 -176q-24 6 -49 6q-35 0 -65.5 -7.5t-67.5 -35t-64 -72.5t-49.5 -127.5t-30.5 -193.5v2l-27 -340h-168z" />
<glyph unicode="s" horiz-adv-x="708" d="M35 31l43 141q154 -70 270 -70q52 0 79.5 31t27.5 76q0 71 -95 149l-116 99q-64 54 -92.5 104t-28.5 121q0 119 90.5 191.5t204.5 72.5q63 0 138 -15t106 -30l-44 -135q-141 57 -233 57q-49 0 -76.5 -28.5t-27.5 -75.5q0 -32 20 -65t76 -81l117 -98q66 -56 93 -103 t27 -110q0 -67 -28.5 -123.5t-73.5 -91t-97.5 -53.5t-103.5 -19q-148 0 -276 56z" />
<glyph unicode="t" horiz-adv-x="663" d="M47 803l12 98l146 21q18 171 20 188l168 29q-10 -101 -24 -217h295l-31 -119h-277q-59 -490 -59 -576q0 -52 25 -78t67 -26q75 0 193 84l36 -101q-173 -131 -309 -131q-75 0 -127.5 51t-52.5 136q0 57 64 641h-146z" />
<glyph unicode="u" horiz-adv-x="927" d="M106 217q0 72 14 218t33 304t21 179l170 26q-2 -30 -18.5 -176.5t-29.5 -285t-13 -191.5q0 -94 21 -133t73 -39q22 0 49.5 14.5t59 48.5t59.5 82.5t50.5 124.5t31.5 166l26 363l168 28l-63 -946l-140 -25l-10 271q-72 -133 -154 -202t-163 -69q-185 0 -185 242z" />
<glyph unicode="v" horiz-adv-x="808" d="M121 909l164 29l49 -795q205 232 289 779h149q-15 -158 -63.5 -328t-138 -337t-199.5 -257h-187z" />
<glyph unicode="w" horiz-adv-x="1269" d="M123 922l162 22l49 -799q96 105 168 277t100 364l-10 136h158l53 -785q112 121 183 329.5t99 455.5h150q-13 -121 -44 -249t-79.5 -255t-120 -238.5t-155.5 -179.5h-168l-37 446q-97 -278 -275 -448l-168 2z" />
<glyph unicode="x" horiz-adv-x="737" d="M-31 0q64 194 314 473q-151 344 -193 434l170 27q7 -16 62 -140.5t90 -203.5q116 148 192 332h154q-61 -185 -295 -451q160 -366 201 -455l-170 -26q-142 321 -160 362q-137 -172 -211 -352h-154z" />
<glyph unicode="y" horiz-adv-x="841" d="M-215 -459l20 154q59 -12 127 -12q225 0 408 292h-74l-135 936l166 33l117 -835q162 328 227 813h156q-7 -84 -25.5 -184t-48 -215.5t-73.5 -231t-98 -227.5t-125 -208.5t-150 -169.5t-178 -115t-205 -42q-48 0 -109 12z" />
<glyph unicode="z" horiz-adv-x="751" d="M31 0l8 111l465 686l-402 -11l19 136h590l-11 -115l-467 -680l451 10l-22 -137h-631z" />
<glyph unicode="{" horiz-adv-x="655" d="M111 526l8 99q156 32 162 139q3 48 -1.5 169t1.5 222q8 127 94.5 196.5t247.5 69.5l-9 -112q-77 0 -135.5 -36t-64.5 -104q-5 -75 0.5 -213t1.5 -194q-4 -69 -49 -120t-105 -67q57 -16 95 -66.5t34 -119.5q-4 -57 -29 -195t-30 -212q-6 -67 48 -103.5t132 -36.5l-8 -112 q-161 0 -237 69.5t-68 196.5q7 101 30.5 223.5t26.5 167.5q6 108 -145 139z" />
<glyph unicode="|" horiz-adv-x="559" d="M150 -451l131 1870h129l-131 -1870h-129z" />
<glyph unicode="}" horiz-adv-x="655" d="M33 -268l8 112q77 0 136 36t65 104q5 75 -0.5 213t-1.5 194q4 69 48.5 120t104.5 67q-57 16 -95 66.5t-34 119.5q4 57 29.5 195t30.5 212q6 67 -48.5 103.5t-132.5 36.5l9 112q161 0 237 -69.5t68 -196.5q-7 -101 -31 -223t-27 -168q-3 -54 34.5 -89t111.5 -50l-8 -99 q-156 -32 -162 -139q-3 -48 1.5 -169t-1.5 -222q-8 -127 -94.5 -196.5t-247.5 -69.5z" />
<glyph unicode="&#xa1;" horiz-adv-x="626" d="M135 -397q68 550 96 956l140 39q-18 -227 -25.5 -487.5t2.5 -444.5zM180 815q3 36 54 82.5t81 46.5q32 0 79 -43t46 -76q-3 -36 -55 -83.5t-84 -47.5q-30 0 -76 43.5t-45 77.5z" />
<glyph unicode="&#xa2;" d="M199 518q0 129 30.5 238t82.5 182t118 116.5t139 53.5l-6 254h154l-39 -256q101 -16 176 -68l-61 -131q-44 27 -66.5 39t-65.5 26.5t-83 14.5q-49 0 -89 -42t-64 -107.5t-37 -137.5t-13 -139q0 -289 160 -289q42 0 88 21t73.5 41.5t73.5 58.5l49 -90q-101 -92 -213 -137 l10 -289h-153l35 262h-23q-126 0 -201 92.5t-75 286.5z" />
<glyph unicode="&#xa3;" d="M27 135q143 38 197 88t61 160q3 37 -13 170h-190l2 27l49 84l92 12h31q-11 118 -6 196q12 181 135 293.5t311 112.5q166 0 260 -51l-61 -154q-152 62 -240 62q-104 0 -160 -52.5t-65 -175.5q-6 -74 6 -231h381l-41 -123h-327q7 -91 4 -145q-9 -150 -136 -271l621 17 l-41 -154h-825h-2z" />
<glyph unicode="&#xa7;" horiz-adv-x="995" d="M86 614q7 99 83.5 173.5t203.5 115.5q-90 45 -134 104.5t-38 143.5q8 124 120.5 206.5t294.5 82.5q160 0 258 -43l-57 -140q-4 1 -26.5 9.5t-34 12.5t-35 12t-41 12.5t-40 9.5t-42.5 7.5t-39 2.5q-90 0 -136.5 -35t-51.5 -96q-4 -56 33.5 -96.5t121.5 -75.5l95 -39 q170 -71 232.5 -137.5t55.5 -181.5q-7 -99 -83.5 -173.5t-202.5 -115.5q90 -45 134 -104.5t38 -143.5q-8 -124 -121 -206.5t-295 -82.5q-165 0 -277 49l58 140q1 0 27 -10t37 -13.5t38.5 -13t45.5 -14t42.5 -10.5t45.5 -8.5t40 -2.5q90 0 137 35t52 96q4 56 -34 96.5 t-122 75.5l-94 39q-115 48 -176 89.5t-89.5 96t-23.5 133.5zM258 651q-5 -68 42 -116t169 -99q119 22 190.5 72t77.5 117q5 68 -42 116t-169 99q-119 -22 -190.5 -72t-77.5 -117z" />
<glyph unicode="&#xa8;" horiz-adv-x="876" d="M145 1219q1 30 41.5 70t67.5 40q28 0 69.5 -31.5t38.5 -60.5q-1 -30 -41.5 -70.5t-66.5 -40.5q-29 0 -70.5 32.5t-38.5 60.5zM512 1219q1 30 41.5 70t67.5 40q28 0 69.5 -31.5t38.5 -60.5q-1 -30 -42 -70.5t-66 -40.5q-29 0 -70.5 32.5t-38.5 60.5z" />
<glyph unicode="&#xa9;" horiz-adv-x="1196" d="M74 500q11 159 93 280t204.5 182.5t263.5 61.5q240 0 371 -148.5t116 -375.5q-8 -120 -58 -220t-126.5 -166t-174 -102.5t-202.5 -36.5q-160 0 -275.5 70t-168.5 188.5t-43 266.5zM168 500q-13 -200 100 -319.5t299 -119.5q197 0 323 125t138 314q13 201 -99.5 319.5 t-299.5 118.5q-197 0 -323 -124t-138 -314zM297 498q11 149 104.5 241t245.5 92q101 0 164 -28l-29 -90q-98 30 -178 30q-171 0 -188 -231q-7 -113 46.5 -169t141.5 -56q74 0 172 32l12 -81q-110 -45 -229 -45q-129 0 -200.5 81t-61.5 224z" />
<glyph unicode="&#xaa;" horiz-adv-x="520" d="M39 885q0 54 15 106.5t45 98t81.5 74t116.5 28.5q94 0 174 -33l-33 -440l-98 -17l-6 111q-36 -53 -81 -82t-89 -29q-56 0 -90.5 45t-34.5 138zM160 895q0 -111 61 -111q31 0 69.5 54t55.5 159l8 113q-38 12 -75 12q-35 0 -60.5 -24.5t-37 -63t-16.5 -73t-5 -66.5z" />
<glyph unicode="&#xab;" horiz-adv-x="1079" d="M102 475l402 410l88 -72l-283 -338l234 -338l-97 -71zM492 475l401 410l88 -72l-283 -338l234 -338l-96 -71z" />
<glyph unicode="&#xad;" horiz-adv-x="655" d="M92 436v31l41 96h430v-31l-39 -96h-432z" />
<glyph unicode="&#xae;" horiz-adv-x="1196" d="M94 1057q11 159 93 280t204.5 182.5t263.5 61.5q240 0 371.5 -148.5t116.5 -375.5q-8 -120 -58 -220t-126.5 -166t-174 -102.5t-202.5 -36.5q-240 0 -371.5 149t-116.5 376zM188 1057q-13 -200 100.5 -319.5t299.5 -119.5q197 0 323 125t138 314q13 201 -100 319.5 t-300 118.5q-197 0 -323 -124t-138 -314zM397 766l43 614h207q102 0 156.5 -42.5t48.5 -127.5q-6 -105 -121 -159l139 -285h-127l-110 256q-32 -4 -49 -4q-34 0 -54 2l-18 -254h-115zM535 1096q25 -2 75 -2q117 0 125 98q3 55 -27 83t-98 28h-61z" />
<glyph unicode="&#xaf;" horiz-adv-x="886" d="M170 1135l2 30l43 95h502l-2 -31l-43 -94h-502z" />
<glyph unicode="&#xb2;" horiz-adv-x="559" d="M43 799l6 82q152 118 240 206.5t92 147.5q3 53 -28 80.5t-83 27.5q-79 0 -164 -40l-24 88q104 49 233 49q94 0 149 -50.5t50 -129.5q-6 -78 -83.5 -162.5t-244.5 -208.5l314 10l-27 -100h-430z" />
<glyph unicode="&#xb3;" horiz-adv-x="555" d="M41 807l31 86q88 -23 164 -23q133 0 139 103q4 54 -34 82t-105 28q-26 0 -58 -4l-12 82q207 0 213 99q3 43 -28 67.5t-79 24.5q-67 0 -151 -35l-23 82q112 41 211 41q81 0 139 -38.5t52 -109.5q-3 -56 -45.5 -96.5t-106.5 -60.5q77 -11 116 -49t36 -99q-4 -50 -32.5 -90 t-71.5 -64t-91 -36.5t-94 -12.5q-85 0 -170 23z" />
<glyph unicode="&#xb4;" horiz-adv-x="686" d="M111 1047l284 296l180 -34l-321 -262h-143z" />
<glyph unicode="&#xb6;" horiz-adv-x="1122" d="M66 834q12 187 137.5 303t333.5 116h454l-84 -1196q-10 -158 -121 -247t-280 -89q-85 0 -154 25l35 143q119 -40 195 -31t113 51.5t42 117.5l78 1101h-153l-50 -702h-139q-204 0 -312.5 111.5t-94.5 296.5z" />
<glyph unicode="&#xb8;" horiz-adv-x="591" d="M123 -383q103 12 155.5 31.5t55.5 60.5q1 29 -34.5 50.5t-115.5 43.5l-4 11l101 186h96l-60 -111q38 -18 53 -25t40 -23t34.5 -28.5t17 -32t5.5 -42.5q-5 -74 -88 -134.5t-240 -74.5z" />
<glyph unicode="&#xb9;" horiz-adv-x="432" d="M51 1360q77 19 217 65h78l-45 -626h-119l37 522l-145 -57z" />
<glyph unicode="&#xba;" horiz-adv-x="520" d="M45 905q0 71 26 134.5t85 108t141 44.5q81 0 128.5 -51t47.5 -152q0 -52 -15.5 -101.5t-45.5 -91.5t-79.5 -68t-111.5 -26q-80 0 -128 51.5t-48 151.5zM166 905q0 -127 90 -127q96 0 96 211q0 62 -24 95.5t-66 33.5q-96 0 -96 -213z" />
<glyph unicode="&#xbb;" horiz-adv-x="1079" d="M98 137l283 338l-234 338l97 72l344 -410l-402 -409zM487 137l283 338l-233 338l96 72l344 -410l-402 -409z" />
<glyph unicode="&#xbf;" horiz-adv-x="757" d="M-4 -55q7 87 64 155.5t165 151.5q72 56 100 84.5t29 58.5q3 22 -16 71t-45 91l149 47q25 -31 39 -52.5t26.5 -55t10.5 -66.5q-4 -58 -36 -97t-122 -112q-94 -73 -130 -124.5t-42 -127.5q-6 -84 52 -140t149 -56q44 0 92 20.5t137 73.5l52 -131q-184 -96 -351 -96 q-148 0 -240 85t-83 220zM297 825q3 33 53.5 77t77.5 44q32 0 75 -41t40 -74q-1 -33 -51 -77.5t-82 -44.5q-27 0 -70.5 41.5t-42.5 74.5z" />
<glyph unicode="&#xc0;" horiz-adv-x="1103" d="M-31 0l537 1253h209l315 -1253h-182l-96 391h-449l-160 -391h-174zM309 1616l185 35l243 -297h-143zM362 532h355l-133 541z" />
<glyph unicode="&#xc1;" horiz-adv-x="1103" d="M-31 0l537 1253h209l315 -1253h-182l-96 391h-449l-160 -391h-174zM362 532h355l-133 541zM459 1354l284 297l181 -35l-322 -262h-143z" />
<glyph unicode="&#xc2;" horiz-adv-x="1103" d="M-31 0l537 1253h209l315 -1253h-182l-96 391h-449l-160 -391h-174zM295 1354l274 297h123l234 -297h-138l-167 157l-189 -157h-137zM362 532h355l-133 541z" />
<glyph unicode="&#xc3;" horiz-adv-x="1103" d="M-31 0l537 1253h209l315 -1253h-182l-96 391h-449l-160 -391h-174zM276 1446q130 137 220 137q46 0 127.5 -30.5t107.5 -30.5q66 0 139 69l62 -71q-117 -142 -215 -142q-40 0 -131 34t-115 34q-53 0 -139 -72zM362 532h355l-133 541z" />
<glyph unicode="&#xc4;" horiz-adv-x="1103" d="M-31 0l537 1253h209l315 -1253h-182l-96 391h-449l-160 -391h-174zM322 1526q1 30 41 70t67 40q28 0 70 -31.5t39 -60.5q-1 -30 -42 -70t-67 -40q-29 0 -70 32t-38 60zM362 532h355l-133 541zM688 1526q1 30 41.5 70t67.5 40q28 0 69.5 -31.5t38.5 -60.5 q-1 -30 -41.5 -70t-66.5 -40q-29 0 -70.5 32t-38.5 60z" />
<glyph unicode="&#xc5;" horiz-adv-x="1103" d="M-31 0l537 1253h209l315 -1253h-182l-96 391h-449l-160 -391h-174zM362 532h355l-133 541zM434 1542q4 75 66.5 129.5t138.5 54.5q80 0 132 -48.5t46 -135.5q-4 -74 -66.5 -128t-138.5 -54q-79 0 -131.5 49t-46.5 133zM532 1542q-3 -40 22.5 -66t63.5 -26t68 26t33 66 q3 43 -23.5 69.5t-64.5 26.5t-67 -26.5t-32 -69.5z" />
<glyph unicode="&#xc6;" horiz-adv-x="1492" d="M-82 0l735 1253h774l-30 -141l-475 6l-27 -397h440l-28 -137l-422 6l-31 -453l528 6l-30 -143h-686l26 391h-377l-223 -391h-174zM397 532h305l41 584h-12z" />
<glyph unicode="&#xc7;" horiz-adv-x="1015" d="M70 518q0 118 22 227.5t70.5 207t117.5 169.5t170 114t222 42q78 0 165 -17.5t146 -41.5l-51 -150q-189 66 -318 66q-58 0 -109.5 -19t-98 -63t-80 -110.5t-53 -167.5t-19.5 -228q0 -107 29.5 -191t78.5 -134t107.5 -75.5t120.5 -25.5q59 0 120.5 11.5t94 22t84.5 29.5 l33 -123q-181 -73 -324 -84l-47 -88q37 -17 52.5 -25t40.5 -23.5t34 -28t16.5 -32t5.5 -42.5q-5 -74 -87.5 -134.5t-239.5 -74.5l-17 88q103 12 155.5 31.5t55.5 60.5q1 29 -34 50.5t-115 43.5l-4 11l88 163q-188 13 -310 152t-122 389z" />
<glyph unicode="&#xc8;" horiz-adv-x="944" d="M117 0l88 1253h674l-31 -141l-475 6l-27 -397h440l-28 -137l-422 6l-31 -453l529 6l-31 -143h-686zM317 1616l185 35l243 -297h-143z" />
<glyph unicode="&#xc9;" horiz-adv-x="944" d="M117 0l88 1253h674l-31 -141l-475 6l-27 -397h440l-28 -137l-422 6l-31 -453l529 6l-31 -143h-686zM365 1354l284 297l180 -35l-321 -262h-143z" />
<glyph unicode="&#xca;" horiz-adv-x="944" d="M117 0l88 1253h674l-31 -141l-475 6l-27 -397h440l-28 -137l-422 6l-31 -453l529 6l-31 -143h-686zM246 1354l274 297h123l234 -297h-138l-168 157l-188 -157h-137z" />
<glyph unicode="&#xcb;" horiz-adv-x="944" d="M117 0l88 1253h674l-31 -141l-475 6l-27 -397h440l-28 -137l-422 6l-31 -453l529 6l-31 -143h-686zM248 1526q1 30 41 70t67 40q28 0 70 -31.5t39 -60.5q-1 -30 -42 -70t-67 -40q-29 0 -70 32t-38 60zM614 1526q1 30 41.5 70t67.5 40q28 0 69.5 -31.5t38.5 -60.5 q-1 -30 -41.5 -70t-66.5 -40q-29 0 -70.5 32t-38.5 60z" />
<glyph unicode="&#xcc;" horiz-adv-x="503" d="M-25 1616l185 35l243 -297h-143zM117 0l88 1253h178l-88 -1253h-178z" />
<glyph unicode="&#xcd;" horiz-adv-x="503" d="M117 0l88 1253h178l-88 -1253h-178zM199 1354l284 297l181 -35l-322 -262h-143z" />
<glyph unicode="&#xce;" horiz-adv-x="503" d="M0 1354l274 297h123l234 -297h-137l-168 157l-189 -157h-137zM117 0l88 1253h178l-88 -1253h-178z" />
<glyph unicode="&#xcf;" horiz-adv-x="503" d="M43 1526q1 30 41.5 70t67.5 40q28 0 69.5 -31.5t38.5 -60.5q-1 -30 -41.5 -70t-66.5 -40q-29 0 -70.5 32t-38.5 60zM117 0l88 1253h178l-88 -1253h-178zM369 1526q1 30 41 70t67 40q28 0 70 -31.5t39 -60.5q-1 -30 -42 -70t-67 -40q-29 0 -70 32t-38 60z" />
<glyph unicode="&#xd0;" horiz-adv-x="1179" d="M47 575v31l37 101h100l39 546h371q245 0 389.5 -143t144.5 -377q0 -172 -53 -313t-144 -231.5t-210 -139.5t-254 -49h-332l41 575h-129zM324 141h168q201 0 327.5 140.5t126.5 400.5q0 206 -107 318t-300 112h-148l-29 -405h328v-31l-37 -101h-299z" />
<glyph unicode="&#xd1;" horiz-adv-x="1232" d="M117 0l86 1253h170l520 -954l65 954h158l-88 -1253h-151l-535 973l-68 -973h-157zM334 1446q130 137 219 137q46 0 127.5 -30.5t107.5 -30.5q67 0 140 69l61 -71q-117 -142 -215 -142q-40 0 -131 34t-115 34q-53 0 -139 -72z" />
<glyph unicode="&#xd2;" horiz-adv-x="1155" d="M70 524q0 156 35 284.5t92.5 214t135 144.5t159 85t167.5 26q199 0 323 -146.5t124 -402.5q0 -156 -35 -284.5t-93 -214t-135.5 -144.5t-159 -85t-167.5 -26q-199 0 -322.5 146.5t-123.5 402.5zM254 575q0 -102 18.5 -182.5t49 -131.5t74 -84t90.5 -46.5t102 -13.5 q68 0 126.5 32.5t106.5 97.5t75.5 176t27.5 255q0 127 -28.5 219.5t-78 143t-107 73.5t-126.5 23q-67 0 -125 -32.5t-105 -98t-73.5 -176t-26.5 -255.5zM403 1616l185 35l243 -297h-143z" />
<glyph unicode="&#xd3;" horiz-adv-x="1155" d="M70 524q0 156 35 284.5t92.5 214t135 144.5t159 85t167.5 26q199 0 323 -146.5t124 -402.5q0 -156 -35 -284.5t-93 -214t-135.5 -144.5t-159 -85t-167.5 -26q-199 0 -322.5 146.5t-123.5 402.5zM254 575q0 -102 18.5 -182.5t49 -131.5t74 -84t90.5 -46.5t102 -13.5 q68 0 126.5 32.5t106.5 97.5t75.5 176t27.5 255q0 127 -28.5 219.5t-78 143t-107 73.5t-126.5 23q-67 0 -125 -32.5t-105 -98t-73.5 -176t-26.5 -255.5zM451 1354l284 297l180 -35l-321 -262h-143z" />
<glyph unicode="&#xd4;" horiz-adv-x="1155" d="M70 524q0 156 35 284.5t92.5 214t135 144.5t159 85t167.5 26q199 0 323 -146.5t124 -402.5q0 -156 -35 -284.5t-93 -214t-135.5 -144.5t-159 -85t-167.5 -26q-199 0 -322.5 146.5t-123.5 402.5zM254 575q0 -102 18.5 -182.5t49 -131.5t74 -84t90.5 -46.5t102 -13.5 q68 0 126.5 32.5t106.5 97.5t75.5 176t27.5 255q0 127 -28.5 219.5t-78 143t-107 73.5t-126.5 23q-67 0 -125 -32.5t-105 -98t-73.5 -176t-26.5 -255.5zM338 1354l274 297h123l234 -297h-138l-167 157l-189 -157h-137z" />
<glyph unicode="&#xd5;" horiz-adv-x="1155" d="M70 524q0 156 35 284.5t92.5 214t135 144.5t159 85t167.5 26q199 0 323 -146.5t124 -402.5q0 -156 -35 -284.5t-93 -214t-135.5 -144.5t-159 -85t-167.5 -26q-199 0 -322.5 146.5t-123.5 402.5zM254 575q0 -102 18.5 -182.5t49 -131.5t74 -84t90.5 -46.5t102 -13.5 q68 0 126.5 32.5t106.5 97.5t75.5 176t27.5 255q0 127 -28.5 219.5t-78 143t-107 73.5t-126.5 23q-67 0 -125 -32.5t-105 -98t-73.5 -176t-26.5 -255.5zM317 1446q130 137 220 137q46 0 127.5 -30.5t107.5 -30.5q66 0 139 69l62 -71q-117 -142 -215 -142q-40 0 -131 34 t-115 34q-53 0 -139 -72z" />
<glyph unicode="&#xd6;" horiz-adv-x="1155" d="M70 524q0 156 35 284.5t92.5 214t135 144.5t159 85t167.5 26q199 0 323 -146.5t124 -402.5q0 -156 -35 -284.5t-93 -214t-135.5 -144.5t-159 -85t-167.5 -26q-199 0 -322.5 146.5t-123.5 402.5zM254 575q0 -102 18.5 -182.5t49 -131.5t74 -84t90.5 -46.5t102 -13.5 q68 0 126.5 32.5t106.5 97.5t75.5 176t27.5 255q0 127 -28.5 219.5t-78 143t-107 73.5t-126.5 23q-67 0 -125 -32.5t-105 -98t-73.5 -176t-26.5 -255.5zM354 1526q1 30 41.5 70t67.5 40q28 0 69.5 -31.5t38.5 -60.5q-1 -30 -41.5 -70t-66.5 -40q-29 0 -70.5 32t-38.5 60z M721 1526q1 30 41 70t67 40q28 0 70 -31.5t39 -60.5q-1 -30 -42 -70t-67 -40q-29 0 -70 32t-38 60z" />
<glyph unicode="&#xd7;" d="M150 291l272 254l-236 254l95 86l235 -252l270 252l82 -86l-272 -254l235 -254l-92 -88l-237 256l-273 -256z" />
<glyph unicode="&#xd8;" horiz-adv-x="1175" d="M70 524q0 156 35 284.5t92.5 214t135 144.5t159 85t167.5 26q71 0 129 -18l66 159h125l-84 -209q99 -66 155 -189.5t56 -291.5q0 -156 -35 -284.5t-93 -214t-135.5 -144.5t-159 -85t-167.5 -26q-62 0 -117 15l-65 -160h-125l84 205q-105 64 -164 190t-59 299zM254 575 q0 -253 108 -368l365 899q-61 31 -143 31q-67 0 -125 -32.5t-105 -98t-73.5 -176t-26.5 -255.5zM459 139q56 -22 129 -22q68 0 126.5 32.5t106.5 97.5t75.5 176t27.5 255q0 233 -101 356z" />
<glyph unicode="&#xd9;" horiz-adv-x="1206" d="M141 344q0 20 0.5 37t2.5 51t4 67t7.5 107t11 148.5t16 215t20.5 283.5h178q-12 -176 -23.5 -343t-16.5 -235t-9 -132.5t-5 -90.5t-1 -53q0 -141 74 -209.5t204 -68.5q123 0 190.5 72.5t79.5 236.5l56 823h172l-55 -802q-15 -233 -145 -354.5t-357 -121.5 q-177 0 -290.5 96t-113.5 273zM391 1616l184 35l244 -297h-143z" />
<glyph unicode="&#xda;" horiz-adv-x="1206" d="M141 344q0 20 0.5 37t2.5 51t4 67t7.5 107t11 148.5t16 215t20.5 283.5h178q-12 -176 -23.5 -343t-16.5 -235t-9 -132.5t-5 -90.5t-1 -53q0 -141 74 -209.5t204 -68.5q123 0 190.5 72.5t79.5 236.5l56 823h172l-55 -802q-15 -233 -145 -354.5t-357 -121.5 q-177 0 -290.5 96t-113.5 273zM397 1354l285 297l180 -35l-321 -262h-144z" />
<glyph unicode="&#xdb;" horiz-adv-x="1206" d="M141 344q0 20 0.5 37t2.5 51t4 67t7.5 107t11 148.5t16 215t20.5 283.5h178q-12 -176 -23.5 -343t-16.5 -235t-9 -132.5t-5 -90.5t-1 -53q0 -141 74 -209.5t204 -68.5q123 0 190.5 72.5t79.5 236.5l56 823h172l-55 -802q-15 -233 -145 -354.5t-357 -121.5 q-177 0 -290.5 96t-113.5 273zM330 1354l274 297h123l234 -297h-138l-168 157l-188 -157h-137z" />
<glyph unicode="&#xdc;" horiz-adv-x="1206" d="M141 344q0 20 0.5 37t2.5 51t4 67t7.5 107t11 148.5t16 215t20.5 283.5h178q-12 -176 -23.5 -343t-16.5 -235t-9 -132.5t-5 -90.5t-1 -53q0 -141 74 -209.5t204 -68.5q123 0 190.5 72.5t79.5 236.5l56 823h172l-55 -802q-15 -233 -145 -354.5t-357 -121.5 q-177 0 -290.5 96t-113.5 273zM342 1526q1 30 41.5 70t67.5 40q28 0 69.5 -31.5t38.5 -60.5q-1 -30 -41.5 -70t-66.5 -40q-29 0 -70.5 32t-38.5 60zM709 1526q1 30 41 70t67 40q28 0 70 -31.5t39 -60.5q-1 -30 -42 -70t-67 -40q-29 0 -70 32t-38 60z" />
<glyph unicode="&#xdd;" horiz-adv-x="1032" d="M74 1253h194l285 -585l346 585h180l-463 -749l-34 -504h-179l35 500zM438 1354l285 297l180 -35l-321 -262h-144z" />
<glyph unicode="&#xde;" horiz-adv-x="962" d="M117 0l88 1253h178l-16 -221h157q204 0 311 -87t107 -245q0 -195 -146 -317.5t-382 -122.5h-101l-18 -260h-178zM322 391h149q125 0 208 67t83 191q0 129 -73.5 192.5t-211.5 63.5h-119z" />
<glyph unicode="&#xdf;" horiz-adv-x="956" d="M-195 -457l33 138q57 -17 105 -17q71 0 116.5 57t51.5 175l53 1085q6 119 45 211.5t100 147.5t134 82.5t153 27.5q122 0 206.5 -75t84.5 -189q0 -50 -30 -102t-72.5 -95.5t-84.5 -85t-72 -85t-30 -81.5q0 -58 24.5 -98t106.5 -102q98 -76 139 -138.5t43 -130.5 q0 -122 -97 -207.5t-239 -85.5q-80 0 -186 29l33 146q62 -25 108.5 -36.5t108.5 -11.5q46 0 80.5 29t34.5 76q0 52 -33 99.5t-143 131.5q-67 52 -98 105t-31 121q0 57 29 111.5t70 97.5t82 85t70 91t29 98q0 75 -53.5 126.5t-147.5 51.5q-85 0 -134.5 -68t-55.5 -202 l-53 -1051q-9 -209 -120.5 -342t-277.5 -133q-42 0 -82 14z" />
<glyph unicode="&#xe0;" horiz-adv-x="901" d="M70 336q0 162 56 300.5t161.5 224t238.5 85.5q73 0 146.5 -17t122.5 -46l-62 -883l-139 -25l-8 242q-59 -112 -143 -177t-156 -65q-100 0 -158.5 87t-58.5 274zM244 354q0 -116 31 -178.5t87 -62.5q24 0 51 13.5t57.5 46.5t57 81.5t48.5 126.5t32 174l17 231 q-72 35 -148 35q-102 0 -167.5 -120.5t-65.5 -346.5zM301 1309l184 34l244 -296h-143z" />
<glyph unicode="&#xe1;" horiz-adv-x="901" d="M70 336q0 162 56 300.5t161.5 224t238.5 85.5q73 0 146.5 -17t122.5 -46l-62 -883l-139 -25l-8 242q-59 -112 -143 -177t-156 -65q-100 0 -158.5 87t-58.5 274zM244 354q0 -116 31 -178.5t87 -62.5q24 0 51 13.5t57.5 46.5t57 81.5t48.5 126.5t32 174l17 231 q-72 35 -148 35q-102 0 -167.5 -120.5t-65.5 -346.5zM401 1047l285 296l180 -34l-321 -262h-144z" />
<glyph unicode="&#xe2;" horiz-adv-x="901" d="M70 336q0 162 56 300.5t161.5 224t238.5 85.5q73 0 146.5 -17t122.5 -46l-62 -883l-139 -25l-8 242q-59 -112 -143 -177t-156 -65q-100 0 -158.5 87t-58.5 274zM219 1047l275 296h122l234 -296h-137l-168 157l-189 -157h-137zM244 354q0 -116 31 -178.5t87 -62.5 q24 0 51 13.5t57.5 46.5t57 81.5t48.5 126.5t32 174l17 231q-72 35 -148 35q-102 0 -167.5 -120.5t-65.5 -346.5z" />
<glyph unicode="&#xe3;" horiz-adv-x="901" d="M70 336q0 162 56 300.5t161.5 224t238.5 85.5q73 0 146.5 -17t122.5 -46l-62 -883l-139 -25l-8 242q-59 -112 -143 -177t-156 -65q-100 0 -158.5 87t-58.5 274zM217 1139q130 137 219 137q46 0 128 -31t108 -31q65 0 139 70l61 -72q-116 -141 -215 -141q-40 0 -130.5 34 t-114.5 34q-54 0 -140 -72zM244 354q0 -116 31 -178.5t87 -62.5q24 0 51 13.5t57.5 46.5t57 81.5t48.5 126.5t32 174l17 231q-72 35 -148 35q-102 0 -167.5 -120.5t-65.5 -346.5z" />
<glyph unicode="&#xe4;" horiz-adv-x="901" d="M70 336q0 162 56 300.5t161.5 224t238.5 85.5q73 0 146.5 -17t122.5 -46l-62 -883l-139 -25l-8 242q-59 -112 -143 -177t-156 -65q-100 0 -158.5 87t-58.5 274zM233 1219q1 30 41.5 70t67.5 40q28 0 70 -31.5t39 -60.5q-1 -30 -42 -70.5t-67 -40.5q-29 0 -70.5 32.5 t-38.5 60.5zM244 354q0 -116 31 -178.5t87 -62.5q24 0 51 13.5t57.5 46.5t57 81.5t48.5 126.5t32 174l17 231q-72 35 -148 35q-102 0 -167.5 -120.5t-65.5 -346.5zM600 1219q1 30 41.5 70t67.5 40q28 0 69.5 -31.5t38.5 -60.5q-1 -30 -42 -70.5t-66 -40.5q-29 0 -70.5 32.5 t-38.5 60.5z" />
<glyph unicode="&#xe5;" horiz-adv-x="901" d="M70 336q0 162 56 300.5t161.5 224t238.5 85.5q73 0 146.5 -17t122.5 -46l-62 -883l-139 -25l-8 242q-59 -112 -143 -177t-156 -65q-100 0 -158.5 87t-58.5 274zM244 354q0 -116 31 -178.5t87 -62.5q24 0 51 13.5t57.5 46.5t57 81.5t48.5 126.5t32 174l17 231 q-72 35 -148 35q-102 0 -167.5 -120.5t-65.5 -346.5zM334 1235q4 75 66.5 129.5t138.5 54.5q80 0 132 -48.5t46 -135.5q-4 -74 -66.5 -128t-138.5 -54q-79 0 -131.5 49t-46.5 133zM432 1235q-3 -40 22.5 -66t63.5 -26t67.5 26t32.5 66q3 43 -23.5 69.5t-64.5 26.5 t-66.5 -26.5t-31.5 -69.5z" />
<glyph unicode="&#xe6;" horiz-adv-x="1275" d="M70 315q0 178 56 321t162.5 226.5t243.5 83.5q135 0 273 -74q92 74 203 74q104 0 164.5 -61.5t60.5 -147.5q0 -94 -68.5 -168t-171 -112t-219.5 -43v-39q0 -137 43 -201.5t109 -64.5q102 0 243 120l50 -90q-69 -68 -158 -116t-174 -48q-110 0 -183 65t-96 191 q-74 -127 -163 -191.5t-169 -64.5q-89 0 -147.5 84t-58.5 256zM244 334q0 -103 32.5 -162t83.5 -59q53 0 121 71.5t119 198.5q9 222 102 373q-106 69 -217 69q-109 0 -175 -126.5t-66 -364.5zM780 510q133 9 212 66t79 141q0 50 -27.5 81t-74.5 31q-71 0 -121.5 -83 t-67.5 -236z" />
<glyph unicode="&#xe7;" horiz-adv-x="763" d="M72 354q0 138 34.5 252.5t92.5 187.5t130.5 112.5t151.5 39.5q145 0 246 -72l-61 -131q-44 27 -66.5 39t-65.5 26.5t-83 14.5q-49 0 -89 -42t-64 -107.5t-37 -137.5t-13 -139q0 -288 160 -288q42 0 88 20.5t74 41t73 58.5l49 -90q-122 -113 -252 -149l-53 -101 q38 -18 53 -25t40 -23t34.5 -28.5t17 -32t5.5 -42.5q-5 -74 -88 -134.5t-240 -74.5l-16 88q103 12 155 31.5t55 60.5q1 29 -34 50.5t-115 43.5l-4 11l88 161q-123 3 -194.5 95.5t-71.5 283.5z" />
<glyph unicode="&#xe8;" horiz-adv-x="757" d="M74 342q0 140 34 256.5t91 191.5t130 115.5t152 40.5q104 0 165 -61.5t61 -147.5q0 -94 -68.5 -168t-171 -112t-219.5 -43v-39q0 -137 42.5 -201.5t108.5 -64.5q103 0 244 120l49 -90q-69 -68 -158 -116t-174 -48q-134 0 -210 94t-76 273zM227 1309l185 34l243 -296h-143 zM254 510q133 9 212 66t79 141q0 50 -28 81t-75 31q-71 0 -121 -82.5t-67 -236.5z" />
<glyph unicode="&#xe9;" horiz-adv-x="757" d="M74 342q0 140 34 256.5t91 191.5t130 115.5t152 40.5q104 0 165 -61.5t61 -147.5q0 -94 -68.5 -168t-171 -112t-219.5 -43v-39q0 -137 42.5 -201.5t108.5 -64.5q103 0 244 120l49 -90q-69 -68 -158 -116t-174 -48q-134 0 -210 94t-76 273zM254 510q133 9 212 66t79 141 q0 50 -28 81t-75 31q-71 0 -121 -82.5t-67 -236.5zM328 1047l284 296l181 -34l-322 -262h-143z" />
<glyph unicode="&#xea;" horiz-adv-x="757" d="M74 342q0 140 34 256.5t91 191.5t130 115.5t152 40.5q104 0 165 -61.5t61 -147.5q0 -94 -68.5 -168t-171 -112t-219.5 -43v-39q0 -137 42.5 -201.5t108.5 -64.5q103 0 244 120l49 -90q-69 -68 -158 -116t-174 -48q-134 0 -210 94t-76 273zM145 1047l275 296h123l233 -296 h-137l-168 157l-188 -157h-138zM254 510q133 9 212 66t79 141q0 50 -28 81t-75 31q-71 0 -121 -82.5t-67 -236.5z" />
<glyph unicode="&#xeb;" horiz-adv-x="757" d="M74 342q0 140 34 256.5t91 191.5t130 115.5t152 40.5q104 0 165 -61.5t61 -147.5q0 -94 -68.5 -168t-171 -112t-219.5 -43v-39q0 -137 42.5 -201.5t108.5 -64.5q103 0 244 120l49 -90q-69 -68 -158 -116t-174 -48q-134 0 -210 94t-76 273zM180 1219q1 30 41.5 70t67.5 40 q28 0 69.5 -31.5t38.5 -60.5q-1 -30 -42 -70.5t-66 -40.5q-29 0 -70.5 32.5t-38.5 60.5zM254 510q133 9 212 66t79 141q0 50 -28 81t-75 31q-71 0 -121 -82.5t-67 -236.5zM547 1219q1 30 41 70t67 40q28 0 70 -31.5t39 -60.5q-1 -30 -42 -70.5t-67 -40.5q-29 0 -70 32.5 t-38 60.5z" />
<glyph unicode="&#xec;" horiz-adv-x="440" d="M-70 1311l185 35l243 -297h-143zM106 0l66 918l168 28l-68 -946h-166z" />
<glyph unicode="&#xed;" horiz-adv-x="440" d="M106 0l66 918l168 28l-68 -946h-166zM174 1049l285 297l180 -35l-322 -262h-143z" />
<glyph unicode="&#xee;" horiz-adv-x="440" d="M-49 1049l274 297h123l234 -297h-138l-168 157l-188 -157h-137zM106 0l66 918l168 28l-68 -946h-166z" />
<glyph unicode="&#xef;" horiz-adv-x="440" d="M6 1219q1 30 41.5 70t67.5 40q28 0 69.5 -31.5t38.5 -60.5q-1 -30 -42 -70.5t-66 -40.5q-29 0 -70.5 32.5t-38.5 60.5zM106 0l66 918l168 28l-68 -946h-166zM332 1219q1 30 41 70t67 40q28 0 70 -31.5t39 -60.5q-1 -30 -42 -70.5t-67 -40.5q-29 0 -70 32.5t-38 60.5z" />
<glyph unicode="&#xf0;" horiz-adv-x="858" d="M72 350q0 129 38.5 243t100 190t137 119.5t150.5 43.5q54 0 110 -16q-37 151 -129 254l-200 -107l-68 76l195 102q-64 55 -164 111l84 78q116 -58 198 -125l193 102l67 -75l-182 -97q105 -110 151 -248.5t46 -318.5q0 -130 -30.5 -246t-80 -198.5t-111.5 -143t-125.5 -90 t-121.5 -29.5q-113 0 -185.5 96t-72.5 279zM248 387q0 -274 139 -274q35 0 77 36.5t80.5 101t64.5 171t26 229.5q0 95 -4 140q-87 26 -162 26q-97 0 -159 -104.5t-62 -325.5z" />
<glyph unicode="&#xf1;" horiz-adv-x="931" d="M106 0l64 918l141 28l11 -266q72 131 154.5 198.5t162.5 67.5q186 0 186 -241q0 -72 -14 -218t-32.5 -307t-20.5 -180h-168q2 30 18 171t28.5 274t12.5 186q0 94 -22 133t-74 39q-28 0 -63 -23.5t-72.5 -70t-69 -130t-45.5 -188.5l-29 -391h-168zM199 1139 q130 137 219 137q46 0 127.5 -31t107.5 -31q66 0 140 70l61 -72q-116 -141 -215 -141q-40 0 -131 34t-115 34q-53 0 -139 -72z" />
<glyph unicode="&#xf2;" horiz-adv-x="897" d="M74 371q0 82 16.5 162t51.5 155t85.5 132t124.5 91.5t162 34.5q139 0 224 -102.5t85 -292.5q0 -82 -16.5 -162t-51.5 -155.5t-85.5 -132.5t-124.5 -91.5t-162 -34.5q-138 0 -223.5 102.5t-85.5 293.5zM248 377q0 -140 47.5 -213.5t140.5 -73.5q50 0 89.5 32t62 80t37 112 t19.5 119.5t5 111.5q0 134 -46.5 210t-141.5 76q-50 0 -89.5 -32.5t-62 -81t-37 -113t-19.5 -119.5t-5 -108zM268 1309l185 34l243 -296h-143z" />
<glyph unicode="&#xf3;" horiz-adv-x="897" d="M74 371q0 82 16.5 162t51.5 155t85.5 132t124.5 91.5t162 34.5q139 0 224 -102.5t85 -292.5q0 -82 -16.5 -162t-51.5 -155.5t-85.5 -132.5t-124.5 -91.5t-162 -34.5q-138 0 -223.5 102.5t-85.5 293.5zM248 377q0 -140 47.5 -213.5t140.5 -73.5q50 0 89.5 32t62 80t37 112 t19.5 119.5t5 111.5q0 134 -46.5 210t-141.5 76q-50 0 -89.5 -32.5t-62 -81t-37 -113t-19.5 -119.5t-5 -108zM389 1047l285 296l180 -34l-322 -262h-143z" />
<glyph unicode="&#xf4;" horiz-adv-x="897" d="M74 371q0 82 16.5 162t51.5 155t85.5 132t124.5 91.5t162 34.5q139 0 224 -102.5t85 -292.5q0 -82 -16.5 -162t-51.5 -155.5t-85.5 -132.5t-124.5 -91.5t-162 -34.5q-138 0 -223.5 102.5t-85.5 293.5zM207 1047l274 296h123l234 -296h-138l-168 157l-188 -157h-137z M248 377q0 -140 47.5 -213.5t140.5 -73.5q50 0 89.5 32t62 80t37 112t19.5 119.5t5 111.5q0 134 -46.5 210t-141.5 76q-50 0 -89.5 -32.5t-62 -81t-37 -113t-19.5 -119.5t-5 -108z" />
<glyph unicode="&#xf5;" horiz-adv-x="897" d="M74 371q0 82 16.5 162t51.5 155t85.5 132t124.5 91.5t162 34.5q139 0 224 -102.5t85 -292.5q0 -82 -16.5 -162t-51.5 -155.5t-85.5 -132.5t-124.5 -91.5t-162 -34.5q-138 0 -223.5 102.5t-85.5 293.5zM205 1139q130 137 219 137q46 0 127.5 -31t107.5 -31q66 0 140 70 l61 -72q-116 -141 -215 -141q-40 0 -131 34t-115 34q-53 0 -139 -72zM248 377q0 -140 47.5 -213.5t140.5 -73.5q50 0 89.5 32t62 80t37 112t19.5 119.5t5 111.5q0 134 -46.5 210t-141.5 76q-50 0 -89.5 -32.5t-62 -81t-37 -113t-19.5 -119.5t-5 -108z" />
<glyph unicode="&#xf6;" horiz-adv-x="897" d="M74 371q0 82 16.5 162t51.5 155t85.5 132t124.5 91.5t162 34.5q139 0 224 -102.5t85 -292.5q0 -82 -16.5 -162t-51.5 -155.5t-85.5 -132.5t-124.5 -91.5t-162 -34.5q-138 0 -223.5 102.5t-85.5 293.5zM221 1219q1 30 41.5 70t67.5 40q28 0 69.5 -31.5t38.5 -60.5 q-1 -30 -41.5 -70.5t-66.5 -40.5q-29 0 -70.5 32.5t-38.5 60.5zM248 377q0 -140 47.5 -213.5t140.5 -73.5q50 0 89.5 32t62 80t37 112t19.5 119.5t5 111.5q0 134 -46.5 210t-141.5 76q-50 0 -89.5 -32.5t-62 -81t-37 -113t-19.5 -119.5t-5 -108zM588 1219q1 30 41 70t67 40 q28 0 70 -31.5t39 -60.5q-1 -30 -42 -70.5t-67 -40.5q-29 0 -70 32.5t-38 60.5z" />
<glyph unicode="&#xf7;" d="M70 479l8 125h872l-8 -125h-872zM365 207q1 38 47 82.5t80 44.5q35 0 81 -36.5t43 -72.5q-3 -38 -49 -81.5t-80 -43.5q-35 0 -80 35.5t-42 71.5zM410 858q3 38 48 82.5t79 44.5q39 0 83.5 -35.5t41.5 -72.5q-1 -37 -48 -81t-82 -44q-37 0 -81 35t-41 71z" />
<glyph unicode="&#xf8;" horiz-adv-x="897" d="M74 371q0 82 16.5 162t51.5 155t85.5 132t124.5 91.5t162 34.5q41 0 72 -8l51 133h104l-65 -170q70 -46 108.5 -134.5t38.5 -215.5q0 -82 -16.5 -162t-51.5 -155.5t-85.5 -132.5t-124.5 -91.5t-162 -34.5q-28 0 -68 7l-49 -127h-104l63 163q-71 44 -111 134t-40 219z M240 377q0 -132 45 -205l252 643q-37 16 -76 16q-62 0 -108 -47.5t-69 -122t-33.5 -146t-10.5 -138.5zM365 104q28 -14 71 -14q62 0 108 46.5t69 120t33.5 146t10.5 142.5q0 125 -43 198z" />
<glyph unicode="&#xf9;" horiz-adv-x="927" d="M106 217q0 72 14 218t33 304t21 179l170 26q-2 -30 -18.5 -176.5t-29.5 -285t-13 -191.5q0 -94 21 -133t73 -39q22 0 49.5 14.5t59 48.5t59.5 82.5t50.5 124.5t31.5 166l26 363l168 28l-63 -946l-140 -25l-10 271q-72 -133 -154 -202t-163 -69q-185 0 -185 242zM252 1309 l184 34l244 -296h-143z" />
<glyph unicode="&#xfa;" horiz-adv-x="927" d="M106 217q0 72 14 218t33 304t21 179l170 26q-2 -30 -18.5 -176.5t-29.5 -285t-13 -191.5q0 -94 21 -133t73 -39q22 0 49.5 14.5t59 48.5t59.5 82.5t50.5 124.5t31.5 166l26 363l168 28l-63 -946l-140 -25l-10 271q-72 -133 -154 -202t-163 -69q-185 0 -185 242zM373 1047 l284 296l181 -34l-322 -262h-143z" />
<glyph unicode="&#xfb;" horiz-adv-x="927" d="M106 217q0 72 14 218t33 304t21 179l170 26q-2 -30 -18.5 -176.5t-29.5 -285t-13 -191.5q0 -94 21 -133t73 -39q22 0 49.5 14.5t59 48.5t59.5 82.5t50.5 124.5t31.5 166l26 363l168 28l-63 -946l-140 -25l-10 271q-72 -133 -154 -202t-163 -69q-185 0 -185 242zM197 1047 l274 296h123l233 -296h-137l-168 157l-188 -157h-137z" />
<glyph unicode="&#xfc;" horiz-adv-x="927" d="M106 217q0 72 14 218t33 304t21 179l170 26q-2 -30 -18.5 -176.5t-29.5 -285t-13 -191.5q0 -94 21 -133t73 -39q22 0 49.5 14.5t59 48.5t59.5 82.5t50.5 124.5t31.5 166l26 363l168 28l-63 -946l-140 -25l-10 271q-72 -133 -154 -202t-163 -69q-185 0 -185 242zM227 1219 q1 30 41.5 70t67.5 40q28 0 69.5 -31.5t38.5 -60.5q-1 -30 -41.5 -70.5t-66.5 -40.5q-29 0 -70.5 32.5t-38.5 60.5zM594 1219q1 30 41 70t67 40q28 0 70 -31.5t39 -60.5q-1 -30 -42 -70.5t-67 -40.5q-29 0 -70 32.5t-38 60.5z" />
<glyph unicode="&#xfd;" horiz-adv-x="841" d="M-215 -459l20 154q59 -12 127 -12q225 0 408 292h-74l-135 936l166 33l117 -835q162 328 227 813h156q-7 -84 -25.5 -184t-48 -215.5t-73.5 -231t-98 -227.5t-125 -208.5t-150 -169.5t-178 -115t-205 -42q-48 0 -109 12zM373 1047l284 296l181 -34l-322 -262h-143z" />
<glyph unicode="&#xfe;" horiz-adv-x="925" d="M72 -471l129 1862l168 28l-52 -741q65 120 145 194t165 74q227 0 227 -375q0 -125 -38 -238.5t-98 -190.5t-135 -122t-149 -45q-76 0 -164 25l-30 -442zM281 139q105 -37 186 -37q92 0 151.5 115.5t59.5 333.5q0 135 -33 196.5t-88 61.5q-32 0 -72.5 -33t-81 -94 t-72 -165.5t-40.5 -229.5v4z" />
<glyph unicode="&#xff;" horiz-adv-x="841" d="M-215 -459l20 154q59 -12 127 -12q225 0 408 292h-74l-135 936l166 33l117 -835q162 328 227 813h156q-7 -84 -25.5 -184t-48 -215.5t-73.5 -231t-98 -227.5t-125 -208.5t-150 -169.5t-178 -115t-205 -42q-48 0 -109 12zM203 1219q1 30 41 70t67 40q28 0 70 -31.5 t39 -60.5q-1 -30 -42 -70.5t-67 -40.5q-29 0 -70 32.5t-38 60.5zM569 1219q1 30 41.5 70t67.5 40q28 0 69.5 -31.5t38.5 -60.5q-1 -30 -41.5 -70.5t-66.5 -40.5q-29 0 -70.5 32.5t-38.5 60.5z" />
<glyph unicode="&#x152;" horiz-adv-x="1568" d="M70 535q0 144 32 266.5t87.5 209t130 147.5t159.5 90.5t176 29.5q98 0 174 -37v12h674l-30 -141l-476 6l-26 -397h440l-29 -137l-421 6l-31 -453l528 6l-31 -143h-686l2 27q-104 -52 -227 -52q-205 0 -325.5 149.5t-120.5 410.5zM254 575q0 -233 92 -345.5t240 -112.5 q93 0 168 59l61 868q-90 93 -229 93q-53 0 -100.5 -19t-90.5 -62t-74 -106.5t-49 -159.5t-18 -215z" />
<glyph unicode="&#x153;" horiz-adv-x="1316" d="M74 371q0 82 16.5 162t51.5 155t85.5 132t124.5 91.5t162 34.5q84 0 150.5 -38.5t105.5 -112.5q57 73 129.5 112t149.5 39q104 0 164.5 -61.5t60.5 -147.5q0 -94 -68.5 -168t-171 -112t-219.5 -43v-39q0 -137 43 -201.5t109 -64.5q102 0 243 120l50 -90 q-69 -68 -158 -116t-174 -48q-82 0 -144.5 37t-97.5 109q-119 -146 -303 -146q-138 0 -223.5 102.5t-85.5 293.5zM248 377q0 -140 47.5 -213.5t140.5 -73.5q50 0 89.5 32t62 80t37 112t19.5 119.5t5 111.5q0 134 -46.5 210t-141.5 76q-50 0 -89.5 -32.5t-62 -81t-37 -113 t-19.5 -119.5t-5 -108zM821 510q133 9 212 66t79 141q0 50 -27.5 81t-74.5 31q-69 0 -119.5 -80.5t-67.5 -230.5q0 -6 -2 -8z" />
<glyph unicode="&#x178;" horiz-adv-x="1032" d="M74 1253h194l285 -585l346 585h180l-463 -749l-34 -504h-179l35 500zM291 1526q1 30 41 70t67 40q28 0 70 -31.5t39 -60.5q-1 -30 -42 -70t-67 -40q-29 0 -70 32t-38 60zM657 1526q1 30 41.5 70t67.5 40q28 0 69.5 -31.5t38.5 -60.5q-1 -30 -41.5 -70t-66.5 -40 q-29 0 -70.5 32t-38.5 60z" />
<glyph unicode="&#x2c6;" horiz-adv-x="854" d="M111 1047l274 296h123l233 -296h-137l-168 157l-188 -157h-137z" />
<glyph unicode="&#x2dc;" horiz-adv-x="839" d="M92 1139q130 137 219 137q46 0 128 -31t108 -31q65 0 139 70l62 -72q-116 -141 -216 -141q-40 0 -130.5 34t-114.5 34q-54 0 -140 -72z" />
<glyph unicode="&#x2000;" horiz-adv-x="863" />
<glyph unicode="&#x2001;" horiz-adv-x="1726" />
<glyph unicode="&#x2002;" horiz-adv-x="863" />
<glyph unicode="&#x2003;" horiz-adv-x="1726" />
<glyph unicode="&#x2004;" horiz-adv-x="575" />
<glyph unicode="&#x2005;" horiz-adv-x="431" />
<glyph unicode="&#x2006;" horiz-adv-x="287" />
<glyph unicode="&#x2007;" horiz-adv-x="287" />
<glyph unicode="&#x2008;" horiz-adv-x="215" />
<glyph unicode="&#x2009;" horiz-adv-x="345" />
<glyph unicode="&#x200a;" horiz-adv-x="95" />
<glyph unicode="&#x2010;" horiz-adv-x="655" d="M92 436v31l41 96h430v-31l-39 -96h-432z" />
<glyph unicode="&#x2011;" horiz-adv-x="655" d="M92 436v31l41 96h430v-31l-39 -96h-432z" />
<glyph unicode="&#x2012;" horiz-adv-x="655" d="M92 436v31l41 96h430v-31l-39 -96h-432z" />
<glyph unicode="&#x2013;" horiz-adv-x="931" d="M92 436v31l41 92h707v-31l-39 -92h-709z" />
<glyph unicode="&#x2014;" horiz-adv-x="1341" d="M92 436v31l41 92h1116v-31l-39 -92h-1118z" />
<glyph unicode="&#x2018;" horiz-adv-x="471" d="M141 1077q6 81 166 369l105 -39q-8 -17 -30 -64.5t-31 -67.5t-23 -52.5t-20 -51t-7 -30.5q-1 -10 35 -46t35 -63q-3 -34 -41 -66t-70 -32q-34 0 -78 45.5t-41 97.5z" />
<glyph unicode="&#x2019;" horiz-adv-x="471" d="M141 944q8 17 30 64.5t31 67.5t23 52.5t20 51t7 30.5q1 10 -35 46t-35 63q3 34 41 66t70 32q34 0 78 -45.5t41 -97.5q-6 -81 -166 -369z" />
<glyph unicode="&#x201a;" horiz-adv-x="471" d="M55 -274q8 17 30 64.5t31 67.5t23 52.5t20 51t7 30.5q1 10 -35 45.5t-35 62.5q3 34 41 66.5t70 32.5q34 0 78 -46t41 -98q-5 -80 -166 -368z" />
<glyph unicode="&#x201c;" horiz-adv-x="794" d="M141 1077q6 81 166 369l105 -39q-8 -17 -30 -64.5t-31 -67.5t-23 -52.5t-20 -51t-7 -30.5q-1 -10 35 -46t35 -63q-3 -34 -41 -66t-70 -32q-34 0 -78 45.5t-41 97.5zM465 1077q6 81 166 369l104 -39q-7 -14 -22 -46.5t-22 -48.5t-19 -42.5t-18.5 -42t-13.5 -34.5 t-10.5 -31t-4.5 -21q-1 -10 34.5 -46t34.5 -63q-3 -34 -40.5 -66t-69.5 -32q-34 0 -78 45.5t-41 97.5z" />
<glyph unicode="&#x201d;" horiz-adv-x="784" d="M141 944q8 17 30 64.5t31 67.5t23 52.5t20 51t7 30.5q1 10 -35 46t-35 63q3 34 41 66t70 32q34 0 78 -45.5t41 -97.5q-6 -81 -166 -369zM455 944q7 14 22 46.5t22 48.5t19 42.5t18.5 42t13.5 34.5t10.5 31t4.5 21q1 10 -34.5 46t-34.5 63q3 34 40.5 66t69.5 32 q34 0 78 -45.5t41 -97.5q-6 -81 -166 -369z" />
<glyph unicode="&#x201e;" horiz-adv-x="788" d="M55 -274q8 17 30 64.5t31 67.5t23 52.5t20 51t7 30.5q1 10 -35 45.5t-35 62.5q3 34 41 66.5t70 32.5q34 0 78 -46t41 -98q-5 -80 -166 -368zM373 -274q7 14 22 46.5t22 48.5t19 42.5t18.5 42t13.5 34.5t10.5 31t4.5 21q1 10 -34.5 45.5t-34.5 62.5q3 34 40.5 66.5 t69.5 32.5q34 0 78 -46t41 -98q-5 -80 -166 -368z" />
<glyph unicode="&#x2022;" horiz-adv-x="630" d="M111 539q4 58 80.5 134.5t127.5 76.5q52 0 127.5 -63.5t71.5 -119.5q-3 -56 -80.5 -132.5t-126.5 -76.5q-53 0 -128 63t-72 118z" />
<glyph unicode="&#x2026;" horiz-adv-x="1509" d="M70 82q1 35 48.5 81t78.5 46q32 0 80 -38t45 -71q-1 -34 -49 -79.5t-80 -45.5t-79 37t-44 70zM588 82q1 35 48.5 81t78.5 46q32 0 80 -38t45 -71q-1 -34 -49 -79.5t-80 -45.5t-79 37t-44 70zM1108 82q1 35 48.5 81t78.5 46q32 0 80 -38t45 -71q-1 -34 -49 -79.5 t-80 -45.5t-79 37t-44 70z" />
<glyph unicode="&#x202f;" horiz-adv-x="345" />
<glyph unicode="&#x2039;" horiz-adv-x="679" d="M92 475l402 410l88 -72l-283 -338l233 -338l-96 -71z" />
<glyph unicode="&#x203a;" horiz-adv-x="679" d="M98 137l283 338l-234 338l97 72l344 -410l-402 -409z" />
<glyph unicode="&#x205f;" horiz-adv-x="431" />
<glyph unicode="&#x20ac;" d="M-37 424l39 102l104 21h19q0 37 2 57q4 48 8 76h-153l36 102l107 21h33q58 228 203.5 351.5t349.5 123.5q88 0 184.5 -17t146.5 -40l-59 -156q-56 27 -148.5 45t-177.5 18q-123 0 -202 -74t-113 -251h510l-43 -123h-483q0 -5 -1 -16.5t-1 -16.5q-5 -93 -5 -100h453 l-43 -123h-401q23 -155 102.5 -224t216.5 -69q164 0 311 70l19 -142q-63 -34 -167 -59t-210 -25q-435 0 -473 449h-164z" />
<glyph unicode="&#x25fc;" horiz-adv-x="931" d="M0 0v932h932v-932h-932z" />
</font>
</defs>
</svg>
