<?xml version="1.0" standalone="no"?>
<!DOCTYPE svg PUBLIC "-//W3C//DTD SVG 1.1//EN" "http://www.w3.org/Graphics/SVG/1.1/DTD/svg11.dtd" >
<svg xmlns="http://www.w3.org/2000/svg">
<metadata></metadata>
<defs>
<font id="ancizar_serifsemibold" horiz-adv-x="1103" >
<font-face units-per-em="2048" ascent="1536" descent="-512" />
<missing-glyph horiz-adv-x="466" />
<glyph unicode="&#xfb01;" horiz-adv-x="1148" d="M51 0v41l133 74v725h-125v82h125v30q0 240 138.5 367t363.5 127q86 0 170.5 -17t128.5 -43l-31 -196h-47l-219 166q-135 8 -211 -64.5t-76 -210.5v-159h287l158 12l63 14h64v-833l139 -74v-41h-489v41l133 74v671l-142 54h-213v-725l150 -74v-41h-500z" />
<glyph unicode="&#xfb02;" horiz-adv-x="1153" d="M51 0v41l133 74v725h-125v82h125v77q0 211 122.5 329t318.5 118q140 0 243 -35l80 72h56l-31 -279v-1089l139 -74v-41h-489v41l133 74v1142l-183 105q-92 0 -132 -45.5t-40 -159.5v-235h72l191 10l-23 -109l-168 17h-72v-725l134 -74v-41h-484z" />
<glyph unicode="&#xfb03;" horiz-adv-x="1720" d="M51 0v41l133 74v725h-125v82h125v16q0 141 61 244t159 152.5t219 49.5q170 0 288 -49q132 111 346 111q86 0 170.5 -17t128.5 -43l-30 -196h-47l-219 166q-135 8 -211 -64.5t-76 -210.5v-159h287l157 12l64 14h63v-833l139 -74v-41h-489v41l133 74v671l-141 54h-213v-725 l139 -74v-41h-489v41l133 74v725h-355v-725l123 -74v-41h-473zM401 922h355v30q0 132 43 230l-211 116q-95 0 -141 -51.5t-46 -189.5v-135z" />
<glyph unicode="&#xfb04;" horiz-adv-x="1724" d="M51 0v41l133 74v725h-125v82h125v16q0 141 61 244t159 152.5t219 49.5q155 0 270 -41q118 103 303 103q137 0 244 -35l80 72h55l-31 -279v-1089l139 -74v-41h-489v41l133 74v1142l-182 105q-92 0 -132 -45.5t-40 -159.5v-235h71l191 10l-23 -109l-168 17h-71v-725 l123 -74v-41h-473v41l133 74v725h-355v-725l123 -74v-41h-473zM401 922h355v77q0 112 32 189l-200 110q-95 0 -141 -51.5t-46 -189.5v-135z" />
<glyph horiz-adv-x="2048" />
<glyph horiz-adv-x="2048" />
<glyph unicode="&#xd;" horiz-adv-x="2048" />
<glyph unicode=" "  horiz-adv-x="466" />
<glyph unicode="&#x09;" horiz-adv-x="466" />
<glyph unicode="&#xa0;" horiz-adv-x="466" />
<glyph unicode="!" horiz-adv-x="581" d="M147 82q0 35 56 76t92 41q34 0 86.5 -38.5t52.5 -72.5q0 -35 -56 -76t-91 -41t-87.5 39t-52.5 72zM174 1255l236 64l-66 -961l-104 -43q0 64 -2.5 131.5t-4.5 119.5t-7.5 127t-8 113t-10.5 120.5t-10.5 107.5t-11.5 115.5t-11 105.5z" />
<glyph unicode="&#x22;" horiz-adv-x="657" d="M76 1419h207l-60 -463h-94zM377 1419h205l-54 -463h-94z" />
<glyph unicode="#" horiz-adv-x="1067" d="M55 373v30l33 80h182l60 248h-215v31l35 80h206l101 411h123l-101 -411h236l100 411h123l-100 -411h182v-31l-33 -80h-176l-59 -248h209v-30l-35 -80h-201l-90 -373h-123l90 373h-235l-91 -373h-122l90 373h-189zM393 483h236l59 248h-235z" />
<glyph unicode="$" d="M125 23l53 288h55l103 -202q102 -36 244 -33q196 0 196 186q0 89 -51 149t-178 113l-113 49q-138 57 -210 138.5t-72 203.5q0 136 98.5 235.5t269.5 125.5l-26 229h147l-31 -223h15q211 0 331 -53l-47 -281h-55l-106 199q-88 35 -220 35q-89 0 -133.5 -45t-44.5 -129 q0 -89 52.5 -144t158.5 -100l113 -47q170 -69 237.5 -149t67.5 -201q0 -144 -101.5 -246t-267.5 -135l29 -273h-137l22 260q-16 -2 -53 -2q-210 0 -346 52z" />
<glyph unicode="%" horiz-adv-x="1284" d="M61 965q0 146 88 231.5t224 85.5q119 0 186.5 -76.5t67.5 -216.5q0 -145 -87 -231t-223 -86q-119 0 -187.5 77t-68.5 216zM72 0l1009 1253h129l-1007 -1253h-131zM205 997q0 -119 42 -182t113 -63q69 0 96 44t27 165q0 118 -42 180.5t-115 62.5q-67 0 -94 -43.5 t-27 -163.5zM657 266q0 144 88.5 230t223.5 86q118 0 186 -76.5t68 -214.5q0 -146 -87.5 -233t-222.5 -87q-119 0 -187.5 77.5t-68.5 217.5zM799 297q0 -117 42 -180.5t113 -63.5q70 0 97.5 43t27.5 164q0 119 -42 182.5t-115 63.5q-68 0 -95.5 -44.5t-27.5 -164.5z" />
<glyph unicode="&#x26;" horiz-adv-x="1325" d="M63 274q0 108 70.5 193.5t212.5 165.5q-46 40 -73.5 68t-56.5 66t-42.5 78.5t-13.5 86.5q0 87 61.5 168.5t164 131.5t214.5 50q145 0 254 -51l-45 -264h-61l-103 176q-56 26 -139 26q-164 0 -164 -153q0 -47 30.5 -97t67.5 -86t112.5 -105t123.5 -118q38 -39 124 -133.5 t130 -140.5q65 108 65 229q0 124 -43 189l-141 71v43h473v-43l-133 -71q6 -44 6 -82q0 -212 -166 -400q124 -127 205 -170l121 -61v-41h-330q-49 29 -158 131q-108 -74 -222.5 -117t-203.5 -43q-147 0 -243.5 87.5t-96.5 215.5zM256 360q0 -100 82 -173.5t203 -73.5t237 69 q-110 111 -260 283q-48 58 -119 119q-78 -44 -110.5 -99t-32.5 -125z" />
<glyph unicode="'" horiz-adv-x="358" d="M76 1419h207l-60 -463h-94z" />
<glyph unicode="(" horiz-adv-x="651" d="M129 598q0 316 118.5 530t315.5 312l53 -92q-171 -92 -270.5 -286t-99.5 -464q0 -271 99.5 -465.5t270.5 -286.5l-53 -92q-197 98 -315.5 312.5t-118.5 531.5z" />
<glyph unicode=")" horiz-adv-x="651" d="M35 -154q171 92 271 286.5t100 463.5q0 271 -100 465.5t-271 286.5l53 92q197 -98 315.5 -312.5t118.5 -531.5q0 -316 -118.5 -530t-315.5 -312z" />
<glyph unicode="*" horiz-adv-x="897" d="M125 1106l22 123q61 -1 135 -43t128 -105l-13 -28q-50 22 -137 37.5t-135 15.5zM133 874q33 52 106.5 94.5t153.5 57.5l21 -25q-44 -34 -103 -101t-82 -107zM346 1354l117 43q28 -54 28 -138.5t-26 -162.5l-31 -6q-7 54 -36 138.5t-52 125.5zM406 822.5q0 84.5 26 162.5 l33 6q6 -55 35 -139.5t53 -124.5l-119 -43q-28 54 -28 138.5zM483 1079q44 33 102.5 100.5t82.5 108.5l96 -82q-32 -51 -106 -93.5t-154 -57.5zM487 999l13 29q53 -21 140 -37t134 -16l-22 -123q-61 1 -135 43t-130 104z" />
<glyph unicode="+" d="M131 463v110h363v351h116v-351h363v-110h-363v-365h-116v365h-363z" />
<glyph unicode="," horiz-adv-x="497" d="M115 111q0 38 41 80t77 42q40 0 100 -53t60 -112q0 -81 -51 -169.5t-180 -203.5l-45 31q112 146 112 208q0 32 -18 57.5t-39 40t-39 35.5t-18 44z" />
<glyph unicode="-" horiz-adv-x="620" d="M76 465v31l28 96h441v-31l-29 -96h-440z" />
<glyph unicode="." horiz-adv-x="497" d="M100 92q0 38 51.5 89.5t88.5 51.5t95 -41.5t58 -78.5q0 -39 -51.5 -90.5t-87.5 -51.5q-39 0 -96.5 42t-57.5 79z" />
<glyph unicode="/" horiz-adv-x="602" d="M35 -225l401 1644h117l-399 -1644h-119z" />
<glyph unicode="0" d="M80 600q0 317 145 499.5t373 182.5q203 0 314.5 -165t111.5 -466q0 -317 -144 -498.5t-372 -181.5q-203 0 -315.5 165t-112.5 464zM311 676q0 -297 77 -439.5t212 -142.5q71 0 111.5 40t62 146.5t21.5 297.5q0 298 -76 441.5t-211 143.5q-72 0 -113 -40t-62.5 -147 t-21.5 -300z" />
<glyph unicode="1" d="M174 1141l408 112h127v-1134l182 -78v-41h-666v43l254 76v1028l-260 -156z" />
<glyph unicode="2" d="M68 0v66q164 171 260 276t175 198t115 153.5t54 112.5t18 105q0 110 -71.5 176t-188.5 66q-52 0 -86 -6l-164 -260h-57l31 287q292 108 405 108q160 0 259.5 -87t99.5 -234q0 -58 -20.5 -115t-54 -109t-100.5 -124.5t-136 -139.5t-184 -176q-68 -63 -104 -98h519l120 182 h60l-64 -381h-886z" />
<glyph unicode="3" d="M137 0l4 10l43 217h58l151 -159h35q190 0 265 47.5t75 169.5q0 130 -90.5 211.5t-245.5 81.5q-54 0 -100 -5l35 123q54 -8 112 -8q126 0 183 47t57 156q0 126 -73.5 196t-190.5 70q-32 0 -72 -4l-164 -213h-57l20 234q152 58 239.5 83t149.5 25q167 0 269 -82.5 t102 -214.5q0 -108 -68 -189.5t-196 -125.5q161 -28 238 -111.5t77 -196.5q0 -104 -75 -194t-203.5 -143.5t-278.5 -53.5q-168 0 -299 29z" />
<glyph unicode="4" d="M4 244v69l789 969h73v-887h213l-45 -151h-168v-244h-229v244h-633zM186 395h451v555z" />
<glyph unicode="5" d="M135 4l4 10l39 203h58l139 -149h6q215 0 305 48t90 165q0 315 -471 321l-96 -29l43 652l39 28h540l107 101h57l-55 -299h-602l-14 -273q53 6 108 6q274 0 412.5 -110t138.5 -287q0 -122 -77.5 -219t-206.5 -149t-281 -52q-162 0 -283 33z" />
<glyph unicode="6" d="M104 539q0 150 34 275.5t91 210.5t132.5 144t157 86t165.5 27q171 0 270 -41l-51 -285h-57l-127 209q-40 11 -117 11q-56 0 -95.5 -13t-73.5 -48.5t-54.5 -98t-31.5 -162t-11 -240.5q144 65 220.5 88t131.5 23q143 0 231.5 -93.5t88.5 -244.5q0 -120 -66 -216.5 t-170.5 -148t-224.5 -51.5q-206 0 -324.5 144.5t-118.5 423.5zM338 532q10 -235 80.5 -343.5t187.5 -108.5q91 0 134.5 55.5t43.5 183.5q0 134 -61.5 206.5t-181.5 72.5q-102 0 -203 -66z" />
<glyph unicode="7" d="M115 883l61 370h844v-63l-481 -1188l-240 -2v51l571 1004h-577l-119 -172h-59z" />
<glyph unicode="8" d="M104 266q0 109 77 199t208 153q-235 134 -235 326q0 93 60.5 171t161 122.5t214.5 44.5q159 0 257.5 -74t98.5 -186q0 -191 -260 -305q175 -86 244 -164t69 -195q0 -73 -37 -142.5t-101 -123t-156.5 -86.5t-196.5 -33q-184 0 -294 81.5t-110 211.5zM301 326 q0 -109 81.5 -175.5t211.5 -66.5q108 0 163.5 41.5t55.5 132.5q0 63 -27 107.5t-96.5 92t-206.5 111.5l-14 6q-168 -95 -168 -249zM340 1030q0 -76 57.5 -136.5t208.5 -137.5q150 91 150 217q0 96 -66 155.5t-174 59.5q-87 0 -131.5 -41.5t-44.5 -116.5z" />
<glyph unicode="9" d="M106 848q0 122 64 222.5t169 156t226 55.5q96 0 175 -33t139 -99.5t93.5 -175.5t33.5 -253q0 -179 -57 -325t-151 -237t-209.5 -139.5t-238.5 -48.5q-74 0 -207 29l37 215h53l164 -145q80 9 144 42t117 95t83 164.5t33 238.5q-231 -118 -336 -118q-145 0 -238.5 98 t-93.5 258zM332 934q0 -143 66.5 -225t183.5 -82q106 0 192 65q-15 482 -274 482q-91 0 -129.5 -55.5t-38.5 -184.5z" />
<glyph unicode=":" horiz-adv-x="497" d="M100 92q0 38 51.5 89.5t88.5 51.5t95 -41.5t58 -78.5q0 -39 -51.5 -90.5t-87.5 -51.5q-39 0 -96.5 42t-57.5 79zM100 666q0 38 51.5 89.5t88.5 51.5t95 -42t58 -79q0 -39 -51.5 -90t-87.5 -51q-39 0 -96.5 42t-57.5 79z" />
<glyph unicode=";" horiz-adv-x="497" d="M100 666q0 38 51.5 89.5t88.5 51.5t95 -42t58 -79q0 -39 -51.5 -90t-87.5 -51q-39 0 -96.5 42t-57.5 79zM115 111q0 38 41 80t77 42q40 0 100 -53t60 -112q0 -81 -51 -169.5t-180 -203.5l-45 31q112 146 112 208q0 32 -18 57.5t-39 40t-39 35.5t-18 44z" />
<glyph unicode="&#x3c;" d="M188 492v73l660 451l61 -94l-575 -392l575 -395l-61 -94z" />
<glyph unicode="=" d="M174 338v108h756v-108h-756zM174 598v111h756v-111h-756z" />
<glyph unicode="&#x3e;" d="M195 139l575 391l-575 396l61 94l659 -451v-73l-659 -451z" />
<glyph unicode="?" horiz-adv-x="817" d="M37 897l41 272q205 84 259 98q53 15 97 15q153 0 252.5 -83.5t99.5 -211.5q0 -54 -17.5 -101.5t-45 -81.5t-61 -64.5t-67.5 -56.5t-61.5 -50t-45 -52t-17.5 -57q0 -53 84 -147l-174 -76q-121 78 -121 168q0 33 17 64t43.5 57t59 52.5t65.5 56.5t59.5 63.5t43.5 78 t17 95.5q0 109 -63.5 168t-159.5 59q-39 0 -63 -6l-164 -260h-78zM258 82q0 35 56.5 76t93.5 41q34 0 85.5 -38.5t51.5 -72.5t-57.5 -75.5t-92.5 -41.5t-86 39t-51 72z" />
<glyph unicode="@" horiz-adv-x="1708" d="M88 436q0 175 47.5 326t129.5 259.5t192.5 185.5t237.5 115t263 38q143 0 268.5 -43t218.5 -121.5t146.5 -195.5t53.5 -257q0 -126 -51.5 -237t-139 -191.5t-198 -136.5t-234.5 -82l-18 252q-130 -237 -267 -237q-89 0 -147 87t-58 257q0 231 120 368.5t306 137.5 q150 0 218 -37v-684q129 64 206.5 179.5t77.5 276.5q0 247 -148 386t-407 139q-320 0 -477.5 -166t-157.5 -527q0 -149 36 -270t96 -200.5t142 -133t170.5 -77t184.5 -23.5q169 0 387 86l17 -53q-187 -98 -299.5 -132t-229.5 -34q-93 0 -187.5 27.5t-184.5 88t-159.5 145.5 t-112 210.5t-42.5 273.5zM717 526q0 -153 27 -211.5t77 -58.5q26 0 54.5 20.5t58 65.5t48.5 134.5t19 209.5v137q-69 15 -129 15q-59 0 -90.5 -24t-48 -92t-16.5 -196z" />
<glyph unicode="A" horiz-adv-x="1286" d="M-6 0v43l129 76l465 1122l139 55l455 -1177l110 -76v-43h-518v43l172 76l-129 338h-440l-133 -338l145 -76v-43h-395zM412 543h372l-182 479z" />
<glyph unicode="B" horiz-adv-x="1191" d="M86 0v43l152 76v1016l-152 77v41h539q185 0 295 -72t110 -208q0 -84 -58.5 -161t-178.5 -124q153 -27 230 -107.5t77 -195.5q0 -121 -75 -210.5t-189 -132t-248 -42.5h-121h-381zM467 113q81 -23 172 -23q127 0 179 49.5t52 177.5q0 132 -82 212.5t-260 80.5 q-15 0 -61 -4v-493zM467 705q57 -13 117 -13q126 0 172.5 45.5t46.5 163.5q0 129 -70.5 197.5t-228.5 68.5h-37v-462z" />
<glyph unicode="C" horiz-adv-x="1202" d="M92 602q0 161 53 292t143 214.5t205 128.5t242 45q225 0 336 -63l-49 -283h-55l-127 209q-65 22 -181 22q-108 0 -180.5 -48t-114 -163t-42.5 -299q1 -270 114.5 -422.5t298.5 -152.5q81 0 133 12l181 246l57 -2l-53 -295q-195 -72 -387 -72q-268 0 -421 165.5 t-153 465.5z" />
<glyph unicode="D" horiz-adv-x="1382" d="M86 0v43l152 76v1016l-152 77v41h582q147 0 258.5 -31.5t194.5 -99t126 -180.5t43 -270q0 -213 -88.5 -366.5t-242.5 -229.5t-357 -76h-516zM467 137q110 -28 223 -28q96 0 162 23t113.5 78.5t69.5 149t22 232.5q0 126 -23.5 225t-64.5 164t-100 107.5t-126 60.5t-147 18 h-129v-1030z" />
<glyph unicode="E" horiz-adv-x="1130" d="M86 0v43l152 76v1016l-152 77v41h909l-51 -295h-55l-121 209h-301v-479h137l256 21l-22 -125l-238 22h-133v-520h330l188 252h57l-63 -338h-893z" />
<glyph unicode="F" horiz-adv-x="1048" d="M88 0v43l152 76v1016l-152 77v41h909l-51 -295h-55l-121 209h-301v-497h137l256 18l-22 -125l-238 23h-133v-467l182 -78v-41h-563z" />
<glyph unicode="G" horiz-adv-x="1271" d="M92 602q0 159 52 289.5t141 215t206 130t250 45.5q118 0 218.5 -17.5t156.5 -47.5l-51 -283h-55l-127 205q-36 12 -99 20t-114 8q-86 0 -148.5 -26t-108.5 -84.5t-68.5 -158.5t-22.5 -243q0 -274 116 -423.5t305 -149.5q105 0 150 14v371l-154 78v41h498v-43l-131 -76 v-406q-182 -90 -422 -90q-282 0 -437 161t-155 470z" />
<glyph unicode="H" horiz-adv-x="1482" d="M86 0v43l152 76v1016l-152 77v41h528v-43l-147 -75v-437h549v437l-148 77v41h529v-43l-152 -75v-1016l152 -78v-41h-529v43l148 76v485h-549v-485l147 -78v-41h-528z" />
<glyph unicode="I" horiz-adv-x="704" d="M86 0v43l152 76v1016l-152 77v41h532v-43l-151 -75v-1016l151 -78v-41h-532z" />
<glyph unicode="J" horiz-adv-x="792" d="M8 -2l45 217h53l119 -168q59 5 91 45.5t32 140.5v902l-162 77v41h545v-43l-151 -75v-816q0 -156 -117 -252t-283 -96q-89 0 -172 27z" />
<glyph unicode="K" horiz-adv-x="1335" d="M86 0v43l152 76v1016l-152 77v41h532v-43l-151 -75v-1016l151 -78v-41h-532zM477 659l516 478l-141 73v43h416v-43l-123 -71l-453 -416l520 -612l119 -68v-43h-323l-504 627z" />
<glyph unicode="L" horiz-adv-x="1097" d="M86 0v43l152 76v1016l-152 77v41h563v-43l-182 -75v-1049h336l207 276h57l-68 -362h-913z" />
<glyph unicode="M" horiz-adv-x="1800" d="M43 0v43l152 76l65 1016l-151 77v41h403l395 -936l396 936h387v-43l-152 -75l61 -1016l152 -78v-41h-532v43l151 76l-45 913l-407 -940l-138 -55l-409 989l-49 -907l151 -78v-41h-430z" />
<glyph unicode="N" horiz-adv-x="1421" d="M74 0v43l151 76v1016l-151 77v41h321l598 -751l74 -117v750l-162 77v41h443v-43l-152 -75v-1141h-100l-678 858l-66 104v-837l162 -78v-41h-440z" />
<glyph unicode="O" horiz-adv-x="1384" d="M92 600q0 164 54.5 296.5t146.5 215t208.5 126.5t246.5 44q248 0 396 -166.5t148 -464.5q0 -132 -35 -244t-96.5 -191.5t-143.5 -135t-176.5 -82.5t-195.5 -27q-249 0 -401 164t-152 465zM324 668q0 -279 113 -425.5t298 -146.5q116 0 185.5 44t106 152.5t36.5 295.5 q0 280 -112.5 426.5t-297.5 146.5q-117 0 -187 -44t-106 -152.5t-36 -296.5z" />
<glyph unicode="P" horiz-adv-x="1110" d="M86 0v43l152 76v1016l-152 77v41h541q211 0 322.5 -82.5t111.5 -248.5q0 -163 -140.5 -268t-365.5 -105q-42 0 -88 4v-434l182 -78v-41h-563zM467 655q59 -12 121 -12q126 0 187 52.5t61 174.5q0 142 -81.5 219.5t-242.5 77.5h-45v-512z" />
<glyph unicode="Q" horiz-adv-x="1384" d="M92 600q0 164 54.5 296.5t146.5 215t208.5 126.5t246.5 44q248 0 396 -166.5t148 -464.5q0 -132 -35 -244t-96.5 -191.5t-143.5 -135t-176.5 -82.5t-195.5 -27q-249 0 -401 164t-152 465zM276 -168q205 70 254 80q38 8 70 8q68 0 298.5 -61.5t279.5 -61.5q51 0 90.5 9 t91.5 38l18 -43q-99 -106 -164.5 -146t-134.5 -40q-59 0 -178.5 46t-234.5 89q-108 41 -159 41h-7q-28 -2 -56 -21.5t-100 -91.5h-43zM324 668q0 -279 113 -425.5t298 -146.5q116 0 185.5 44t106 152.5t36.5 295.5q0 280 -112.5 426.5t-297.5 146.5q-117 0 -187 -44 t-106 -152.5t-36 -296.5z" />
<glyph unicode="R" horiz-adv-x="1255" d="M86 0v43l152 76v1016l-152 77v41h528q216 0 329.5 -76.5t113.5 -222.5q0 -113 -71 -200.5t-187 -137.5l336 -510l110 -65v-41h-315l-324 565q-20 -2 -59 -2q-57 0 -80 2v-446l182 -78v-41h-563zM467 668q59 -15 139 -15q121 0 173 53.5t52 178.5q0 282 -317 282h-47v-499 z" />
<glyph unicode="S" horiz-adv-x="1048" d="M94 23l53 288h56l102 -202q94 -33 222 -33h22q196 0 196 186q0 89 -51 149t-178 113l-113 49q-138 57 -210 138.5t-72 203.5q0 157 128 262t345 105q212 0 332 -53l-47 -281h-56l-106 199q-88 35 -219 35q-89 0 -134 -45.5t-45 -128.5q0 -89 52.5 -144t158.5 -100 l113 -47q170 -69 237.5 -149t67.5 -201q0 -173 -144.5 -284.5t-363.5 -111.5q-210 0 -346 52z" />
<glyph unicode="T" horiz-adv-x="1198" d="M25 930l55 323h1094l-58 -323h-57l-111 237h-239v-1048l172 -78v-41h-574v43l172 76v1048h-207l-190 -237h-57z" />
<glyph unicode="U" horiz-adv-x="1409" d="M61 1212v41h533v-43l-152 -75v-658q0 -168 86 -257t248 -89q145 0 219 68t74 223v713l-151 77v41h430v-43l-152 -75v-666q0 -235 -143 -366.5t-365 -131.5q-221 0 -348 111t-127 330v723z" />
<glyph unicode="V" horiz-adv-x="1234" d="M-4 1210v43h518v-43l-172 -75l336 -887l338 887l-148 75v43h396v-43l-129 -75l-449 -1123l-137 -55l-443 1178z" />
<glyph unicode="W" horiz-adv-x="1966" d="M4 1210v43h514v-43l-172 -75l268 -873l359 991h114l371 -991l260 873h-2l-147 75v43h395v-43l-125 -73l-362 -1125l-138 -55l-366 975l-350 -920l-138 -55l-372 1178z" />
<glyph unicode="X" horiz-adv-x="1312" d="M12 0v43l142 72l395 508l-359 512l-129 75v43h562v-43l-162 -75h-2l248 -353l262 353l-146 75v43h426v-43l-143 -73l-340 -439l405 -579l129 -76v-43h-561v43l162 76h2l-295 420l-313 -420l143 -76v-43h-426z" />
<glyph unicode="Y" horiz-adv-x="1275" d="M25 1210v43h522v-43l-162 -71l322 -510l303 508l-144 73v43h398v-43l-127 -75l-379 -615v-401l151 -78v-41h-534v43l151 76v393l-391 623z" />
<glyph unicode="Z" horiz-adv-x="1134" d="M47 0v59l731 1098h-459l-192 -274h-57l61 370h920v-63l-727 -1094h514l206 295h58l-72 -391h-983z" />
<glyph unicode="[" horiz-adv-x="651" d="M205 -225v1644h389v-104h-272v-1436h272v-104h-389z" />
<glyph unicode="\" horiz-adv-x="589" d="M76 1419h112l334 -1644h-114z" />
<glyph unicode="]" horiz-adv-x="651" d="M57 -121h273v1436h-273v104h389v-1644h-389v104z" />
<glyph unicode="^" horiz-adv-x="1024" d="M72 477l362 801h154l362 -801h-90l-371 549l-327 -549h-90z" />
<glyph unicode="_" horiz-adv-x="901" d="M0 -225h901v-123h-901v123z" />
<glyph unicode="`" horiz-adv-x="1024" d="M315 1333l226 70l166 -361h-68z" />
<glyph unicode="a" horiz-adv-x="964" d="M68 203q0 128 141.5 217.5t378.5 93.5v143q0 91 -49 145t-144 54q-21 0 -41 -4l-170 -199h-47l-20 201q250 96 391 96q135 0 212 -63.5t77 -184.5v-571l145 -41v-45l-291 -74h-63v121q-95 -65 -158 -93t-119 -28q-98 0 -170.5 66.5t-72.5 165.5zM260 270q0 -73 48.5 -116 t119.5 -43q80 0 160 45v243q-77 15 -162 15q-166 0 -166 -144z" />
<glyph unicode="b" horiz-adv-x="1095" d="M8 1300v43l322 76h63l-22 -223v-369q110 67 173 95t128 28q150 0 249 -113t99 -323q0 -125 -44.5 -230t-117.5 -172t-163 -104t-183 -37q-143 0 -231 37l-80 -80l-47 17v1315zM371 143q34 -21 91 -35t109 -14q109 0 168.5 75t59.5 251q0 193 -68 289t-178 96 q-93 0 -182 -47v-615z" />
<glyph unicode="c" horiz-adv-x="882" d="M76 424q0 247 135 386.5t350 139.5q150 0 236 -41l-39 -231h-45l-152 168q-27 6 -88 6q-95 0 -143.5 -70.5t-48.5 -246.5q0 -111 25.5 -193t71 -128.5t101.5 -68.5t123 -22q107 0 219 49l23 -57q-123 -82 -195 -113t-153 -31q-186 0 -303 117.5t-117 335.5z" />
<glyph unicode="d" horiz-adv-x="1116" d="M76 408q0 125 44.5 230t117.5 171.5t162.5 103.5t183.5 37q72 0 139 -12v322l-145 40v43l323 76h64l-23 -223v-1065l156 -41v-45l-312 -74h-63v123q-104 -66 -169 -94.5t-130 -28.5q-150 0 -249 113.5t-99 323.5zM297 502q0 -192 69 -288.5t177 -96.5q92 0 180 45v618 q-35 19 -92 33t-107 14q-109 0 -168 -74.5t-59 -250.5z" />
<glyph unicode="e" horiz-adv-x="956" d="M76 440q0 118 35.5 215t96 161t141 99t171.5 35q175 0 260.5 -96t85.5 -260q0 -58 -6 -92h-571q3 -195 93.5 -286t235.5 -91q127 0 236 65l29 -57q-131 -90 -207 -126t-166 -36q-92 0 -169 27t-137.5 82t-94 147t-33.5 213zM289 575h362q0 137 -53 206t-154 69 q-80 0 -114.5 -57.5t-40.5 -217.5z" />
<glyph unicode="f" horiz-adv-x="651" d="M51 0v41l133 74v725h-125v82h125v77q0 105 33.5 191t90.5 141.5t132.5 85t161.5 29.5q81 0 143 -19l-26 -176h-47l-142 109q-62 0 -95.5 -58t-33.5 -194v-186h58l190 10l-22 -109l-168 17h-58v-725l191 -74v-41h-541z" />
<glyph unicode="g" horiz-adv-x="946" d="M18 -242q0 69 64 133t209 136q-146 39 -146 141q0 45 29.5 82.5t114.5 107.5q-107 24 -167.5 91.5t-60.5 177.5q0 99 55.5 173.5t144 111t194.5 36.5q149 0 235 -59l285 88l-23 -193h-43l-166 58q62 -74 62 -187q0 -92 -54.5 -163.5t-144.5 -108.5t-198 -37q-38 0 -54 2 q-49 -55 -49 -88q0 -27 35 -42t113 -23l168 -15q139 -15 202.5 -70t63.5 -153q0 -88 -75.5 -179.5t-201.5 -152.5t-258 -61q-163 0 -248.5 55t-85.5 139zM193 -168q0 -55 68 -93t198 -38q128 0 207 45.5t79 120.5q0 54 -47.5 85t-160.5 44l-160 16h-8q-176 -86 -176 -180z M266 668q0 -115 54.5 -175.5t138.5 -60.5q74 0 106.5 40.5t32.5 156.5t-52.5 178.5t-137.5 62.5q-76 0 -109 -42.5t-33 -159.5z" />
<glyph unicode="h" horiz-adv-x="1128" d="M31 1300v43l321 76h64l-23 -223v-367q195 121 314 121q113 0 185.5 -62t72.5 -171v-602l133 -74v-41h-408v41l58 74v508q0 87 -51 134.5t-128 47.5q-91 0 -176 -43v-647l123 -74v-41h-473v41l133 74v1145z" />
<glyph unicode="i" horiz-adv-x="577" d="M43 827v43l295 80h63v-835l140 -74v-41h-490v41l133 74v659zM152 1202q0 39 49.5 89t85.5 50q37 0 93 -40.5t56 -77.5t-50 -86.5t-85 -49.5q-37 0 -93 40t-56 75z" />
<glyph unicode="j" horiz-adv-x="544" d="M-135 -459l29 170h49l123 -104q49 3 78.5 58t29.5 192v917l-141 53v43l295 80h63v-966q0 -201 -108 -330t-293 -129q-69 0 -125 16zM141 1202q0 39 49.5 89t85.5 50q37 0 93.5 -40.5t56.5 -77.5t-50 -86.5t-85 -49.5q-37 0 -93.5 40t-56.5 75z" />
<glyph unicode="k" horiz-adv-x="1087" d="M29 1300v43l321 76h64l-23 -215v-721l361 322l-115 76v41h412v-41l-142 -74l-250 -205l326 -487l115 -74v-41h-301l-297 473l-109 -90v-268l139 -74v-41h-489v41l133 74v1145z" />
<glyph unicode="l" horiz-adv-x="565" d="M29 1300v43l321 76h64l-23 -215v-1089l139 -74v-41h-489v41l133 74v1145z" />
<glyph unicode="m" horiz-adv-x="1675" d="M43 827v43l295 80h63v-121q207 121 314 121q78 0 135.5 -33t85.5 -94q211 127 321 127q116 0 185 -62t69 -171v-602l134 -74v-41h-400v41l49 74v512q0 85 -45 131.5t-119 46.5q-83 0 -178 -43q4 -28 4 -45v-602l115 -74v-41h-381v41l49 74v512q0 86 -44.5 132t-119.5 46 q-81 0 -174 -43v-647l115 -74v-41h-465v41l133 74v659z" />
<glyph unicode="n" horiz-adv-x="1136" d="M43 827v43l295 80h63v-121q195 121 314 121q113 0 185.5 -62t72.5 -171v-602l133 -74v-41h-408v41l58 74v508q0 87 -50.5 134.5t-127.5 47.5q-92 0 -177 -43v-647l119 -74v-41h-469v41l133 74v659z" />
<glyph unicode="o" horiz-adv-x="1056" d="M76 440q0 235 137 372.5t360 137.5q190 0 299 -123t109 -346q0 -235 -136.5 -372.5t-359.5 -137.5q-191 0 -300 123.5t-109 345.5zM301 494q0 -198 67 -303t185 -105q79 0 121 28t62 101.5t20 212.5q0 199 -67 304.5t-189 105.5q-76 0 -117 -28.5t-61.5 -103 t-20.5 -212.5z" />
<glyph unicode="p" horiz-adv-x="1110" d="M29 827v43l293 80h63v-123q110 67 173 95t128 28q150 0 249 -113t99 -323q0 -125 -44.5 -230t-117.5 -172t-163 -104t-183 -37q-68 0 -141 13v-316l170 -78v-41h-520v41l133 78v1106zM385 143q34 -21 91.5 -35t109.5 -14q109 0 168 75t59 251q0 193 -68 289t-178 96 q-90 0 -182 -47v-615z" />
<glyph unicode="q" horiz-adv-x="1091" d="M76 408q0 125 44.5 230t117.5 171.5t162.5 103.5t183.5 37q143 0 231 -37l84 80l43 -14v-1311l139 -78v-41h-530v41l174 78v426q-110 -67 -173 -95t-128 -28q-150 0 -249 113.5t-99 323.5zM297 502q0 -192 69 -288.5t177 -96.5q89 0 182 49v612q-34 21 -91.5 35 t-109.5 14q-109 0 -168 -74.5t-59 -250.5z" />
<glyph unicode="r" horiz-adv-x="772" d="M43 827v43l295 80h63v-133q173 133 263 133q59 0 98 -20l-41 -238h-45l-162 105q-57 -13 -113 -47v-635l181 -74v-41h-531v41l133 74v659z" />
<glyph unicode="s" horiz-adv-x="860" d="M82 16l37 217h49l143 -167q46 -11 92 -11q179 0 179 138q0 60 -37 99.5t-137 76.5l-76 26q-236 83 -236 275q0 124 108 202t269 78q83 0 163 -13.5t124 -31.5l-35 -213h-45l-152 168q-31 8 -88 8q-153 0 -153 -118q0 -60 40 -100.5t128 -71.5l80 -29q133 -46 189 -108 t56 -165q0 -92 -57 -162.5t-148 -106.5t-200 -36q-183 0 -293 45z" />
<glyph unicode="t" horiz-adv-x="722" d="M33 840v47l301 205h57l-2 -170h96l222 10l-25 -109l-197 17h-98l-6 -547q-1 -88 44.5 -132t117.5 -44q92 0 159 28l19 -55q-116 -68 -177.5 -93.5t-117.5 -25.5q-115 0 -190 68t-74 192l12 609h-141z" />
<glyph unicode="u" horiz-adv-x="1130" d="M25 829v43l315 78h63l-20 -229v-420q0 -89 49 -136.5t127 -47.5q87 0 176 43v614l-135 55v43l311 78h64l-21 -229v-590l156 -41v-45l-311 -74h-64v121q-194 -121 -323 -121q-108 0 -178 63t-70 171v569z" />
<glyph unicode="v" horiz-adv-x="1015" d="M8 881v41h479v-41l-137 -76l236 -588l211 588l-115 76v41h344v-41l-111 -76l-317 -785l-154 -49l-340 834z" />
<glyph unicode="w" horiz-adv-x="1536" d="M8 881v41h479v-41l-133 -76h-2l178 -576l258 693h89l266 -695l168 578l-109 76v41h336v-41l-108 -74l-273 -787l-153 -49l-234 598l-233 -549l-154 -49l-279 836z" />
<glyph unicode="x" horiz-adv-x="1015" d="M6 0v41l113 72l287 325l-285 375l-96 68v41h454v-41l-94 -66l176 -244l176 242l-86 68v41h332v-41l-113 -72l-260 -301l303 -399l97 -68v-41h-457v41l98 65l-198 273l-201 -268l90 -70v-41h-336z" />
<glyph unicode="y" horiz-adv-x="1011" d="M6 881v41h479v-41l-139 -76l236 -596l213 596h-2l-113 76v41h342v-41l-109 -76h-2l-311 -774q-28 -116 -68 -206t-82.5 -145.5t-92.5 -91.5t-97 -49.5t-98 -13.5q-77 0 -133 29l32 176h35l131 -97q186 30 279 371l-76 -8l-330 809z" />
<glyph unicode="z" horiz-adv-x="917" d="M55 0v57l529 787h-293l-185 -232h-40l51 310h719v-62l-525 -782h328l199 254h41l-52 -332h-772z" />
<glyph unicode="{" horiz-adv-x="651" d="M121 555v84q55 4 91 18t53.5 36.5t23.5 46t6 55.5q0 57 -14.5 199.5t-14.5 207.5q0 244 305 244v-103q-92 0 -140 -39t-48 -104q0 -67 16.5 -205.5t16.5 -191.5q0 -168 -137 -203v-6q137 -35 137 -203q0 -53 -16.5 -191.5t-16.5 -205.5q0 -66 48 -105t140 -39v-102 q-305 0 -305 244q0 65 14.5 207.5t14.5 199.5q0 32 -6 55.5t-23.5 46t-53.5 36.5t-91 18z" />
<glyph unicode="|" horiz-adv-x="536" d="M211 -451v1870h115v-1870h-115z" />
<glyph unicode="}" horiz-adv-x="651" d="M80 -150q92 0 140 39t48 105q0 67 -16 205.5t-16 191.5q0 168 137 203v6q-137 35 -137 203q0 53 16 191.5t16 205.5q0 65 -48 104t-140 39v103q305 0 305 -244q0 -65 -14.5 -207.5t-14.5 -199.5q0 -32 6 -55.5t23.5 -46t53.5 -36.5t91 -18v-84q-55 -4 -91 -18 t-53.5 -36.5t-23.5 -46t-6 -55.5q0 -57 14.5 -199.5t14.5 -207.5q0 -244 -305 -244v102z" />
<glyph unicode="~" horiz-adv-x="1024" d="M53 432q151 264 316 264q60 0 189 -33.5t175 -33.5q107 0 197 100l51 -29q-66 -138 -149 -203t-164 -65q-60 0 -184 37t-177 37q-58 0 -104 -22.5t-105 -77.5z" />
<glyph unicode="&#xa1;" horiz-adv-x="581" d="M147 809q0 35 56.5 76t91.5 41t87 -39t52 -72q0 -35 -55.5 -76t-91.5 -41q-34 0 -87 38.5t-53 72.5zM172 -422l66 961l104 43q0 -64 2.5 -131.5t4.5 -119.5t7.5 -127t8 -113t10.5 -120.5t10.5 -107.5t11.5 -115.5t11 -105.5z" />
<glyph unicode="&#xa2;" d="M131 588q0 216 125.5 354.5t318.5 165.5l-28 254h145l-30 -248q165 0 251 -37l-39 -235h-47l-159 162q-36 10 -107 10q-52 0 -90 -14t-68 -47t-45.5 -94.5t-15.5 -151.5t21.5 -162t56.5 -118.5t82 -77t95.5 -43.5t100.5 -13q140 0 238 43l27 -55q-171 -120 -299 -140 l26 -264h-137l20 258q-88 3 -167 34t-140.5 86.5t-98 141.5t-36.5 191z" />
<glyph unicode="&#xa3;" horiz-adv-x="1073" d="M55 74q122 34 162.5 91t40.5 169q0 64 -20 244h-170v81h159q-10 98 -10 170q0 83 31.5 162.5t89 145t147.5 105.5t197 40q136 0 242 -47l-50 -289h-57l-112 203q-62 22 -136 22t-108.5 -47.5t-34.5 -148.5q0 -65 23 -316h118l221 11l-24 -109l-197 17h-112q8 -68 8 -129 q0 -127 -119 -263h485l127 174h54l-70 -360h-862z" />
<glyph unicode="&#xa4;" d="M84 59l172 144q-137 115 -137 325q0 209 149 332l-184 156l143 106l109 -215q105 60 231 60q119 0 207 -49l105 204l141 -106l-174 -148q127 -111 127 -315q0 -209 -146 -332l193 -162l-141 -106l-113 223q-108 -63 -240 -63q-111 0 -196 43l-103 -203zM285 539 q0 -145 68.5 -230.5t193.5 -85.5q133 0 197.5 73.5t64.5 242.5q0 146 -68 231.5t-194 85.5q-132 0 -197 -74t-65 -243z" />
<glyph unicode="&#xa5;" d="M-31 1210v43h520v-43l-161 -71l293 -486l272 484l-143 73v43h395v-43l-125 -73l-309 -527h290v-28l-28 -90h-303v-127h331v-29l-28 -88h-303v-129l151 -78v-41h-532v43l151 76v129h-317v28l27 89h290v127h-317v28l27 90h245l-315 525z" />
<glyph unicode="&#xa6;" horiz-adv-x="536" d="M211 303h115v-754h-115v754zM211 666v753h115v-753h-115z" />
<glyph unicode="&#xa7;" horiz-adv-x="1009" d="M72 586q0 203 260 305q-180 89 -180 250q0 132 109.5 217.5t297.5 85.5q161 0 268 -43l-36 -227h-50l-129 169q-59 19 -120 19q-150 0 -150 -123q0 -67 39 -114t131 -81l115 -45q161 -62 229 -134t68 -185q0 -203 -260 -305q180 -89 180 -252q0 -130 -113 -215.5 t-295 -85.5q-161 0 -268 43l37 227h49l129 -170q59 -18 121 -18q149 0 149 123q0 67 -39 113.5t-131 80.5l-114 45q-161 62 -229 134.5t-68 185.5zM270 666q0 -76 51 -128t168 -96l72 -26q164 52 164 186q0 73 -51 125t-168 96l-74 27q-77 -23 -119.5 -71.5t-42.5 -112.5z " />
<glyph unicode="&#xa8;" horiz-adv-x="1024" d="M190 1184q0 34 44.5 78.5t76.5 44.5q33 0 83 -36.5t50 -70.5q0 -33 -45 -76t-75 -43q-34 0 -84 35.5t-50 67.5zM580 1184q0 33 44.5 78t75.5 45q34 0 84 -36.5t50 -70.5q0 -33 -44.5 -76t-74.5 -43q-34 0 -84.5 35.5t-50.5 67.5z" />
<glyph unicode="&#xa9;" horiz-adv-x="1232" d="M80 510q0 162 75 286t196 187.5t265 63.5q164 0 287.5 -72t186.5 -193t63 -272q0 -163 -75.5 -287.5t-196.5 -188t-265 -63.5q-164 0 -287 72t-186 193.5t-63 273.5zM172 510q0 -207 127 -331t319 -124q204 0 325.5 129.5t121.5 325.5q0 210 -126.5 333.5t-320.5 123.5 q-136 0 -238.5 -60.5t-155 -163.5t-52.5 -233zM305 512q0 79 29.5 144.5t79 107.5t111 65t126.5 23q120 0 185 -33l-29 -145h-31l-80 102q-40 8 -88 8q-96 0 -131 -50.5t-35 -194.5q0 -139 57 -210t152 -71q45 0 72 6l96 125l31 -2l-29 -156q-96 -34 -207 -34 q-149 0 -229 78t-80 237z" />
<glyph unicode="&#xaa;" horiz-adv-x="536" d="M35 748q0 67 78 114t206 47v58q0 51 -23 73.5t-71 22.5q-16 0 -24 -2l-99 -105h-24l-10 123q134 47 256 47q65 0 103 -35t38 -104v-276l78 -23v-26l-191 -37h-33v67q-96 -67 -153 -67q-50 0 -90.5 35.5t-40.5 87.5zM168 786q0 -33 22.5 -55t59.5 -22q34 0 69 18v119 q-38 10 -79 10q-37 0 -54.5 -16t-17.5 -54z" />
<glyph unicode="&#xab;" horiz-adv-x="1005" d="M51 516l400 430l43 -22l-201 -408l201 -407l-43 -23zM430 516l399 430l43 -22l-200 -408l200 -407l-43 -23z" />
<glyph unicode="&#xac;" d="M117 633v106h862v-389h-111v283h-751z" />
<glyph unicode="&#xad;" horiz-adv-x="620" d="M76 465v31l28 96h441v-31l-29 -96h-440z" />
<glyph unicode="&#xae;" horiz-adv-x="1232" d="M80 1061q0 122 43.5 224t117.5 169.5t171 105t204 37.5q164 0 287.5 -71.5t186.5 -192.5t63 -272q0 -163 -75.5 -288t-196.5 -188t-265 -63q-164 0 -287 72t-186 193.5t-63 273.5zM172 1061q0 -207 127 -331t319 -124q204 0 325.5 129.5t121.5 325.5q0 210 -126.5 332.5 t-320.5 122.5q-205 0 -325.5 -128.5t-120.5 -326.5zM330 766v25l80 34v510l-80 37v23h288q120 0 182 -38t62 -112q0 -58 -37 -100.5t-100 -65.5l176 -260l55 -31v-22h-178l-168 289h-22q-29 0 -41 2v-232l94 -37v-22h-311zM547 1110q30 -6 76 -6q59 0 84.5 22.5t25.5 83.5 q0 138 -170 138h-16v-238z" />
<glyph unicode="&#xaf;" horiz-adv-x="1024" d="M242 1108v31l28 96h514v-31l-28 -96h-514z" />
<glyph unicode="&#xb0;" horiz-adv-x="700" d="M66 1161q0 120 83.5 203.5t200.5 83.5q123 0 204 -76.5t81 -210.5q0 -117 -85 -199.5t-202 -82.5q-122 0 -202 75t-80 207zM195 1161q0 -73 42.5 -119.5t110.5 -46.5t113 46.5t45 119.5q0 76 -45 124t-113 48t-110.5 -48t-42.5 -124z" />
<glyph unicode="&#xb1;" d="M131 559v111h363v350h116v-350h363v-111h-363v-364h-116v364h-363zM174 -23v111h756v-111h-756z" />
<glyph unicode="&#xb2;" horiz-adv-x="638" d="M27 766v45q196 169 265.5 255.5t69.5 150.5q0 40 -41 78t-96 38h-49l-90 -131h-33l31 166q164 51 242 51q77 0 143 -55t66 -129q0 -33 -10 -58.5t-40.5 -56.5t-56 -52t-89.5 -70t-108 -85h252l62 78h41l-39 -225h-520z" />
<glyph unicode="&#xb3;" horiz-adv-x="638" d="M86 762l4 12l31 158h51l59 -115h31q100 0 124 13.5t24 68.5q0 63 -49.5 105.5t-106.5 42.5q-23 0 -53 -3l22 84q32 -4 62 -4q65 0 84.5 16.5t19.5 65.5q0 48 -39 85.5t-90 37.5q-9 0 -19.5 -1t-13.5 -1l-94 -121h-33l27 162q155 51 205 51q112 0 167.5 -42.5t55.5 -112.5 q0 -106 -145 -152q81 -9 124.5 -52t43.5 -99q0 -89 -87.5 -151t-211.5 -62t-193 14z" />
<glyph unicode="&#xb4;" horiz-adv-x="1024" d="M319 1042l168 361l226 -70l-326 -291h-68z" />
<glyph unicode="&#xb5;" horiz-adv-x="1116" d="M125 -471l25 745v625l219 49v-602q0 -126 38 -178.5t113 -52.5q109 0 199 125v57v602l217 47v-651q0 -86 8 -121q11 -61 86 -61q47 0 84 12v-45q-91 -107 -213 -107q-68 0 -113.5 46t-58.5 116q-161 -164 -268 -164q-95 0 -162 64q18 -255 61 -449l-116 -37 q-61 -20 -70 -20h-49z" />
<glyph unicode="&#xb6;" horiz-adv-x="1148" d="M27 848q0 193 125 299t340 106h616v-43l-152 -75v-1067q0 -157 -107.5 -252t-266.5 -95q-100 0 -181 29l41 211h52l143 -164q137 12 137 185v1196h-147v-732h-144q-216 0 -336 106t-120 296z" />
<glyph unicode="&#xb7;" horiz-adv-x="497" d="M100 451q0 38 51.5 89.5t88.5 51.5t95 -42t58 -79q0 -39 -51.5 -90t-87.5 -51q-39 0 -96.5 42t-57.5 79z" />
<glyph unicode="&#xb8;" horiz-adv-x="1024" d="M346 -375q133 0 177 10.5t44 42.5q0 38 -38 64.5t-136 50.5l76 207h59l-18 -104q97 -26 141.5 -59t44.5 -89q0 -70 -84.5 -128.5t-246.5 -80.5z" />
<glyph unicode="&#xb9;" horiz-adv-x="638" d="M92 1335l242 66h100v-574l92 -32v-29h-391v29l127 32v502l-139 -92z" />
<glyph unicode="&#xba;" horiz-adv-x="591" d="M45 864q0 119 78.5 190.5t200.5 71.5q107 0 165 -60.5t58 -176.5q0 -120 -79 -192t-202 -72q-106 0 -163.5 61t-57.5 178zM197 885q0 -195 114 -195q47 0 63.5 34t16.5 144q0 197 -115 197q-45 0 -62 -36t-17 -144z" />
<glyph unicode="&#xbb;" horiz-adv-x="995" d="M133 109l201 407l-201 408l43 22l399 -430l-399 -430zM502 109l200 407l-200 408l43 22l399 -430l-399 -430z" />
<glyph unicode="&#xbc;" horiz-adv-x="1372" d="M119 1335l241 66h101v-574l92 -32v-29h-391v29l127 32v502l-139 -92zM211 0l836 1288l77 -35l-835 -1288zM647 117v47l406 487h98v-442h104l-28 -92h-76v-117h-170v117h-334zM766 209h215v262z" />
<glyph unicode="&#xbd;" horiz-adv-x="1372" d="M98 1335l242 66h100v-574l92 -32v-29h-391v29l127 32v502l-139 -92zM190 0l836 1288l78 -35l-836 -1288zM709 0v45q196 169 265.5 255.5t69.5 150.5q0 40 -41 78t-96 38h-49l-90 -131h-33l31 166q164 51 242 51q77 0 143 -55t66 -129q0 -33 -10 -58.5t-40.5 -56.5 t-56 -52t-89.5 -70t-108 -85h252l62 78h41l-39 -225h-520z" />
<glyph unicode="&#xbe;" horiz-adv-x="1372" d="M147 762l5 12l30 158h51l60 -115h31q71 0 99.5 6t38 21.5t9.5 54.5q0 63 -49.5 105.5t-106.5 42.5q-23 0 -53 -3l23 84q32 -4 61 -4q66 0 85.5 16.5t19.5 65.5q0 48 -39 85.5t-90 37.5q-9 0 -19.5 -1t-13.5 -1l-94 -121h-33l26 162q155 51 205 51q112 0 167.5 -42.5 t55.5 -112.5q0 -106 -145 -152q81 -9 124.5 -52t43.5 -99q0 -89 -87.5 -151t-211.5 -62t-193 14zM252 0l835 1288l78 -35l-835 -1288zM657 117v47l406 487h98v-442h105l-29 -92h-76v-117h-170v117h-334zM776 209h215v262z" />
<glyph unicode="&#xbf;" horiz-adv-x="817" d="M39 -66q0 54 17.5 101.5t45 81.5t61 64.5t67.5 56.5t61.5 50t45 52t17.5 57q0 54 -84 148l174 76q121 -78 121 -168q0 -33 -17 -64t-43.5 -57t-59.5 -52.5t-65.5 -56.5t-59 -63.5t-43.5 -78t-17 -95.5q0 -109 63.5 -168.5t159.5 -59.5q40 0 64 6l164 261h77l-40 -273 q-120 -49 -161.5 -65t-98 -31.5t-97.5 -15.5q-153 0 -252.5 83t-99.5 211zM281 834q0 34 57 75t92 41t86 -38.5t51 -71.5q0 -35 -56 -76t-93 -41q-34 0 -85.5 38.5t-51.5 72.5z" />
<glyph unicode="&#xc0;" horiz-adv-x="1286" d="M-6 0v43l129 76l465 1122l139 55l455 -1177l110 -76v-43h-518v43l172 76l-129 338h-440l-133 -338l145 -76v-43h-395zM397 1640l226 70l165 -360h-67zM412 543h372l-182 479z" />
<glyph unicode="&#xc1;" horiz-adv-x="1286" d="M-6 0v43l129 76l465 1122l139 55l455 -1177l110 -76v-43h-518v43l172 76l-129 338h-440l-133 -338l145 -76v-43h-395zM412 543h372l-182 479zM571 1350l166 360l226 -70l-324 -290h-68z" />
<glyph unicode="&#xc2;" horiz-adv-x="1286" d="M-6 0v43l129 76l465 1122l139 55l455 -1177l110 -76v-43h-518v43l172 76l-129 338h-440l-133 -338l145 -76v-43h-395zM367 1350l227 360h141l228 -360h-68l-231 188l-230 -188h-67zM412 543h372l-182 479z" />
<glyph unicode="&#xc3;" horiz-adv-x="1286" d="M-6 0v43l129 76l465 1122l139 55l455 -1177l110 -76v-43h-518v43l172 76l-129 338h-440l-133 -338l145 -76v-43h-395zM332 1399q110 221 229 221q44 0 137.5 -28.5t126.5 -28.5q75 0 144 84l37 -23q-48 -117 -108 -171t-120 -54q-42 0 -132 30.5t-130 30.5q-42 0 -75 -19 t-76 -65zM412 543h372l-182 479z" />
<glyph unicode="&#xc4;" horiz-adv-x="1286" d="M-6 0v43l129 76l465 1122l139 55l455 -1177l110 -76v-43h-518v43l172 76l-129 338h-440l-133 -338l145 -76v-43h-395zM342 1495q0 34 44.5 78.5t76.5 44.5q33 0 83 -36.5t50 -70.5q0 -33 -45.5 -76.5t-75.5 -43.5q-34 0 -83.5 35.5t-49.5 68.5zM412 543h372l-182 479z M731 1495q0 33 45 78t76 45q34 0 83.5 -36.5t49.5 -70.5q0 -33 -44.5 -76.5t-74.5 -43.5q-34 0 -84.5 35.5t-50.5 68.5z" />
<glyph unicode="&#xc5;" horiz-adv-x="1286" d="M-6 0v43l129 76l465 1122l139 55l455 -1177l110 -76v-43h-518v43l172 76l-129 338h-440l-133 -338l145 -76v-43h-395zM412 543h372l-182 479zM479 1544q0 76 55.5 130.5t131.5 54.5q79 0 131.5 -49t52.5 -136q0 -75 -55.5 -127.5t-132.5 -52.5t-130 48t-53 132zM578 1544 q0 -40 24.5 -67t63.5 -27q38 0 63 27t25 67q0 43 -25 70.5t-63 27.5q-39 0 -63.5 -27.5t-24.5 -70.5z" />
<glyph unicode="&#xc6;" horiz-adv-x="1685" d="M-94 0v43l129 70l657 1065l-119 34v41h977l-51 -295h-57l-119 209h-301v-489h137l256 20l-22 -125l-238 23h-133v-510h330l188 252h57l-63 -338h-920v43l179 76v467h-344l-289 -467h2l137 -76v-43h-393zM504 674h289v465z" />
<glyph unicode="&#xc7;" horiz-adv-x="1202" d="M92 602q0 161 53 292t143 214.5t205 128.5t242 45q225 0 336 -63l-49 -283h-55l-127 209q-65 22 -181 22q-108 0 -180.5 -48t-114 -163t-42.5 -299q1 -270 114.5 -422.5t298.5 -152.5q81 0 133 12l181 246l57 -2l-53 -295q-196 -72 -377 -72l-12 -71q96 -26 140 -60.5 t44 -91.5q0 -70 -85 -128.5t-247 -80.5l-18 86q133 0 177 10.5t44 42.5q0 39 -38.5 67t-135.5 52l65 176q-244 17 -381 180.5t-137 448.5z" />
<glyph unicode="&#xc8;" horiz-adv-x="1130" d="M86 0v43l152 76v1016l-152 77v41h909l-51 -295h-55l-121 209h-301v-479h137l256 21l-22 -125l-238 22h-133v-520h330l188 252h57l-63 -338h-893zM367 1640l225 70l166 -360h-68z" />
<glyph unicode="&#xc9;" horiz-adv-x="1130" d="M86 0v43l152 76v1016l-152 77v41h909l-51 -295h-55l-121 209h-301v-479h137l256 21l-22 -125l-238 22h-133v-520h330l188 252h57l-63 -338h-893zM428 1350l166 360l225 -70l-323 -290h-68z" />
<glyph unicode="&#xca;" horiz-adv-x="1130" d="M86 0v43l152 76v1016l-152 77v41h909l-51 -295h-55l-121 209h-301v-479h137l256 21l-22 -125l-238 22h-133v-520h330l188 252h57l-63 -338h-893zM305 1350l227 360h142l227 -360h-67l-232 188l-229 -188h-68z" />
<glyph unicode="&#xcb;" horiz-adv-x="1130" d="M86 0v43l152 76v1016l-152 77v41h909l-51 -295h-55l-121 209h-301v-479h137l256 21l-22 -125l-238 22h-133v-520h330l188 252h57l-63 -338h-893zM281 1495q0 34 44 78.5t76 44.5q33 0 83.5 -36.5t50.5 -70.5q0 -33 -45.5 -76.5t-75.5 -43.5q-34 0 -83.5 35.5t-49.5 68.5z M670 1495q0 33 45 78t76 45q34 0 83.5 -36.5t49.5 -70.5q0 -33 -44.5 -76.5t-74.5 -43.5q-34 0 -84.5 35.5t-50.5 68.5z" />
<glyph unicode="&#xcc;" horiz-adv-x="704" d="M86 0v43l152 76v1016l-152 77v41h532v-43l-151 -75v-1016l151 -78v-41h-532zM96 1640l226 70l165 -360h-67z" />
<glyph unicode="&#xcd;" horiz-adv-x="704" d="M86 0v43l152 76v1016l-152 77v41h532v-43l-151 -75v-1016l151 -78v-41h-532zM229 1350l166 360l226 -70l-324 -290h-68z" />
<glyph unicode="&#xce;" horiz-adv-x="704" d="M55 1350l228 360h141l227 -360h-67l-232 188l-229 -188h-68zM86 0v43l152 76v1016l-152 77v41h532v-43l-151 -75v-1016l151 -78v-41h-532z" />
<glyph unicode="&#xcf;" horiz-adv-x="704" d="M31 1495q0 34 44.5 78.5t76.5 44.5q33 0 83 -36.5t50 -70.5q0 -33 -45.5 -76.5t-75.5 -43.5q-34 0 -83.5 35.5t-49.5 68.5zM86 0v43l152 76v1016l-152 77v41h532v-43l-151 -75v-1016l151 -78v-41h-532zM420 1495q0 33 45 78t76 45q34 0 83.5 -36.5t49.5 -70.5 q0 -33 -44.5 -76.5t-74.5 -43.5q-34 0 -84.5 35.5t-50.5 68.5z" />
<glyph unicode="&#xd0;" horiz-adv-x="1382" d="M86 0v43l152 76v485h-152v94h152v437l-152 77v41h582q147 0 258.5 -31.5t194.5 -99t126 -180.5t43 -270q0 -213 -88.5 -366.5t-242.5 -229.5t-357 -76h-516zM467 137q110 -28 223 -28q96 0 162 23t113.5 78.5t69.5 149t22 232.5q0 126 -23.5 225t-64.5 164t-100 107.5 t-126 60.5t-147 18h-129v-469h334v-94h-334v-467z" />
<glyph unicode="&#xd1;" horiz-adv-x="1421" d="M74 0v43l151 76v1016l-151 77v41h321l598 -751l74 -117v750l-162 77v41h443v-43l-152 -75v-1141h-100l-678 858l-66 104v-837l162 -78v-41h-440zM399 1399q111 221 230 221q44 0 137.5 -28.5t126.5 -28.5q74 0 143 84l37 -23q-48 -117 -108 -171t-119 -54 q-42 0 -132 30.5t-130 30.5q-42 0 -76 -19.5t-76 -64.5z" />
<glyph unicode="&#xd2;" horiz-adv-x="1384" d="M92 600q0 164 54.5 296.5t146.5 215t208.5 126.5t246.5 44q248 0 396 -166.5t148 -464.5q0 -132 -35 -244t-96.5 -191.5t-143.5 -135t-176.5 -82.5t-195.5 -27q-249 0 -401 164t-152 465zM324 668q0 -279 113 -425.5t298 -146.5q116 0 185.5 44t106 152.5t36.5 295.5 q0 280 -112.5 426.5t-297.5 146.5q-117 0 -187 -44t-106 -152.5t-36 -296.5zM508 1640l225 70l166 -360h-68z" />
<glyph unicode="&#xd3;" horiz-adv-x="1384" d="M92 600q0 164 54.5 296.5t146.5 215t208.5 126.5t246.5 44q248 0 396 -166.5t148 -464.5q0 -132 -35 -244t-96.5 -191.5t-143.5 -135t-176.5 -82.5t-195.5 -27q-249 0 -401 164t-152 465zM324 668q0 -279 113 -425.5t298 -146.5q116 0 185.5 44t106 152.5t36.5 295.5 q0 280 -112.5 426.5t-297.5 146.5q-117 0 -187 -44t-106 -152.5t-36 -296.5zM508 1350l166 360l225 -70l-324 -290h-67z" />
<glyph unicode="&#xd4;" horiz-adv-x="1384" d="M92 600q0 164 54.5 296.5t146.5 215t208.5 126.5t246.5 44q248 0 396 -166.5t148 -464.5q0 -132 -35 -244t-96.5 -191.5t-143.5 -135t-176.5 -82.5t-195.5 -27q-249 0 -401 164t-152 465zM324 668q0 -279 113 -425.5t298 -146.5q116 0 185.5 44t106 152.5t36.5 295.5 q0 280 -112.5 426.5t-297.5 146.5q-117 0 -187 -44t-106 -152.5t-36 -296.5zM395 1350l228 360h141l227 -360h-67l-232 188l-229 -188h-68z" />
<glyph unicode="&#xd5;" horiz-adv-x="1384" d="M92 600q0 164 54.5 296.5t146.5 215t208.5 126.5t246.5 44q248 0 396 -166.5t148 -464.5q0 -132 -35 -244t-96.5 -191.5t-143.5 -135t-176.5 -82.5t-195.5 -27q-249 0 -401 164t-152 465zM324 668q0 -279 113 -425.5t298 -146.5q116 0 185.5 44t106 152.5t36.5 295.5 q0 280 -112.5 426.5t-297.5 146.5q-117 0 -187 -44t-106 -152.5t-36 -296.5zM365 1399q111 221 229 221q44 0 137.5 -28.5t126.5 -28.5q74 0 143 84l37 -23q-48 -117 -108 -171t-119 -54q-43 0 -133 30.5t-129 30.5q-42 0 -76 -19.5t-76 -64.5z" />
<glyph unicode="&#xd6;" horiz-adv-x="1384" d="M92 600q0 164 54.5 296.5t146.5 215t208.5 126.5t246.5 44q248 0 396 -166.5t148 -464.5q0 -132 -35 -244t-96.5 -191.5t-143.5 -135t-176.5 -82.5t-195.5 -27q-249 0 -401 164t-152 465zM324 668q0 -279 113 -425.5t298 -146.5q116 0 185.5 44t106 152.5t36.5 295.5 q0 280 -112.5 426.5t-297.5 146.5q-117 0 -187 -44t-106 -152.5t-36 -296.5zM371 1495q0 34 44.5 78.5t76.5 44.5q33 0 83 -36.5t50 -70.5q0 -33 -45.5 -76.5t-75.5 -43.5q-34 0 -83.5 35.5t-49.5 68.5zM760 1495q0 33 45 78t76 45q34 0 83.5 -36.5t49.5 -70.5 q0 -33 -44.5 -76.5t-74.5 -43.5q-34 0 -84.5 35.5t-50.5 68.5z" />
<glyph unicode="&#xd7;" d="M193 238l282 282l-282 283l77 78l283 -283l283 283l75 -78l-282 -283l282 -282l-75 -78l-283 282l-283 -282z" />
<glyph unicode="&#xd8;" horiz-adv-x="1384" d="M92 600q0 126 35.5 236t97.5 191t145 139t179.5 87t198.5 29q87 0 167 -22l74 159h101l-89 -190q140 -68 215.5 -216t75.5 -362q0 -157 -54 -287.5t-144.5 -215t-206.5 -131t-242 -46.5q-117 0 -205 33l-78 -172h-100l96 209q-127 72 -196.5 214t-69.5 345zM324 668 q0 -284 122 -432l400 868q-85 49 -193 49q-123 0 -192.5 -42.5t-103 -147.5t-33.5 -295zM516 170q92 -66 219 -66q122 0 191 42.5t103 147.5t34 294q0 313 -143 459z" />
<glyph unicode="&#xd9;" horiz-adv-x="1409" d="M61 1212v41h533v-43l-152 -75v-658q0 -168 86 -257t248 -89q145 0 219 68t74 223v713l-151 77v41h430v-43l-152 -75v-666q0 -235 -143 -366.5t-365 -131.5q-221 0 -348 111t-127 330v723zM561 1640l225 70l166 -360h-67z" />
<glyph unicode="&#xda;" horiz-adv-x="1409" d="M61 1212v41h533v-43l-152 -75v-658q0 -168 86 -257t248 -89q145 0 219 68t74 223v713l-151 77v41h430v-43l-152 -75v-666q0 -235 -143 -366.5t-365 -131.5q-221 0 -348 111t-127 330v723zM571 1350l166 360l226 -70l-324 -290h-68z" />
<glyph unicode="&#xdb;" horiz-adv-x="1409" d="M61 1212v41h533v-43l-152 -75v-658q0 -168 86 -257t248 -89q145 0 219 68t74 223v713l-151 77v41h430v-43l-152 -75v-666q0 -235 -143 -366.5t-365 -131.5q-221 0 -348 111t-127 330v723zM461 1350l227 360h141l228 -360h-68l-231 188l-230 -188h-67z" />
<glyph unicode="&#xdc;" horiz-adv-x="1409" d="M61 1212v41h533v-43l-152 -75v-658q0 -168 86 -257t248 -89q145 0 219 68t74 223v713l-151 77v41h430v-43l-152 -75v-666q0 -235 -143 -366.5t-365 -131.5q-221 0 -348 111t-127 330v723zM440 1495q0 34 44.5 78.5t76.5 44.5q33 0 83 -36.5t50 -70.5q0 -33 -45.5 -76.5 t-75.5 -43.5q-34 0 -83.5 35.5t-49.5 68.5zM829 1495q0 33 45 78t76 45q34 0 83.5 -36.5t49.5 -70.5q0 -33 -44 -76.5t-74 -43.5q-34 0 -85 35.5t-51 68.5z" />
<glyph unicode="&#xdd;" horiz-adv-x="1232" d="M25 1210v43h522v-43l-162 -71l322 -510l303 508l-144 73v43h398v-43l-127 -75l-379 -615v-401l151 -78v-41h-534v43l151 76v393l-391 623zM518 1350l166 360l225 -70l-323 -290h-68z" />
<glyph unicode="&#xde;" horiz-adv-x="1099" d="M86 0v43l152 76v1016l-152 77v41h543v-43l-162 -75v-140h160q211 0 322.5 -82.5t111.5 -248.5q0 -163 -140.5 -268t-365.5 -105q-42 0 -88 4v-176l182 -78v-41h-563zM467 397q59 -12 121 -12q126 0 187 52.5t61 174.5q0 142 -81.5 219.5t-242.5 77.5h-45v-512z" />
<glyph unicode="&#xdf;" horiz-adv-x="1124" d="M51 0v41l133 74v725h-125v82h125v77q0 204 123.5 325.5t310.5 121.5q146 0 240 -79.5t94 -186.5q0 -43 -17.5 -83.5t-43.5 -69.5t-56.5 -60.5t-56.5 -58t-43.5 -60.5t-17.5 -68q0 -57 31.5 -99t101.5 -85l68 -43q99 -64 137.5 -124t38.5 -150q0 -131 -106 -219.5 t-267 -88.5q-95 0 -225 33l32 191h45l109 -129q42 -11 78 -11q70 0 105.5 32.5t35.5 105.5q0 59 -31.5 105.5t-113.5 98.5l-68 43q-80 51 -116.5 108.5t-36.5 133.5q0 56 23 104t55.5 83t65.5 69t56 77t23 91q0 104 -69.5 177t-149.5 73q-73 0 -105.5 -56t-32.5 -174v-1126 h-350z" />
<glyph unicode="&#xe0;" horiz-adv-x="964" d="M68 203q0 128 141.5 217.5t378.5 93.5v143q0 91 -49 145t-144 54q-21 0 -41 -4l-170 -199h-47l-20 201q250 96 391 96q135 0 212 -63.5t77 -184.5v-571l145 -41v-45l-291 -74h-63v121q-95 -65 -158 -93t-119 -28q-98 0 -170.5 66.5t-72.5 165.5zM260 270q0 -73 48.5 -116 t119.5 -43q80 0 160 45v243q-77 15 -162 15q-166 0 -166 -144zM299 1333l225 70l166 -361h-67z" />
<glyph unicode="&#xe1;" horiz-adv-x="964" d="M68 203q0 128 141.5 217.5t378.5 93.5v143q0 91 -49 145t-144 54q-21 0 -41 -4l-170 -199h-47l-20 201q250 96 391 96q135 0 212 -63.5t77 -184.5v-571l145 -41v-45l-291 -74h-63v121q-95 -65 -158 -93t-119 -28q-98 0 -170.5 66.5t-72.5 165.5zM260 270q0 -73 48.5 -116 t119.5 -43q80 0 160 45v243q-77 15 -162 15q-166 0 -166 -144zM317 1042l168 361l226 -70l-326 -291h-68z" />
<glyph unicode="&#xe2;" horiz-adv-x="964" d="M68 203q0 128 141.5 217.5t378.5 93.5v143q0 91 -49 145t-144 54q-21 0 -41 -4l-170 -199h-47l-20 201q250 96 391 96q135 0 212 -63.5t77 -184.5v-571l145 -41v-45l-291 -74h-63v121q-95 -65 -158 -93t-119 -28q-98 0 -170.5 66.5t-72.5 165.5zM186 1042l228 361h141 l227 -361h-67l-232 189l-229 -189h-68zM260 270q0 -73 48.5 -116t119.5 -43q80 0 160 45v243q-77 15 -162 15q-166 0 -166 -144z" />
<glyph unicode="&#xe3;" horiz-adv-x="964" d="M68 203q0 128 141.5 217.5t378.5 93.5v143q0 91 -49 145t-144 54q-21 0 -41 -4l-170 -199h-47l-20 201q250 96 391 96q135 0 212 -63.5t77 -184.5v-571l145 -41v-45l-291 -74h-63v121q-95 -65 -158 -93t-119 -28q-98 0 -170.5 66.5t-72.5 165.5zM147 1092 q111 221 230 221q44 0 137.5 -29t126.5 -29q74 0 143 84l37 -22q-48 -117 -108 -171t-119 -54q-42 0 -132 30.5t-130 30.5q-42 0 -76 -19.5t-76 -64.5zM260 270q0 -73 48.5 -116t119.5 -43q80 0 160 45v243q-77 15 -162 15q-166 0 -166 -144z" />
<glyph unicode="&#xe4;" horiz-adv-x="964" d="M68 203q0 128 141.5 217.5t378.5 93.5v143q0 91 -49 145t-144 54q-21 0 -41 -4l-170 -199h-47l-20 201q250 96 391 96q135 0 212 -63.5t77 -184.5v-571l145 -41v-45l-291 -74h-63v121q-95 -65 -158 -93t-119 -28q-98 0 -170.5 66.5t-72.5 165.5zM162 1184q0 34 44.5 78.5 t76.5 44.5q33 0 83 -36.5t50 -70.5q0 -33 -45.5 -76t-75.5 -43q-33 0 -83 35.5t-50 67.5zM260 270q0 -73 48.5 -116t119.5 -43q80 0 160 45v243q-77 15 -162 15q-166 0 -166 -144zM551 1184q0 33 45 78t76 45q34 0 83.5 -36.5t49.5 -70.5q0 -33 -44.5 -76t-74.5 -43 q-34 0 -84.5 35.5t-50.5 67.5z" />
<glyph unicode="&#xe5;" horiz-adv-x="964" d="M68 203q0 128 141.5 217.5t378.5 93.5v143q0 91 -49 145t-144 54q-21 0 -41 -4l-170 -199h-47l-20 201q250 96 391 96q135 0 212 -63.5t77 -184.5v-571l145 -41v-45l-291 -74h-63v121q-95 -65 -158 -93t-119 -28q-98 0 -170.5 66.5t-72.5 165.5zM260 270q0 -73 48.5 -116 t119.5 -43q80 0 160 45v243q-77 15 -162 15q-166 0 -166 -144zM305 1237q0 76 55.5 130t131.5 54q79 0 131.5 -48.5t52.5 -135.5q0 -75 -56 -127.5t-133 -52.5t-129.5 48t-52.5 132zM403 1237q0 -40 25 -67t64 -27q38 0 63 27t25 67q0 43 -25 70.5t-63 27.5 q-40 0 -64.5 -27.5t-24.5 -70.5z" />
<glyph unicode="&#xe6;" horiz-adv-x="1466" d="M68 203q0 137 130.5 234.5t389.5 107.5v112q0 90 -48.5 141.5t-144.5 51.5q-31 0 -37 -2l-174 -195h-47l-20 201q149 56 239 76t181 20q68 0 126.5 -29t92.5 -85q107 110 270 110q176 0 261 -94.5t85 -257.5q0 -55 -14 -113h-563q4 -95 31 -165t72.5 -111t101.5 -60.5 t124 -19.5q127 0 238 65l27 -57q-124 -88 -202.5 -125t-168.5 -37q-107 0 -197.5 40.5t-148.5 121.5q-194 -162 -355 -162q-102 0 -175.5 66.5t-73.5 165.5zM260 279q0 -76 47.5 -121t126.5 -45q98 0 203 80q-49 107 -49 235q-82 16 -156 16q-84 0 -128 -44.5t-44 -120.5z M795 555h362q3 152 -49.5 223.5t-161.5 71.5q-49 0 -79.5 -21.5t-50.5 -88.5t-21 -185z" />
<glyph unicode="&#xe7;" horiz-adv-x="882" d="M76 424q0 247 135 386.5t350 139.5q150 0 236 -41l-39 -231h-45l-152 168q-27 6 -88 6q-95 0 -143.5 -70.5t-48.5 -246.5q0 -111 25.5 -193t71 -128.5t101.5 -68.5t123 -22q107 0 219 49l23 -57q-123 -82 -194 -113t-148 -31l-15 -75q98 -26 142.5 -59t44.5 -89 q0 -70 -85 -128.5t-247 -80.5l-18 86q133 0 177 10.5t44 42.5q0 38 -38 64.5t-136 50.5l65 182q-162 18 -261 133.5t-99 315.5z" />
<glyph unicode="&#xe8;" horiz-adv-x="956" d="M76 440q0 118 35.5 215t96 161t141 99t171.5 35q175 0 260.5 -96t85.5 -260q0 -58 -6 -92h-571q3 -195 93.5 -286t235.5 -91q127 0 236 65l29 -57q-131 -90 -207 -126t-166 -36q-92 0 -169 27t-137.5 82t-94 147t-33.5 213zM289 575h362q0 137 -53 206t-154 69 q-80 0 -114.5 -57.5t-40.5 -217.5zM293 1333l225 70l166 -361h-68z" />
<glyph unicode="&#xe9;" horiz-adv-x="956" d="M76 440q0 118 35.5 215t96 161t141 99t171.5 35q175 0 260.5 -96t85.5 -260q0 -58 -6 -92h-571q3 -195 93.5 -286t235.5 -91q127 0 236 65l29 -57q-131 -90 -207 -126t-166 -36q-92 0 -169 27t-137.5 82t-94 147t-33.5 213zM289 575h362q0 137 -53 206t-154 69 q-80 0 -114.5 -57.5t-40.5 -217.5zM362 1042l168 361l226 -70l-326 -291h-68z" />
<glyph unicode="&#xea;" horiz-adv-x="956" d="M76 440q0 118 35.5 215t96 161t141 99t171.5 35q175 0 260.5 -96t85.5 -260q0 -58 -6 -92h-571q3 -195 93.5 -286t235.5 -91q127 0 236 65l29 -57q-131 -90 -207 -126t-166 -36q-92 0 -169 27t-137.5 82t-94 147t-33.5 213zM211 1042l227 361h142l227 -361h-68l-231 189 l-229 -189h-68zM289 575h362q0 137 -53 206t-154 69q-80 0 -114.5 -57.5t-40.5 -217.5z" />
<glyph unicode="&#xeb;" horiz-adv-x="956" d="M76 440q0 118 35.5 215t96 161t141 99t171.5 35q175 0 260.5 -96t85.5 -260q0 -58 -6 -92h-571q3 -195 93.5 -286t235.5 -91q127 0 236 65l29 -57q-131 -90 -207 -126t-166 -36q-92 0 -169 27t-137.5 82t-94 147t-33.5 213zM193 1184q0 34 44 78.5t76 44.5q33 0 83 -36.5 t50 -70.5q0 -33 -45 -76t-75 -43q-33 0 -83 35.5t-50 67.5zM289 575h362q0 137 -53 206t-154 69q-80 0 -114.5 -57.5t-40.5 -217.5zM582 1184q0 33 44.5 78t75.5 45q34 0 84 -36.5t50 -70.5q0 -33 -44.5 -76t-74.5 -43q-34 0 -84.5 35.5t-50.5 67.5z" />
<glyph unicode="&#xec;" horiz-adv-x="577" d="M35 1333l225 70l166 -361h-68zM43 827v43l295 78h63v-833l140 -74v-41h-490v41l133 74v659z" />
<glyph unicode="&#xed;" horiz-adv-x="577" d="M43 827v43l295 78h63v-833l140 -74v-41h-490v41l133 74v659zM168 1042l168 361l225 -70l-325 -291h-68z" />
<glyph unicode="&#xee;" horiz-adv-x="577" d="M-6 1042l227 361h141l228 -361h-68l-231 189l-230 -189h-67zM43 827v43l295 78h63v-833l140 -74v-41h-490v41l133 74v659z" />
<glyph unicode="&#xef;" horiz-adv-x="577" d="M-31 1184q0 34 44.5 78.5t76.5 44.5q33 0 83 -36.5t50 -70.5q0 -33 -45.5 -76t-75.5 -43q-33 0 -83 35.5t-50 67.5zM43 827v43l295 78h63v-833l140 -74v-41h-490v41l133 74v659zM358 1184q0 33 45 78t76 45q34 0 83.5 -36.5t49.5 -70.5q0 -33 -44 -76t-74 -43 q-34 0 -85 35.5t-51 67.5z" />
<glyph unicode="&#xf0;" horiz-adv-x="1062" d="M76 426q0 157 69.5 278t184 183.5t252.5 62.5q48 0 110 -10q-43 146 -139 242l-344 -162v98l270 127q-106 77 -295 152l31 49q239 -42 395 -139l291 137v-98l-205 -97q271 -216 271 -643q0 -133 -28 -241.5t-74.5 -180.5t-110 -121t-132.5 -70.5t-143 -21.5 q-186 0 -294.5 125t-108.5 330zM293 500q0 -191 70.5 -289t187.5 -98q42 0 70.5 8.5t52 31.5t36.5 64.5t20 105.5t7 158q0 173 -14 291q-94 55 -211 55q-113 0 -166 -73.5t-53 -253.5z" />
<glyph unicode="&#xf1;" horiz-adv-x="1136" d="M43 827v43l295 80h63v-121q195 121 314 121q113 0 185.5 -62t72.5 -171v-602l133 -74v-41h-408v41l58 74v508q0 87 -50.5 134.5t-127.5 47.5q-92 0 -177 -43v-647l119 -74v-41h-469v41l133 74v659zM244 1092q110 221 229 221q44 0 137.5 -29t126.5 -29q75 0 144 84 l37 -22q-48 -117 -108 -171t-120 -54q-42 0 -132 30.5t-130 30.5q-42 0 -76 -19.5t-76 -64.5z" />
<glyph unicode="&#xf2;" horiz-adv-x="1056" d="M76 440q0 235 137 372.5t360 137.5q190 0 299 -123t109 -346q0 -235 -136.5 -372.5t-359.5 -137.5q-191 0 -300 123.5t-109 345.5zM301 494q0 -198 67 -303t185 -105q79 0 121 28t62 101.5t20 212.5q0 199 -67 304.5t-189 105.5q-76 0 -117 -28.5t-61.5 -103 t-20.5 -212.5zM326 1333l225 70l166 -361h-68z" />
<glyph unicode="&#xf3;" horiz-adv-x="1056" d="M76 440q0 235 137 372.5t360 137.5q190 0 299 -123t109 -346q0 -235 -136.5 -372.5t-359.5 -137.5q-191 0 -300 123.5t-109 345.5zM301 494q0 -198 67 -303t185 -105q79 0 121 28t62 101.5t20 212.5q0 199 -67 304.5t-189 105.5q-76 0 -117 -28.5t-61.5 -103 t-20.5 -212.5zM356 1042l168 361l226 -70l-326 -291h-68z" />
<glyph unicode="&#xf4;" horiz-adv-x="1056" d="M76 440q0 235 137 372.5t360 137.5q190 0 299 -123t109 -346q0 -235 -136.5 -372.5t-359.5 -137.5q-191 0 -300 123.5t-109 345.5zM233 1042l228 361h141l227 -361h-67l-232 189l-229 -189h-68zM301 494q0 -198 67 -303t185 -105q79 0 121 28t62 101.5t20 212.5 q0 199 -67 304.5t-189 105.5q-76 0 -117 -28.5t-61.5 -103t-20.5 -212.5z" />
<glyph unicode="&#xf5;" horiz-adv-x="1056" d="M76 440q0 235 137 372.5t360 137.5q190 0 299 -123t109 -346q0 -235 -136.5 -372.5t-359.5 -137.5q-191 0 -300 123.5t-109 345.5zM195 1092q111 221 229 221q44 0 137.5 -29t126.5 -29q74 0 143 84l37 -22q-48 -117 -108 -171t-119 -54q-43 0 -132.5 30.5t-129.5 30.5 q-42 0 -76 -19.5t-76 -64.5zM301 494q0 -198 67 -303t185 -105q79 0 121 28t62 101.5t20 212.5q0 199 -67 304.5t-189 105.5q-76 0 -117 -28.5t-61.5 -103t-20.5 -212.5z" />
<glyph unicode="&#xf6;" horiz-adv-x="1056" d="M76 440q0 235 137 372.5t360 137.5q190 0 299 -123t109 -346q0 -235 -136.5 -372.5t-359.5 -137.5q-191 0 -300 123.5t-109 345.5zM209 1184q0 34 44.5 78.5t76.5 44.5q33 0 83 -36.5t50 -70.5q0 -33 -45.5 -76t-75.5 -43q-33 0 -83 35.5t-50 67.5zM301 494 q0 -198 67 -303t185 -105q79 0 121 28t62 101.5t20 212.5q0 199 -67 304.5t-189 105.5q-76 0 -117 -28.5t-61.5 -103t-20.5 -212.5zM598 1184q0 33 45 78t76 45q34 0 83.5 -36.5t49.5 -70.5q0 -33 -44.5 -76t-74.5 -43q-34 0 -84.5 35.5t-50.5 67.5z" />
<glyph unicode="&#xf7;" d="M131 479v111h842v-111h-842zM416 215q0 35 46 82t79 47q34 0 86.5 -38.5t52.5 -72.5t-46.5 -80.5t-78.5 -46.5q-35 0 -87 38t-52 71zM416 829q0 35 46 82t79 47q34 0 86.5 -38t52.5 -72t-46.5 -80.5t-78.5 -46.5q-35 0 -87 37.5t-52 70.5z" />
<glyph unicode="&#xf8;" horiz-adv-x="1056" d="M76 440q0 233 140 371.5t357 138.5q85 0 156 -24l78 143h102l-100 -184q172 -120 172 -404q0 -233 -139.5 -371.5t-356.5 -138.5q-80 0 -159 27l-80 -145h-103l103 188q-170 119 -170 399zM301 494q0 -164 47 -267l301 553q-58 58 -149 58q-76 0 -117 -28.5t-61.5 -103 t-20.5 -212.5zM406 145q59 -59 147 -59q79 0 121 28t62 101.5t20 212.5q0 172 -49 270z" />
<glyph unicode="&#xf9;" horiz-adv-x="1130" d="M25 829v43l315 78h63l-20 -229v-420q0 -89 49 -136.5t127 -47.5q87 0 176 43v614l-135 55v43l311 78h64l-21 -229v-590l156 -41v-45l-311 -74h-64v121q-194 -121 -323 -121q-108 0 -178 63t-70 171v569zM342 1333l225 70l166 -361h-67z" />
<glyph unicode="&#xfa;" horiz-adv-x="1130" d="M25 829v43l315 78h63l-20 -229v-420q0 -89 49 -136.5t127 -47.5q87 0 176 43v614l-135 55v43l311 78h64l-21 -229v-590l156 -41v-45l-311 -74h-64v121q-194 -121 -323 -121q-108 0 -178 63t-70 171v569zM424 1042l168 361l225 -70l-325 -291h-68z" />
<glyph unicode="&#xfb;" horiz-adv-x="1130" d="M25 829v43l315 78h63l-20 -229v-420q0 -89 49 -136.5t127 -47.5q87 0 176 43v614l-135 55v43l311 78h64l-21 -229v-590l156 -41v-45l-311 -74h-64v121q-194 -121 -323 -121q-108 0 -178 63t-70 171v569zM272 1042l228 361h141l227 -361h-67l-232 189l-229 -189h-68z" />
<glyph unicode="&#xfc;" horiz-adv-x="1130" d="M25 829v43l315 78h63l-20 -229v-420q0 -89 49 -136.5t127 -47.5q87 0 176 43v614l-135 55v43l311 78h64l-21 -229v-590l156 -41v-45l-311 -74h-64v121q-194 -121 -323 -121q-108 0 -178 63t-70 171v569zM248 1184q0 34 44.5 78.5t76.5 44.5q33 0 83 -36.5t50 -70.5 q0 -33 -45.5 -76t-75.5 -43q-33 0 -83 35.5t-50 67.5zM637 1184q0 33 45 78t76 45q34 0 83.5 -36.5t49.5 -70.5q0 -33 -44.5 -76t-74.5 -43q-34 0 -84.5 35.5t-50.5 67.5z" />
<glyph unicode="&#xfd;" horiz-adv-x="1011" d="M6 881v41h479v-41l-139 -76l236 -596l213 596h-2l-113 76v41h342v-41l-109 -76h-2l-311 -774q-28 -116 -68 -206t-82.5 -145.5t-92.5 -91.5t-97 -49.5t-98 -13.5q-77 0 -133 29l32 176h35l131 -97q186 30 279 371l-76 -8l-330 809zM414 1042l168 361l225 -70l-326 -291 h-67z" />
<glyph unicode="&#xfe;" horiz-adv-x="1091" d="M4 1300v43l322 76h63l-22 -223v-369q110 67 173 95t128 28q150 0 249 -113t99 -323q0 -122 -44.5 -226.5t-117.5 -172.5t-163.5 -106t-184.5 -38q-72 0 -139 13v-316l170 -78v-41h-521v41l134 78v1592zM367 147q83 -49 211 -49q58 0 95.5 13.5t66 49.5t41 101t12.5 166 q0 188 -66.5 280.5t-175.5 92.5q-87 0 -184 -43v-611z" />
<glyph unicode="&#xff;" horiz-adv-x="1011" d="M6 881v41h479v-41l-139 -76l236 -596l213 596h-2l-113 76v41h342v-41l-109 -76h-2l-311 -774q-28 -116 -68 -206t-82.5 -145.5t-92.5 -91.5t-97 -49.5t-98 -13.5q-77 0 -133 29l32 176h35l131 -97q186 30 279 371l-76 -8l-330 809zM252 1184q0 34 44.5 78.5t76.5 44.5 q33 0 83 -36.5t50 -70.5q0 -33 -45.5 -76t-75.5 -43q-33 0 -83 35.5t-50 67.5zM641 1184q0 33 45 78t76 45q34 0 83.5 -36.5t49.5 -70.5q0 -33 -44.5 -76t-74.5 -43q-34 0 -84.5 35.5t-50.5 67.5z" />
<glyph unicode="&#x152;" horiz-adv-x="1822" d="M92 600q0 161 52.5 292.5t140.5 215t201.5 129t238.5 45.5q101 0 190 -29h775l-52 -295h-57l-119 209h-301v-479h137l254 21l-22 -125l-236 22h-133v-520h330l188 252h56l-62 -338h-833q-102 -29 -195 -29q-255 0 -404 163t-149 466zM324 668q0 -279 113 -424.5 t298 -145.5q126 0 195 49v920q-119 90 -277 90q-123 0 -192.5 -43.5t-103 -149.5t-33.5 -296z" />
<glyph unicode="&#x153;" horiz-adv-x="1640" d="M76 440q0 234 135.5 372t351.5 138q109 0 191 -43.5t129 -126.5q58 81 140.5 125.5t180.5 44.5q175 0 260.5 -96t85.5 -260q0 -58 -6 -92h-571q3 -195 92.5 -286t234.5 -91q127 0 238 65l29 -57q-128 -89 -205.5 -125.5t-167.5 -36.5q-234 0 -338 172 q-127 -172 -360 -172q-199 0 -309.5 123t-110.5 346zM301 494q0 -198 67 -303t185 -105q79 0 121 28t62 101.5t20 212.5q0 199 -67 304.5t-189 105.5q-76 0 -117 -28.5t-61.5 -103t-20.5 -212.5zM973 575h362q0 272 -211 275q-52 -1 -82 -23.5t-47.5 -82.5t-21.5 -169z" />
<glyph unicode="&#x178;" horiz-adv-x="1232" d="M25 1210v43h522v-43l-162 -71l322 -510l303 508l-144 73v43h398v-43l-127 -75l-379 -615v-401l151 -78v-41h-534v43l151 76v393l-391 623zM381 1495q0 34 44.5 78.5t76.5 44.5q33 0 83 -36.5t50 -70.5q0 -33 -45.5 -76.5t-75.5 -43.5q-34 0 -83.5 35.5t-49.5 68.5z M770 1495q0 33 45 78t76 45q34 0 83.5 -36.5t49.5 -70.5q0 -33 -44.5 -76.5t-74.5 -43.5q-34 0 -84.5 35.5t-50.5 68.5z" />
<glyph unicode="&#x2c6;" horiz-adv-x="1024" d="M215 1042l227 361h142l227 -361h-68l-231 189l-229 -189h-68z" />
<glyph unicode="&#x2dc;" horiz-adv-x="1024" d="M172 1092q110 221 229 221q44 0 138 -29t127 -29q74 0 143 84l37 -22q-48 -117 -108 -171t-120 -54q-42 0 -132 30.5t-130 30.5q-42 0 -75 -19t-76 -65z" />
<glyph unicode="&#x2000;" horiz-adv-x="864" />
<glyph unicode="&#x2001;" horiz-adv-x="1729" />
<glyph unicode="&#x2002;" horiz-adv-x="864" />
<glyph unicode="&#x2003;" horiz-adv-x="1729" />
<glyph unicode="&#x2004;" horiz-adv-x="576" />
<glyph unicode="&#x2005;" horiz-adv-x="432" />
<glyph unicode="&#x2006;" horiz-adv-x="288" />
<glyph unicode="&#x2007;" horiz-adv-x="288" />
<glyph unicode="&#x2008;" horiz-adv-x="216" />
<glyph unicode="&#x2009;" horiz-adv-x="345" />
<glyph unicode="&#x200a;" horiz-adv-x="96" />
<glyph unicode="&#x2010;" horiz-adv-x="620" d="M76 465v31l28 96h441v-31l-29 -96h-440z" />
<glyph unicode="&#x2011;" horiz-adv-x="620" d="M76 465v31l28 96h441v-31l-29 -96h-440z" />
<glyph unicode="&#x2012;" horiz-adv-x="620" d="M76 465v31l28 96h441v-31l-29 -96h-440z" />
<glyph unicode="&#x2013;" horiz-adv-x="907" d="M76 465v31l28 96h727v-31l-28 -96h-727z" />
<glyph unicode="&#x2014;" horiz-adv-x="1398" d="M76 465v31l28 96h1219v-31l-29 -96h-1218z" />
<glyph unicode="&#x2018;" horiz-adv-x="497" d="M104 1071q0 81 51 169t181 204l45 -31q-113 -148 -113 -209q0 -32 18 -57.5t39.5 -39.5t39.5 -35t18 -44q0 -38 -41.5 -80.5t-77.5 -42.5q-40 0 -100 53.5t-60 112.5z" />
<glyph unicode="&#x2019;" horiz-adv-x="497" d="M115 1296q0 38 41 80.5t77 42.5q40 0 100 -53.5t60 -112.5q0 -81 -50.5 -169t-180.5 -203l-45 30q112 146 112 209q0 32 -18 57.5t-39 39.5t-39 35t-18 44z" />
<glyph unicode="&#x201a;" horiz-adv-x="497" d="M115 111q0 38 41 80t77 42q40 0 100 -53t60 -112q0 -81 -51 -169.5t-180 -203.5l-45 31q112 146 112 208q0 32 -18 57.5t-39 40t-39 35.5t-18 44z" />
<glyph unicode="&#x201c;" horiz-adv-x="843" d="M104 1071q0 81 51 169t181 204l45 -31q-113 -148 -113 -209q0 -32 18 -57.5t39.5 -39.5t39.5 -35t18 -44q0 -38 -41.5 -80.5t-77.5 -42.5q-40 0 -100 53.5t-60 112.5zM459 1071q0 81 51 169.5t180 203.5l45 -31q-112 -146 -112 -209q0 -32 18 -57.5t39 -39.5t39 -35 t18 -44q0 -38 -41.5 -80.5t-77.5 -42.5q-40 0 -99.5 53.5t-59.5 112.5z" />
<glyph unicode="&#x201d;" horiz-adv-x="851" d="M115 1296q0 38 41 80.5t77 42.5q40 0 100 -53.5t60 -112.5q0 -81 -50.5 -169t-180.5 -203l-45 30q112 146 112 209q0 32 -18 57.5t-39 39.5t-39 35t-18 44zM469 1296q0 38 41.5 80.5t77.5 42.5q40 0 100 -53.5t60 -112.5q0 -80 -51 -168t-181 -204l-45 30 q113 148 113 209q0 32 -18 57.5t-39.5 39.5t-39.5 35t-18 44z" />
<glyph unicode="&#x201e;" horiz-adv-x="851" d="M115 111q0 38 41 80t77 42q40 0 100 -53t60 -112q0 -81 -51 -169.5t-180 -203.5l-45 31q112 146 112 208q0 32 -18 57.5t-39 40t-39 35.5t-18 44zM469 111q0 38 41.5 80t77.5 42q40 0 100 -53t60 -112q0 -81 -51 -169t-181 -204l-45 31q113 148 113 208q0 32 -18 57.5 t-39.5 40t-39.5 35.5t-18 44z" />
<glyph unicode="&#x2022;" horiz-adv-x="794" d="M166 582q0 42 38.5 99.5t91 98.5t89.5 41q59 0 150.5 -72t91.5 -135q0 -65 -81 -151t-136 -86q-38 0 -96 32t-103 81.5t-45 91.5z" />
<glyph unicode="&#x2026;" horiz-adv-x="1492" d="M100 92q0 38 51.5 89.5t88.5 51.5t95 -41.5t58 -78.5q0 -39 -51.5 -90.5t-87.5 -51.5q-39 0 -96.5 42t-57.5 79zM598 92q0 38 51 89.5t88 51.5t95.5 -41.5t58.5 -78.5q0 -39 -51.5 -90.5t-87.5 -51.5q-39 0 -96.5 42t-57.5 79zM1096 92q0 38 51 89.5t88 51.5t95.5 -41.5 t58.5 -78.5q0 -39 -52 -90.5t-88 -51.5q-38 0 -95.5 42t-57.5 79z" />
<glyph unicode="&#x202f;" horiz-adv-x="345" />
<glyph unicode="&#x2039;" horiz-adv-x="626" d="M51 516l400 430l43 -22l-201 -408l201 -407l-43 -23z" />
<glyph unicode="&#x203a;" horiz-adv-x="626" d="M133 109l201 407l-201 408l43 22l399 -430l-399 -430z" />
<glyph unicode="&#x205f;" horiz-adv-x="432" />
<glyph unicode="&#x20ac;" d="M2 432v29l29 90h98v51q0 30 4 88h-129v29l27 90h119q50 224 198.5 348.5t353.5 124.5q202 0 316 -63l-51 -283h-56l-137 203q-58 18 -151 18q-62 0 -103.5 -10t-72 -32.5t-47.5 -64.5t-26 -98.5t-12 -142.5h469v-29l-26 -90h-445v-31q0 -21 5 -108h403v-29l-27 -90h-364 q29 -175 109.5 -260.5t215.5 -85.5q58 0 111 12l182 242l56 -2l-54 -295q-186 -72 -362 -72q-434 0 -496 461h-137z" />
<glyph unicode="&#x2122;" horiz-adv-x="1818" d="M33 1225l35 192h661l-37 -192h-35l-67 141h-133v-588l102 -39v-26h-358v26l102 39v588h-117l-116 -141h-37zM743 713v26l93 39l36 572l-90 43v24h258l230 -516l229 516h244v-26l-92 -41l39 -572l90 -39v-26h-334v26l90 39l-29 494l-229 -508l-92 -33l-238 543l-28 -496 l90 -39v-26h-267z" />
</font>
</defs>
</svg>
