<?xml version="1.0" standalone="no"?>
<!DOCTYPE svg PUBLIC "-//W3C//DTD SVG 1.1//EN" "http://www.w3.org/Graphics/SVG/1.1/DTD/svg11.dtd" >
<svg xmlns="http://www.w3.org/2000/svg">
<metadata></metadata>
<defs>
<font id="ancizar_sansblack" horiz-adv-x="1136" >
<font-face units-per-em="2048" ascent="1536" descent="-512" />
<missing-glyph horiz-adv-x="448" />
<glyph unicode="&#xfb01;" horiz-adv-x="1130" d="M-10 686v215l125 21v24q0 124 40 220.5t99 151t136.5 89t143.5 45.5t128 10q103 3 215 -18.5t180 -48.5l-86 -297q-64 27 -167.5 47t-168.5 20q-77 0 -121.5 -26.5t-44.5 -100.5v-116h272l299 43v-965h-354v686h-217v-686h-354v686h-125z" />
<glyph unicode="&#xfb02;" horiz-adv-x="1179" d="M-10 686v215l125 21v24q0 124 40 220.5t99 151t136.5 89t143.5 45.5t128 10q171 5 325 -47l53 6v-1095q0 -74 74 -74q26 0 66 10l22 -262q-44 -16 -112.5 -27.5t-120.5 -11.5q-285 0 -285 285v917q-16 2 -49 2q-77 0 -121.5 -26.5t-44.5 -100.5v-116h156l-25 -236h-131 v-686h-354v686h-125z" />
<glyph unicode="&#xfb03;" horiz-adv-x="1689" d="M-10 686v215l82 21h30v6q0 96 22.5 175t58.5 131t85 92t96 61.5t99 35t87.5 17.5t65.5 4q164 0 302 -51q138 73 303 69q104 3 215 -18.5t180 -48.5l-84 -297q-66 27 -169.5 47t-168.5 20q-35 0 -62 -5t-52 -17.5t-38.5 -39t-13.5 -65.5v-116h275l296 43v-965h-354v686 h-217v-686h-354v686h-217v-686h-355v686h-112zM457 922h217v24q0 109 33 203q-79 14 -119 14q-59 0 -95 -32t-36 -99v-110z" />
<glyph unicode="&#xfb04;" horiz-adv-x="1740" d="M-10 686v215l82 21h30v6q0 96 22.5 175t58.5 131t85 92t96 61.5t99 35t87.5 17.5t65.5 4q164 0 302 -51q138 73 303 69q174 5 325 -47l53 6v-1095q0 -74 74 -74q26 0 66 10l22 -262q-44 -16 -112.5 -27.5t-120.5 -11.5q-285 0 -285 285v917q-16 2 -49 2q-35 0 -62 -5 t-52 -17.5t-38.5 -39t-13.5 -65.5v-116h156l-25 -236h-131v-686h-354v686h-217v-686h-355v686h-112zM457 922h217v24q0 109 33 203q-79 14 -119 14q-59 0 -95 -32t-36 -99v-110z" />
<glyph horiz-adv-x="0" />
<glyph horiz-adv-x="682" />
<glyph unicode=" "  horiz-adv-x="448" />
<glyph unicode="&#x09;" horiz-adv-x="448" />
<glyph unicode="&#xa0;" horiz-adv-x="448" />
<glyph unicode="!" horiz-adv-x="667" d="M139 92q0 49 76.5 116.5t120.5 67.5q40 0 115 -64t75 -110q0 -37 -74 -98t-112 -61q-42 0 -121.5 58t-79.5 91zM160 1255l338 64q-29 -766 -29 -942l-266 -39q-9 668 -43 917z" />
<glyph unicode="&#x22;" horiz-adv-x="788" d="M55 1419h320l-31 -530h-246zM414 1419h319l-45 -530h-244z" />
<glyph unicode="#" horiz-adv-x="1304" d="M33 348v31l78 133h198l47 197h-262v30l78 138h225l92 376h191l-92 -376h227l92 376h191l-92 -376h258v-31l-76 -137h-223l-47 -197h284v-31l-76 -133h-249l-84 -348h-191l84 348h-227l-84 -348h-191l84 348h-235zM500 512h227l47 197h-227z" />
<glyph unicode="$" d="M102 29l52 325q236 -104 405 -104q50 0 76.5 27t26.5 69q0 43 -34.5 70t-133.5 57q-208 72 -293.5 165t-85.5 236q0 155 91 261t257 141l-23 272h252l-20 -256q203 -11 325 -61l-71 -303q-75 32 -181.5 57t-187.5 25q-44 0 -69 -25t-25 -61q0 -20 4.5 -33.5t21 -31.5 t54 -35.5t98.5 -35.5q205 -63 295 -146t90 -232q0 -168 -100 -282.5t-267 -152.5l25 -284h-252l23 272q-215 9 -353 66z" />
<glyph unicode="%" horiz-adv-x="1452" d="M57 0l1090 1253h239l-1091 -1253h-238zM61 958q0 147 95.5 241.5t244.5 94.5q140 0 222 -78.5t82 -228.5q0 -149 -95 -244.5t-243 -95.5q-143 0 -224.5 79.5t-81.5 231.5zM274 975q0 -172 123 -172q47 0 69.5 40t22.5 128q0 170 -120 170q-50 0 -72.5 -40t-22.5 -126z M745 274q0 145 95.5 239.5t244.5 94.5q141 0 223.5 -77.5t82.5 -227.5q0 -149 -96 -245.5t-244 -96.5q-143 0 -224.5 80.5t-81.5 232.5zM961 291q0 -91 30.5 -131.5t89.5 -40.5q48 0 70.5 40t22.5 128q0 170 -121 170q-50 0 -71 -39.5t-21 -126.5z" />
<glyph unicode="&#x26;" horiz-adv-x="1316" d="M10 336q0 103 62.5 192t171.5 154q-71 69 -102 127.5t-31 134.5q0 152 126.5 249t348.5 93q202 0 348 -53l-96 -266q-54 23 -135.5 41.5t-149.5 15.5q-62 -4 -82 -20t-20 -48q0 -34 46.5 -86t186.5 -163q57 -41 238 -222q20 65 20 131q0 54 -16.5 110t-38.5 81l309 104 q27 -42 50.5 -115t23.5 -169q0 -186 -133 -359q199 -199 241 -194v-51l-319 -101q-90 62 -170 139q-186 -99 -395 -96q-218 -3 -351 93.5t-133 277.5zM360 410q0 -32 10.5 -62t33.5 -59.5t69.5 -47.5t110.5 -18q49 0 118 29q-119 128 -215 217q-51 47 -77 68 q-50 -50 -50 -127z" />
<glyph unicode="'" horiz-adv-x="430" d="M55 1419h320l-41 -530h-240z" />
<glyph unicode="(" horiz-adv-x="700" d="M129 612q0 281 124.5 533t336.5 403l125 -125q-170 -141 -275.5 -363.5t-105.5 -447.5q0 -251 101.5 -462t279.5 -349l-125 -127q-142 84 -248 234.5t-159.5 332t-53.5 371.5z" />
<glyph unicode=")" horiz-adv-x="700" d="M-14 -199q170 141 275.5 363.5t105.5 447.5q0 251 -101.5 462t-279.5 349l125 127q142 -84 247.5 -234.5t159 -332t53.5 -371.5q0 -281 -124 -533t-336 -403z" />
<glyph unicode="*" horiz-adv-x="786" d="M80 1069l33 170q96 -17 150 -47t97 -86l-20 -66q-104 45 -260 29zM92 897q26 27 48 46.5t36.5 31t37 22t31.5 14t38 12.5t41 13l45 -57q-50 -36 -84.5 -83.5t-67.5 -117.5zM264 1350l170 45q27 -47 27 -146q0 -72 -19 -137l-71 -8q-16 149 -107 246zM350 838q0 53 19 127 l65 14q21 -144 111 -250l-172 -37q-23 56 -23 146zM444 1094q53 37 87 87.5t73 131.5l121 -123q-65 -70 -116.5 -96.5t-123.5 -42.5zM451 977l16 59q118 -46 274 -30l-51 -168q-78 17 -125.5 39t-65 40t-48.5 60z" />
<glyph unicode="+" d="M156 440v211h299v297h225v-297h299v-211h-299v-305h-225v305h-299z" />
<glyph unicode="," horiz-adv-x="503" d="M63 -264q10 18 28.5 52t26 48t20.5 39t18 39t11.5 33t8.5 35.5t2 33.5q0 15 -28 38t-56 50t-28 52q0 60 55.5 109.5t114.5 49.5q67 0 135.5 -66.5t68.5 -156.5q0 -58 -48 -166t-152 -256z" />
<glyph unicode="-" horiz-adv-x="731" d="M70 391v58l77 159h515v-57l-58 -160h-534z" />
<glyph unicode="." horiz-adv-x="503" d="M39 123q0 51 74.5 119.5t128.5 68.5q34 0 86.5 -24t94.5 -63t42 -74q0 -51 -76 -120t-125 -69q-58 0 -141.5 56t-83.5 106z" />
<glyph unicode="/" horiz-adv-x="784" d="M94 -225l398 1644h198l-397 -1644h-199z" />
<glyph unicode="0" d="M14 602q0 332 156 511t442 179q273 0 390.5 -159.5t117.5 -481.5q0 -332 -156 -511t-442 -179q-140 0 -239 41t-157.5 125t-85 199.5t-26.5 275.5zM399 627q0 -183 18.5 -275t56.5 -123.5t114 -31.5q54 0 85.5 33t49.5 128.5t18 268.5q0 182 -20.5 275.5t-60 125 t-115.5 31.5q-54 0 -84 -33.5t-46 -128.5t-16 -270z" />
<glyph unicode="1" d="M139 1098q291 92 479 155h203v-1253h-346v967l-260 -113z" />
<glyph unicode="2" d="M66 1194q125 49 229 73.5t231 24.5q212 0 339.5 -97.5t127.5 -262.5q0 -88 -32 -172.5t-97.5 -169.5t-146.5 -163t-197 -173l516 29l-47 -283h-903v209q227 207 317 303q203 217 203 330q0 89 -51.5 132.5t-126.5 43.5q-144 0 -287 -68z" />
<glyph unicode="3" d="M111 23l63 262q63 -21 99 -31.5t94.5 -21.5t109.5 -11q118 0 167.5 29.5t49.5 107.5q0 60 -49.5 108t-150.5 48q-10 0 -166 -8l-29 221q166 0 261 47.5t95 122.5q0 49 -37 90t-116 41q-69 0 -149 -17t-136 -46l-67 233q79 35 211.5 64.5t242.5 29.5q74 0 145 -17.5 t133.5 -52t101 -95t38.5 -138.5q0 -98 -64 -176t-167 -125q266 -59 266 -303q0 -180 -164 -302t-408 -122q-178 0 -374 62z" />
<glyph unicode="4" d="M47 174v256l637 848h299v-850h182l-80 -254h-102v-174h-326v174h-610zM356 428h301v426z" />
<glyph unicode="5" d="M68 10l61 260q67 -26 169.5 -46.5t170.5 -20.5q103 0 157 38t54 103q0 38 -14 70t-47 61.5t-98.5 46.5t-158.5 17q-39 0 -116 -5.5t-94 -5.5l49 725h794l-37 -276h-485l-14 -178q54 4 86 4q97 0 185 -26t157 -74.5t110 -125.5t41 -171q0 -189 -170.5 -317t-455.5 -128 q-76 0 -174.5 14.5t-169.5 34.5z" />
<glyph unicode="6" d="M39 541q0 184 50 328.5t140 236t212 139t270 47.5q67 0 164 -15t153 -28l-55 -280q-50 24 -142 40.5t-155 16.5q-52 0 -89 -9.5t-70 -35t-55 -75t-34 -124.5q115 37 221 37q209 0 327 -97.5t118 -285.5q0 -204 -152 -339.5t-397 -135.5q-239 0 -372.5 156t-133.5 424z M412 530q0 -99 15.5 -168t43.5 -104.5t59.5 -50t71.5 -14.5q67 0 96 41.5t29 130.5q0 95 -39.5 158t-126.5 63q-76 0 -149 -25v-31z" />
<glyph unicode="7" d="M70 965l55 290h946v-225q-83 -168 -238.5 -525t-220.5 -532l-368 97q134 319 442 905z" />
<glyph unicode="8" d="M53 281q0 107 62 183t184 144q-195 132 -195 312q0 170 141.5 272t383.5 102q170 0 287.5 -80t117.5 -206q0 -93 -51.5 -162t-159.5 -135q83 -46 136 -88t79.5 -85.5t35.5 -82.5t9 -93q0 -72 -39.5 -143t-109 -128.5t-175.5 -93.5t-227 -36q-217 0 -348 87.5t-131 232.5z M375 332q0 -54 58 -100t147 -46q94 0 138 31.5t44 97.5q0 51 -50 85.5t-196 93.5q-5 2 -16.5 7t-16.5 7q-57 -38 -82.5 -76t-25.5 -100zM418 975q0 -51 44 -86t173 -90q104 90 104 170q0 45 -54.5 76.5t-119.5 31.5q-87 0 -117 -23.5t-30 -78.5z" />
<glyph unicode="9" d="M47 846q0 93 33 173.5t96 143t165 98t232 35.5q514 0 514 -581q0 -144 -37.5 -267.5t-103 -212t-154 -151t-192 -93t-215.5 -30.5q-74 0 -137.5 8t-94 16t-87.5 25l40 256q87 -29 155.5 -41t160.5 -12q205 0 270 260q-94 -37 -182 -37q-124 0 -216 31.5t-144.5 88.5 t-77.5 129t-25 161zM414 891q0 -95 39.5 -158t126.5 -63q86 0 141 24v49q0 158 -55 241t-127 83q-65 0 -95 -39t-30 -137z" />
<glyph unicode=":" horiz-adv-x="503" d="M39 123q0 51 74.5 119.5t128.5 68.5q34 0 86.5 -24t94.5 -63t42 -74q0 -51 -76 -120t-125 -69q-58 0 -141.5 56t-83.5 106zM39 696q0 51 74.5 120t128.5 69q34 0 86.5 -24.5t94.5 -63.5t42 -74q0 -51 -76 -119.5t-125 -68.5q-58 0 -141.5 55.5t-83.5 105.5z" />
<glyph unicode=";" horiz-adv-x="503" d="M39 696q0 51 74.5 120t128.5 69q34 0 86.5 -24.5t94.5 -63.5t42 -74q0 -51 -76 -119.5t-125 -68.5q-58 0 -141.5 55.5t-83.5 105.5zM57 -264q10 18 28.5 52t26 48t20.5 39t18 39t11.5 33t8.5 35.5t2 33.5q0 12 -17.5 29t-39 32.5t-39 37t-17.5 41.5q0 60 55.5 109.5 t114.5 49.5q67 0 136 -66.5t69 -156.5q0 -58 -48.5 -166t-152.5 -256z" />
<glyph unicode="=" d="M195 276v31l57 178h692v-30l-59 -179h-690zM195 598v31l57 178h692v-31l-59 -178h-690z" />
<glyph unicode="?" horiz-adv-x="940" d="M37 1200q96 52 213.5 87.5t202.5 35.5q188 0 310 -97.5t122 -252.5q0 -141 -215 -307q-64 -51 -88.5 -82t-24.5 -62q0 -8 4.5 -22.5t9.5 -27t15 -34.5t14 -32l-309 -70q-29 37 -50.5 80.5t-21.5 70.5q0 61 27.5 101t107.5 108q92 76 127 127t35 125q0 34 -38.5 71.5 t-86.5 37.5q-63 0 -107.5 -17.5t-138.5 -76.5zM244 82q0 52 71.5 120t120.5 68q41 0 114 -63t73 -115t-74 -120t-115 -68q-49 0 -119.5 64t-70.5 114z" />
<glyph unicode="@" horiz-adv-x="1880" d="M96 465q0 131 30 248.5t83 208.5t125 167.5t155.5 130t175 90.5t182.5 54.5t179 17.5q218 0 388 -68t270 -203.5t100 -319.5q0 -129 -54 -245.5t-146 -204t-215.5 -147.5t-262.5 -83l-37 206q-57 -92 -116 -137t-132 -45q-47 0 -90 17.5t-82.5 56.5t-63.5 113t-24 174 q0 88 28.5 171.5t85 155.5t154 116t222.5 44q33 0 63 -2.5t61.5 -9.5l49.5 -11t56 -15t52 -15v-561q166 126 166 381q0 97 -36.5 170t-103 118t-154 67.5t-195.5 22.5q-306 0 -461.5 -165t-155.5 -457q0 -126 36.5 -225.5t93.5 -159.5t132.5 -99.5t146.5 -54t144 -14.5 q87 0 170 15.5t119.5 28t91.5 34.5l74 -230q-256 -110 -541 -110q-65 0 -133.5 11t-144 37.5t-144.5 66.5t-132 102.5t-109 140t-73.5 185t-27.5 231.5zM846 524q0 -88 24.5 -134t53.5 -46q115 0 135 231v224q-40 4 -70 4q-44 0 -73 -20t-44 -60.5t-20.5 -86.5t-5.5 -112z " />
<glyph unicode="A" horiz-adv-x="1232" d="M-20 0l409 1253h485l379 -1253h-374l-74 252h-410l-76 -252h-339zM469 498h266l-131 448z" />
<glyph unicode="B" horiz-adv-x="1138" d="M104 0v1253h459q242 0 365 -72t123 -225q0 -175 -191 -278q117 -30 192.5 -106.5t75.5 -196.5q0 -173 -161 -274t-441 -101h-422zM471 240q66 -4 111 -4q76 0 128 30t52 101q0 80 -66.5 125t-195.5 45h-29v-297zM471 743q118 3 173.5 33t55.5 94q0 142 -229 154v-281z " />
<glyph unicode="C" horiz-adv-x="1144" d="M51 604q0 196 82.5 351t243 246t375.5 91q177 0 340 -49l-60 -293q-56 18 -87.5 26.5t-95 18t-128.5 9.5q-142 0 -218.5 -81t-76.5 -276q0 -88 24.5 -158t61.5 -112t85.5 -69.5t92.5 -37.5t86 -10q79 0 159.5 16t117.5 31l34 -262q-60 -35 -174 -59.5t-241 -24.5 q-102 0 -194 25t-170.5 77.5t-135.5 128t-89 181t-32 231.5z" />
<glyph unicode="D" horiz-adv-x="1327" d="M104 6v1247h543q138 0 250.5 -36t197.5 -108t132 -189t47 -271q0 -131 -37 -240t-104.5 -188.5t-161.5 -134.5t-207.5 -82t-243.5 -27q-179 0 -416 29zM471 258q24 -8 94 -8q166 0 251 83t85 265q0 89 -21.5 159.5t-55.5 114t-81 72t-94 40t-98 11.5h-80v-737z" />
<glyph unicode="E" horiz-adv-x="1003" d="M104 0v1253h822l-31 -270l-424 4v-225h399l-20 -254l-379 4v-242l487 6l-30 -276h-824z" />
<glyph unicode="F" horiz-adv-x="985" d="M104 0v1253h822l-31 -270l-424 6v-254h399l-24 -252l-375 6v-489h-367z" />
<glyph unicode="G" horiz-adv-x="1234" d="M51 590q0 141 38.5 257.5t106 198t160 137.5t199 82.5t223.5 26.5q106 0 211 -21.5t158 -43.5l-68 -285q-57 25 -151.5 48.5t-163.5 23.5q-185 0 -261.5 -89.5t-76.5 -277.5q0 -102 23.5 -178t57 -116.5t80 -65t82.5 -31t76 -6.5q51 0 74 2l-2 371h318v-580 q-151 -47 -245 -64.5t-202 -17.5q-137 0 -251.5 39t-201.5 115t-135.5 197.5t-48.5 277.5z" />
<glyph unicode="H" horiz-adv-x="1345" d="M104 0v1253h367v-471h403v471h367v-1253h-367v494h-403v-494h-367z" />
<glyph unicode="I" horiz-adv-x="575" d="M104 0v1253h367v-1253h-367z" />
<glyph unicode="J" horiz-adv-x="808" d="M2 2l49 279q90 -35 150 -35q53 0 83.5 26.5t30.5 98.5v882h367v-870q0 -106 -34 -187.5t-95 -132t-140.5 -76.5t-174.5 -26q-155 0 -236 41z" />
<glyph unicode="K" horiz-adv-x="1280" d="M104 0v1253h367v-1253h-367zM471 653l387 600h408l-432 -565l458 -688h-436z" />
<glyph unicode="L" horiz-adv-x="989" d="M104 0v1253h367v-983l492 6l-35 -276h-824z" />
<glyph unicode="M" horiz-adv-x="1816" d="M78 0l149 1253h422l264 -774l285 774h397l144 -1253h-361l-57 766l-272 -766h-322l-248 754l-61 -754h-340z" />
<glyph unicode="N" horiz-adv-x="1339" d="M104 0v1253h365l436 -665v665h330v-1253h-332l-471 690v-690h-328z" />
<glyph unicode="O" horiz-adv-x="1409" d="M51 602q0 210 89 367t249 240t369 83q276 0 437 -172t161 -469q0 -317 -192.5 -503.5t-510.5 -186.5q-277 0 -439.5 171.5t-162.5 469.5zM430 659q0 -227 80.5 -330.5t232.5 -103.5q55 0 96.5 18t74 59t49 114.5t16.5 177.5q0 434 -311 434q-114 0 -176 -84.5t-62 -284.5 z" />
<glyph unicode="P" horiz-adv-x="1110" d="M104 0v1253h504q227 0 355.5 -101t128.5 -284q0 -142 -79 -246.5t-208 -156t-289 -51.5q-29 0 -45 2v-416h-367zM471 662h39q111 0 160 43t49 129q0 184 -246 184h-2v-356z" />
<glyph unicode="Q" horiz-adv-x="1409" d="M51 602q0 210 89 367t249 240t369 83q276 0 437 -172t161 -469q0 -317 -192.5 -503.5t-510.5 -186.5q-277 0 -439.5 171.5t-162.5 469.5zM227 -143q85 45 147.5 63.5t129.5 18.5q70 0 150 -14t142.5 -30.5t155.5 -30.5t187 -14q58 0 117.5 23t97.5 61v-282 q-39 -36 -113.5 -64t-142.5 -28q-103 0 -223.5 38t-218.5 75.5t-148 37.5q-39 0 -96 -24t-111 -64zM430 659q0 -227 80.5 -330.5t232.5 -103.5q55 0 96.5 18t74 59t49 114.5t16.5 177.5q0 434 -311 434q-114 0 -176 -84.5t-62 -284.5z" />
<glyph unicode="R" horiz-adv-x="1181" d="M104 0v1253h521q219 0 344 -93.5t125 -264.5q0 -102 -56 -186t-151 -142l299 -567h-393l-215 469q-46 -4 -70 -4q-23 0 -37 2v-467h-367zM471 696q50 -4 92 -4q66 0 112 35.5t46 99.5q0 191 -250 191v-322z" />
<glyph unicode="S" horiz-adv-x="1021" d="M57 29l52 325q236 -104 405 -104q50 0 76 27t26 69q0 43 -34.5 70t-132.5 57q-208 72 -293.5 165t-85.5 236q0 190 135 304t375 114q220 0 372 -61l-71 -303q-75 32 -181.5 57t-187.5 25q-44 0 -69 -25t-25 -61q0 -20 4.5 -33.5t21 -31.5t54 -35.5t98.5 -35.5 q205 -63 295 -146t90 -232q0 -205 -144 -327t-368 -122q-119 0 -229.5 19.5t-182.5 48.5z" />
<glyph unicode="T" horiz-adv-x="1069" d="M-18 977l41 276h1064l-38 -276l-326 6v-983h-365v983z" />
<glyph unicode="U" horiz-adv-x="1298" d="M92 434v819h367v-755q0 -111 57 -168.5t164 -57.5q71 0 120.5 41.5t49.5 112.5v827h356v-790q0 -233 -158 -369q-154 -133 -408 -133h-11q-537 9 -537 473z" />
<glyph unicode="V" horiz-adv-x="1230" d="M-41 1253h391l283 -886l258 886h377l-424 -1253h-475z" />
<glyph unicode="W" horiz-adv-x="1861" d="M23 1253h370l152 -788l246 788h327l240 -780l143 780h340l-274 -1253h-426l-217 686l-230 -686h-415z" />
<glyph unicode="X" horiz-adv-x="1236" d="M-10 0l401 664l-385 589h422l215 -327l180 327h412l-397 -626l409 -627h-422l-235 360l-191 -360h-409z" />
<glyph unicode="Y" horiz-adv-x="1159" d="M-41 1253h399l240 -465l242 465h356l-438 -825v-428h-365v428z" />
<glyph unicode="Z" horiz-adv-x="1075" d="M43 965l51 288h912v-231l-519 -748l582 11l-51 -285h-963v236l523 739z" />
<glyph unicode="[" horiz-adv-x="700" d="M215 -279v1784h471v-162h-266v-1460h266v-162h-471z" />
<glyph unicode="\" horiz-adv-x="784" d="M94 1419h199l397 -1644h-198z" />
<glyph unicode="]" horiz-adv-x="700" d="M14 -117h267v1460h-267v162h471v-1784h-471v162z" />
<glyph unicode="_" horiz-adv-x="901" d="M0 -207h901v-201h-901v201z" />
<glyph unicode="`" horiz-adv-x="739" d="M61 1313l353 61l264 -350h-291z" />
<glyph unicode="a" horiz-adv-x="970" d="M33 248q0 149 119.5 233t390.5 101q-3 61 -31.5 81.5t-93.5 20.5q-124 0 -289 -61l-59 245q268 93 452 93q369 0 369 -330v-623l-242 -47l-59 94q-146 -94 -260 -94q-129 0 -213 78.5t-84 208.5zM344 291q0 -37 26.5 -65.5t82.5 -28.5q35 0 90 20v156q-53 6 -80 6 q-68 0 -93.5 -21.5t-25.5 -66.5z" />
<glyph unicode="b" horiz-adv-x="1112" d="M76 -25v1399l354 47v-532q141 72 252 72h6q81 -2 150 -31.5t123.5 -85.5t85 -148.5t30.5 -212.5q0 -102 -29.5 -189t-77.5 -147t-110.5 -103t-128 -63t-129.5 -20q-141 0 -334 35l-69 -45zM430 233q74 -16 123 -16q83 0 123.5 56.5t40.5 191.5q0 68 -16.5 117t-45 74.5 t-59.5 37t-68 11.5q-45 0 -98 -17v-455z" />
<glyph unicode="c" horiz-adv-x="878" d="M29 420q0 135 44 241t119 170t169 97t200 33q156 0 287 -56l-64 -266q-30 21 -103 37q-65 15 -100 14h-8h-8q-92 0 -134 -48q-44 -50 -44 -169q0 -52 14.5 -94t37 -68t53 -43.5t61 -24.5t61.5 -7q107 0 191 36l35 -245q-167 -66 -320 -66q-95 0 -180 26t-156 79t-113 144 t-42 210z" />
<glyph unicode="d" horiz-adv-x="1116" d="M39 438q0 126 44.5 229t115 165.5t152.5 95.5t163 33q96 0 172 -9v422l354 47v-1413l-256 -47l-67 90q-147 -90 -282 -90h-9q-81 2 -149 31t-122.5 85t-85 148.5t-30.5 212.5zM399 457q0 -68 16.5 -117t45 -74t59.5 -36t68 -11q44 0 98 14v453q-74 19 -127 19 q-80 0 -120 -57t-40 -191z" />
<glyph unicode="e" horiz-adv-x="954" d="M29 434q0 243 130.5 385t360.5 142q96 0 167 -25.5t111 -65t63.5 -99t30.5 -113.5t7 -123q0 -76 -12 -146h-506q31 -164 188 -164q126 0 287 56l51 -228q-177 -92 -418 -92q-93 0 -172.5 26t-145.5 79.5t-104 147.5t-38 220zM377 586h209q0 77 -31.5 117t-85.5 40 q-44 0 -65 -34t-27 -123z" />
<glyph unicode="f" horiz-adv-x="651" d="M-10 686v215l125 21v84q0 94 27.5 171t74.5 129t110.5 88t132.5 52t144 16q106 0 180 -20l-67 -260q-2 1 -20.5 4.5t-46.5 6.5t-48 3q-133 0 -133 -162v-112h209l-25 -236h-184v-686h-354v686h-125z" />
<glyph unicode="g" horiz-adv-x="964" d="M-27 -231q0 41 16.5 76.5t33.5 53t42 38t27 22.5q1 0 8.5 5t23.5 15.5t28 18.5q-93 53 -93 156q0 89 115 192q-79 38 -122.5 105.5t-43.5 160.5q0 157 119 253t340 96q153 0 256 -62l242 62v-271h-39l-70 15q4 -32 4 -56q0 -154 -125 -252t-325 -98h-37q-6 -12 -6 -33 q0 -20 20.5 -32t61.5 -11l219 -4q147 -5 217.5 -62t70.5 -190q0 -89 -42.5 -170t-117.5 -142t-185.5 -97.5t-237.5 -36.5q-106 0 -186 22t-125 58.5t-67 79t-22 88.5zM295 -141q0 -40 39 -68.5t119 -28.5q82 0 133 34.5t51 82.5q0 21 -24 36.5t-74 16.5l-185 11l-10 2 q-49 -59 -49 -86zM346 641q0 -147 113 -147q35 0 50 29.5t15 99.5q0 77 -31 112t-81 35q-39 0 -52.5 -27.5t-13.5 -101.5z" />
<glyph unicode="h" horiz-adv-x="1095" d="M76 0v1374l354 47v-526q147 66 266 66q152 0 228.5 -74.5t76.5 -216.5v-670h-354v567q0 40 -9.5 68t-20 41.5t-31.5 20.5t-31 7.5t-31 0.5t-50.5 -8t-43.5 -17v-680h-354z" />
<glyph unicode="i" horiz-adv-x="505" d="M47 1221q0 55 70 130.5t125 75.5q56 0 136.5 -63.5t80.5 -116.5q0 -54 -72 -129.5t-123 -75.5q-56 0 -136.5 63.5t-80.5 115.5zM76 0v918l354 47v-965h-354z" />
<glyph unicode="j" horiz-adv-x="505" d="M-88 -205q75 2 119.5 43t44.5 111v969l354 43v-971q0 -96 -26 -177.5t-79 -148.5t-144.5 -105t-213.5 -38zM61 1221q0 55 70 130.5t125 75.5q54 0 134.5 -63.5t80.5 -116.5q0 -54 -71.5 -129.5t-123.5 -75.5q-55 0 -135 63.5t-80 115.5z" />
<glyph unicode="k" horiz-adv-x="1083" d="M76 0v1389l354 32v-1421h-354zM430 500l283 422h362l-291 -404l303 -518h-391l-264 498z" />
<glyph unicode="l" horiz-adv-x="546" d="M49 246v1134l357 41v-1095q0 -74 73 -74q26 0 66 10l22 -262q-44 -16 -112.5 -27.5t-120.5 -11.5q-285 0 -285 285z" />
<glyph unicode="m" horiz-adv-x="1642" d="M76 0v913l252 48l59 -87q170 87 320 87q157 0 233 -87q163 87 324 87q135 0 216 -69t81 -218v-674h-355v567q0 46 -10.5 75.5t-31 41.5t-36.5 15t-41 3q-33 0 -83 -16v-12v-674h-355v567q0 46 -10.5 75.5t-31 41.5t-36.5 15t-41 3q-21 0 -55 -7.5t-45 -16.5v-678h-354z " />
<glyph unicode="n" horiz-adv-x="1081" d="M76 0v913l252 48l59 -87q166 87 309 87q137 0 221 -69.5t84 -217.5v-674h-354v567q0 46 -11.5 76t-33 42.5t-38.5 16t-42 3.5q-20 0 -50.5 -9t-41.5 -18v-678h-354z" />
<glyph unicode="o" horiz-adv-x="1083" d="M39 442q0 236 146 377.5t382 141.5q230 0 355 -117t125 -365q1 -237 -147 -377q-144 -137 -380 -137h-10h-14q-96 0 -176 25q-84 27 -148 83t-98.5 150t-34.5 219zM399 485q0 -73 9 -125.5t23.5 -82t37 -47t44 -22.5t50.5 -5q30 0 48 6t37.5 27.5t28.5 71t9 128.5 q0 90 -13 149t-38.5 87t-51.5 37.5t-63 9.5q-22 0 -37 -3.5t-32.5 -16.5t-27.5 -37.5t-17 -69t-7 -107.5z" />
<glyph unicode="p" horiz-adv-x="1116" d="M76 -492v1405l248 48l59 -99q164 99 300 99h5q81 -2 150 -31.5t123.5 -85.5t85 -148.5t30.5 -212.5q0 -102 -29.5 -189t-77.5 -147t-110.5 -103t-128 -63t-129.5 -20q-104 0 -172 8v-413zM430 236q74 -19 127 -19q80 0 120 57t40 191q0 68 -16.5 117.5t-45 75.5t-60 37.5 t-67.5 11.5q-49 0 -98 -19v-452z" />
<glyph unicode="q" horiz-adv-x="1112" d="M39 442q0 126 44.5 229t115 165.5t152.5 95.5t163 33q144 0 336 -35l63 41l121 -25v-1372l-352 -47v510q-137 -70 -250 -70h-6q-81 2 -149 30.5t-122.5 84t-85 148t-30.5 212.5zM399 461q0 -68 16.5 -117t45 -74.5t59.5 -37t68 -11.5q41 0 94 17v454q-79 17 -119 17 q-83 0 -123.5 -56.5t-40.5 -191.5z" />
<glyph unicode="r" horiz-adv-x="706" d="M76 0v913l252 48l73 -105q125 105 222 105q30 0 52.5 -2.5t37.5 -6.5t16 -4l-41 -295q-39 11 -102 11q-12 1 -23 1l-133 -20v-645h-354z" />
<glyph unicode="s" horiz-adv-x="862" d="M29 27l67 266q203 -80 332 -80q31 0 48 7.5t18 14.5l2 7q0 1 1 10t0.5 14.5t-4.5 15.5t-11.5 17.5t-23.5 16.5t-38 16l-154 45q-117 36 -166 99t-49 165q0 137 117.5 228.5t302.5 91.5q173 0 336 -43l-51 -265q-164 66 -301 66q-76 0 -76 -43q0 -14 3 -23.5t22.5 -23.5 t56.5 -23l162 -45q211 -60 211 -272q0 -72 -29.5 -130t-75 -94t-103 -60.5t-110.5 -34t-102 -9.5q-92 0 -172.5 11.5t-120.5 23.5t-92 31z" />
<glyph unicode="t" horiz-adv-x="757" d="M-4 686v215l123 21l2 174l352 45l-2 -219h268l-20 -236h-252l-4 -280v-12q-1 -79 25 -116q28 -40 96 -40q37 0 58 3t41.5 11t21.5 8l20 -229q-157 -70 -297 -70q-63 0 -118 16.5t-101 50.5q-47 34 -73 94q-26 58 -25 136v6l6 422h-121z" />
<glyph unicode="u" horiz-adv-x="1081" d="M80 248v665l354 48v-607q0 -46 11 -75.5t32.5 -41.5t38 -15t41.5 -3q21 0 52.5 8t41.5 17v669l355 48v-953l-242 -47l-72 84q-168 -84 -307 -84q-137 0 -221 69.5t-84 217.5z" />
<glyph unicode="v" horiz-adv-x="1013" d="M-6 901l368 45l154 -643l160 619h344l-287 -922h-469z" />
<glyph unicode="w" horiz-adv-x="1525" d="M-4 901l356 45l113 -581l149 536l316 45l168 -573l94 549h338l-254 -922h-369l-145 467l-174 -467h-363z" />
<glyph unicode="x" horiz-adv-x="1005" d="M-29 0l324 455l-315 446l378 45l158 -221l137 197h371l-334 -441l344 -481h-418l-145 205l-129 -205h-371z" />
<glyph unicode="y" horiz-adv-x="1013" d="M-23 903l371 43l174 -631q80 316 137 607h351q0 -1 -65 -250.5t-125 -461.5t-99 -316q-63 -193 -194.5 -290.5t-309.5 -97.5q-39 0 -91.5 7t-80.5 16l-10 266q55 -7 101 -7q91 0 149 28q87 41 137 157q1 4 4 13.5t4 13.5h-164z" />
<glyph unicode="z" horiz-adv-x="894" d="M31 668l22 254h781v-250l-367 -426l401 -2l-22 -244h-803v227l367 439z" />
<glyph unicode="{" horiz-adv-x="700" d="M137 514v195q70 -10 112 27t42 95q0 47 -20.5 200t-20.5 253q0 121 116.5 193.5t286.5 72.5v-170q-77 0 -131.5 -35.5t-54.5 -103.5q0 -75 15.5 -231t15.5 -213q0 -68 -43.5 -119.5t-102.5 -67.5q60 -16 103 -67t43 -119q0 -56 -15.5 -210t-15.5 -228q0 -68 54.5 -104 t131.5 -36v-170q-170 0 -286.5 73t-116.5 194q0 100 20.5 250.5t20.5 197.5q0 58 -42 95.5t-112 27.5z" />
<glyph unicode="|" horiz-adv-x="733" d="M260 -451v1870h213v-1870h-213z" />
<glyph unicode="}" horiz-adv-x="700" d="M47 -152q77 0 131.5 36t54.5 104q0 75 -15 231.5t-15 212.5q0 68 43 119t102 67q-59 16 -102 67t-43 120q0 57 15 210t15 228q0 68 -54.5 103.5t-131.5 35.5v170q170 0 287 -72.5t117 -193.5q0 -100 -20.5 -250.5t-20.5 -197.5q0 -58 41.5 -95.5t111.5 -27.5v-195 q-70 10 -111.5 -27.5t-41.5 -95.5q0 -47 20.5 -199.5t20.5 -252.5q0 -121 -117 -194t-287 -73v170z" />
<glyph unicode="&#xa1;" horiz-adv-x="667" d="M141 829q0 37 74.5 98.5t112.5 61.5q42 0 121 -58t79 -91q0 -49 -76 -117t-120 -68q-40 0 -115.5 64t-75.5 110zM170 -387q29 766 29 942l266 39q9 -669 43 -918z" />
<glyph unicode="&#xa2;" d="M166 584q0 220 109.5 353.5t285.5 172.5l-31 274h261l-31 -262q119 -7 225 -53l-63 -266q-30 20 -103 36.5t-108 14.5q-98 2 -142.5 -47.5t-44.5 -169.5q0 -65 21.5 -113.5t56.5 -74.5t72.5 -38t77.5 -12q103 0 190 37l35 -246q-111 -45 -217 -59l26 -276h-260l35 276 q-81 12 -150 44t-125 85.5t-88 136.5t-32 187z" />
<glyph unicode="&#xa3;" d="M74 512v27l28 139l74 47h43q-14 79 -14 125q0 196 135.5 319t349.5 123q184 0 322 -61l-86 -252q-26 8 -65 21t-57.5 18t-52 9.5t-75.5 4.5q-48 0 -88.5 -32t-40.5 -93q0 -75 14 -182h342l-59 -213h-252q8 -78 8 -104q0 -78 -47 -146l502 25l-43 -287h-875h-2l-53 223 q50 6 81.5 14t61.5 25t44 46.5t14 74.5q0 25 -17 129h-192z" />
<glyph unicode="&#xa7;" horiz-adv-x="980" d="M14 561q0 101 53 182t152 134q-123 88 -123 239q0 104 63 189t168.5 132.5t229.5 47.5q204 0 332 -70l-88 -260q-19 7 -73 27.5t-76 28t-57 16t-60 8.5q-53 0 -74.5 -16.5t-24.5 -49.5q0 -31 17.5 -53.5t68.5 -38.5l154 -51q68 -22 117 -47t90.5 -63t62.5 -93t21 -127 q0 -203 -205 -313q123 -94 123 -240q0 -104 -62.5 -189t-167.5 -132t-229 -47q-196 0 -328 69l86 260q18 -7 72 -27.5t75.5 -28t56.5 -15.5t61 -8q53 0 74 16t24 47q0 31 -18 53.5t-68 38.5l-156 53q-68 21 -116.5 45.5t-90.5 62.5t-63 93t-21 127zM352 633q0 -37 27.5 -61 t85.5 -48l10 -4q76 4 116 33.5t40 71.5q0 38 -26.5 60.5t-86.5 49.5l-8 2q-78 -4 -118 -33t-40 -71z" />
<glyph unicode="&#xa8;" horiz-adv-x="1155" d="M188 1178q0 49 62 117.5t110 68.5q53 0 125 -57.5t72 -110.5q0 -46 -65 -113t-109 -67q-52 0 -123.5 56t-71.5 106zM598 1178q0 48 63 117t111 69q51 0 123 -57.5t72 -110.5q0 -46 -64 -113t-108 -67q-54 0 -125.5 56t-71.5 106z" />
<glyph unicode="&#xa9;" horiz-adv-x="1355" d="M100 541q0 130 47.5 240.5t127.5 183t184 113t219 40.5q175 0 307.5 -76.5t201 -207t68.5 -293.5q0 -133 -47 -244t-127 -183.5t-184 -112.5t-219 -40q-265 0 -421.5 164t-156.5 416zM225 545q0 -147 63 -255t166 -161t232 -53q203 0 326 135.5t123 333.5q0 213 -127 339 t-322 126q-212 0 -336.5 -127t-124.5 -338zM342 524q0 164 101 269.5t276 105.5q64 0 125.5 -11t79.5 -28l-41 -151q-84 30 -158 30q-83 0 -121 -44t-41 -138q0 -81 50 -133.5t147 -52.5q70 0 149 28l27 -131q-40 -25 -108.5 -43t-149.5 -18q-144 0 -240 84.5t-96 232.5z " />
<glyph unicode="&#xaa;" horiz-adv-x="550" d="M33 827q0 151 286 177v8q0 26 -8.5 35.5t-27.5 9.5q-18 0 -42.5 -3.5t-41.5 -7t-48.5 -11t-41.5 -9.5l-39 129q131 41 249 41q104 0 162 -42.5t58 -127.5v-315l-140 -13l-51 50q-80 -50 -147 -50q-59 0 -113.5 35t-54.5 94zM221 852q0 -15 6.5 -22.5t15 -9t23.5 -1.5 q29 0 53 12v56h-18q-80 0 -80 -35z" />
<glyph unicode="&#xab;" horiz-adv-x="1101" d="M14 475l367 471l209 -92l-205 -379l205 -379l-209 -92zM446 475l369 471l209 -92l-205 -379l205 -379l-209 -92z" />
<glyph unicode="&#xad;" horiz-adv-x="731" d="M70 391v58l77 159h515v-57l-58 -160h-534z" />
<glyph unicode="&#xae;" horiz-adv-x="1355" d="M100 1071q0 130 47.5 240.5t127.5 183.5t184 113.5t219 40.5q131 0 240.5 -44.5t182.5 -122t113.5 -183.5t40.5 -228q0 -133 -47 -244t-127 -183t-184 -112t-219 -40q-265 0 -421.5 163.5t-156.5 415.5zM225 1075q0 -148 63 -256.5t166 -161.5t232 -53q135 0 239 64.5 t157 171t53 235.5q0 213 -127 339t-322 126q-212 0 -336.5 -127t-124.5 -338zM393 766v649h295q140 0 214.5 -52.5t74.5 -148.5q0 -105 -100 -170l141 -278h-234l-88 219q-18 -2 -55 -2q-15 0 -23 -2v-215h-225zM618 1114q4 0 22.5 -1t35.5 -1q23 0 46 20.5t23 51.5 q0 38 -33 69t-94 31v-170z" />
<glyph unicode="&#xaf;" horiz-adv-x="942" d="M164 1063v31l59 206h555v-30l-59 -207h-555z" />
<glyph unicode="&#xb2;" horiz-adv-x="593" d="M23 1391q133 53 274 53q130 0 192 -52.5t62 -146.5q0 -77 -60.5 -146t-187.5 -147l264 15l-32 -168h-498v135q90 53 153 99.5t91.5 79t39.5 54t11 37.5q0 42 -23 62t-61 20q-46 0 -96.5 -14t-85.5 -37z" />
<glyph unicode="&#xb3;" horiz-adv-x="581" d="M23 799l36 143q107 -22 158 -22q115 0 115 67q0 27 -23.5 44.5t-68.5 17.5q-18 0 -86 -5l-19 140q103 0 145.5 13t45.5 48q-3 34 -22 46t-64 12q-84 0 -154 -31l-43 127q41 18 118 31.5t140 13.5q102 0 166.5 -39.5t64.5 -108.5q0 -58 -45.5 -100.5t-115.5 -62.5 q192 -22 192 -146q0 -65 -55.5 -114.5t-129.5 -71t-149 -21.5q-132 0 -206 19z" />
<glyph unicode="&#xb4;" horiz-adv-x="739" d="M61 1024l265 350l352 -61l-326 -289h-291z" />
<glyph unicode="&#xb6;" horiz-adv-x="1175" d="M18 766q0 228 135 357.5t353 129.5h565v-1169q0 -112 -59.5 -196.5t-152 -125.5t-202.5 -41q-32 0 -60 1.5t-50.5 4.5t-39 5.5t-33.5 7.5t-24.5 7t-21.5 7t-16 6l39 263q90 -29 149.5 -32.5t91.5 18t44 57.5t12 94v817h-109v-672h-139q-218 0 -350 116.5t-132 344.5z" />
<glyph unicode="&#xb8;" horiz-adv-x="636" d="M111 -360q96 9 146 23.5t50 45.5q0 48 -147 76l-6 10l102 205h131l-43 -102q182 -55 182 -160q0 -38 -21 -75.5t-64 -71.5t-119 -57.5t-175 -27.5z" />
<glyph unicode="&#xb9;" horiz-adv-x="493" d="M35 1356q78 25 252 69h125v-626h-222v432l-108 -43z" />
<glyph unicode="&#xba;" horiz-adv-x="624" d="M29 938q0 117 86.5 187.5t214.5 70.5q125 0 190.5 -56.5t65.5 -183.5q0 -116 -85.5 -187t-213.5 -71q-258 0 -258 240zM252 961q0 -78 17.5 -107t49.5 -29q46 0 46 111q0 76 -18.5 103.5t-49.5 27.5q-45 0 -45 -106z" />
<glyph unicode="&#xbb;" horiz-adv-x="1101" d="M78 92l205 383l-205 373l209 98l368 -471l-368 -471zM512 92l205 383l-205 373l207 98l368 -471l-368 -471z" />
<glyph unicode="&#xbf;" horiz-adv-x="833" d="M-25 -55q0 141 215 307q64 51 88.5 81.5t24.5 61.5q0 8 -4.5 23t-9.5 27t-15 35t-14 32l309 70q29 -37 50.5 -80.5t21.5 -71.5q0 -61 -27.5 -101t-107.5 -108q-92 -76 -127 -127t-35 -125q0 -34 38.5 -71t86.5 -37q63 0 107.5 17.5t138.5 76.5l108 -238 q-96 -52 -213.5 -87.5t-201.5 -35.5q-188 0 -310.5 98t-122.5 253zM238 825q0 52 73.5 120.5t114.5 68.5q49 0 119.5 -64t70.5 -114q0 -53 -71.5 -121t-120.5 -68q-41 0 -113.5 63t-72.5 115z" />
<glyph unicode="&#xc0;" horiz-adv-x="1232" d="M-20 0l409 1253h485l379 -1253h-374l-74 252h-410l-76 -252h-339zM252 1620l352 61l264 -350h-290zM469 498h266l-131 448z" />
<glyph unicode="&#xc1;" horiz-adv-x="1232" d="M-20 0l409 1253h485l379 -1253h-374l-74 252h-410l-76 -252h-339zM389 1331l264 350l353 -61l-326 -289h-291zM469 498h266l-131 448z" />
<glyph unicode="&#xc2;" horiz-adv-x="1232" d="M-20 0l409 1253h485l379 -1253h-374l-74 252h-410l-76 -252h-339zM205 1331l231 350h328l235 -350h-251l-148 131l-147 -131h-248zM469 498h266l-131 448z" />
<glyph unicode="&#xc3;" horiz-adv-x="1232" d="M-20 0l409 1253h485l379 -1253h-374l-74 252h-410l-76 -252h-339zM250 1446q-1 0 16.5 20.5t45.5 50t60.5 58.5t67 49.5t58.5 20.5q46 0 143 -35t123 -35q61 0 149 100l117 -121q-19 -65 -111.5 -147t-154.5 -82q-40 0 -145.5 34t-129.5 34q-34 0 -75.5 -34t-57.5 -56z M469 498h266l-131 448z" />
<glyph unicode="&#xc4;" horiz-adv-x="1232" d="M-20 0l409 1253h485l379 -1253h-374l-74 252h-410l-76 -252h-339zM219 1485q0 49 62 117.5t110 68.5q53 0 125 -57.5t72 -110.5q0 -46 -65 -113t-109 -67q-52 0 -123.5 56t-71.5 106zM469 498h266l-131 448zM629 1485q0 48 63 117t111 69q51 0 122.5 -57.5t71.5 -110.5 q0 -46 -64 -113t-108 -67q-54 0 -125 56t-71 106z" />
<glyph unicode="&#xc5;" horiz-adv-x="1232" d="M-20 0l409 1253h485l379 -1253h-374l-74 252h-410l-76 -252h-339zM406 1544q0 90 67 154.5t160 64.5q99 0 162 -57.5t63 -161.5q0 -89 -67.5 -154t-159.5 -65q-97 0 -161 60t-64 159zM469 498h266l-131 448zM547 1544q0 -36 24 -60t60 -24q37 0 61.5 24.5t24.5 59.5 q0 38 -24.5 63t-61.5 25t-60.5 -25t-23.5 -63z" />
<glyph unicode="&#xc6;" horiz-adv-x="1632" d="M-78 0l635 1253h1002l-31 -270l-424 4v-225h399l-20 -254l-379 4v-242l487 6l-30 -276h-824v252h-342l-112 -252h-361zM504 498h233v463l-28 -3z" />
<glyph unicode="&#xc7;" horiz-adv-x="1144" d="M51 604q0 196 82.5 351t243 246t375.5 91q177 0 340 -49l-60 -293q-56 18 -87.5 26.5t-95 18t-128.5 9.5q-142 0 -218.5 -81t-76.5 -276q0 -88 24.5 -158t61.5 -112t85.5 -69.5t92.5 -37.5t86 -10q79 0 159.5 16t117.5 31l34 -262q-49 -29 -139 -52t-192 -30l-29 -65 q182 -55 182 -160q0 -38 -21 -75.5t-64 -71.5t-119 -57.5t-175 -27.5l-36 134q96 9 146 23.5t50 45.5q0 48 -147 76l-6 10l84 168q-120 8 -222.5 52t-180.5 122t-122.5 198t-44.5 269z" />
<glyph unicode="&#xc8;" horiz-adv-x="1003" d="M104 0v1253h822l-31 -270l-424 4v-225h399l-20 -254l-379 4v-242l487 6l-30 -276h-824zM217 1620l352 61l265 -350h-291z" />
<glyph unicode="&#xc9;" horiz-adv-x="1003" d="M104 0v1253h822l-31 -270l-424 4v-225h399l-20 -254l-379 4v-242l487 6l-30 -276h-824zM256 1331l264 350l352 -61l-325 -289h-291z" />
<glyph unicode="&#xca;" horiz-adv-x="1003" d="M104 0v1253h822l-31 -270l-424 4v-225h399l-20 -254l-379 4v-242l487 6l-30 -276h-824zM135 1331l232 350h327l236 -350h-252l-148 131l-147 -131h-248z" />
<glyph unicode="&#xcb;" horiz-adv-x="1003" d="M104 0v1253h822l-31 -270l-424 4v-225h399l-20 -254l-379 4v-242l487 6l-30 -276h-824zM141 1485q0 49 62 117.5t110 68.5q53 0 125 -57.5t72 -110.5q0 -46 -65 -113t-109 -67q-52 0 -123.5 56t-71.5 106zM551 1485q0 48 63 117t111 69q51 0 123 -57.5t72 -110.5 q0 -46 -64 -113t-108 -67q-54 0 -125.5 56t-71.5 106z" />
<glyph unicode="&#xcc;" horiz-adv-x="575" d="M-111 1620l353 61l264 -350h-291zM104 0v1253h367v-1253h-367z" />
<glyph unicode="&#xcd;" horiz-adv-x="575" d="M59 1331l265 350l352 -61l-326 -289h-291zM104 0v1253h367v-1253h-367z" />
<glyph unicode="&#xce;" horiz-adv-x="575" d="M-113 1331l232 350h327l236 -350h-252l-147 131l-148 -131h-248zM104 0v1253h367v-1253h-367z" />
<glyph unicode="&#xcf;" horiz-adv-x="575" d="M-109 1507q0 48 63.5 117.5t111.5 69.5q51 0 122.5 -57.5t71.5 -110.5q0 -47 -64.5 -113.5t-109.5 -66.5q-52 0 -123.5 55.5t-71.5 105.5zM104 0v1253h367v-1253h-367zM311 1507q0 48 63 117.5t111 69.5q51 0 123 -57.5t72 -110.5q0 -47 -64.5 -113.5t-109.5 -66.5 q-52 0 -123.5 55.5t-71.5 105.5z" />
<glyph unicode="&#xd0;" horiz-adv-x="1337" d="M0 506v237h115v510h542q138 0 250.5 -36t197.5 -108t132 -189t47 -271q0 -131 -37 -240t-104.5 -188.5t-161.5 -134.5t-207.5 -82t-243.5 -27q-178 0 -415 29v500h-115zM481 258q24 -8 94 -8q166 0 251 83t85 265q0 89 -21.5 159.5t-55.5 114t-81 72t-94 40t-98 11.5h-80 v-252h260l-20 -237h-240v-248z" />
<glyph unicode="&#xd1;" horiz-adv-x="1339" d="M104 0v1253h365l436 -665v665h330v-1253h-332l-471 690v-690h-328zM293 1446q-1 0 16.5 20.5t45.5 50t60.5 58.5t67 49.5t58.5 20.5q46 0 143 -35t123 -35q61 0 149 100l117 -121q-19 -65 -111.5 -147t-154.5 -82q-40 0 -145.5 34t-129.5 34q-34 0 -75.5 -34t-57.5 -56z " />
<glyph unicode="&#xd2;" horiz-adv-x="1409" d="M51 602q0 210 89 367t249 240t369 83q276 0 437 -172t161 -469q0 -317 -192.5 -503.5t-510.5 -186.5q-277 0 -439.5 171.5t-162.5 469.5zM354 1620l353 61l264 -350h-291zM430 659q0 -227 80.5 -330.5t232.5 -103.5q55 0 96.5 18t74 59t49 114.5t16.5 177.5 q0 434 -311 434q-114 0 -176 -84.5t-62 -284.5z" />
<glyph unicode="&#xd3;" horiz-adv-x="1409" d="M51 602q0 210 89 367t249 240t369 83q276 0 437 -172t161 -469q0 -317 -192.5 -503.5t-510.5 -186.5q-277 0 -439.5 171.5t-162.5 469.5zM430 659q0 -227 80.5 -330.5t232.5 -103.5q55 0 96.5 18t74 59t49 114.5t16.5 177.5q0 434 -311 434q-114 0 -176 -84.5t-62 -284.5 zM436 1331l264 350l353 -61l-326 -289h-291z" />
<glyph unicode="&#xd4;" horiz-adv-x="1409" d="M51 602q0 210 89 367t249 240t369 83q276 0 437 -172t161 -469q0 -317 -192.5 -503.5t-510.5 -186.5q-277 0 -439.5 171.5t-162.5 469.5zM313 1331l232 350h327l236 -350h-252l-147 131l-148 -131h-248zM430 659q0 -227 80.5 -330.5t232.5 -103.5q55 0 96.5 18t74 59 t49 114.5t16.5 177.5q0 434 -311 434q-114 0 -176 -84.5t-62 -284.5z" />
<glyph unicode="&#xd5;" horiz-adv-x="1409" d="M51 602q0 210 89 367t249 240t369 83q276 0 437 -172t161 -469q0 -317 -192.5 -503.5t-510.5 -186.5q-277 0 -439.5 171.5t-162.5 469.5zM295 1446q-1 0 16.5 20.5t45.5 50t60.5 58.5t67 49.5t58.5 20.5q46 0 143 -35t123 -35q61 0 149 100l117 -121q-19 -65 -111.5 -147 t-154.5 -82q-40 0 -145 34t-129 34q-34 0 -76.5 -34.5t-57.5 -55.5zM430 659q0 -227 80.5 -330.5t232.5 -103.5q55 0 96.5 18t74 59t49 114.5t16.5 177.5q0 434 -311 434q-114 0 -176 -84.5t-62 -284.5z" />
<glyph unicode="&#xd6;" horiz-adv-x="1409" d="M51 602q0 210 89 367t249 240t369 83q276 0 437 -172t161 -469q0 -317 -192.5 -503.5t-510.5 -186.5q-277 0 -439.5 171.5t-162.5 469.5zM330 1485q0 49 62 117.5t110 68.5q53 0 124.5 -57.5t71.5 -110.5q0 -46 -65 -113t-109 -67q-52 0 -123 56t-71 106zM430 659 q0 -227 80.5 -330.5t232.5 -103.5q55 0 96.5 18t74 59t49 114.5t16.5 177.5q0 434 -311 434q-114 0 -176 -84.5t-62 -284.5zM739 1485q0 48 63 117t111 69q51 0 123 -57.5t72 -110.5q0 -46 -64 -113t-108 -67q-54 0 -125.5 56t-71.5 106z" />
<glyph unicode="&#xd7;" d="M197 322l223 223l-223 223l149 147l223 -221l222 221l149 -147l-223 -223l223 -223l-147 -150l-224 225l-225 -225z" />
<glyph unicode="&#xd8;" horiz-adv-x="1409" d="M51 602q0 210 89 367t249 240t369 83q74 0 139 -12l68 139h243l-106 -221q122 -79 188 -219t66 -328q0 -317 -192.5 -503.5t-510.5 -186.5q-73 0 -141 12l-70 -143h-243l108 225q-123 79 -189.5 219.5t-66.5 327.5zM430 659q0 -164 43 -262l297 617q-43 14 -102 14 q-114 0 -176 -84.5t-62 -284.5zM639 240q49 -15 104 -15t96.5 18t74 59t49 114.5t16.5 177.5q0 164 -43 262z" />
<glyph unicode="&#xd9;" horiz-adv-x="1298" d="M92 434v819h367v-755q0 -111 57 -168.5t164 -57.5q71 0 120.5 41.5t49.5 112.5v827h356v-790q0 -234 -157.5 -369.5t-419.5 -132.5q-537 9 -537 473zM299 1620l352 61l264 -350h-290z" />
<glyph unicode="&#xda;" horiz-adv-x="1298" d="M92 434v819h367v-755q0 -111 57 -168.5t164 -57.5q71 0 120.5 41.5t49.5 112.5v827h356v-790q0 -234 -157.5 -369.5t-419.5 -132.5q-537 9 -537 473zM371 1331l264 350l352 -61l-325 -289h-291z" />
<glyph unicode="&#xdb;" horiz-adv-x="1298" d="M92 434v819h367v-755q0 -111 57 -168.5t164 -57.5q71 0 120.5 41.5t49.5 112.5v827h356v-790q0 -234 -157.5 -369.5t-419.5 -132.5q-537 9 -537 473zM266 1331l232 350h327l236 -350h-252l-147 131l-148 -131h-248z" />
<glyph unicode="&#xdc;" horiz-adv-x="1298" d="M92 434v819h367v-755q0 -111 57 -168.5t164 -57.5q71 0 120.5 41.5t49.5 112.5v827h356v-790q0 -234 -157.5 -369.5t-419.5 -132.5q-537 9 -537 473zM276 1485q0 48 62.5 117t110.5 69q53 0 124.5 -57.5t71.5 -110.5q0 -46 -65 -113t-109 -67q-52 0 -123.5 56t-71.5 106z M686 1485q0 48 63 117t111 69q51 0 123 -57.5t72 -110.5q0 -46 -64 -113t-108 -67q-54 0 -125.5 56t-71.5 106z" />
<glyph unicode="&#xdd;" horiz-adv-x="1159" d="M-41 1253h399l240 -465l242 465h356l-438 -825v-428h-365v428zM365 1331l264 350l352 -61l-326 -289h-290z" />
<glyph unicode="&#xde;" horiz-adv-x="1110" d="M104 0v1253h367v-186h137q227 0 355.5 -101t128.5 -284q0 -142 -79 -246.5t-208 -155.5t-289 -51q-29 0 -45 2v-231h-367zM471 475h39q110 0 159.5 43.5t49.5 128.5q0 184 -246 184h-2v-356z" />
<glyph unicode="&#xdf;" horiz-adv-x="1095" d="M76 0v1036q0 195 132.5 310.5t338.5 115.5q94 0 175 -28t134 -73t83 -99.5t30 -108.5q0 -74 -28 -145t-61 -113.5t-61 -84.5t-28 -67q0 -67 55 -110l100 -74q102 -71 131 -125.5t29 -154.5q0 -133 -117.5 -222.5t-283.5 -89.5q-57 0 -128.5 12t-105.5 29l27 242 q29 -17 93.5 -30t92.5 -13q40 0 65 8.5t31 17t6 17.5q0 24 -59 59l-111 74q-70 43 -103.5 112t-33.5 146q0 70 25.5 139t55.5 113.5t55.5 96.5t25.5 91q0 49 -47.5 79t-89.5 30q-48 0 -61 -24t-13 -95v-1071h-354z" />
<glyph unicode="&#xe0;" horiz-adv-x="970" d="M33 248q0 149 119.5 233t390.5 101q-3 61 -31.5 81.5t-93.5 20.5q-124 0 -289 -61l-59 245q268 93 452 93q369 0 369 -330v-623l-242 -47l-59 94q-146 -94 -260 -94q-129 0 -213 78.5t-84 208.5zM166 1313l352 61l264 -350h-290zM344 291q0 -37 26.5 -65.5t82.5 -28.5 q35 0 90 20v156q-53 6 -80 6q-68 0 -93.5 -21.5t-25.5 -66.5z" />
<glyph unicode="&#xe1;" horiz-adv-x="970" d="M33 248q0 149 119.5 233t390.5 101q-3 61 -31.5 81.5t-93.5 20.5q-124 0 -289 -61l-59 245q268 93 452 93q369 0 369 -330v-623l-242 -47l-59 94q-146 -94 -260 -94q-129 0 -213 78.5t-84 208.5zM262 1024l264 350l353 -61l-326 -289h-291zM344 291q0 -37 26.5 -65.5 t82.5 -28.5q35 0 90 20v156q-53 6 -80 6q-68 0 -93.5 -21.5t-25.5 -66.5z" />
<glyph unicode="&#xe2;" horiz-adv-x="970" d="M33 248q0 149 119.5 233t390.5 101q-3 61 -31.5 81.5t-93.5 20.5q-124 0 -289 -61l-59 245q268 93 452 93q369 0 369 -330v-623l-242 -47l-59 94q-146 -94 -260 -94q-129 0 -213 78.5t-84 208.5zM111 1024l231 350h328l235 -350h-252l-147 131l-148 -131h-247zM344 291 q0 -37 26.5 -65.5t82.5 -28.5q35 0 90 20v156q-53 6 -80 6q-68 0 -93.5 -21.5t-25.5 -66.5z" />
<glyph unicode="&#xe3;" horiz-adv-x="970" d="M33 248q0 149 119.5 233t390.5 101q-3 61 -31.5 81.5t-93.5 20.5q-124 0 -289 -61l-59 245q268 93 452 93q369 0 369 -330v-623l-242 -47l-59 94q-146 -94 -260 -94q-129 0 -213 78.5t-84 208.5zM94 1139q-3 0 41.5 49.5t106.5 99t100 49.5q46 0 143 -34.5t123 -34.5 q62 0 150 100l116 -121q-19 -65 -111.5 -147t-154.5 -82q-40 0 -145 33.5t-129 33.5q-34 0 -75.5 -34t-57.5 -56zM344 291q0 -37 26.5 -65.5t82.5 -28.5q35 0 90 20v156q-53 6 -80 6q-68 0 -93.5 -21.5t-25.5 -66.5z" />
<glyph unicode="&#xe4;" horiz-adv-x="970" d="M33 248q0 149 119.5 233t390.5 101q-3 61 -31.5 81.5t-93.5 20.5q-124 0 -289 -61l-59 245q268 93 452 93q369 0 369 -330v-623l-242 -47l-59 94q-146 -94 -260 -94q-129 0 -213 78.5t-84 208.5zM111 1178q0 49 62 117.5t110 68.5q53 0 124.5 -57.5t71.5 -110.5 q0 -46 -65 -113t-109 -67q-52 0 -123 56t-71 106zM344 291q0 -37 26.5 -65.5t82.5 -28.5q35 0 90 20v156q-53 6 -80 6q-68 0 -93.5 -21.5t-25.5 -66.5zM520 1178q0 48 63 117t111 69q51 0 123 -57.5t72 -110.5q0 -46 -64 -113t-108 -67q-54 0 -125.5 56t-71.5 106z" />
<glyph unicode="&#xe5;" horiz-adv-x="970" d="M33 248q0 149 119.5 233t390.5 101q-3 61 -31.5 81.5t-93.5 20.5q-124 0 -289 -61l-59 245q268 93 452 93q369 0 369 -330v-623l-242 -47l-59 94q-146 -94 -260 -94q-129 0 -213 78.5t-84 208.5zM293 1237q0 90 67 154.5t160 64.5q99 0 162 -57.5t63 -161.5 q0 -89 -67.5 -154t-159.5 -65q-97 0 -161 60t-64 159zM344 291q0 -37 26.5 -65.5t82.5 -28.5q35 0 90 20v156q-53 6 -80 6q-68 0 -93.5 -21.5t-25.5 -66.5zM434 1237q0 -36 24 -60t60 -24q37 0 61.5 24.5t24.5 59.5q0 38 -24.5 63t-61.5 25t-60.5 -25t-23.5 -63z" />
<glyph unicode="&#xe6;" horiz-adv-x="1480" d="M33 248q0 151 120.5 235t395.5 101q-3 52 -28 75t-97 23q-143 0 -291 -61l-63 247q268 93 452 93q166 0 256 -72q115 72 264 72q96 0 167 -26t111.5 -65.5t65 -97.5t32 -111t7.5 -116q0 -51 -12 -156h-508q36 -164 195 -164q81 0 159.5 18t120.5 38l54 -228 q-59 -38 -163.5 -65t-230.5 -27q-217 0 -340 123q-178 -123 -356 -123q-138 0 -224.5 78t-86.5 209zM344 291q0 -37 26.5 -65.5t82.5 -28.5q20 0 66.5 11t84.5 25q-2 12 -10 31l-45 15v92q-49 8 -86 8q-68 0 -93.5 -21.5t-25.5 -66.5zM897 586h211q0 76 -30.5 116.5 t-78.5 40.5q-49 0 -72.5 -33.5t-29.5 -123.5z" />
<glyph unicode="&#xe7;" horiz-adv-x="878" d="M29 420q0 135 44 241t119 170t169 97t200 33q156 0 287 -56l-64 -266q-30 20 -103 36.5t-108 14.5q-98 2 -142 -47.5t-44 -169.5q0 -52 14.5 -94t37 -68t53 -43.5t61 -24.5t61.5 -7q107 0 191 36l35 -245q-151 -59 -277 -64l-26 -65q182 -55 182 -160q0 -38 -21 -75.5 t-64 -71.5t-119 -57.5t-175 -27.5l-37 134q96 9 146.5 23.5t50.5 45.5q0 48 -148 76l-6 10l86 172q-83 11 -153.5 42.5t-127.5 85t-89.5 137t-32.5 188.5z" />
<glyph unicode="&#xe8;" horiz-adv-x="954" d="M29 434q0 243 130.5 385t360.5 142q96 0 167 -25.5t111 -65t63.5 -99t30.5 -113.5t7 -123q0 -76 -12 -146h-506q31 -164 188 -164q126 0 287 56l51 -228q-177 -92 -418 -92q-93 0 -172.5 26t-145.5 79.5t-104 147.5t-38 220zM150 1313l352 61l264 -350h-291zM377 586h209 q0 77 -31.5 117t-85.5 40q-44 0 -65 -34t-27 -123z" />
<glyph unicode="&#xe9;" horiz-adv-x="954" d="M29 434q0 243 130.5 385t360.5 142q96 0 167 -25.5t111 -65t63.5 -99t30.5 -113.5t7 -123q0 -76 -12 -146h-506q31 -164 188 -164q126 0 287 56l51 -228q-177 -92 -418 -92q-93 0 -172.5 26t-145.5 79.5t-104 147.5t-38 220zM266 1024l264 350l353 -61l-326 -289h-291z M377 586h209q0 77 -31.5 117t-85.5 40q-44 0 -65 -34t-27 -123z" />
<glyph unicode="&#xea;" horiz-adv-x="954" d="M29 434q0 243 130.5 385t360.5 142q96 0 167 -25.5t111 -65t63.5 -99t30.5 -113.5t7 -123q0 -76 -12 -146h-506q31 -164 188 -164q126 0 287 56l51 -228q-177 -92 -418 -92q-93 0 -172.5 26t-145.5 79.5t-104 147.5t-38 220zM129 1024l231 350h328l236 -350h-252 l-148 131l-147 -131h-248zM377 586h209q0 77 -31.5 117t-85.5 40q-44 0 -65 -34t-27 -123z" />
<glyph unicode="&#xeb;" horiz-adv-x="954" d="M29 434q0 243 130.5 385t360.5 142q96 0 167 -25.5t111 -65t63.5 -99t30.5 -113.5t7 -123q0 -76 -12 -146h-506q31 -164 188 -164q126 0 287 56l51 -228q-177 -92 -418 -92q-93 0 -172.5 26t-145.5 79.5t-104 147.5t-38 220zM100 1178q0 49 62 117.5t110 68.5 q53 0 125 -57.5t72 -110.5q0 -46 -65 -113t-109 -67q-52 0 -123.5 56t-71.5 106zM377 586h209q0 77 -31.5 117t-85.5 40q-44 0 -65 -34t-27 -123zM510 1178q0 48 63 117t111 69q51 0 123 -57.5t72 -110.5q0 -46 -64 -113t-108 -67q-54 0 -125.5 56t-71.5 106z" />
<glyph unicode="&#xec;" horiz-adv-x="505" d="M-104 1313l352 61l264 -350h-291zM80 0v918l354 47v-965h-354z" />
<glyph unicode="&#xed;" horiz-adv-x="505" d="M29 1024l264 350l352 -61l-326 -289h-290zM72 0v918l354 47v-965h-354z" />
<glyph unicode="&#xee;" horiz-adv-x="505" d="M-137 1024l231 350h328l235 -350h-251l-148 131l-147 -131h-248zM72 0v918l354 47v-965h-354z" />
<glyph unicode="&#xef;" horiz-adv-x="505" d="M-135 1214q0 49 62 118t110 69q52 0 124 -58t72 -110q0 -47 -65 -114.5t-109 -67.5q-52 0 -123 56.5t-71 106.5zM68 0v918l354 47v-965h-354zM258 1214q0 48 63 117.5t111 69.5q51 0 123 -58.5t72 -109.5q0 -47 -65 -114.5t-109 -67.5q-52 0 -123.5 56.5t-71.5 106.5z " />
<glyph unicode="&#xf0;" horiz-adv-x="1087" d="M29 422q0 114 33.5 207.5t86.5 153.5t123 101.5t140 59t139 17.5q13 0 70 -5q-40 78 -123 152l-191 -125l-143 123l174 113q-50 30 -180 100l127 145q157 -40 278 -102l176 115l138 -121l-148 -96q90 -69 156 -154t102.5 -171t53 -167t16.5 -160q0 -138 -29.5 -248.5 t-80.5 -184t-122 -122.5t-152 -70.5t-173 -21.5q-93 0 -174.5 26.5t-149.5 79.5t-107.5 144.5t-39.5 210.5zM395 459q0 -70 16.5 -121.5t42.5 -76t49 -35.5t44 -11q53 0 80.5 19t43.5 89t15 209q0 68 -4 162q-54 15 -96 15q-54 0 -86.5 -9t-58 -35.5t-36 -76t-10.5 -129.5z M764 918q2 0 0 2v-2z" />
<glyph unicode="&#xf1;" horiz-adv-x="1081" d="M76 0v913l252 48l59 -87q166 87 309 87q137 0 221 -69.5t84 -217.5v-674h-354v567q0 46 -11.5 76t-33 42.5t-38.5 16t-42 3.5q-20 0 -50.5 -9t-41.5 -18v-678h-354zM158 1139q-3 0 41.5 49.5t106.5 99t100 49.5q46 0 143 -34.5t123 -34.5q61 0 149 100l117 -121 q-19 -65 -111.5 -147t-154.5 -82q-40 0 -145.5 33.5t-129.5 33.5q-34 0 -75.5 -34t-57.5 -56z" />
<glyph unicode="&#xf2;" horiz-adv-x="1083" d="M39 442q0 236 146 377.5t382 141.5q230 0 355 -117t125 -365q0 -237 -147.5 -377t-389.5 -137q-105 -2 -189.5 25t-148.5 83t-98.5 150t-34.5 219zM225 1313l353 61l264 -350h-291zM399 485q0 -73 9 -125.5t23.5 -82t37 -47t44 -22.5t50.5 -5q30 0 48 6t37.5 27.5 t28.5 71t9 128.5q0 90 -13 149t-38.5 87t-51.5 37.5t-63 9.5q-22 0 -37 -3.5t-32.5 -16.5t-27.5 -37.5t-17 -69t-7 -107.5z" />
<glyph unicode="&#xf3;" horiz-adv-x="1083" d="M39 442q0 236 146 377.5t382 141.5q230 0 355 -117t125 -365q0 -237 -147.5 -377t-389.5 -137q-105 -2 -189.5 25t-148.5 83t-98.5 150t-34.5 219zM279 1024l264 350l352 -61l-326 -289h-290zM399 485q0 -73 9 -125.5t23.5 -82t37 -47t44 -22.5t50.5 -5q30 0 48 6 t37.5 27.5t28.5 71t9 128.5q0 90 -13 149t-38.5 87t-51.5 37.5t-63 9.5q-22 0 -37 -3.5t-32.5 -16.5t-27.5 -37.5t-17 -69t-7 -107.5z" />
<glyph unicode="&#xf4;" horiz-adv-x="1083" d="M39 442q0 236 146 377.5t382 141.5q230 0 355 -117t125 -365q0 -237 -147.5 -377t-389.5 -137q-105 -2 -189.5 25t-148.5 83t-98.5 150t-34.5 219zM158 1024l231 350h328l235 -350h-252l-147 131l-147 -131h-248zM399 485q0 -73 9 -125.5t23.5 -82t37 -47t44 -22.5 t50.5 -5q30 0 48 6t37.5 27.5t28.5 71t9 128.5q0 90 -13 149t-38.5 87t-51.5 37.5t-63 9.5q-22 0 -37 -3.5t-32.5 -16.5t-27.5 -37.5t-17 -69t-7 -107.5z" />
<glyph unicode="&#xf5;" horiz-adv-x="1083" d="M39 442q0 236 146 377.5t382 141.5q230 0 355 -117t125 -365q0 -237 -147.5 -377t-389.5 -137q-105 -2 -189.5 25t-148.5 83t-98.5 150t-34.5 219zM178 1139q-3 0 41.5 49.5t106.5 99t100 49.5q46 0 143 -34.5t123 -34.5q62 0 150 100l116 -121q-19 -65 -111.5 -147 t-154.5 -82q-40 0 -145 33.5t-129 33.5q-34 0 -75.5 -34t-57.5 -56zM399 485q0 -73 9 -125.5t23.5 -82t37 -47t44 -22.5t50.5 -5q30 0 48 6t37.5 27.5t28.5 71t9 128.5q0 90 -13 149t-38.5 87t-51.5 37.5t-63 9.5q-22 0 -37 -3.5t-32.5 -16.5t-27.5 -37.5t-17 -69t-7 -107.5 z" />
<glyph unicode="&#xf6;" horiz-adv-x="1083" d="M39 442q0 236 146 377.5t382 141.5q230 0 355 -117t125 -365q0 -237 -147.5 -377t-389.5 -137q-105 -2 -189.5 25t-148.5 83t-98.5 150t-34.5 219zM162 1178q0 49 62 117.5t110 68.5q53 0 124.5 -57.5t71.5 -110.5q0 -46 -65 -113t-109 -67q-52 0 -123 56t-71 106z M399 485q0 -73 9 -125.5t23.5 -82t37 -47t44 -22.5t50.5 -5q30 0 48 6t37.5 27.5t28.5 71t9 128.5q0 90 -13 149t-38.5 87t-51.5 37.5t-63 9.5q-22 0 -37 -3.5t-32.5 -16.5t-27.5 -37.5t-17 -69t-7 -107.5zM571 1178q0 48 63 117t111 69q51 0 123 -57.5t72 -110.5 q0 -46 -64 -113t-108 -67q-54 0 -125.5 56t-71.5 106z" />
<glyph unicode="&#xf7;" d="M135 444v209h873v-209h-873zM395 188q0 68 53.5 124.5t114.5 56.5q65 0 128 -45.5t63 -106.5q0 -68 -55.5 -123t-118.5 -55q-67 0 -126 42.5t-59 106.5zM395 885q0 68 53.5 124t114.5 56t126 -46.5t65 -107.5q0 -67 -56 -122.5t-118 -55.5q-66 0 -125.5 43.5t-59.5 108.5 z" />
<glyph unicode="&#xf8;" horiz-adv-x="1083" d="M39 442q0 236 146 377.5t382 141.5q70 0 140 -13l65 123h180l-94 -178q189 -112 189 -414q0 -237 -147.5 -377t-389.5 -137q-81 0 -135 10l-64 -120h-182l94 180q-184 115 -184 407zM399 485q0 -54 7 -108l176 334q-27 8 -62 8q-22 0 -37 -3.5t-32.5 -16.5t-27.5 -37.5 t-17 -69t-7 -107.5zM500 213q25 -10 63 -10q30 0 48 6t37.5 27.5t28.5 71t9 128.5q0 74 -8 115z" />
<glyph unicode="&#xf9;" horiz-adv-x="1081" d="M80 248v665l354 48v-607q0 -46 11 -75.5t32.5 -41.5t38 -15t41.5 -3q21 0 52.5 8t41.5 17v669l355 48v-953l-242 -47l-72 84q-168 -84 -307 -84q-137 0 -221 69.5t-84 217.5zM252 1313l352 61l264 -350h-290z" />
<glyph unicode="&#xfa;" horiz-adv-x="1081" d="M80 248v665l354 48v-607q0 -46 11 -75.5t32.5 -41.5t38 -15t41.5 -3q21 0 52.5 8t41.5 17v669l355 48v-953l-242 -47l-72 84q-168 -84 -307 -84q-137 0 -221 69.5t-84 217.5zM301 1024l264 350l353 -61l-326 -289h-291z" />
<glyph unicode="&#xfb;" horiz-adv-x="1081" d="M80 248v665l354 48v-607q0 -46 11 -75.5t32.5 -41.5t38 -15t41.5 -3q21 0 52.5 8t41.5 17v669l355 48v-953l-242 -47l-72 84q-168 -84 -307 -84q-137 0 -221 69.5t-84 217.5zM203 1024l231 350h328l235 -350h-252l-147 131l-147 -131h-248z" />
<glyph unicode="&#xfc;" horiz-adv-x="1081" d="M80 248v665l354 48v-607q0 -46 11 -75.5t32.5 -41.5t38 -15t41.5 -3q21 0 52.5 8t41.5 17v669l355 48v-953l-242 -47l-72 84q-168 -84 -307 -84q-137 0 -221 69.5t-84 217.5zM184 1178q0 49 62 117.5t110 68.5q53 0 125 -57.5t72 -110.5q0 -46 -65 -113t-109 -67 q-52 0 -123.5 56t-71.5 106zM594 1178q0 48 63 117t111 69q51 0 123 -57.5t72 -110.5q0 -46 -64 -113t-108 -67q-54 0 -125.5 56t-71.5 106z" />
<glyph unicode="&#xfd;" horiz-adv-x="1013" d="M-23 903l371 43l174 -631q80 316 137 607h351q0 -1 -65 -250.5t-125 -461.5t-99 -316q-63 -193 -194.5 -290.5t-309.5 -97.5q-39 0 -91.5 7t-80.5 16l-10 266q163 -21 250 20.5t137 157.5q1 4 4 13.5t4 13.5h-164zM242 1024l264 350l352 -61l-326 -289h-290z" />
<glyph unicode="&#xfe;" horiz-adv-x="1101" d="M76 -492v1872l354 45v-536q145 74 258 72q81 -2 150 -31.5t123.5 -85.5t85 -148.5t30.5 -212.5q0 -102 -29.5 -189t-77.5 -147t-110.5 -103t-128 -63t-129.5 -20q-104 0 -172 8v-413zM430 236q74 -19 127 -19q80 0 120 57t40 191q0 68 -16.5 117.5t-45 75.5t-60 37.5 t-67.5 11.5q-49 0 -98 -19v-452z" />
<glyph unicode="&#xff;" horiz-adv-x="1013" d="M-23 903l371 43l174 -631q80 316 137 607h351q0 -1 -65 -250.5t-125 -461.5t-99 -316q-63 -193 -194.5 -290.5t-309.5 -97.5q-39 0 -91.5 7t-80.5 16l-10 266q163 -21 250 20.5t137 157.5q1 4 4 13.5t4 13.5h-164zM119 1178q0 49 62 117.5t110 68.5q53 0 124.5 -57.5 t71.5 -110.5q0 -46 -65 -113t-109 -67q-52 0 -123 56t-71 106zM528 1178q0 48 63 117t111 69q51 0 123 -57.5t72 -110.5q0 -46 -64 -113t-108 -67q-54 0 -125.5 56t-71.5 106z" />
<glyph unicode="&#x152;" horiz-adv-x="1781" d="M51 602q0 317 194.5 503.5t514.5 186.5q118 0 254 -39h698l-31 -270l-424 4v-225h400l-21 -254l-379 4v-242l488 6l-31 -276h-768q-136 -39 -295 -39q-275 0 -437.5 171.5t-162.5 469.5zM430 659q0 -123 23 -209t67.5 -134.5t99.5 -69.5t128 -21q85 0 143 51v662 q-75 90 -221 90q-240 0 -240 -369z" />
<glyph unicode="&#x153;" horiz-adv-x="1630" d="M39 442q0 236 146 377.5t382 141.5q202 0 324 -91q128 91 303 91q96 0 167 -25.5t111 -65t63.5 -99t30.5 -113.5t7 -123q0 -76 -12 -146h-506q31 -164 188 -164q126 0 287 56l51 -228q-177 -92 -418 -92q-190 0 -313 100q-138 -99 -340 -96q-105 -2 -189.5 25t-148.5 83 t-98.5 150t-34.5 219zM399 485q0 -73 9 -125.5t23.5 -82t37 -47t44 -22.5t50.5 -5q30 0 48 6t37.5 27.5t28.5 71t9 128.5q0 90 -13 149t-38.5 87t-51.5 37.5t-63 9.5q-22 0 -37 -3.5t-32.5 -16.5t-27.5 -37.5t-17 -69t-7 -107.5zM1051 586h209q0 77 -31.5 117t-85.5 40 q-44 0 -65 -34t-27 -123z" />
<glyph unicode="&#x178;" horiz-adv-x="1159" d="M-41 1253h399l240 -465l242 465h356l-438 -825v-428h-365v428zM231 1485q0 49 62 117.5t110 68.5q53 0 125 -57.5t72 -110.5q0 -46 -65 -113t-109 -67q-52 0 -123.5 56t-71.5 106zM641 1485q0 48 63 117t111 69q51 0 123 -57.5t72 -110.5q0 -46 -64 -113t-108 -67 q-54 0 -125.5 56t-71.5 106z" />
<glyph unicode="&#x2c6;" horiz-adv-x="1009" d="M106 1024l232 350h328l235 -350h-252l-147 131l-148 -131h-248z" />
<glyph unicode="&#x2dc;" horiz-adv-x="1081" d="M147 1139q-3 0 41.5 49.5t106.5 99t100 49.5q46 0 143.5 -34.5t123.5 -34.5q61 0 149 100l117 -121q-19 -65 -111.5 -147t-154.5 -82q-40 0 -145.5 33.5t-129.5 33.5q-34 0 -75.5 -34t-57.5 -56z" />
<glyph unicode="&#x2000;" horiz-adv-x="881" />
<glyph unicode="&#x2001;" horiz-adv-x="1763" />
<glyph unicode="&#x2002;" horiz-adv-x="881" />
<glyph unicode="&#x2003;" horiz-adv-x="1763" />
<glyph unicode="&#x2004;" horiz-adv-x="587" />
<glyph unicode="&#x2005;" horiz-adv-x="440" />
<glyph unicode="&#x2006;" horiz-adv-x="293" />
<glyph unicode="&#x2007;" horiz-adv-x="293" />
<glyph unicode="&#x2008;" horiz-adv-x="220" />
<glyph unicode="&#x2009;" horiz-adv-x="352" />
<glyph unicode="&#x200a;" horiz-adv-x="97" />
<glyph unicode="&#x2010;" horiz-adv-x="731" d="M70 391v58l77 159h515v-57l-58 -160h-534z" />
<glyph unicode="&#x2011;" horiz-adv-x="731" d="M70 391v58l77 159h515v-57l-58 -160h-534z" />
<glyph unicode="&#x2012;" horiz-adv-x="731" d="M70 391v58l77 159h515v-57l-58 -160h-534z" />
<glyph unicode="&#x2013;" horiz-adv-x="940" d="M70 391v58l77 163h723v-57l-55 -164h-745z" />
<glyph unicode="&#x2014;" horiz-adv-x="1398" d="M70 391v58l77 163h1182v-57l-57 -164h-1202z" />
<glyph unicode="&#x2018;" horiz-adv-x="503" d="M63 1042q0 58 48.5 166t152.5 256l176 -65q-8 -15 -25 -46t-23.5 -43t-19 -36t-17 -35.5t-12 -30t-10 -31.5t-5 -28.5t-2.5 -30.5t27.5 -38t55 -50t27.5 -51q0 -60 -54.5 -110t-113.5 -50q-67 0 -136 66.5t-69 156.5z" />
<glyph unicode="&#x2019;" horiz-adv-x="503" d="M63 842q10 18 28.5 52t26 48t20.5 39t18 39t11.5 33t8.5 35.5t2 33.5q0 15 -28 38t-56 50t-28 52q0 60 55.5 109.5t114.5 49.5q67 0 135.5 -66.5t68.5 -156.5q0 -58 -48 -166t-152 -256z" />
<glyph unicode="&#x201a;" horiz-adv-x="503" d="M63 -248q9 17 28.5 52t26.5 48.5t20 39.5t18 39t11.5 32.5t8.5 36t2 33.5q0 15 -28 37.5t-56 49.5t-28 52q0 60 55.5 110t114.5 50q67 0 135.5 -66.5t68.5 -156.5q0 -58 -48 -166t-152 -256z" />
<glyph unicode="&#x201c;" horiz-adv-x="925" d="M63 1042q0 58 48.5 166t152.5 256l176 -65q-8 -15 -25 -46t-23.5 -43t-19 -36t-17 -35.5t-12 -30t-10 -31.5t-5 -28.5t-2.5 -30.5t27.5 -38t55 -50t27.5 -51q0 -60 -54.5 -110t-113.5 -50q-67 0 -136 66.5t-69 156.5zM485 1042q0 58 48.5 166t152.5 256l176 -65 q-8 -15 -25 -46t-23.5 -43t-19 -36t-17 -35.5t-12 -30t-10 -31.5t-5 -28.5t-2.5 -30.5t27.5 -38t55 -50t27.5 -51q0 -60 -54.5 -110t-113.5 -50q-67 0 -136 66.5t-69 156.5z" />
<glyph unicode="&#x201d;" horiz-adv-x="935" d="M63 842q10 18 28.5 52t26 48t20.5 39t18 39t11.5 33t8.5 35.5t2 33.5q0 15 -28 38t-56 50t-28 52q0 60 55.5 109.5t114.5 49.5q67 0 135.5 -66.5t68.5 -156.5q0 -58 -48 -166t-152 -256zM498 842q8 16 28 52t26.5 48t20 39t18 39.5t11 32.5t8.5 36t2 33q0 15 -28 38 t-56 50t-28 52q0 60 55.5 109.5t114.5 49.5q67 0 135.5 -66.5t68.5 -156.5q0 -58 -48 -166t-152 -256z" />
<glyph unicode="&#x201e;" horiz-adv-x="931" d="M63 -248q9 17 28.5 52t26.5 48.5t20 39.5t18 39t11.5 32.5t8.5 36t2 33.5q0 15 -28 37.5t-56 49.5t-28 52q0 60 55.5 110t114.5 50q67 0 135.5 -66.5t68.5 -156.5q0 -58 -48 -166t-152 -256zM492 -248q8 15 25 46t23.5 43t19 36t17 35.5t12 30t10 31.5t5 28.5t2.5 30.5 t-28 37.5t-56 49.5t-28 52q0 60 55.5 110t114.5 50q67 0 135.5 -66.5t68.5 -156.5q0 -58 -48 -166t-152 -256z" />
<glyph unicode="&#x2022;" horiz-adv-x="1040" d="M197 516q0 44 33 104t80 110.5t100.5 86t91.5 35.5q52 0 132 -44.5t144 -114.5t64 -130q0 -45 -33.5 -104.5t-80.5 -109.5t-100 -85t-89 -35q-55 0 -135.5 44.5t-143.5 113.5t-63 129z" />
<glyph unicode="&#x2026;" horiz-adv-x="1458" d="M39 78q0 53 74.5 125.5t128.5 72.5t138.5 -60t84.5 -112q0 -51 -76 -123.5t-125 -72.5q-57 0 -141 60t-84 110zM518 78q0 53 74.5 125.5t128.5 72.5t137.5 -60t83.5 -112q0 -51 -76 -123.5t-125 -72.5q-56 0 -139.5 60t-83.5 110zM993 78q0 53 74.5 125.5t128.5 72.5 t138.5 -60t84.5 -112q0 -51 -76.5 -123.5t-125.5 -72.5q-56 0 -140 60t-84 110z" />
<glyph unicode="&#x202f;" horiz-adv-x="352" />
<glyph unicode="&#x2039;" horiz-adv-x="679" d="M25 475l368 471l209 -92l-205 -379l205 -379l-209 -92z" />
<glyph unicode="&#x203a;" horiz-adv-x="679" d="M78 92l205 383l-205 373l209 98l368 -471l-368 -471z" />
<glyph unicode="&#x205f;" horiz-adv-x="440" />
<glyph unicode="&#x20ac;" d="M4 371l49 174l94 35v24v53h-129l43 174l82 39h29q17 74 44.5 135t74 115.5t109.5 91.5t152.5 58.5t199.5 21.5q177 0 340 -49l-60 -293q-57 18 -88 26.5t-96 18t-135 9.5q-82 0 -121.5 -29.5t-54.5 -104.5h397l-57 -213h-355v-10q0 -45 2 -65h340l-57 -211h-229 q65 -111 198 -111q79 0 159.5 16t117.5 31l34 -262q-60 -35 -174 -59.5t-241 -24.5q-204 0 -331 103t-171 307h-166z" />
<glyph unicode="&#x25fc;" horiz-adv-x="942" d="M0 0v942h942v-942h-942z" />
</font>
</defs>
</svg>
