<?xml version="1.0" standalone="no"?>
<!DOCTYPE svg PUBLIC "-//W3C//DTD SVG 1.1//EN" "http://www.w3.org/Graphics/SVG/1.1/DTD/svg11.dtd" >
<svg xmlns="http://www.w3.org/2000/svg">
<metadata></metadata>
<defs>
<font id="ancizar_seriflight_italic" horiz-adv-x="987" >
<font-face units-per-em="2048" ascent="1536" descent="-512" />
<missing-glyph horiz-adv-x="456" />
<glyph unicode="&#xfb01;" d="M-164 -393l8 53q105 -10 127 -10q90 0 138 67t65 236l43 907h-104l6 62h102v14q10 114 58 206t113 148t145 93.5t149.5 52t130.5 14.5l27 -47l-10 -53q-4 0 -33 -2t-62 -2q-101 0 -165.5 -14t-115 -54t-77 -112t-37.5 -187l-2 -57h289l129 8l57 12h25l-29 -133l-53 -672 h141l-4 -31l-203 -110l-55 29l51 817l-147 18h-205l-39 -854q-11 -122 -52 -215.5t-102.5 -147.5t-132.5 -81t-151 -27z" />
<glyph unicode="&#xfb02;" horiz-adv-x="1038" d="M-164 -393l8 53q105 -10 127 -10q90 0 138 67t65 236l45 907h-106l6 62h104l2 57q6 119 49.5 212.5t109.5 148t142 82.5t156 28q18 0 104 -14l35 65l33 -6l-94 -1286q-3 -54 11 -82.5t54 -28.5q23 0 40 5t52.5 32.5t81.5 81.5l23 -39q-103 -125 -149.5 -161.5 t-94.5 -36.5q-60 0 -98.5 53.5t-32.5 144.5l74 1137l4 8q-102 12 -147 12q-63 0 -104.5 -18.5t-66.5 -60t-37.5 -93t-19.5 -131.5l-6 -110h96l154 10l8 -78l-172 6h-88l-43 -854q-11 -122 -52 -215.5t-102.5 -147.5t-132.5 -81t-151 -27z" />
<glyph unicode="&#xfb03;" horiz-adv-x="1462" d="M-164 -393l8 53q105 -10 127 -10q92 0 143 68.5t60 234.5l45 907h-106l6 62h102q9 138 96 244.5t217 160t279 53.5l25 -47l-9 -53q-33 0 -71 -4t-43 -4q-200 0 -281 -64.5t-88 -234.5l-2 -51h354v14q9 102 56.5 190t114 146t145.5 99.5t151 60t131 18.5l25 -47l-8 -53 q-6 0 -34 -2t-60 -2q-81 0 -137 -9t-104 -32t-77.5 -64.5t-49 -105.5t-28.5 -156l-2 -57h275l143 10l53 10h25l-29 -133l-53 -672h141l-4 -31l-203 -110l-55 29l51 817l-147 18h-201l-41 -854q-10 -122 -51 -215.5t-102 -147.5t-133 -81t-152 -27l-25 64l11 53 q28 -3 50 -3.5t44.5 0.5t30.5 1q91 0 139.5 67t62.5 236l43 907h-354l-41 -854q-6 -122 -46 -215.5t-103 -147.5t-136 -81t-153 -27z" />
<glyph unicode="&#xfb04;" horiz-adv-x="1513" d="M-164 -393l8 53q105 -10 127 -10q92 0 143 68.5t60 234.5l45 907h-106l6 62h102q9 138 96 244.5t217 160t279 53.5l29 -55l-6 -22q66 71 151 109t170 38q33 0 111 -16l32 69l27 -2l-92 -1292q-3 -58 9 -88.5t50 -30.5q33 0 73.5 25t105.5 102l24 -39 q-100 -120 -154.5 -159t-105.5 -39q-57 0 -90 52.5t-27 145.5l72 1096l22 47q-93 14 -163 14q-63 0 -104.5 -18.5t-66 -60t-36.5 -93t-19 -131.5l-6 -110h96l154 10l8 -78l-172 6h-88l-45 -854q-10 -122 -51 -215.5t-102 -147.5t-133 -81t-152 -27l-25 72l10 53 q105 -10 125 -10q91 0 138.5 67t64.5 236l47 907h-354l-41 -854q-6 -122 -46 -215.5t-103 -147.5t-136 -81t-153 -27zM344 922h354l2 57q8 169 115 301q-27 -1 -60 -4.5t-40 -3.5q-200 0 -281 -64.5t-88 -234.5z" />
<glyph horiz-adv-x="0" />
<glyph horiz-adv-x="682" />
<glyph unicode=" "  horiz-adv-x="456" />
<glyph unicode="&#x09;" horiz-adv-x="456" />
<glyph unicode="&#xa0;" horiz-adv-x="456" />
<glyph unicode="!" horiz-adv-x="538" d="M98 70q4 27 39 61.5t56 34.5q25 0 60.5 -32t31.5 -60q-3 -28 -41.5 -61t-61.5 -33q-25 0 -56 31t-28 59zM186 315q39 419 29 940l164 64l-123 -961z" />
<glyph unicode="&#x22;" horiz-adv-x="534" d="M174 1419h105l-76 -415zM416 1419h106l-84 -407v-8h-2l2 8z" />
<glyph unicode="#" horiz-adv-x="1019" d="M37 420l2 31l4 8h213l88 297h-225l2 30l2 9h233l138 458h49l-137 -458h272l137 458h49l-137 -458h186l-6 -31l-2 -8h-190l-90 -297h209l-3 -31l-6 -8h-211l-127 -420h-49l127 420h-272l-127 -420h-47l125 420h-207zM303 459h272l91 297h-273z" />
<glyph unicode="$" d="M68 16l57 226h68l61 -152q63 -16 168 -16q111 0 171 45t69 155q6 79 -17.5 139t-64.5 98.5t-109 76.5l-98 57q-109 65 -162 142t-45 192q9 111 98 190t234 99l4 237h94l-57 -233q14 2 47 2q153 0 237 -37l-51 -215h-57l-92 160q-33 14 -127 14q-101 0 -150.5 -44.5 t-58.5 -135.5q-13 -191 178 -297l96 -57q119 -71 174 -146t49 -186q-5 -89 -57.5 -165t-133.5 -122t-175 -59l-2 -271h-84l43 267h-17q-168 0 -290 36z" />
<glyph unicode="%" horiz-adv-x="1228" d="M66 0l1009 1253h80l-1010 -1253h-79zM227 969q18 145 86 224t148 79q85 0 127 -77t30 -206q-16 -143 -83 -221t-152 -78q-81 0 -126 78t-30 201zM309 1040q-16 -147 15.5 -222t91.5 -75q57 0 84.5 35.5t36.5 116.5q16 167 -14 245.5t-91 78.5q-59 0 -85.5 -39t-37.5 -140 zM598 258q18 145 85.5 224t147.5 79q86 0 129 -77t29 -205q-16 -144 -82 -221.5t-151 -77.5q-81 0 -126 77t-32 201zM680 330q-16 -148 16 -223.5t92 -75.5q57 0 83.5 35.5t35.5 115.5q16 169 -13 247.5t-89 78.5t-87 -39t-38 -139z" />
<glyph unicode="&#x26;" horiz-adv-x="1153" d="M61 260q10 112 84 201t217 182q-69 83 -104 153.5t-31 149.5q6 121 117 224.5t227 103.5q130 0 217 -53l-36 -131l-11 -13q-173 105 -313 105q-45 0 -81 -44t-42 -102q-3 -47 12 -95.5t55 -107.5t71 -98t97 -114.5t95 -110.5q116 -140 176 -223q57 75 89 164t32 174 q0 103 -44.5 148t-135.5 36l2 31l194 82q88 0 88 -185q0 -274 -194 -495q149 -215 149 -361q0 -37 -32 -100t-101 -141l-22 16q65 68 65 164q0 110 -151 330q-94 -80 -197 -125t-182 -45q-135 0 -225.5 80t-84.5 200zM180 350q-9 -106 74.5 -188t204.5 -82q136 0 264 108 q-67 94 -184 244q-45 61 -148 176q-113 -64 -159.5 -126.5t-51.5 -131.5z" />
<glyph unicode="'" horiz-adv-x="401" d="M174 1419h105l-76 -415z" />
<glyph unicode="(" horiz-adv-x="567" d="M98 598q22 316 151 530t324 312l23 -45q-168 -92 -290 -310t-142 -487q-20 -270 72.5 -488.5t250.5 -310.5l-32 -45q-181 98 -280 313t-77 531z" />
<glyph unicode=")" horiz-adv-x="567" d="M-70 -201q168 92 290 310t142 487q20 270 -72.5 488.5t-250.5 310.5l33 45q181 -98 279.5 -313t76.5 -531t-151 -530t-324 -312z" />
<glyph unicode="*" horiz-adv-x="706" d="M78 860q45 51 116 96t142 56h4q-44 -30 -69.5 -50t-65 -59t-76.5 -88zM82 1139l14 65q64 -5 131 -40.5t109 -94.5l6 -2h-4l-2 2q-43 20 -71 31t-77.5 22.5t-105.5 16.5zM332 1366l63 23q20 -50 19 -136.5t-29 -160.5l-4 2q-4 143 -49 272zM343.5 829.5 q2.5 86.5 31.5 159.5l4 -2q4 -148 45 -272l-66 -21q-17 49 -14.5 135.5zM420 1016q54 -22 77 -30.5t76.5 -21.5t108.5 -18l-14 -65q-61 5 -130 40t-116 93zM420 1069q64 43 112 86t101 115l45 -45q-41 -51 -111.5 -97t-140.5 -59h-6z" />
<glyph unicode="+" d="M109 514l4 51h352l27 367h61l-27 -367h355l-4 -51h-355l-26 -379h-62l27 379h-352z" />
<glyph unicode="," horiz-adv-x="477" d="M129 -266q46 68 75 128t29 89q-3 33 -29.5 67.5t-27.5 55.5q3 31 34 66.5t54 35.5q29 0 66.5 -40t34.5 -87q-7 -148 -209 -340z" />
<glyph unicode="-" horiz-adv-x="595" d="M141 492l2 30l33 37h377l-2 -31l-31 -36h-379z" />
<glyph unicode="." horiz-adv-x="477" d="M164 70q3 30 38.5 69t57.5 39q27 0 63 -32t33 -60q-3 -30 -39 -68t-61 -38q-23 0 -57.5 30.5t-34.5 59.5z" />
<glyph unicode="/" horiz-adv-x="577" d="M41 -225l496 1644h57l-498 -1644h-55z" />
<glyph unicode="0" d="M82 594q51 680 493 680q100 0 169.5 -45t107 -128.5t50.5 -193t3 -248.5q-24 -333 -142.5 -506t-334.5 -173q-187 0 -276.5 160t-69.5 454zM207 684q-19 -298 52 -450.5t245 -149.5q137 -3 202 118t78 412q15 283 -56.5 422.5t-240.5 139.5q-135 0 -199 -113.5 t-81 -378.5z" />
<glyph unicode="1" d="M160 0l2 31l262 88l86 1050l-254 -122l-20 106l335 100h72l-90 -1134l190 -92l-2 -27h-581z" />
<glyph unicode="2" d="M43 0v47q108 122 225.5 250t175 190t116.5 131t83 109t40 84.5t19 95.5q11 114 -53.5 192.5t-175.5 78.5q-49 0 -72 -9l-172 -256h-55l57 263q106 46 172.5 68.5t90 26t57.5 3.5q142 0 223.5 -97.5t73.5 -238.5q-4 -57 -24.5 -109t-49.5 -96.5t-89.5 -110.5t-118 -123.5 t-162.5 -164.5t-199 -207h510l135 192h43l-86 -319h-764z" />
<glyph unicode="3" d="M76 8l43 142h37l125 -115q227 3 326 69t110 218q3 54 -14 102.5t-55 88.5t-106 63.5t-159 23.5q-61 0 -96 -4l32 84q54 -8 109 -8q121 0 197.5 62t83.5 169q10 148 -60 221.5t-190 73.5q-32 0 -70 -6l-166 -213h-55l43 197q152 62 217.5 80t138.5 18q123 0 210.5 -85 t76.5 -231q-14 -208 -272 -299q306 -66 290 -323q-8 -139 -168.5 -247.5t-367.5 -108.5q-143 0 -258 28h-2z" />
<glyph unicode="4" d="M-20 246l2 26l735 1002h59l-63 -914h260l-41 -114h-227l-17 -246h-139l16 246h-585zM129 360h444l48 666z" />
<glyph unicode="5" d="M49 4l6 8l37 138h35l117 -115q223 1 325 69t111 207q5 57 -3 104t-35.5 90.5t-75.5 73t-128 47t-188 17.5v2l-76 -20l80 600l39 28h524l64 60h41l-48 -183h-561l-51 -401q14 1 39 4.5t31 3.5q276 0 394 -92.5t108 -255.5q-9 -122 -82.5 -215.5t-193 -143.5t-265.5 -50 q-118 0 -244 24z" />
<glyph unicode="6" d="M115 530q13 194 59.5 339t119.5 232.5t164 130t201 42.5q135 0 228 -41l-58 -252h-41l-90 211q-19 6 -77 6q-69 0 -120 -14t-98.5 -53.5t-80 -106.5t-56 -176t-35.5 -260q0 -5 -1 -14.5t-1 -14.5q76 59 167 93t177 34q137 0 226 -82.5t80 -214.5q-7 -82 -39.5 -151.5 t-77.5 -116t-99.5 -79.5t-106.5 -47.5t-97 -14.5q-129 0 -212 72.5t-114 193.5t-18 284zM229 489q3 -193 83.5 -308t207.5 -115q105 0 166 59.5t68 200.5q6 129 -66 198.5t-184 69.5q-62 0 -141 -30.5t-134 -74.5z" />
<glyph unicode="7" d="M147 967l64 286h698v-36l-583 -1217h-111l2 35l582 1091h-482l-127 -159h-43z" />
<glyph unicode="8" d="M100 281q21 226 328 389q-121 74 -178.5 148t-50.5 173q11 105 126 195t250 90q132 0 221.5 -72t75.5 -196q-3 -32 -13 -61.5t-20 -51t-33.5 -48t-37.5 -41.5t-49 -42t-51 -39t-60 -43q81 -49 128 -83.5t83 -76.5t48 -87t7 -105q-6 -88 -68 -169.5t-163 -132.5t-211 -51 q-155 0 -250 86.5t-82 217.5zM240 332q-6 -65 15 -117.5t60.5 -84t88 -48t100.5 -16.5q106 0 170 48.5t74 170.5q6 76 -20 133t-81.5 105t-161.5 112l4 -6q-122 -58 -181.5 -135t-67.5 -162zM330 1016q-6 -83 45 -152t176 -147q173 100 190 248q11 112 -56.5 177.5 t-166.5 65.5q-82 0 -130.5 -52t-57.5 -140z" />
<glyph unicode="9" d="M113 0v45q1 -1 4 -2t4 -2l22 106h41l92 -108q89 11 165.5 48.5t142.5 105t109 176t55 247.5q-58 -43 -142 -69.5t-178 -26.5q-149 0 -227 92.5t-66 249.5q7 95 47.5 175.5t99 131t124.5 78t129 27.5q58 0 109 -17t97 -58t77.5 -103t46 -158t5.5 -217q-11 -157 -52.5 -285 t-102.5 -211.5t-139.5 -139.5t-159.5 -80.5t-166 -24.5q-61 0 -137 20zM260 885q-9 -133 53 -209t174 -76q70 0 143.5 23.5t121.5 64.5q9 239 -60 369.5t-213 130.5q-100 0 -154.5 -68.5t-64.5 -234.5z" />
<glyph unicode=":" horiz-adv-x="477" d="M164 70q3 30 38.5 69t57.5 39q27 0 63 -32t33 -60q-3 -30 -39 -68t-61 -38q-23 0 -57.5 30.5t-34.5 59.5zM203 643q3 30 38.5 69.5t57.5 39.5q27 0 63 -32.5t33 -60.5q-3 -30 -39 -68t-61 -38q-23 0 -57.5 30.5t-34.5 59.5z" />
<glyph unicode=";" horiz-adv-x="477" d="M129 -266q46 68 75 128t29 89q-3 33 -29.5 67.5t-27.5 55.5q3 31 34 66.5t54 35.5q29 0 66.5 -40t34.5 -87q-7 -148 -209 -340zM203 643q3 30 38.5 69.5t57.5 39.5q27 0 63 -32.5t33 -60.5q-3 -30 -39 -68t-61 -38q-23 0 -57.5 30.5t-34.5 59.5z" />
<glyph unicode="&#x3c;" d="M135 516l2 25l690 450l37 -51l-631 -410l570 -413l-39 -51z" />
<glyph unicode="=" d="M127 393l2 51h668l-4 -51h-666zM139 604l4 51h666l-2 -51h-668z" />
<glyph unicode="&#x3e;" d="M174 121l631 409l-569 414l38 51l629 -450l-2 -25l-690 -450z" />
<glyph unicode="?" horiz-adv-x="788" d="M80 897l65 285q52 19 108 41t78 30.5t47 14.5t50 6q152 0 236 -78t75 -201q-4 -61 -24 -112t-49 -87t-63.5 -66.5t-69 -57t-63 -52t-47 -57t-20.5 -67.5q-2 -28 5.5 -51t17.5 -41t12 -27l-96 -43l-9 14q-9 13 -15 23t-13.5 25.5t-11 31t-2.5 29.5q3 44 25 83t53.5 66 t68.5 61t68.5 67.5t54.5 86t27 115.5q8 100 -60 165.5t-182 65.5q-57 0 -72 -10l-163 -260h-31zM242 70q3 27 39.5 61.5t58.5 34.5q25 0 62.5 -32t33.5 -60q0 -27 -37 -60.5t-59 -33.5q-25 0 -62 31t-36 59z" />
<glyph unicode="@" horiz-adv-x="1439" d="M61 397q16 222 89 406t183.5 304.5t251 186.5t294.5 66q263 0 405.5 -150.5t122.5 -431.5q-18 -249 -159 -418.5t-376 -263.5v275l2 24q-77 -129 -161.5 -206.5t-137.5 -77.5q-71 0 -102.5 84.5t-19.5 250.5q17 234 127 374.5t270 140.5q90 0 160 -37l-52 -727 q141 74 231.5 208.5t102.5 311.5q17 249 -104 388.5t-359 139.5q-284 0 -456 -192t-197 -549q-11 -149 13 -270t73.5 -201t121.5 -133.5t153.5 -77t173.5 -23.5q162 0 376 86l13 -41q-180 -95 -287.5 -124t-230.5 -29q-70 0 -143.5 25t-146 81t-127 135.5t-84 200.5 t-20.5 264zM563 526q-11 -170 4.5 -240.5t73.5 -70.5q69 0 152.5 122t99.5 316l12 176q-67 23 -155 23q-66 0 -99.5 -22.5t-54.5 -92t-33 -211.5z" />
<glyph unicode="A" horiz-adv-x="1140" d="M-49 0l2 31l125 88l198 438v10h5l301 666l90 51l323 -1167l115 -86l-2 -31h-461l2 31l185 88h4l-99 381h-407l-154 -381l146 -88l-2 -31h-371zM360 567h361l-141 547z" />
<glyph unicode="B" horiz-adv-x="999" d="M43 0l2 31l152 88l69 1016l-139 90l2 28h420q165 -1 259 -89q85 -81 86 -195q0 -11 -1 -23q-6 -101 -62 -168t-169 -106q116 -29 188 -114q66 -77 66 -180q0 -10 -1 -20q-12 -164 -138.5 -261t-319.5 -97q-142 0 -154 -2v2h-260zM326 82q107 -21 168 -21q135 0 201.5 55 t74.5 171q1 15 1 29q-1 69 -17 123q-20 66 -58 105t-88.5 58t-111.5 19q-50 0 -136 -11zM367 700q55 -22 153 -22q117 0 174.5 58.5t65.5 150.5q2 20 2 39q0 116 -64 182q-74 78 -202 78q-27 0 -57.5 -1t-37.5 -1z" />
<glyph unicode="C" horiz-adv-x="1132" d="M152 653q9 141 62 259.5t134.5 196.5t184.5 121.5t215 43.5q148 0 253 -55l-59 -220h-41l-108 170q-23 5 -115 5q-211 0 -299.5 -109t-108.5 -385q-3 -39 -2 -75q0 -107 22 -199q30 -122 88 -196.5t133 -113.5t161 -39q43 0 84 13l170 227l45 -2l-62 -238 q-88 -42 -162.5 -59.5t-160.5 -17.5q-212 0 -334 174q-103 147 -103 403q0 46 3 96z" />
<glyph unicode="D" horiz-adv-x="1220" d="M43 0l2 31l152 88l69 1016l-139 90l2 28h416q139 0 245 -37.5t179 -112.5t105 -195q24 -89 25 -200q0 -37 -3 -77q-45 -631 -643 -631h-410zM328 106q107 -30 231 -30q88 0 156 25.5t121.5 81t86.5 149.5t44 225q4 46 4 89q1 244 -121 380q-142 160 -399 160h-50z" />
<glyph unicode="E" horiz-adv-x="997" d="M57 0l2 31l150 88l70 1016l-138 90l2 28h805l-59 -254h-45l-84 187h-344l-35 -508h123l272 16l-20 -96l-250 27h-129l-39 -557h348l-2 -29l184 244h45l-73 -283h-783z" />
<glyph unicode="F" horiz-adv-x="927" d="M57 0l2 31l150 88l70 1016l-138 90l2 28h781l-58 -243h-45l-84 176h-321l-37 -529h119l264 17l-25 -96l-237 26h-125l-33 -485l176 -92l-2 -27h-459z" />
<glyph unicode="G" horiz-adv-x="1173" d="M152 653q8 139 59.5 257t131 197t181 123t211.5 44q114 0 167.5 -15.5t123.5 -56.5l-51 -203h-43l-92 152q-59 23 -166 23q-113 0 -186.5 -26.5t-119 -89.5t-67 -151.5t-31.5 -228.5q-3 -46 -3 -90q0 -229 93 -366q112 -163 310 -163q94 0 174 31l24 350l-131 90l2 29 h394v-31l-138 -88l-26 -385q-86 -38 -167 -56.5t-198 -18.5q-238 0 -356 169q-100 142 -100 399q0 51 4 105z" />
<glyph unicode="H" horiz-adv-x="1294" d="M43 0v31l154 88l69 1016l-141 90l4 28h422l-6 -30l-148 -88l-30 -451h569l31 451l-144 90l6 28h420l-6 -30l-147 -88l-70 -1016l135 -92l2 -27h-420l-2 31l156 88l35 506h-570l-34 -506l135 -92l2 -27h-422z" />
<glyph unicode="I" horiz-adv-x="598" d="M43 0v31l154 88l69 1016l-141 90l4 28h422l-6 -30l-148 -88l-69 -1016l135 -92l2 -27h-422z" />
<glyph unicode="J" horiz-adv-x="692" d="M-33 2l47 193h45l86 -166q79 16 128.5 64t56.5 151l61 891l-174 90l2 28h453l-2 -30l-152 -88l-57 -834q-5 -78 -37.5 -140.5t-82.5 -101t-112 -59t-129 -20.5q-83 0 -133 22z" />
<glyph unicode="K" horiz-adv-x="1189" d="M43 0l2 31l152 88l69 1016l-139 90l2 28h422l-2 -30l-152 -88l-69 -1016l139 -92l-2 -27h-422zM375 700l516 441l-127 82l2 30h346l-2 -30l-139 -88l-482 -430l17 6q344 -503 482 -609q5 -4 7 -6q51 -31 132 -31q12 0 24 1v-46q-82 -40 -174 -40q-62 0 -122.5 45.5 t-165.5 189.5t-275 422l-19 -16z" />
<glyph unicode="L" horiz-adv-x="964" d="M57 0l2 31l150 88l70 1016l-138 90l2 28h459l-2 -30l-188 -88l-74 -1067h360v-13l189 240h45l-78 -295h-797z" />
<glyph unicode="M" horiz-adv-x="1622" d="M31 0l2 31l149 88l142 1016l-138 90l2 28h287l311 -1003l486 1003h293l-2 -30l-152 -88l-14 -1016l139 -92l-2 -27h-418l2 31l152 88l16 975l-493 -1002l-78 -47l-328 1042l-127 -968l139 -92l-2 -27h-366z" />
<glyph unicode="N" horiz-adv-x="1290" d="M66 0l2 31l149 88l70 1016l-137 90l2 28h251l553 -964l62 846l-133 92l2 26h362l-2 -30l-149 -88l-80 -1137h-60l-598 1042l-63 -921l139 -92l-2 -27h-368z" />
<glyph unicode="O" horiz-adv-x="1271" d="M157 377q-8 57 -8 122q0 82 13 177q20 135 76 250t131.5 190t164 116.5t175.5 41.5q104 0 187 -45.5t137.5 -133.5t73.5 -218q8 -57 9 -122q0 -82 -14 -177q-20 -135 -76 -250t-131.5 -190t-164 -116.5t-175.5 -41.5q-104 0 -187 45.5t-137.5 133.5t-73.5 218zM274 480 q10 -100 40 -173.5t75.5 -123t101 -73.5t117.5 -24q174 0 259 102.5t118 360.5q9 72 9 137q0 72 -11 135q-20 120 -69.5 194.5t-118 113t-150.5 38.5q-167 0 -250 -102t-116 -360q-9 -74 -8 -138q-1 -46 3 -87z" />
<glyph unicode="P" horiz-adv-x="995" d="M55 31l154 88l70 1016l-142 90l6 28h392q217 -1 319 -87q92 -78 92 -191q0 -12 -2 -25q-8 -86 -54 -161t-111 -123.5t-139.5 -76.5t-143.5 -28q-42 0 -123 6l-31 -448l176 -92l2 -27h-463zM379 643q77 -6 164 -6q114 0 177 63t77 179q3 22 3 42q0 37 -8 70 q-12 52 -47.5 97t-106.5 71.5t-171 26.5h-51z" />
<glyph unicode="Q" horiz-adv-x="1271" d="M157 377q-8 57 -8 122q0 83 13 177q20 135 76 250t131.5 190t164 116.5t175.5 41.5q104 0 187 -45.5t137.5 -133.5t73.5 -218q8 -57 8 -122q0 -83 -13 -177q-22 -154 -90 -278t-164 -204h4q-143 -125 -330 -202q70 -13 172.5 -41t176.5 -47t102 -19q104 0 198 55l7 -26 q-105 -97 -156 -127.5t-111 -30.5q-55 0 -159 45t-201 86q-81 34 -127 34q-8 0 -16 -1q-6 -4 -19 -10q-109 -62 -140 -66q-39 3 -42 49q0 44 12.5 64t60 31t150.5 12q80 39 135 78h-10q-104 0 -187 45.5t-137.5 133.5t-73.5 218zM274 480q11 -99 40.5 -173t75 -123.5 t101 -73.5t117.5 -24q46 0 86 6l4 6h23q114 28 175 132.5t89 318.5q9 72 9 137q0 72 -11 135q-20 120 -69.5 194.5t-118 113t-150.5 38.5q-167 0 -250 -102t-116 -360q-9 -74 -9 -138q0 -46 4 -87z" />
<glyph unicode="R" horiz-adv-x="1153" d="M55 31l154 88l70 1016l-142 90l6 28h389q111 0 196.5 -28.5t132.5 -74t69 -97.5q17 -42 17 -85q0 -10 -1 -20q-10 -119 -84 -194t-184 -111q234 -475 305 -532q30 -25 68 -36q25 -7 62 -7q20 0 44 2v-50q-103 -40 -180 -40q-63 0 -112 44.5t-120 180.5t-184 411 q-46 -4 -65 -4q-59 0 -119 6l-35 -499l156 -92l2 -27h-443zM381 698q153 -6 158 -6q240 0 260 172q4 28 4 53q0 113 -72 183q-88 86 -264 86h-51z" />
<glyph unicode="S" horiz-adv-x="897" d="M70 16l57 226h68l61 -152q63 -16 168 -16q111 0 171 45t69 155q1 16 1 31q-1 60 -19 108q-24 60 -64.5 98.5t-108.5 76.5l-98 57q-109 65 -162 142q-46 67 -46 162q0 14 1 30q11 129 125.5 212t294.5 83q153 0 237 -37l-51 -215h-57l-92 160q-33 14 -127 14 q-101 0 -150.5 -44.5t-58.5 -135.5q-1 -12 -1 -24q0 -174 179 -273l96 -57q119 -71 174 -146q50 -68 49 -165v-21q-6 -99 -68.5 -180.5t-157.5 -125.5t-200 -44q-168 0 -290 36z" />
<glyph unicode="T" horiz-adv-x="1060" d="M100 999l86 254h861l-58 -254h-47l-92 187h-215l-74 -1067l160 -92l-2 -27h-457l2 31l170 88l74 1067h-166l-195 -187h-47z" />
<glyph unicode="U" horiz-adv-x="1284" d="M150 1225l2 28h419l-2 -30l-151 -88l-49 -682q-1 -22 -2 -42q0 -137 64 -217q73 -92 235 -92q147 0 219 67.5t82 233.5l51 732l-144 92l3 26h378l-2 -30l-163 -88l-50 -680q-15 -222 -134.5 -348.5t-319.5 -126.5q-173 0 -267 112q-83 99 -83 268q0 23 2 48l51 727z" />
<glyph unicode="V" horiz-adv-x="1226" d="M74 1223l2 30h473l-2 -30l-182 -88h-5l230 -965l407 967l-143 86l2 30h371l-2 -30l-125 -88h-2l-504 -1115l-88 -51l-303 1168z" />
<glyph unicode="W" horiz-adv-x="1943" d="M74 1223l2 30h422l-2 -30l-168 -88l219 -959l399 957v2l2 2l49 116h31l12 -34l62 55l-45 -107l321 -993l316 961l-138 88l3 30h385l-2 -30l-152 -86l-389 -1117l-90 -51l-324 1037l-424 -986l-88 -51l-274 1166h-6z" />
<glyph unicode="X" horiz-adv-x="1193" d="M-20 0l2 31l155 78l393 542l-282 484l-142 88l3 30h477l-2 -30l-183 -88h-4l234 -398l274 400l-135 86l2 30h402l-3 -30l-155 -80l-344 -475l321 -549l142 -88l-2 -31h-478l2 31l183 88h2l-271 463l-323 -465l135 -86l-2 -31h-401z" />
<glyph unicode="Y" horiz-adv-x="1132" d="M90 1223l2 30h438l-2 -30l-170 -88l244 -492l303 492h-6l-135 88l2 30h385l-2 -30l-148 -86l-354 -572l-31 -446l140 -92l-2 -27h-422l2 31l151 88l29 434h-2l-297 582h-4z" />
<glyph unicode="Z" horiz-adv-x="1017" d="M57 0v33l711 1147h-406l-178 -213h-43l64 286h735l-2 -36l-719 -1143h469l193 233h43l-82 -307h-785z" />
<glyph unicode="[" horiz-adv-x="567" d="M135 -225l115 1644h348l-4 -57h-283l-106 -1530h284l-6 -57h-348z" />
<glyph unicode="\" horiz-adv-x="673" d="M0 1419h59l588 -1644h-59z" />
<glyph unicode="]" horiz-adv-x="567" d="M-4 -225l4 57h283l106 1530h-285l7 57h348l-115 -1644h-348z" />
<glyph unicode="^" horiz-adv-x="1024" d="M43 477l453 801h88l338 -801h-91l-327 586l-371 -586h-90z" />
<glyph unicode="_" horiz-adv-x="901" d="M0 -225h901v-51h-901v51z" />
<glyph unicode="`" horiz-adv-x="983" d="M440 1337l135 52l136 -342h-41z" />
<glyph unicode="a" horiz-adv-x="886" d="M88 416q10 130 61 253t123.5 198t141.5 75q102 0 239 -45l47 53l29 -20l-53 -793h143l-4 -31l-205 -110l-55 29l18 251q-86 -152 -156.5 -219t-144.5 -67q-40 0 -75 22.5t-63.5 70t-41.5 133.5q-8 51 -8 111q0 42 4 89zM207 430q-3 -40 -3 -75q0 -105 27 -171 q36 -88 109 -88q17 0 42.5 14.5t60 54.5t65.5 98.5t57.5 158.5t36.5 223l10 146q-39 26 -94.5 42.5t-99.5 16.5q-100 0 -129 -35q-62 -82 -82 -385z" />
<glyph unicode="b" horiz-adv-x="903" d="M92 1278l4 29l234 112h41l-37 -239l-37 -525q167 287 332 287q40 0 75 -22.5t64 -70t42 -133.5q8 -53 8 -117q0 -39 -3 -83q-10 -129 -61.5 -252.5t-124 -198.5t-140.5 -75q-125 0 -231 35l-2 51l-4 -62l-84 -32l-29 20l88 1276h-135zM260 137q40 -25 106 -40t117 -15 q100 0 129 35q64 80 84 385q2 36 2 68q0 112 -27 179q-35 87 -108 87q-19 0 -47 -13.5t-65.5 -51.5t-71.5 -94t-64 -152t-43 -214z" />
<glyph unicode="c" horiz-adv-x="643" d="M88 399q19 226 126 384.5t239 158.5q39 0 56.5 -1.5t48.5 -14t63 -39.5l-56 -92l-24 -4q-98 57 -160 57q-47 0 -88 -43q-53 -44 -82 -354q-5 -49 -5 -91q0 -112 34 -180q47 -94 129 -94q28 0 40 1.5t36.5 10.5t52.5 32t67 63l21 -27q-49 -53 -87.5 -88.5t-64.5 -55 t-52.5 -29t-43.5 -11.5t-45 -2q-97 0 -159 108q-49 86 -49 231q0 38 3 80z" />
<glyph unicode="d" horiz-adv-x="925" d="M88 416q10 130 61 253t123.5 198t141.5 75q131 0 235 -35l25 371h-135l4 29l231 112h43l-37 -239l-73 -1043h145l-4 -31l-205 -108l-55 29l16 252q-168 -289 -332 -289q-40 0 -75 22.5t-63.5 70t-41.5 133.5q-8 51 -8 111q0 42 4 89zM207 430q-3 -40 -3 -75 q0 -105 27 -171q36 -88 109 -88q19 0 46.5 14t65 52t71 95t63.5 153.5t43 216.5l10 153q-37 28 -105.5 49t-115.5 21q-100 0 -129 -35q-62 -82 -82 -385z" />
<glyph unicode="e" horiz-adv-x="673" d="M90 416q23 239 127.5 382.5t257.5 143.5q73 0 117 -56q42 -53 41 -126v-10q-2 -46 -28.5 -93.5t-76 -92.5t-132 -79.5t-185.5 -48.5q0 -3 -1 -10t-1 -10q-5 -44 -5 -82q0 -99 34 -165q46 -91 133 -91q64 0 106.5 19t102.5 79l18 -24q-93 -105 -161.5 -138.5t-139.5 -33.5 q-42 0 -81.5 25t-72.5 75q-33 48 -48 136q-9 52 -9 114q0 41 4 86zM217 479q150 18 222.5 82t74.5 148v6q0 55 -33 104q-35 51 -96 51q-26 0 -31 -4q-91 -78 -137 -387z" />
<glyph unicode="f" horiz-adv-x="536" d="M-111 -395l9 53q64 -8 122 -8q28 0 51.5 12.5t45.5 41t36 82.5t17 130l49 944h-106l6 62h104l2 57q5 96 37 176t80.5 133.5t111 91t127 54t128.5 16.5l24 -70l-10 -53q-59 8 -145 8q-66 0 -109 -17.5t-68 -58t-36 -93t-15 -134.5l-6 -110h82l154 10l2 -78l-166 6h-74 l-45 -864q-9 -198 -102 -308.5t-281 -152.5z" />
<glyph unicode="g" horiz-adv-x="733" d="M-33 -223v6q0 22 6 43q7 23 17 41.5t31.5 39.5t38 35.5t49 35.5t53 33.5t60.5 36t61 36.5l-45 27q-42 29 -57 49.5t-15 54.5q0 32 35.5 64t115.5 86q-87 7 -153 81q-59 67 -59 170q0 12 1 23q12 140 103 221.5t223 81.5q76 0 141 -59l175 202l69 -71v-35l-227 -113 q64 -71 64 -173q0 -15 -1 -31q-9 -119 -72 -192.5t-165 -96.5h2q-118 -78 -123 -117q-3 -15 7.5 -29t23.5 -24.5t14 -12.5l131 -65q67 -33 109.5 -63t62 -59t25.5 -52t6 -55q0 -69 -58 -137.5t-155 -113t-199 -44.5q-138 0 -217.5 49.5t-77.5 126.5zM86 -190v-7 q0 -52 58 -89q61 -40 155 -40q105 0 178 48q68 44 68 104v8q-6 108 -129 176l-90 51q-118 -80 -175.5 -135.5t-64.5 -115.5zM223 676q-1 -12 -1 -24q0 -92 42 -158q46 -74 133 -74q59 0 97.5 50.5t42.5 150.5q1 18 1 36q0 89 -34 149q-41 73 -133 73q-71 0 -106.5 -50 t-41.5 -153z" />
<glyph unicode="h" horiz-adv-x="933" d="M88 1278l4 29l232 112h43l-37 -239l-37 -568q43 93 91 160.5t91.5 102.5t80 51t69.5 16q97 0 131 -93q21 -58 22 -169q0 -66 -8 -152q-5 -62 -14.5 -125.5t-23 -144t-19.5 -121.5h141l-4 -31l-203 -110l-55 29q4 28 18 118t19.5 130.5t13.5 112.5t12 138q3 65 3 114 q0 24 -1 45q-2 61 -17 95t-33.5 46t-47.5 12q-19 0 -47.5 -17t-65.5 -57t-70.5 -95.5t-61.5 -144t-40 -192.5l-20 -305l-94 -25h-23l86 1278h-135z" />
<glyph unicode="i" horiz-adv-x="512" d="M68 836l6 26l264 80h24l-28 -133l-53 -672h141l-4 -31l-203 -110l-55 29l55 792zM231 1264q3 29 31 64.5t51 35.5q20 0 46 -28.5t26 -53.5q-3 -28 -32 -63t-50 -35t-46.5 27.5t-25.5 52.5z" />
<glyph unicode="j" horiz-adv-x="450" d="M-109 -395l9 51q66 -6 98 -6q68 0 107 56.5t45 160.5l65 950l-147 19l6 26l264 80h24l-28 -133l-55 -786q-19 -247 -117.5 -367.5t-245.5 -120.5zM231 1264q3 29 31 64.5t51 35.5q20 0 46 -28.5t26 -53.5q-3 -28 -32 -63t-50 -35t-46.5 27.5t-25.5 52.5z" />
<glyph unicode="k" horiz-adv-x="903" d="M90 1278l4 29l232 112h43l-39 -239l-45 -693q91 60 209 160.5t133 128.5q10 23 -21 36t-69 13l6 27q20 15 43.5 34t39.5 30t44 26q63 -17 86.5 -33.5t23.5 -54.5q0 -29 -103.5 -121t-236.5 -192l72 53q68 -217 114 -333t71 -149.5t51 -33.5q32 0 60.5 17t68.5 65l26 -41 q-75 -89 -117.5 -116.5t-91.5 -27.5q-30 0 -51.5 9t-48.5 41t-52 90.5t-56.5 160.5t-67.5 248q-100 -74 -135 -92v2l-27 -409l-96 -25h-21l84 1278h-133z" />
<glyph unicode="l" horiz-adv-x="550" d="M90 1278l4 29l232 112h43l-39 -239l-66 -971q-1 -10 -1 -19q0 -96 69 -96q21 0 38.5 6t52.5 34.5t81 82.5l22 -39q-86 -120 -138 -159t-105 -39q-61 0 -99 53q-32 46 -33 120q0 12 1 25l71 1100h-133z" />
<glyph unicode="m" horiz-adv-x="1433" d="M72 836l4 26l246 80h24l-27 -350q105 201 186.5 275.5t156.5 74.5q58 0 92 -44t45 -161q3 -26 3 -60.5t-3 -78.5q105 197 185.5 270.5t154.5 73.5q36 0 61 -16.5t46.5 -61.5t25.5 -125q1 -27 0 -59q0 -64 -4 -148q-6 -63 -16 -129t-23.5 -143t-20.5 -123h142l-4 -31 l-201 -110l-55 29q3 22 12 81t12.5 84.5l10.5 76.5t10.5 85t8 80.5t7.5 91.5q4 51 4 91q1 27 -1 49q-4 56 -11 90t-21.5 52.5t-26.5 24t-28 5.5q-20 0 -48 -15t-63 -50t-67.5 -84.5t-61.5 -126.5t-45 -167q-2 -30 -34 -368l-84 -25h-23q8 145 21 314q12 170 18 258 q3 51 4 87q0 27 -2 46q-9 64 -28.5 97.5t-65.5 33.5q-21 0 -50.5 -16.5t-65.5 -54.5t-68.5 -91.5t-61 -138t-41.5 -183.5l-25 -327l-96 -25h-20l59 817z" />
<glyph unicode="n" horiz-adv-x="962" d="M72 836l4 26l246 80h24l-24 -319q81 171 167.5 245t157.5 74q99 0 133 -93q22 -59 22 -172q0 -65 -7 -149q-5 -62 -14.5 -126t-23.5 -143t-20 -122h142l-5 -31l-202 -110l-56 29q5 31 18.5 118.5t19 129.5t13 113.5t11.5 137.5q4 58 4 105q0 54 -6 92q-10 71 -32 93 t-60 22q-19 0 -47 -16.5t-64 -54.5t-68.5 -91.5t-61.5 -138t-42 -183.5l-25 -327l-96 -25h-20l59 817z" />
<glyph unicode="o" horiz-adv-x="880" d="M90 444q13 121 54 218t99.5 157t127.5 91.5t143 31.5q148 0 226 -128q61 -99 60 -247q0 -43 -5 -90q-13 -122 -54.5 -218t-101.5 -156t-132 -91.5t-151 -31.5q-137 0 -213 129q-58 99 -58 243q0 44 5 92zM221 492q-6 -55 -6 -104q0 -130 44 -217q61 -120 171 -120 q111 0 161 83.5t71 293.5q7 58 7 109q0 127 -43 213q-60 120 -171 120q-112 0 -162 -82.5t-72 -295.5z" />
<glyph unicode="p" horiz-adv-x="927" d="M35 -420l104 68l72 1169l-145 19l6 26l243 80h25l-21 -289q173 289 334 289q40 0 75.5 -22.5t65 -70t42.5 -133.5q8 -51 8 -111q0 -42 -4 -89q-10 -130 -61 -253t-123.5 -198t-141.5 -75q-135 0 -235 33l-25 -359l190 -80v-35h-409v31zM287 143q40 -26 106 -43.5 t117 -17.5q98 0 129 35q62 82 82 385q3 40 3 75q0 106 -27 171q-36 88 -109 88q-19 0 -46.5 -13.5t-65.5 -51.5t-71.5 -93.5t-63.5 -151t-44 -213.5z" />
<glyph unicode="q" horiz-adv-x="897" d="M88 416q10 130 61 253t123.5 198t141.5 75q123 0 264 -55l55 63l29 -20l-92 -1282l110 -68l-2 -31h-407v35l192 80l47 615q-173 -289 -338 -289q-40 0 -75 22.5t-63.5 70t-41.5 133.5q-8 51 -8 111q0 42 4 89zM207 430q-3 -40 -3 -75q0 -106 27 -171q36 -88 109 -88 q20 0 49 14.5t69 55t75 100.5t64.5 162.5t41.5 228.5l8 115q-49 38 -115.5 58t-113.5 20q-100 0 -129 -35q-62 -82 -82 -385z" />
<glyph unicode="r" horiz-adv-x="643" d="M72 836l4 26l246 80h24l-22 -293q39 91 86 155t88 91t67 37t45 10v-156l-20 -20h-35q-24 0 -50 -8t-60.5 -34.5t-62 -69t-50 -120t-29.5 -178.5v17l-27 -348l-96 -25h-20l59 817z" />
<glyph unicode="s" horiz-adv-x="675" d="M45 16l35 115h35q18 -9 56 -33t66 -36.5t54 -12.5q64 0 98 37t37 88q1 8 1 17q0 69 -37 129q-41 68 -157 163q-41 41 -69 102q-22 49 -22 96q0 12 1 24q10 108 87 172.5t188 64.5q18 0 35 -1t29 -1.5t26 -3t21 -3.5t20.5 -4.5t17 -4.5t17.5 -5.5t16 -5.5l-27 -120h-30 q-11 5 -51 28.5t-71 37t-54 13.5q-53 0 -76 -27.5t-31 -84.5q-2 -15 -2 -30q0 -46 24 -88q32 -56 105 -126q95 -85 133 -151q33 -56 33 -112q0 -10 -2 -20q-10 -111 -99.5 -182t-207.5 -71q-102 0 -199 36z" />
<glyph unicode="t" horiz-adv-x="628" d="M63 860l7 62h153l21 206l71 19h45l-22 -225h41l244 10l2 -78l-254 6h-39l-47 -481q-4 -64 -4 -111q1 -20 1 -36q2 -56 19.5 -88t37.5 -43t48 -11q32 0 66 21.5t108 93.5l21 -41q-95 -108 -152.5 -146t-107.5 -38q-32 0 -62.5 15.5t-57 48t-38.5 92.5q-7 36 -7 78 q0 28 3 60l57 586h-154z" />
<glyph unicode="u" horiz-adv-x="946" d="M74 836l4 26l239 80h23q-51 -346 -66 -545q-3 -65 -2 -114v-45q2 -61 17.5 -94.5t34 -45.5t47.5 -12q19 0 46.5 18t61 61t63.5 103t55 155t34 206v-4l18 268l94 49h23l-55 -805h141l-4 -31l-203 -110l-55 29l20 284q-151 -329 -305 -329q-97 0 -131 92q-21 58 -21 169 q0 66 7 152q8 100 61 424z" />
<glyph unicode="v" horiz-adv-x="831" d="M-6 836l6 26l242 80h22l129 -833q111 128 191 300t80 269q0 77 -17 107.5t-90 50.5l6 26q25 16 148 80q2 0 8.5 -3.5t15 -12t16.5 -21t13.5 -33t5.5 -45.5q0 -106 -42 -241t-105 -253t-137.5 -215.5t-137.5 -137.5h-61l-125 837z" />
<glyph unicode="w" horiz-adv-x="1277" d="M-6 836l4 26l242 80h24l84 -833q105 123 190.5 299.5t104.5 308.5l-14 100l-135 19l6 26l192 80h25l123 -850q113 127 190.5 304.5t77.5 281.5q0 34 -1 50t-6 36.5t-16.5 31t-31.5 21t-52 19.5l7 26q14 9 25.5 16t19.5 12t18.5 10.5t15 8t16 8t15 7t18.5 8.5t21 10 q10 0 23 -9.5t25 -37.5t12 -68q0 -141 -67 -322.5t-162.5 -326t-180.5 -198.5h-62l-77 563q-65 -186 -178.5 -357t-190.5 -206h-61l-76 837z" />
<glyph unicode="x" horiz-adv-x="882" d="M50.5 72.5q7.5 21.5 40 67.5t104 122.5t194.5 198.5q-53 173 -84 256.5t-49.5 110t-40.5 26.5q-24 0 -46.5 -16t-55.5 -56l-25 41q57 71 96.5 95t87.5 24q27 0 44 -5.5t39 -27t40.5 -64t41.5 -118t50 -188.5q93 101 134 158t41 87q0 62 -95 78l6 27q37 16 77 27t77 26 q24 0 39.5 -2.5t28.5 -13.5t12 -31q0 -34 -15.5 -68.5t-85 -118.5t-202.5 -214l-8 12q1 -5 3 -15.5t3 -15.5q29 -92 48.5 -153t36.5 -107.5t28.5 -71.5t22.5 -40.5t19.5 -20t20.5 -4.5q65 0 129 86l27 -41q-77 -89 -119.5 -116t-91.5 -27q-28 0 -45.5 5.5t-40.5 29t-42 69.5 t-43 127.5t-51 202.5q-206 -222 -206 -287q0 -29 21 -46t52 -22l-6 -26q-37 -17 -72.5 -31t-66.5 -27q-37 0 -59 10q-21 10 -21 36q0 30 7.5 51.5z" />
<glyph unicode="y" horiz-adv-x="835" d="M-131 -395l8 53q21 -2 78 -2q160 0 259.5 75.5t195.5 248.5h-76l-168 837l-168 19l4 26l242 80h24l183 -885q3 6 9 18.5t9 18.5q79 154 132.5 310t53.5 255q0 34 -1.5 52t-7 39t-17 32.5t-32 22.5t-52.5 20l6 27q51 33 176 90q14 0 26.5 -10t22.5 -42.5t10 -84.5 q0 -86 -68.5 -298.5t-172.5 -426.5q-44 -89 -87 -161.5t-101 -146.5t-118.5 -124t-136.5 -81.5t-157 -31.5q-28 0 -49 6q-4 29 -20 64q-7 16 -7 0zM-106 -459h2q0 -2 -0.5 -2t-1.5 2z" />
<glyph unicode="z" horiz-adv-x="786" d="M0 -6l541 807q-55 1 -145.5 7.5t-121.5 6.5q-54 0 -89 -25t-72 -108h-27q13 69 22 112t20.5 74t19 46t24 22.5t27 8.5t37.5 1q53 0 174 -18.5t157 -18.5q73 0 109 39l33 -24l-547 -809q63 -2 179.5 -8.5t154.5 -6.5q75 0 114 31t70 125h29q-11 -68 -22 -116.5t-27 -79 t-29.5 -48t-38 -26t-42 -10t-52.5 -1.5q-69 0 -209 18.5t-164 18.5q-56 0 -96 -35z" />
<glyph unicode="{" horiz-adv-x="567" d="M104 580v34q50 4 85.5 15t53 23.5t27 32t11 32.5t2.5 33v6q6 66 3 218.5t3 215.5q3 52 17.5 93.5t35 66t45.5 43.5t49.5 25.5t47.5 12t39.5 3.5t23.5 0h4l-4 -54q-94 0 -139.5 -44t-51.5 -99q-4 -65 0 -222t0 -212q-7 -89 -36 -136t-109 -67v-6q77 -21 100.5 -67.5 t16.5 -135.5q-4 -52 -30 -209t-30 -225q-5 -54 35.5 -98.5t134.5 -44.5l-6 -54q-64 0 -99 12q-140 45 -126 232q3 65 27 217.5t28 216.5q-1 16 1.5 33t-5.5 35t-22 33t-48 26t-84 15z" />
<glyph unicode="|" horiz-adv-x="516" d="M154 -451l131 1870h63l-131 -1870h-63z" />
<glyph unicode="}" horiz-adv-x="567" d="M2 -240l4 54q94 0 139.5 44t51.5 99q4 65 0 222t0 212q7 89 36 136t109 67v6q-77 21 -100.5 67.5t-16.5 135.5q4 52 30 209t30 225q5 54 -35.5 98.5t-134.5 44.5l6 54q64 0 99 -12q139 -46 126 -232q-3 -65 -27 -217.5t-28 -216.5q1 -16 -1.5 -33t5.5 -35t22 -33t48 -26 t84 -15v-34q-50 -4 -85.5 -15t-53 -23.5t-27 -32t-11 -32.5t-2.5 -33v-6q-6 -66 -3 -218.5t-3 -215.5q-3 -52 -17.5 -93.5t-35 -66t-45.5 -43.5t-49.5 -25.5t-47.5 -12t-39.5 -3.5t-23.5 0h-4z" />
<glyph unicode="~" horiz-adv-x="1024" d="M78 432q104 114 133 139q65 48 129 50q61 0 176.5 -35t151.5 -35q14 0 27 1.5t26.5 6.5t22.5 8.5t22.5 13t19.5 13.5t20.5 17.5t19.5 18t21.5 21.5t20.5 21l23 -27q-17 -20 -44 -53t-39 -47.5t-32 -37t-32.5 -31.5t-29.5 -20t-33.5 -14.5t-35.5 -3.5q-60 0 -176.5 37 t-165.5 37q-55 0 -103 -25t-110 -81z" />
<glyph unicode="&#xa1;" horiz-adv-x="583" d="M158 -422l123 961l69 43q-38 -410 -28 -940zM252 823q3 28 41 61.5t61 33.5q25 0 56 -31.5t28 -59.5q-4 -27 -38.5 -61.5t-55.5 -34.5q-25 0 -60.5 32t-31.5 60z" />
<glyph unicode="&#xa2;" d="M190 555q10 129 49.5 234.5t96.5 171t122 103t132 42.5l2 256h92l-49 -256q122 -8 184 -70l-61 -114l-27 -2q-25 22 -101 51.5t-116 29.5q-47 0 -76 -36q-26 -36 -39.5 -57.5t-33 -63t-32 -98t-20.5 -132.5q-16 -157 49.5 -260.5t149.5 -103.5q30 0 44.5 1.5t44 10.5 t62 32.5t72.5 63.5l19 -26q-132 -146 -226 -178l-4 -277h-86l49 268q-14 -2 -43 -2q-36 0 -72.5 13.5t-73 45.5t-63 77.5t-39.5 117.5t-6 158z" />
<glyph unicode="&#xa3;" d="M31 16q134 71 201 150.5t79 175.5q11 77 15 262h-174l10 62h166q8 128 16 186q8 62 25.5 119t51.5 113t80 96.5t115 66t152 25.5q112 0 184 -62l-43 -96l-32 -10q-35 33 -97.5 65.5t-101.5 32.5q-78 0 -137.5 -55.5t-73.5 -171.5q-13 -92 -25 -309h111l246 10v-78l-258 6 h-103q-13 -174 -18 -207q-10 -84 -50.5 -150.5t-111.5 -135.5q74 -1 220.5 -7t195.5 -6q70 0 109.5 32t78.5 126h29q-18 -80 -39 -134t-38 -82t-42 -42t-40.5 -16t-45.5 -2q-95 0 -272 16t-205 16q-73 0 -148 -37z" />
<glyph unicode="&#xa4;" d="M63 49l146 150q-122 104 -107 333q15 210 166 332l-131 166l78 45l111 -170q103 58 219 58q112 0 188 -43l123 155l78 -45l-146 -149q111 -105 99 -324q-15 -212 -166 -334l141 -174l-78 -43l-118 178q-98 -61 -222 -61q-109 0 -180 39l-123 -156zM168 543 q-12 -152 72.5 -240t228.5 -88q74 0 132 16.5t105 53.5t75 102t34 156q12 153 -72 239t-229 86q-74 0 -131.5 -16t-105 -52t-75.5 -100.5t-34 -156.5z" />
<glyph unicode="&#xa5;" d="M31 1223l2 30h436l-2 -30l-168 -88h-2l244 -498l303 498h-6l-136 88l3 30h387l-2 -30l-148 -86l-344 -559h303l-2 -35l-31 -43h-286l-9 -127h314l-2 -33l-31 -45h-285l-12 -176l137 -92l-2 -27h-420l2 31l152 88l12 176h-317l2 35l31 43h288l9 127h-316l2 32l33 46h264 l-280 557h-2z" />
<glyph unicode="&#xa6;" horiz-adv-x="516" d="M154 -451l53 754h65l-53 -754h-65zM231 666l54 753h65l-53 -753h-66z" />
<glyph unicode="&#xa7;" horiz-adv-x="976" d="M86 653q7 90 93.5 163t217.5 104q-101 49 -147 105t-39 138q6 113 115 192t284 79q158 0 248 -41l-55 -209h-55l-19 135q-109 43 -231 43q-155 0 -168 -166q-3 -37 6 -67.5t24 -50t41 -38t46.5 -28.5t52.5 -23l71 -33q81 -34 126.5 -56t91 -51t66 -57.5t32 -66.5t8.5 -88 q-7 -90 -93.5 -163.5t-215.5 -104.5q99 -45 145 -102t39 -140q-8 -116 -112.5 -194t-286.5 -78q-153 0 -250 43l57 208h53l21 -137q108 -41 229 -41q157 0 170 166q3 45 -9.5 79.5t-42 59t-53 37.5t-65.5 31l-73 33q-79 33 -125 55.5t-90.5 51t-65.5 57t-32.5 67t-8.5 88.5z M209 666q-3 -35 7.5 -63.5t30 -51t58.5 -46.5t78.5 -42.5t105.5 -46.5l29 -15q125 27 187 84.5t67 135.5q2 31 -4 56t-24.5 47.5t-37 38.5t-57.5 37t-69 35t-88 39l-25 13q-251 -57 -258 -221z" />
<glyph unicode="&#xa8;" horiz-adv-x="983" d="M305 1210q1 23 27.5 52.5t44.5 29.5q17 0 43.5 -24t23.5 -45q0 -22 -26.5 -51t-44.5 -29t-43 23t-25 44zM596 1210q1 23 27.5 52.5t44.5 29.5q20 0 45 -23.5t22 -45.5q0 -22 -26.5 -51t-44.5 -29q-15 0 -41.5 23.5t-26.5 43.5z" />
<glyph unicode="&#xa9;" horiz-adv-x="1146" d="M66 487q7 116 55 213t122.5 160.5t168.5 99t196 35.5q155 0 267 -68t163.5 -182t42.5 -258q-10 -153 -89 -270.5t-197.5 -177t-255.5 -59.5q-155 0 -266.5 67.5t-163.5 182t-43 257.5zM111 485q-8 -107 21 -196t86.5 -148t139.5 -92t179 -33q211 0 346 133.5t149 335.5 q15 215 -106 342t-322 127q-210 0 -344.5 -133t-148.5 -336zM315 508q9 135 96 216t205 81q64 0 129 -25l-30 -108h-21l-59 82q-6 2 -53 2q-103 0 -144.5 -50.5t-50.5 -179.5q-13 -143 45.5 -219t149.5 -76q29 0 39 5l86 110h24l-33 -115q-83 -38 -159 -38q-109 0 -171.5 81 t-52.5 234z" />
<glyph unicode="&#xaa;" horiz-adv-x="524" d="M41 846q14 136 85 206t171 70q27 0 57.5 -6.5t34.5 -13.5l45 41l29 -10l-31 -416h70v-21l-156 -61l-33 14l11 123q-77 -139 -160 -139q-65 0 -99 56.5t-24 156.5zM156 874q-13 -155 59 -155q33 0 72.5 55t48.5 150l10 114l-4 -4q-46 31 -84 31q-44 0 -57 -18 q-33 -30 -45 -173z" />
<glyph unicode="&#xab;" horiz-adv-x="917" d="M90 516l352 430l23 -22l-236 -408l179 -407l-27 -23zM432 516l352 430l23 -22l-236 -408l179 -407l-27 -23z" />
<glyph unicode="&#xac;" d="M104 670l5 57h788l-2 -57h-2l-25 -320h-53l25 320h-736z" />
<glyph unicode="&#xad;" horiz-adv-x="595" d="M141 492l2 30l33 37h377l-2 -31l-31 -36h-379z" />
<glyph unicode="&#xae;" horiz-adv-x="1146" d="M121 1051q7 116 55 213.5t123 161t169 98.5t196 35q232 0 359.5 -143.5t113.5 -364.5q-8 -115 -56.5 -212t-123.5 -161t-169.5 -99.5t-195.5 -35.5q-154 0 -265.5 68t-163.5 182.5t-42 257.5zM164 1051q-7 -107 22.5 -196.5t87.5 -148.5t139.5 -91.5t178.5 -32.5 q211 0 345.5 132.5t149.5 336.5q15 215 -106 341t-322 126q-211 0 -346 -132t-149 -335zM358 782l82 39l33 484l-72 41l7 16h208q103 0 158 -46t47 -102q-8 -96 -127 -143q50 -101 81.5 -158t43.5 -73.5t21 -22.5q36 -24 82 -16v-25q-54 -20 -95 -20q-33 0 -56 24t-49 80 t-83 197q-36 -4 -53 -4q-30 0 -54 6l-16 -238l78 -43l2 -12h-236zM535 1098q25 -2 79 -2q115 0 129 82q8 71 -34.5 110t-128.5 39h-29z" />
<glyph unicode="&#xaf;" horiz-adv-x="983" d="M371 1151l2 31l28 35h375l-2 -31l-26 -35h-377z" />
<glyph unicode="&#xb0;" horiz-adv-x="700" d="M150 1161q6 112 89.5 190.5t192.5 78.5q117 0 188 -71.5t62 -197.5q-6 -108 -91 -186t-194 -78q-115 0 -185.5 69.5t-61.5 194.5zM227 1157q-7 -87 41 -140.5t131 -53.5t141 53.5t64 140.5q7 92 -44 150.5t-132 58.5q-83 0 -139 -57.5t-62 -151.5z" />
<glyph unicode="&#xb1;" d="M94 610l4 52h353l26 366h62l-27 -366h354l-4 -52h-354l-27 -379h-61l26 379h-352zM135 29l4 51h668l-4 -51h-668z" />
<glyph unicode="&#xb2;" horiz-adv-x="567" d="M16 766l2 33q226 223 285.5 293.5t63.5 130.5q3 53 -32.5 88t-94.5 35q-8 0 -22 -1.5t-19 -1.5l-97 -124h-26l33 143q139 51 188 51q86 0 139 -48t47 -122q-8 -72 -68.5 -138.5t-246.5 -226.5q-9 -8 -14 -12h262l71 92h29l-47 -192h-453z" />
<glyph unicode="&#xb3;" horiz-adv-x="567" d="M16 768l35 115h25l61 -80q10 -2 35 -2q99 0 140 24t42 86q3 67 -36.5 107.5t-127.5 40.5q-28 0 -51 -2l25 59q20 -8 55 -8q127 0 133 109q5 63 -28.5 97t-100.5 34q-3 0 -17 -1t-20 -1l-94 -117h-29l33 133q131 51 193 51q86 0 135 -41t45 -110q-9 -113 -147 -160 q162 -24 153 -160q-3 -76 -94.5 -133t-218.5 -57q-75 0 -144 16h-2z" />
<glyph unicode="&#xb4;" horiz-adv-x="983" d="M412 1047l182 342l129 -52l-270 -290h-41z" />
<glyph unicode="&#xb6;" horiz-adv-x="1099" d="M84 887q11 171 120.5 268.5t315.5 97.5h547l-2 -30l-158 -88l-78 -1092q-7 -103 -69 -178t-149.5 -109.5t-186.5 -34.5q-22 0 -38.5 1t-30.5 4t-19.5 4t-19.5 6l-13 4l41 168h45l96 -133q26 8 46 15.5t48 24.5t46.5 38t33 55.5t17.5 77.5l86 1210h-162l-49 -702h-88 q-192 0 -291.5 107.5t-87.5 285.5z" />
<glyph unicode="&#xb7;" horiz-adv-x="497" d="M154 438q3 30 38.5 69.5t57.5 39.5q27 0 63 -32t33 -60q-3 -31 -39 -69t-61 -38q-23 0 -57.5 30.5t-34.5 59.5z" />
<glyph unicode="&#xb8;" horiz-adv-x="983" d="M311 -362q129 0 178.5 10.5t49.5 50.5q0 34 -29 59t-123 47l98 195h43l-67 -129q95 -24 136.5 -54.5t41.5 -70.5q0 -53 -44.5 -90t-113.5 -53t-157 -17z" />
<glyph unicode="&#xb9;" horiz-adv-x="567" d="M104 766v20l134 41l36 516l-133 -73l-18 78l207 53h69l-45 -574l92 -41l-6 -20h-336z" />
<glyph unicode="&#xba;" horiz-adv-x="493" d="M41 868q10 117 79 185.5t165 68.5q90 0 135.5 -62.5t36.5 -174.5q-12 -116 -82 -186t-162 -70q-91 0 -136.5 62t-35.5 177zM156 905q-9 -111 17.5 -168t74.5 -57q42 0 61.5 36t28.5 132q18 225 -90 225q-43 0 -63 -36.5t-29 -131.5z" />
<glyph unicode="&#xbb;" horiz-adv-x="919" d="M111 109l235 407l-178 408l27 22l290 -430l-352 -430zM479 109l236 407l-178 408l26 22l291 -430l-352 -430z" />
<glyph unicode="&#xbc;" horiz-adv-x="1359" d="M166 766v20l133 41l37 516l-133 -73l-19 78l207 53h70l-45 -574l92 -41l-6 -20h-336zM246 0l835 1288l78 -35l-835 -1288zM678 117l2 47l430 487h88l-31 -448h105l-33 -86h-78l-8 -117h-149l8 117h-334zM793 203h225l18 282z" />
<glyph unicode="&#xbd;" horiz-adv-x="1359" d="M166 766v20l133 41l37 516l-133 -73l-19 78l207 53h70l-45 -574l92 -41l-6 -20h-336zM190 0l836 1288l78 -35l-836 -1288zM754 0l2 33q225 221 284.5 292t63.5 132q3 53 -32.5 88t-94.5 35q-9 0 -22 -1t-19 -1l-96 -125h-27l33 143q139 51 188 51q86 0 139.5 -48 t47.5 -122q-8 -72 -68 -138t-242 -222q-13 -11 -20 -17h262l72 93h28l-47 -193h-452z" />
<glyph unicode="&#xbe;" horiz-adv-x="1359" d="M113 768l34 115h25l61 -80q10 -2 35 -2q100 0 141 24t42 86q3 67 -36.5 107.5t-127.5 40.5q-28 0 -51 -2l24 59q20 -8 55 -8q128 0 134 109q5 63 -29 97t-101 34q-3 0 -16 -1t-20 -1l-95 -117h-28l33 133q131 51 192 51q86 0 135 -41t45 -110q-9 -113 -147 -160 q162 -24 153 -160q-3 -76 -94.5 -133t-218.5 -57q-74 0 -143 16h-2zM252 0l835 1288l78 -35l-835 -1288zM698 117l2 47l430 487h89l-31 -448h104l-32 -86h-78l-8 -117h-150l8 117h-334zM813 203h225l19 282z" />
<glyph unicode="&#xbf;" horiz-adv-x="788" d="M-14 -74q4 70 30.5 128.5t62.5 95t78 72t77.5 62.5t60.5 64t27 78q2 28 -5.5 51t-17.5 41t-12 27l96 43l9 -14q9 -13 15 -23t13.5 -25.5t11 -31t2.5 -29.5q-3 -44 -25 -83t-53.5 -66t-68.5 -61t-68.5 -67.5t-54.5 -86t-27 -115.5q-8 -100 60.5 -166t181.5 -66q57 0 72 10 l163 261h31l-65 -285q-52 -19 -108 -41t-78 -30.5t-47 -14.5t-50 -6q-152 0 -236 77.5t-75 200.5zM289 848q0 27 37 60.5t59 33.5q25 0 62 -31t36 -59q-3 -27 -39.5 -61.5t-58.5 -34.5q-25 0 -62.5 32t-33.5 60z" />
<glyph unicode="&#xc0;" horiz-adv-x="1181" d="M-49 0l2 31l125 88l198 438v10h5l301 666l90 51l323 -1167l115 -86l-2 -31h-461l2 31l185 88h4l-99 381h-407l-154 -381l146 -88l-2 -31h-371zM360 567h361l-141 547zM492 1645l135 51l135 -342h-41z" />
<glyph unicode="&#xc1;" horiz-adv-x="1181" d="M-49 0l2 31l125 88l198 438v10h5l301 666l90 51l323 -1167l115 -86l-2 -31h-461l2 31l185 88h4l-99 381h-407l-154 -381l146 -88l-2 -31h-371zM360 567h361l-141 547zM662 1354l184 342l129 -51l-273 -291h-40z" />
<glyph unicode="&#xc2;" horiz-adv-x="1181" d="M-49 0l2 31l125 88l198 438v10h5l301 666l90 51l323 -1167l115 -86l-2 -31h-461l2 31l185 88h4l-99 381h-407l-154 -381l146 -88l-2 -31h-371zM360 567h361l-141 547zM434 1354l244 342h55l195 -342h-41l-193 202l-219 -202h-41z" />
<glyph unicode="&#xc3;" horiz-adv-x="1181" d="M-49 0l2 31l125 88l198 438v10h5l301 666l90 51l323 -1167l115 -86l-2 -31h-461l2 31l185 88h4l-99 381h-407l-154 -381l146 -88l-2 -31h-371zM360 567h361l-141 547zM393 1331q84 102 110 124q38 32 85 32q44 0 129 -28.5t110 -28.5q10 0 19.5 1.5t19 5.5t16 6.5 t16.5 11t14 12t15 15t14 15t15 18t15 17.5l12 -23q-11 -16 -31 -44.5t-28 -40t-22.5 -30t-23 -26t-21 -16.5t-24.5 -12t-26 -3q-43 0 -128 31t-122 31q-39 0 -75 -21.5t-81 -68.5z" />
<glyph unicode="&#xc4;" horiz-adv-x="1181" d="M-49 0l2 31l125 88l198 438v10h5l301 666l90 51l323 -1167l115 -86l-2 -31h-461l2 31l185 88h4l-99 381h-407l-154 -381l146 -88l-2 -31h-371zM360 567h361l-141 547zM461 1518q0 23 24.5 52t44.5 29q19 0 46 -23.5t24 -45.5q-1 -23 -28 -51.5t-46 -28.5q-17 0 -42.5 24 t-22.5 44zM786 1518q0 23 26 52t44 29q20 0 45.5 -23.5t22.5 -45.5q0 -23 -25 -51.5t-45 -28.5q-17 0 -44 24t-24 44z" />
<glyph unicode="&#xc5;" horiz-adv-x="1181" d="M-49 0l2 31l125 88l198 438v10h5l301 666l90 51l323 -1167l115 -86l-2 -31h-461l2 31l185 88h4l-99 381h-407l-154 -381l146 -88l-2 -31h-371zM360 567h361l-141 547zM537 1554q6 69 55 117.5t113 48.5q69 0 111 -44.5t36 -121.5q-4 -69 -54.5 -117t-115.5 -48 q-68 0 -108 43t-37 122zM588 1552q-4 -53 22.5 -84.5t73.5 -31.5q48 0 79 31.5t34 84.5q6 57 -22 90t-75 33q-46 0 -76 -32.5t-36 -90.5z" />
<glyph unicode="&#xc6;" horiz-adv-x="1533" d="M-106 0l2 31l129 75l370 549v11h8l349 516l-121 43l2 28h244l16 7l-4 -7h596l-55 -243h-48l-84 176h-346l-37 -529h125l246 17l-22 -96l-222 26h-131l-37 -536h349l-2 -31l178 225h45l-68 -262h-827l2 33l194 86l35 479h-325l-318 -479h8l121 -88l-2 -31h-370zM500 666 h284l35 483z" />
<glyph unicode="&#xc7;" horiz-adv-x="1132" d="M152 653q9 141 62 259.5t134.5 196.5t184.5 121.5t215 43.5q148 0 253 -55l-59 -220h-41l-108 170q-23 5 -115 5q-211 0 -299.5 -109t-108.5 -385q-10 -153 19.5 -274.5t88 -196t133.5 -113.5t161 -39q43 0 84 13l170 227l45 -2l-62 -238q-88 -42 -162.5 -59.5 t-160.5 -17.5h-25l-57 -109q95 -24 136.5 -54.5t41.5 -70.5q0 -53 -44.5 -90t-113.5 -53t-157 -17l-13 52q129 0 178.5 10.5t49.5 50.5q0 34 -29 59t-123 47l90 179q-185 27 -287 198.5t-81 470.5z" />
<glyph unicode="&#xc8;" horiz-adv-x="997" d="M57 0l2 31l150 88l70 1016l-138 90l2 28h805l-59 -254h-45l-84 187h-344l-35 -508h123l272 16l-20 -96l-250 27h-129l-39 -557h348l-2 -29l184 244h45l-73 -283h-783zM477 1645l135 51l136 -342h-41z" />
<glyph unicode="&#xc9;" horiz-adv-x="997" d="M57 0l2 31l150 88l70 1016l-138 90l2 28h805l-59 -254h-45l-84 187h-344l-35 -508h123l272 16l-20 -96l-250 27h-129l-39 -557h348l-2 -29l184 244h45l-73 -283h-783zM436 1354l185 342l129 -51l-273 -291h-41z" />
<glyph unicode="&#xca;" horiz-adv-x="997" d="M57 0l2 31l150 88l70 1016l-138 90l2 28h805l-59 -254h-45l-84 187h-344l-35 -508h123l272 16l-20 -96l-250 27h-129l-39 -557h348l-2 -29l184 244h45l-73 -283h-783zM352 1354l244 342h55l195 -342h-41l-193 202l-219 -202h-41z" />
<glyph unicode="&#xcb;" horiz-adv-x="997" d="M57 0l2 31l150 88l70 1016l-138 90l2 28h805l-59 -254h-45l-84 187h-344l-35 -508h123l272 16l-20 -96l-250 27h-129l-39 -557h348l-2 -29l184 244h45l-73 -283h-783zM379 1518q0 23 25 52t45 29q19 0 45.5 -23.5t23.5 -45.5q-1 -23 -28 -51.5t-46 -28.5q-17 0 -42.5 24 t-22.5 44zM705 1518q0 23 25.5 52t43.5 29q20 0 45.5 -23.5t22.5 -45.5q0 -23 -25 -51.5t-45 -28.5q-17 0 -43.5 24t-23.5 44z" />
<glyph unicode="&#xcc;" horiz-adv-x="598" d="M43 0v31l154 88l69 1016l-141 90l4 28h422l-6 -30l-148 -88l-69 -1016l135 -92l2 -27h-422zM168 1645l135 51l135 -342h-41z" />
<glyph unicode="&#xcd;" horiz-adv-x="598" d="M43 0v31l154 88l69 1016l-141 90l4 28h422l-6 -30l-148 -88l-69 -1016l135 -92l2 -27h-422zM229 1354l185 342l129 -51l-273 -291h-41z" />
<glyph unicode="&#xce;" horiz-adv-x="598" d="M43 0v31l154 88l69 1016l-141 90l4 28h422l-6 -30l-148 -88l-69 -1016l135 -92l2 -27h-422zM117 1354l243 342h56l194 -342h-41l-192 202l-219 -202h-41z" />
<glyph unicode="&#xcf;" horiz-adv-x="598" d="M43 0v31l154 88l69 1016l-141 90l4 28h422l-6 -30l-148 -88l-69 -1016l135 -92l2 -27h-422zM143 1518q0 23 25 52t45 29q19 0 46 -23.5t24 -45.5q-1 -23 -28 -51.5t-46 -28.5q-17 0 -43 24t-23 44zM469 1518q0 23 26 52t44 29q20 0 45 -23.5t22 -45.5q0 -23 -24.5 -51.5 t-44.5 -28.5q-17 0 -44 24t-24 44z" />
<glyph unicode="&#xd0;" horiz-adv-x="1220" d="M43 0l2 31l152 88l34 504h-145l8 57h142l30 455l-139 90l2 28h416q139 0 245 -37.5t179 -112.5t105.5 -194.5t21.5 -277.5q-45 -631 -643 -631h-410zM328 106q107 -30 231 -30q88 0 156 25.5t121.5 81t86.5 149.5t44 225q25 309 -117.5 469t-398.5 160h-50l-34 -506h350 l-8 -57h-347z" />
<glyph unicode="&#xd1;" horiz-adv-x="1290" d="M66 0l2 31l149 88l70 1016l-137 90l2 28h251l553 -964l62 846l-133 92l2 26h362l-2 -30l-149 -88l-80 -1137h-60l-598 1042l-63 -921l139 -92l-2 -27h-368zM465 1331q84 102 108 123q39 33 86 33q44 0 129.5 -28.5t110.5 -28.5q12 0 23 2.5t19 5t19 10.5t16 12t17 16.5 t15.5 16t17 19.5t16.5 20l13 -23q-11 -16 -31 -44.5t-28 -40t-22.5 -30t-23 -26t-21 -16.5t-24.5 -12t-26 -3q-43 0 -128 31t-122 31q-39 0 -75 -21.5t-81 -68.5z" />
<glyph unicode="&#xd2;" horiz-adv-x="1271" d="M157 377q-19 130 5 299q20 135 76 250t131.5 190t164 116.5t175.5 41.5q104 0 187 -45.5t137.5 -133.5t73.5 -218t-5 -299q-20 -135 -76 -250t-131.5 -190t-164 -116.5t-175.5 -41.5q-104 0 -187 45.5t-137.5 133.5t-73.5 218zM274.5 480.5q10.5 -99.5 40 -173.5 t75 -123.5t101 -73.5t117.5 -24q174 0 259 102.5t118 360.5q18 152 -2 272t-69.5 194.5t-118 113t-150.5 38.5q-167 0 -250 -102t-116 -360q-15 -125 -4.5 -224.5zM557 1645l135 51l135 -342h-41z" />
<glyph unicode="&#xd3;" horiz-adv-x="1271" d="M157 377q-19 130 5 299q20 135 76 250t131.5 190t164 116.5t175.5 41.5q104 0 187 -45.5t137.5 -133.5t73.5 -218t-5 -299q-20 -135 -76 -250t-131.5 -190t-164 -116.5t-175.5 -41.5q-104 0 -187 45.5t-137.5 133.5t-73.5 218zM274.5 480.5q10.5 -99.5 40 -173.5 t75 -123.5t101 -73.5t117.5 -24q174 0 259 102.5t118 360.5q18 152 -2 272t-69.5 194.5t-118 113t-150.5 38.5q-167 0 -250 -102t-116 -360q-15 -125 -4.5 -224.5zM530 1354l185 342l129 -51l-273 -291h-41z" />
<glyph unicode="&#xd4;" horiz-adv-x="1271" d="M157 377q-19 130 5 299q20 135 76 250t131.5 190t164 116.5t175.5 41.5q104 0 187 -45.5t137.5 -133.5t73.5 -218t-5 -299q-20 -135 -76 -250t-131.5 -190t-164 -116.5t-175.5 -41.5q-104 0 -187 45.5t-137.5 133.5t-73.5 218zM274.5 480.5q10.5 -99.5 40 -173.5 t75 -123.5t101 -73.5t117.5 -24q174 0 259 102.5t118 360.5q18 152 -2 272t-69.5 194.5t-118 113t-150.5 38.5q-167 0 -250 -102t-116 -360q-15 -125 -4.5 -224.5zM432 1354l244 342h55l195 -342h-41l-193 202l-219 -202h-41z" />
<glyph unicode="&#xd5;" horiz-adv-x="1271" d="M157 377q-19 130 5 299q20 135 76 250t131.5 190t164 116.5t175.5 41.5q104 0 187 -45.5t137.5 -133.5t73.5 -218t-5 -299q-20 -135 -76 -250t-131.5 -190t-164 -116.5t-175.5 -41.5q-104 0 -187 45.5t-137.5 133.5t-73.5 218zM274.5 480.5q10.5 -99.5 40 -173.5 t75 -123.5t101 -73.5t117.5 -24q174 0 259 102.5t118 360.5q18 152 -2 272t-69.5 194.5t-118 113t-150.5 38.5q-167 0 -250 -102t-116 -360q-15 -125 -4.5 -224.5zM391 1331q84 102 110 124q38 32 85 32q44 0 129 -28.5t110 -28.5q10 0 19.5 1.5t19 5.5t16 6.5t16.5 11 t14 12t15 15t14 15t15 18t15 17.5l12 -23q-11 -16 -31 -44.5t-28 -40t-22.5 -30t-23 -26t-21 -16.5t-24.5 -12t-26 -3q-43 0 -128 31t-122 31q-39 0 -75 -21.5t-81 -68.5z" />
<glyph unicode="&#xd6;" horiz-adv-x="1271" d="M157 377q-19 130 5 299q20 135 76 250t131.5 190t164 116.5t175.5 41.5q104 0 187 -45.5t137.5 -133.5t73.5 -218t-5 -299q-20 -135 -76 -250t-131.5 -190t-164 -116.5t-175.5 -41.5q-104 0 -187 45.5t-137.5 133.5t-73.5 218zM274.5 480.5q10.5 -99.5 40 -173.5 t75 -123.5t101 -73.5t117.5 -24q174 0 259 102.5t118 360.5q18 152 -2 272t-69.5 194.5t-118 113t-150.5 38.5q-167 0 -250 -102t-116 -360q-15 -125 -4.5 -224.5zM459 1518q0 23 24.5 52t44.5 29q19 0 46 -23.5t24 -45.5q-1 -23 -28 -51.5t-46 -28.5q-17 0 -42.5 24 t-22.5 44zM784 1518q0 23 26 52t44 29q20 0 45.5 -23.5t22.5 -45.5q0 -23 -25 -51.5t-45 -28.5q-17 0 -44 24t-24 44z" />
<glyph unicode="&#xd7;" d="M135 248l299 293l-260 290l37 37l260 -293l299 293l33 -37l-299 -292l260 -291l-37 -37l-260 293l-299 -293z" />
<glyph unicode="&#xd8;" horiz-adv-x="1269" d="M160 676q21 135 77 250t131.5 190t164 116.5t176.5 41.5q60 0 122 -19l66 164h80l-78 -192q126 -72 181.5 -238.5t19.5 -410.5q-16 -109 -55.5 -205t-94 -167t-120 -122.5t-136.5 -77.5t-141 -26q-80 0 -150 28l-71 -176h-80l86 211q-114 76 -162.5 238.5t-15.5 394.5z M279 705q-22 -183 9.5 -316t104.5 -209l389 957q-64 30 -137 30q-167 0 -250.5 -102.5t-115.5 -359.5zM453 129q70 -43 153 -43q174 0 259 102.5t118 360.5q24 195 -14.5 333.5t-122.5 211.5z" />
<glyph unicode="&#xd9;" horiz-adv-x="1298" d="M150 1225l2 28h419l-2 -30l-151 -88l-49 -682q-11 -166 62 -258.5t235 -92.5q147 0 219 67.5t82 233.5l51 732l-144 92l3 26h378l-2 -30l-163 -88l-50 -680q-15 -222 -134.5 -348.5t-319.5 -126.5q-173 0 -267 112.5t-81 315.5l51 727zM629 1645l135 51l135 -342h-41z " />
<glyph unicode="&#xda;" horiz-adv-x="1298" d="M150 1225l2 28h419l-2 -30l-151 -88l-49 -682q-11 -166 62 -258.5t235 -92.5q147 0 219 67.5t82 233.5l51 732l-144 92l3 26h378l-2 -30l-163 -88l-50 -680q-15 -222 -134.5 -348.5t-319.5 -126.5q-173 0 -267 112.5t-81 315.5l51 727zM602 1354l184 342l129 -51 l-272 -291h-41z" />
<glyph unicode="&#xdb;" horiz-adv-x="1298" d="M150 1225l2 28h419l-2 -30l-151 -88l-49 -682q-11 -166 62 -258.5t235 -92.5q147 0 219 67.5t82 233.5l51 732l-144 92l3 26h378l-2 -30l-163 -88l-50 -680q-15 -222 -134.5 -348.5t-319.5 -126.5q-173 0 -267 112.5t-81 315.5l51 727zM518 1354l244 342h55l195 -342h-41 l-193 202l-219 -202h-41z" />
<glyph unicode="&#xdc;" horiz-adv-x="1298" d="M150 1225l2 28h419l-2 -30l-151 -88l-49 -682q-11 -166 62 -258.5t235 -92.5q147 0 219 67.5t82 233.5l51 732l-144 92l3 26h378l-2 -30l-163 -88l-50 -680q-15 -222 -134.5 -348.5t-319.5 -126.5q-173 0 -267 112.5t-81 315.5l51 727zM545 1518q0 23 24.5 52t44.5 29 q19 0 46 -23.5t24 -45.5q-1 -23 -28 -51.5t-46 -28.5q-17 0 -42.5 24t-22.5 44zM870 1518q0 23 26 52t44 29q20 0 45.5 -23.5t22.5 -45.5q0 -23 -25 -51.5t-45 -28.5q-17 0 -44 24t-24 44z" />
<glyph unicode="&#xdd;" horiz-adv-x="1132" d="M90 1223l2 30h438l-2 -30l-170 -88l244 -492l303 492h-6l-135 88l2 30h385l-2 -30l-148 -86l-354 -572l-31 -446l140 -92l-2 -27h-422l2 31l151 88l29 434h-2l-297 582h-4zM524 1354l185 342l129 -51l-273 -291h-41z" />
<glyph unicode="&#xde;" horiz-adv-x="985" d="M43 0v31l154 88l69 1016l-141 90l4 28h477l-6 -30l-203 -88l-10 -152h115q111 0 197 -24.5t136 -65.5t73 -91.5t18 -105.5q-7 -73 -40 -135.5t-80.5 -105t-105 -72.5t-114.5 -43.5t-109 -13.5q-38 0 -125 6l-6 57l-18 -270l190 -92l2 -27h-477zM348 410q86 -9 176 -9 q117 0 178 48t76 159q5 47 -1 89.5t-28 83t-59 70t-98.5 47t-142.5 17.5h-66z" />
<glyph unicode="&#xdf;" horiz-adv-x="962" d="M-170 -381l12 51q77 -14 127 -14q99 0 143.5 58t59.5 210l47 936h-104l2 62h104l2 30q3 79 25.5 151t56.5 125t76 96.5t86.5 70t85 41t74.5 14.5q122 0 201 -76t79 -205q0 -42 -23 -83.5t-58 -74.5t-75.5 -69.5t-75.5 -67.5t-58 -68.5t-23 -72.5q0 -59 31 -110t114 -109 q179 -123 166 -278q-10 -108 -98.5 -182t-204.5 -74q-62 0 -180 20l29 129h36q5 -3 30 -26.5t53.5 -39.5t58.5 -16q74 0 114 37t45 94q3 52 -7.5 86t-54 81t-134.5 116q-56 41 -91 104t-30 113q4 53 39 107.5t81.5 99t92.5 86.5t77.5 85t31.5 79q0 91 -63 147.5t-181 56.5 q-187 0 -199 -284l-51 -1028q-11 -126 -50.5 -223t-99.5 -156t-133.5 -89t-156.5 -30z" />
<glyph unicode="&#xe0;" horiz-adv-x="886" d="M88 416q10 130 61 253t123.5 198t141.5 75q102 0 239 -45l47 53l29 -20l-53 -793h143l-4 -31l-205 -110l-55 29l18 251q-86 -152 -156.5 -219t-144.5 -67q-40 0 -75 22.5t-63.5 70t-41.5 133.5t-4 200zM207 430q-12 -159 24 -246.5t109 -87.5q17 0 42.5 14.5t60 54.5 t65.5 98.5t57.5 158.5t36.5 223l10 146q-39 26 -94.5 42.5t-99.5 16.5q-100 0 -129 -35q-62 -82 -82 -385zM444 1337l136 52l135 -342h-41z" />
<glyph unicode="&#xe1;" horiz-adv-x="886" d="M88 416q10 130 61 253t123.5 198t141.5 75q102 0 239 -45l47 53l29 -20l-53 -793h143l-4 -31l-205 -110l-55 29l18 251q-86 -152 -156.5 -219t-144.5 -67q-40 0 -75 22.5t-63.5 70t-41.5 133.5t-4 200zM207 430q-12 -159 24 -246.5t109 -87.5q17 0 42.5 14.5t60 54.5 t65.5 98.5t57.5 158.5t36.5 223l10 146q-39 26 -94.5 42.5t-99.5 16.5q-100 0 -129 -35q-62 -82 -82 -385zM356 1047l183 342l129 -52l-271 -290h-41z" />
<glyph unicode="&#xe2;" horiz-adv-x="886" d="M88 416q10 130 61 253t123.5 198t141.5 75q102 0 239 -45l47 53l29 -20l-53 -793h143l-4 -31l-205 -110l-55 29l18 251q-86 -152 -156.5 -219t-144.5 -67q-40 0 -75 22.5t-63.5 70t-41.5 133.5t-4 200zM207 430q-12 -159 24 -246.5t109 -87.5q17 0 42.5 14.5t60 54.5 t65.5 98.5t57.5 158.5t36.5 223l10 146q-39 26 -94.5 42.5t-99.5 16.5q-100 0 -129 -35q-62 -82 -82 -385zM301 1047l207 342h57l160 -342h-39l-158 202l-188 -202h-39z" />
<glyph unicode="&#xe3;" horiz-adv-x="886" d="M88 416q10 130 61 253t123.5 198t141.5 75q102 0 239 -45l47 53l29 -20l-53 -793h143l-4 -31l-205 -110l-55 29l18 251q-86 -152 -156.5 -219t-144.5 -67q-40 0 -75 22.5t-63.5 70t-41.5 133.5t-4 200zM207 430q-12 -159 24 -246.5t109 -87.5q17 0 42.5 14.5t60 54.5 t65.5 98.5t57.5 158.5t36.5 223l10 146q-39 26 -94.5 42.5t-99.5 16.5q-100 0 -129 -35q-62 -82 -82 -385zM240 1092q81 103 106 125q38 32 84 32q44 0 128.5 -28.5t109.5 -28.5q23 0 41 6t39 25t30 28.5t35 40.5l16 -22q-12 -17 -31.5 -44.5t-28.5 -39.5t-23.5 -30.5 t-23 -26t-21 -16.5t-24.5 -12t-26 -3q-43 0 -127.5 30.5t-120.5 30.5q-39 0 -74 -21.5t-81 -68.5z" />
<glyph unicode="&#xe4;" horiz-adv-x="886" d="M88 416q10 130 61 253t123.5 198t141.5 75q102 0 239 -45l47 53l29 -20l-53 -793h143l-4 -31l-205 -110l-55 29l18 251q-86 -152 -156.5 -219t-144.5 -67q-40 0 -75 22.5t-63.5 70t-41.5 133.5t-4 200zM207 430q-12 -159 24 -246.5t109 -87.5q17 0 42.5 14.5t60 54.5 t65.5 98.5t57.5 158.5t36.5 223l10 146q-39 26 -94.5 42.5t-99.5 16.5q-100 0 -129 -35q-62 -82 -82 -385zM303 1210q1 23 27.5 52.5t44.5 29.5q17 0 43.5 -24t23.5 -45q0 -22 -26.5 -51t-44.5 -29t-43 23t-25 44zM594 1210q1 23 27.5 52.5t44.5 29.5q20 0 45 -23.5 t22 -45.5q0 -22 -26.5 -51t-44.5 -29q-15 0 -41.5 23.5t-26.5 43.5z" />
<glyph unicode="&#xe5;" horiz-adv-x="886" d="M88 416q10 130 61 253t123.5 198t141.5 75q102 0 239 -45l47 53l29 -20l-53 -793h143l-4 -31l-205 -110l-55 29l18 251q-86 -152 -156.5 -219t-144.5 -67q-40 0 -75 22.5t-63.5 70t-41.5 133.5t-4 200zM207 430q-12 -159 24 -246.5t109 -87.5q17 0 42.5 14.5t60 54.5 t65.5 98.5t57.5 158.5t36.5 223l10 146q-39 26 -94.5 42.5t-99.5 16.5q-100 0 -129 -35q-62 -82 -82 -385zM379 1247q4 69 54.5 117.5t115.5 48.5q68 0 109.5 -44.5t35.5 -121.5q-4 -69 -54 -117.5t-116 -48.5q-68 0 -108.5 43.5t-36.5 122.5zM430 1245q-3 -54 22 -85.5 t72 -31.5t79.5 32t35.5 85q4 57 -22.5 90t-73.5 33t-78 -32.5t-35 -90.5z" />
<glyph unicode="&#xe6;" horiz-adv-x="1191" d="M88 93q-27 103 29 323q60 200 192 333.5t256 133.5t191 -31l-11 -25q103 115 265 115q68 0 106 -53t35 -121q-1 -51 -29.5 -97.5t-89 -92.5t-130.5 -86.5t-177 -92.5q-14 -164 28.5 -242.5t120.5 -78.5q63 0 114.5 18t109.5 80l18 -24q-58 -62 -104 -99.5t-83.5 -52 t-56.5 -17.5t-53 -3q-218 0 -215 329q-102 -163 -203 -241t-182 -78q-104 0 -131 103zM260 532q-113 -436 51 -436q23 0 49.5 11t61.5 42.5t67.5 79.5t65.5 130t57 186l4 -68q18 156 74 266q-29 21 -74 34.5t-86 13.5q-100 0 -137 -35q-34 -36 -73.5 -102t-59.5 -122z M733 457q88 43 133.5 68t88.5 58t59.5 66t17.5 76q1 29 -12 63.5t-44.5 62.5t-72.5 28q-19 0 -31 -7q-98 -79 -139 -415z" />
<glyph unicode="&#xe7;" horiz-adv-x="643" d="M88 399q19 226 126 384.5t239 158.5q39 0 56.5 -1.5t48.5 -14t63 -39.5l-56 -92l-24 -4q-98 57 -160 57q-47 0 -88 -43q-53 -44 -82 -354q-18 -176 29 -270.5t129 -94.5q28 0 40 1.5t36.5 10.5t52.5 32t67 63l21 -27q-95 -104 -149.5 -141.5t-102.5 -42.5l-58 -111 q179 -45 179 -125q0 -78 -89.5 -118t-226.5 -42l-12 52q129 0 178 10.5t49 50.5q0 16 -4.5 28t-18.5 26t-46 27t-82 25l88 175q-98 2 -158.5 109.5t-44.5 309.5z" />
<glyph unicode="&#xe8;" horiz-adv-x="673" d="M90 416q23 239 127.5 382.5t257.5 143.5q72 0 116.5 -56.5t41.5 -135.5q-2 -46 -28.5 -93.5t-76 -92.5t-132 -79.5t-185.5 -48.5q0 -3 -1 -10t-1 -10q-18 -156 28.5 -247t133.5 -91q64 0 106.5 19t102.5 79l18 -24q-93 -105 -161.5 -138.5t-139.5 -33.5q-42 0 -81.5 25 t-72.5 74.5t-48 137t-5 199.5zM217 479q150 18 222.5 82t74.5 148q2 59 -33 110t-96 51q-26 0 -31 -4q-91 -78 -137 -387zM291 1337l135 52l135 -342h-41z" />
<glyph unicode="&#xe9;" horiz-adv-x="673" d="M90 416q23 239 127.5 382.5t257.5 143.5q72 0 116.5 -56.5t41.5 -135.5q-2 -46 -28.5 -93.5t-76 -92.5t-132 -79.5t-185.5 -48.5q0 -3 -1 -10t-1 -10q-18 -156 28.5 -247t133.5 -91q64 0 106.5 19t102.5 79l18 -24q-93 -105 -161.5 -138.5t-139.5 -33.5q-42 0 -81.5 25 t-72.5 74.5t-48 137t-5 199.5zM217 479q150 18 222.5 82t74.5 148q2 59 -33 110t-96 51q-26 0 -31 -4q-91 -78 -137 -387zM332 1047l182 342l129 -52l-270 -290h-41z" />
<glyph unicode="&#xea;" horiz-adv-x="673" d="M90 416q23 239 127.5 382.5t257.5 143.5q72 0 116.5 -56.5t41.5 -135.5q-2 -46 -28.5 -93.5t-76 -92.5t-132 -79.5t-185.5 -48.5q0 -3 -1 -10t-1 -10q-18 -156 28.5 -247t133.5 -91q64 0 106.5 19t102.5 79l18 -24q-93 -105 -161.5 -138.5t-139.5 -33.5q-42 0 -81.5 25 t-72.5 74.5t-48 137t-5 199.5zM217 479q150 18 222.5 82t74.5 148q2 59 -33 110t-96 51q-26 0 -31 -4q-91 -78 -137 -387zM240 1047l206 342h58l160 -342h-39l-158 202l-188 -202h-39z" />
<glyph unicode="&#xeb;" horiz-adv-x="673" d="M90 416q23 239 127.5 382.5t257.5 143.5q72 0 116.5 -56.5t41.5 -135.5q-2 -46 -28.5 -93.5t-76 -92.5t-132 -79.5t-185.5 -48.5q0 -3 -1 -10t-1 -10q-18 -156 28.5 -247t133.5 -91q64 0 106.5 19t102.5 79l18 -24q-93 -105 -161.5 -138.5t-139.5 -33.5q-42 0 -81.5 25 t-72.5 74.5t-48 137t-5 199.5zM217 479q150 18 222.5 82t74.5 148q2 59 -33 110t-96 51q-26 0 -31 -4q-91 -78 -137 -387zM242 1210q1 23 27 52.5t44 29.5q17 0 44 -24t24 -45q0 -22 -27 -51t-45 -29t-42.5 23t-24.5 44zM532 1210q1 23 27.5 52.5t44.5 29.5q20 0 45.5 -23.5 t22.5 -45.5q0 -22 -27 -51t-45 -29q-15 0 -41.5 23.5t-26.5 43.5z" />
<glyph unicode="&#xec;" horiz-adv-x="512" d="M68 836l6 26l264 80h24l-28 -133l-53 -672h141l-4 -31l-203 -110l-55 29l55 792zM141 1337l135 52l136 -342h-41z" />
<glyph unicode="&#xed;" horiz-adv-x="512" d="M68 836l6 26l264 80h24l-28 -133l-53 -672h141l-4 -31l-203 -110l-55 29l55 792zM188 1047l183 342l129 -52l-271 -290h-41z" />
<glyph unicode="&#xee;" horiz-adv-x="512" d="M68 836l6 26l264 80h24l-28 -133l-53 -672h141l-4 -31l-203 -110l-55 29l55 792zM113 1047l206 342h58l160 -342h-39l-158 202l-188 -202h-39z" />
<glyph unicode="&#xef;" horiz-adv-x="512" d="M66 1210q1 23 27 52.5t44 29.5q17 0 44 -24t24 -45q0 -22 -27 -51t-45 -29t-42.5 23t-24.5 44zM68 836l6 26l264 80h24l-28 -133l-53 -672h141l-4 -31l-203 -110l-55 29l55 792zM356 1210q1 23 27.5 52.5t44.5 29.5q20 0 45.5 -23.5t22.5 -45.5q0 -22 -27 -51t-45 -29 q-15 0 -41.5 23.5t-26.5 43.5z" />
<glyph unicode="&#xf0;" horiz-adv-x="784" d="M90 457q18 235 131 360t293 125q32 0 72 -6q-28 170 -115 281l-342 -179l6 70l297 154q-97 97 -264 145l14 43q189 -37 320 -152l258 136l-6 -70l-209 -109q199 -220 174 -639q-8 -123 -42 -230.5t-80 -180t-101 -125t-105.5 -76.5t-91.5 -24q-36 0 -68.5 16t-62 52.5 t-49.5 90.5t-28.5 136t-0.5 182zM197 510q-10 -211 30.5 -319.5t120.5 -108.5q41 0 79.5 20t75 63t61.5 124t32 192q13 188 4 334q-91 55 -166 55q-34 0 -63 -7.5t-60.5 -30.5t-54 -61.5t-39 -105t-20.5 -155.5z" />
<glyph unicode="&#xf1;" horiz-adv-x="962" d="M72 836l4 26l246 80h24l-24 -319q81 171 167.5 245t157.5 74q99 0 133.5 -93t14.5 -321q-5 -62 -14.5 -126t-23.5 -143t-20 -122h142l-5 -31l-202 -110l-56 29q5 31 18.5 118.5t19 129.5t13 113.5t11.5 137.5q9 126 -1.5 197t-32.5 93t-60 22q-19 0 -47 -16.5t-64 -54.5 t-68.5 -91.5t-61.5 -138t-42 -183.5l-25 -327l-96 -25h-20l59 817zM221 1092q45 57 60.5 76t41.5 44t44.5 31t44.5 6q44 0 128 -28.5t109 -28.5q30 0 57.5 16t42 31t46.5 53l16 -22q-12 -17 -31.5 -44.5t-28.5 -39.5t-23.5 -30.5t-23 -26t-21 -16.5t-24.5 -12t-26 -3 q-43 0 -127.5 30.5t-120.5 30.5q-39 0 -75 -21.5t-81 -68.5z" />
<glyph unicode="&#xf2;" horiz-adv-x="880" d="M90 444q13 121 54 218t99.5 157t127.5 91.5t143 31.5q147 0 225.5 -128.5t55.5 -336.5q-13 -122 -54.5 -218t-101.5 -156t-132 -91.5t-151 -31.5q-137 0 -213 129t-53 335zM221 492q-23 -201 38 -321t171 -120q111 0 161 83.5t71 293.5q24 203 -36 322.5t-171 119.5 q-112 0 -162 -82.5t-72 -295.5zM412 1337l135 52l135 -342h-41z" />
<glyph unicode="&#xf3;" horiz-adv-x="880" d="M90 444q13 121 54 218t99.5 157t127.5 91.5t143 31.5q147 0 225.5 -128.5t55.5 -336.5q-13 -122 -54.5 -218t-101.5 -156t-132 -91.5t-151 -31.5q-137 0 -213 129t-53 335zM221 492q-23 -201 38 -321t171 -120q111 0 161 83.5t71 293.5q24 203 -36 322.5t-171 119.5 q-112 0 -162 -82.5t-72 -295.5zM379 1047l182 342l129 -52l-270 -290h-41z" />
<glyph unicode="&#xf4;" horiz-adv-x="880" d="M90 444q13 121 54 218t99.5 157t127.5 91.5t143 31.5q147 0 225.5 -128.5t55.5 -336.5q-13 -122 -54.5 -218t-101.5 -156t-132 -91.5t-151 -31.5q-137 0 -213 129t-53 335zM221 492q-23 -201 38 -321t171 -120q111 0 161 83.5t71 293.5q24 203 -36 322.5t-171 119.5 q-112 0 -162 -82.5t-72 -295.5zM317 1047l207 342h58l159 -342h-39l-157 202l-189 -202h-39z" />
<glyph unicode="&#xf5;" horiz-adv-x="880" d="M90 444q13 121 54 218t99.5 157t127.5 91.5t143 31.5q147 0 225.5 -128.5t55.5 -336.5q-13 -122 -54.5 -218t-101.5 -156t-132 -91.5t-151 -31.5q-137 0 -213 129t-53 335zM195 1092q81 103 106 125q38 32 84 32q44 0 128.5 -28.5t109.5 -28.5q23 0 41 6t39 25t30 28.5 t35 40.5l16 -22q-12 -17 -31.5 -44.5t-28.5 -39.5t-23.5 -30.5t-23 -26t-21 -16.5t-24.5 -12t-26 -3q-43 0 -127.5 30.5t-120.5 30.5q-39 0 -74 -21.5t-81 -68.5zM221 492q-23 -201 38 -321t171 -120q111 0 161 83.5t71 293.5q24 203 -36 322.5t-171 119.5 q-112 0 -162 -82.5t-72 -295.5z" />
<glyph unicode="&#xf6;" horiz-adv-x="880" d="M90 444q13 121 54 218t99.5 157t127.5 91.5t143 31.5q147 0 225.5 -128.5t55.5 -336.5q-13 -122 -54.5 -218t-101.5 -156t-132 -91.5t-151 -31.5q-137 0 -213 129t-53 335zM221 492q-23 -201 38 -321t171 -120q111 0 161 83.5t71 293.5q24 203 -36 322.5t-171 119.5 q-112 0 -162 -82.5t-72 -295.5zM274 1210q1 23 27.5 52.5t44.5 29.5q17 0 44 -24t24 -45q0 -22 -27 -51t-45 -29t-43 23t-25 44zM565 1210q1 23 27.5 52.5t44.5 29.5q20 0 45.5 -23.5t22.5 -45.5q0 -22 -27 -51t-45 -29q-15 0 -41.5 23.5t-26.5 43.5z" />
<glyph unicode="&#xf7;" d="M113 492l4 51h768l-6 -51h-766zM395 197q4 27 36.5 62.5t51.5 35.5q21 0 52.5 -30t25.5 -56q-4 -27 -38.5 -60.5t-55.5 -33.5q-18 0 -46.5 27.5t-25.5 54.5zM438 811q4 27 36.5 62.5t51.5 35.5q21 0 52.5 -30t25.5 -56q-4 -27 -38.5 -60.5t-55.5 -33.5q-18 0 -46.5 27.5 t-25.5 54.5z" />
<glyph unicode="&#xf8;" horiz-adv-x="878" d="M90 444q13 121 53.5 218t98.5 157t127 91.5t143 31.5q42 0 80 -12l57 139h80l-70 -170q78 -55 114.5 -165.5t19.5 -256.5q-27 -239 -149.5 -368t-287.5 -129q-36 0 -69 10l-58 -137h-79l69 170q-75 55 -110.5 165t-18.5 256zM219 492q-23 -220 51 -345l285 691 q-43 32 -102 32q-112 0 -162 -82.5t-72 -295.5zM326 86q47 -35 102 -35q111 0 160.5 83.5t70.5 293.5q26 223 -51 348z" />
<glyph unicode="&#xf9;" horiz-adv-x="946" d="M74 836l4 26l239 80h23q-51 -346 -66 -545q-4 -98 -2 -159t17.5 -94.5t34 -45.5t47.5 -12q19 0 46.5 18t61 61t63.5 103t55 155t34 206v-4l18 268l94 49h23l-55 -805h141l-4 -31l-203 -110l-55 29l20 284q-151 -329 -305 -329q-98 0 -131.5 92.5t-13.5 320.5 q8 100 61 424zM414 1337l135 52l135 -342h-41z" />
<glyph unicode="&#xfa;" horiz-adv-x="946" d="M74 836l4 26l239 80h23q-51 -346 -66 -545q-4 -98 -2 -159t17.5 -94.5t34 -45.5t47.5 -12q19 0 46.5 18t61 61t63.5 103t55 155t34 206v-4l18 268l94 49h23l-55 -805h141l-4 -31l-203 -110l-55 29l20 284q-151 -329 -305 -329q-98 0 -131.5 92.5t-13.5 320.5 q8 100 61 424zM381 1047l182 342l129 -52l-270 -290h-41z" />
<glyph unicode="&#xfb;" horiz-adv-x="946" d="M74 836l4 26l239 80h23q-51 -346 -66 -545q-4 -98 -2 -159t17.5 -94.5t34 -45.5t47.5 -12q19 0 46.5 18t61 61t63.5 103t55 155t34 206v-4l18 268l94 49h23l-55 -805h141l-4 -31l-203 -110l-55 29l20 284q-151 -329 -305 -329q-98 0 -131.5 92.5t-13.5 320.5 q8 100 61 424zM324 1047l206 342h58l160 -342h-39l-158 202l-189 -202h-38z" />
<glyph unicode="&#xfc;" horiz-adv-x="946" d="M74 836l4 26l239 80h23q-51 -346 -66 -545q-4 -98 -2 -159t17.5 -94.5t34 -45.5t47.5 -12q19 0 46.5 18t61 61t63.5 103t55 155t34 206v-4l18 268l94 49h23l-55 -805h141l-4 -31l-203 -110l-55 29l20 284q-151 -329 -305 -329q-98 0 -131.5 92.5t-13.5 320.5 q8 100 61 424zM311 1210q1 23 27.5 52.5t44.5 29.5q17 0 44 -24t24 -45q0 -22 -27 -51t-45 -29t-43 23t-25 44zM602 1210q1 23 27.5 52.5t44.5 29.5q20 0 45 -23.5t22 -45.5q0 -22 -26.5 -51t-44.5 -29q-15 0 -41.5 23.5t-26.5 43.5z" />
<glyph unicode="&#xfd;" horiz-adv-x="835" d="M-131 -395l8 53q21 -2 78 -2q160 0 259.5 75.5t195.5 248.5h-76l-168 837l-168 19l4 26l242 80h24l183 -885q3 6 9 18.5t9 18.5q79 154 132.5 310t53.5 255q0 34 -1.5 52t-7 39t-17 32.5t-32 22.5t-52.5 20l6 27q51 33 176 90q14 0 26.5 -10t22.5 -42.5t10 -84.5 q0 -86 -68.5 -298.5t-172.5 -426.5q-44 -89 -87 -161.5t-101 -146.5t-118.5 -124t-136.5 -81.5t-157 -31.5q-28 0 -49 6q-4 29 -20 64q-7 16 -7 0zM-106 -459h2q0 -4 -2 0zM430 1047l182 342l129 -52l-270 -290h-41z" />
<glyph unicode="&#xfe;" horiz-adv-x="903" d="M-4 -420l115 53l116 1645h-135l4 29l234 112h41l-37 -239l-37 -527q166 289 332 289q40 0 75 -22.5t64 -70t42 -133.5t5 -200q-10 -129 -61.5 -252.5t-124 -198.5t-140.5 -75q-136 0 -237 35l-27 -361l195 -80l-2 -35h-422v31zM260 147q51 -25 116.5 -45t106.5 -20 q100 0 129 35q64 80 84 385q10 160 -25 247t-108 87q-20 0 -49 -14.5t-68 -55.5t-73.5 -101t-64 -163t-40.5 -230z" />
<glyph unicode="&#xff;" horiz-adv-x="835" d="M-131 -395l8 53q21 -2 78 -2q160 0 259.5 75.5t195.5 248.5h-76l-168 837l-168 19l4 26l242 80h24l183 -885q3 6 9 18.5t9 18.5q79 154 132.5 310t53.5 255q0 34 -1.5 52t-7 39t-17 32.5t-32 22.5t-52.5 20l6 27q51 33 176 90q14 0 26.5 -10t22.5 -42.5t10 -84.5 q0 -86 -68.5 -298.5t-172.5 -426.5q-44 -89 -87 -161.5t-101 -146.5t-118.5 -124t-136.5 -81.5t-157 -31.5q-28 0 -49 6q-4 29 -20 64q-7 16 -7 0zM-106 -459h2q0 -4 -2 0zM319 1210q1 23 27.5 52.5t44.5 29.5q17 0 44 -24t24 -45q0 -22 -27 -51t-45 -29t-43 23t-25 44z M610 1210q1 23 27.5 52.5t44.5 29.5q20 0 45.5 -23.5t22.5 -45.5q0 -22 -27 -51t-45 -29q-15 0 -41.5 23.5t-26.5 43.5z" />
<glyph unicode="&#x152;" horiz-adv-x="1622" d="M165 377q-19 130 5 299q20 135 76 250t131.5 190t164 116.5t175.5 41.5q75 0 139 -21h717l-55 -243h-48l-84 176h-346l-4 -49q53 -59 88 -140l-96 4l-22 -323h122l246 16l-22 -96l-222 27h-129l-22 -314l63 -18q-26 -49 -71 -100l-8 -125h348l-2 -31l178 225h45l-68 -262 h-770q-61 -20 -131 -20q-104 0 -187 45.5t-137.5 133.5t-73.5 218zM282.5 480.5q10.5 -99.5 40 -173.5t75 -123.5t101 -73.5t117.5 -24q143 0 220 66l61 901q-90 114 -244 114q-167 0 -250 -102t-116 -360q-15 -125 -4.5 -224.5z" />
<glyph unicode="&#x153;" horiz-adv-x="1241" d="M90 444q13 121 54.5 218t100 157t129 91t146.5 30q73 2 136 -51t96 -146q105 199 309 199q68 0 105.5 -55.5t35.5 -136.5q-2 -46 -26.5 -93.5t-72.5 -92.5t-131.5 -79t-191.5 -47q0 -4 -1 -11t-1 -11q-18 -156 27.5 -247t132.5 -91q64 0 106.5 19t102.5 79l18 -24 q-95 -107 -163 -139.5t-154 -32.5q-52 0 -98.5 46t-69.5 138q-57 -90 -136.5 -137t-166.5 -47q-151 0 -230.5 127.5t-56.5 336.5zM221 492q-23 -201 38 -321t171 -120q111 0 161 83.5t71 293.5q24 203 -36 322.5t-171 119.5q-112 0 -162 -82.5t-72 -295.5zM786 481 q147 14 221 79t76 149q2 60 -33.5 115t-97.5 55q-18 0 -30 -7q-90 -74 -136 -391z" />
<glyph unicode="&#x178;" horiz-adv-x="1132" d="M90 1223l2 30h438l-2 -30l-170 -88l244 -492l303 492h-6l-135 88l2 30h385l-2 -30l-148 -86l-354 -572l-31 -446l140 -92l-2 -27h-422l2 31l151 88l29 434h-2l-297 582h-4zM442 1518q0 23 25 52t45 29q19 0 46 -23.5t24 -45.5q-1 -23 -28 -51.5t-46 -28.5q-17 0 -43 24 t-23 44zM768 1518q0 23 26 52t44 29q20 0 45 -23.5t22 -45.5q0 -23 -24.5 -51.5t-44.5 -28.5q-17 0 -44 24t-24 44z" />
<glyph unicode="&#x2c6;" horiz-adv-x="983" d="M352 1047l207 342h57l160 -342h-39l-157 202l-189 -202h-39z" />
<glyph unicode="&#x2dc;" horiz-adv-x="983" d="M272 1092q45 57 60.5 76t41.5 44t44.5 31t44.5 6q44 0 128 -28.5t109 -28.5q30 0 57.5 16t42 31t46.5 53l16 -22q-12 -17 -31.5 -44.5t-28.5 -39.5t-23.5 -30.5t-23 -26t-21 -16.5t-24.5 -12t-26 -3q-43 0 -127.5 30.5t-120.5 30.5q-39 0 -74 -21.5t-81 -68.5z" />
<glyph unicode="&#x2000;" horiz-adv-x="860" />
<glyph unicode="&#x2001;" horiz-adv-x="1720" />
<glyph unicode="&#x2002;" horiz-adv-x="860" />
<glyph unicode="&#x2003;" horiz-adv-x="1720" />
<glyph unicode="&#x2004;" horiz-adv-x="573" />
<glyph unicode="&#x2005;" horiz-adv-x="430" />
<glyph unicode="&#x2006;" horiz-adv-x="286" />
<glyph unicode="&#x2007;" horiz-adv-x="286" />
<glyph unicode="&#x2008;" horiz-adv-x="215" />
<glyph unicode="&#x2009;" horiz-adv-x="344" />
<glyph unicode="&#x200a;" horiz-adv-x="95" />
<glyph unicode="&#x2010;" horiz-adv-x="595" d="M141 492l2 30l33 37h377l-2 -31l-31 -36h-379z" />
<glyph unicode="&#x2011;" horiz-adv-x="595" d="M141 492l2 30l33 37h377l-2 -31l-31 -36h-379z" />
<glyph unicode="&#x2012;" horiz-adv-x="595" d="M141 492l2 30l33 37h377l-2 -31l-31 -36h-379z" />
<glyph unicode="&#x2013;" horiz-adv-x="868" d="M141 492l2 30l33 37h649l-2 -31l-26 -36h-656z" />
<glyph unicode="&#x2014;" horiz-adv-x="1339" d="M141 492l2 30l33 37h1120l-2 -31l-26 -36h-1127z" />
<glyph unicode="&#x2018;" horiz-adv-x="477" d="M150 1094q7 149 208 340l27 -25q-46 -68 -75 -128t-29 -89q3 -33 29.5 -67.5t27.5 -55.5q-3 -31 -34 -66.5t-54 -35.5q-29 0 -66 40t-34 87z" />
<glyph unicode="&#x2019;" horiz-adv-x="477" d="M145 981q105 155 105 217q-3 33 -29.5 67.5t-27.5 55.5q3 31 34 66.5t54 35.5q29 0 66 -40t34 -87q-7 -148 -209 -340z" />
<glyph unicode="&#x201a;" horiz-adv-x="477" d="M129 -266q46 68 75 128t29 89q-3 33 -29.5 67.5t-27.5 55.5q3 31 34 66.5t54 35.5q29 0 66.5 -40t34.5 -87q-7 -148 -209 -340z" />
<glyph unicode="&#x201c;" horiz-adv-x="673" d="M133 1094q7 148 209 340l27 -25q-105 -155 -105 -217q3 -33 30 -67.5t28 -55.5q-3 -31 -34.5 -66.5t-54.5 -35.5q-29 0 -66 40t-34 87zM403 1094q7 148 209 340l27 -25q-46 -68 -75 -128t-29 -89q3 -33 29.5 -67.5t27.5 -55.5q-3 -31 -34 -66.5t-54 -35.5q-29 0 -66.5 40 t-34.5 87z" />
<glyph unicode="&#x201d;" horiz-adv-x="747" d="M129 977q46 68 75 128t29 89q-3 33 -29.5 67.5t-27.5 55.5q3 31 34 66.5t54 35.5q29 0 66.5 -40t34.5 -87q-7 -148 -209 -340zM399 977q105 155 105 217q-3 33 -30 67.5t-28 55.5q3 31 34.5 66.5t54.5 35.5q29 0 66 -40t34 -87q-7 -148 -209 -340z" />
<glyph unicode="&#x201e;" horiz-adv-x="747" d="M129 -266q46 68 75 128t29 89q-3 33 -29.5 67.5t-27.5 55.5q3 31 34 66.5t54 35.5q29 0 66.5 -40t34.5 -87q-7 -148 -209 -340zM399 -266q105 155 105 217q-3 33 -30 67.5t-28 55.5q3 31 34.5 66.5t54.5 35.5q29 0 66 -40t34 -87q-7 -148 -209 -340z" />
<glyph unicode="&#x2022;" horiz-adv-x="704" d="M197 625q5 48 65 110t103 62q38 0 98.5 -52t56.5 -98q-4 -44 -66 -107t-100 -63q-39 0 -99.5 52t-57.5 96z" />
<glyph unicode="&#x2026;" horiz-adv-x="1431" d="M164 70q3 30 38.5 69t57.5 39q27 0 63 -32t33 -60q-3 -30 -39 -68t-61 -38q-23 0 -57.5 30.5t-34.5 59.5zM641 70q3 30 38.5 69t57.5 39q27 0 63.5 -32t33.5 -60q-3 -30 -39.5 -68t-61.5 -38q-23 0 -57.5 30.5t-34.5 59.5zM1118 70q3 30 38.5 69t57.5 39q27 0 63.5 -32 t33.5 -60q-3 -30 -39.5 -68t-61.5 -38q-23 0 -57.5 30.5t-34.5 59.5z" />
<glyph unicode="&#x202f;" horiz-adv-x="344" />
<glyph unicode="&#x2039;" horiz-adv-x="575" d="M90 516l352 430l23 -22l-236 -408l179 -407l-27 -23z" />
<glyph unicode="&#x203a;" horiz-adv-x="575" d="M111 109l235 407l-178 408l27 22l290 -430l-352 -430z" />
<glyph unicode="&#x205f;" horiz-adv-x="430" />
<glyph unicode="&#x20ac;" d="M18 459l2 35l29 43h105q0 38 4 116q1 9 2 28t2 28h-133l2 32l32 43h111q44 230 182.5 360t335.5 130q149 0 254 -55l-59 -220h-41l-109 170q-22 5 -114 5q-64 0 -111 -8.5t-83 -29.5t-59.5 -49.5t-40.5 -75t-26.5 -99t-17.5 -128.5h497l-2 -32l-32 -43h-469 q0 -5 -1.5 -14.5t-1.5 -14.5q-5 -68 -2 -143h431l-3 -33l-28 -45h-395q21 -202 109 -306t224 -104q48 0 86 12l172 236l45 -2l-61 -238q-161 -77 -324 -77q-171 0 -266.5 120.5t-107.5 358.5h-138z" />
<glyph unicode="&#x2122;" horiz-adv-x="1699" d="M160 1268l24 153h523l-39 -153h-27l-51 108h-127l-41 -590l90 -51l-2 -12h-272l2 16l100 47l41 590h-102l-89 -108h-30zM717 723l2 16l86 47l86 568l-80 49v18h168l176 -547l262 547h180l-2 -20l-86 -47l-10 -568l78 -51l2 -12h-250l-2 16l88 47l10 535l-268 -547 l-53 -31l-174 576l-72 -533l78 -51v-12h-219z" />
<glyph unicode="&#x25fc;" horiz-adv-x="942" d="M0 0v942h942v-942h-942z" />
</font>
</defs>
</svg>
