<?xml version="1.0" standalone="no"?>
<!DOCTYPE svg PUBLIC "-//W3C//DTD SVG 1.1//EN" "http://www.w3.org/Graphics/SVG/1.1/DTD/svg11.dtd" >
<svg xmlns="http://www.w3.org/2000/svg">
<metadata></metadata>
<defs>
<font id="ancizar_sansthin_italic" horiz-adv-x="995" >
<font-face units-per-em="2048" ascent="1536" descent="-512" />
<missing-glyph horiz-adv-x="466" />
<glyph unicode="&#xfb01;" horiz-adv-x="894" d="M-190 -455l14 80q97 -18 141 -18q69 0 118 80t60 256l68 905h-129l16 63l117 11h2l10 129q7 100 40 178t84 125.5t113.5 71.5t133.5 24q130 0 209 -29l-25 -94q-98 45 -250 45q-90 0 -144.5 -57t-61.5 -168l-17 -225h383l82 18l-67 -940h-89l62 848h-377l-63 -842 q-19 -243 -112.5 -355t-244.5 -112q-9 0 -34 2.5t-39 3.5z" />
<glyph unicode="&#xfb02;" horiz-adv-x="954" d="M-190 -455l14 80q97 -18 141 -18q69 0 118 80t60 256l68 905h-129l16 63l117 11h2l10 129q7 100 40 178t84 125.5t113.5 71.5t133.5 24q78 0 145 -14l60 14q-90 -1306 -90 -1309q0 -73 55 -73q47 0 117 57l20 -53q-63 -48 -102.5 -69t-71.5 -21q-42 0 -76 33t-34 91v3v-3 q1 -1 2.5 16.5t7 89t14 201t24.5 367.5t38 574q-87 18 -175 18q-90 0 -144.5 -57t-61.5 -168l-17 -225h228l-23 -74h-211l-63 -842q-19 -243 -112.5 -355t-244.5 -112q-9 0 -34 2.5t-39 3.5z" />
<glyph unicode="&#xfb03;" horiz-adv-x="1366" d="M-190 -455l14 80q97 -18 141 -18q69 0 118 80t60 256l72 905h-133l16 63l117 11h6l6 88q8 96 32.5 168t59 115.5t81.5 70t93.5 36t102.5 9.5q40 0 72 -8l-19 -82q-59 12 -151 12q-67 0 -116.5 -47t-55.5 -147l-17 -215h379l10 129q7 100 40 178t84 125.5t113.5 71.5 t133.5 24q130 0 209 -29l-27 -94q-96 45 -247 45q-90 0 -145 -57t-64 -168l-17 -225h385l82 18l-67 -940h-88l61 848h-379l-63 -842q-19 -243 -112.5 -355t-244.5 -112q-7 0 -33 2.5t-40 3.5l16 80q97 -18 141 -18q67 0 116 80t62 256l68 905h-379l-63 -842 q-19 -243 -112.5 -355t-244.5 -112q-9 0 -34 2.5t-39 3.5z" />
<glyph unicode="&#xfb04;" horiz-adv-x="1427" d="M-190 -455l14 80q97 -18 141 -18q69 0 118 80t60 256l72 905h-133l16 63l117 11h6l6 88q8 96 32.5 168t59 115.5t81.5 70t93.5 36t102.5 9.5q40 0 72 -8l-19 -82q-59 12 -151 12q-67 0 -116.5 -47t-55.5 -147l-17 -215h381l10 129q7 100 40 178t84 125.5t113.5 71.5 t133.5 24q77 0 143 -12l60 12q-60 -890 -87 -1264q-3 -42 -3 -45q0 -73 57 -73q19 0 52.5 16t64.5 41l20 -53q-118 -90 -174 -90q-42 0 -76 33t-34 91q2 2 86 1248q-90 18 -174 18q-90 0 -145 -57t-64 -168l-17 -225h234l-23 -74h-217l-63 -842q-19 -243 -112.5 -355 t-244.5 -112q-7 0 -33 2.5t-40 3.5l16 80q97 -18 141 -18q67 0 116 80t62 256l68 905h-381l-63 -842q-19 -243 -112.5 -355t-244.5 -112q-9 0 -34 2.5t-39 3.5zM1094 105v4v-3v-1z" />
<glyph horiz-adv-x="0" />
<glyph horiz-adv-x="682" />
<glyph unicode=" "  horiz-adv-x="466" />
<glyph unicode="&#x09;" horiz-adv-x="466" />
<glyph unicode="&#xa0;" horiz-adv-x="466" />
<glyph unicode="!" horiz-adv-x="610" d="M164 86q3 30 42.5 69.5t65.5 39.5t61.5 -35.5t35.5 -63.5q-3 -36 -43.5 -75t-65.5 -39q-28 0 -62.5 36t-33.5 68zM231 305q18 227 25.5 490.5t-2.5 447.5l156 64q-65 -500 -97 -963z" />
<glyph unicode="&#x22;" horiz-adv-x="616" d="M182 1016l8 403h97l-64 -403h-41zM432 1016l2 403h96l-57 -403h-41z" />
<glyph unicode="#" horiz-adv-x="985" d="M25 393l2 31l14 49h209l84 268h-223l2 31l14 47h231l136 434h94l-135 -434h235l135 434h95l-136 -434h183l-2 -31l-15 -47h-190l-84 -268h205l-2 -31l-15 -49h-213l-123 -393h-94l123 393h-236l-122 -393h-95l123 393h-200zM344 473h236l84 268h-236z" />
<glyph unicode="$" d="M96 20l33 84q72 -22 160 -33t153 -8q124 -3 200.5 68t76.5 170q0 49 -6 81.5t-25 67.5t-57.5 65.5t-100.5 62.5l-84 43q-139 70 -198.5 135t-59.5 172q0 136 96.5 230.5t247.5 111.5l-4 246h123l-41 -244q171 -3 244 -35l-25 -84q-91 28 -161.5 37.5t-165.5 9.5 q-92 0 -154.5 -68t-62.5 -151q0 -86 39.5 -145t158.5 -119l86 -45q127 -65 187.5 -131t60.5 -160q0 -142 -82.5 -240t-224.5 -137l6 -280h-123l43 266q-44 -8 -102 -8q-77 0 -130 7t-108 31z" />
<glyph unicode="%" horiz-adv-x="1165" d="M78 0l921 1253h93l-916 -1253h-98zM88 971q5 123 90 213t205 90q104 0 166 -80.5t57 -194.5q-9 -126 -94.5 -213.5t-202.5 -87.5q-110 0 -170 78.5t-51 194.5zM172 987q-9 -107 35 -162t135 -55q159 0 172 213q9 106 -35 160.5t-133 54.5q-86 0 -127 -53.5t-47 -157.5z M559 254q9 124 94 213.5t203 89.5q106 0 168 -79.5t53 -194.5q-8 -126 -92.5 -213.5t-202.5 -87.5q-107 0 -168 79t-55 193zM649 270q-18 -215 168 -215q159 0 172 211q7 107 -36.5 162t-133.5 55q-85 0 -124.5 -54t-45.5 -159z" />
<glyph unicode="&#x26;" horiz-adv-x="1210" d="M86 244q0 122 91 234t226 196q-141 177 -141 280q0 90 49 164.5t122 114t149 39.5q59 0 106 -6t83.5 -19.5t50.5 -20t42 -22.5l-33 -80q-50 22 -85 34.5t-94 25t-117 12.5q-78 0 -135.5 -56t-57.5 -141q0 -38 9.5 -71t40 -79.5t50 -72t79.5 -97.5t89 -108 q185 -226 232 -288q131 157 131 346q0 132 -53 229l81 37q58 -86 58 -223q0 -107 -49.5 -222.5t-135.5 -213.5q83 -111 119.5 -191.5t36.5 -153.5q0 -179 -151 -313l-68 64q41 35 55 47.5t40 38.5t34 42t16 40.5t7 50.5q0 44 -36 113t-124 190q-91 -83 -200.5 -130.5 t-223.5 -47.5q-122 0 -207.5 76t-85.5 182zM176 285q0 -93 75 -155t181 -62q177 0 338 141q-109 148 -274 352q-7 9 -24 29.5t-26 32.5q-28 -15 -53 -30t-68 -48.5t-73 -68t-53 -86t-23 -105.5z" />
<glyph unicode="'" horiz-adv-x="372" d="M184 1016l6 403h97l-60 -403h-43z" />
<glyph unicode="(" horiz-adv-x="636" d="M147 567q10 130 35 235t73 206t126.5 191t189.5 171l68 -63q-190 -143 -277.5 -323.5t-103.5 -416.5q-30 -472 279 -741l-80 -64q-187 158 -258 353t-52 452z" />
<glyph unicode=")" horiz-adv-x="636" d="M-2 -178q190 143 277.5 323.5t103.5 415.5q30 473 -279 742l80 63q186 -158 257 -352.5t52 -452.5q-20 -264 -114 -454.5t-309 -348.5z" />
<glyph unicode="*" horiz-adv-x="894" d="M131 852q15 41 112 103t181 75l12 -24q-44 -33 -111.5 -97.5t-113.5 -117.5zM141 1126l25 107q43 3 131 -44.5t143 -109.5l-18 -26q-48 21 -131.5 43.5t-149.5 29.5zM408 1370l100 45q23 -86 18 -172q-8 -95 -34 -151l-29 -9q-12 108 -55 287zM418 831q7 93 35 166l34 2 q10 -111 54 -282l-103 -51q-26 63 -20 165zM504 1004l20 26q40 -18 126.5 -41.5t150.5 -34.5l-17 -104q-36 -8 -129 40.5t-151 113.5zM506 1081q153 119 221 199l88 -57q-19 -43 -110.5 -102t-180.5 -77z" />
<glyph unicode="+" d="M84 498l4 90h367l24 354h96l-24 -354h360l-4 -90h-362l-27 -369h-96l27 369h-365z" />
<glyph unicode="," horiz-adv-x="454" d="M78 -264q14 36 41 102t43 107t18 51q1 6 -28.5 37.5t-28.5 58.5q1 22 30.5 46t49.5 24q21 0 55 -36.5t33 -72.5q0 -9 -2 -20t-7 -25.5t-9 -27.5t-13 -34.5t-15.5 -36.5t-19.5 -43.5t-21 -46t-24 -53.5t-26 -57z" />
<glyph unicode="-" horiz-adv-x="622" d="M104 475l17 70h393l4 -21l-22 -69h-387z" />
<glyph unicode="." horiz-adv-x="454" d="M90 66q0 27 33.5 62.5t56.5 35.5q22 0 56.5 -29.5t31.5 -54.5q0 -28 -34 -63t-58 -35q-23 0 -56 28.5t-30 55.5z" />
<glyph unicode="/" horiz-adv-x="624" d="M4 -225l512 1644h105l-512 -1644h-105z" />
<glyph unicode="0" d="M88 473q0 392 126 595.5t347 203.5q150 0 246.5 -131.5t97.5 -343.5q-1 -175 -25 -313.5t-66 -231.5t-102.5 -154.5t-131 -88.5t-154.5 -27q-146 0 -242 131t-96 360zM182 557q0 -248 84.5 -374t237.5 -124q53 -1 97 18t83.5 66t67 120.5t43.5 188.5t16 263 q-1 221 -86 349t-227 128q-151 0 -233.5 -157.5t-82.5 -477.5z" />
<glyph unicode="1" d="M246 1122q88 24 379 131h67l-88 -1253h-86l82 1165l-334 -133z" />
<glyph unicode="2" d="M88 0l14 74q139 136 228.5 227.5t173 187t129.5 165.5t73.5 139.5t28.5 132.5q0 122 -69.5 194t-188.5 72q-44 0 -96.5 -15t-87 -30.5t-88.5 -42.5l-25 82q158 86 314 86q142 0 241 -87t99 -231q0 -86 -37.5 -175.5t-123.5 -200t-196.5 -224.5t-283.5 -278l626 8l-16 -84 h-715z" />
<glyph unicode="3" d="M82 18l33 88q68 -22 158.5 -34.5t158.5 -12.5q153 0 234.5 73.5t81.5 203.5q0 133 -94 211t-244 78q-20 0 -60 -2t-55 -2l-10 73q201 0 324.5 77.5t123.5 201.5q0 96 -65.5 157.5t-171.5 61.5q-130 0 -258 -66l-29 76q183 70 317 70q128 0 209.5 -76t81.5 -192 q0 -65 -25 -121.5t-67 -96t-88.5 -66t-97.5 -42.5q140 -25 217.5 -107t77.5 -204q0 -55 -18.5 -109t-57 -104t-92.5 -88.5t-130.5 -61t-164.5 -22.5q-141 0 -289 36z" />
<glyph unicode="4" d="M27 307l4 60l674 886h75l-61 -864h209l-37 -82h-176l-23 -307h-90l21 307h-596zM135 389h494l47 707z" />
<glyph unicode="5" d="M68 16l41 90q131 -47 305 -47q156 0 242.5 86.5t86.5 210.5q0 135 -101.5 216t-256.5 81q-105 0 -188 -22l88 622h589l-20 -86h-508l-59 -446q64 14 147 14q169 0 282.5 -91.5t110.5 -242.5q3 -182 -138 -300.5t-398 -118.5q-40 0 -114 10.5t-109 23.5z" />
<glyph unicode="6" d="M111 475q0 388 140.5 592.5t424.5 204.5q99 0 213 -29l-31 -92q-129 45 -295 45q-139 0 -231.5 -134.5t-116.5 -414.5q208 101 334 101q139 0 226 -84.5t87 -223.5q0 -94 -27.5 -173t-70 -130.5t-96.5 -87.5t-105.5 -51.5t-97.5 -15.5q-154 0 -254 125.5t-100 367.5z M207 479q-1 -203 84.5 -311.5t202.5 -108.5q131 0 203.5 81.5t72.5 248.5q0 126 -72.5 203.5t-203.5 77.5q-33 0 -76.5 -9.5t-72.5 -19t-76 -26.5t-58 -21q-4 -74 -4 -115z" />
<glyph unicode="7" d="M104 1167l29 86h772l-2 -77q-592 -1192 -596 -1192l-92 22l602 1161h-713z" />
<glyph unicode="8" d="M86 274q0 46 15 88.5t35.5 72.5t58.5 64t66 54t77 53.5t74 52.5q-114 69 -166.5 135.5t-52.5 168.5q0 89 51.5 161t132.5 109.5t172 36.5q127 2 214 -61.5t87 -168.5q0 -44 -14.5 -85.5t-31.5 -69.5t-53.5 -62.5t-57.5 -50.5t-68 -49.5t-62 -44.5q158 -88 224.5 -158.5 t66.5 -165.5q0 -107 -66.5 -194.5t-162.5 -132.5t-195 -45q-152 0 -248 75.5t-96 216.5zM184 303q0 -111 86.5 -178.5t221.5 -67.5q32 0 67.5 7t73.5 24t68 42.5t49.5 66t19.5 90.5q0 103 -62.5 169t-242.5 171q-55 -36 -84.5 -56.5t-73 -57t-66 -65t-40 -67t-17.5 -78.5z M279 995q0 -87 48 -148t181 -138q145 98 200.5 156t55.5 130q0 88 -73.5 144.5t-194.5 56.5q-88 0 -152.5 -53.5t-64.5 -147.5z" />
<glyph unicode="9" d="M102 10l31 86q129 -39 199 -39q179 0 301 135t153 414q-200 -100 -331 -100q-139 0 -226.5 84.5t-87.5 222.5q0 94 27 173t70 130.5t96.5 88t105 52t97.5 15.5q154 0 254 -126t100 -368q0 -377 -163 -586.5t-443 -209.5q-31 0 -91.5 8.5t-91.5 19.5zM233 860 q0 -122 74.5 -199t200.5 -77q33 0 77.5 9.5t73 18.5t77.5 26.5t57 20.5q4 74 4 115q1 203 -84.5 311.5t-202.5 108.5q-129 0 -203 -83t-74 -251z" />
<glyph unicode=":" horiz-adv-x="454" d="M90 66q0 27 33.5 62.5t56.5 35.5q22 0 56.5 -29.5t31.5 -54.5q0 -28 -34 -63t-58 -35q-23 0 -56 28.5t-30 55.5zM131 639q0 27 33.5 62.5t56.5 35.5q22 0 56.5 -29.5t31.5 -54.5q0 -28 -34 -63t-58 -35q-23 0 -56 28.5t-30 55.5z" />
<glyph unicode=";" horiz-adv-x="454" d="M63 -264q15 38 41.5 103t43 106t18.5 51q1 6 -28.5 37.5t-28.5 58.5q1 22 30 46t49 24q21 0 55 -36.5t33 -72.5q0 -9 -2 -20t-7 -25.5t-9 -27.5t-13 -34.5t-15.5 -36.5t-19.5 -43.5t-21 -46t-24 -53.5t-26 -57zM141 639q0 27 33.5 62.5t56.5 35.5q22 0 56.5 -29.5 t31.5 -54.5q0 -28 -34 -63t-58 -35q-23 0 -56 28.5t-30 55.5z" />
<glyph unicode="=" d="M129 397l4 31l39 51h674l-4 -30l-41 -52h-672zM145 610l5 31l38 51h674l-4 -30l-41 -52h-672z" />
<glyph unicode="?" horiz-adv-x="768" d="M115 1174q77 40 150 63t167 23q129 0 211.5 -80.5t75.5 -206.5q-8 -88 -61.5 -153.5t-165.5 -153.5q-42 -33 -57.5 -46t-37.5 -33.5t-29 -34.5t-8 -30q-4 -25 19 -81t53 -99l-78 -39q-31 37 -44 54t-27 54t-11 76q2 25 10.5 47t17 37t34.5 40t40.5 37.5t57.5 47.5 q92 71 127.5 122.5t42.5 129.5q7 106 -59.5 171t-175.5 65q-63 0 -220 -94zM240 88q0 24 38.5 59t63.5 35q20 0 52.5 -32.5t31.5 -57.5q-3 -25 -40.5 -58.5t-57.5 -33.5q-26 0 -58.5 31.5t-29.5 56.5z" />
<glyph unicode="@" horiz-adv-x="1556" d="M88 436q14 185 72 340.5t140.5 260t185.5 178t206 106.5t203 33q136 0 245 -38t185.5 -110t113.5 -183.5t27 -252.5q-15 -237 -171.5 -427.5t-372.5 -240.5l-7 258q-45 -118 -121.5 -183.5t-134.5 -65.5q-81 0 -118 101t-25 259q6 88 31.5 170.5t69 153.5t114 114 t158.5 43q50 0 92.5 -11.5t52.5 -35.5l-51 -717q160 78 262 224.5t119 345.5q23 232 -112 369t-386 137q-116 0 -220 -44t-183 -121t-139 -179t-93.5 -220.5t-40.5 -242.5q-8 -167 29 -299t109 -214t168 -124.5t209 -42.5q51 0 98.5 6.5t91.5 20t69 22.5t65.5 27t45.5 20 l12 -72q-133 -59 -212 -80q-115 -30 -242 -30q-75 0 -151.5 24.5t-153 82t-133 141t-87 212.5t-20.5 285zM604 485q-5 -83 2.5 -142.5t25 -89.5t37 -43t42.5 -13q16 0 39 14.5t51.5 50t54.5 86t48 133t32 181.5l12 182q-62 24 -123 24q-59 0 -101 -29t-66.5 -83.5t-37 -120 t-16.5 -150.5z" />
<glyph unicode="A" horiz-adv-x="1077" d="M-12 0l561 1253h90l350 -1253h-102l-131 477h-461l-209 -477h-98zM332 563h401l-153 561z" />
<glyph unicode="B" horiz-adv-x="974" d="M133 0l88 1253h291q156 0 240 -71t84 -197q0 -112 -62 -197.5t-164 -132.5q34 -3 68.5 -12t73 -30t67 -50.5t47.5 -77t19 -106.5q0 -177 -141.5 -278t-358.5 -101h-252zM238 74l215 2q166 0 248.5 67.5t82.5 188.5q0 127 -81.5 196.5t-235.5 69.5q0 2 -33 2h-36h-43 q-46 0 -81 -2zM281 680h168q124 0 204 68t80 184q0 119 -72 184.5t-215 65.5h-131z" />
<glyph unicode="C" horiz-adv-x="1021" d="M88 500q0 120 20.5 231t65 210.5t108.5 172.5t158 115.5t207 42.5q77 0 169 -19.5t153 -44.5l-39 -90q-180 74 -340 74q-59 0 -113 -18.5t-107.5 -66t-92.5 -120t-63 -190t-24 -267.5q0 -117 32 -209t84.5 -146t115 -81.5t129.5 -27.5q37 0 75 4t62.5 8t61 15t48 14.5 t47.5 17t38 14.5l28 -67q-77 -28 -117 -41.5t-122 -32t-146 -18.5q-84 0 -160.5 30t-139.5 90.5t-100.5 163.5t-37.5 236z" />
<glyph unicode="D" horiz-adv-x="1114" d="M133 0l88 1253h322q240 -1 380 -143q138 -140 138 -354v-6v-8q0 -142 -34 -264q-35 -124 -96 -211t-142.5 -148t-173.5 -90t-191 -29h-291zM238 84h219q227 0 368.5 162.5t141.5 451.5q0 220 -121 345.5t-348 125.5h-187z" />
<glyph unicode="E" horiz-adv-x="903" d="M133 0l88 1253h606l-18 -86l-496 7l-32 -474h448l-14 -79l-441 2l-36 -545l542 6l-18 -84h-629z" />
<glyph unicode="F" horiz-adv-x="880" d="M133 0l88 1253h606l-18 -86l-496 7l-34 -492h448l-18 -78l-435 2l-43 -606h-98z" />
<glyph unicode="G" horiz-adv-x="1112" d="M88 502q0 229 67.5 401t203.5 269.5t327 97.5q136 0 332 -64l-47 -100q-205 86 -363 86q-130 0 -225 -80t-142.5 -221.5t-47.5 -327.5q0 -108 23 -194t61 -141t89 -91.5t103.5 -51.5t108.5 -15q53 0 137 13.5t143 35.5l37 504h98l-43 -535q-204 -106 -420 -106 q-60 0 -120.5 18.5t-119 59.5t-103 100t-72 147.5t-27.5 194.5z" />
<glyph unicode="H" horiz-adv-x="1169" d="M133 0l88 1253h98l-38 -557h618l39 557h98l-88 -1253h-98l43 625h-619l-43 -625h-98z" />
<glyph unicode="I" horiz-adv-x="452" d="M133 0l88 1253h98l-88 -1253h-98z" />
<glyph unicode="J" horiz-adv-x="659" d="M-14 0l22 90q109 -37 185 -37q59 0 109 61t56 148l70 991h96l-61 -893q-12 -180 -107 -279t-247 -99q-67 0 -123 18z" />
<glyph unicode="K" horiz-adv-x="1026" d="M133 0l88 1253h96l-88 -1253h-96zM291 674l614 579h117l-621 -573l531 -680h-127z" />
<glyph unicode="L" horiz-adv-x="886" d="M133 0l88 1253h98l-81 -1175l540 6l-16 -84h-629z" />
<glyph unicode="M" horiz-adv-x="1521" d="M98 0l203 1253h107l319 -1114h8l484 1114h94l37 -1253h-95l-30 1073l-467 -1073h-86l-320 1102l-162 -1102h-92z" />
<glyph unicode="N" horiz-adv-x="1202" d="M133 0l86 1253h86l600 -1060l82 1060h80l-88 -1253h-76l-612 1098l-76 -1098h-82z" />
<glyph unicode="O" horiz-adv-x="1136" d="M88 522q0 165 36 297.5t93 215t132 138t148 77.5t146 22q175 0 290.5 -142.5t115.5 -398.5q0 -165 -36 -297.5t-93 -214.5t-132 -137.5t-148 -77.5t-146 -22q-174 0 -290 142.5t-116 397.5zM190 586q0 -122 22 -216t57.5 -151t86.5 -93t103 -49.5t112 -13.5 q74 0 141 37.5t120.5 109.5t85.5 190.5t32 267.5q0 124 -23 218.5t-59.5 151t-88.5 92t-103.5 48t-110.5 12.5q-74 0 -140 -37t-119.5 -109t-84.5 -190t-31 -268z" />
<glyph unicode="P" horiz-adv-x="919" d="M133 0l84 1176h-2l6 43l2 34h258q190 0 289.5 -79.5t99.5 -227.5q0 -190 -143.5 -307t-372.5 -117h-86l-37 -522h-98zM274 596h160q63 0 121 16.5t108.5 50t80.5 93t30 137.5q0 149 -85 216t-251 67h-123z" />
<glyph unicode="Q" horiz-adv-x="1136" d="M88 522q0 165 36 297.5t93 215t132 138t148 77.5t146 22q175 0 290.5 -142.5t115.5 -398.5q0 -240 -70 -400t-186 -247q-31 -29 -136 -91t-215 -116q48 -11 182.5 -59.5t194.5 -48.5q41 0 71 9t64 38l-8 -95q-85 -51 -164 -51q-47 0 -134 35.5t-178 71t-148 35.5 q-21 0 -29 -2q-60 -20 -80 -23q-18 -8 -41 -27l-20 84l-2 2v4q64 30 139 37q137 43 258 99q-18 -4 -53 -4q-174 0 -290 142.5t-116 397.5zM190 586q0 -122 22 -216t57.5 -151t86.5 -93t103 -49.5t112 -13.5q74 0 141 37.5t120.5 109.5t85.5 190.5t32 267.5q0 124 -23 218.5 t-59.5 151t-88.5 92t-103.5 48t-110.5 12.5q-74 0 -140 -37t-119.5 -109t-84.5 -190t-31 -268z" />
<glyph unicode="R" horiz-adv-x="989" d="M133 0l90 1253h269q176 0 272 -82.5t96 -222.5q0 -132 -77.5 -227.5t-202.5 -138.5l305 -582h-121l-275 559q-43 -6 -90 -6h-129l-39 -553h-98zM276 623h203q51 0 99.5 16t91 47.5t68.5 86.5t26 126q0 137 -71 207t-228 70h-150z" />
<glyph unicode="S" horiz-adv-x="854" d="M43 20l33 84q72 -22 160 -33q69 -9 124 -9q15 0 29 1h10q117 0 191 68q76 71 76 170q0 49 -6 81.5t-25 67.5t-57.5 65.5t-100.5 62.5l-84 43q-139 70 -198.5 135t-59.5 172q0 150 114.5 247t285.5 97q187 0 266 -35l-25 -84q-91 28 -161.5 37.5t-165.5 9.5 q-93 0 -155.5 -68t-62.5 -151q0 -42 7.5 -73.5t28 -64.5t61 -63.5t102.5 -62.5l86 -45q127 -65 187.5 -131t60.5 -160q0 -183 -135 -291t-348 -108q-77 0 -130 7t-108 31z" />
<glyph unicode="T" horiz-adv-x="1028" d="M109 1167l22 86h875l-25 -86l-383 9l-82 -1176h-96l82 1176z" />
<glyph unicode="U" horiz-adv-x="1181" d="M158 332q0 80 44 684q3 48 5 76t5.5 74t6.5 87h98q-12 -184 -22.5 -348t-15.5 -234t-9 -132.5t-5 -90.5t-1 -61q0 -158 83 -236.5t237 -78.5q144 0 222.5 82.5t92.5 273.5l53 825h97l-56 -815q-15 -229 -137 -342.5t-330 -113.5q-74 0 -139 21.5t-117 63.5t-82 110.5 t-30 154.5z" />
<glyph unicode="V" horiz-adv-x="1081" d="M90 1253h98l318 -1142h2l469 1142h100l-530 -1253h-109z" />
<glyph unicode="W" horiz-adv-x="1681" d="M129 1253h90l178 -1093l449 1093h90l278 -1108l349 1108h92l-412 -1253h-90l-281 1110l-454 -1110h-90z" />
<glyph unicode="X" horiz-adv-x="1001" d="M10 0l447 651l-330 602h104l291 -526l348 526h103l-410 -598l361 -655h-109l-319 582l-385 -582h-101z" />
<glyph unicode="Y" horiz-adv-x="1056" d="M96 1253h113l332 -645l405 645h98l-469 -727l-36 -526h-97l37 522z" />
<glyph unicode="Z" horiz-adv-x="1034" d="M86 0l8 78l760 1114l-25 -25h-667l35 86h751l-10 -92l-741 -1077h700l-29 -84h-782z" />
<glyph unicode="[" horiz-adv-x="636" d="M141 -227l111 1579h330l-9 -84h-223l-100 -1411h229l-8 -84h-330z" />
<glyph unicode="\" horiz-adv-x="624" d="M119 1419h104l283 -1644h-105z" />
<glyph unicode="]" horiz-adv-x="636" d="M55 -227l8 84h224l100 1411h-229l8 84h330l-111 -1579h-330z" />
<glyph unicode="_" horiz-adv-x="901" d="M-20 -207h901v-74h-901v74z" />
<glyph unicode="`" horiz-adv-x="690" d="M168 1307l111 22l243 -272h-80z" />
<glyph unicode="a" horiz-adv-x="829" d="M88 336q0 154 48 290.5t143 225t217 88.5q45 0 106 -15.5t103 -41.5l-62 -883l-65 -18l-3 243l5 72q-24 -75 -63.5 -137t-81.5 -99.5t-82.5 -58t-73.5 -20.5q-191 0 -191 354zM180 354q0 -130 33.5 -206t101.5 -76q27 0 57.5 15.5t65.5 52t65 89.5t55 135.5t36 182.5 l16 280l31 -16q-39 27 -100 39t-109 12q-107 0 -179.5 -141t-72.5 -367z" />
<glyph unicode="b" horiz-adv-x="882" d="M137 -8l88 1378l92 21l-51 -789q75 162 161 250t157 88q29 0 54.5 -8t54 -33t48.5 -65t33.5 -111.5t13.5 -165.5q0 -143 -50.5 -277t-134 -217t-175.5 -83q-58 0 -97 10t-108 41l-26 -80zM233 102q141 -43 220 -43q45 0 86.5 29.5t77 86.5t56.5 154.5t21 221.5 q0 151 -39 224t-102 73q-30 0 -72.5 -32t-88 -91t-85.5 -161.5t-57 -225.5z" />
<glyph unicode="c" horiz-adv-x="745" d="M88 344q0 137 33 252t87 189t119.5 114.5t133.5 40.5q36 0 68 -4.5t53.5 -10.5t42 -15t30.5 -15.5t22.5 -15t14.5 -9.5l-41 -79q-10 5 -35.5 18.5l-34 18t-28.5 14t-31.5 12.5t-29.5 8t-35 6.5t-37 1.5q-63 0 -112 -55.5t-74 -137t-37.5 -154.5t-12.5 -126 q0 -173 42.5 -255.5t140.5 -82.5q48 0 97.5 23t78.5 46t74 64l6.5 6.5t5.5 4.5l39 -39q-34 -37 -79 -73.5t-118.5 -72.5t-138.5 -36q-116 0 -180 89t-64 273z" />
<glyph unicode="d" horiz-adv-x="876" d="M90 362q0 143 50.5 277t134.5 217.5t176 83.5q62 0 105.5 -7t100.5 -30l35 463l90 20l-94 -1386l-57 -18l-17 321l2 25q-75 -168 -161.5 -258t-159.5 -90q-29 0 -54.5 8t-54.5 32.5t-49 65t-33.5 111.5t-13.5 165zM186 369q0 -151 39 -224t101 -73q25 0 60.5 22.5 t76.5 72t77.5 117.5t64.5 171t36 221v-23l10 162q-134 41 -227 41q-46 0 -87 -28.5t-75.5 -85t-55 -153t-20.5 -220.5z" />
<glyph unicode="e" horiz-adv-x="696" d="M90 330q0 268 104.5 439t260.5 171q87 0 137.5 -56.5t50.5 -131.5q0 -74 -43 -135t-111 -97.5t-146 -56t-155 -19.5q-2 -27 -2 -88q0 -141 45 -217t113 -76q48 0 96.5 22t79 46t76.5 66l39 -43q-60 -67 -145.5 -119.5t-153.5 -52.5q-116 0 -181 90t-65 258zM193 508 q157 1 255.5 67.5t98.5 159.5q0 58 -34.5 94.5t-88.5 36.5q-198 0 -231 -358z" />
<glyph unicode="f" horiz-adv-x="485" d="M-190 -455l14 80q97 -18 141 -18q69 0 118 80t60 256l68 905h-129l16 63l117 11h2l10 129q7 96 32 168t59 115.5t81.5 70t94 36t102.5 9.5q40 0 72 -8l-19 -82q-59 12 -151 12q-67 0 -116 -46.5t-56 -147.5l-19 -256h236l-23 -74h-219l-61 -842q-16 -242 -111 -354.5 t-246 -112.5q-9 0 -34 2.5t-39 3.5z" />
<glyph unicode="g" horiz-adv-x="751" d="M0 -186q0 51 30.5 97.5t98.5 102.5l158 113q-71 41 -94.5 64.5t-26.5 54.5q3 46 25 71.5t88 71.5l4.5 3l4.5 3t5 4l33 -2q-86 11 -147.5 74.5t-61.5 159.5q0 133 80 221t223 88q67 0 125 -39l127 182l65 -65l-16 -35l-141 -106q77 -70 77 -166q0 -134 -85 -225t-212 -91 q-60 -38 -88 -66.5t-28 -58.5q0 -18 28 -38t100.5 -59t112.5 -64q56 -36 81 -54.5t54 -46.5t39.5 -56t10.5 -65q0 -63 -60 -121t-148 -92t-173 -34q-130 0 -209.5 48.5t-79.5 125.5zM90 -156q0 -57 67.5 -98t184.5 -41q90 0 167 48.5t77 119.5q0 52 -54.5 102t-169.5 111 q-3 2 -13 7.5t-15 8.5l-111 -84q-77 -57 -105 -90.5t-28 -83.5zM203 659q0 -85 57 -141.5t123 -56.5q186 0 186 219q0 91 -59 142.5t-131 51.5q-176 0 -176 -215z" />
<glyph unicode="h" horiz-adv-x="876" d="M131 0l94 1370l88 21l-51 -779q70 158 158 243t170 85t121 -57t39 -172q0 -156 -64 -711h-90q1 19 28 296t27 351q0 114 -24 159.5t-88 45.5q-26 0 -59 -19.5t-70.5 -61.5t-70 -99t-57 -140t-32.5 -176l6 148l-33 -504h-92z" />
<glyph unicode="i" horiz-adv-x="419" d="M131 0l66 920l92 20l-68 -940h-90zM205 1235q0 24 28.5 58t40.5 34q18 0 40 -26.5t22 -51.5q0 -18 -27.5 -52t-44.5 -34q-18 0 -38.5 24.5t-20.5 47.5z" />
<glyph unicode="j" horiz-adv-x="430" d="M-127 -379q8 0 22 -1t17 -1q108 0 159 85t64 294l68 926l90 20l-72 -969q-6 -103 -41.5 -190.5t-85 -141t-103 -83.5t-100.5 -31zM217 1235q0 24 28 58t42 34q16 0 37.5 -26.5t21.5 -51.5q0 -18 -26.5 -52t-43.5 -34q-18 0 -38.5 24.5t-20.5 47.5z" />
<glyph unicode="k" horiz-adv-x="753" d="M131 0l100 1391l93 28l-64 -874l35 22q110 77 188.5 159.5t155.5 195.5h92q-87 -128 -172.5 -213t-200.5 -166q48 -73 90 -135t71 -104.5t57.5 -82t42.5 -60t33.5 -45.5t24.5 -31t21 -25.5t17 -20.5l-72 -51q-24 21 -47.5 49t-109.5 154t-226 348l-39 -539h-90z" />
<glyph unicode="l" horiz-adv-x="456" d="M123 102v7v-7l8 73q19 234 82 1191l92 20q-69 -1001 -89 -1231q-1 -12 -1 -14q0 -73 57 -73q20 0 52.5 16t62.5 41l23 -53q-65 -48 -105 -69t-72 -21q-41 0 -75.5 32.5t-34.5 87.5z" />
<glyph unicode="m" horiz-adv-x="1327" d="M131 0l64 920l65 20l14 -240l-6 -69q70 150 155 229.5t167 79.5q79 0 111 -55t32 -174q0 -47 -2 -78q69 148 153.5 227.5t164.5 79.5t112.5 -55t32.5 -174q0 -108 -19.5 -356t-31.5 -355h-90q2 27 13.5 173.5t20.5 282.5t9 191q0 119 -18.5 162t-80.5 43q-29 0 -68 -27 t-80 -75.5t-77 -129.5t-53 -176q-19 -249 -43 -444l-90 -2q0 6 24.5 289.5t24.5 359.5q0 118 -18.5 161.5t-79.5 43.5q-33 0 -76.5 -33t-87.5 -92t-79.5 -157.5t-45.5 -213.5v15l-29 -371h-88z" />
<glyph unicode="n" horiz-adv-x="876" d="M131 0l64 920l65 20l10 -309q70 150 155 229.5t165 79.5q82 0 121 -57t39 -172q0 -156 -64 -711h-90q1 19 28 296t27 351q0 114 -24 159.5t-88 45.5q-69 0 -159.5 -117.5t-121.5 -308.5l-35 -426h-92z" />
<glyph unicode="o" horiz-adv-x="870" d="M92 360q0 80 14.5 160t47.5 156.5t79.5 134.5t116 93.5t152.5 35.5q121 0 197.5 -102t76.5 -277q0 -80 -14.5 -160t-47 -156t-79 -134t-116 -93.5t-152.5 -35.5q-126 0 -200.5 100.5t-74.5 277.5zM190 377q0 -152 59.5 -239t166.5 -87q61 0 109 35t76.5 88t47 122.5 t25 130t6.5 118.5q0 145 -57 235t-168 90q-52 0 -94.5 -24.5t-70 -66.5t-48 -92.5t-31.5 -108t-16 -107t-5 -94.5z" />
<glyph unicode="p" horiz-adv-x="884" d="M94 -461l101 1381l63 20l12 -301l-4 -45q75 166 163 256t159 90q29 0 54.5 -8t54.5 -33t49 -65t33.5 -111.5t13.5 -165.5q0 -143 -50.5 -277t-134.5 -217t-176 -83q-62 0 -102 8.5t-107 36.5l-37 -465zM229 104q143 -45 228 -45q45 0 86.5 29.5t77 86.5t56.5 154.5 t21 221.5q0 151 -39 224t-102 73q-25 0 -60.5 -22.5t-76 -72t-76.5 -117.5t-64 -171t-36 -221l4 102z" />
<glyph unicode="q" horiz-adv-x="878" d="M90 362q0 143 50.5 277t134.5 217.5t176 83.5q64 0 110 -7.5t109 -33.5l14 70l64 -8l-91 -1401l-90 -21l54 797q-76 -173 -164 -264.5t-162 -91.5q-29 0 -54.5 8t-54.5 32.5t-49 65t-33.5 111.5t-13.5 165zM186 369q0 -151 39 -224t101 -73q25 0 60.5 22.5t76.5 72 t77.5 117.5t64.5 171t36 221l-2 -55l12 192v2q-134 41 -227 41q-46 0 -87 -28.5t-75.5 -85t-55 -153t-20.5 -220.5z" />
<glyph unicode="r" horiz-adv-x="585" d="M131 0l62 920l67 20l12 -264q116 264 320 264l4 1h2q2 0 4 -1l-18 -98q-1 -1 -1 -0.5t-7.5 1.5t-18.5 1q-21 0 -40.5 -3t-49 -15t-54.5 -32t-53 -58t-48.5 -88.5t-37 -128.5t-22.5 -173l-2 6l-27 -352h-92z" />
<glyph unicode="s" horiz-adv-x="675" d="M51 27l25 90q4 -1 29.5 -10t32.5 -11t30.5 -9.5t34.5 -10t32.5 -7.5t37 -7t36 -3.5t39.5 -1.5q67 0 96 39t29 97q0 93 -96 184l-121 117q-57 57 -80.5 100t-23.5 104q0 60 26 108.5t65 76t80.5 42.5t77.5 15q46 0 119 -13t96 -24l-26 -88q-11 2 -60 15.5t-93 22.5t-75 9 q-56 0 -90 -35.5t-34 -93.5q0 -30 3 -48t24.5 -53t64.5 -75l131 -125q56 -57 78 -100.5t22 -87.5q0 -72 -30.5 -127t-74.5 -82.5t-82 -40t-65 -12.5q-20 0 -38.5 1t-37 3t-33 4t-32 5.5t-27.5 6t-27 7t-22.5 6t-22 6.5t-18.5 6z" />
<glyph unicode="t" horiz-adv-x="649" d="M72 848l10 53l151 21q9 82 21 184l90 20q-2 -23 -9.5 -95.5t-12.5 -108.5h317l-31 -74h-295q-9 -77 -21 -185t-19 -168t-14 -129.5t-10 -115.5t-3 -80q0 -54 26 -80.5t68 -26.5q35 0 75 16t68 33.5t80 53.5l27 -49q-176 -135 -291 -135q-58 0 -99.5 42t-41.5 101 q0 107 67 723h-153z" />
<glyph unicode="u" horiz-adv-x="870" d="M131 211q0 139 66 711l92 14q-1 -22 -29.5 -307.5t-28.5 -356.5q0 -117 22 -159.5t83 -42.5q31 0 74 32.5t87.5 91.5t80 157.5t45.5 213.5v-12l26 367l88 20l-61 -940l-60 -18l-8 317q-70 -155 -154.5 -236t-166.5 -81q-81 0 -118.5 56.5t-37.5 172.5z" />
<glyph unicode="v" horiz-adv-x="765" d="M154 909l82 17l63 -807q52 41 95 95.5t75.5 123t57 133t45.5 150t34 148.5t29 153h72q-8 -102 -38 -228t-80.5 -260t-130 -252.5t-173.5 -181.5h-70z" />
<glyph unicode="w" horiz-adv-x="1193" d="M141 930l82 8l66 -852v4q112 109 195.5 303.5t113.5 407.5l-8 121h78l49 -816l8 5q63 51 115 127.5t85 151t62.5 177.5t45 176.5t34.5 178.5h72q-12 -90 -30.5 -181.5t-54 -204.5t-80 -209t-111.5 -185t-146 -142h-72l-35 580q-37 -148 -117.5 -302t-207.5 -280l-78 2z " />
<glyph unicode="x" horiz-adv-x="677" d="M-16 0q12 43 35 89.5t44 81t58.5 83.5t57 72.5t63.5 74.5t55 64q-136 345 -184 446l94 17q42 -84 162 -383q171 211 231 377h84q-8 -43 -32.5 -94t-47 -88t-69.5 -97t-67 -83t-73 -85q131 -339 189 -463l-92 -16q-62 134 -166 399q-198 -228 -260 -395h-82z" />
<glyph unicode="y" horiz-adv-x="815" d="M-213 -457l12 97q75 -11 125 -11q116 0 228.5 90.5t209.5 251.5h-32l-150 938l90 29l138 -877l2 -8q96 184 160.5 411t86.5 458h82q-8 -103 -31 -223.5t-64 -254t-95 -262t-127.5 -245.5t-157 -205t-189 -140.5t-218.5 -52.5q-5 0 -13.5 0.5t-24.5 1.5z" />
<glyph unicode="z" horiz-adv-x="706" d="M43 0l8 94l496 754l-428 -4l14 78h512l-12 -101l-494 -745l496 4l-21 -80h-571z" />
<glyph unicode="{" horiz-adv-x="636" d="M102 532l4 27l5 29q79 31 118.5 63.5t40.5 83.5q3 48 1.5 156t4.5 209q6 131 78 198.5t230 67.5l-9 -88q-77 0 -136 -35.5t-66 -103.5q-5 -75 1.5 -206.5t2.5 -187.5q-4 -69 -48 -119.5t-104 -66.5q57 -16 94 -66.5t33 -119.5q-4 -57 -28 -188t-29 -205 q-7 -67 48.5 -103.5t133.5 -36.5l-8 -88q-157 0 -217.5 67t-54.5 199q7 101 28.5 211.5t24.5 155.5q3 52 -32.5 85t-115.5 62z" />
<glyph unicode="|" horiz-adv-x="483" d="M131 -451l131 1870h92l-131 -1870h-92z" />
<glyph unicode="}" horiz-adv-x="636" d="M53 -246l8 88q77 0 136.5 36t66.5 104q5 75 -1.5 206t-2.5 187q4 69 48 119.5t104 66.5q-57 16 -94 67t-33 120q4 57 28 188t29 205q7 67 -48.5 103t-133.5 36l8 88q157 0 217.5 -67t54.5 -199q-7 -101 -28.5 -211.5t-24.5 -155.5q-3 -52 32.5 -85t115.5 -62l-5 -27 l-4 -29q-79 -31 -118.5 -63.5t-40.5 -83.5q-3 -48 -2 -155.5t-5 -209.5q-6 -131 -77.5 -198.5t-229.5 -67.5z" />
<glyph unicode="&#xa1;" horiz-adv-x="610" d="M154 -401q63 485 96 962l82 39q-18 -227 -25.5 -490.5t2.5 -447.5zM195 809q3 36 43 75.5t65 39.5q28 0 62.5 -36.5t33.5 -68.5q-3 -30 -42 -69t-66 -39q-26 0 -61 35t-35 63z" />
<glyph unicode="&#xa2;" d="M205 508q0 137 33 252t87 189t119.5 114.5t133.5 40.5l-5 248h107l-35 -252q24 -3 46 -9t36.5 -11.5t30.5 -13.5t22.5 -12.5t17.5 -11.5l11 -8l-41 -80q-10 5 -40.5 21.5t-39.5 21t-32.5 14.5t-38 13t-36 6.5t-44.5 3.5q-63 0 -112 -55.5t-74 -137t-37.5 -154.5 t-12.5 -126q0 -173 42 -255.5t140 -82.5q48 0 97.5 23t78.5 46t74 64q8 7 12 11l39 -39q-92 -102 -211 -154l13 -287h-107l27 265q-32 -7 -57 -7q-116 0 -180 89.5t-64 273.5z" />
<glyph unicode="&#xa3;" d="M25 96q83 25 133 49.5t81.5 58.5t44.5 75t17 104q4 46 -12 186h-191l2 27l54 61l98 -2h27q-14 127 -9 228q12 173 126.5 281t291.5 108q159 0 236 -47l-43 -111q-59 28 -126.5 47t-111.5 19q-129 0 -191 -61.5t-71 -211.5q-7 -94 8 -252h397l-26 -86h-363q9 -92 6 -161 q-13 -204 -167 -322l671 10l-30 -96h-805h-2z" />
<glyph unicode="&#xa7;" horiz-adv-x="1001" d="M123 637q7 102 96 174t232 107l-31 12q-95 40 -145.5 95t-43.5 142q6 108 106.5 181t278.5 73q136 0 230 -32l-39 -86q-162 59 -256 59q-106 0 -165 -43.5t-64 -116.5q-4 -67 44.5 -115.5t147.5 -91.5l70 -32q182 -83 241.5 -147.5t53.5 -170.5q-7 -100 -96 -171.5 t-232 -106.5l31 -13q94 -40 144.5 -95.5t43.5 -141.5q-6 -108 -106.5 -181t-278.5 -73q-127 0 -258 39l39 88q187 -68 285 -68q106 0 164 43.5t63 116.5q6 67 -43 114.5t-150 92.5l-67 33q-183 83 -242 146.5t-53 168.5zM217 659q-6 -82 51 -140.5t213 -123.5 q133 37 214.5 95.5t88.5 134.5q6 82 -51 140.5t-213 123.5q-132 -37 -214 -96t-89 -134z" />
<glyph unicode="&#xa8;" horiz-adv-x="759" d="M129 1235q1 24 28.5 51t45.5 27q17 0 48 -20.5t28 -39.5q-1 -22 -28.5 -49.5t-45.5 -27.5t-48.5 21t-27.5 38zM475 1235q1 23 29.5 50.5t44.5 27.5q19 0 50 -20t28 -40q-1 -22 -29.5 -49.5t-44.5 -27.5q-18 0 -49.5 21t-28.5 38z" />
<glyph unicode="&#xa9;" horiz-adv-x="1126" d="M61 483q7 114 54.5 209.5t121.5 158.5t167.5 97.5t193.5 34.5q230 0 355.5 -141.5t111.5 -358.5q-7 -114 -54.5 -210t-121.5 -158.5t-167.5 -97.5t-193.5 -35q-152 0 -262 66.5t-162 179.5t-43 255zM143 481q-12 -192 96.5 -309t288.5 -117q194 0 317.5 119.5 t135.5 306.5q12 196 -97.5 311t-293.5 115q-190 0 -313 -123t-134 -303zM279 485q11 144 97 231t228 87q64 0 148 -25l-19 -63q-111 30 -188 30q-33 0 -61 -10t-58 -35t-49.5 -77.5t-24.5 -128.5q-8 -128 49.5 -186t141.5 -58q62 0 182 35l8 -62q-113 -37 -215 -37 q-123 0 -186.5 79.5t-52.5 219.5z" />
<glyph unicode="&#xaa;" horiz-adv-x="448" d="M35 885q0 47 12 97.5t35.5 98.5t65 78.5t92.5 30.5q87 0 155 -31l-30 -442l-56 -12l-6 124l2 17q-35 -68 -82.5 -104.5t-87.5 -36.5q-100 0 -100 180zM109 895q0 -68 16.5 -97.5t52.5 -29.5q13 0 31 14.5t39 42t40 76.5t29 109l7 98q-56 27 -95 27q-36 0 -61.5 -26 t-37 -66.5t-16.5 -76.5t-5 -71z" />
<glyph unicode="&#xab;" horiz-adv-x="1069" d="M141 475l402 383l39 -61l-306 -322l256 -321l-43 -62zM510 475l401 383l41 -61l-305 -322l256 -321l-45 -62z" />
<glyph unicode="&#xad;" horiz-adv-x="622" d="M104 475l17 70h393l4 -21l-22 -69h-387z" />
<glyph unicode="&#xae;" horiz-adv-x="1126" d="M82 1051q7 115 54.5 210.5t121.5 158.5t167 97.5t193 34.5q230 0 355.5 -141.5t111.5 -359.5q-10 -150 -88 -266.5t-196 -176t-252 -59.5q-114 0 -206 39t-151 106.5t-88 159.5t-22 197zM164 1049q-12 -191 96.5 -307.5t288.5 -116.5q194 0 317 119.5t135 304.5 q12 196 -98 312t-293 116q-190 0 -312.5 -123t-133.5 -305zM399 766l43 598h168q85 0 132.5 -37.5t41.5 -118.5q-8 -106 -127 -153l150 -289h-80l-131 272q-28 -4 -43 -4q-43 0 -70 2l-18 -270h-66zM487 1087q29 -2 84 -2q71 0 107.5 25t40.5 86q3 62 -26 88.5t-99 26.5h-90 z" />
<glyph unicode="&#xaf;" horiz-adv-x="894" d="M193 1165l2 31l30 47h477l-2 -31l-28 -47h-479z" />
<glyph unicode="&#xb2;" horiz-adv-x="542" d="M43 799l4 59q28 27 85 78t93 85.5t77 78t63 81t24 68.5q1 57 -34 88t-93 31q-65 0 -153 -37l-21 60q85 47 213 47q79 0 131.5 -49.5t48.5 -122.5q-4 -74 -85 -167t-253 -235l320 6l-19 -71h-401z" />
<glyph unicode="&#xb3;" horiz-adv-x="542" d="M47 811l23 61q73 -22 166 -22q143 0 149 117q6 66 -39.5 99.5t-122.5 33.5q-21 0 -45 -4l-14 55q111 0 165 30.5t56 84.5q4 47 -31.5 76.5t-85.5 29.5q-55 0 -149 -37l-19 64q115 39 191 39q44 0 84 -14t68 -49t24 -85q-3 -53 -42 -93t-99 -60q143 -24 137 -150 q-7 -96 -88 -148.5t-176 -52.5q-64 0 -152 25z" />
<glyph unicode="&#xb4;" horiz-adv-x="708" d="M160 1057l284 272l107 -22l-313 -250h-78z" />
<glyph unicode="&#xb6;" horiz-adv-x="1099" d="M78 862q5 82 36.5 152t86 124t138.5 84.5t187 30.5h408l-86 -1208q-9 -153 -113 -238.5t-272 -85.5q-63 0 -115 19l25 92q180 -54 271 -15.5t99 152.5l86 1225h-174l-49 -717h-139q-199 0 -300.5 109.5t-88.5 275.5z" />
<glyph unicode="&#xb8;" horiz-adv-x="577" d="M133 -393q107 14 159.5 35t55.5 67q1 32 -33.5 55t-119.5 48l-5 10l95 178h80l-64 -115q8 -4 35 -18t33.5 -18t25 -16t23 -19t13.5 -19.5t10.5 -26t0.5 -30.5q-5 -69 -80 -125t-219 -74z" />
<glyph unicode="&#xb9;" horiz-adv-x="405" d="M51 1362q58 12 201 63h55l-45 -626h-74l41 561l-161 -64z" />
<glyph unicode="&#xba;" horiz-adv-x="448" d="M39 901q0 48 13 96.5t38 93t69.5 72t100.5 27.5q67 0 107.5 -51t40.5 -146q0 -47 -13 -95t-38.5 -92.5t-70 -72.5t-100.5 -28q-68 0 -107.5 50t-39.5 146zM119 901q0 -133 100 -133q30 0 52 20t32.5 45.5t16.5 61.5t7 56.5t1 41.5q0 67 -27 102t-74 35q-37 0 -61 -27.5 t-33 -72.5t-11.5 -72t-2.5 -57z" />
<glyph unicode="&#xbb;" horiz-adv-x="1069" d="M117 156l307 319l-258 322l45 61l348 -383l-401 -383zM487 156l306 319l-256 322l45 61l346 -383l-402 -383z" />
<glyph unicode="&#xbf;" horiz-adv-x="724" d="M14 -55q4 47 21 87t51 78.5t67 68t89 73.5q54 42 74 59t38 40t19 44q4 25 -19 81t-53 99l78 39q31 -37 44 -54t27 -54t11 -76q-2 -25 -10.5 -47t-17 -37t-34.5 -40t-40.5 -37.5t-57.5 -47.5q-92 -71 -127.5 -122.5t-42.5 -129.5q-7 -106 60 -170.5t176 -64.5q62 0 219 94 l32 -84q-77 -40 -150 -63t-167 -23q-129 0 -211.5 80.5t-75.5 206.5zM307 825q3 25 41 59t58 34q26 0 58.5 -32t29.5 -57q0 -24 -39 -59t-64 -35q-20 0 -52.5 32.5t-31.5 57.5z" />
<glyph unicode="&#xc0;" horiz-adv-x="1077" d="M-12 0l561 1253h90l350 -1253h-102l-131 477h-461l-209 -477h-98zM313 1614l111 22l244 -272h-80zM332 563h401l-153 561z" />
<glyph unicode="&#xc1;" horiz-adv-x="1077" d="M-12 0l561 1253h90l350 -1253h-102l-131 477h-461l-209 -477h-98zM332 563h401l-153 561zM475 1364l285 272l106 -22l-313 -250h-78z" />
<glyph unicode="&#xc2;" horiz-adv-x="1077" d="M-12 0l561 1253h90l350 -1253h-102l-131 477h-461l-209 -477h-98zM311 1364l285 272h33l241 -272h-88l-178 168l-205 -168h-88zM332 563h401l-153 561z" />
<glyph unicode="&#xc3;" horiz-adv-x="1077" d="M-12 0l561 1253h90l350 -1253h-102l-131 477h-461l-209 -477h-98zM289 1444q52 54 97 82t103 28q46 0 122 -28.5t102 -28.5q70 0 133 55l39 -49q-5 -5 -30 -28t-35 -30.5t-31.5 -21.5t-42.5 -19t-46 -5q-40 0 -125.5 33.5t-109.5 33.5q-18 0 -42.5 -9t-41 -19 t-35.5 -22.5t-20 -12.5zM332 563h401l-153 561z" />
<glyph unicode="&#xc4;" horiz-adv-x="1077" d="M-12 0l561 1253h90l350 -1253h-102l-131 477h-461l-209 -477h-98zM332 563h401l-153 561zM344 1542q1 24 28.5 51t45.5 27q17 0 48 -20t28 -39q-1 -23 -28.5 -50.5t-45.5 -27.5t-48.5 21t-27.5 38zM690 1542q1 23 29.5 50.5t44.5 27.5q19 0 50 -19.5t28 -39.5 q-1 -22 -29.5 -50t-44.5 -28q-18 0 -49.5 21t-28.5 38z" />
<glyph unicode="&#xc5;" horiz-adv-x="1077" d="M-12 0l561 1253h90l350 -1253h-102l-131 477h-461l-209 -477h-98zM332 563h401l-153 561zM430 1540q3 69 60 118.5t128 49.5t120.5 -44.5t43.5 -123.5q-3 -69 -60 -118.5t-126 -49.5q-73 0 -122.5 44.5t-43.5 123.5zM510 1540q-3 -43 24 -69.5t66 -26.5t70.5 27t34.5 69 q3 45 -25.5 72.5t-67.5 27.5t-69 -27.5t-33 -72.5z" />
<glyph unicode="&#xc6;" horiz-adv-x="1427" d="M-92 0l788 1253h654l-17 -86l-495 7l-33 -474h446l-12 -79l-440 2l-37 -545l541 6l-17 -84h-629l33 467h-393l-287 -467h-102zM350 551h346l43 627h-4z" />
<glyph unicode="&#xc7;" horiz-adv-x="1021" d="M88 500q0 120 20.5 231t65 210.5t108.5 172.5t158 115.5t207 42.5q77 0 169 -19.5t153 -44.5l-39 -90q-180 74 -340 74q-59 0 -113 -18.5t-107.5 -66t-92.5 -120t-63 -190t-24 -267.5q0 -117 32 -209t84.5 -146t115 -81.5t129.5 -27.5q37 0 75 4t62.5 8t61 15t48 14.5 t47.5 17t38 14.5l28 -67q-73 -26 -104.5 -37t-105.5 -29.5t-132 -23.5l-53 -97q8 -4 35 -18t33.5 -18t25 -16t23 -19t13.5 -19.5t10.5 -26t0.5 -30.5q-5 -69 -80 -125t-219 -74l-10 68q107 14 159.5 35t55.5 67q1 32 -33.5 55t-119.5 48l-4 10l83 160q-80 6 -149.5 39.5 t-127 94t-91 159.5t-33.5 225z" />
<glyph unicode="&#xc8;" horiz-adv-x="903" d="M133 0l88 1253h606l-18 -86l-496 7l-32 -474h448l-14 -79l-441 2l-36 -545l542 6l-18 -84h-629zM338 1614l111 22l243 -272h-80z" />
<glyph unicode="&#xc9;" horiz-adv-x="903" d="M133 0l88 1253h606l-18 -86l-496 7l-32 -474h448l-14 -79l-441 2l-36 -545l542 6l-18 -84h-629zM377 1364l285 272l106 -22l-313 -250h-78z" />
<glyph unicode="&#xca;" horiz-adv-x="903" d="M133 0l88 1253h606l-18 -86l-496 7l-32 -474h448l-14 -79l-441 2l-36 -545l542 6l-18 -84h-629zM268 1364l285 272h33l241 -272h-88l-178 168l-205 -168h-88z" />
<glyph unicode="&#xcb;" horiz-adv-x="903" d="M133 0l88 1253h606l-18 -86l-496 7l-32 -474h448l-14 -79l-441 2l-36 -545l542 6l-18 -84h-629zM256 1542q1 24 28.5 51t45.5 27q17 0 48 -20t28 -39q-1 -23 -28.5 -50.5t-45.5 -27.5t-48.5 21t-27.5 38zM602 1542q1 23 29.5 50.5t44.5 27.5q19 0 50 -19.5t28 -39.5 q-1 -22 -29.5 -50t-44.5 -28q-18 0 -49.5 21t-28.5 38z" />
<glyph unicode="&#xcc;" horiz-adv-x="460" d="M-25 1614l111 22l244 -272h-80zM133 0l88 1253h98l-88 -1253h-98z" />
<glyph unicode="&#xcd;" horiz-adv-x="460" d="M133 0l88 1253h98l-88 -1253h-98zM223 1364l285 272l106 -22l-313 -250h-78z" />
<glyph unicode="&#xce;" horiz-adv-x="460" d="M10 1364l285 272h33l241 -272h-88l-178 168l-205 -168h-88zM133 0l88 1253h98l-88 -1253h-98z" />
<glyph unicode="&#xcf;" horiz-adv-x="460" d="M82 1542q1 24 28.5 51t45.5 27q17 0 48.5 -20t28.5 -39q-1 -22 -29 -50t-44 -28q-19 0 -50 21t-28 38zM133 0l88 1253h98l-88 -1253h-98zM360 1542q1 23 29.5 50.5t44.5 27.5q19 0 50 -19.5t28 -39.5q-1 -23 -28.5 -50.5t-45.5 -27.5t-49.5 21t-28.5 38z" />
<glyph unicode="&#xd0;" horiz-adv-x="1150" d="M78 604v23l31 57h106l41 569h322q240 0 380 -142.5t138 -360.5q1 -147 -34 -271.5t-96 -211.5t-142.5 -148t-173.5 -90t-191 -29h-291l43 604h-133zM272 84h220q227 0 368 162.5t141 451.5q0 220 -121 345.5t-348 125.5h-186l-33 -485h371v-25l-31 -55h-346z" />
<glyph unicode="&#xd1;" horiz-adv-x="1202" d="M133 0l86 1253h86l600 -1060l82 1060h80l-88 -1253h-76l-612 1098l-76 -1098h-82zM326 1444q52 54 97 82t103 28q46 0 122 -28.5t102 -28.5q70 0 133 55l39 -49q-5 -5 -30 -28t-35 -30.5t-31.5 -21.5t-42.5 -19t-46 -5q-40 0 -125.5 33.5t-109.5 33.5q-18 0 -42.5 -9 t-41.5 -19t-36 -22l-20 -13z" />
<glyph unicode="&#xd2;" horiz-adv-x="1097" d="M88 522q0 165 36 297.5t93 215t132 138t148 77.5t146 22q175 0 290.5 -142.5t115.5 -398.5q0 -165 -36 -297.5t-93 -214.5t-132 -137.5t-148 -77.5t-146 -22q-174 0 -290 142.5t-116 397.5zM190 586q0 -122 22 -216t57.5 -151t86.5 -93t103 -49.5t112 -13.5 q74 0 141 37.5t120.5 109.5t85.5 190.5t32 267.5q0 124 -23 218.5t-59.5 151t-88.5 92t-103.5 48t-110.5 12.5q-74 0 -140 -37t-119.5 -109t-84.5 -190t-31 -268zM408 1614l110 22l244 -272h-80z" />
<glyph unicode="&#xd3;" horiz-adv-x="1097" d="M88 522q0 165 36 297.5t93 215t132 138t148 77.5t146 22q175 0 290.5 -142.5t115.5 -398.5q0 -165 -36 -297.5t-93 -214.5t-132 -137.5t-148 -77.5t-146 -22q-174 0 -290 142.5t-116 397.5zM190 586q0 -122 22 -216t57.5 -151t86.5 -93t103 -49.5t112 -13.5 q74 0 141 37.5t120.5 109.5t85.5 190.5t32 267.5q0 124 -23 218.5t-59.5 151t-88.5 92t-103.5 48t-110.5 12.5q-74 0 -140 -37t-119.5 -109t-84.5 -190t-31 -268zM467 1364l285 272l106 -22l-313 -250h-78z" />
<glyph unicode="&#xd4;" horiz-adv-x="1097" d="M88 522q0 165 36 297.5t93 215t132 138t148 77.5t146 22q175 0 290.5 -142.5t115.5 -398.5q0 -165 -36 -297.5t-93 -214.5t-132 -137.5t-148 -77.5t-146 -22q-174 0 -290 142.5t-116 397.5zM190 586q0 -122 22 -216t57.5 -151t86.5 -93t103 -49.5t112 -13.5 q74 0 141 37.5t120.5 109.5t85.5 190.5t32 267.5q0 124 -23 218.5t-59.5 151t-88.5 92t-103.5 48t-110.5 12.5q-74 0 -140 -37t-119.5 -109t-84.5 -190t-31 -268zM358 1364l285 272h33l242 -272h-89l-178 168l-205 -168h-88z" />
<glyph unicode="&#xd5;" horiz-adv-x="1097" d="M88 522q0 165 36 297.5t93 215t132 138t148 77.5t146 22q175 0 290.5 -142.5t115.5 -398.5q0 -165 -36 -297.5t-93 -214.5t-132 -137.5t-148 -77.5t-146 -22q-174 0 -290 142.5t-116 397.5zM190 586q0 -122 22 -216t57.5 -151t86.5 -93t103 -49.5t112 -13.5 q74 0 141 37.5t120.5 109.5t85.5 190.5t32 267.5q0 124 -23 218.5t-59.5 151t-88.5 92t-103.5 48t-110.5 12.5q-74 0 -140 -37t-119.5 -109t-84.5 -190t-31 -268zM338 1444q52 54 97.5 82t103.5 28q46 0 121.5 -28.5t101.5 -28.5q70 0 133 55l39 -49q-6 -6 -30 -28 t-34.5 -30t-31.5 -22t-42 -19t-46 -5q-40 0 -126 33.5t-110 33.5q-18 0 -42.5 -9t-41 -19t-35.5 -22.5t-20 -12.5z" />
<glyph unicode="&#xd6;" horiz-adv-x="1097" d="M88 522q0 165 36 297.5t93 215t132 138t148 77.5t146 22q175 0 290.5 -142.5t115.5 -398.5q0 -165 -36 -297.5t-93 -214.5t-132 -137.5t-148 -77.5t-146 -22q-174 0 -290 142.5t-116 397.5zM190 586q0 -122 22 -216t57.5 -151t86.5 -93t103 -49.5t112 -13.5 q74 0 141 37.5t120.5 109.5t85.5 190.5t32 267.5q0 124 -23 218.5t-59.5 151t-88.5 92t-103.5 48t-110.5 12.5q-74 0 -140 -37t-119.5 -109t-84.5 -190t-31 -268zM383 1542q1 24 28.5 51t45.5 27q17 0 47.5 -20t27.5 -39q-1 -23 -28 -50.5t-45 -27.5t-48.5 21t-27.5 38z M729 1542q1 23 29.5 50.5t44.5 27.5q19 0 50 -19.5t28 -39.5q-1 -22 -29.5 -50t-44.5 -28q-18 0 -49.5 21t-28.5 38z" />
<glyph unicode="&#xd7;" d="M147 276l289 269l-248 268l66 57l246 -266l286 266l58 -57l-289 -268l248 -269l-64 -59l-247 268l-289 -268z" />
<glyph unicode="&#xd8;" horiz-adv-x="1136" d="M88 522q0 165 36 297.5t93 215t132 138t148 77.5t146 22q68 0 141 -27l70 174h78l-82 -211q93 -62 146 -183.5t53 -293.5q0 -165 -36 -297.5t-93 -214.5t-132 -137.5t-148 -77.5t-146 -22q-65 0 -121 20l-68 -172h-80l80 203q-101 61 -159 185.5t-58 303.5zM190 586 q0 -331 156 -453l402 1016q-75 41 -183 41q-74 0 -140 -37t-119.5 -109t-84.5 -190t-31 -268zM410 94q69 -31 161 -31q74 0 141 37.5t120.5 109.5t85.5 190.5t32 267.5q0 311 -141 438z" />
<glyph unicode="&#xd9;" horiz-adv-x="1157" d="M158 332q0 80 44 684q3 48 5 76t5.5 74t6.5 87h98q-12 -184 -22.5 -348t-15.5 -234t-9 -132.5t-5 -90.5t-1 -61q0 -158 83 -236.5t237 -78.5q144 0 222.5 82.5t92.5 273.5l53 825h97l-56 -815q-15 -229 -137 -342.5t-330 -113.5q-74 0 -139 21.5t-117 63.5t-82 110.5 t-30 154.5zM399 1614l111 22l244 -272h-80z" />
<glyph unicode="&#xda;" horiz-adv-x="1157" d="M158 332q0 80 44 684q3 48 5 76t5.5 74t6.5 87h98q-12 -184 -22.5 -348t-15.5 -234t-9 -132.5t-5 -90.5t-1 -61q0 -158 83 -236.5t237 -78.5q144 0 222.5 82.5t92.5 273.5l53 825h97l-56 -815q-15 -229 -137 -342.5t-330 -113.5q-74 0 -139 21.5t-117 63.5t-82 110.5 t-30 154.5zM379 1364l285 272l106 -22l-313 -250h-78z" />
<glyph unicode="&#xdb;" horiz-adv-x="1157" d="M158 332q0 80 44 684q3 48 5 76t5.5 74t6.5 87h98q-12 -184 -22.5 -348t-15.5 -234t-9 -132.5t-5 -90.5t-1 -61q0 -158 83 -236.5t237 -78.5q144 0 222.5 82.5t92.5 273.5l53 825h97l-56 -815q-15 -229 -137 -342.5t-330 -113.5q-74 0 -139 21.5t-117 63.5t-82 110.5 t-30 154.5zM324 1364l284 272h33l242 -272h-88l-179 168l-204 -168h-88z" />
<glyph unicode="&#xdc;" horiz-adv-x="1157" d="M158 332q0 80 44 684q3 48 5 76t5.5 74t6.5 87h98q-12 -184 -22.5 -348t-15.5 -234t-9 -132.5t-5 -90.5t-1 -61q0 -158 83 -236.5t237 -78.5q144 0 222.5 82.5t92.5 273.5l53 825h97l-56 -815q-15 -229 -137 -342.5t-330 -113.5q-74 0 -139 21.5t-117 63.5t-82 110.5 t-30 154.5zM322 1542q1 24 28 51t45 27q17 0 48 -20t28 -39q-1 -23 -28.5 -50.5t-45.5 -27.5t-48 21t-27 38zM668 1542q1 23 29 50.5t44 27.5q19 0 50 -19.5t28 -39.5q-1 -22 -29.5 -50t-44.5 -28q-18 0 -49 21t-28 38z" />
<glyph unicode="&#xdd;" horiz-adv-x="1001" d="M96 1253h113l332 -645l405 645h98l-469 -727l-36 -526h-97l37 522zM465 1364l285 272l106 -22l-313 -250h-78z" />
<glyph unicode="&#xde;" horiz-adv-x="892" d="M133 0l90 1253h99l-17 -231h176q190 0 289.5 -79t99.5 -226q0 -191 -143 -308.5t-373 -117.5h-102l-21 -291h-98zM258 365h176q63 0 121 16.5t108.5 50.5t80.5 93.5t30 138.5q0 149 -85 215.5t-251 66.5h-139z" />
<glyph unicode="&#xdf;" horiz-adv-x="903" d="M-172 -455l18 84q45 -10 101 -10q73 0 125.5 62.5t58.5 177.5l55 1122q6 124 44 218t97 147t126 78.5t141 25.5q102 0 176 -71.5t74 -176.5q0 -47 -34 -100.5t-82.5 -101.5t-97 -95t-82.5 -96t-34 -90q0 -67 28 -113.5t113 -105.5q176 -127 183 -250q0 -105 -82.5 -186.5 t-220.5 -81.5q-53 0 -166 24l20 92q11 -3 37.5 -11.5t36.5 -11.5t33.5 -8.5t40.5 -7.5t43 -4t55 -2q47 0 89.5 35t41.5 92q-1 31 -6.5 52t-26.5 53t-66 73t-120 97q-51 35 -83 89t-32 118q0 46 18 90t46 79.5t62.5 70t69 68.5t62.5 67.5t46 74.5t18 84q0 34 -13 67t-40 62.5 t-74.5 48t-108.5 19.5q-104 -2 -164.5 -84t-66.5 -238l-56 -1057q-3 -68 -15 -132t-39.5 -127.5t-67 -110.5t-101 -76t-137.5 -29q-9 0 -22.5 2.5t-20.5 3.5z" />
<glyph unicode="&#xe0;" horiz-adv-x="827" d="M88 336q0 154 48 290.5t143 225t217 88.5q45 0 106 -15.5t103 -41.5l-62 -883l-65 -18l-3 243l5 72q-24 -75 -63.5 -137t-81.5 -99.5t-82.5 -58t-73.5 -20.5q-191 0 -191 354zM180 354q0 -130 33.5 -206t101.5 -76q27 0 57.5 15.5t65.5 52t65 89.5t55 135.5t36 182.5 l16 280l31 -16q-39 27 -100 39t-109 12q-107 0 -179.5 -141t-72.5 -367zM229 1307l111 22l244 -272h-80z" />
<glyph unicode="&#xe1;" horiz-adv-x="827" d="M88 336q0 154 48 290.5t143 225t217 88.5q45 0 106 -15.5t103 -41.5l-62 -883l-65 -18l-3 243l5 72q-24 -75 -63.5 -137t-81.5 -99.5t-82.5 -58t-73.5 -20.5q-191 0 -191 354zM180 354q0 -130 33.5 -206t101.5 -76q27 0 57.5 15.5t65.5 52t65 89.5t55 135.5t36 182.5 l16 280l31 -16q-39 27 -100 39t-109 12q-107 0 -179.5 -141t-72.5 -367zM385 1057l285 272l106 -22l-313 -250h-78z" />
<glyph unicode="&#xe2;" horiz-adv-x="827" d="M88 336q0 154 48 290.5t143 225t217 88.5q45 0 106 -15.5t103 -41.5l-62 -883l-65 -18l-3 243l5 72q-24 -75 -63.5 -137t-81.5 -99.5t-82.5 -58t-73.5 -20.5q-191 0 -191 354zM180 354q0 -130 33.5 -206t101.5 -76q27 0 57.5 15.5t65.5 52t65 89.5t55 135.5t36 182.5 l16 280l31 -16q-39 27 -100 39t-109 12q-107 0 -179.5 -141t-72.5 -367zM201 1057l284 272h33l242 -272h-88l-178 168l-205 -168h-88z" />
<glyph unicode="&#xe3;" horiz-adv-x="827" d="M88 336q0 154 48 290.5t143 225t217 88.5q45 0 106 -15.5t103 -41.5l-62 -883l-65 -18l-3 243l5 72q-24 -75 -63.5 -137t-81.5 -99.5t-82.5 -58t-73.5 -20.5q-191 0 -191 354zM180 354q0 -130 33.5 -206t101.5 -76q27 0 57.5 15.5t65.5 52t65 89.5t55 135.5t36 182.5 l16 280l31 -16q-39 27 -100 39t-109 12q-107 0 -179.5 -141t-72.5 -367zM193 1137q52 54 97 82t103 28q46 0 121.5 -28.5t101.5 -28.5q71 0 134 55l38 -49q-6 -6 -30 -28t-34.5 -30t-31.5 -22t-42 -19t-46 -5q-40 0 -125.5 33.5t-109.5 33.5q-18 0 -42.5 -9t-41.5 -19 t-37 -23l-19 -12z" />
<glyph unicode="&#xe4;" horiz-adv-x="827" d="M88 336q0 154 48 290.5t143 225t217 88.5q45 0 106 -15.5t103 -41.5l-62 -883l-65 -18l-3 243l5 72q-24 -75 -63.5 -137t-81.5 -99.5t-82.5 -58t-73.5 -20.5q-191 0 -191 354zM180 354q0 -130 33.5 -206t101.5 -76q27 0 57.5 15.5t65.5 52t65 89.5t55 135.5t36 182.5 l16 280l31 -16q-39 27 -100 39t-109 12q-107 0 -179.5 -141t-72.5 -367zM213 1235q1 24 28.5 51t45.5 27q17 0 47.5 -20t27.5 -40q-1 -23 -28 -50t-45 -27t-48.5 21t-27.5 38zM559 1235q1 23 29.5 50.5t44.5 27.5q19 0 50 -20t28 -40q-1 -22 -29.5 -49.5t-44.5 -27.5 q-18 0 -49.5 21t-28.5 38z" />
<glyph unicode="&#xe5;" horiz-adv-x="827" d="M88 336q0 154 48 290.5t143 225t217 88.5q45 0 106 -15.5t103 -41.5l-62 -883l-65 -18l-3 243l5 72q-24 -75 -63.5 -137t-81.5 -99.5t-82.5 -58t-73.5 -20.5q-191 0 -191 354zM180 354q0 -130 33.5 -206t101.5 -76q27 0 57.5 15.5t65.5 52t65 89.5t55 135.5t36 182.5 l16 280l31 -16q-39 27 -100 39t-109 12q-107 0 -179.5 -141t-72.5 -367zM293 1245q3 69 60 118.5t128 49.5t120.5 -44.5t43.5 -123.5q-3 -69 -60 -118.5t-126 -49.5q-73 0 -122.5 44.5t-43.5 123.5zM373 1245q-3 -43 24 -69.5t66 -26.5t70 27t34 69q3 45 -25 73t-67 28 t-69 -28t-33 -73z" />
<glyph unicode="&#xe6;" horiz-adv-x="1212" d="M88 295q0 99 12.5 187t43.5 173.5t78.5 147.5t124 99.5t173.5 37.5q59 0 125.5 -27t118.5 -71q92 98 207 98q87 0 137.5 -56.5t50.5 -131.5q0 -74 -43 -135t-111 -97.5t-145.5 -56t-154.5 -19.5q-3 -40 -3 -88q0 -141 45 -217t113 -76q36 0 70.5 10.5t69 33t56.5 40.5 t58 50l37 -43q-61 -68 -145 -120t-154 -52q-106 0 -170 74.5t-74 217.5q-167 -294 -354 -294q-23 0 -49.5 16t-53.5 49t-45 98.5t-18 151.5zM180 297q0 -90 39 -157.5t90 -67.5q56 0 141.5 81t155.5 207q6 246 107 412q-139 100 -252 100q-129 0 -205 -150t-76 -425z M709 508q158 1 256 67t98 160q0 59 -34 95t-89 36q-198 0 -231 -358z" />
<glyph unicode="&#xe7;" horiz-adv-x="749" d="M88 344q0 137 33 252t87 189t119.5 114.5t133.5 40.5q36 0 68 -4.5t53.5 -10.5t42 -15t30.5 -15.5t22.5 -15t14.5 -9.5l-41 -79q-10 5 -35.5 18.5l-34 18t-28.5 14t-31.5 12.5t-29.5 8t-35 6.5t-37 1.5q-63 0 -112 -55.5t-74 -137t-37.5 -154.5t-12.5 -126 q0 -173 42.5 -255.5t140.5 -82.5q48 0 97.5 23t78.5 46t74 64l6.5 6.5t5.5 4.5l39 -39q-43 -45 -106 -92t-132 -72l-63 -115q8 -4 35 -18t33.5 -18t25 -16t23 -19t13.5 -19.5t10.5 -26t0.5 -30.5q-5 -69 -80 -125t-219 -74l-10 68q107 14 159.5 35t55.5 67q1 32 -34 55 t-120 48l-4 10l84 160h-8q-116 0 -180 89t-64 273z" />
<glyph unicode="&#xe8;" horiz-adv-x="708" d="M90 330q0 268 104.5 439t260.5 171q87 0 137.5 -56.5t50.5 -131.5q0 -74 -43 -135t-111 -97.5t-146 -56t-155 -19.5q-2 -27 -2 -88q0 -141 45 -217t113 -76q48 0 96.5 22t79 46t76.5 66l39 -43q-60 -67 -145.5 -119.5t-153.5 -52.5q-116 0 -181 90t-65 258zM193 508 q157 1 255.5 67.5t98.5 159.5q0 58 -34.5 94.5t-88.5 36.5q-198 0 -231 -358zM256 1307l111 22l243 -272h-80z" />
<glyph unicode="&#xe9;" horiz-adv-x="708" d="M90 330q0 268 104.5 439t260.5 171q87 0 137.5 -56.5t50.5 -131.5q0 -74 -43 -135t-111 -97.5t-146 -56t-155 -19.5q-2 -27 -2 -88q0 -141 45 -217t113 -76q48 0 96.5 22t79 46t76.5 66l39 -43q-60 -67 -145.5 -119.5t-153.5 -52.5q-116 0 -181 90t-65 258zM193 508 q157 1 255.5 67.5t98.5 159.5q0 58 -34.5 94.5t-88.5 36.5q-198 0 -231 -358zM334 1057l284 272l107 -22l-313 -250h-78z" />
<glyph unicode="&#xea;" horiz-adv-x="708" d="M90 330q0 268 104.5 439t260.5 171q87 0 137.5 -56.5t50.5 -131.5q0 -74 -43 -135t-111 -97.5t-146 -56t-155 -19.5q-2 -27 -2 -88q0 -141 45 -217t113 -76q48 0 96.5 22t79 46t76.5 66l39 -43q-60 -67 -145.5 -119.5t-153.5 -52.5q-116 0 -181 90t-65 258zM156 1057 l284 272h33l242 -272h-88l-178 168l-205 -168h-88zM193 508q157 1 255.5 67.5t98.5 159.5q0 58 -34.5 94.5t-88.5 36.5q-198 0 -231 -358z" />
<glyph unicode="&#xeb;" horiz-adv-x="708" d="M90 330q0 268 104.5 439t260.5 171q87 0 137.5 -56.5t50.5 -131.5q0 -74 -43 -135t-111 -97.5t-146 -56t-155 -19.5q-2 -27 -2 -88q0 -141 45 -217t113 -76q48 0 96.5 22t79 46t76.5 66l39 -43q-60 -67 -145.5 -119.5t-153.5 -52.5q-116 0 -181 90t-65 258zM190 1235 q1 24 28.5 51t45.5 27q17 0 48 -20.5t28 -39.5q-1 -22 -28.5 -49.5t-45.5 -27.5t-48.5 21t-27.5 38zM193 508q157 1 255.5 67.5t98.5 159.5q0 58 -34.5 94.5t-88.5 36.5q-198 0 -231 -358zM537 1235q1 23 29 50.5t44 27.5q19 0 50 -20t28 -40q-1 -22 -29.5 -49.5 t-44.5 -27.5q-18 0 -49 21t-28 38z" />
<glyph unicode="&#xec;" horiz-adv-x="407" d="M-61 1311l110 22l244 -272h-80zM129 0l66 920l90 20l-68 -940h-88z" />
<glyph unicode="&#xed;" horiz-adv-x="407" d="M129 0l66 920l90 20l-68 -940h-88zM199 1061l284 272l107 -22l-314 -250h-77z" />
<glyph unicode="&#xee;" horiz-adv-x="407" d="M-37 1061l285 272h33l241 -272h-88l-178 168l-205 -168h-88zM129 0l66 920l90 20l-68 -940h-88z" />
<glyph unicode="&#xef;" horiz-adv-x="407" d="M39 1235q1 23 29.5 50.5t44.5 27.5q17 0 48.5 -20.5t28.5 -39.5q-1 -22 -29 -49.5t-44 -27.5q-18 0 -49.5 21t-28.5 38zM129 0l66 920l90 20l-68 -940h-88zM322 1235q1 23 29 50.5t44 27.5q19 0 50 -20t28 -40q-1 -22 -28.5 -49.5t-45.5 -27.5t-49 21t-28 38z" />
<glyph unicode="&#xf0;" horiz-adv-x="796" d="M90 358q1 122 35.5 232.5t89 186t123 119.5t137.5 44q74 0 156 -43q-27 187 -142 322l-198 -95l-47 52l196 94q-59 59 -153 116l63 50q97 -74 156 -133l194 92l48 -54l-195 -92q90 -107 130 -238t40 -327q0 -130 -28 -246.5t-72 -197.5t-98 -141t-107.5 -88.5 t-98.5 -28.5q-102 0 -165.5 95.5t-63.5 280.5zM190 401q0 -167 42.5 -250t119.5 -81q39 -1 88 39.5t95 112.5t77 190.5t31 255.5q0 102 -4 149q-132 37 -199 37q-109 0 -179.5 -109.5t-70.5 -343.5z" />
<glyph unicode="&#xf1;" horiz-adv-x="880" d="M131 0l64 920l65 20l10 -309q70 150 155 229.5t165 79.5q82 0 121 -57t39 -172q0 -156 -64 -711h-90q1 19 28 296t27 351q0 114 -24 159.5t-88 45.5q-69 0 -159.5 -117.5t-121.5 -308.5l-35 -426h-92zM184 1137q52 54 97.5 82t103.5 28q46 0 121.5 -28.5t101.5 -28.5 q70 0 133 55l39 -49q-6 -6 -30 -28t-34.5 -30t-31.5 -22t-42 -19t-46 -5q-40 0 -126 33.5t-110 33.5q-18 0 -42.5 -9t-41 -19t-35.5 -22.5t-20 -12.5z" />
<glyph unicode="&#xf2;" horiz-adv-x="870" d="M92 360q0 80 14.5 160t47.5 156.5t79.5 134.5t116 93.5t152.5 35.5q121 0 197.5 -102t76.5 -277q0 -80 -14.5 -160t-47 -156t-79 -134t-116 -93.5t-152.5 -35.5q-126 0 -200.5 100.5t-74.5 277.5zM190 377q0 -152 59.5 -239t166.5 -87q61 0 109 35t76.5 88t47 122.5 t25 130t6.5 118.5q0 145 -57 235t-168 90q-52 0 -94.5 -24.5t-70 -66.5t-48 -92.5t-31.5 -108t-16 -107t-5 -94.5zM299 1307l111 22l243 -272h-80z" />
<glyph unicode="&#xf3;" horiz-adv-x="870" d="M92 360q0 80 14.5 160t47.5 156.5t79.5 134.5t116 93.5t152.5 35.5q121 0 197.5 -102t76.5 -277q0 -80 -14.5 -160t-47 -156t-79 -134t-116 -93.5t-152.5 -35.5q-126 0 -200.5 100.5t-74.5 277.5zM190 377q0 -152 59.5 -239t166.5 -87q61 0 109 35t76.5 88t47 122.5 t25 130t6.5 118.5q0 145 -57 235t-168 90q-52 0 -94.5 -24.5t-70 -66.5t-48 -92.5t-31.5 -108t-16 -107t-5 -94.5zM436 1057l285 272l106 -22l-313 -250h-78z" />
<glyph unicode="&#xf4;" horiz-adv-x="870" d="M92 360q0 80 14.5 160t47.5 156.5t79.5 134.5t116 93.5t152.5 35.5q121 0 197.5 -102t76.5 -277q0 -80 -14.5 -160t-47 -156t-79 -134t-116 -93.5t-152.5 -35.5q-126 0 -200.5 100.5t-74.5 277.5zM190 377q0 -152 59.5 -239t166.5 -87q61 0 109 35t76.5 88t47 122.5 t25 130t6.5 118.5q0 145 -57 235t-168 90q-52 0 -94.5 -24.5t-70 -66.5t-48 -92.5t-31.5 -108t-16 -107t-5 -94.5zM236 1057l284 272h33l242 -272h-88l-179 168l-204 -168h-88z" />
<glyph unicode="&#xf5;" horiz-adv-x="870" d="M92 360q0 80 14.5 160t47.5 156.5t79.5 134.5t116 93.5t152.5 35.5q121 0 197.5 -102t76.5 -277q0 -80 -14.5 -160t-47 -156t-79 -134t-116 -93.5t-152.5 -35.5q-126 0 -200.5 100.5t-74.5 277.5zM190 377q0 -152 59.5 -239t166.5 -87q61 0 109 35t76.5 88t47 122.5 t25 130t6.5 118.5q0 145 -57 235t-168 90q-52 0 -94.5 -24.5t-70 -66.5t-48 -92.5t-31.5 -108t-16 -107t-5 -94.5zM252 1137q52 54 97.5 82t103.5 28q46 0 121.5 -28.5t101.5 -28.5q70 0 133 55l39 -49q-6 -6 -30 -28t-34.5 -30t-31.5 -22t-42 -19t-46 -5q-40 0 -126 33.5 t-110 33.5q-18 0 -42.5 -9t-41 -19t-35.5 -22.5t-20 -12.5z" />
<glyph unicode="&#xf6;" horiz-adv-x="870" d="M92 360q0 80 14.5 160t47.5 156.5t79.5 134.5t116 93.5t152.5 35.5q121 0 197.5 -102t76.5 -277q0 -80 -14.5 -160t-47 -156t-79 -134t-116 -93.5t-152.5 -35.5q-126 0 -200.5 100.5t-74.5 277.5zM190 377q0 -152 59.5 -239t166.5 -87q61 0 109 35t76.5 88t47 122.5 t25 130t6.5 118.5q0 145 -57 235t-168 90q-52 0 -94.5 -24.5t-70 -66.5t-48 -92.5t-31.5 -108t-16 -107t-5 -94.5zM258 1235q1 24 28.5 51t45.5 27q17 0 48 -20.5t28 -39.5q-1 -22 -28.5 -49.5t-45.5 -27.5t-48.5 21t-27.5 38zM604 1235q1 23 29.5 50.5t44.5 27.5 q19 0 50 -20t28 -40q-1 -22 -29.5 -49.5t-44.5 -27.5q-18 0 -49.5 21t-28.5 38z" />
<glyph unicode="&#xf7;" d="M59 496l4 88h873l-4 -88h-873zM379 215q0 24 40 63t62 39q24 0 64 -31.5t37 -56.5q-3 -26 -42.5 -64t-62.5 -38q-22 0 -61.5 32t-36.5 56zM422 846q3 26 41.5 65t60.5 39q31 0 67.5 -31.5t33.5 -58.5q1 -24 -40 -62t-65 -38t-62.5 31.5t-35.5 54.5z" />
<glyph unicode="&#xf8;" horiz-adv-x="870" d="M92 360q0 80 14.5 160t47.5 156.5t79.5 134.5t116 93.5t152.5 35.5q17 0 45 -4l41 135h74l-50 -158q75 -39 119.5 -131t44.5 -221q0 -80 -14.5 -160t-47 -156t-79 -134t-116 -93.5t-152.5 -35.5q-27 0 -39 2l-39 -129h-76l47 149q-79 37 -123.5 129t-44.5 227zM190 377 q0 -197 97 -281l235 764q-33 10 -67 10q-52 0 -94.5 -24.5t-70 -66.5t-48 -92.5t-31.5 -108t-16 -107t-5 -94.5zM352 61q30 -10 64 -10q61 0 109 35t76.5 88t47 122.5t25 130t6.5 118.5q0 193 -94 278z" />
<glyph unicode="&#xf9;" horiz-adv-x="870" d="M131 211q0 139 66 711l92 14q-1 -22 -29.5 -307.5t-28.5 -356.5q0 -117 22 -159.5t83 -42.5q31 0 74 32.5t87.5 91.5t80 157.5t45.5 213.5v-12l26 367l88 20l-61 -940l-60 -18l-8 317q-70 -155 -154.5 -236t-166.5 -81q-81 0 -118.5 56.5t-37.5 172.5zM219 1307l111 22 l243 -272h-79z" />
<glyph unicode="&#xfa;" horiz-adv-x="870" d="M131 211q0 139 66 711l92 14q-1 -22 -29.5 -307.5t-28.5 -356.5q0 -117 22 -159.5t83 -42.5q31 0 74 32.5t87.5 91.5t80 157.5t45.5 213.5v-12l26 367l88 20l-61 -940l-60 -18l-8 317q-70 -155 -154.5 -236t-166.5 -81q-81 0 -118.5 56.5t-37.5 172.5zM375 1057l284 272 l107 -22l-313 -250h-78z" />
<glyph unicode="&#xfb;" horiz-adv-x="870" d="M131 211q0 139 66 711l92 14q-1 -22 -29.5 -307.5t-28.5 -356.5q0 -117 22 -159.5t83 -42.5q31 0 74 32.5t87.5 91.5t80 157.5t45.5 213.5v-12l26 367l88 20l-61 -940l-60 -18l-8 317q-70 -155 -154.5 -236t-166.5 -81q-81 0 -118.5 56.5t-37.5 172.5zM207 1057l285 272 h32l242 -272h-88l-178 168l-205 -168h-88z" />
<glyph unicode="&#xfc;" horiz-adv-x="870" d="M131 211q0 139 66 711l92 14q-1 -22 -29.5 -307.5t-28.5 -356.5q0 -117 22 -159.5t83 -42.5q31 0 74 32.5t87.5 91.5t80 157.5t45.5 213.5v-12l26 367l88 20l-61 -940l-60 -18l-8 317q-70 -155 -154.5 -236t-166.5 -81q-81 0 -118.5 56.5t-37.5 172.5zM238 1235 q1 24 28 51t45 27q17 0 48 -20.5t28 -39.5q-1 -22 -28.5 -49.5t-45.5 -27.5t-48 21t-27 38zM584 1235q1 23 29 50.5t44 27.5q19 0 50 -20t28 -40q-1 -22 -29 -49.5t-44 -27.5q-18 0 -49.5 21t-28.5 38z" />
<glyph unicode="&#xfd;" horiz-adv-x="815" d="M-213 -457l12 97q75 -11 125 -11q116 0 228.5 90.5t209.5 251.5h-32l-150 938l90 29l138 -877l2 -8q96 184 160.5 411t86.5 458h82q-8 -103 -31 -223.5t-64 -254t-95 -262t-127.5 -245.5t-157 -205t-189 -140.5t-218.5 -52.5q-5 0 -13.5 0.5t-24.5 1.5zM446 1057l285 272 l107 -22l-314 -250h-78z" />
<glyph unicode="&#xfe;" horiz-adv-x="874" d="M90 -461l133 1831l92 21l-57 -795q77 165 163 254.5t157 89.5q204 0 204 -383q0 -143 -50 -277t-133.5 -217t-176.5 -83q-62 0 -101.5 8.5t-105.5 36.5l-33 -465zM221 104q147 -45 225 -45q36 0 70 17.5t65.5 57t55 95.5t37.5 139t14 183q0 151 -39 224t-102 73 q-25 0 -60.5 -22.5t-76.5 -72t-77 -117.5t-64 -171t-36 -221l3 41z" />
<glyph unicode="&#xff;" horiz-adv-x="815" d="M-213 -457l12 97q75 -11 125 -11q116 0 228.5 90.5t209.5 251.5h-32l-150 938l90 29l138 -877l2 -8q96 184 160.5 411t86.5 458h82q-8 -103 -31 -223.5t-64 -254t-95 -262t-127.5 -245.5t-157 -205t-189 -140.5t-218.5 -52.5q-5 0 -13.5 0.5t-24.5 1.5zM246 1235 q1 24 28 51t45 27q17 0 48 -20.5t28 -39.5q-1 -23 -28 -50t-45 -27t-48.5 21t-27.5 38zM592 1235q1 23 29.5 50.5t44.5 27.5q18 0 49 -20t28 -40q-1 -22 -29 -49.5t-44 -27.5q-18 0 -49.5 21t-28.5 38z" />
<glyph unicode="&#x152;" horiz-adv-x="1507" d="M88 545q0 117 19.5 218t53 173.5t79 131.5t95 96t104 62t104 35.5t96.5 10.5q113 0 184 -43l2 24h607l-19 -86l-495 7l-33 -474h448l-14 -79l-440 2l-37 -545l542 6l-18 -84h-629l2 43q-122 -61 -235 -61q-204 0 -310 148.5t-106 414.5zM190 586q0 -136 29.5 -238.5 t81.5 -163.5t118.5 -91t145.5 -30q74 0 180 48l70 1003q-99 76 -237 76q-58 0 -111.5 -19t-104.5 -64t-88.5 -112.5t-60.5 -172.5t-23 -236z" />
<glyph unicode="&#x153;" horiz-adv-x="1275" d="M92 360q0 80 14.5 160t47.5 156.5t79.5 134.5t116 93.5t152.5 35.5q88 0 154.5 -56t97.5 -157q50 102 123 157.5t159 55.5q87 0 138 -56.5t51 -131.5q0 -74 -43 -135t-111 -97.5t-146 -56t-155 -19.5q-2 -27 -2 -88q0 -141 45 -217t113 -76q48 0 96.5 22t79 46t76.5 66 l39 -43q-60 -67 -145.5 -119.5t-153.5 -52.5q-88 0 -147.5 52.5t-84.5 153.5q-112 -206 -319 -206q-126 0 -200.5 100.5t-74.5 277.5zM190 377q0 -152 59.5 -239t166.5 -87q61 0 109 35t76.5 88t47 122.5t25 130t6.5 118.5q0 145 -57 235t-168 90q-52 0 -94.5 -24.5 t-70 -66.5t-48 -92.5t-31.5 -108t-16 -107t-5 -94.5zM774 508q157 1 255.5 67.5t98.5 159.5q0 58 -34 94.5t-88 36.5q-197 0 -232 -356v-2z" />
<glyph unicode="&#x178;" horiz-adv-x="1001" d="M96 1253h113l332 -645l405 645h98l-469 -727l-36 -526h-97l37 522zM317 1542q1 24 28.5 51t45.5 27q17 0 48 -20t28 -39q-1 -23 -28.5 -50.5t-45.5 -27.5t-48.5 21t-27.5 38zM664 1542q1 23 29 50.5t44 27.5q19 0 50 -19.5t28 -39.5q-1 -22 -29.5 -50t-44.5 -28 q-18 0 -49 21t-28 38z" />
<glyph unicode="&#x2c6;" horiz-adv-x="794" d="M117 1057l284 272h33l242 -272h-88l-178 168l-205 -168h-88z" />
<glyph unicode="&#x2dc;" horiz-adv-x="743" d="M74 1137q52 54 97 82t103 28q46 0 122 -28.5t102 -28.5q70 0 133 55l39 -49q-5 -5 -30 -28t-35 -30.5t-31.5 -21.5t-42.5 -19t-46 -5q-40 0 -125.5 33.5t-109.5 33.5q-18 0 -42.5 -9t-41 -19t-35.5 -22.5t-20 -12.5z" />
<glyph unicode="&#x2000;" horiz-adv-x="854" />
<glyph unicode="&#x2001;" horiz-adv-x="1708" />
<glyph unicode="&#x2002;" horiz-adv-x="854" />
<glyph unicode="&#x2003;" horiz-adv-x="1708" />
<glyph unicode="&#x2004;" horiz-adv-x="569" />
<glyph unicode="&#x2005;" horiz-adv-x="427" />
<glyph unicode="&#x2006;" horiz-adv-x="284" />
<glyph unicode="&#x2007;" horiz-adv-x="284" />
<glyph unicode="&#x2008;" horiz-adv-x="213" />
<glyph unicode="&#x2009;" horiz-adv-x="341" />
<glyph unicode="&#x200a;" horiz-adv-x="94" />
<glyph unicode="&#x2010;" horiz-adv-x="622" d="M104 475l17 70h393l4 -21l-22 -69h-387z" />
<glyph unicode="&#x2011;" horiz-adv-x="622" d="M104 475l17 70h393l4 -21l-22 -69h-387z" />
<glyph unicode="&#x2012;" horiz-adv-x="622" d="M104 475l17 70h393l4 -21l-22 -69h-387z" />
<glyph unicode="&#x2013;" horiz-adv-x="927" d="M104 475l17 62h700l2 -21l-22 -61h-692z" />
<glyph unicode="&#x2014;" horiz-adv-x="1316" d="M104 475l17 62h1087l4 -21l-22 -61h-1081z" />
<glyph unicode="&#x2018;" horiz-adv-x="454" d="M164 1094q-2 49 90 290q13 35 20 54l80 -27q-12 -38 -34.5 -102.5t-36 -106t-13.5 -51.5q0 -6 32 -38t32 -58q3 -22 -23.5 -47t-46.5 -25q-21 0 -59 37.5t-41 73.5z" />
<glyph unicode="&#x2019;" horiz-adv-x="454" d="M160 989q14 36 41 102t43 106.5t18 51.5q1 6 -28.5 37t-28.5 57q1 23 30.5 47.5t49.5 24.5q21 0 55 -36t33 -72q0 -9 -2 -20t-6.5 -25.5t-9.5 -28t-13.5 -34t-15 -37t-19 -44t-21 -46.5t-24.5 -53.5t-26 -57.5z" />
<glyph unicode="&#x201a;" horiz-adv-x="454" d="M78 -285q14 36 41 102t43 106.5t18 51.5q1 6 -28.5 37.5t-28.5 57.5q1 23 30.5 47t49.5 24q21 0 55 -36t33 -72q0 -9 -2 -20t-6.5 -25.5t-9.5 -28t-13.5 -34t-15 -37t-19 -44t-21 -46.5t-24.5 -53.5t-26 -57.5z" />
<glyph unicode="&#x201c;" horiz-adv-x="759" d="M166 1094q0 9 2 20t7 25.5t9 27.5t13 34.5t15.5 36.5t19.5 43.5t21 46t24 53.5t26 57l76 -27q-15 -40 -40.5 -103.5t-41.5 -105t-18 -51.5q-1 -6 27.5 -38t27.5 -58q-1 -22 -30 -47t-50 -25q-19 0 -54 37.5t-34 73.5zM449 1094q0 12 3.5 26t11 35.5t14 39.5t20.5 50.5 t24 54.5t30 66.5t32 71.5l75 -27q-15 -40 -40.5 -103.5t-41.5 -105t-18 -51.5q-1 -6 27.5 -38t27.5 -58q-1 -23 -29.5 -47.5t-49.5 -24.5q-19 0 -54 37.5t-32 73.5z" />
<glyph unicode="&#x201d;" horiz-adv-x="714" d="M160 989q14 36 41 102t43 106.5t18 51.5q1 6 -28.5 37t-28.5 57q1 23 30.5 47.5t49.5 24.5q21 0 55 -36t33 -72q0 -9 -2 -20t-6.5 -25.5t-9.5 -28t-13.5 -34t-15 -37t-19 -44t-21 -46.5t-24.5 -53.5t-26 -57.5zM422 989q14 36 41 102t43 106.5t18 51.5q1 6 -28.5 37 t-28.5 57q1 23 30.5 47.5t49.5 24.5q21 0 55 -36t33 -72q0 -9 -2 -20t-6.5 -25.5t-9.5 -28t-13.5 -34t-15 -37t-19 -44t-21 -46.5t-24.5 -53.5t-26 -57.5z" />
<glyph unicode="&#x201e;" horiz-adv-x="718" d="M78 -285q14 36 41 102t43 106.5t18 51.5q1 6 -28.5 37.5t-28.5 57.5q1 23 30.5 47t49.5 24q21 0 55 -36t33 -72q0 -9 -2 -20t-6.5 -25.5t-9.5 -28t-13.5 -34t-15 -37t-19 -44t-21 -46.5t-24.5 -53.5t-26 -57.5zM344 -285q14 36 41 102t43 106.5t18 51.5q1 6 -28.5 37.5 t-28.5 57.5q1 23 30.5 47t49.5 24q21 0 55 -36t33 -72q0 -9 -2 -20t-6.5 -25.5t-9.5 -28t-13.5 -34t-15 -37t-19 -44t-21 -46.5t-24.5 -53.5t-26 -57.5z" />
<glyph unicode="&#x2022;" horiz-adv-x="452" d="M74 549q3 43 61 99.5t98 56.5q37 0 91.5 -47.5t50.5 -88.5q0 -40 -59 -97.5t-95 -57.5q-38 0 -93 47t-54 88z" />
<glyph unicode="&#x2026;" horiz-adv-x="1529" d="M90 84q0 27 33.5 61.5t56.5 34.5t57 -29t31 -53q0 -27 -34 -60.5t-58 -33.5q-23 0 -56 27t-30 53zM627 84q0 27 33.5 61.5t54.5 34.5q23 0 57 -29t31 -53q0 -27 -34 -60.5t-58 -33.5q-22 0 -54.5 27t-29.5 53zM1165 84q0 27 33.5 61.5t54.5 34.5q24 0 58.5 -28.5 t31.5 -53.5q-1 -27 -35 -60.5t-59 -33.5q-22 0 -54.5 27t-29.5 53z" />
<glyph unicode="&#x202f;" horiz-adv-x="341" />
<glyph unicode="&#x2039;" horiz-adv-x="679" d="M121 475l401 383l41 -61l-307 -322l258 -321l-45 -62z" />
<glyph unicode="&#x203a;" horiz-adv-x="679" d="M117 156l307 319l-258 322l45 61l348 -383l-401 -383z" />
<glyph unicode="&#x205f;" horiz-adv-x="427" />
<glyph unicode="&#x20ac;" d="M-33 446l29 72l104 12h29q1 13 2 37t2 37q1 17 4 45.5t4 40.5h-161l26 72l117 12h35q29 126 86 224t129.5 156.5t152.5 88t162 29.5q81 0 184.5 -19t143.5 -43l-49 -96q-54 28 -153.5 48t-176.5 20q-306 0 -373 -408h559l-30 -84h-539q-4 -28 -4 -43q-4 -86 -4 -117h502 l-31 -84h-467q17 -194 107 -282t259 -88q159 0 326 78l19 -88q-64 -33 -164 -58.5t-195 -25.5q-443 0 -471 464h-164z" />
<glyph unicode="&#x25fc;" horiz-adv-x="931" d="M0 0v932h932v-932h-932z" />
</font>
</defs>
</svg>
