<?xml version="1.0" standalone="no"?>
<!DOCTYPE svg PUBLIC "-//W3C//DTD SVG 1.1//EN" "http://www.w3.org/Graphics/SVG/1.1/DTD/svg11.dtd" >
<svg xmlns="http://www.w3.org/2000/svg">
<metadata></metadata>
<defs>
<font id="ancizar_sansextrablack_italic" horiz-adv-x="1091" >
<font-face units-per-em="2048" ascent="1536" descent="-512" />
<missing-glyph horiz-adv-x="378" />
<glyph unicode="&#xfb01;" horiz-adv-x="1134" d="M-221 -463l84 320q14 -19 94 -19q52 0 81 16.5t32 65.5l41 756h-111l2 196l121 46q8 125 59.5 227.5t132 168t182.5 101t214 35.5q224 0 395 -68l-131 -301q-1 0 -38.5 14.5t-110.5 30t-152 15.5q-73 0 -112.5 -30t-43.5 -114l-4 -75h262l314 41l-68 -963h-389l49 676 h-182l-37 -692q-5 -102 -41.5 -186t-90 -138t-121 -91t-133 -53t-128.5 -16q-50 0 -102 10t-68 27z" />
<glyph unicode="&#xfb02;" horiz-adv-x="1222" d="M-221 -463l84 320q14 -19 94 -19q52 0 81 16.5t32 65.5l41 756h-111l2 196l121 46q8 125 59.5 227.5t132 168t182.5 101t214 35.5q135 0 247 -25l181 25q-19 -228 -45 -485t-40 -401t-14 -214q0 -18 10 -38.5t33 -20.5q18 0 33 3t35.5 10.5t24.5 8.5l45 -256 q-198 -98 -340 -98q-114 0 -176 60.5t-62 185.5q0 56 4 131t14 184t17 182.5t23 224.5t22 212q-14 2 -49 2q-73 0 -112.5 -30t-43.5 -114l-4 -75h135l-39 -246h-110l-37 -692q-5 -102 -41.5 -186t-90 -138t-121 -91t-133 -53t-128.5 -16q-50 0 -102 10t-68 27z" />
<glyph unicode="&#xfb03;" horiz-adv-x="1693" d="M-221 -463l84 320q14 -19 94 -19q52 0 81 16.5t32 65.5l34 756h-104l2 196l117 43q11 107 47.5 193.5t87 141t113.5 91.5t123 52.5t120 15.5q128 0 199 -23l-49 -208q76 131 212 201.5t298 70.5q222 0 397 -68l-131 -301q-1 0 -38.5 14.5t-110.5 30t-152 15.5 q-73 0 -113 -30t-43 -114l-4 -75h262l312 41l-68 -963h-387l49 676h-182l-37 -692q-6 -102 -42.5 -186t-90 -138t-121 -91t-133 -53t-127.5 -16q-50 0 -102 10t-68 27l51 203q-48 -81 -128 -137.5t-159 -79.5t-155 -23q-50 0 -102 10t-68 27zM438 -154q27 -8 80 -8 q52 0 81 16.5t30 65.5l43 756h-172l-37 -692q-3 -73 -25 -138zM512 922h172q5 78 33 163q-54 15 -107 15q-41 0 -65 -22.5t-27 -59.5z" />
<glyph unicode="&#xfb04;" horiz-adv-x="1777" d="M-221 -463l84 320q14 -19 94 -19q52 0 81 16.5t32 65.5l34 756h-104l2 196l117 43q11 107 47.5 193.5t87 141t113.5 91.5t123 52.5t120 15.5q128 0 199 -23l-45 -192q78 123 211 189.5t289 66.5q122 0 249 -23l179 23q-18 -231 -43.5 -486t-39.5 -400t-14 -214 q0 -18 10 -38.5t31 -20.5q19 0 34 3t36 10.5t25 8.5l43 -256q-86 -43 -177.5 -70.5t-160.5 -27.5q-114 0 -176 60.5t-62 185.5q0 56 4 131t14 184t17 182.5t23 224.5t22 212q-16 2 -49 2q-73 0 -113 -30t-43 -114l-4 -75h160l-37 -246h-137l-37 -692q-5 -102 -41.5 -186 t-90 -138t-121 -91t-133 -53t-128.5 -16q-50 0 -102 10t-68 27l47 187q-49 -76 -127 -128.5t-154.5 -74t-150.5 -21.5q-50 0 -102 10t-68 27zM438 -156q20 -6 74 -6q52 0 81 16.5t32 65.5l41 756h-166l-37 -692q-3 -75 -25 -140zM512 922h166q6 81 35 165q-67 13 -103 13 q-41 0 -65 -22.5t-27 -59.5z" />
<glyph horiz-adv-x="0" />
<glyph horiz-adv-x="682" />
<glyph unicode=" "  horiz-adv-x="378" />
<glyph unicode="&#x09;" horiz-adv-x="378" />
<glyph unicode="&#xa0;" horiz-adv-x="378" />
<glyph unicode="!" horiz-adv-x="675" d="M90 94q3 51 92 124t135 73q44 0 121.5 -69t71.5 -118q-3 -37 -86.5 -102t-124.5 -65q-45 0 -127.5 62t-81.5 95zM170 344q40 636 23 913l374 64q-83 -752 -96 -938z" />
<glyph unicode="&#x22;" horiz-adv-x="817" d="M86 1419h358l-63 -553h-281zM463 866l2 553h356l-80 -553h-278z" />
<glyph unicode="#" horiz-adv-x="1357" d="M10 340l2 31l103 147h194l58 184h-271l2 31l103 152h223l115 368h206l-114 -368h227l115 368h207l-115 -368h272l-2 -31l-102 -152h-225l-58 -184h301l-2 -31l-102 -147h-252l-107 -340h-206l106 340h-227l-107 -340h-207l107 340h-244zM516 518h227l58 184h-228z" />
<glyph unicode="$" d="M35 35l78 346q68 -36 114 -57t129.5 -43.5t165.5 -24.5q1 0 11.5 2t17 5t15.5 9.5t13.5 19.5t4.5 32q0 57 -92 104l-197 96q-89 46 -140 136t-51 186q0 156 93.5 270t246.5 156l-4 282h273l-39 -262q63 -4 131 -16.5t111 -24t84 -24t47 -13.5l-93 -352q-28 22 -157 68.5 t-193 46.5q-63 0 -80 -9q-24 -12 -24 -48q0 -25 26 -54t60 -45l207 -104q64 -31 107 -71t64 -86.5t29 -90t8 -96.5q0 -151 -121 -264.5t-307 -141.5l5 -282h-273l41 280q-165 17 -311 70z" />
<glyph unicode="%" horiz-adv-x="1501" d="M4 0l1219 1253h264l-1223 -1253h-260zM80 956q17 151 121 245.5t256 94.5q148 0 228 -78t63 -233q-9 -153 -114 -250.5t-259 -97.5q-148 0 -226 80t-69 239zM322 973q-3 -88 23 -126t79 -38q41 0 62.5 37t27.5 123q6 164 -102 164q-42 0 -63 -38.5t-27 -121.5zM752 276 q9 150 113.5 246t258.5 96q147 0 225.5 -78t69.5 -235q-12 -152 -117.5 -249t-257.5 -97q-151 0 -229 80t-63 237zM985 293q-4 -87 21.5 -125.5t78.5 -38.5q42 0 64.5 37.5t28.5 122.5q14 164 -97 164q-44 0 -67 -38.5t-29 -121.5z" />
<glyph unicode="&#x26;" horiz-adv-x="1314" d="M12 283q0 109 54.5 183t166.5 144q-63 65 -91.5 126t-28.5 145q0 81 33 153.5t97 131t170.5 93.5t241.5 35q57 0 148.5 -13t134.5 -38l-107 -268q-36 23 -110.5 40t-112.5 17q-42 0 -72 -20t-30 -51q0 -28 28 -60.5t68 -62t104.5 -86t118.5 -115.5q69 -78 115 -133 q2 10 2 28q0 136 -111 261l343 141q35 -32 67.5 -120t32.5 -196q0 -212 -125 -372q43 -66 58.5 -119.5t15.5 -130.5q0 -89 -39 -169t-95 -136.5t-137 -112.5l-180 160q30 39 52.5 89.5t25.5 86.5q0 30 -1 40t-7.5 26t-22.5 36q-165 -61 -358 -61q-220 0 -334.5 86.5 t-114.5 241.5zM377 358q0 -71 60.5 -110t135.5 -39q22 0 58 4q-21 21 -31 33q-78 86 -203 207q-6 -9 -10 -18.5t-6 -16t-3 -16t-1 -14.5v-15.5v-14.5z" />
<glyph unicode="'" horiz-adv-x="438" d="M86 1419h358l-75 -553h-273z" />
<glyph unicode="(" horiz-adv-x="710" d="M125 618q18 283 169 546.5t374 414.5l127 -137q-179 -140 -306.5 -370t-142.5 -454q-18 -253 72.5 -467.5t257.5 -353.5l-137 -137q-209 120 -321 390.5t-93 567.5z" />
<glyph unicode=")" horiz-adv-x="710" d="M-84 -201q179 140 306.5 370t142.5 454q18 253 -72.5 467.5t-257.5 353.5l137 137q209 -120 321 -390.5t93 -567.5q-18 -283 -169 -546.5t-374 -414.5z" />
<glyph unicode="*" horiz-adv-x="768" d="M92 905q47 42 81.5 66t51 31t49.5 17.5t54 18.5l47 -63q-53 -38 -87.5 -83t-68.5 -116zM96 1061l47 180q101 -19 146.5 -46.5t85.5 -84.5l-27 -72q-62 27 -132 30.5t-120 -7.5zM289 1348l180 45q26 -40 18 -142q-7 -80 -26 -137l-80 -8q0 76 -21.5 133t-70.5 109z M344 840q5 62 27 118l71 19q4 -77 26.5 -132t72.5 -114l-185 -35q-19 52 -12 144zM459 973l20 65q70 -29 133.5 -32.5t135.5 10.5l-68 -180q-38 9 -66.5 17t-50 19t-33.5 16t-25 20t-16 18t-15.5 23.5t-14.5 23.5zM461 1096q18 12 33 24.5t29 29t23 27.5t23 33.5t19.5 32 t21.5 38.5t21 38l110 -135q-17 -16 -32.5 -30t-28 -24.5t-27.5 -20t-23 -15t-23.5 -11.5t-20.5 -8.5t-21.5 -7t-20 -5.5t-21.5 -4.5t-21 -4.5z" />
<glyph unicode="+" d="M123 432l18 230h287l21 288h245l-20 -288h291l-19 -230h-289l-20 -295h-246l21 295h-289z" />
<glyph unicode="," horiz-adv-x="520" d="M-10 -264q14 23 39.5 62t35 54t24.5 42t21 43t11 37.5t6 43.5q1 17 -26.5 41.5t-55.5 53t-27 53.5q7 67 70.5 121.5t128.5 54.5q34 0 71.5 -18.5t69.5 -49.5t51.5 -78t16.5 -98q-9 -63 -69 -174.5t-181 -259.5z" />
<glyph unicode="-" horiz-adv-x="749" d="M47 381l12 63l107 174h536l-12 -63l-82 -174h-561z" />
<glyph unicode="." horiz-adv-x="520" d="M8 131q6 57 92 131t146 74q61 0 147.5 -59t83.5 -115q-6 -56 -93.5 -129.5t-141.5 -73.5q-39 0 -95 27t-98.5 68.5t-40.5 76.5z" />
<glyph unicode="/" horiz-adv-x="813" d="M43 -225l512 1644h215l-512 -1644h-215z" />
<glyph unicode="0" d="M14 473q0 143 19 261t51.5 201.5t79.5 147.5t98.5 103.5t113 64t118.5 34t120 9.5q473 0 463 -536q2 -200 -44 -355.5t-128 -251t-188 -144t-230 -48.5q-127 0 -219.5 37.5t-147 107.5t-80.5 161.5t-26 207.5zM434.5 410q0.5 -19 2 -49.5t7 -49.5t14.5 -38.5t24 -30 t36 -11.5q144 12 144 484q3 69 2 125.5t-8 96t-28 61.5t-57 22q-18 0 -32 -5.5t-34.5 -35t-34.5 -80.5t-24 -153t-10 -242q0 -11 -1 -43t-0.5 -51z" />
<glyph unicode="1" d="M141 1077q31 10 248.5 80.5t288.5 95.5h254l-88 -1253h-422l59 854l-272 -113z" />
<glyph unicode="2" d="M57 0l15 297q305 239 418.5 361.5t111.5 201.5q0 49 -45.5 75t-110.5 26q-45 0 -120.5 -19.5t-143.5 -52.5l-67 311q236 94 475 94q214 0 326 -93t112 -261q0 -84 -39.5 -175t-141 -207t-259.5 -236l434 8l-76 -330h-889z" />
<glyph unicode="3" d="M31 10l90 336q121 -41 183 -50q38 -5 77 -5q188 0 188 90q0 20 -2.5 32t-13 28.5t-37.5 25t-70 8.5q-120 0 -167 -12l-46 297q109 0 183.5 10.5t110 29.5t49.5 39t14 46q0 50 -30 67t-81 17q-53 0 -133 -24.5t-133 -57.5l-63 307q83 48 216.5 74t247.5 26q194 0 302 -78 t108 -212q0 -39 -8.5 -76.5t-32 -84t-75.5 -88t-128 -69.5q217 -63 217 -289q0 -138 -86.5 -239t-228.5 -150t-320 -49q-87 0 -183.5 14.5t-147.5 36.5z" />
<glyph unicode="4" d="M-63 158l20 282l627 813h420l-58 -802h162l-76 -293h-106l-11 -158h-383l11 158h-606zM330 451h235l25 354z" />
<glyph unicode="5" d="M18 2l84 320q192 -62 312 -62q27 0 46 1t45.5 7.5t43 18.5t29 35.5t12.5 56.5q0 54 -48.5 82t-170.5 28q-120 0 -248 -22l88 786h838l-68 -301h-449l-18 -164q57 13 100 13q180 0 286.5 -87.5t107.5 -246.5q-1 -106 -36.5 -192.5t-96.5 -144.5t-144.5 -97t-176 -56.5 t-194.5 -17.5q-27 0 -49.5 0.5t-45.5 2t-37.5 2.5t-37 4.5t-31.5 4.5t-34.5 6t-32 6.5t-37 8t-37.5 8.5z" />
<glyph unicode="6" d="M37 489q0 183 43 326.5t112 232t164.5 145.5t191.5 79t202 22q75 0 161 -12t136 -31l-70 -331q-163 53 -250 53q-103 0 -161.5 -35.5t-88.5 -138.5q84 53 207 53q99 0 172 -28.5t116 -82t63 -122.5t20 -156q0 -67 -18.5 -135t-61.5 -135t-105.5 -118.5t-159 -83.5 t-214.5 -32q-237 0 -348 138.5t-111 391.5zM446 449q2 -50 6.5 -84.5t16 -67.5t34 -49.5t56.5 -16.5q37 0 67.5 43.5t30.5 128.5q0 66 -33.5 110t-84.5 44q-48 0 -93 -25v-83z" />
<glyph unicode="7" d="M76 905l71 348h947l-25 -292q-33 -64 -87.5 -169.5t-168.5 -328t-189.5 -370.5t-74.5 -148l-416 127l459 833h-516z" />
<glyph unicode="8" d="M12 283q0 194 201 327q-117 108 -117 279q0 99 43 177.5t117 127t168 74t199 24.5q214 1 325 -77.5t111 -227.5q0 -69 -46 -153t-143 -150q101 -65 141 -133t40 -189q0 -169 -155 -286t-404 -117q-241 0 -360.5 88t-119.5 236zM401 326q0 -40 41.5 -68.5t102.5 -28.5 q35 0 60 9.5t36.5 21t17.5 28t6.5 23.5t0.5 14v1q0 10 -13 25.5t-59.5 45t-120.5 60.5q-43 -33 -57.5 -62.5t-14.5 -68.5zM479 950q0 -30 27.5 -55t107.5 -68q70 63 70 129q0 30 -29 49t-69 19q-33 0 -56 -8.5t-33 -21.5t-14 -23.5t-4 -20.5z" />
<glyph unicode="9" d="M37 2l65 317q33 -15 99.5 -26.5t130.5 -11.5q93 0 158 31.5t106 121.5q-84 -41 -186 -41q-99 0 -172.5 30t-116.5 85t-63.5 125.5t-20.5 157.5q0 67 18.5 135t61.5 135t106 118t160 83t215 32q237 0 348 -138.5t111 -391.5q0 -182 -46.5 -326.5t-118.5 -232t-168 -145 t-187 -79.5t-183 -22q-179 0 -317 43zM434 852q0 -164 121 -164q48 0 90 25q2 25 2 84q-2 50 -6.5 84t-16 67t-34.5 49.5t-58 16.5q-42 0 -70 -40.5t-28 -121.5z" />
<glyph unicode=":" horiz-adv-x="520" d="M-14 131q6 57 91.5 131t145.5 74q61 0 148 -59t84 -115q-6 -56 -94 -129.5t-142 -73.5q-39 0 -95 27t-98 68.5t-40 76.5zM27 705q6 57 91.5 130.5t145.5 73.5q61 0 148 -59t84 -115q-6 -56 -94 -129.5t-142 -73.5q-39 0 -95 27.5t-98 69t-40 76.5z" />
<glyph unicode=";" horiz-adv-x="520" d="M-33 -264q14 23 39.5 62t35 54t24.5 42t21 43t11 37.5t6 43.5q1 17 -26.5 41.5t-55 53t-26.5 53.5q7 67 70.5 121.5t128.5 54.5q34 0 71.5 -18.5t69 -49.5t51 -78t16.5 -98q-9 -64 -68.5 -175t-180.5 -259zM14 705q6 57 92 130.5t146 73.5q61 0 147.5 -59t83.5 -115 q-6 -56 -93.5 -129.5t-141.5 -73.5q-39 0 -95 27.5t-98.5 69t-40.5 76.5z" />
<glyph unicode="=" d="M164 287l53 200h694l4 -30l-53 -201h-694zM180 627l53 200h695l4 -30l-53 -201h-695z" />
<glyph unicode="?" horiz-adv-x="968" d="M70 1204q105 55 233 92t211 37q197 0 319 -100.5t109 -259.5q-4 -139 -235 -307q-68 -50 -95 -81t-28 -63q1 -11 12.5 -49t15.5 -57l-354 -74q-21 32 -39 76.5t-20 68.5q4 61 34.5 101.5t116.5 107.5q51 41 78 65.5t53 55.5t36 62t11 69q2 22 -28 54t-68 32 q-67 0 -111.5 -16.5t-150.5 -77.5zM201 80q6 59 87.5 133t135.5 74q46 0 120 -69.5t70 -125.5q-3 -56 -89.5 -130.5t-131.5 -74.5q-52 0 -123.5 70t-68.5 123z" />
<glyph unicode="@" horiz-adv-x="1705" d="M23 481q12 188 75.5 341.5t159 254.5t218 170t248 99t253.5 30q217 0 383.5 -74t254.5 -212.5t75 -319.5q-11 -133 -73.5 -252t-160 -206t-219 -147t-254.5 -85l-49 256q-34 -47 -52.5 -71t-46 -54.5t-49 -44t-50.5 -23.5t-62 -10q-110 0 -171.5 85.5t-47.5 275.5 q5 70 27 137.5t64.5 131.5t100.5 112.5t142 78t182 29.5q68 0 159.5 -25t118.5 -30l-39 -553q49 36 84 76.5t65 120.5t36 186q6 169 -123 266.5t-352 97.5q-239 0 -399 -158.5t-189 -433.5q-13 -158 19 -276t101.5 -186.5t160.5 -101t204 -32.5q51 0 102 6.5t81.5 12.5 t75 21t55 19.5t49.5 20.5l71 -213q-261 -110 -506 -110q-76 0 -148.5 10t-150 35t-143 64t-123 101.5t-95.5 142.5t-55.5 192t-6.5 245zM754 508q-18 -139 53 -139q100 0 131 200l14 215q-16 2 -53 2q-32 0 -55.5 -14t-37.5 -34.5t-24.5 -60t-16 -75t-11.5 -94.5z" />
<glyph unicode="A" horiz-adv-x="1181" d="M-86 0l471 1253h545l217 -1253h-410l-22 141h-359l-47 -141h-395zM457 444h209l-68 430z" />
<glyph unicode="B" horiz-adv-x="1155" d="M68 0l88 1253h469q231 0 340.5 -74t109.5 -233q0 -153 -147 -268q180 -70 180 -268q0 -84 -34 -153.5t-90.5 -116t-132 -79t-157.5 -47t-168 -14.5h-458zM475 258l66 -2q61 0 108 31.5t47 89.5q0 59 -45 103t-131 44q0 -2 -24 -2zM514 762h39q149 0 149 104 q0 58 -39.5 96.5t-97.5 38.5h-33z" />
<glyph unicode="C" horiz-adv-x="999" d="M14 573q0 111 28 215t87 196.5t143.5 161t205.5 108.5t265 40q162 0 279 -47l-84 -321q-67 21 -117.5 31t-70.5 11t-64 1q-250 0 -250 -377q0 -77 24 -138.5t63 -98t84.5 -55.5t92.5 -19q123 0 205 30l45 -278q-76 -35 -157 -51.5t-213 -16.5q-262 0 -414 165t-152 443z " />
<glyph unicode="D" horiz-adv-x="1294" d="M68 0l88 1253h514q128 0 232 -35t181 -104t120.5 -178.5t45.5 -251.5q-2 -141 -53.5 -265t-143.5 -217.5t-229.5 -147.5t-302.5 -54h-452zM500 307h18q60 0 111 16.5t94.5 52.5t68.5 102t25 155q0 87 -20.5 150.5t-55.5 97.5t-73.5 49.5t-81.5 15.5h-35z" />
<glyph unicode="E" horiz-adv-x="1060" d="M68 0l88 1253h872l-70 -301l-413 6l-13 -176h420l-73 -303l-367 13l-12 -183l489 6l-69 -315h-852z" />
<glyph unicode="F" horiz-adv-x="1015" d="M68 0l88 1253h872l-70 -301l-413 6l-15 -215h412l-70 -303l-362 13l-33 -453h-409z" />
<glyph unicode="G" horiz-adv-x="1177" d="M14 575q0 91 26 188t83 193.5t137.5 172.5t201.5 123.5t263 47.5q122 0 241 -19.5t179 -59.5l-78 -330q-68 28 -175.5 53t-201.5 25q-131 0 -194.5 -92.5t-63.5 -313.5q0 -144 72.5 -218.5t185.5 -74.5h25l22 353h353l-35 -580q-75 -34 -205 -59t-232 -25 q-299 0 -451.5 157t-152.5 459z" />
<glyph unicode="H" horiz-adv-x="1333" d="M68 0l88 1253h409l-33 -452h291l33 452h412l-88 -1253h-412l33 461h-291l-33 -461h-409z" />
<glyph unicode="I" horiz-adv-x="632" d="M68 0l88 1253h409l-88 -1253h-409z" />
<glyph unicode="J" horiz-adv-x="772" d="M-80 8l88 328q47 -37 119 -37q52 0 80 28t33 115l53 811h412l-62 -893q-12 -178 -148.5 -289.5t-320.5 -111.5q-71 0 -147 16t-107 33z" />
<glyph unicode="K" horiz-adv-x="1294" d="M68 0l88 1253h407l-39 -565l367 565h452l-417 -581l356 -672h-469l-291 657l-47 -657h-407z" />
<glyph unicode="L" horiz-adv-x="991" d="M68 0l88 1253h409l-65 -929l493 6l-73 -330h-852z" />
<glyph unicode="M" horiz-adv-x="1767" d="M16 0l189 1253h530l144 -596l204 596h572l-15 -1253h-407l12 713l-248 -713h-364l-152 688l-90 -688h-375z" />
<glyph unicode="N" horiz-adv-x="1320" d="M68 0l90 1253h409l279 -600l28 600h381l-84 -1253h-372l-312 604l-41 -604h-378z" />
<glyph unicode="O" horiz-adv-x="1286" d="M14 530q0 217 86.5 391t244.5 273.5t360 99.5q181 0 310.5 -74t193 -201.5t63.5 -295.5q0 -217 -86 -391t-244.5 -273.5t-359.5 -99.5q-181 0 -311 74t-193.5 201.5t-63.5 295.5zM436 547q0 -120 52 -197.5t149 -77.5q38 0 67.5 10.5t57 39t45.5 76t28.5 125.5t10.5 184 q0 110 -54.5 192t-152.5 82q-50 0 -85 -18.5t-63 -64.5t-41.5 -133.5t-13.5 -217.5z" />
<glyph unicode="P" horiz-adv-x="1150" d="M68 0l82 1253h495q247 0 374.5 -106.5t127.5 -296.5q0 -208 -152.5 -346.5t-408.5 -138.5h-84l-25 -365h-409zM522 662h53q41 0 71.5 11t45.5 25.5t24 36.5t11 37t2 33q0 72 -39.5 125t-101.5 53h-45z" />
<glyph unicode="Q" horiz-adv-x="1286" d="M14 530q0 217 86.5 391t244.5 273.5t360 99.5q181 0 310.5 -74t193 -201.5t63.5 -295.5q0 -219 -88.5 -393.5t-245.5 -272.5q-88 -66 -313 -182q248 -53 329 -53q52 0 121 22t125 54l-14 -295q-37 -30 -114.5 -56t-162.5 -26q-63 0 -139 23.5t-134 51t-123.5 51 t-109.5 23.5q-26 0 -45.5 -5t-34 -13t-51 -27t-77.5 -37l-45 240l8 4l-8 6q175 68 299 133q-140 25 -239 103t-147.5 194t-48.5 262zM436 547q0 -120 52 -197.5t149 -77.5q38 0 67.5 10.5t57 39t45.5 76t28.5 125.5t10.5 184q0 110 -54.5 192t-152.5 82q-50 0 -85 -18.5 t-63 -64.5t-41.5 -133.5t-13.5 -217.5z" />
<glyph unicode="R" horiz-adv-x="1181" d="M68 0l82 1253h505q234 0 358 -97t124 -273q0 -108 -49.5 -204t-143.5 -161l248 -518h-442l-170 418h-74l-29 -418h-409zM526 719h35q92 0 125 36.5t33 98.5q0 57 -46 93t-104 36h-26z" />
<glyph unicode="S" horiz-adv-x="1054" d="M20 35l78 346q68 -36 114 -57t130 -43.5t166 -24.5l11 2q11 2 17 5t15 9.5t13.5 19.5t4.5 32q0 57 -92 104l-196 96q-89 46 -140 136t-51 186q0 131 68 234t183 158.5t255 55.5q59 0 121 -7t114 -18.5t90.5 -21.5t72 -21t38.5 -12l-92 -352q-28 22 -157 68.5t-193 46.5 t-81 -9q-24 -12 -24 -48q0 -25 26 -54t60 -45l207 -104q64 -31 107.5 -71t64.5 -86.5t29 -90t8 -96.5q0 -173 -155 -293.5t-379 -120.5q-122 0 -241 24.5t-192 51.5z" />
<glyph unicode="T" horiz-adv-x="1028" d="M-4 928l70 325h1028l-68 -325l-281 4l-65 -932h-410l64 934z" />
<glyph unicode="U" horiz-adv-x="1323" d="M96 377q0 77 37 589q13 176 21 287h409q-59 -766 -59 -821q0 -47 15.5 -82t40.5 -52.5t51.5 -25.5t54.5 -8q61 0 97 43.5t40 128.5l61 817h393l-55 -770q-16 -243 -167.5 -383.5t-434.5 -140.5q-240 0 -372 109t-132 309z" />
<glyph unicode="V" horiz-adv-x="1208" d="M29 1253h428l145 -792l287 792h403l-499 -1253h-490z" />
<glyph unicode="W" horiz-adv-x="1785" d="M68 1253h436l55 -632l213 632h365l131 -639l145 639h377l-315 -1253h-471l-117 561l-207 -561h-465z" />
<glyph unicode="X" horiz-adv-x="1159" d="M-109 0l445 678l-313 575h454l152 -282l159 282h453l-422 -630l336 -623h-453l-178 328l-182 -328h-451z" />
<glyph unicode="Y" horiz-adv-x="1071" d="M8 1253h432l146 -391l180 391h414l-441 -813h-6l-31 -440h-409l31 440h-5z" />
<glyph unicode="Z" horiz-adv-x="1122" d="M41 0l8 242l512 680h-473l47 331h948l-10 -272l-510 -657h498l-51 -324h-969z" />
<glyph unicode="[" horiz-adv-x="710" d="M154 -289l127 1821h493l-8 -176h-277l-100 -1469h268l-8 -176h-495z" />
<glyph unicode="\" horiz-adv-x="813" d="M158 1419h215l282 -1644h-215z" />
<glyph unicode="]" horiz-adv-x="710" d="M-63 -289l8 176h276l101 1469h-269l8 176h496l-127 -1821h-493z" />
<glyph unicode="_" horiz-adv-x="901" d="M-20 -207h901v-223h-901v223z" />
<glyph unicode="`" horiz-adv-x="628" d="M-4 1315l395 67l244 -364h-328z" />
<glyph unicode="a" horiz-adv-x="1089" d="M14 336q0 138 47 256.5t127.5 199t191 126t234.5 45.5q285 0 441 -80l-62 -883l-350 -41l-16 143q-82 -70 -155.5 -106.5t-162.5 -36.5q-131 0 -213 95t-82 282zM426 354q0 -36 6.5 -61.5t14.5 -37.5t20 -18.5t17 -7t12 -0.5q118 0 149 344l2 -6l12 129q-32 9 -55 9 q-25 0 -40.5 -1.5t-36.5 -9t-34 -21t-27 -39.5t-22 -62.5t-13 -91.5t-5 -126z" />
<glyph unicode="b" horiz-adv-x="1062" d="M33 -8l104 1460l389 51l-47 -657q124 117 277 117q85 0 145 -30.5t91.5 -83.5t45 -111.5t13.5 -127.5q0 -144 -41 -259t-104 -185.5t-144.5 -117.5t-156.5 -65t-146 -18q-90 0 -215 33l-144 -47zM436 231q33 -8 82 -8q27 0 47.5 10t34 32t22 48.5t12.5 66.5t5.5 78.5 t1.5 92.5q0 88 -16 117.5t-50 29.5q-54 0 -82.5 -62t-39.5 -187z" />
<glyph unicode="c" horiz-adv-x="788" d="M23 383q0 141 40 252.5t111 182.5t165 108t204 37q56 0 146.5 -21t137.5 -57l-120 -271q0 -4 -2 -4l2 4q-7 15 -69 45.5t-99 30.5t-59 -30q-50 -66 -50 -263q0 -42 11 -73t27.5 -45.5t30.5 -20.5t25 -6q82 0 158 55l82 -239q-87 -59 -175 -84t-196 -25q-57 0 -108 12 t-100 42.5t-84 77.5t-56.5 121.5t-21.5 170.5z" />
<glyph unicode="d" horiz-adv-x="1069" d="M16 317q0 104 21.5 193t57.5 154t85 117t102.5 85.5t112.5 55.5t111.5 31.5t101.5 9.5q27 0 41 -2l35 493l389 51l-100 -1505l-373 -41l-4 131q-128 -125 -287 -125q-68 0 -120.5 20.5t-84.5 54t-52.5 80.5t-28 94.5t-7.5 102.5zM426 377q0 -88 15.5 -118t47.5 -30 q95 0 123 220l17 249q-34 9 -78 9q-40 0 -65.5 -23t-38 -70.5t-17 -101.5t-4.5 -135z" />
<glyph unicode="e" horiz-adv-x="903" d="M29 375q0 132 34.5 237t88 169t125.5 106.5t141.5 59t140.5 16.5q155 0 242.5 -73.5t87.5 -191.5q0 -135 -126.5 -236t-326.5 -132q6 -26 16.5 -44.5t21.5 -28t27.5 -14.5t28 -6t29.5 -1q33 0 91.5 19.5t125.5 68.5l82 -224q-200 -141 -426 -141q-187 0 -295 104 t-108 312zM397 518q142 29 142 144q0 30 -8 46.5t-33 16.5q-31 0 -52.5 -18.5t-31.5 -50.5q-11 -32 -15 -66q-3 -23 -3 -47q0 -12 1 -25z" />
<glyph unicode="f" horiz-adv-x="598" d="M-221 -463l84 320q14 -19 94 -19q52 0 81 16.5t32 65.5l41 756h-111l2 196l121 46q8 115 43.5 208.5t86 152.5t115 98.5t126.5 56t124 16.5q128 0 199 -23l-72 -307q-13 7 -57 14t-72 7q-41 0 -64.5 -22.5t-25.5 -59.5l-8 -137h152l-37 -246h-129l-41 -692 q-7 -102 -43.5 -186t-90 -138t-120.5 -91t-132 -53t-128 -16q-50 0 -102 10t-68 27z" />
<glyph unicode="g" horiz-adv-x="856" d="M-119 -283q0 85 46 151.5t167 133.5q-55 55 -55 131v8q-2 35 32.5 89t90.5 100q-142 67 -142 270q0 111 69 195.5t175.5 126t229.5 41.5q73 0 127 -11l178 267l192 -193l-24 -57l-170 -105q61 -73 61 -215q0 -149 -130.5 -253.5t-348.5 -104.5q0 -18 2 -24.5t19 -16 t58 -14.5t115 -9q87 -6 145.5 -28t87.5 -59.5t40.5 -79.5t11.5 -99q0 -90 -47 -178.5t-125.5 -156t-189 -109t-230.5 -41.5q-198 0 -291.5 66.5t-93.5 174.5zM209 -156q0 -41 33.5 -67.5t107.5 -26.5q191 0 191 92q0 38 -22.5 47.5t-112.5 17.5q-46 4 -74 7q-56 7 -84 14 q-39 -39 -39 -84zM374 666q1 -13 1 -15q0 -34 0.5 -49t4.5 -36t12.5 -30t24.5 -15.5t40 -6.5q21 0 34 27.5t13 56.5q0 80 -7 101q-14 40 -65 40q-14 0 -24 -2.5t-16 -9.5t-10 -12t-5.5 -16t-2.5 -15v-7.5v-10.5z" />
<glyph unicode="h" d="M35 0l102 1452l400 51l-54 -706q135 166 295 166q262 0 262 -275q0 -92 -38 -371.5t-39 -316.5h-390q70 490 70 582q0 40 -15 58.5t-36 18.5q-19 0 -31.5 -4t-34 -21.5t-39.5 -65t-30 -122.5l-33 -446h-389z" />
<glyph unicode="i" horiz-adv-x="524" d="M35 0l65 911l389 52l-67 -963h-387zM86 1196q0 59 74.5 139t144.5 80q61 0 142 -58t81 -116q0 -62 -76.5 -140.5t-142.5 -78.5q-61 0 -142 58.5t-81 115.5z" />
<glyph unicode="j" horiz-adv-x="491" d="M-254 -133q39 -8 127 -8q32 0 59.5 9t52.5 38.5t31 77.5l68 925l389 49l-63 -921q-11 -121 -48.5 -212t-110.5 -160t-191 -103q-113 -33 -263 -33h-18zM68 1196q0 59 74.5 139t144.5 80q61 0 142 -58t81 -116q0 -62 -76.5 -140.5t-142.5 -78.5q-61 0 -142 58.5t-81 115.5 z" />
<glyph unicode="k" horiz-adv-x="1040" d="M35 0l100 1391l389 28l-102 -1419h-387zM459 498q56 72 132 194.5t122 229.5h391q-18 -74 -100 -201t-179 -236q108 -197 163 -283t108 -149l-400 -80q-91 135 -237 525z" />
<glyph unicode="l" horiz-adv-x="620" d="M41 205q0 109 16.5 307t47.5 507t42 435l390 51q-18 -219 -45 -496.5t-40.5 -432.5t-13.5 -226q0 -18 10 -38.5t33 -20.5q18 0 33 3.5t34.5 10t26.5 8.5l43 -256q-198 -98 -339 -98q-114 0 -176 60.5t-62 185.5z" />
<glyph unicode="m" horiz-adv-x="1654" d="M35 0l63 911l363 52l10 -187q147 187 311 187q214 0 258 -183q143 183 308 183q264 0 264 -275q0 -91 -43.5 -370.5t-44.5 -317.5h-389q4 30 25 162.5t37.5 253t16.5 166.5q0 40 -15 58.5t-38 18.5q-14 0 -23 -1t-26.5 -11.5t-30.5 -30t-27.5 -60.5t-23.5 -99l-6 -51 t-6 -50q-1 -8 -2 -26t-2 -27l-2 6q-35 -259 -37 -309l-389 6q17 120 40 316t23 264q0 73 -51 73q-18 0 -29.5 -2.5t-33.5 -21t-37 -53t-29 -106.5t-20 -173l-21 -303h-393z" />
<glyph unicode="n" horiz-adv-x="1089" d="M35 0l63 911l363 52l12 -175v-4q142 179 305 179q262 0 262 -275q0 -92 -38 -371.5t-39 -316.5h-390q70 490 70 582q0 40 -15 58.5t-36 18.5q-17 0 -28 -2t-32 -18.5t-35.5 -47.5t-29.5 -95t-23 -154l-20 -342h-389z" />
<glyph unicode="o" horiz-adv-x="974" d="M18 399q0 86 21.5 167.5t65.5 153.5t106 126t148.5 85.5t187.5 31.5q409 0 409 -441q0 -108 -34 -207.5t-97.5 -179.5t-166.5 -128t-230 -48q-84 0 -154.5 23t-129.5 72.5t-92.5 137.5t-33.5 207zM414 377q0 -113 14 -144.5t70 -31.5q15 0 26.5 13t18 41.5t10.5 54 t5.5 71.5t2 71.5t0.5 74.5v18q0 104 -17 140t-67 36q-15 0 -26.5 -13.5t-18 -42.5t-10.5 -55.5t-5.5 -72.5t-2 -71t-0.5 -72v-17z" />
<glyph unicode="p" horiz-adv-x="1069" d="M12 -500l86 1411l369 52l6 -127q131 127 287 127q85 0 145 -30.5t91.5 -83.5t45 -111.5t13.5 -127.5q0 -144 -41 -259t-104 -185.5t-144.5 -117.5t-156.5 -65t-146 -18q-23 0 -35 2l-27 -416zM446 229q34 -6 76 -6q27 0 47.5 10t34 32t22 48.5t12.5 66.5t5.5 78.5 t1.5 92.5q0 88 -15.5 117.5t-49.5 29.5q-85 0 -113 -170z" />
<glyph unicode="q" horiz-adv-x="1058" d="M16 317q0 104 21.5 193t57.5 154t85 117t102.5 85.5t112.5 55.5t111.5 31.5t101.5 9.5q60 0 158 -23l203 37l63 -70l-98 -1356l-389 -51l41 580q-125 -115 -277 -115q-68 0 -120.5 20.5t-84.5 54t-52.5 80.5t-28 94.5t-7.5 102.5zM426 377q0 -88 15.5 -118t47.5 -30 q93 0 121 205l19 266q-40 7 -78 7q-40 0 -65.5 -23t-38 -70.5t-17 -101.5t-4.5 -135z" />
<glyph unicode="r" horiz-adv-x="749" d="M35 0l69 911l357 52l10 -246q49 119 126.5 182.5t143.5 63.5q57 0 84 -9l-77 -397q-37 18 -109 18q-95 0 -133 -40t-51 -129l-31 -406h-389z" />
<glyph unicode="s" horiz-adv-x="802" d="M-14 41l98 291q143 -103 264 -103q3 0 9 1t16.5 3.5t18 9t7.5 15.5q0 5 -3 9t-11 8t-15.5 7t-24.5 9.5t-30 11.5l-104 49q-88 47 -130 114t-42 171q0 136 111 231t317 95q192 0 321 -68l-86 -268q-67 45 -125 65.5t-126 20.5q-50 0 -50 -33q0 -25 109 -57l78 -27 q95 -45 138.5 -105t43.5 -174q0 -44 -14 -90.5t-47.5 -95.5t-83.5 -86.5t-130 -61.5t-178 -24q-88 0 -181 23.5t-150 58.5z" />
<glyph unicode="t" horiz-adv-x="702" d="M-25 676l19 225l127 21q1 12 8.5 84t11.5 114l391 51q-6 -48 -15.5 -131t-14.5 -118h233l-30 -246h-230l-8 -78t-6.5 -66.5t-5 -53t-4 -41.5t-3 -28l-2 -16t-0.5 -2q2 -44 25 -70t61 -26q19 0 55 9.5t50 19.5l65 -246q-180 -119 -364 -119q-46 0 -87 10t-79.5 33 t-66 57.5t-44 87.5t-16.5 119q0 97 43 410h-113z" />
<glyph unicode="u" horiz-adv-x="1093" d="M35 233q0 94 36 369.5t38 304.5l395 60q-1 -9 -22 -163t-35.5 -279t-14.5 -179q0 -29 19.5 -56.5t42.5 -27.5q19 0 30 1.5t30 12.5t31 32.5t25.5 65t22.5 105.5l31 432l395 52l-68 -963l-366 -41l-19 162v14q-142 -176 -305 -176q-266 0 -266 274z" />
<glyph unicode="v" horiz-adv-x="929" d="M27 909l397 62l12 -617q134 326 154 568h371q-35 -285 -123 -503t-217 -419h-525z" />
<glyph unicode="w" horiz-adv-x="1484" d="M68 899l395 62l14 -639q99 170 144 411l6 -2l-29 191h385l49 -564q109 263 109 549v15h370q-6 -102 -27.5 -204t-46 -178.5t-64 -164.5t-66.5 -139.5t-69 -128.5t-58 -107h-447l-26 184q-86 -144 -146 -186l-428 2z" />
<glyph unicode="x" horiz-adv-x="907" d="M-70 0q123 266 301 489q-158 294 -206 408l391 53q21 -71 104 -231q8 16 38 86.5t56 116.5h355q-79 -133 -110.5 -185t-88.5 -134.5t-108 -141.5q191 -341 229 -434l-391 -54q-21 59 -119 238q-2 -4 -35 -84t-57 -127h-359z" />
<glyph unicode="y" horiz-adv-x="919" d="M-221 -465l43 320q47 -17 133 -17q194 0 315 148h-186l-92 932l383 43l57 -652q68 197 160 613h371q-6 -62 -19 -138t-37 -177.5t-55.5 -203.5t-77 -212.5t-99.5 -209t-126 -187.5t-153 -153.5t-183.5 -102.5t-214.5 -38q-153 0 -219 35z" />
<glyph unicode="z" horiz-adv-x="878" d="M-2 0l8 156l361 483l-314 -18l35 301h811l-4 -154l-365 -481l297 16l-32 -303h-797z" />
<glyph unicode="{" horiz-adv-x="710" d="M137 510l4 111l4 108q72 -16 116 21t52 98q3 48 -10 208t-6 259q12 120 141 193t301 73l-8 -184q-77 0 -135 -36t-61 -104q-5 -75 -2 -234t-1 -216q-4 -68 -51 -119t-108 -67q58 -16 98.5 -67.5t36.5 -119.5q-4 -57 -32.5 -214.5t-33.5 -231.5q-1 -68 48.5 -104 t125.5 -36l-8 -184q-111 0 -205 31t-150 93t-48 142q7 100 39 258.5t35 204.5q3 59 -36.5 97t-105.5 20z" />
<glyph unicode="|" horiz-adv-x="774" d="M205 -451l131 1870h233l-131 -1870h-233z" />
<glyph unicode="}" horiz-adv-x="710" d="M-29 -334l9 184q77 0 135 36t61 104q5 75 1.5 234t0.5 216q4 68 51.5 119.5t108.5 67.5q-58 16 -98.5 67t-36.5 119q4 57 32 215t33 232q1 68 -48.5 103.5t-125.5 35.5l8 184q111 0 205 -31t150.5 -93t48.5 -142q-7 -100 -39 -258.5t-35 -204.5q-3 -59 36 -97t105 -20 l-4 -110l-4 -109q-72 16 -116 -21t-52 -98q-3 -48 10.5 -208t6.5 -259q-12 -120 -141.5 -193t-301.5 -73z" />
<glyph unicode="&#xa1;" horiz-adv-x="675" d="M84 -385q83 752 96 938l301 39q-39 -629 -22 -914zM141 831q3 37 86.5 102.5t124.5 65.5q45 0 127.5 -62t81.5 -95q-3 -51 -92 -124t-135 -73q-44 0 -121.5 68.5t-71.5 117.5z" />
<glyph unicode="&#xa2;" d="M178 547q0 228 100.5 371t268.5 188l-12 285h286l-51 -271q151 -22 213 -71l-121 -271q0 -4 -2 -4l2 4q-7 15 -69 45.5t-99 30.5q-36 0 -58 -30q-50 -66 -50 -263q0 -42 11 -73t27.5 -45.5t30.5 -20.5t25 -6q82 0 158 55l82 -240q-106 -70 -220 -94l5 -289h-287l57 281 q-61 10 -112 36.5t-94 74t-67 126t-24 181.5z" />
<glyph unicode="&#xa3;" d="M33 246q74 4 106 14l4 12l29 2q58 30 64 109q2 37 -9 121h-194l2 26l37 150l75 57h43q-5 53 -2 107q12 200 161.5 325t369.5 125q194 0 332 -61l-117 -277q-30 9 -65 21t-52.5 17t-50.5 9.5t-78 4.5q-32 0 -71 -27t-44 -74q-4 -55 0 -170h332l-84 -233h-229q3 -52 0 -96 q-3 -58 -39 -113l473 24l-68 -319h-886h-2z" />
<glyph unicode="&#xa7;" horiz-adv-x="978" d="M-18 549q7 100 66.5 182t160.5 137q-105 89 -96 238q7 110 80 200.5t185.5 139.5t237.5 49q93 0 186.5 -19.5t155.5 -56.5l-112 -289q-28 10 -79 30t-74 28t-55 16t-56 8q-30 0 -45.5 -7.5t-19 -15t-7.5 -26.5q0 -2 -1 -10.5t-1 -11.5t0.5 -10.5t4 -11.5t9 -9.5t15 -9.5 t22.5 -8l166 -56q48 -14 86.5 -30.5t77 -44t62.5 -61.5t37.5 -83.5t8.5 -109.5q-7 -101 -66.5 -184t-160.5 -138q57 -48 79 -105.5t17 -132.5q-12 -166 -162 -277.5t-342 -111.5q-199 0 -331 78l112 289q34 -12 78 -30.5t68.5 -28.5t54 -17.5t53.5 -7.5q30 0 45.5 7.5t19 15 t7.5 26.5l1 12q2 12 1.5 14.5t-2.5 12t-7.5 13.5t-16 10t-25.5 10l-166 55q-61 18 -107.5 41.5t-88.5 61.5t-62 96t-14 133zM375 629q-1 -31 18.5 -48t59.5 -34l20 -8q64 3 96.5 27t34.5 59q0 31 -19.5 48.5t-58.5 33.5l-20 8q-64 -3 -96.5 -27t-34.5 -59z" />
<glyph unicode="&#xa8;" horiz-adv-x="1214" d="M195 1169q2 52 78 128.5t130 76.5q57 0 128.5 -64t68.5 -122q-1 -34 -38.5 -82t-87 -83.5t-81.5 -35.5q-58 0 -129.5 62.5t-68.5 119.5zM616 1169q2 52 78 128.5t131 76.5q57 0 128.5 -64t68.5 -122q-1 -34 -38.5 -82t-87 -83.5t-81.5 -35.5q-58 0 -130 63t-69 119z" />
<glyph unicode="&#xa9;" horiz-adv-x="1394" d="M106 549q11 134 67.5 247t143.5 187.5t196 116t226 41.5q135 0 244 -45.5t178.5 -125t103 -188t23.5 -233.5q-11 -135 -67.5 -248t-143.5 -187t-196 -114.5t-226 -40.5q-137 0 -246 45t-178 124.5t-101.5 187.5t-23.5 233zM240 555q-9 -113 21.5 -205t91.5 -150.5 t144 -90t181 -31.5q135 0 244 66t170 174t69 237q18 216 -103.5 343.5t-318.5 127.5q-216 0 -349 -127t-150 -344zM352 530q11 167 124 276t292 109q68 0 132 -11.5t83 -29.5l-57 -167q-82 30 -150 30q-86 0 -126.5 -42t-51.5 -128q-3 -75 41 -125.5t143 -50.5q73 0 144 29 l22 -144q-42 -27 -115 -47t-157 -20q-147 0 -240.5 85t-83.5 236z" />
<glyph unicode="&#xaa;" horiz-adv-x="724" d="M49 885q0 313 414 313q104 0 223 -39l-37 -434l-221 -29l-6 66q-80 -66 -174 -66q-87 0 -143 47.5t-56 141.5zM309 895q0 -24 8.5 -40t15 -21t9.5 -5q30 0 50.5 20t31.5 77l16 164h-18q-33 0 -57 -21t-35 -54t-16 -63t-5 -57z" />
<glyph unicode="&#xab;" horiz-adv-x="1107" d="M-8 475l401 488l228 -101l-218 -387l168 -387l-245 -100zM436 475l402 488l227 -101l-217 -387l168 -387l-246 -100z" />
<glyph unicode="&#xad;" horiz-adv-x="749" d="M47 381l12 63l107 174h536l-12 -63l-82 -174h-561z" />
<glyph unicode="&#xae;" horiz-adv-x="1394" d="M127 1073q11 134 67.5 247t143.5 187.5t196 116t226 41.5q135 0 244 -45.5t178.5 -125t103 -188t23.5 -233.5q-11 -136 -67.5 -249t-143.5 -186.5t-196 -114t-226 -40.5q-137 0 -246 45t-178 124.5t-101.5 187.5t-23.5 233zM260 1079q-9 -113 21.5 -205t91.5 -150.5 t144 -90t181 -31.5q102 0 190.5 38.5t150.5 103.5t99.5 151.5t43.5 183.5q18 216 -103.5 343.5t-318.5 127.5q-217 0 -350 -127t-150 -344zM391 766l43 659h318q151 0 226 -55.5t69 -152.5q-6 -108 -111 -177l117 -274h-260l-64 209q-18 -2 -57 -2h-13l-14 -207h-254z M653 1274v2v-2zM668 1120q20 -4 53 -4q14 0 36 20t23 46q4 30 -22 60.5t-80 35.5z" />
<glyph unicode="&#xaf;" horiz-adv-x="864" d="M104 1047l2 30l80 232h570l-2 -31l-82 -231h-568z" />
<glyph unicode="&#xb2;" horiz-adv-x="604" d="M43 799l12 147q303 164 303 250q13 76 -65 76q-49 0 -102.5 -15t-90.5 -38l-34 172q149 55 288 55q138 0 198.5 -53.5t55.5 -149.5q-7 -77 -67.5 -141t-182.5 -133l246 14l-47 -184h-514z" />
<glyph unicode="&#xb3;" horiz-adv-x="587" d="M25 797l53 157q115 -22 158 -22q103 0 110 57q2 21 -17.5 35t-60.5 14q-36 0 -90 -4l-6 156q103 0 143 10t47 43q-1 31 -17 39t-62 8q-35 0 -50.5 -0.5t-45 -7t-60.5 -20.5l-35 137q41 19 123 33t150 14q108 0 171.5 -40.5t57.5 -107.5q-3 -61 -53 -104.5t-125 -63.5 q194 -21 188 -143q-4 -50 -39.5 -91t-89.5 -66t-114 -38.5t-117 -13.5q-137 0 -219 19z" />
<glyph unicode="&#xb4;" horiz-adv-x="620" d="M-29 1018l285 364l391 -67l-348 -297h-328z" />
<glyph unicode="&#xb6;" horiz-adv-x="1187" d="M33 750q15 238 163.5 370.5t368.5 132.5h592l-78 -1163q-10 -114 -78 -200t-166 -127.5t-208 -41.5q-27 0 -52 1t-46.5 3t-38.5 4t-33 5.5t-26.5 5.5t-23 6t-18 6t-16 5.5t-11.5 4.5l64 293q88 -29 145.5 -32.5t88.5 18.5t44 57.5t17 94.5l55 747h-98l-49 -664h-140 q-106 0 -191.5 27t-149 82.5t-94 148.5t-21.5 216z" />
<glyph unicode="&#xb8;" horiz-adv-x="630" d="M94 -354q97 7 147.5 20t53.5 43q1 22 -36 41t-103 31l-4 10l118 209h140l-43 -100q180 -54 172 -162q-2 -39 -27 -77.5t-72.5 -74t-128 -59t-182.5 -27.5z" />
<glyph unicode="&#xb9;" horiz-adv-x="509" d="M51 1354q89 31 266 71h140l-45 -626h-246l29 409l-105 -39z" />
<glyph unicode="&#xba;" horiz-adv-x="724" d="M61 915q0 134 90.5 208.5t249.5 74.5q261 0 261 -219q0 -137 -89 -210t-251 -73q-116 0 -188.5 53t-72.5 166zM299 915q0 -51 16 -79.5t45 -28.5q13 0 17.5 0.5t16 8.5t16.5 24.5t9.5 51.5t4.5 87q0 47 -16.5 76.5t-45.5 29.5q-12 0 -17.5 -1t-16 -9.5t-15.5 -25 t-9.5 -51t-4.5 -83.5z" />
<glyph unicode="&#xbb;" horiz-adv-x="1107" d="M43 82l217 393l-168 383l246 105l334 -488l-402 -487zM487 82l218 393l-168 383l245 105l334 -488l-401 -487z" />
<glyph unicode="&#xbf;" horiz-adv-x="851" d="M-59 -55q4 139 235 307q68 50 95 80.5t28 62.5q-1 11 -12.5 49t-16.5 58l355 73q21 -32 39 -76.5t20 -68.5q-4 -61 -34.5 -101.5t-117.5 -107.5q-51 -41 -78 -65.5t-53 -55.5t-36 -62t-11 -69q-2 -22 28.5 -54t68.5 -32q67 0 111.5 16.5t150.5 77.5l100 -264 q-105 -55 -233 -92t-211 -37q-197 0 -319 101t-109 260zM268 825q3 56 89.5 130.5t131.5 74.5q52 0 124 -69.5t69 -122.5q-6 -59 -87.5 -133t-135.5 -74q-46 0 -120.5 69t-70.5 125z" />
<glyph unicode="&#xc0;" horiz-adv-x="1181" d="M-86 0l471 1253h545l217 -1253h-410l-22 141h-359l-47 -141h-395zM299 1622l395 68l244 -365h-328zM457 444h209l-68 430z" />
<glyph unicode="&#xc1;" horiz-adv-x="1181" d="M-86 0l471 1253h545l217 -1253h-410l-22 141h-359l-47 -141h-395zM414 1325l284 365l392 -68l-349 -297h-327zM457 444h209l-68 430z" />
<glyph unicode="&#xc2;" horiz-adv-x="1181" d="M-86 0l471 1253h545l217 -1253h-410l-22 141h-359l-47 -141h-395zM250 1325l246 365h378l211 -365h-280l-133 125l-148 -125h-274zM457 444h209l-68 430z" />
<glyph unicode="&#xc3;" horiz-adv-x="1181" d="M-86 0l471 1253h545l217 -1253h-410l-22 141h-359l-47 -141h-395zM244 1452q-3 -2 4 7q42 54 120 122q97 86 144 86q46 0 145 -37t125 -37q60 0 160 109l123 -133q-24 -69 -132 -160.5t-171 -91.5q-40 0 -145.5 33.5t-129.5 33.5q-35 0 -82.5 -37.5t-56.5 -56.5zM457 444 h209l-68 430z" />
<glyph unicode="&#xc4;" horiz-adv-x="1181" d="M-86 0l471 1253h545l217 -1253h-410l-22 141h-359l-47 -141h-395zM260 1477q2 52 78 128t131 76q57 0 128.5 -64t68.5 -122q-1 -34 -38.5 -82t-87 -83.5t-81.5 -35.5q-58 0 -130 63t-69 120zM457 444h209l-68 430zM682 1477q2 52 78 128t131 76q57 0 128 -64t68 -122 q-1 -34 -38.5 -82t-86.5 -83.5t-81 -35.5q-58 0 -130 63t-69 120z" />
<glyph unicode="&#xc5;" horiz-adv-x="1181" d="M-86 0l471 1253h545l217 -1253h-410l-22 141h-359l-47 -141h-395zM446 1546q9 94 84 162t170 68q103 0 163.5 -60.5t54.5 -169.5q-9 -91 -84 -158t-170 -67q-101 0 -162.5 62t-55.5 163zM457 444h209l-68 430zM600 1546q-3 -33 17.5 -56.5t56.5 -23.5t61.5 23.5 t28.5 56.5q3 37 -19 61.5t-59 24.5q-36 0 -59.5 -24t-26.5 -62z" />
<glyph unicode="&#xc6;" horiz-adv-x="1681" d="M-53 0l585 1253h1117l-70 -301l-414 6l-12 -176h420l-72 -303l-368 13l-13 -183l490 6l-70 -315h-852l12 176h-301l-73 -176h-379zM526 477h195l33 461h-33z" />
<glyph unicode="&#xc7;" horiz-adv-x="999" d="M14 573q0 111 28 215t87 196.5t143.5 161t205.5 108.5t265 40q162 0 279 -47l-84 -321q-67 21 -117.5 31t-70.5 11t-64 1q-250 0 -250 -377q0 -77 24 -138.5t63 -98t84.5 -55.5t92.5 -19q123 0 205 30l45 -278q-119 -54 -266 -64l-29 -69q180 -54 172 -162 q-2 -39 -27 -77.5t-72 -74t-127.5 -59t-182.5 -27.5l-35 146q97 7 147.5 20t53.5 43q1 22 -36.5 41t-103.5 31l-4 10l101 176q-246 12 -386.5 175.5t-140.5 430.5z" />
<glyph unicode="&#xc8;" horiz-adv-x="1060" d="M68 0l88 1253h872l-70 -301l-413 6l-13 -176h420l-73 -303l-367 13l-12 -183l489 6l-69 -315h-852zM262 1622l395 68l244 -365h-328z" />
<glyph unicode="&#xc9;" horiz-adv-x="1060" d="M68 0l88 1253h872l-70 -301l-413 6l-13 -176h420l-73 -303l-367 13l-12 -183l489 6l-69 -315h-852zM330 1325l284 365l392 -68l-349 -297h-327z" />
<glyph unicode="&#xca;" horiz-adv-x="1060" d="M68 0l88 1253h872l-70 -301l-413 6l-13 -176h420l-73 -303l-367 13l-12 -183l489 6l-69 -315h-852zM184 1325l246 365h379l211 -365h-281l-133 125l-147 -125h-275z" />
<glyph unicode="&#xcb;" horiz-adv-x="1060" d="M68 0l88 1253h872l-70 -301l-413 6l-13 -176h420l-73 -303l-367 13l-12 -183l489 6l-69 -315h-852zM225 1477q2 52 78 128t131 76q57 0 128.5 -64t68.5 -122q-1 -34 -38.5 -82t-87 -83.5t-81.5 -35.5q-58 0 -130 63t-69 120zM647 1477q2 52 78 128t131 76q57 0 128.5 -64 t68.5 -122q-1 -34 -38.5 -82t-87 -83.5t-81.5 -35.5q-58 0 -130 63t-69 120z" />
<glyph unicode="&#xcc;" horiz-adv-x="624" d="M-25 1622l396 68l243 -365h-327zM68 0l88 1253h409l-88 -1253h-409z" />
<glyph unicode="&#xcd;" horiz-adv-x="624" d="M68 0l88 1253h409l-88 -1253h-409zM131 1325l285 365l391 -68l-348 -297h-328z" />
<glyph unicode="&#xce;" horiz-adv-x="624" d="M-27 1325l246 365h379l211 -365h-281l-133 125l-147 -125h-275zM68 0l88 1253h409l-88 -1253h-409z" />
<glyph unicode="&#xcf;" horiz-adv-x="624" d="M-68 1477q2 52 78 128t131 76q57 0 128.5 -64t68.5 -122q-1 -34 -39 -82t-88 -83.5t-82 -35.5q-58 0 -129 63t-68 120zM68 0l88 1253h409l-88 -1253h-409zM391 1477q2 52 78 128t129 76q57 0 129.5 -64t69.5 -122q-1 -34 -39 -82t-88 -83.5t-82 -35.5q-58 0 -129 63 t-68 120z" />
<glyph unicode="&#xd0;" horiz-adv-x="1263" d="M-41 492v53l53 227h78l35 481h514q171 0 298.5 -60.5t203 -190t78.5 -318.5q-2 -141 -53.5 -265t-143.5 -217.5t-230 -147.5t-303 -54h-452l35 492h-113zM469 307h18q60 0 111 16.5t94.5 52.5t68.5 102t25 155q0 87 -20.5 150.5t-55.5 97.5t-73.5 49.5t-81.5 15.5h-35 l-14 -174h201v-51l-54 -229h-170z" />
<glyph unicode="&#xd1;" horiz-adv-x="1320" d="M68 0l90 1253h409l279 -600l28 600h381l-84 -1253h-372l-312 604l-41 -604h-378zM360 1452l4 7q44 56 122 124q96 84 143 84q46 0 145 -37t125 -37q60 0 160 109l123 -133q-24 -69 -132 -160.5t-171 -91.5q-40 0 -145.5 33.5t-129.5 33.5q-35 0 -82.5 -37.5t-56.5 -56.5z " />
<glyph unicode="&#xd2;" horiz-adv-x="1320" d="M14 530q0 217 86.5 391t244.5 273.5t360 99.5q181 0 310.5 -74t193 -201.5t63.5 -295.5q0 -217 -86 -391t-244.5 -273.5t-359.5 -99.5q-181 0 -311 74t-193.5 201.5t-63.5 295.5zM393 1622l395 68l244 -365h-327zM436 547q0 -120 52 -197.5t149 -77.5q38 0 67.5 10.5 t57 39t45.5 76t28.5 125.5t10.5 184q0 110 -54.5 192t-152.5 82q-50 0 -85 -18.5t-63 -64.5t-41.5 -133.5t-13.5 -217.5z" />
<glyph unicode="&#xd3;" horiz-adv-x="1320" d="M14 530q0 217 86.5 391t244.5 273.5t360 99.5q181 0 310.5 -74t193 -201.5t63.5 -295.5q0 -217 -86 -391t-244.5 -273.5t-359.5 -99.5q-181 0 -311 74t-193.5 201.5t-63.5 295.5zM406 1325l284 365l391 -68l-348 -297h-327zM436 547q0 -120 52 -197.5t149 -77.5 q38 0 67.5 10.5t57 39t45.5 76t28.5 125.5t10.5 184q0 110 -54.5 192t-152.5 82q-50 0 -85 -18.5t-63 -64.5t-41.5 -133.5t-13.5 -217.5z" />
<glyph unicode="&#xd4;" horiz-adv-x="1320" d="M14 530q0 217 86.5 391t244.5 273.5t360 99.5q181 0 310.5 -74t193 -201.5t63.5 -295.5q0 -217 -86 -391t-244.5 -273.5t-359.5 -99.5q-181 0 -311 74t-193.5 201.5t-63.5 295.5zM283 1325l245 365h379l211 -365h-280l-133 125l-148 -125h-274zM436 547q0 -120 52 -197.5 t149 -77.5q38 0 67.5 10.5t57 39t45.5 76t28.5 125.5t10.5 184q0 110 -54.5 192t-152.5 82q-50 0 -85 -18.5t-63 -64.5t-41.5 -133.5t-13.5 -217.5z" />
<glyph unicode="&#xd5;" horiz-adv-x="1320" d="M14 530q0 217 86.5 391t244.5 273.5t360 99.5q181 0 310.5 -74t193 -201.5t63.5 -295.5q0 -217 -86 -391t-244.5 -273.5t-359.5 -99.5q-181 0 -311 74t-193.5 201.5t-63.5 295.5zM262 1452q-3 -2 4 7q42 54 120 122q97 86 144 86q46 0 145.5 -37t125.5 -37q60 0 160 109 l122 -133q-24 -69 -132 -160.5t-171 -91.5q-40 0 -145 33.5t-129 33.5q-35 0 -82.5 -37.5t-56.5 -56.5zM436 547q0 -120 52 -197.5t149 -77.5q38 0 67.5 10.5t57 39t45.5 76t28.5 125.5t10.5 184q0 110 -54.5 192t-152.5 82q-50 0 -85 -18.5t-63 -64.5t-41.5 -133.5 t-13.5 -217.5z" />
<glyph unicode="&#xd6;" horiz-adv-x="1320" d="M14 530q0 217 86.5 391t244.5 273.5t360 99.5q181 0 310.5 -74t193 -201.5t63.5 -295.5q0 -217 -86 -391t-244.5 -273.5t-359.5 -99.5q-181 0 -311 74t-193.5 201.5t-63.5 295.5zM276 1477q2 52 78 128t131 76q57 0 128.5 -64t68.5 -122q-1 -34 -38.5 -82t-87 -83.5 t-81.5 -35.5q-58 0 -130 63t-69 120zM436 547q0 -120 52 -197.5t149 -77.5q38 0 67.5 10.5t57 39t45.5 76t28.5 125.5t10.5 184q0 110 -54.5 192t-152.5 82q-50 0 -85 -18.5t-63 -64.5t-41.5 -133.5t-13.5 -217.5zM698 1477q2 52 78 128t131 76q57 0 128.5 -64t68.5 -122 q-1 -34 -38.5 -82t-87 -83.5t-81.5 -35.5q-58 0 -130 63t-69 120z" />
<glyph unicode="&#xd7;" d="M156 330l227 213l-203 217l178 164l201 -213l227 213l154 -164l-227 -213l202 -217l-176 -166l-202 217l-230 -217z" />
<glyph unicode="&#xd8;" horiz-adv-x="1286" d="M14 530q0 217 86.5 391t244.5 273.5t360 99.5q49 0 92 -6l57 131h258l-88 -202q120 -71 184 -199.5t64 -294.5q0 -217 -86 -391t-244.5 -273.5t-359.5 -99.5q-56 0 -105 6l-59 -135h-258l94 213q-117 73 -178.5 199t-61.5 288zM436 547q0 -37 6 -72l220 504q-6 2 -23 2 q-50 0 -85 -18.5t-63 -64.5t-41.5 -133.5t-13.5 -217.5zM612 274q8 -2 25 -2q38 0 67.5 10.5t57 39t45.5 76t28.5 125.5t10.5 184q0 45 -8 84z" />
<glyph unicode="&#xd9;" horiz-adv-x="1345" d="M96 377q0 77 37 589q13 176 21 287h409q-59 -766 -59 -821q0 -47 15.5 -82t40.5 -52.5t51.5 -25.5t54.5 -8q61 0 97 43.5t40 128.5l61 817h393l-55 -770q-16 -243 -167.5 -383.5t-434.5 -140.5q-240 0 -372 109t-132 309zM369 1622l395 68l244 -365h-328z" />
<glyph unicode="&#xda;" horiz-adv-x="1345" d="M96 377q0 77 37 589q13 176 21 287h409q-59 -766 -59 -821q0 -47 15.5 -82t40.5 -52.5t51.5 -25.5t54.5 -8q61 0 97 43.5t40 128.5l61 817h393l-55 -770q-16 -243 -167.5 -383.5t-434.5 -140.5q-240 0 -372 109t-132 309zM453 1325l284 365l391 -68l-348 -297h-327z" />
<glyph unicode="&#xdb;" horiz-adv-x="1345" d="M96 377q0 77 37 589q13 176 21 287h409q-59 -766 -59 -821q0 -47 15.5 -82t40.5 -52.5t51.5 -25.5t54.5 -8q61 0 97 43.5t40 128.5l61 817h393l-55 -770q-16 -243 -167.5 -383.5t-434.5 -140.5q-240 0 -372 109t-132 309zM346 1325l246 365h379l211 -365h-281l-133 125 l-147 -125h-275z" />
<glyph unicode="&#xdc;" horiz-adv-x="1345" d="M96 377q0 77 37 589q13 176 21 287h409q-59 -766 -59 -821q0 -47 15.5 -82t40.5 -52.5t51.5 -25.5t54.5 -8q61 0 97 43.5t40 128.5l61 817h393l-55 -770q-16 -243 -167.5 -383.5t-434.5 -140.5q-240 0 -372 109t-132 309zM401 1477q2 52 78 128t131 76q57 0 128.5 -64 t68.5 -122q-1 -34 -38.5 -82t-87 -83.5t-81.5 -35.5q-58 0 -130 63t-69 120zM823 1477q2 52 78 128t131 76q57 0 128.5 -64t68.5 -122q-1 -34 -38.5 -82t-87 -83.5t-81.5 -35.5q-58 0 -130 63t-69 120z" />
<glyph unicode="&#xdd;" horiz-adv-x="1120" d="M8 1253h432l146 -391l180 391h414l-441 -813h-6l-31 -440h-409l31 440h-5zM365 1325l284 365l391 -68l-348 -297h-327z" />
<glyph unicode="&#xde;" horiz-adv-x="1161" d="M68 0l82 1253h411l-12 -192h96q247 0 374.5 -108t127.5 -298q0 -100 -39 -188.5t-110 -153.5t-177.5 -103t-234.5 -38h-97l-12 -172h-409zM508 469h67q51 0 84.5 14.5t47.5 39.5t18 44t4 43q0 73 -39 125.5t-102 52.5h-58z" />
<glyph unicode="&#xdf;" horiz-adv-x="1112" d="M-260 -463l76 293q22 -15 56 -27t60 -12q41 0 63 14t36 59.5t18 135.5l49 981q5 138 76 246.5t183.5 165.5t244.5 57q179 0 292.5 -87t113.5 -226q0 -59 -17.5 -106t-43 -76.5t-51 -54.5t-43 -51.5t-17.5 -55.5q0 -33 16 -57.5t88 -94.5q54 -50 82 -80t54.5 -69 t36.5 -78.5t9 -89.5q0 -91 -41.5 -164t-107.5 -115t-138.5 -64t-142.5 -22q-146 0 -241 39l65 301q19 -21 69 -37t64 -16q30 0 45.5 6t19 12t7.5 21q4 36 -55 104q-60 52 -94.5 88t-51.5 69t-21.5 58t-4.5 66q0 47 25.5 98t56 87t56 77.5t25.5 71.5q0 34 -9 60t-22 38.5 t-27.5 21t-25.5 7.5t-16 -1q-29 5 -46.5 -22.5t-23.5 -101.5l-47 -1031q-5 -95 -31.5 -171.5t-62 -124.5t-86 -84t-93.5 -53.5t-94.5 -27.5t-79 -12t-56.5 -2q-52 0 -113 10t-84 27z" />
<glyph unicode="&#xe0;" horiz-adv-x="1112" d="M14 336q0 138 47 256.5t127.5 199t191 126t234.5 45.5q285 0 441 -80l-62 -883l-350 -41l-16 143q-82 -70 -155.5 -106.5t-162.5 -36.5q-131 0 -213 95t-82 282zM426 354q0 -36 6.5 -61.5t14.5 -37.5t20 -18.5t17 -7t12 -0.5q118 0 149 344l2 -6l12 129q-32 9 -55 9 q-25 0 -40.5 -1.5t-36.5 -9t-34 -21t-27 -39.5t-22 -62.5t-13 -91.5t-5 -126zM506 1315l395 67l244 -364h-328z" />
<glyph unicode="&#xe1;" horiz-adv-x="1112" d="M14 336q0 138 47 256.5t127.5 199t191 126t234.5 45.5q285 0 441 -80l-62 -883l-350 -41l-16 143q-82 -70 -155.5 -106.5t-162.5 -36.5q-131 0 -213 95t-82 282zM426 354q0 -36 6.5 -61.5t14.5 -37.5t20 -18.5t17 -7t12 -0.5q118 0 149 344l2 -6l12 129q-32 9 -55 9 q-25 0 -40.5 -1.5t-36.5 -9t-34 -21t-27 -39.5t-22 -62.5t-13 -91.5t-5 -126zM451 1018l284 364l391 -67l-348 -297h-327z" />
<glyph unicode="&#xe2;" horiz-adv-x="1112" d="M14 336q0 138 47 256.5t127.5 199t191 126t234.5 45.5q285 0 441 -80l-62 -883l-350 -41l-16 143q-82 -70 -155.5 -106.5t-162.5 -36.5q-131 0 -213 95t-82 282zM274 1018l246 364h379l211 -364h-281l-133 125l-147 -125h-275zM426 354q0 -36 6.5 -61.5t14.5 -37.5 t20 -18.5t17 -7t12 -0.5q118 0 149 344l2 -6l12 129q-32 9 -55 9q-25 0 -40.5 -1.5t-36.5 -9t-34 -21t-27 -39.5t-22 -62.5t-13 -91.5t-5 -126z" />
<glyph unicode="&#xe3;" horiz-adv-x="1112" d="M14 336q0 138 47 256.5t127.5 199t191 126t234.5 45.5q285 0 441 -80l-62 -883l-350 -41l-16 143q-82 -70 -155.5 -106.5t-162.5 -36.5q-131 0 -213 95t-82 282zM289 1145q-3 -2 4 7q42 54 120 122q97 86 144 86q46 0 145 -37t125 -37q60 0 160 109l123 -133 q-24 -69 -132 -160.5t-171 -91.5q-40 0 -145.5 33.5t-129.5 33.5q-35 0 -82.5 -37.5t-56.5 -56.5zM426 354q0 -36 6.5 -61.5t14.5 -37.5t20 -18.5t17 -7t12 -0.5q118 0 149 344l2 -6l12 129q-32 9 -55 9q-25 0 -40.5 -1.5t-36.5 -9t-34 -21t-27 -39.5t-22 -62.5t-13 -91.5 t-5 -126z" />
<glyph unicode="&#xe4;" horiz-adv-x="1112" d="M14 336q0 138 47 256.5t127.5 199t191 126t234.5 45.5q285 0 441 -80l-62 -883l-350 -41l-16 143q-82 -70 -155.5 -106.5t-162.5 -36.5q-131 0 -213 95t-82 282zM293 1169q2 52 78.5 128.5t130.5 76.5q57 0 128 -64t68 -122q-1 -34 -38.5 -82t-86.5 -83.5t-81 -35.5 q-58 0 -130 63t-69 119zM426 354q0 -36 6.5 -61.5t14.5 -37.5t20 -18.5t17 -7t12 -0.5q118 0 149 344l2 -6l12 129q-32 9 -55 9q-25 0 -40.5 -1.5t-36.5 -9t-34 -21t-27 -39.5t-22 -62.5t-13 -91.5t-5 -126zM715 1169q2 52 78.5 128.5t130.5 76.5q57 0 128 -64t68 -122 q-1 -34 -38.5 -82t-87 -83.5t-81.5 -35.5q-58 0 -129.5 62.5t-68.5 119.5z" />
<glyph unicode="&#xe5;" horiz-adv-x="1112" d="M14 336q0 138 47 256.5t127.5 199t191 126t234.5 45.5q285 0 441 -80l-62 -883l-350 -41l-16 143q-82 -70 -155.5 -106.5t-162.5 -36.5q-131 0 -213 95t-82 282zM426 354q0 -36 6.5 -61.5t14.5 -37.5t20 -18.5t17 -7t12 -0.5q118 0 149 344l2 -6l12 129q-32 9 -55 9 q-25 0 -40.5 -1.5t-36.5 -9t-34 -21t-27 -39.5t-22 -62.5t-13 -91.5t-5 -126zM451 1206q9 94 84 162t170 68q103 0 163 -60t54 -170q-9 -91 -84 -158t-170 -67q-101 0 -162 61.5t-55 163.5zM604 1206q-3 -33 17.5 -56.5t56.5 -23.5t61.5 23.5t28.5 56.5q3 37 -19 61.5 t-59 24.5q-36 0 -59.5 -24t-26.5 -62z" />
<glyph unicode="&#xe6;" horiz-adv-x="1458" d="M14 377q0 99 24.5 184t64 143.5t91.5 105.5t104 75t105.5 46t93 25t68.5 7q202 0 348 -35q95 35 199 35q156 0 244 -73.5t88 -191.5q0 -135 -127 -236t-328 -132q8 -32 21.5 -52.5t32 -28.5t33.5 -10.5t38 -2.5q33 0 91 19.5t124 68.5l84 -224q-200 -141 -426 -141 q-248 0 -348 172q-136 -166 -297 -166q-96 0 -161.5 29t-101 86.5t-50.5 128.5t-15 168zM426 438q0 -73 4.5 -115.5t16 -63t25 -25.5t38.5 -5q30 0 48.5 25t25.5 96v25q0 32 4 94v27l4 -2q15 116 59 200q-19 1 -52 -0.5t-42 -1.5q-55 0 -93 -60.5t-38 -193.5zM950 518 q144 29 144 144q0 63 -41 63q-31 0 -52.5 -18.5t-32 -50.5t-15 -65.5t-3.5 -72.5z" />
<glyph unicode="&#xe7;" horiz-adv-x="802" d="M23 383q0 141 40 252.5t111 182.5t165 108t204 37q56 0 146.5 -21t137.5 -57l-120 -271q0 -4 -2 -4l2 4q-7 15 -69 45.5t-99 30.5t-59 -30q-50 -66 -50 -263q0 -42 11 -73t27.5 -45.5t30.5 -20.5t25 -6q82 0 158 55l82 -239q-143 -94 -291 -105l-27 -63q180 -54 172 -162 q-2 -39 -27 -77.5t-72 -74t-127.5 -59t-182.5 -27.5l-35 146q97 7 147.5 20t53.5 43q1 22 -36 41t-103 31l-5 10l99 172q-63 8 -116 34t-97 73.5t-69 127.5t-25 185z" />
<glyph unicode="&#xe8;" horiz-adv-x="901" d="M29 375q0 132 34.5 237t88 169t125.5 106.5t141.5 59t140.5 16.5q155 0 242.5 -73.5t87.5 -191.5q0 -135 -126.5 -236t-326.5 -132q6 -26 16.5 -44.5t21.5 -28t27.5 -14.5t28 -6t29.5 -1q33 0 91.5 19.5t125.5 68.5l82 -224q-200 -141 -426 -141q-187 0 -295 104 t-108 312zM145 1315l396 67l243 -364h-327zM397 518q142 29 142 144q0 30 -8 46.5t-33 16.5q-31 0 -52.5 -18.5t-32 -50t-14.5 -66t-2 -72.5z" />
<glyph unicode="&#xe9;" horiz-adv-x="901" d="M29 375q0 132 34.5 237t88 169t125.5 106.5t141.5 59t140.5 16.5q155 0 242.5 -73.5t87.5 -191.5q0 -135 -126.5 -236t-326.5 -132q6 -26 16.5 -44.5t21.5 -28t27.5 -14.5t28 -6t29.5 -1q33 0 91.5 19.5t125.5 68.5l82 -224q-200 -141 -426 -141q-187 0 -295 104 t-108 312zM309 1018l285 364l391 -67l-348 -297h-328zM397 518q142 29 142 144q0 30 -8 46.5t-33 16.5q-31 0 -52.5 -18.5t-32 -50t-14.5 -66t-2 -72.5z" />
<glyph unicode="&#xea;" horiz-adv-x="901" d="M29 375q0 132 34.5 237t88 169t125.5 106.5t141.5 59t140.5 16.5q155 0 242.5 -73.5t87.5 -191.5q0 -135 -126.5 -236t-326.5 -132q6 -26 16.5 -44.5t21.5 -28t27.5 -14.5t28 -6t29.5 -1q33 0 91.5 19.5t125.5 68.5l82 -224q-200 -141 -426 -141q-187 0 -295 104 t-108 312zM119 1018l246 364h378l211 -364h-280l-133 125l-148 -125h-274zM397 518q142 29 142 144q0 30 -8 46.5t-33 16.5q-31 0 -52.5 -18.5t-32 -50t-14.5 -66t-2 -72.5z" />
<glyph unicode="&#xeb;" horiz-adv-x="901" d="M29 375q0 132 34.5 237t88 169t125.5 106.5t141.5 59t140.5 16.5q155 0 242.5 -73.5t87.5 -191.5q0 -135 -126.5 -236t-326.5 -132q6 -26 16.5 -44.5t21.5 -28t27.5 -14.5t28 -6t29.5 -1q33 0 91.5 19.5t125.5 68.5l82 -224q-200 -141 -426 -141q-187 0 -295 104 t-108 312zM152 1169q2 52 78 128.5t130 76.5q57 0 128.5 -64t68.5 -122q-1 -34 -38.5 -82t-87 -83.5t-81.5 -35.5q-58 0 -129.5 62.5t-68.5 119.5zM397 518q142 29 142 144q0 30 -8 46.5t-33 16.5q-31 0 -52.5 -18.5t-32 -50t-14.5 -66t-2 -72.5zM573 1169q2 52 78.5 128.5 t130.5 76.5q57 0 128.5 -64t68.5 -122q-1 -34 -38.5 -82t-87 -83.5t-81.5 -35.5q-58 0 -130 63t-69 119z" />
<glyph unicode="&#xec;" horiz-adv-x="534" d="M-92 1311l395 67l244 -364h-328zM41 0l65 911l390 52l-68 -963h-387z" />
<glyph unicode="&#xed;" horiz-adv-x="534" d="M41 0l65 911l390 52l-68 -963h-387zM106 1014l285 364l391 -67l-348 -297h-328z" />
<glyph unicode="&#xee;" horiz-adv-x="534" d="M-82 1014l246 364h379l211 -364h-281l-133 125l-147 -125h-275zM41 0l65 911l390 52l-68 -963h-387z" />
<glyph unicode="&#xef;" horiz-adv-x="534" d="M-88 1169q2 52 78 128.5t131 76.5q57 0 128 -64t68 -122q-1 -52 -79 -126.5t-129 -74.5q-58 0 -129 62.5t-68 119.5zM41 0l65 911l390 52l-68 -963h-387zM360 1169q2 52 77.5 128.5t129.5 76.5q57 0 128.5 -64t68.5 -122q-1 -34 -38.5 -82t-87 -83.5t-81.5 -35.5 q-58 0 -129 62.5t-68 119.5z" />
<glyph unicode="&#xf0;" horiz-adv-x="1036" d="M16 328q-2 116 29.5 218t84.5 175t122 127.5t142.5 82.5t146.5 32q-30 62 -80 118l-215 -137l-129 143l192 121q-90 57 -194 97l139 161q167 -32 305 -98l207 131l123 -143l-156 -99q81 -66 139.5 -147t87.5 -160t41.5 -145.5t12.5 -128.5q0 -158 -58 -295.5t-151.5 -228 t-210 -142t-236.5 -51.5q-144 0 -243 97.5t-99 271.5zM414 348q0 -39 4.5 -62.5t17 -34t21 -13t30.5 -5.5q50 5 87.5 105t37.5 268q0 52 -6 105q-14 2 -53 2q-139 0 -139 -365z" />
<glyph unicode="&#xf1;" horiz-adv-x="1081" d="M35 0l63 911l363 52l12 -175v-4q142 179 305 179q262 0 262 -275q0 -92 -38 -371.5t-39 -316.5h-390q70 490 70 582q0 40 -15 58.5t-36 18.5q-17 0 -28 -2t-32 -18.5t-35.5 -47.5t-29.5 -95t-23 -154l-20 -342h-389zM244 1145q-3 -2 4 7q42 54 120 122q97 86 144 86 q46 0 145 -37t125 -37q60 0 160 109l123 -133q-24 -69 -132 -160.5t-171 -91.5q-40 0 -145.5 33.5t-129.5 33.5q-35 0 -82.5 -37.5t-56.5 -56.5z" />
<glyph unicode="&#xf2;" horiz-adv-x="974" d="M18 399q0 86 21.5 167.5t65.5 153.5t106 126t148.5 85.5t187.5 31.5q409 0 409 -441q0 -108 -34 -207.5t-97.5 -179.5t-166.5 -128t-230 -48q-84 0 -154.5 23t-129.5 72.5t-92.5 137.5t-33.5 207zM180 1315l395 67l244 -364h-327zM414 377q0 -113 14 -144.5t70 -31.5 q15 0 26.5 13t18 41.5t10.5 54t5.5 71.5t2 71.5t0.5 74.5v18q0 104 -17 140t-67 36q-15 0 -26.5 -13.5t-18 -42.5t-10.5 -55.5t-5.5 -72.5t-2 -71t-0.5 -72v-17z" />
<glyph unicode="&#xf3;" horiz-adv-x="974" d="M18 399q0 86 21.5 167.5t65.5 153.5t106 126t148.5 85.5t187.5 31.5q409 0 409 -441q0 -108 -34 -207.5t-97.5 -179.5t-166.5 -128t-230 -48q-84 0 -154.5 23t-129.5 72.5t-92.5 137.5t-33.5 207zM256 1018l285 364l391 -67l-348 -297h-328zM414 377q0 -113 14 -144.5 t70 -31.5q15 0 26.5 13t18 41.5t10.5 54t5.5 71.5t2 71.5t0.5 74.5v18q0 104 -17 140t-67 36q-15 0 -26.5 -13.5t-18 -42.5t-10.5 -55.5t-5.5 -72.5t-2 -71t-0.5 -72v-17z" />
<glyph unicode="&#xf4;" horiz-adv-x="974" d="M18 399q0 86 21.5 167.5t65.5 153.5t106 126t148.5 85.5t187.5 31.5q409 0 409 -441q0 -108 -34 -207.5t-97.5 -179.5t-166.5 -128t-230 -48q-84 0 -154.5 23t-129.5 72.5t-92.5 137.5t-33.5 207zM125 1018l246 364h379l211 -364h-281l-133 125l-148 -125h-274zM414 377 q0 -113 14 -144.5t70 -31.5q15 0 26.5 13t18 41.5t10.5 54t5.5 71.5t2 71.5t0.5 74.5v18q0 104 -17 140t-67 36q-15 0 -26.5 -13.5t-18 -42.5t-10.5 -55.5t-5.5 -72.5t-2 -71t-0.5 -72v-17z" />
<glyph unicode="&#xf5;" horiz-adv-x="974" d="M18 399q0 86 21.5 167.5t65.5 153.5t106 126t148.5 85.5t187.5 31.5q409 0 409 -441q0 -108 -34 -207.5t-97.5 -179.5t-166.5 -128t-230 -48q-84 0 -154.5 23t-129.5 72.5t-92.5 137.5t-33.5 207zM72 1145q-3 -2 4 7q42 54 120 122q97 86 144 86q46 0 145 -37t125 -37 q60 0 160 109l123 -133q-24 -69 -132 -160.5t-171 -91.5q-40 0 -145.5 33.5t-129.5 33.5q-35 0 -82.5 -37.5t-56.5 -56.5zM414 377q0 -113 14 -144.5t70 -31.5q15 0 26.5 13t18 41.5t10.5 54t5.5 71.5t2 71.5t0.5 74.5v18q0 104 -17 140t-67 36q-15 0 -26.5 -13.5t-18 -42.5 t-10.5 -55.5t-5.5 -72.5t-2 -71t-0.5 -72v-17z" />
<glyph unicode="&#xf6;" horiz-adv-x="974" d="M18 399q0 86 21.5 167.5t65.5 153.5t106 126t148.5 85.5t187.5 31.5q409 0 409 -441q0 -108 -34 -207.5t-97.5 -179.5t-166.5 -128t-230 -48q-84 0 -154.5 23t-129.5 72.5t-92.5 137.5t-33.5 207zM115 1169q2 52 78.5 128.5t130.5 76.5q57 0 128 -64t68 -122 q-1 -34 -38.5 -82t-87 -83.5t-81.5 -35.5q-58 0 -129.5 62.5t-68.5 119.5zM414 377q0 -113 14 -144.5t70 -31.5q15 0 26.5 13t18 41.5t10.5 54t5.5 71.5t2 71.5t0.5 74.5v18q0 104 -17 140t-67 36q-15 0 -26.5 -13.5t-18 -42.5t-10.5 -55.5t-5.5 -72.5t-2 -71t-0.5 -72v-17z M537 1169q2 52 78 128.5t130 76.5q57 0 128.5 -64t68.5 -122q-1 -34 -38.5 -82t-87 -83.5t-81.5 -35.5q-58 0 -129.5 62.5t-68.5 119.5z" />
<glyph unicode="&#xf7;" d="M98 434l19 232h872l-18 -232h-873zM326 184q6 76 66 135.5t128 59.5q70 0 135 -48.5t62 -115.5q-3 -74 -67.5 -133t-133.5 -59q-76 0 -134.5 45t-55.5 116zM377 891q3 75 63.5 134.5t128.5 59.5q40 0 86 -20.5t79.5 -59.5t31.5 -83q-9 -76 -71 -134.5t-130 -58.5 q-72 0 -131.5 45.5t-56.5 116.5z" />
<glyph unicode="&#xf8;" horiz-adv-x="974" d="M12 -145l129 202q-123 113 -123 342q0 86 21.5 167.5t65.5 153.5t106 126t148.5 85.5t187.5 31.5q79 0 153 -19l80 127h189l-129 -203q116 -110 116 -346q0 -108 -34 -207.5t-97.5 -179.5t-166.5 -128t-230 -48q-80 0 -147 21l-80 -125h-189zM385 444l160 254 q-26 23 -68 23q-38 0 -61.5 -83t-30.5 -194zM430 217q21 -16 68 -16q38 0 61.5 79.5t30.5 190.5z" />
<glyph unicode="&#xf9;" horiz-adv-x="1093" d="M35 233q0 94 36 369.5t38 304.5l395 60q-1 -9 -22 -163t-35.5 -279t-14.5 -179q0 -29 19.5 -56.5t42.5 -27.5q19 0 30 1.5t30 12.5t31 32.5t25.5 65t22.5 105.5l31 432l395 52l-68 -963l-366 -41l-19 162v14q-142 -176 -305 -176q-266 0 -266 274zM346 1315l395 67 l244 -364h-328z" />
<glyph unicode="&#xfa;" horiz-adv-x="1093" d="M35 233q0 94 36 369.5t38 304.5l395 60q-1 -9 -22 -163t-35.5 -279t-14.5 -179q0 -29 19.5 -56.5t42.5 -27.5q19 0 30 1.5t30 12.5t31 32.5t25.5 65t22.5 105.5l31 432l395 52l-68 -963l-366 -41l-19 162v14q-142 -176 -305 -176q-266 0 -266 274zM367 1018l284 364 l391 -67l-348 -297h-327z" />
<glyph unicode="&#xfb;" horiz-adv-x="1093" d="M35 233q0 94 36 369.5t38 304.5l395 60q-1 -9 -22 -163t-35.5 -279t-14.5 -179q0 -29 19.5 -56.5t42.5 -27.5q19 0 30 1.5t30 12.5t31 32.5t25.5 65t22.5 105.5l31 432l395 52l-68 -963l-366 -41l-19 162v14q-142 -176 -305 -176q-266 0 -266 274zM170 1018l246 364h379 l211 -364h-281l-133 125l-148 -125h-274z" />
<glyph unicode="&#xfc;" horiz-adv-x="1093" d="M35 233q0 94 36 369.5t38 304.5l395 60q-1 -9 -22 -163t-35.5 -279t-14.5 -179q0 -29 19.5 -56.5t42.5 -27.5q19 0 30 1.5t30 12.5t31 32.5t25.5 65t22.5 105.5l31 432l395 52l-68 -963l-366 -41l-19 162v14q-142 -176 -305 -176q-266 0 -266 274zM199 1169 q2 52 78.5 128.5t130.5 76.5q57 0 128 -64t68 -122q-1 -34 -38.5 -82t-87 -83.5t-81.5 -35.5q-58 0 -129.5 62.5t-68.5 119.5zM621 1169q2 52 78 128.5t130 76.5q57 0 128.5 -64t68.5 -122q-1 -34 -38.5 -82t-87 -83.5t-81.5 -35.5q-58 0 -129.5 62.5t-68.5 119.5z" />
<glyph unicode="&#xfd;" horiz-adv-x="919" d="M-221 -465l43 320q47 -17 133 -17q194 0 315 148h-186l-92 932l383 43l57 -652q68 197 160 613h371q-6 -62 -19 -138t-37 -177.5t-55.5 -203.5t-77 -212.5t-99.5 -209t-126 -187.5t-153 -153.5t-183.5 -102.5t-214.5 -38q-153 0 -219 35zM162 1018l284 364l392 -67 l-349 -297h-327z" />
<glyph unicode="&#xfe;" horiz-adv-x="1075" d="M16 -500l119 1952l389 51l-41 -661q128 121 283 121q68 0 120.5 -21t84.5 -54t52.5 -80.5t28 -95t7.5 -102.5q0 -144 -41 -259t-104 -185.5t-144.5 -117.5t-156.5 -65t-146 -18q-25 0 -37 2l-24 -416zM446 231q33 -8 82 -8q27 0 47 10t33 32t21.5 48.5t12.5 66.5 t5.5 78.5t1.5 92.5q0 88 -15.5 117.5t-47.5 29.5q-55 0 -84.5 -64.5t-42.5 -191.5z" />
<glyph unicode="&#xff;" horiz-adv-x="919" d="M-221 -465l43 320q47 -17 133 -17q194 0 315 148h-186l-92 932l383 43l57 -652q68 197 160 613h371q-6 -62 -19 -138t-37 -177.5t-55.5 -203.5t-77 -212.5t-99.5 -209t-126 -187.5t-153 -153.5t-183.5 -102.5t-214.5 -38q-153 0 -219 35zM80 1169q2 52 78 128.5t131 76.5 q57 0 128 -64t68 -122q-1 -34 -38.5 -82t-86.5 -83.5t-81 -35.5q-58 0 -130 63t-69 119zM502 1169q2 52 78 128.5t131 76.5q57 0 128 -64t68 -122q-1 -34 -38.5 -82t-87 -83.5t-81.5 -35.5q-58 0 -129.5 62.5t-68.5 119.5z" />
<glyph unicode="&#x152;" horiz-adv-x="1746" d="M14 506q0 66 8.5 135t30.5 147.5t56 149t88.5 137t123.5 114t166.5 76.5t212.5 29q94 0 187 -41h827l-69 -301l-414 6l-12 -176h419l-73 -303l-367 13l-12 -183l489 6l-69 -315h-807q-109 -41 -250 -41q-99 0 -193.5 36.5t-171 103.5t-123.5 173t-47 234zM436 547 q0 -275 211 -275q73 0 129 47l39 570q-33 42 -87.5 67t-119.5 25q-95 0 -133.5 -107.5t-38.5 -326.5z" />
<glyph unicode="&#x153;" horiz-adv-x="1433" d="M18 399q0 86 21.5 167.5t65.5 153.5t106 126t148.5 85.5t187.5 31.5q165 0 264 -72q127 72 276 72q155 0 242.5 -73.5t87.5 -191.5q0 -135 -126 -236t-326 -132q7 -32 20 -52.5t31.5 -28.5t33.5 -10.5t37 -2.5q33 0 92 20t126 68l81 -224q-200 -141 -425 -141 q-159 0 -259 72q-118 -72 -274 -72q-84 0 -154.5 23t-129.5 72.5t-92.5 137.5t-33.5 207zM414 377q0 -113 14 -144.5t70 -31.5q48 0 59 155v19q0 32 4 86v84q0 104 -17 140t-67 36q-15 0 -26.5 -13.5t-18 -42.5t-10.5 -55.5t-5.5 -72.5t-2 -71t-0.5 -72v-17zM944 662 q12 -61 12 -136q111 36 111 136q0 30 -8 46.5t-33 16.5q-58 0 -82 -63z" />
<glyph unicode="&#x178;" horiz-adv-x="1120" d="M8 1253h432l146 -391l180 391h414l-441 -813h-6l-31 -440h-409l31 440h-5zM219 1477q2 52 78 128t131 76q57 0 128.5 -64t68.5 -122q-1 -34 -38.5 -82t-87 -83.5t-81.5 -35.5q-58 0 -130 63t-69 120zM641 1477q2 52 78 128t131 76q57 0 128.5 -64t68.5 -122 q-1 -34 -38.5 -82t-87 -83.5t-81.5 -35.5q-58 0 -130 63t-69 120z" />
<glyph unicode="&#x2c6;" horiz-adv-x="1026" d="M94 1018l246 364h379l211 -364h-281l-133 125l-147 -125h-275z" />
<glyph unicode="&#x2dc;" horiz-adv-x="1116" d="M147 1145l4 7q44 56 122 124q96 84 143 84q46 0 145 -37t125 -37q60 0 160 109l123 -133q-24 -69 -132 -160.5t-171 -91.5q-40 0 -145.5 33.5t-129.5 33.5q-35 0 -82.5 -37.5t-56.5 -56.5z" />
<glyph unicode="&#x2000;" horiz-adv-x="888" />
<glyph unicode="&#x2001;" horiz-adv-x="1776" />
<glyph unicode="&#x2002;" horiz-adv-x="888" />
<glyph unicode="&#x2003;" horiz-adv-x="1776" />
<glyph unicode="&#x2004;" horiz-adv-x="592" />
<glyph unicode="&#x2005;" horiz-adv-x="444" />
<glyph unicode="&#x2006;" horiz-adv-x="296" />
<glyph unicode="&#x2007;" horiz-adv-x="296" />
<glyph unicode="&#x2008;" horiz-adv-x="222" />
<glyph unicode="&#x2009;" horiz-adv-x="355" />
<glyph unicode="&#x200a;" horiz-adv-x="98" />
<glyph unicode="&#x2010;" horiz-adv-x="749" d="M47 381l12 63l107 174h536l-12 -63l-82 -174h-561z" />
<glyph unicode="&#x2011;" horiz-adv-x="749" d="M47 381l12 63l107 174h536l-12 -63l-82 -174h-561z" />
<glyph unicode="&#x2012;" horiz-adv-x="749" d="M47 381l12 63l107 174h536l-12 -63l-82 -174h-561z" />
<glyph unicode="&#x2013;" horiz-adv-x="942" d="M47 381l12 63l107 181h729l-10 -64l-84 -180h-754z" />
<glyph unicode="&#x2014;" horiz-adv-x="1413" d="M47 381l12 63l107 181h1200l-12 -64l-82 -180h-1225z" />
<glyph unicode="&#x2018;" horiz-adv-x="520" d="M76 1032q58 166 325 436l177 -71q-22 -27 -60 -72.5t-52 -63.5t-34.5 -47t-29 -52t-13.5 -50q-2 -17 21 -41t45.5 -51.5t19.5 -52.5q-18 -68 -89.5 -122t-135.5 -54q-74 0 -133.5 71t-40.5 170z" />
<glyph unicode="&#x2019;" horiz-adv-x="520" d="M86 817q8 13 27.5 42.5t26 39t21 32.5t19 31.5t14 27t12.5 28.5t8 25t6.5 28.5t2.5 28.5q1 17 -26 41t-54 52t-26 54q6 66 69 121t129 55q73 0 143.5 -72t63.5 -171q-9 -64 -68 -176t-180 -259z" />
<glyph unicode="&#x201a;" horiz-adv-x="522" d="M-10 -242q8 13 27.5 42.5t26 39t21 32.5t19 31.5t14 27t12.5 28.5t8 25t6.5 28.5t2.5 28.5q1 17 -26 41t-54.5 52t-26.5 54q6 66 69.5 121.5t129.5 55.5q73 0 143.5 -72.5t63.5 -171.5q-9 -64 -68 -175.5t-180 -258.5z" />
<glyph unicode="&#x201c;" horiz-adv-x="894" d="M70 1032q9 65 67.5 176t179.5 260l189 -71q-12 -18 -40.5 -61t-36 -55.5t-24 -42t-21.5 -44.5t-10.5 -37t-6.5 -45q-1 -17 26.5 -41t55 -51.5t26.5 -52.5q-6 -67 -69.5 -121.5t-129.5 -54.5q-33 0 -70.5 18t-69 49t-51 77.5t-15.5 96.5zM514 1032q9 64 68.5 175 t181.5 261l186 -71q-13 -21 -39.5 -61.5t-35 -55t-24.5 -42.5t-21 -43.5t-10.5 -37.5t-6.5 -45q-1 -13 16.5 -31.5t38 -34t38 -37.5t16.5 -42q-7 -67 -70.5 -121.5t-128.5 -54.5q-46 0 -95.5 30t-83.5 87t-30 124z" />
<glyph unicode="&#x201d;" horiz-adv-x="983" d="M86 817q8 13 27.5 42.5t26 39t21 32.5t19 31.5t14 27t12.5 28.5t8 25t6.5 28.5t2.5 28.5q1 17 -26 41t-54 52t-26 54q6 66 69 121t129 55q73 0 143.5 -72t63.5 -171q-9 -64 -68 -176t-180 -259zM549 817q8 13 27.5 42.5t26 39t21 32.5t19 31.5t14 27t12.5 28.5t8 25 t6.5 28.5t2.5 28.5q1 17 -26 41t-54 52t-26 54q6 66 69 121t129 55q73 0 143.5 -72t63.5 -171q-9 -64 -68 -176t-180 -259z" />
<glyph unicode="&#x201e;" horiz-adv-x="989" d="M-10 -242q8 13 27.5 42.5t26 39t21 32.5t19 31.5t14 27t12.5 28.5t8 25t6.5 28.5t2.5 28.5q1 17 -26 41t-54.5 52t-26.5 54q6 66 69.5 121.5t129.5 55.5q73 0 143.5 -72.5t63.5 -171.5q-9 -64 -68 -175.5t-180 -258.5zM457 -242q8 13 27.5 42.5t26 39t21 32.5t19 31.5 t14 27t12.5 28.5t8 25t6.5 28.5t2.5 28.5q1 17 -26 41t-54.5 52t-26.5 54q6 66 69.5 121.5t129.5 55.5q73 0 143.5 -72.5t63.5 -171.5q-9 -64 -68 -175.5t-180 -258.5z" />
<glyph unicode="&#x2022;" horiz-adv-x="1140" d="M215 510q6 65 70 153t146.5 151t137.5 63q57 0 143 -48.5t152.5 -125t63.5 -142.5q-5 -49 -46.5 -113.5t-96 -118.5t-114.5 -92t-100 -38q-45 0 -108 29.5t-118.5 74t-94 101.5t-35.5 106z" />
<glyph unicode="&#x2026;" horiz-adv-x="1454" d="M8 76q6 58 92.5 137.5t145.5 79.5q37 0 92.5 -29.5t98 -74.5t40.5 -83q-6 -56 -94 -135.5t-141 -79.5q-62 0 -149.5 66t-84.5 119zM477 76q6 58 92.5 137.5t145.5 79.5q36 0 91 -29.5t97.5 -74.5t40.5 -83q-4 -56 -92 -135.5t-141 -79.5q-62 0 -149.5 66t-84.5 119z M942 76q6 58 92.5 137.5t145.5 79.5q36 0 91 -29.5t97.5 -74.5t40.5 -83q-3 -36 -46.5 -88t-98.5 -89.5t-88 -37.5q-62 0 -149.5 66t-84.5 119z" />
<glyph unicode="&#x202f;" horiz-adv-x="355" />
<glyph unicode="&#x2039;" horiz-adv-x="679" d="M8 475l402 488l227 -101l-217 -387l168 -387l-246 -100z" />
<glyph unicode="&#x203a;" horiz-adv-x="679" d="M43 82l217 393l-168 383l246 105l334 -488l-402 -487z" />
<glyph unicode="&#x205f;" horiz-adv-x="444" />
<glyph unicode="&#x20ac;" d="M-47 358l65 191l91 37q2 6 2 18q1 8 2 23.5t2 23.5h-127l63 193l80 43h27q22 71 52.5 128.5t81 110.5t116.5 89t159.5 57.5t208.5 21.5q175 0 344 -45l-88 -327q-4 1 -28.5 8.5t-31.5 9.5t-30.5 8t-36.5 8.5t-37.5 6.5t-44.5 5.5t-47.5 3t-56.5 1.5q-66 0 -101.5 -19.5 t-52.5 -66.5h371l-82 -236h-319v-4q-3 -27 -3 -55h312l-82 -234h-174q54 -67 147 -67q139 0 273 43l14 -291q-59 -36 -176.5 -60t-251.5 -24q-200 0 -321 100t-154 299h-166z" />
<glyph unicode="&#x25fc;" horiz-adv-x="952" d="M0 0v952h952v-952h-952z" />
</font>
</defs>
</svg>
